<?xml version="1.0" encoding="utf-8"?>
<!-- Generator: Adobe Illustrator 24.2.1, SVG Export Plug-In . SVG Version: 6.00 Build 0)  -->
<svg version="1.1" id="Слой_1" xmlns="http://www.w3.org/2000/svg" xmlns:xlink="http://www.w3.org/1999/xlink" x="0px" y="0px"
	 viewBox="0 0 864.61 999.02" style="enable-background:new 0 0 864.61 999.02;" xml:space="preserve">
<style type="text/css">
	.st0{fill:#FFFFFF;}
	.st1{fill:#484A73;}
	.st2{fill:#53578A;}
	.st3{fill:#E5EDC0;}
	.st4{fill-rule:evenodd;clip-rule:evenodd;fill:#8CA12E;}
	.st5{fill:#8CA12E;}
	.st6{fill:#E3AB84;}
	.st7{fill-rule:evenodd;clip-rule:evenodd;fill:#EB5A3F;}
	.st8{fill-rule:evenodd;clip-rule:evenodd;fill:#1C2036;}
	.st9{fill-rule:evenodd;clip-rule:evenodd;fill:#484A73;}
	.st10{fill-rule:evenodd;clip-rule:evenodd;fill:#E3AB84;}
	.st11{fill-rule:evenodd;clip-rule:evenodd;fill:#D7816C;}
	
		.st12{fill-rule:evenodd;clip-rule:evenodd;fill:none;stroke:#A53B43;stroke-width:0.7087;stroke-linecap:round;stroke-linejoin:round;stroke-miterlimit:2.6131;}
	.st13{fill-rule:evenodd;clip-rule:evenodd;fill:#FFFFFF;}
	.st14{fill-rule:evenodd;clip-rule:evenodd;fill:none;stroke:#D7816C;stroke-miterlimit:10;}
	.st15{fill:#8FB7E2;}
	.st16{fill:#DA9792;}
	.st17{fill:#1C2036;}
	.st18{opacity:0.3;fill:#A53B43;}
	.st19{fill-rule:evenodd;clip-rule:evenodd;fill:#F3E9D6;}
	.st20{fill-rule:evenodd;clip-rule:evenodd;fill:#8FB7E2;}
	.st21{opacity:0.5;fill-rule:evenodd;clip-rule:evenodd;fill:#FFFFFF;}
	.st22{fill:#D7816C;}
	
		.st23{fill-rule:evenodd;clip-rule:evenodd;fill:none;stroke:#D7816C;stroke-width:0.5669;stroke-linecap:round;stroke-linejoin:round;stroke-miterlimit:2.6131;}
	.st24{fill-rule:evenodd;clip-rule:evenodd;fill:none;stroke:#1C2036;stroke-miterlimit:10;}
	.st25{fill-rule:evenodd;clip-rule:evenodd;fill:none;stroke:#6A7B27;stroke-miterlimit:10;}
	.st26{fill:none;stroke:#D7816C;stroke-miterlimit:10;}
</style>
<g>
	<g>
		<path class="st0" d="M862.2,238.13c-28.3,10.84-63.95,25.91-101.7,45.45c-80.09,41.49-186.32,112.11-237.39,213.01
			c-13.57,26.82-22.67,54.53-27.28,83.04c-1.82,0.11-3.64,0.21-5.49,0.29c4.63-29.47,13.97-58.09,28-85.77
			c51.72-102.18,158.96-173.52,239.8-215.36c38.6-20,75.06-35.34,103.76-46.28C862.04,234.38,862.15,236.25,862.2,238.13z"/>
		<path class="st0" d="M855.24,314.37c-0.4,1.93-0.86,3.88-1.34,5.84c-22.78,5.76-56.99,17.72-90.29,42.06
			c-41.55,30.33-88.37,85.34-102.34,182.76c-1.9,0.75-3.83,1.53-5.76,2.28c13.71-101.24,62.19-158.24,105.12-189.5
			C795.81,332.14,832,319.96,855.24,314.37z"/>
		<path class="st0" d="M420.8,580.19c-1.82-0.05-3.64-0.13-5.46-0.21c-0.64-14.91-3.37-36.3-12.13-60.23
			c-15.31-41.76-52.63-100.09-143.57-140.83c-91.04-40.82-146.91-97.15-161.58-162.95c-9.21-41.23-1.61-83.76,21.92-125.01
			c1.71,0.56,3.43,1.18,5.17,1.82c-23.29,40.37-30.84,81.89-21.87,122.04c14.3,64.06,69.12,119.12,158.56,159.2
			c92.78,41.6,130.88,101.35,146.48,144.18C417.4,543.06,420.21,564.98,420.8,580.19z"/>
		<path class="st0" d="M79.91,492.39c-1.63-1.18-3.24-2.36-4.85-3.61c6.16-41.6,3.05-106.03-43.29-182.86
			c-38.68-64.19-37.1-137.68,4.6-212.58c3.53-6.32,7.2-12.42,10.98-18.26c2.01,0.11,4.04,0.24,6.1,0.43
			c-4.28,6.53-8.49,13.38-12.47,20.56c-41.22,74.13-42.78,143.78-4.63,207.06C84.54,383.03,86.76,449.93,79.91,492.39z"/>
		<path class="st0" d="M344.72,574.14c-1.95-0.24-3.91-0.48-5.86-0.72c-12.58-37-38.49-88.45-88.82-111.71
			c-15.53-7.17-29.71-7.2-42.16-0.03c-21.84,12.61-35.52,45.03-43.85,75.12c-1.77-0.59-3.51-1.2-5.22-1.87
			c8.62-30.89,23-64.38,46.39-77.87c14.03-8.08,29.87-8.16,47.09-0.19C305.42,481.41,332.11,536.05,344.72,574.14z"/>
		<path class="st0" d="M758.01,42.95c-8.14,14.27-16.33,30.49-25.06,47.78C692.4,171.18,641.91,271.32,530.9,296.4
			c-14.88,3.37-29.21,5.06-42.86,5.06c-31.29,0-59.24-8.83-83.41-26.45c-32.61-23.74-53.81-60.42-67.46-95.22
			c1.9-0.05,3.72-0.19,5.54-0.37c13.36,33.52,33.89,68.53,65.08,91.26c33.41,24.33,74.45,31.24,121.94,20.51
			c108.55-24.55,158.42-123.41,198.47-202.86c8.83-17.51,17.13-33.94,25.43-48.43C755.1,40.89,756.57,41.88,758.01,42.95z"/>
		<path class="st0" d="M726.59,24.16c-25.89,46.9-78.3,124.51-157.91,163.13c-12.53,6.08-24.74,9.1-36.59,9.1
			c-10.84,0-21.34-2.54-31.48-7.63c-28.16-14.11-49.6-45.75-65.32-79.08c1.31-1.58,2.62-3.16,3.94-4.79
			c15.42,33.44,36.43,65.37,63.79,79.08c19.62,9.85,40.93,9.34,63.31-1.5C644.56,144.51,696.2,68.14,721.77,21.86
			C723.37,22.58,724.98,23.35,726.59,24.16z"/>
		<path class="st0" d="M627.99,0.9c-4.82,33.81-19.09,76.67-59.86,86.87c-5.27,1.31-10.33,1.9-15.15,1.9
			c-27.09,0-46.93-19.25-60.37-39.75c1.39-1.1,2.81-2.2,4.2-3.24c14.86,22.83,37.83,43.9,70.03,35.87
			c37.02-9.24,50.62-49.31,55.49-81.54C624.22,0.95,626.12,0.9,627.99,0.9z"/>
	</g>
	<polygon id="XMLID_18_" class="st1" points="754.21,261.68 485.78,482.67 864.59,483.58 864.96,384.39 	"/>
	<polygon id="XMLID_17_" class="st2" points="574.48,333.23 614.65,372.63 589.54,333.23 	"/>
	<g>
		<polygon id="XMLID_16_" class="st1" points="200.49,392.8 121.08,333.23 79.03,363.01 0.77,317.28 0.77,466.73 208.82,466.73 		
			"/>
		<polygon id="XMLID_15_" class="st2" points="121.08,333.23 102.06,372.63 79.03,363.01 		"/>
		<polygon id="XMLID_14_" class="st2" points="758.17,261.68 725.37,318.34 752.61,333.23 688.6,375.6 648.37,354.31 		"/>
		<path id="XMLID_13_" class="st1" d="M865.32,384.31c0,0-75.19,51.78-254.61-51.09h-32.28l-40.54-24.99l-123.01-105.4L0.77,436.53
			v147.39H864.7L865.32,384.31z"/>
		<g id="XMLID_10_">
			<polygon id="XMLID_12_" class="st2" points="414.88,202.84 344.88,312.04 404.49,326.72 210.14,429.73 0.77,436.53 			"/>
			<polygon id="XMLID_11_" class="st2" points="210.14,429.73 320.31,517.95 84.16,429.73 			"/>
		</g>
		<g>
			<path class="st3" d="M864.7,583.29c0.8-22.95-13.03-68.44-13.03-68.44c6.25,26.65,8.91,45,9.9,57.33
				c-1.77-6.35-4.52-13.61-8.8-20.43c-7.1-13.63-18.36-26.94-35.94-31c1.48,0.41,7.39,2.57,16.03,12.14
				c-4.06-2.12-8.63-3.78-13.78-4.82c4.94,1.53,16.57,8.04,32.24,35.41c-5.87-8.23-14.76-15.81-28.06-18.15
				c3.82,0.79,15.03,4.3,25.95,19.11c-8.97-8.5-22.67-14.27-43.07-8.11c0,0,26.01-7.07,50.39,23.33c-3.58-1.97-8.47-3.22-14.79-1.8
				c0,0,9.89,0.9,17.09,4.79c0.15,0.2,0.3,0.4,0.45,0.61h-97.06l-7.33-13.79h-29.16v-6.77h-21.02l-4.41,20.56H671.5
				c2.9-1.15,5.42-3.3,7.13-5.94c2.28-3.53,3.17-7.86,2.94-12.06c-5.05,1.38-9.23,5.17-11.52,9.86c0.17-1.51,0.26-3.03,0.21-4.55
				c-0.16-5.21-1.88-10.51-5.49-14.28c-3.14,8.22-2.86,17.67,0.62,25.73c-2.77-4.11-5.87-8.01-10.09-10.3
				c3.32,3.84,6.64,7.68,9.96,11.52h-76.96l-7.9-4.89H519.3l-29.83,4.89h-26.88c0.02-0.09,0.04-0.19,0.06-0.29
				c23.12-4.81,18.73-14.05,18.73-14.05c-9.37-1.68-15.12,1.75-18.58,5.74c-0.9-4.77-3.83-9.96-11.31-13.63
				c0,0-8.95,4.82,6.62,22.22H307.83l-14.02,4.37l-12.82-4.37h-52.74c1.77-3.3,2.62-7.1,2.21-10.83c-4.2,0.07-7.91,4.07-7.67,8.26
				c-0.79,0.26-1.59-1.05-2.29-0.61c-0.21,0.13-0.31,0.37-0.39,0.6c-0.3,0.84-0.54,1.7-0.73,2.57h-30.23l-4.69-11.34h-8.38
				l-5.57-5.57h-22.61l-7.2,7.2h-7.44l-2.69,9.71H94.82c3.07-1.3,5.52-3.93,7.11-6.89c1.8-3.36,2.64-7.13,3.36-10.87
				c-3.97,0.11-7.85,2.04-10.34,5.13c-0.59,0.73-1.1,1.54-1.52,2.38c1.9-12.58,1.54-25.49-1.11-37.93
				c0.69,12.28,0.63,24.6-0.18,36.88c-1.23-6.37-4.35-12.5-7.79-18.09c-1.41,1.23-2.07,3.11-2.44,4.94
				c-0.83,4.05-0.51,8.33,0.9,12.22c0.37,1.03,0.83,2.01,1.33,2.98c-3.54-1.77-8.93-3.09-17.19-3.09c0,0,0.5,12.29,23.83,12.35H0.77
				v90.28H864.7V583.29L864.7,583.29z M91.98,583.29c0.09-0.33,0.18-0.67,0.25-1.01c0.12,0.41,0.31,0.78,0.63,1.01H91.98z"/>
			<path class="st3" d="M816.83,520.76c-0.24-0.07-0.36-0.09-0.36-0.09C816.59,520.7,816.71,520.73,816.83,520.76z"/>
			<path class="st3" d="M816.47,527.62c0.89,0.14,1.75,0.3,2.61,0.47C817.38,527.56,816.47,527.62,816.47,527.62z"/>
			<path class="st3" d="M823.25,545.35c-0.88-0.18-1.37-0.22-1.37-0.22C822.35,545.2,822.8,545.28,823.25,545.35z"/>
		</g>
	</g>
	<path class="st4" d="M304.2,427c0,0-52.61-50.13-92.82,12.91c0,0-45.66,122.1,18.86,128.06c64.53,5.96,81.4-30.77,81.4-30.77
		L304.2,427z"/>
	<path class="st3" d="M681.6,373.72c0,0-52.61-56.92-101.59-0.66c0,0-48.97,124.75-11.58,147.25
		c37.39,22.5,138.32,19.19,138.98-6.62C708.07,487.89,697.81,412.44,681.6,373.72z"/>
	<path class="st5" d="M570.94,935.36c24.01,0,46.37-1.5,65.18-4.08c14.71,2.55,33.46,4.08,53.88,4.08c47.28,0,85.6-8.19,85.6-18.3
		s-38.33-18.3-85.6-18.3c-3.01,0-5.98,0.03-8.9,0.1c-18.99-8.96-61.15-15.2-110.16-15.2c-66.78,0-120.91,11.57-120.91,25.85
		C450.03,923.79,504.16,935.36,570.94,935.36z"/>
	<path class="st6" d="M711.97,406.02c0,0,50.38,102.4,40.44,109.67c-17.21,12.57-36.4-16.55-77.84-93.03L711.97,406.02z"/>
	<path class="st6" d="M576.57,423.15c0,0-62.07,77.29-69.73,68.32c-7.66-8.97-6.95-24.94,43.15-93.11L576.57,423.15z"/>
	<path class="st6" d="M505.26,488.4c0,0-55.5-86.51-44-101.21c0,0-1.5-8.07,6.57,1.52c7.68,9.12,36.51,23.66,65.75,79.16
		L505.26,488.4z"/>
	<path class="st7" d="M572.64,374.91c0,0-9.5,3.24-12.69,6c-3.19,2.76-38.69,56.87-38.69,56.87l27.68,32.15l21.44-31.74
		C570.37,438.19,589.47,401.14,572.64,374.91z"/>
	<path class="st8" d="M702.49,871.84c-3.4-73.31-11.1-338.78-11.45-343.04c-0.43-5.2-56.65-13.49-84.6-9.58
		c-27.95,3.91-36.06,9.58-36.06,9.58S552,788.68,546.87,868.04l27.06,2.57c9.79-62.64,50.41-255.09,55.64-266.58
		c2.48-5.46,2.47,2.94,3.97,9.43c1.5,6.49,31.37,202.17,40.81,263.35L702.49,871.84z"/>
	<path class="st9" d="M543.88,906.9h23c1.85,0,3.36-1.64,3.36-3.64v-6.18c0-2-1.51-3.64-3.36-3.64h-23c-1.85,0-3.35,1.64-3.35,3.64
		v6.18C540.53,905.27,542.03,906.9,543.88,906.9z"/>
	<path class="st9" d="M504.88,901.12c0,0-1.31-0.95-1.31-3.79c0-11.04,17.3-5.66,23.73-9.47c5.42-3.21,14.28-11.33,14.42-21.31
		c0,0,0-5.59,6.44-5.59s7.92,0,10.13,0c2.21,0,5.89,1.7,6.44,4.99c0,0,4.23,0,6.54,0c2.3,0,5.61,0.5,5.61,7.39
		c0,6.89,0,21.75,0,23.5c0,1.75-0.67,3.85-1.81,4.29c0,0-0.45,2.34-0.72,2.59c-0.28,0.25-5.02,1.25-7.13,0.9
		c-2.12-0.35-7.94-3.46-7.94-3.46s-1.59-0.48-1.59-2.6c0,0-0.09-1.89-2.37-1.89c-2.28,0-6.79,1.92-7.36,2.27
		c-0.58,0.35-0.86,0.95-0.86,2.2c0,1.25-5.17,3.79-11.71,4.19C528.85,905.71,504.88,901.12,504.88,901.12z"/>
	<path class="st9" d="M564.73,865.94c0,0,4.23,0,6.54,0c2.3,0,5.61,0.5,5.61,7.39c0,6.89,0,21.75,0,23.5c0,1.75-0.67,3.85-1.81,4.29
		c0,0-0.45,2.34-0.72,2.59c-0.28,0.25-5.02,1.25-7.13,0.9c-2.12-0.35-7.94-3.46-7.94-3.46s-1.59-0.48-1.59-2.6
		c0,0-0.09-1.89-2.37-1.89c-2.28,0-6.79,1.92-7.36,2.27c-0.58,0.35-0.86,0.95-0.86,2.2c0,1.25-5.17,3.79-11.71,4.19
		c-4.16,0.26-15.39-1.51-23-2.83c1.5-6.97,6.09-9.1,10.68-9.1c5.6,0,10.62,0,24.71,0c14.09,0,16.95-11.69,16.95-17.65
		C564.73,869.76,564.73,865.94,564.73,865.94z"/>
	<path class="st9" d="M504.88,906.9h42.21c0.8,0,1.44-0.7,1.44-1.57v-2.66c0-0.86-0.65-1.56-1.44-1.56h-42.21
		c-0.8,0-1.44,0.7-1.44,1.56v2.66C503.44,906.2,504.08,906.9,504.88,906.9z"/>
	<path class="st9" d="M541.97,906.9h33.1c0.79,0,1.44-0.7,1.44-1.57v-2.66c0-0.86-0.65-1.56-1.44-1.56h-33.1
		c-0.8,0-1.44,0.7-1.44,1.56v2.66C540.53,906.2,541.17,906.9,541.97,906.9z"/>
	<path class="st9" d="M700.73,867.84c0,0-1.27-4.49-3.02-4.49s-10.15,0-11.8,0c-1.65,0-7.53,1.66-7.53,7.05c0,0-3.73,3.58-4.37,4.45
		c-0.64,0.87-1.19,1.77-1.19,4.75c0,2.98,0,14.47,0,16.62s-0.53,10.62,12.51,10.62c13.04,0,20.82,0,24.86,0c4.04,0,7.16-4,7.16-7.79
		c0-3.78-0.7-7.62-5.07-14.63c-4.37-7.01-7.53-12.21-7.53-12.21S702.81,868.89,700.73,867.84z"/>
	<path class="st9" d="M685.7,863.36c-1.89,0.13-7.31,1.86-7.31,7.04c0,0-3.73,3.58-4.37,4.45c-0.64,0.87-1.19,1.77-1.19,4.75
		c0,2.98,0,14.47,0,16.62s-0.53,10.62,12.51,10.62h3.26l-1.36-8.47c0,0-5.53-18.17-6.07-25.56
		C680.63,865.46,685.64,863.38,685.7,863.36z"/>
	<path class="st9" d="M717.46,898.29h-44.23c-1.11,0-2.01,1.02-2.01,2.26v4.1c0,1.24,0.91,2.26,2.01,2.26h44.23
		c1.11,0,2.02-1.02,2.02-2.26v-4.1C719.48,899.31,718.57,898.29,717.46,898.29z"/>
	<path class="st9" d="M685.74,900.55v4.09c0,1.05,0.64,1.93,1.51,2.19c0.16,0.05,0.33,0.07,0.51,0.07h-14.52
		c-1.11,0-2.02-1.02-2.02-2.26v-4.09c0-1.11,0.73-2.04,1.67-2.23c0.11-0.02,0.23-0.03,0.35-0.03h14.52
		C686.64,898.29,685.74,899.31,685.74,900.55z"/>
	<path class="st7" d="M683.82,373.67c0,0,9.5,3.24,12.69,6c3.19,2.76,39.59,62.07,39.59,62.07l-38.94,24.3l-25.14-41.62
		C672.01,424.43,677.57,411.14,683.82,373.67z"/>
	<path class="st10" d="M630.44,335.75L630.44,335.75c-8.16,0-14.84,6.89-14.84,15.31v20.25c0,8.42,6.68,15.31,14.84,15.31l0,0
		c8.17,0,14.85-6.89,14.85-15.31v-20.25C645.29,342.64,638.61,335.75,630.44,335.75z"/>
	<path class="st11" d="M630.44,310.94L630.44,310.94c-8.16,0-14.84,6.89-14.84,15.31v20.25c0,8.42,6.68,15.31,14.84,15.31l0,0
		c8.17,0,14.85-6.89,14.85-15.31v-20.25C645.29,317.82,638.61,310.94,630.44,310.94z"/>
	<path class="st7" d="M630.44,372.37c12.33,0,14.85-9.47,14.85-9.47l38.53,10.77c8.89,24.48,6.7,64.52,6.7,64.52
		c-6.43,41.53-4.78,45.36,0.47,86.65c0.53,4.19-0.53,9.03-0.53,9.03c-12.57,21.88-110.11,19.31-122.22-1.76c0,0-1.07-4.84-0.53-9.03
		c5.25-41.3,9.1-43.35,2.67-84.89c0,0,15.42-36.6,2.27-63.28l42.96-12.01C615.6,362.9,618.12,372.37,630.44,372.37z"/>
	<path class="st12" d="M570.37,438.19c0,0,11.84-32.06-2.27-54.54 M686.48,472.46c0,0-1.26,13.2-6.32,17.17 M573.68,468.68
		c0,0,2.91,14.35,12.82,22.94 M552.25,391.42l-0.89,35.42 M704.34,391.58l2.14,37.91 M690.51,438.19c0,0,5.65-33.33-4.4-56.94"/>
	<path class="st11" d="M585.16,285.59c0.33-0.05,0.66-0.08,1-0.1c2.17,0.05,5.02,1.68,4.76,4.83l-0.64,7.78
		c5.12-0.17,6.07-5.07,5.98-9.08c2.97,2.73,4.69,6.75,4.34,11.08c-0.61,7.45-7.15,13-14.6,12.39c-7.45-0.61-8.98-15.03-8.37-22.48
		C577.62,290,578.84,285.06,585.16,285.59z"/>
	<path class="st11" d="M683.68,291.62c0.33,0.06,0.66,0.14,0.98,0.23l0.01,0l0,0c5.95,1.64,6.22,6.91,5.93,13.34
		c-0.33,7.47-2.68,13.56-10.15,13.24c-7.47-0.33-13.26-6.65-12.93-14.12c0.19-4.34,2.4-8.12,5.69-10.45
		c-0.6,3.97-0.27,8.94,4.79,9.76l0.34-7.8C678.49,292.66,681.53,291.4,683.68,291.62z"/>
	<path class="st10" d="M639.17,221.05L639.17,221.05c-25.45-1.6-47.58,17.91-49.18,43.35l-2.65,42.08
		c7.15,23.89,24.69,48.04,43.35,49.17l0.01,0c17.07,0.19,46.24-19.7,47.85-45.14l3.98-40.29
		C684.12,244.78,664.62,222.66,639.17,221.05z"/>
	<path class="st13" d="M619.94,324.64c-0.47,6.19,7.08,12.13,13.27,12.6c6.19,0.47,14.55-5.22,15.01-11.41l-0.02,0
		c0.08-1.06-0.72-2-1.79-2.08l-24.38-0.89c-1.06-0.08-2,0.72-2.08,1.79L619.94,324.64z"/>
	<path class="st13" d="M643.7,324.82l-17.4-1.31c-0.42,1.9,0.32,3.91,1.59,4.43c1.54,0.63,14.15,1.25,15.12,0.33
		C643.48,327.83,643.65,326.29,643.7,324.82z"/>
	<path class="st11" d="M661.22,316.31c-5.16,2.14-8.32,6.3-7.05,9.3c1.28,2.99,6.5,3.68,11.66,1.54c5.17-2.14,8.32-6.31,7.05-9.3
		C671.6,314.86,666.38,314.17,661.22,316.31z"/>
	<path class="st11" d="M609.52,313.68c-4.08-2.59-8.77-2.47-10.49,0.27c-1.72,2.74,0.2,7.07,4.27,9.66
		c4.07,2.59,8.77,2.47,10.49-0.27C615.5,320.6,613.59,316.28,609.52,313.68z"/>
	<path class="st8" d="M608.29,285.91c-0.77,0.35-1.69,0.01-2.04-0.76c-0.35-0.77-0.01-1.69,0.76-2.04
		c4.16-1.96,9.63-2.01,13.56,0.54c0.71,0.46,0.92,1.42,0.46,2.13c-0.46,0.71-1.42,0.92-2.13,0.46
		C615.71,284.17,611.63,284.46,608.29,285.91z"/>
	<path class="st8" d="M661.99,287.71c-3.24-1.69-7.28-2.27-10.6-0.44c-0.74,0.41-1.69,0.13-2.1-0.61c-0.41-0.74-0.13-1.69,0.61-2.1
		c4.1-2.26,9.55-1.82,13.56,0.43c0.75,0.41,1.02,1.35,0.62,2.09C663.67,287.83,662.73,288.11,661.99,287.71z"/>
	<path class="st14" d="M636.11,314.43c0,0-0.23,2.6-4.2,1.54c-3.97-1.06,1.41-11.76,3.5-11.17"/>
	<path class="st8" d="M618.44,255.36c-4.98-0.31-14.77,1.44-15.4,11.39c-0.63,9.96-3.01,17.73-9.36,17.33c0,0-0.22,3.44-0.49,7.81
		c-0.27,4.37-0.98,8.76-5.1,8.5c0.59-9.39-2.04-13.26-2.04-13.26s-5.59-17.87-4.89-28.85c0.69-10.98,11.09-20.24,26.14-29.46
		c19.48-11.93,45.48-10.29,63.31,3.98c13.78,11.03,22.39,17.1,21.7,28.09c-0.69,10.99-7.93,32.43-7.93,32.43s-3.1,3.51-3.69,12.9
		c-4.12-0.26-4.27-4.7-3.99-9.07c0.27-4.37,0.49-7.81,0.49-7.81c-6.35-0.4-7.74-8.41-7.11-18.37c0.63-9.95-8.86-12.92-13.85-13.24
		C643.63,256.95,631.03,256.16,618.44,255.36z"/>
	<g>
		<path class="st8" d="M669.31,253.51c0,0,10.64-7.33,10.65-15.71c0.02-15.38-31.44-40.81-50.88-29.86
			c-46.25-17.32-63.73,17.49-23.45,49.58c0.18,0.15,0.37,0.28,0.56,0.43c3.08-2.89,7.55-3.99,10.48-4.17
			c12.59-0.79,25.19-1.59,37.78-2.38c3.28-0.21,8.65,0.48,12.1,3.82C668.32,254.18,669.31,253.51,669.31,253.51z"/>
		<path class="st8" d="M677.67,241.69c-0.18,0.3-0.11,0.7,0.17,0.89c0.28,0.2,0.66,0.12,0.84-0.17c0.02-0.03,7.2-11.02-3.04-24.19
			c-0.21-0.28-0.6-0.31-0.86-0.09c-0.26,0.22-0.29,0.63-0.08,0.91C684.36,231.46,677.68,241.66,677.67,241.69z"/>
		<path class="st8" d="M666.43,217.56c0.22,0.27,0.6,0.31,0.85,0.08c0.26-0.23,0.29-0.63,0.07-0.91
			c-0.04-0.04-12.46-15.85-24.81-15.26c-12.83,0.61-8.83,14.44-8.82,14.48c0.09,0.34,0.43,0.54,0.75,0.44
			c0.32-0.1,0.5-0.46,0.41-0.8c-0.01-0.03-3.55-12.3,7.73-12.84C654.35,202.21,666.39,217.52,666.43,217.56z"/>
	</g>
	<g>
		<path class="st8" d="M653.9,307.13c2.94,0.67,5.87-1.16,6.54-4.1c0.67-2.94-1.16-5.87-4.1-6.54c-2.94-0.67-5.87,1.16-6.54,4.1
			C649.13,303.53,650.96,306.46,653.9,307.13z"/>
		<path class="st8" d="M612,304.53c2.94,0.67,5.87-1.16,6.54-4.1c0.67-2.94-1.16-5.87-4.1-6.54c-2.94-0.67-5.87,1.16-6.54,4.1
			C607.22,300.92,609.06,303.85,612,304.53z"/>
	</g>
	<path class="st6" d="M310.37,467.53c0,0,22.2,96.61,33.01,91.88c10.81-4.74,17.12-19.42,1.72-102.6L310.37,467.53z"/>
	<path class="st6" d="M341.89,560.21c0,0,99.5-38.17,98.73-56.82c0,0,5.92-5.68-6.23-2.59c-11.56,2.94-46.81-0.71-102.93,27.35
		L341.89,560.21z"/>
	<path class="st6" d="M433.01,514.25l-0.95-12.9c0,0,21.67-18.65,31.25-17.71c9.58,0.95,8.26,17.97,8.26,17.97
		S462.58,507.11,433.01,514.25z"/>
	<path class="st6" d="M432.05,501.36c0,0,17.02-24.88,23.24-24.91c6.22-0.03-12.12,22.27-12.12,22.27L432.05,501.36z"/>
	<path class="st15" d="M335.09,438.16c9.4,4.38,18.54,44.24,18.54,44.24l-36.65,19.08c0,0-18.51-24.02-12.59-36.13
		C310.56,452.73,324.36,433.16,335.09,438.16z"/>
	<path class="st6" d="M219.55,444.1c0,0-71.11,99.24-65.24,109.47c19.36,33.75,42.58-23.25,97.68-87.43L219.55,444.1z"/>
	<path class="st5" d="M268.9,935.36c-24.01,0-46.37-1.5-65.18-4.08c-14.71,2.55-33.46,4.08-53.88,4.08c-47.28,0-85.6-8.19-85.6-18.3
		s38.33-18.3,85.6-18.3c3.01,0,5.98,0.03,8.9,0.1c18.99-8.96,61.15-15.2,110.16-15.2c66.78,0,120.91,11.57,120.91,25.85
		C389.81,923.79,335.67,935.36,268.9,935.36z"/>
	<polygon class="st6" points="282.59,864.63 294.96,880.65 299.79,831.67 285.93,830.71 	"/>
	<polygon class="st16" points="298.57,834.27 297.69,850.84 283.8,850.5 284.68,833.94 	"/>
	<path class="st17" d="M282.77,862.74c0,0-6.03-1.35-7.95,2.72c-1.92,4.08-1.53,7.62-0.45,9.83c3.45,7.05,15.8,20.38,14.6,27.81
		c-1.2,7.43,20.87,2.64,20.87,2.64s9.58-3.6,1.66-6.95c-10.07-4.27-11.75,0.96-13.18-8.63s-3.85-12.87-3.85-12.87
		S291.2,877.51,282.77,862.74z"/>
	<polygon class="st6" points="148.14,804.73 139.29,833.12 186.22,787.78 174.7,779.08 	"/>
	<polygon class="st16" points="187.49,771.56 198.24,781.16 182.87,794.21 174.26,782.8 	"/>
	<path class="st17" d="M155.6,797.18c0,0-14.21,0.9-14.8,9.28c-0.22,3.08-2.09,8.28-4.57,13.85c-4.27,9.61-7.11,17.13-9.53,20.03
		c0,0-8.7,12.84,4.35,9.36c13.05-3.48,27.33-34.21,27.33-34.21S151.51,805.08,155.6,797.18z"/>
	<path class="st7" d="M271.53,605.48l11.63,242.92c0,0,10.87,0,13.1,0c2.23,0,2.7-2.13,2.7-2.13
		c3.92-24.72,26.76-144.23,31.31-174.97c4.56-30.74,7.74-51.06,4.74-67.78c-1.38-7.7-11.02-29.29-11.02-29.29
		s-45.15,4.43-52.63,3.36C266.11,576.83,271.53,605.48,271.53,605.48z"/>
	<path class="st18" d="M286.55,642.02c13.29,29.38-2.4,82.96-8.19,102.36c-1.53-29.51-2.29-66.98-4.75-93.51
		C276.33,636.01,280.42,628.47,286.55,642.02z"/>
	<path class="st7" d="M276.16,577.58c0,0,0.53,166.73-28.32,185.97c-28.86,19.24-76.95,44.89-76.95,44.89l-11.76-18.17l63.06-51.3
		l-7.48-83.37c-2.66-27.33,8.02-63.06,8.02-63.06l5.34-15.5l48.1,1.07"/>
	<path class="st8" d="M223.59,358.04c0,0,8.71,41.93,8.13,76.14c-0.57,34.2,55.63,2.75,55.63,2.75s45.67,9.9,34.23-22.34
		c-11.44-32.24,1.08-72.75,1.08-72.75l-52.05-7.31L223.59,358.04z"/>
	<path class="st10" d="M275.45,358.03L275.45,358.03c8.62,0,15.67,9.25,15.67,20.56v39.36c0,11.31-7.05,20.56-15.67,20.56l0,0
		c-8.62,0-15.67-9.25-15.67-20.56v-39.36C259.78,367.28,266.83,358.03,275.45,358.03z"/>
	<path class="st11" d="M275.45,358.03L275.45,358.03c8.62,0,15.67,9.25,15.67,20.56v32.55c-3.5,2.03-7.34,3.18-11.46,3.18
		c-7.37,0-14.25-4.72-19.88-11.9v-23.83C259.78,367.28,266.83,358.03,275.45,358.03z"/>
	<g>
		<path class="st11" d="M315.69,332.4c0.33-0.01,0.65,0,0.97,0.01l0.01,0l0,0c5.96,0.31,11.12,4.68,12.21,10.8
			c1.25,7.12-3.51,13.9-10.62,15.15c-7.12,1.25-13.91-3.5-15.16-10.62c-0.73-4.14,0.57-8.16,3.19-11.05
			c0.27,3.87,1.61,8.5,6.56,8.21l-1.31-7.43C311.01,334.47,313.61,332.64,315.69,332.4z"/>
		<path class="st11" d="M227.27,346.23c-0.31,0.09-0.62,0.2-0.92,0.31l-0.01,0l0,0c-5.58,2.11-9.17,7.85-8.33,14.01
			c0.98,7.16,7.59,12.17,14.74,11.19c7.16-0.98,12.17-7.58,11.19-14.74c-0.57-4.16-3.04-7.6-6.41-9.55
			c0.93,3.77,1.06,8.58-3.74,9.82l-1.02-7.48C232.36,346.77,229.33,345.82,227.27,346.23z"/>
	</g>
	<path class="st10" d="M279.64,402.51c-21.33,2.56-36.41-20.86-50.55-44.21l-5.1-31.2c-3.98-24.32,12.67-47.47,36.98-51.45h0
		c24.31-3.98,47.47,12.67,51.44,36.99l4.99,30.54C311.27,368.27,304.46,399.53,279.64,402.51z"/>
	<path class="st11" d="M303.6,354.69c-3.15-0.93-6.9,1.42-8.39,5.23c-1.48,3.82-2.84,8.65,0.31,9.58c3.15,0.93,9.61-2.4,11.09-6.22
		C308.1,359.46,306.75,355.62,303.6,354.69z"/>
	<path class="st11" d="M252.72,363.54c-4.35-1.19-8.54,0.91-9.34,4.7c-0.81,3.79,2.08,7.83,6.43,9.02c4.36,1.2,9.92,0.49,10.73-3.29
		C261.34,370.18,257.08,364.74,252.72,363.54z"/>
	<g>
		<path class="st11" d="M256.53,330.93c1,0.27,1.59,1.3,1.32,2.3c-0.27,1-1.3,1.59-2.3,1.32c-0.02-0.01-6.03-1.73-10.82,2.49
			c-0.78,0.69-1.97,0.61-2.66-0.17c-0.69-0.78-0.61-1.97,0.17-2.66C248.55,328.64,256.5,330.92,256.53,330.93z"/>
		<path class="st11" d="M300.39,324.6c0.97,0.35,1.48,1.43,1.13,2.4c-0.35,0.97-1.42,1.48-2.4,1.13c-0.02-0.01-5.87-2.22-10.98,1.6
			c-0.83,0.62-2.02,0.45-2.64-0.38c-0.62-0.83-0.45-2.02,0.38-2.64C292.62,321.67,300.36,324.59,300.39,324.6z"/>
	</g>
	<path class="st14" d="M278.61,362.59c-0.02,0.95-4.88,2-6.4,0.79c-1.01-0.8-0.52-4.49,0.02-6.98"/>
	<path class="st8" d="M218.74,340.19l3.05,9.27c0,0,5.82-0.22,6.66,4.9c0,0,3.15-5.94,1.25-12.41c0,0,8.82-14.49,6-28.6
		c-2.81-14.11-7.64-23.28-7.64-23.28S210.61,310.17,218.74,340.19z"/>
	<path class="st19" d="M321.57,323.37l0.06,9.76c0,0-5.59,1.64-4.75,6.76c0,0-4.89-4.62-5.14-11.36c0,0-12.97-10.93-14.8-25.2
		c-1.83-14.27,2.57-21.6,2.57-21.6S319.72,292.33,321.57,323.37z"/>
	<g>
		<path class="st8" d="M295.13,351.36c2.91-0.47,4.88-3.22,4.4-6.12c-0.07-0.4-0.17-0.78-0.32-1.13l0.57-0.31
			c0.59-0.33,1.17-0.81,1.66-1.47c0.22-0.29,0.16-0.71-0.13-0.93c-0.3-0.22-0.71-0.16-0.94,0.13c-0.48,0.65-1.07,1.06-1.65,1.31
			l-0.01-0.01c0.54-0.46,1.07-1.09,1.36-1.98c0.12-0.35-0.07-0.73-0.42-0.84c-0.35-0.12-0.73,0.07-0.85,0.42
			c-0.24,0.73-0.7,1.22-1.15,1.55l-0.06-0.05c0.34-0.38,0.65-0.91,0.73-1.6c0.04-0.37-0.22-0.7-0.59-0.74
			c-0.37-0.04-0.7,0.22-0.74,0.59c-0.06,0.49-0.32,0.83-0.56,1.05c-0.92-0.41-1.96-0.57-3.03-0.39c-2.91,0.48-4.88,3.22-4.4,6.13
			C289.48,349.87,292.22,351.84,295.13,351.36z"/>
		<path class="st8" d="M252.72,358.3c-2.91,0.47-5.65-1.5-6.12-4.4c-0.07-0.4-0.09-0.79-0.06-1.17l-0.64-0.12
			c-0.66-0.13-1.36-0.39-2.04-0.86c-0.3-0.21-0.38-0.63-0.17-0.93c0.21-0.3,0.63-0.38,0.93-0.17c0.66,0.46,1.35,0.66,1.98,0.72
			l0.01-0.01c-0.66-0.26-1.36-0.7-1.92-1.44c-0.22-0.3-0.16-0.71,0.13-0.94c0.29-0.22,0.71-0.16,0.94,0.13
			c0.46,0.61,1.05,0.93,1.59,1.1l0.04-0.06c-0.44-0.25-0.9-0.66-1.2-1.29c-0.16-0.33-0.01-0.73,0.32-0.89
			c0.33-0.16,0.73-0.02,0.89,0.32c0.21,0.45,0.57,0.69,0.86,0.82c0.74-0.68,1.68-1.16,2.74-1.34c2.91-0.47,5.65,1.5,6.13,4.4
			C257.6,355.08,255.63,357.82,252.72,358.3z"/>
	</g>
	<path class="st13" d="M288.96,372.05c0.84,5.13-5.28,11.2-10.41,12.04c-5.13,0.84-13.47-3.56-14.31-8.7
		c-0.15-0.94,3.99-0.91,4.93-1.07l15.16-2.48C285.27,371.7,288.8,371.11,288.96,372.05z"/>
	<path class="st20" d="M259.06,421.53c0,0,3.56,9.14,16.64,9.14c13.08,0,15.26-11.46,15.26-11.46l44.57,19.59
		c-7.2,10.68-9.14,42.05-9.14,42.05c1.39,10.22-9.01,49.82-8.55,57.72c0.46,7.9,14.43,45.96,14.43,45.96
		c-8.13,8.36-41.46,20.31-55.78,20.31c-14.31,0-45.44-11.84-53.57-20.2c0,0,15.09-41.38,15.55-49.27
		c0.46-7.89-17.16-40.02-15.76-50.23c0,0,0.78-32.61-6.41-43.29L259.06,421.53z"/>
	<path class="st8" d="M226.5,295.77c0,0,20.59-78.73,83.09-17.85c13.12,12.78,26.88,26.13,25.65,33.46
		C330.62,338.96,234.87,331.02,226.5,295.77z"/>
	<g>
		<g>
			<path class="st17" d="M224.04,297.51c0.6,3.27,1.26,6.53,1.93,9.79c1.73,8.39,3.59,16.75,5.58,25.08
				c2.74,11.53,5.72,23,8.98,34.39c3.61,12.59,7.56,25.09,12.09,37.39c4.26,11.57,8.99,23.01,14.76,33.92
				c0.67,1.26,1.35,2.52,2.05,3.77c0.39,0.7,1.47,0.07,1.08-0.63c-5.99-10.69-10.85-21.98-15.2-33.42
				c-4.64-12.21-8.68-24.65-12.36-37.18c-3.39-11.55-6.47-23.2-9.31-34.9c-2.13-8.79-4.13-17.62-5.98-26.47
				c-0.56-2.7-1.11-5.4-1.65-8.1c-0.24-1.22-0.33-2.61-0.73-3.79c-0.02-0.05-0.02-0.11-0.03-0.17
				C225.1,296.38,223.89,296.72,224.04,297.51L224.04,297.51z"/>
		</g>
	</g>
	<g>
		<g>
			<path class="st17" d="M316.31,292.3c1.04,2.9,1.95,5.84,2.86,8.78c2.35,7.66,4.45,15.39,6.32,23.18c2.65,11,4.85,22.1,6.53,33.29
				c1.92,12.85,3.14,25.82,3.36,38.82c0.22,13.37-0.61,26.82-3.2,39.96c-0.32,1.61-0.66,3.21-1.03,4.81
				c-0.18,0.78,1.02,1.12,1.21,0.33c2.98-12.94,4.2-26.25,4.29-39.51c0.09-13.17-0.92-26.34-2.67-39.39
				c-1.55-11.59-3.69-23.1-6.31-34.49c-1.93-8.41-4.12-16.76-6.6-25.02c-0.75-2.51-1.53-5-2.34-7.49c-0.37-1.13-0.66-2.37-1.16-3.45
				c-0.02-0.05-0.03-0.1-0.05-0.15C317.24,291.21,316.04,291.54,316.31,292.3L316.31,292.3z"/>
		</g>
	</g>
	<path class="st21" d="M228.06,290.07c0,0,39.55,41.15,100.47,8.55l-11.76-13.89c0,0-31.53,32.6-88.71,4.81V290.07z"/>
	<path class="st15" d="M219.92,439.8c-10.31,1.06-32,35.73-32,35.73l28.39,30.02c0,0,25.35-16.64,23.72-30.02
		C238.33,461.6,231.69,438.59,219.92,439.8z"/>
	<path class="st4" d="M467.8,495.13c0.11-0.16,0.17-0.36,0.17-0.57c0-0.17,0-0.33,0-0.49c0-0.83-1.09-1.16-1.63-0.6
		c-2.94,3.04-5.01,7.01-7.79,10.26c-2.22,2.59-4.5,5.11-7.22,7.12c1.88-4.65,3.49-9.43,4.85-14.34c0.88-3.19,1.69-6.42,2.36-9.68
		c0.32-0.09,0.63-0.26,0.91-0.55c6.58-6.74,13.63-15.72,15.19-25.23c0.06-0.36-0.38-0.49-0.57-0.21c-2.81,4.12-5.07,8.58-8,12.62
		c-1.9,2.62-4.08,4.93-6.42,7.1c1.32-9.37,1.12-18.84-2.39-27.97c-0.33-0.85-1.52-0.63-1.54,0.27c-0.22,7.46,2.66,14.62,1.76,22.16
		c-0.61,5.14-1.88,10.31-3.27,15.37c0.19-3.93,0.09-7.87-0.29-11.79c-0.45-4.57-0.81-10.79-3.43-14.68
		c-0.23-0.34-0.77-0.26-0.86,0.15c-0.94,4.35,1.13,9.62,1.51,14.01c0.48,5.47,0.32,10.99-0.41,16.43
		c-1.21,9.02-4.5,16.93-7.61,25.22c-2.77,5.13-5.99,10-9.79,14.42c-1.81,2.11,1.48,5.08,3.13,2.92c4.95-6.46,9.04-13.33,12.41-20.55
		c0.57,0.13,1.21,0,1.84-0.55c3.79-3.31,7.97-6.17,11.15-10.12C464.21,502.91,466.97,498.95,467.8,495.13L467.8,495.13z"/>
	<path class="st10" d="M463.24,446.14c1.03-3.06,3.6-8.27,1.2-11.2c-2.27-2.77-6.01-1.58-8.11,0.71c-0.92,1.01-1.71,2.16-2.29,3.4
		c-0.47-0.88-1.05-1.69-1.83-2.33c-2.91-2.39-7.86-1.48-8.77,2.53c-0.79,3.5,2.17,8.04,4.26,10.59c2.15,2.63,5.86,6.31,9.61,5.74
		C461.34,454.95,462.16,449.34,463.24,446.14L463.24,446.14z"/>
	<path class="st7" d="M487.1,453.67c-1.27-3.74-5.53-5.03-8.92-3.33c-0.07,0.03-0.13,0.08-0.19,0.11c-0.32-0.88-0.87-1.72-1.63-2.43
		c-2.6-2.42-5.76-1.54-7.77,1.1c-3.91,5.14-2.18,16.43,4.94,17.99C479.9,468.52,489.37,460.37,487.1,453.67L487.1,453.67z"/>
	<path class="st7" d="M453.92,463.75c0.17-3.93,0.15-7.66,0.69-11.58c0.37-2.69,0.35-5.54-1.92-7.39c-1.13-0.92-3.11-1.17-4.13,0.14
		c-1.38,1.8-2.61,3.74-3.26,5.85c-1.92-1.77-4.13-2.87-6.53-2.37c-7.78,1.62-0.65,11.91,2.23,14.75
		C444.03,466.14,453.57,472.06,453.92,463.75L453.92,463.75z"/>
	<path class="st22" d="M463.6,480.13c5.44,1.04,12.51,14.8,10.04,19.76c-3.43,6.86-27.31,11.67-30.1,6.01
		S455.58,478.59,463.6,480.13z"/>
	<g>
		<path class="st10" d="M472.8,399.03c0,0,7.07-2.05,9.12-9.07c2.05-7.03,3.25-11.91,3.25-11.91s3.31-10.01,3.76-10.97
			c0.45-0.95-0.05-3.2-1.19-4.07c-1.14-0.87-4.35-4.39-4.8-4.76c-0.45-0.37-3.95,1.18-1.39,7.77l-2.19,5.12c0,0-0.8,0.35-1.04,0.9
			c0,0-4.7-1.02-6.91-0.61c0,0-0.21-0.83-0.81-1.19l-1.16-5.35l3.13-5.31c0,0,0.63-0.11,0.84-0.48c0,0,3.85,2.32,5.79,1.67
			c1.95-0.65,2.12-1.87,1.92-2.54c-0.2-0.67-2.79-3.66-2.92-3.85c-0.14-0.2-0.7-0.88-1.93-1.17c-1.23-0.29-6.49-0.42-6.49-0.42
			s-1.7-0.17-2.56,1.32c-0.85,1.49-4.18,7.61-4.18,7.61l-1.47-0.27c0,0-10.7-21.89-12.23-23.95c-1.53-2.06-3.61-2.26-4.52-1.93
			c-0.91,0.33-1.46,0.94-0.75,2.59c0.71,1.65,10.14,26.17,10.14,26.17s-5.42-4.05-5.7-4.38c-0.28-0.32-8.44-11.69-9.65-12.8
			c-1.21-1.11-3.01-1.76-4.39-0.94c-1.38,0.82-0.3,2.02,0.94,4.21c1.24,2.19,7.26,12.43,7.85,13.39c0.59,0.96,1.24,1.96,2.01,2.8
			c0.77,0.84,2.26,2.59,2.26,2.59s-13.56-6.51-14.47-6.79c-0.91-0.28-2.92,0.83-3.34,1.44c-0.42,0.61,0.88,1.47,2.47,2.58
			c1.6,1.11,15.62,10.86,16.61,11.73c0.98,0.88,11.33,18.35,12.35,22.45C461.12,400.6,467.95,401.12,472.8,399.03z"/>
		<g>
			<path class="st23" d="M481.54,366.01c0,0,1.2,2.19,3.21,2.24"/>
			<path class="st23" d="M473.39,359.1c0,0-0.89-0.97-0.99-1.91"/>
			<path class="st23" d="M472.55,359.57c0,0-1.28-0.12-3.12-2.2"/>
			<path class="st23" d="M469.42,364.88c0,0-3.16-1.78-4.23-2.08"/>
			<path class="st23" d="M479.35,371.13c0,0,0.62,1.1,1.48,1.64"/>
			<path class="st23" d="M478.31,372.03c0,0,1.57,2.72,4.94,3.58"/>
			<path class="st23" d="M471.4,371.42c0,0-2.1,0.37-3.04,2.18c-0.94,1.8-0.5,7.74,4.25,13.55"/>
			<path class="st23" d="M467.05,366.51c-3.51-0.9-6.16,9.4-12.06,12.82"/>
			<path class="st23" d="M461.55,361.45c0,0-1.29-0.04-3.04,0.75"/>
			<path class="st23" d="M454.12,364.27c0,0,1.16-0.55,1.75-0.83"/>
			<line class="st23" x1="447.5" y1="369.19" x2="451.26" y2="371.02"/>
			<line class="st23" x1="452.46" y1="368.14" x2="450.46" y2="373.45"/>
		</g>
	</g>
	<circle class="st13" cx="658.36" cy="300.01" r="1.99"/>
	<circle class="st13" cx="615.92" cy="297.04" r="1.99"/>
	<path class="st24" d="M587.87,206.53c0,0-27.08,16.34,10.97,57.17"/>
	<path class="st25" d="M224.55,497.81c0,0,20.25-17.63-8.24-55.97"/>
	<line class="st25" x1="317.84" y1="538.57" x2="299.99" y2="558.37"/>
	<line class="st25" x1="324.81" y1="496.82" x2="314.88" y2="456.12"/>
	<path class="st3" d="M593.91,368.76l9.27-2.65c0,0,39.05,141.63-34.74,154.2l0.99-9.27C569.42,511.05,627.99,497.81,593.91,368.76z
		"/>
	<path class="st3" d="M661.08,367.11l9.93,2.98c0,0-15.88,114.49,18.2,142.62l1.65,9.93C690.86,522.63,650.82,547.45,661.08,367.11z
		"/>
	<path class="st6" d="M741.49,518.66c0,0-80.24-52.44-72.14-70.15c0,0,0.73-6.12,11.25,1.65c10.01,7.4,42.69,15.22,72.8,54.27
		L741.49,518.66z"/>
	<path class="st6" d="M671.75,459.7l8.42-9.59c0,0-13.58-26.57-23.21-29.43c-9.63-2.86-15.06,14.1-15.06,14.1
		S645.99,441.14,671.75,459.7z"/>
	<path class="st22" d="M641.9,434.78l17.03-13.45c0,0-19.49-21.58-24.29-17.69S641.9,434.78,641.9,434.78z"/>
	<path class="st6" d="M680.17,450.11c0,0-6.63-30.75-12.63-33.23c-6-2.48,2.93,26.3,2.93,26.3L680.17,450.11z"/>
	<path class="st26" d="M703.44,461.75c0,0,11.91,2.65,33.09,12.57"/>
	<path class="st5" d="M239.18,430.97l11.91-6.95c0,0,35.74,118.13-21.84,143.94l-0.33-10.59
		C228.92,557.38,270.95,533.22,239.18,430.97z"/>
	<path class="st8" d="M228.06,291.14c0,0-36.34,29.39,3.21,157.12c0,0,37.41,18.17,15.5-52.37S228.06,291.14,228.06,291.14z"/>
	<path class="st5" d="M298.74,423.03c0,0-20.85,127.56,22.83,131.53l-3.97-11.91c0,0-21.84-0.5-9.43-118.13L298.74,423.03z"/>
	<path class="st8" d="M309.69,292.17c0,0,39.64,24.77,15.88,156.34c0,0-34.93,22.57-21.74-50.1S309.69,292.17,309.69,292.17z"/>
	<path class="st6" d="M169.19,563c0,0,92.62-39.23,90.96-57.82c0,0,3.42,0.06-8.57,3.72c-11.41,3.48-32.26-0.99-88.35,30.77
		L169.19,563z"/>
	<path class="st6" d="M238.88,529.13l-6.81-10.16c0,0,16.2-23.56,25.7-25.09s12.57,15.27,12.57,15.27S265.65,514.69,238.88,529.13z"
		/>
	<path class="st22" d="M270.33,509.15l-14.51-14.89c0,0,21.2-18.08,25.27-13.8S270.33,509.15,270.33,509.15z"/>
	<path class="st6" d="M232.07,518.97c0,0,10.11-28.39,16.12-30.01c6.01-1.61-6.04,24.62-6.04,24.62L232.07,518.97z"/>
</g>
</svg>
