<?xml version="1.0" encoding="utf-8"?>
<!-- Generator: Adobe Illustrator 24.2.1, SVG Export Plug-In . SVG Version: 6.00 Build 0)  -->
<svg version="1.1" id="Слой_1" xmlns="http://www.w3.org/2000/svg" xmlns:xlink="http://www.w3.org/1999/xlink" x="0px" y="0px"
	 viewBox="0 0 864.61 999.02" style="enable-background:new 0 0 864.61 999.02;" xml:space="preserve">
<style type="text/css">
	.st0{fill:#FFFFFF;}
	.st1{fill:#C2E1CE;}
	.st2{fill-rule:evenodd;clip-rule:evenodd;fill:#2F3C5A;}
	.st3{fill-rule:evenodd;clip-rule:evenodd;fill:#1C2036;}
	.st4{fill-rule:evenodd;clip-rule:evenodd;fill:#1F3441;}
	.st5{fill:#2F3C5A;}
	.st6{fill:#484A73;}
	.st7{fill:#E3AB84;}
	.st8{fill:#D7816C;}
	.st9{fill-rule:evenodd;clip-rule:evenodd;fill:#FFFFFF;}
	.st10{fill-rule:evenodd;clip-rule:evenodd;fill:#E3AB84;}
	.st11{fill-rule:evenodd;clip-rule:evenodd;fill:#D7816C;}
	.st12{fill-rule:evenodd;clip-rule:evenodd;fill:none;stroke:#D7816C;stroke-miterlimit:10;}
	.st13{fill-rule:evenodd;clip-rule:evenodd;fill:#F3E9D6;}
	.st14{fill-rule:evenodd;clip-rule:evenodd;fill:#70BE8D;}
	.st15{fill:#70BE8D;}
	.st16{fill-rule:evenodd;clip-rule:evenodd;fill:#D86C51;}
	.st17{fill:#1C2036;}
	.st18{fill:#1F3441;}
	.st19{fill:none;stroke:#D86C51;stroke-width:2;stroke-miterlimit:10;}
	.st20{fill:#EB5A3F;}
	.st21{fill:#4C241F;}
	.st22{fill:#80362E;}
	.st23{fill:#B25348;}
	.st24{fill-rule:evenodd;clip-rule:evenodd;fill:none;stroke:#EFF7F3;stroke-miterlimit:10;}
	.st25{opacity:0.2;fill-rule:evenodd;clip-rule:evenodd;fill:#FFFFFF;}
	.st26{fill-rule:evenodd;clip-rule:evenodd;fill:#EB5A3F;}
	.st27{fill-rule:evenodd;clip-rule:evenodd;fill:none;stroke:#FFFFFF;stroke-miterlimit:10;}
	.st28{fill:#807DBA;}
	.st29{fill:#FFFFFF;stroke:#807DBA;stroke-miterlimit:10;}
	.st30{fill:none;stroke:#807DBA;stroke-miterlimit:10;}
	.st31{fill:#D86C51;}
</style>
<g>
	<g>
		<path class="st0" d="M864.61,242.93c-28.5,10.92-64.42,26.1-102.44,45.79c-80.68,41.8-187.68,112.93-239.14,214.57
			c-13.67,27.02-22.84,54.93-27.48,83.65c-1.83,0.11-3.67,0.22-5.53,0.3c4.67-29.69,14.08-58.52,28.21-86.4
			c52.1-102.93,160.13-174.8,241.56-216.94c38.89-20.14,75.61-35.6,104.52-46.62C864.45,239.16,864.56,241.04,864.61,242.93z"/>
		<path class="st0" d="M857.6,319.73c-0.4,1.94-0.86,3.91-1.35,5.88c-22.95,5.8-57.41,17.85-90.96,42.36
			c-41.85,30.55-89.02,85.97-103.09,184.1c-1.91,0.76-3.86,1.54-5.8,2.29c13.81-101.99,62.64-159.4,105.9-190.89
			C797.74,337.64,834.19,325.37,857.6,319.73z"/>
		<path class="st0" d="M419.97,587.51c-1.83-0.05-3.67-0.13-5.5-0.22c-0.65-15.02-3.4-36.57-12.22-60.67
			c-15.42-42.07-53.02-100.83-144.62-141.87c-91.71-41.12-147.99-97.86-162.77-164.14c-9.28-41.53-1.62-84.38,22.09-125.93
			c1.73,0.57,3.45,1.19,5.2,1.83c-23.46,40.67-31.07,82.49-22.03,122.94c14.4,64.53,69.63,120,159.72,160.37
			c93.46,41.91,131.84,102.09,147.56,145.24C416.54,550.1,419.37,572.19,419.97,587.51z"/>
		<path class="st0" d="M76.58,499.06c-1.65-1.19-3.26-2.37-4.88-3.64c6.2-41.91,3.07-106.81-43.6-184.21
			c-38.97-64.66-37.38-138.69,4.64-214.14c3.56-6.36,7.25-12.51,11.06-18.39c2.02,0.11,4.07,0.24,6.15,0.43
			c-4.31,6.58-8.55,13.48-12.57,20.71C-4.16,174.49-5.72,244.66,32.7,308.41C81.24,388.9,83.48,456.29,76.58,499.06z"/>
		<path class="st0" d="M343.33,581.41c-1.97-0.24-3.94-0.49-5.91-0.73c-12.67-37.27-38.78-89.1-89.47-112.53
			c-15.64-7.23-29.93-7.25-42.47-0.03c-22,12.7-35.78,45.36-44.17,75.67c-1.78-0.59-3.53-1.21-5.26-1.89
			c8.68-31.12,23.16-64.85,46.73-78.44c14.13-8.14,30.09-8.22,47.43-0.19C303.74,488,330.63,543.04,343.33,581.41z"/>
		<path class="st0" d="M759.66,46.32c-8.2,14.37-16.45,30.71-25.24,48.13c-40.85,81.03-91.71,181.91-203.54,207.18
			c-14.99,3.4-29.42,5.1-43.17,5.1c-31.52,0-59.68-8.9-84.03-26.64c-32.84-23.92-54.2-60.86-67.95-95.92
			c1.91-0.05,3.75-0.19,5.58-0.38c13.46,33.76,34.14,69.03,65.56,91.93c33.65,24.51,74.99,31.47,122.83,20.66
			c109.35-24.73,159.59-124.31,199.93-204.35c8.9-17.64,17.26-34.19,25.62-48.78C756.72,44.24,758.2,45.24,759.66,46.32z"/>
		<path class="st0" d="M728,27.39c-26.08,47.24-78.88,125.42-159.07,164.33c-12.62,6.12-24.92,9.17-36.86,9.17
			c-10.92,0-21.49-2.56-31.71-7.69c-28.37-14.21-49.97-46.09-65.8-79.66c1.32-1.59,2.64-3.18,3.96-4.83
			c15.53,33.68,36.7,65.85,64.26,79.66c19.77,9.92,41.23,9.41,63.77-1.51c78.82-38.24,130.84-115.17,156.59-161.8
			C724.77,25.8,726.38,26.58,728,27.39z"/>
		<path class="st0" d="M628.68,3.96c-4.85,34.06-19.23,77.23-60.3,87.51c-5.31,1.32-10.41,1.91-15.26,1.91
			c-27.29,0-47.27-19.39-60.81-40.04c1.4-1.11,2.83-2.21,4.23-3.26c14.97,23,38.1,44.22,70.54,36.13
			c37.29-9.3,50.99-49.67,55.9-82.14C624.88,4.01,626.8,3.96,628.68,3.96z"/>
	</g>
	<path class="st1" d="M507.51,861.96c24.19,0,46.71-1.51,65.66-4.11c14.82,2.57,33.7,4.11,54.28,4.11
		c47.62,0,86.23-8.25,86.23-18.44s-38.61-18.44-86.23-18.44c-3.03,0-6.02,0.03-8.97,0.1c-19.13-9.03-61.6-15.31-110.97-15.31
		c-67.27,0-121.8,11.66-121.8,26.04S440.24,861.96,507.51,861.96z"/>
	<path class="st2" d="M622.45,815.78l1.82,1.6l-1.98,30.31h-1c0,0-0.57-13-0.49-16.2c0.08-3.2-2.23-6.83-4.08-7.43
		C614.88,823.46,622.45,815.78,622.45,815.78z"/>
	<path class="st3" d="M589.79,351.19c-13.76-7.07-130.06,291.15-111.49,422c0,0,144-22,288,52c0,0,9.59-387.71-115.73-464.69
		L589.79,351.19z"/>
	<path class="st3" d="M280.52,275.52c0,0,139.78,259.67,113.78,499.67c0,0-196-50-306,34c0,0-22.01-370.66,140.22-535.67
		C228.52,273.52,240.52,311.52,280.52,275.52z"/>
	<path class="st1" d="M282.42,857.46c-24.19,0-46.71-1.51-65.66-4.11c-14.82,2.57-33.7,4.11-54.28,4.11
		c-47.62,0-86.23-8.25-86.23-18.44s38.61-18.44,86.23-18.44c3.03,0,6.02,0.03,8.97,0.1c19.13-9.03,61.6-15.31,110.97-15.31
		c67.27,0,121.8,11.66,121.8,26.04C404.22,845.8,349.68,857.46,282.42,857.46z"/>
	<path class="st4" d="M299.68,828.79h-23.17c-1.86,0-3.38-1.65-3.38-3.66v-6.23c0-2.01,1.52-3.66,3.38-3.66h23.17
		c1.86,0,3.38,1.65,3.38,3.66v6.23C303.06,827.14,301.54,828.79,299.68,828.79z"/>
	<path class="st4" d="M278.68,787.53c0,0-4.27,0-6.58,0c-2.32,0-5.65,0.5-5.65,7.44c0,6.94,0,21.91,0,23.67
		c0,1.76,0.68,3.87,1.82,4.33c0,0,0.45,2.36,0.73,2.61c0.28,0.25,5.05,1.26,7.19,0.91c2.13-0.35,8-3.49,8-3.49s1.6-0.48,1.6-2.62
		c0,0,0.09-1.91,2.39-1.91c2.29,0,6.84,1.93,7.42,2.29c0.58,0.35,0.87,0.96,0.87,2.21c0,1.25,5.21,3.82,11.79,4.22
		c4.19,0.26,15.51-1.53,23.17-2.85c-1.51-7.02-6.14-9.16-10.76-9.16c-5.64,0-10.69,0-24.89,0c-14.19,0-17.08-11.78-17.08-17.78
		C278.68,791.37,278.68,787.53,278.68,787.53z"/>
	<path class="st4" d="M338.96,828.79h-42.52c-0.8,0-1.45-0.71-1.45-1.58v-2.68c0-0.87,0.65-1.57,1.45-1.57h42.52
		c0.8,0,1.45,0.71,1.45,1.57v2.68C340.42,828.08,339.77,828.79,338.96,828.79z"/>
	<path class="st4" d="M301.6,828.79h-33.34c-0.8,0-1.45-0.71-1.45-1.58v-2.68c0-0.87,0.65-1.57,1.45-1.57h33.34
		c0.8,0,1.45,0.71,1.45,1.57v2.68C303.06,828.08,302.4,828.79,301.6,828.79z"/>
	<path class="st4" d="M124.82,820.11h44.56c1.12,0,2.03,1.02,2.03,2.27v4.13c0,1.25-0.91,2.28-2.03,2.28h-44.56
		c-1.12,0-2.03-1.02-2.03-2.28v-4.13C122.79,821.14,123.7,820.11,124.82,820.11z"/>
	<path class="st5" d="M268.31,401.75l-17.68,105.44l15.99,291.72h27.94c0,0,27.3-201.25,19.07-311.72c-1.82-24.5-7.89-90-7.89-90
		L268.31,401.75z"/>
	<path class="st6" d="M268.31,401.75l-6.25,103.76l-97.27,283.68l-20.89-2.64c0,0,27.57-207.53,49.73-307.36
		c4.82-21.72,26.87-71.62,26.87-71.62L268.31,401.75z"/>
	<path class="st7" d="M660.19,799.64"/>
	<path class="st7" d="M347.28,323.39c0,0,43.86,92.12,32.01,95.8s-24.15,5.21-69.5-82.5L347.28,323.39z"/>
	<path class="st7" d="M173.35,316.22c0,0-48.9,92.03-37.05,95.71s29.67-2.27,74.72-78.95L173.35,316.22z"/>
	<path class="st7" d="M145.73,378.92c0,0-46.67,99.02-33.81,113.84c0,0-1.15,8.55,6.82-1.95c7.58-9.99,35.09-39.56,54.47-102.68
		L145.73,378.92z"/>
	<path class="st7" d="M362.12,421.28c28.15,9.43,100.67-42.98,100.91-62.6c0,0,6.54-5.63-6.39-3.07
		c-12.3,2.43-52.51,6.24-108.94,40.54C347.71,396.14,355.25,418.97,362.12,421.28z"/>
	<path class="st7" d="M109.44,481.93l10.86,6.88c0,0-5.58,29.54-14.08,35.03c-8.49,5.5-18.56-9.35-18.56-9.35
		S89.82,507.19,109.44,481.93z"/>
	<path class="st8" d="M87.66,514.5l20.28,8.17c0,0-12.72,26.39-18.46,24S87.66,514.5,87.66,514.5z"/>
	<path class="st7" d="M120.3,488.82c0,0,2.32,31.6-2.77,35.7c-5.1,4.1-4.64-26.25-4.64-26.25L120.3,488.82z"/>
	<path class="st9" d="M313.7,284.89c0,0,9.57,3.26,12.78,6.05c3.21,2.78,38.98,57.29,38.98,57.29l-31.83,36.97l-23.84-37.5
		C309.79,347.69,296.75,311.31,313.7,284.89z"/>
	<path class="st9" d="M201.71,283.65c0,0-9.57,3.26-12.78,6.05c-3.21,2.78-39.88,62.53-39.88,62.53l35,24.53l29.55-41.98
		C213.61,334.77,208.01,321.38,201.71,283.65z"/>
	<path class="st10" d="M248.5,224.92L248.5,224.92c-8.37,1.18-13.99,10.92-12.47,21.64l3.97,28.08c1.51,10.72,9.6,18.52,17.98,17.34
		l0,0c8.37-1.18,13.98-10.92,12.47-21.64l-3.97-28.08C264.96,231.54,256.87,223.74,248.5,224.92z"/>
	<path class="st11" d="M245.5,201.59L245.5,201.59c-8.37,1.18-13.99,10.92-12.47,21.64l3.97,28.08c1.51,10.72,9.6,18.52,17.98,17.34
		l0,0c8.37-1.18,13.98-10.92,12.47-21.64l-3.97-28.08C261.96,208.21,253.87,200.41,245.5,201.59z"/>
	<g>
		<path class="st11" d="M298.6,194.57c1.84,6.76-2.15,13.74-8.92,15.57c-0.19,0.05-0.38,0.1-0.57,0.14
			c0.18-4.71-0.23-9.31-1.26-13.52l-0.92-3.77C285.05,185.27,295.52,183.26,298.6,194.57z"/>
		<path class="st11" d="M196.2,219.58c1.49,6.85,8.24,11.2,15.09,9.71c0.19-0.04,0.38-0.09,0.57-0.14c-2.33-4.1-4.1-8.36-5.12-12.58
			l-0.92-3.77C203.94,205.08,193.72,208.12,196.2,219.58z"/>
	</g>
	<path class="st10" d="M229.93,135.54L229.93,135.54c22.3-5.45,45.16,8.95,50.79,32l9.31,38.12c5.63,23.05-14.07,47.54-30.32,51.82
		l0,0c-13.09,3.39-45.16-8.95-50.79-32l-9.31-38.12C193.98,164.3,207.62,140.99,229.93,135.54z"/>
	<path class="st11" d="M225.84,223.18c3.24-0.73,6.47,1.31,7.19,4.56c0.73,3.24-1.31,6.47-4.55,7.2c-3.24,0.73-6.47-1.31-7.2-4.56
		C220.55,227.13,222.59,223.91,225.84,223.18z"/>
	<path class="st11" d="M274.49,212.28c3.24-0.73,6.47,1.31,7.2,4.55c0.73,3.25-1.31,6.47-4.56,7.2c-3.25,0.73-6.47-1.31-7.2-4.56
		C269.2,216.23,271.24,213.01,274.49,212.28z"/>
	<path class="st12" d="M249.21,213c-0.24,2.43-0.63,6.81-0.35,7.42c0.38,0.84,5.11-0.06,6.01-1.72"/>
	<g>
		<path class="st11" d="M256.59,183.91c-0.79,0.62-0.93,1.77-0.31,2.55c0.62,0.79,1.76,0.93,2.55,0.31
			c0.02-0.01,4.73-3.83,10.6-1.88c0.96,0.32,1.99-0.2,2.31-1.15c0.32-0.96-0.2-1.99-1.16-2.31
			C262.84,178.84,256.61,183.89,256.59,183.91z"/>
		<path class="st11" d="M215.05,194.89c-0.73,0.68-0.78,1.84-0.1,2.57c0.68,0.74,1.84,0.78,2.57,0.1c0.01-0.01,4.4-4.21,10.41-2.73
			c0.98,0.24,1.97-0.36,2.21-1.34c0.24-0.98-0.36-1.97-1.34-2.21C220.87,189.33,215.07,194.87,215.05,194.89z"/>
	</g>
	<path class="st13" d="M199.16,209.12c0,0,5.48-1.2,6.67,3.69c0,0,2.61-5.98,0.28-12.09c0,0,7.44-14.67,3.65-28.1
		c-3.78-13.43-15.04-13.75-15.04-13.75C171.19,172.44,193.51,186,199.16,209.12z"/>
	<path class="st13" d="M291.16,186.65c0,0-5.42,1.46-4.22,6.35c0,0-5.07-4.1-5.82-10.6c0,0-13.36-9.59-16.2-23.25
		c-2.84-13.66,7-19.13,7-19.13C299.06,141.2,285.51,163.52,291.16,186.65z"/>
	<path class="st13" d="M205.9,176.51c0,0,2.22,3.11,5.06,2.13c2.84-0.98,5.72-3.12,3.64-6.58c0,0,9.83-10.46,18.58-10.33
		c8.74,0.13,29.5,8.86,48.1,3.78c18.6-5.08,15.03-16.85-2.07-32.56c-13.02-11.96-28.11-14.44-57.84-5.33
		c-29.74,9.1-29.49,24.39-26.1,35.32C198.67,173.86,205.9,176.51,205.9,176.51z"/>
	<g>
		<path class="st3" d="M268.45,205.33c-2.78,0.68-5.58-1.02-6.25-3.8c-0.68-2.78,1.02-5.57,3.8-6.25c2.78-0.68,5.57,1.02,6.25,3.8
			C272.93,201.85,271.23,204.65,268.45,205.33z"/>
		<path class="st3" d="M227.92,215.23c-2.78,0.68-5.57-1.02-6.25-3.8c-0.68-2.77,1.02-5.57,3.79-6.25c2.78-0.68,5.58,1.02,6.25,3.8
			C232.39,211.75,230.7,214.55,227.92,215.23z"/>
	</g>
	<path class="st9" d="M240.96,230.53c1.2,4.9,8.91,7.91,13.81,6.71c4.9-1.2,9.72-6.81,8.52-11.71c-0.22-0.9-1.13-1.45-2.03-1.23
		l-19.07,4.2C241.29,228.72,240.74,229.63,240.96,230.53z"/>
	<path class="st1" d="M652.73,476.49l26.5-86.73c3.31-9.77-13.32-39.36-22.23-38.39l-65.73-2.54c-8.9,0.96-14.99,9.45-16.32,19.01
		l12.33,129.02L652.73,476.49z"/>
	<path class="st1" d="M513.78,438.37l32.19,10.79l54.09-60.23c11.13-7.4,8.89-31.05,0.34-37.67l0.96,0.85
		c-8.55-6.62-24.61-1.35-29.95,8.05L513.78,438.37z"/>
	<path class="st7" d="M646.31,643.5c0,0,45,33,1.5,145.49l-18-1.5V651L646.31,643.5z"/>
	<path class="st10" d="M649.54,783.44c-0.11,4.11-3.39,8.53-3.51,11.84c2.2,3.31,4.49,5.71,4.49,5.71l0.84,5.07l-12.47,34.15
		l-10.04,3.31c0,0-11.78-3.34-10.71-3.78c1.06-0.43,5.34-3.68,5.62-5.15c0.28-1.47,4.9-24,4.59-31.02
		c-0.23-5.19,1.95-12.31,1.45-17.62L649.54,783.44z"/>
	<path class="st7" d="M614.81,640.5c0,0,45,33,1.5,145.49l-18-1.5V648L614.81,640.5z"/>
	<path class="st2" d="M653.95,818.78l1.82,1.6l-1.98,30.31h-1c0,0-0.57-13-0.49-16.2c0.08-3.2-2.23-6.83-4.08-7.43
		C646.38,826.46,653.95,818.78,653.95,818.78z"/>
	<g>
		<path class="st8" d="M629.81,787.5c-0.15-11.37-0.29-22.75-0.35-34.12c-0.11-11.37-0.09-22.75-0.13-34.12
			c-0.05-11.37,0.02-22.75,0.04-34.12c0.01-11.37,0.13-22.75,0.21-34.12l0-0.15l0.13-0.06l16.59-7.29l-16.4,7.71l0.13-0.21
			c0.08,11.37,0.21,22.75,0.21,34.12c0.01,11.37,0.09,22.75,0.04,34.12c-0.04,11.37-0.02,22.75-0.13,34.12
			C630.11,764.75,629.96,776.12,629.81,787.5z"/>
	</g>
	<path class="st14" d="M620.01,838.53c0,0,0.59,1.02,1.54,1.41c0.95,0.4,9.04,1.15,10.9,0.77c1.87-0.39,4.41-1.06,6.75-8.38
		c2.34-7.33,10.56-31.31,10.72-32.01l-1.04-1.22c0,0,1.5-0.52,1.95-0.47c0.45,0.04,3.09,4.85,3.94,6.96
		c0.85,2.11,1.92,12.48,1.4,14.13c-0.52,1.65-5.61,3.85-10.67,14.43c-5.06,10.58-3.45,16.29-12.27,16.06
		c-8.82-0.22-17.82-0.45-20.88-0.53c-3.06-0.07-4.32-2.69-4.05-3.86c0.27-1.16,4.11-3.65,8.84-6.73
		C617.14,839.09,618.45,838.36,620.01,838.53z"/>
	<path class="st10" d="M618.05,780.44c-0.11,4.11-3.39,8.53-3.51,11.84c2.2,3.31,4.49,5.71,4.49,5.71l0.84,5.07l-12.47,34.15
		l-10.04,3.31c0,0-11.78-3.34-10.71-3.78c1.06-0.43,5.34-3.68,5.62-5.15c0.28-1.47,4.9-24,4.59-31.02
		c-0.23-5.19,1.95-12.31,1.45-17.62L618.05,780.44z"/>
	<path class="st14" d="M588.51,835.53c0,0,0.59,1.02,1.54,1.41c0.95,0.4,9.04,1.15,10.9,0.77c1.87-0.38,4.41-1.06,6.75-8.38
		c2.34-7.33,10.56-31.31,10.72-32.01l-1.04-1.22c0,0,1.5-0.52,1.95-0.47c0.45,0.04,3.09,4.85,3.94,6.96
		c0.85,2.11,1.92,12.48,1.4,14.13c-0.52,1.65-5.61,3.85-10.67,14.43c-5.06,10.58-3.45,16.29-12.27,16.06
		c-8.82-0.22-17.82-0.45-20.88-0.53c-3.06-0.07-4.32-2.69-4.05-3.86c0.27-1.16,4.11-3.65,8.84-6.73
		C585.64,836.09,586.96,835.36,588.51,835.53z"/>
	<path class="st15" d="M585.29,474.19c0,0-28,61.01,12.5,199l66.5,1.5c0,0,52.33-168.83-10.67-201.83L585.29,474.19z"/>
	<path class="st10" d="M610.05,350.84l-1.77-39.61c-0.51-11.38,6.17-21.01,14.85-21.39l0,0c8.67-0.39,16.19,8.61,16.69,19.99
		l-0.05,40.97C639.78,350.8,609.06,371.07,610.05,350.84z"/>
	<path class="st11" d="M623.13,289.84L623.13,289.84c-8.67,0.39-15.36,10.01-14.85,21.39l1.46,32.75c3.62,1.89,7.53,2.87,11.68,2.68
		c7.41-0.33,13.07-2.97,18.41-10.45l-0.01-26.4C639.32,298.45,631.81,289.45,623.13,289.84z"/>
	<g>
		<path class="st11" d="M581.49,265.85c-0.33,0.01-0.65,0.02-0.98,0.06l-0.01,0l0,0c-5.98,0.58-10.99,5.21-11.8,11.42
			c-0.94,7.22,4.15,13.83,11.37,14.77c7.22,0.94,13.84-4.15,14.78-11.37c0.55-4.2-0.94-8.19-3.71-10.98
			c-0.09,3.91-1.24,8.62-6.23,8.56l0.98-7.54C586.29,267.72,583.59,266,581.49,265.85z"/>
		<path class="st11" d="M671.09,275.79c0.32,0.08,0.64,0.17,0.94,0.27l0.01,0l0,0c5.71,1.87,9.58,7.49,9.01,13.73
			c-0.67,7.25-7.09,12.59-14.33,11.92c-7.25-0.66-12.59-7.08-11.92-14.33c0.39-4.21,2.72-7.78,6.02-9.9
			c-0.76,3.83-0.68,8.69,4.2,9.71l0.69-7.57C665.99,276.57,669,275.48,671.09,275.79z"/>
	</g>
	<path class="st10" d="M618.6,336.7c24.44,2.88,38.01-24.54,51.19-48.67l3.73-31.63c2.91-24.65-14.88-47.2-39.53-50.11l0,0
		c-24.65-2.91-47.2,14.88-50.11,39.53l-3.65,30.96C587.55,301.75,591.57,333.51,618.6,336.7z"/>
	<path class="st11" d="M594.65,287.74c3.13-1.07,7.01,1.12,8.68,4.89c1.66,3.77,0.48,7.71-2.65,8.78c-3.13,1.07-7.01-1.12-8.68-4.89
		C590.34,292.75,591.52,288.82,594.65,287.74z"/>
	<path class="st11" d="M646.26,294.37c4.33-1.4,8.63,0.53,9.61,4.31c0.98,3.77-1.74,7.97-6.07,9.37c-4.33,1.4-8.64-0.53-9.62-4.31
		C639.21,299.96,641.93,295.77,646.26,294.37z"/>
	<g>
		<path class="st3" d="M640.96,261.71c-0.99,0.32-1.54,1.38-1.23,2.37c0.32,0.99,1.38,1.54,2.37,1.23c0.02-0.01,5.99-2.02,11,2.02
			c0.82,0.66,2.01,0.53,2.67-0.29c0.66-0.82,0.53-2.01-0.29-2.67C648.89,259.05,640.98,261.7,640.96,261.71z"/>
		<path class="st3" d="M596.54,257.32c-0.96,0.4-1.43,1.5-1.03,2.47c0.39,0.96,1.5,1.43,2.47,1.03c0.02-0.01,5.81-2.5,11.12,1.12
			c0.87,0.59,2.05,0.37,2.64-0.5c0.59-0.87,0.36-2.05-0.5-2.64C604.22,254.02,596.56,257.31,596.54,257.32z"/>
	</g>
	<path class="st12" d="M623.19,287.48c-1.12,2.28-3.08,6.4-3.04,7.09c0.06,0.96,5,1.79,6.47,0.51"/>
	<path class="st16" d="M679.4,269.33l-2.65,9.47c0,0-5.87,0.04-6.48,5.23c0,0-3.44-5.84-1.82-12.43c0,0-9.52-14.18-7.32-28.51
		c2.2-14.33,6.64-23.77,6.64-23.77S686.24,238.76,679.4,269.33z"/>
	<g>
		<path class="st3" d="M603.03,284.01c-2.95-0.35-5.05-3.02-4.71-5.96c0.05-0.4,0.14-0.79,0.27-1.16l-0.59-0.29
			c-0.61-0.31-1.21-0.76-1.74-1.4c-0.24-0.29-0.19-0.71,0.09-0.95c0.29-0.24,0.71-0.2,0.95,0.09c0.52,0.63,1.13,1.02,1.72,1.25
			l0.01-0.01c-0.57-0.43-1.12-1.05-1.45-1.93c-0.13-0.35,0.04-0.74,0.39-0.87c0.35-0.13,0.74,0.04,0.87,0.39
			c0.28,0.72,0.76,1.2,1.23,1.5l0.06-0.05c-0.36-0.37-0.69-0.89-0.8-1.58c-0.06-0.37,0.19-0.71,0.56-0.77
			c0.37-0.06,0.71,0.19,0.77,0.56c0.08,0.5,0.36,0.83,0.61,1.03c0.9-0.45,1.95-0.66,3.03-0.53c2.95,0.35,5.05,3.02,4.71,5.97
			C608.65,282.25,605.98,284.36,603.03,284.01z"/>
		<path class="st3" d="M646.02,289.08c2.95,0.35,5.61-1.76,5.96-4.71c0.05-0.4,0.05-0.8,0.01-1.18l0.64-0.14
			c0.66-0.16,1.35-0.46,2.02-0.96c0.3-0.22,0.35-0.65,0.13-0.94c-0.22-0.3-0.65-0.36-0.94-0.13c-0.65,0.49-1.33,0.72-1.96,0.81
			l-0.01-0.01c0.65-0.29,1.34-0.76,1.86-1.53c0.21-0.31,0.13-0.73-0.17-0.94c-0.3-0.21-0.73-0.13-0.94,0.18
			c-0.44,0.64-1.02,0.99-1.55,1.18l-0.04-0.06c0.43-0.28,0.88-0.7,1.15-1.35c0.14-0.34-0.02-0.74-0.36-0.88
			c-0.34-0.14-0.74,0.02-0.88,0.36c-0.19,0.46-0.54,0.72-0.83,0.86c-0.77-0.65-1.74-1.09-2.82-1.22c-2.95-0.35-5.62,1.76-5.97,4.71
			C640.96,286.07,643.07,288.74,646.02,289.08z"/>
	</g>
	<path class="st9" d="M610.12,305.55c-0.61,5.2,5.82,11.04,11.02,11.65c5.2,0.61,13.4-4.19,14.01-9.39
		c0.11-0.95-4.05-0.74-5.01-0.85l-15.37-1.81C613.82,305.03,610.24,304.6,610.12,305.55z"/>
	<path class="st1" d="M711.2,428.24l20.85-25.53l-56.27-47.59c-8.33-6.88-31.61-6.28-37.24,2.95l0,0
		c-5.63,9.22,0.25,29.54,10.18,33.81L711.2,428.24z"/>
	<path class="st0" d="M610,349.61l-14.83-0.58c0,0-10.54,34.17,21.46,12.17c0,0,6,29.21,33-10.13l-9.67-0.54
		C639.96,350.53,611.43,367.92,610,349.61z"/>
	<path class="st8" d="M705.02,485.99l-20.59,1.61l-6.14,15.8l28-5.65c3.79-0.41,9.37-8.46,7.01-10.71
		C711.62,485.43,705.02,485.99,705.02,485.99z"/>
	<path class="st7" d="M667.68,487.68l10.61,15.72l20.2-4.08l-22.5-33.68l-4.36,2.87C665.24,472.71,663.48,481.3,667.68,487.68z"/>
	<path class="st17" d="M642.79,396.69"/>
	<path class="st17" d="M539.29,507.69"/>
	<path class="st0" d="M614.82,359.58c0,0-30.11,47.39-0.35,114.09l6-0.15c0,0-26.01-45.44-0.04-112.37L614.82,359.58z"/>
	<polygon class="st1" points="685.79,481.19 732.55,424.24 706.7,401.6 665.79,473.69 	"/>
	<path class="st1" d="M713.12,422.27c4.82,5.91,13.52,6.79,19.42,1.97c5.91-4.82,6.79-13.52,1.97-19.42
		c-4.82-5.91-13.51-6.79-19.42-1.97C709.19,407.67,708.31,416.36,713.12,422.27z"/>
	<path class="st1" d="M514.87,454.52c4.82,5.91,13.52,6.79,19.42,1.97c5.91-4.82,6.79-13.52,1.97-19.42
		c-4.82-5.91-13.51-6.79-19.42-1.97C510.94,439.92,510.06,448.61,514.87,454.52z"/>
	<path class="st18" d="M487.71,811.32c0.08-15.84-28.25-11.28-32.03-40.31c-2.03-15.62-1.34-130.86,1.18-140.46l-7.4,1.31v-0.03
		l-0.08,0.02l-0.08-0.02v0.03l-7.08-1.15c2.52,9.6,2.9,124.67,0.87,140.3c-3.78,29.03-32.11,24.47-32.03,40.31
		c24.74,2.57,36.16,0.8,38.33,0.4C451.55,812.12,462.97,813.89,487.71,811.32z"/>
	<line class="st19" x1="546.26" y1="639.5" x2="583.56" y2="729.25"/>
	<line class="st19" x1="544.53" y1="639.67" x2="507.07" y2="729.25"/>
	<path class="st20" d="M583.8,729.76c-0.95,5.35-10.15,27.75-40.84,28.42c-30.69,0.67-38.96-25.74-38.96-28.75
		C505.65,726.42,583.33,726.08,583.8,729.76z"/>
	<line class="st19" x1="352.19" y1="639.5" x2="314.89" y2="729.25"/>
	<line class="st19" x1="353.92" y1="639.67" x2="391.38" y2="729.25"/>
	<path class="st20" d="M314.65,730.02c0.94,5.87,10.15,30.43,40.84,31.16c30.69,0.73,38.96-28.22,38.96-31.52
		C392.8,726.35,315.13,725.99,314.65,730.02z"/>
	<path class="st7" d="M443.48,616.79c-5.09,1.86-37.18,1.4-91.25,16.21c-11.89-6.51-16.6,0.45-0.45,4.49
		c1.76,2.6,95.16-5.34,95.16-5.34L443.48,616.79z"/>
	<path class="st7" d="M455.12,616.79c5.09,1.86,37.18,1.4,91.25,16.21c11.89-6.51,16.6,0.45,0.45,4.49
		c-1.76,2.6-95.16-5.34-95.16-5.34L455.12,616.79z"/>
	<path class="st7" d="M438.37,648.78c-0.63,1.92-0.47,6.72,0.32,7.04c0.79,0.32,21.72,0.48,21.88,0c0.16-0.48,0.47-6.4-0.16-7.04
		C459.78,648.14,440.26,647.02,438.37,648.78z"/>
	<path class="st7" d="M404.63,818.67c-0.63-3.84-1.42-8.32,6.45-8.48c7.87-0.16,44.39,0,50.21,0c5.82,0,28.96-1.12,30.54,0.96
		c1.57,2.08,1.23,8,1.23,8S410.77,822.03,404.63,818.67z"/>
	<path class="st20" d="M397.21,824.27c-0.31-3.36,0.99-5.12,1.73-5.44c0.74-0.32,9.46-0.16,13.45-0.16c3.98,0,75.54,0,78.34-0.32
		c2.8-0.32,9.38-0.47,9.58,1.12c0.16,1.28,0.6,4.48,0.6,4.48S397.5,825.23,397.21,824.27z"/>
	<path class="st21" d="M351.56,627.99c0,4.64-0.63,13.76,0,14.24c0.63,0.48,3.15,0,3.15-0.64c0-0.64,0.31-13.28,0-13.76
		C354.4,627.35,351.56,627.13,351.56,627.99z"/>
	<g>
		<g>
			<g>
				<path class="st22" d="M426.23,812c0,0.37-0.99,0.63-2.1,0.73c-1.1,0.09-1.96,0.22-2.15-0.09c-0.08-0.16,0.06-0.43,0.43-0.69
					c0.36-0.26,0.94-0.46,1.58-0.53C425.27,811.3,426.23,811.64,426.23,812z"/>
			</g>
		</g>
	</g>
	<g>
		<g>
			<g>
				<path class="st23" d="M441.03,816.79c0,0.37-0.43,0.65-0.91,0.68c-0.46,0.03-0.87-0.17-0.98-0.51c-0.11-0.35,0.31-0.77,0.89-0.8
					C440.61,816.12,441.03,816.43,441.03,816.79z"/>
			</g>
		</g>
	</g>
	<path class="st21" d="M546.89,627.99c0,4.64,0.63,13.76,0,14.24c-0.63,0.48-3.15,0-3.15-0.64c0-0.64-0.31-13.28,0-13.76
		C544.06,627.35,546.89,627.13,546.89,627.99z"/>
	<circle class="st20" cx="449.79" cy="619.69" r="15.5"/>
	<path class="st4" d="M338.96,822.96c0,0,1.32-0.95,1.32-3.82c0-11.12-17.43-5.7-23.9-9.54c-5.46-3.24-14.38-11.42-14.53-21.47
		c0,0,0-5.63-6.49-5.63c-6.49,0-7.97,0-10.2,0c-2.22,0-5.93,1.71-6.49,5.02c0,0-4.27,0-6.58,0c-2.32,0-5.65,0.5-5.65,7.44
		c0,6.94,0,21.91,0,23.67c0,1.76,0.68,3.87,1.82,4.33c0,0,0.45,2.36,0.73,2.61c0.28,0.25,5.05,1.26,7.19,0.91
		c2.13-0.35,8-3.49,8-3.49s1.6-0.48,1.6-2.62c0,0,0.09-1.91,2.39-1.91c2.29,0,6.84,1.93,7.42,2.29c0.58,0.35,0.87,0.96,0.87,2.21
		c0,1.25,5.21,3.82,11.79,4.22C314.81,827.58,338.96,822.96,338.96,822.96z"/>
	<path class="st4" d="M141.68,789.44c0,0,1.28-4.52,3.04-4.52c1.76,0,10.23,0,11.88,0c1.66,0,7.58,1.67,7.58,7.1
		c0,0,3.76,3.61,4.4,4.48c0.64,0.88,1.2,1.78,1.2,4.78c0,3,0,14.58,0,16.74c0,2.16,0.53,10.69-12.6,10.69c-13.14,0-20.97,0-25.04,0
		c-4.07,0-7.21-4.03-7.21-7.84c0-3.81,0.7-7.68,5.1-14.74c4.4-7.06,7.59-12.3,7.59-12.3S139.58,790.5,141.68,789.44z"/>
	<path class="st4" d="M156.82,784.93c1.9,0.13,7.37,1.87,7.37,7.09c0,0,3.76,3.61,4.4,4.48c0.64,0.88,1.2,1.78,1.2,4.78
		c0,3,0,14.58,0,16.74c0,2.16,0.53,10.69-12.6,10.69h-3.29l1.37-8.53c0,0,5.57-18.3,6.12-25.74
		C161.92,787.04,156.88,784.95,156.82,784.93z"/>
	<path class="st9" d="M254.48,282c-12.42,0-14.96-9.54-14.96-9.54l-38.81,10.85c-8.95,24.66-6.75,64.99-6.75,64.99
		c6.47,41.84,4.81,45.69-0.48,87.29c-0.54,4.23,0.54,9.1,0.54,9.1c12.67,22.04,110.92,19.45,123.12-1.78c0,0,1.08-4.87,0.54-9.1
		c-5.29-41.6-9.17-43.67-2.69-85.51c0,0-15.53-36.87-2.29-63.75l-43.27-12.1C269.43,272.46,266.89,282,254.48,282z"/>
	<polyline class="st24" points="250.29,287.19 252.29,460.53 263.63,460.53 260.96,288.53 	"/>
	<polygon class="st9" points="228.13,276.49 238.79,264.49 255.31,282.29 241.46,294.49 	"/>
	<polygon class="st9" points="268.96,262.86 282.63,276.19 266.29,294.53 255.48,282.33 	"/>
	<polygon class="st9" points="228.29,276.53 238.96,264.53 255.48,282.33 241.63,294.53 	"/>
	<polygon class="st9" points="268.96,262.86 282.63,276.19 266.29,294.53 255.48,282.33 	"/>
	<polygon class="st24" points="269.96,262.28 282.63,276.19 266.29,294.53 255.48,282.33 	"/>
	<polyline class="st24" points="237.71,263.86 255.48,282.33 241.63,294.53 227.5,275.9 	"/>
	<path class="st25" d="M299.68,280.69c0,0,45.62-15.5,69.62,92c0,0,86.5-23.5,108.5-16l-2,25.5c0,0-44.5,63.5-110,59.5
		s-104.5-143.5-104.5-143.5L299.68,280.69z"/>
	<path class="st3" d="M302.68,280.69c0,0,45.62-15.5,69.62,92c0,0,86.5-23.5,108.5-16l-2,25.5c0,0-44.5,63.5-110,59.5
		s-104.5-143.5-104.5-143.5L302.68,280.69z"/>
	<path class="st25" d="M242.3,291.19c0,0-58-29-71,0s-65,129-55,168s0,0,0,0l-3.86,22.74l10.86,6.88
		c0,0,130.66-131.29,120.66-193.29"/>
	<path class="st3" d="M239.3,291.19c0,0-58-29-71,0s-65,129-55,168s0,0,0,0l-3.86,22.74l10.86,6.88c0,0,130.66-131.29,120.66-193.29
		"/>
	<path class="st26" d="M305.18,281.19c0,0-9.22-16-26.22-8.83c0,0-13.24,22.42-23.44,24.5c-10.21,2.08-25.39-22.83-25.39-22.83
		s-12.06-5.66-20.67,7.17C198.14,298.06,263.99,328.31,305.18,281.19z"/>
	<path class="st13" d="M216.3,167.54c0,0-5.99,74.18,15.01,116.32c0,0-27.33,4.33-41.33-6.03s-4.67-108.97-4.67-108.97L216.3,167.54
		"/>
	<ellipse class="st9" cx="214.8" cy="175.03" rx="6.17" ry="9.5"/>
	<ellipse class="st9" cx="214.13" cy="195.03" rx="6.17" ry="9.5"/>
	<ellipse class="st9" cx="214.47" cy="214.36" rx="6.17" ry="9.5"/>
	<ellipse transform="matrix(0.9952 -0.0979 0.0979 0.9952 -21.9152 22.3649)" class="st9" cx="216.97" cy="234.53" rx="6" ry="10"/>
	<ellipse transform="matrix(0.9952 -0.0979 0.0979 0.9952 -23.8864 22.8541)" class="st9" cx="220.97" cy="254.86" rx="6" ry="10"/>
	<ellipse transform="matrix(0.9686 -0.2488 0.2488 0.9686 -61.3208 65.2067)" class="st9" cx="227.3" cy="275.19" rx="6" ry="10"/>
	<path class="st27" d="M213.8,186.03c-0.5-0.33-17.33,7-30-1.67"/>
	<path class="st27" d="M212.8,206.03c-0.5-0.33-17.33,7-30-1.67"/>
	<path class="st27" d="M212.8,227.03c-0.5-0.33-17.33,7-30-1.67"/>
	<path class="st27" d="M218.3,247.03c-0.59-0.33-20.51,7-35.5-1.67"/>
	<path class="st27" d="M224.97,266.02c-0.59-0.33-25.18,8-40.17-0.67"/>
	<path class="st13" d="M275.71,157.09c0,0,20.44,71.56,8.11,117c0,0,27.65-1.12,39.35-14.02c11.69-12.91-30.37-110.87-30.37-110.87
		L275.71,157.09"/>
	
		<ellipse transform="matrix(0.9806 -0.1963 0.1963 0.9806 -26.7937 57.8778)" class="st9" cx="278.64" cy="164.13" rx="6.17" ry="9.5"/>
	
		<ellipse transform="matrix(0.9806 -0.1963 0.1963 0.9806 -30.5278 59.1553)" class="st9" cx="283.22" cy="183.61" rx="6.17" ry="9.5"/>
	
		<ellipse transform="matrix(0.9806 -0.1963 0.1963 0.9806 -34.1937 60.2058)" class="st9" cx="286.69" cy="202.64" rx="6.17" ry="9.5"/>
	<ellipse transform="matrix(0.9951 -0.0993 0.0993 0.9951 -20.7158 29.7291)" class="st9" cx="288.19" cy="222.9" rx="6" ry="10"/>
	<ellipse transform="matrix(0.9951 -0.0993 0.0993 0.9951 -22.7739 29.8383)" class="st9" cx="288.26" cy="243.62" rx="6" ry="10"/>
	<ellipse transform="matrix(0.0539 -0.9985 0.9985 0.0539 6.2112 536.1671)" class="st9" cx="286.04" cy="264.81" rx="10" ry="6"/>
	<polygon class="st28" points="556.29,502.19 641.58,504.69 657.31,391.52 566.96,386.19 	"/>
	<path class="st27" d="M281.78,174.72c0.42-0.42,13.47,7.12,24.19-3.87"/>
	<path class="st27" d="M286.69,194.14c0.42-0.42,12.89,3.37,23.61-7.61"/>
	<path class="st27" d="M290.81,214.73c0.42-0.42,14.44,3.11,25.16-7.87"/>
	<path class="st27" d="M289.34,235.42c0.51-0.44,19.3,4.54,32.29-6.9"/>
	<path class="st27" d="M286.53,255.36c0.51-0.44,26.26,2.9,39.25-8.54"/>
	<path class="st13" d="M672.77,263.49c0,0-5.59,0.46-5.3,5.48c0,0-4.25-4.95-3.82-11.47c0,0-11.42-11.84-11.75-25.79
		c-0.33-13.95,10.33-17.56,10.33-17.56C688.72,220.21,671.38,239.73,672.77,263.49z"/>
	<path class="st25" d="M637.54,350.19c0,0,29.09-38.34,109.09,59c0,0-8.83,44-52.17,58.67l-10.17,14.17l-21.51-8.33l7.01-14
		c0,0,8.83-32.5,13.5-38.5C683.3,421.19,603.12,405.2,637.54,350.19z"/>
	<path class="st3" d="M640.3,351.19c0,0,37-28.5,109.33,58c0,0-8.83,44-52.17,58.67l-10.17,14.17l-21.51-8.33l7.01-14
		c0,0,8.83-32.5,13.5-38.5C686.3,421.19,605.88,406.19,640.3,351.19z"/>
	<path class="st7" d="M604.17,453.01c0,0,23.43-21.34,29.8-19.86c6.37,1.48-17.79,19.85-17.79,19.85L604.17,453.01z"/>
	<path class="st7" d="M605.46,465.8l-1.29-12.79c0,0,26.68-13.84,36.25-10.55c9.57,3.29-1.13,20.99-1.13,20.99
		S637.44,465.65,605.46,465.8z"/>
	<path class="st3" d="M608.3,351.69c0,0-77.33-28.17-100.5,98c0,0-3,28.5,80.5,15.5l21.99,2l-2.25-19.5l-15.24-3
		c0,0-13.5-14.5-30-21.5c0,0,34-10.5,45-46C607.8,377.19,587.3,367.69,608.3,351.69z"/>
	<path class="st26" d="M677.3,350.69c0,0-17.05-10.96-36.76-0.5c0,0-16.69,24.14-27.75,21.75c-12.75-2.75-2.85-22.22-2.85-22.22
		s-23.89-6.52-30.4,10.22C573.03,376.69,642.3,393.59,677.3,350.69z"/>
	<path class="st13" d="M590.73,238.17c0,0,1.62,3.46,4.59,3c2.97-0.45,6.18-2.04,4.77-5.82c0,0,11.56-8.52,20.13-6.81
		c8.58,1.7,27.42,14.03,46.64,12.38c19.21-1.65,17.82-13.87,3.82-32.4c-10.65-14.11-25.05-19.26-55.94-15.66
		c-30.89,3.6-33.4,18.69-32.03,30.05C584.1,234.27,590.73,238.17,590.73,238.17z"/>
	<path class="st13" d="M662.89,231.64c0,0,7.22,74.07-13.08,116.55c0,0,27.4,3.88,41.23-6.71c13.83-10.59-9.92-114.53-9.92-114.53
		L662.89,231.64"/>
	
		<ellipse transform="matrix(0.9999 -0.0166 0.0166 0.9999 -3.8717 11.0473)" class="st9" cx="664.51" cy="239.09" rx="6.17" ry="9.5"/>
	
		<ellipse transform="matrix(0.9999 -0.0166 0.0166 0.9999 -4.2029 11.0665)" class="st9" cx="665.51" cy="259.08" rx="6.17" ry="9.5"/>
	
		<ellipse transform="matrix(0.0814 -0.9967 0.9967 0.0814 311.7195 935.4495)" class="st9" cx="663.33" cy="298.62" rx="10" ry="6"/>
	<ellipse transform="matrix(0.0814 -0.9967 0.9967 0.0814 333.0311 918.572)" class="st9" cx="664.83" cy="278.62" rx="10" ry="6"/>
	
		<ellipse transform="matrix(0.0814 -0.9967 0.9967 0.0814 288.0259 950.5361)" class="st9" cx="659.67" cy="319.02" rx="10" ry="6"/>
	
		<ellipse transform="matrix(0.2327 -0.9725 0.9725 0.2327 171.4205 896.1833)" class="st9" cx="653.67" cy="339.45" rx="10" ry="6"/>
	<path class="st27" d="M665.69,250.07c0.49-0.34,11.97,9.43,24.49,0.55"/>
	<path class="st27" d="M667.02,270.06c0.49-0.34,12.08,5.64,24.6-3.24"/>
	<path class="st27" d="M667.37,291.05c0.49-0.34,13.64,5.66,26.16-3.22"/>
	<path class="st27" d="M662.2,311.14c0.59-0.34,18.16,7.94,33.01-0.97"/>
	<path class="st27" d="M655.85,330.25c0.59-0.34,25.31,7.58,40.15-1.33"/>
	<path class="st13" d="M578.12,261.49c0,0,5.59,0.46,5.3,5.48c0,0,4.25-4.95,3.82-11.47c0,0,11.42-11.84,11.75-25.79
		c0.33-13.95-10.33-17.56-10.33-17.56C553.13,221.86,579.52,237.73,578.12,261.49z"/>
	<path class="st13" d="M588,229.64c0,0-7.22,74.07,13.08,116.55c0,0-27.4,3.88-41.23-6.71c-13.83-10.59,9.92-114.53,9.92-114.53
		L588,229.64"/>
	
		<ellipse transform="matrix(0.0166 -0.9999 0.9999 0.0166 339.6027 819.4644)" class="st9" cx="586.38" cy="237.09" rx="9.5" ry="6.17"/>
	
		<ellipse transform="matrix(0.0166 -0.9999 0.9999 0.0166 318.6377 838.1213)" class="st9" cx="585.38" cy="257.08" rx="9.5" ry="6.17"/>
	<ellipse transform="matrix(0.9967 -0.0814 0.0814 0.9967 -22.1899 48.7992)" class="st9" cx="587.56" cy="296.62" rx="6" ry="10"/>
	<ellipse transform="matrix(0.9967 -0.0814 0.0814 0.9967 -20.5673 48.6108)" class="st9" cx="586.06" cy="276.62" rx="6" ry="10"/>
	<ellipse transform="matrix(0.9967 -0.0814 0.0814 0.9967 -23.8376 49.1649)" class="st9" cx="591.22" cy="317.02" rx="6" ry="10"/>
	
		<ellipse transform="matrix(0.9725 -0.2327 0.2327 0.9725 -62.1336 148.2467)" class="st9" cx="597.22" cy="337.45" rx="6" ry="10"/>
	<path class="st27" d="M585.2,248.07c-0.49-0.34-7.54,9.33-20.07,0.45"/>
	<path class="st27" d="M583.87,268.06c-0.49-0.34-9.21,5.18-21.73-3.7"/>
	<path class="st27" d="M583.52,289.05c-0.49-0.34-12.2,5.68-24.72-3.19"/>
	<path class="st27" d="M588.69,309.14c-0.59-0.34-18.16,7.94-33.01-0.97"/>
	<path class="st27" d="M595.04,328.25c-0.59-0.34-25.31,7.58-40.15-1.33"/>
	<polygon class="st29" points="455.57,405.85 553.22,336.1 451.84,326.89 375.17,407.77 	"/>
	<path class="st7" d="M498.96,381.19l29-21.33c0,0-45.33-3.06-46.67,4.33C479.97,371.59,498.96,381.19,498.96,381.19z"/>
	<line class="st30" x1="454.29" y1="340.19" x2="524.29" y2="346.19"/>
	<line class="st30" x1="440.29" y1="353.19" x2="510.29" y2="359.19"/>
	<line class="st30" x1="428.29" y1="367.19" x2="498.29" y2="373.19"/>
	<line class="st30" x1="409.29" y1="379.19" x2="479.29" y2="385.19"/>
	<line class="st30" x1="398.29" y1="392.19" x2="459.29" y2="397.19"/>
	<path class="st8" d="M639.52,463.58l-6.98-21.63c0,0,29.5-5.64,31.16,0.35S639.52,463.58,639.52,463.58z"/>
	<path class="st3" d="M190.79,139.69l86.5-16.5l5.18,31.43c0,0-34.51,5.15-40.11,17.34c0,0-13.52-8.56-46.91-2.44L190.79,139.69z"/>
	<path class="st31" d="M160.7,221.97c-1.86-6.95-5.67-10.97-7.83-12.78c0.37-0.46,0.6-1.03,0.6-1.66c0-0.92-0.46-1.72-1.17-2.2
		v-57.47h-3v57.47c-0.7,0.48-1.17,1.29-1.17,2.2c0,0.87,0.43,1.64,1.07,2.13c-1.14,2.09-5.41,10.83-0.74,16.37c0,0,4,1.17,8.67-0.67
		c3.47-1.36-1.34-10.17-4.05-14.61c2.1,2.01,5.11,5.71,6.65,11.48L160.7,221.97z"/>
	<polygon class="st3" points="237.16,153.06 148.79,149.85 229.43,118.11 317.79,123.63 	"/>
	<polygon class="st3" points="240.62,154.22 148.79,146.38 229.43,114.65 317.79,120.17 	"/>
	<polygon class="st3" points="148.79,149.85 148.79,146.38 317.79,120.17 317.79,123.63 	"/>
	<polygon class="st25" points="237.16,149.59 148.79,146.38 229.43,114.65 317.79,120.17 	"/>
	<path class="st3" d="M671.01,191.15l-87.62-8.76l-2.38,31.77c0,0,34.84,2.07,41.49,13.72c0,0,12.71-9.73,46.5-6.59L671.01,191.15z"
		/>
	<path class="st31" d="M555.29,259.88c-1.91-6.94-5.76-10.93-7.93-12.72c0.36-0.46,0.59-1.03,0.58-1.67
		c-0.01-0.92-0.48-1.72-1.18-2.19l-0.45-57.47l-3,0.02l0.45,57.47c-0.7,0.49-1.16,1.3-1.15,2.21c0.01,0.87,0.44,1.64,1.09,2.12
		c-1.12,2.1-5.33,10.87-0.61,16.38c0,0,4.01,1.14,8.66-0.73c3.46-1.39-1.42-10.16-4.16-14.58c2.12,1.99,5.15,5.67,6.74,11.42
		L555.29,259.88z"/>
	<polygon class="st3" points="626.01,208.58 713.74,197.54 630.61,173.08 543.09,186.42 	"/>
	<polygon class="st3" points="622.66,210.04 713.44,194.09 630.3,169.63 542.78,182.97 	"/>
	<polygon class="st3" points="713.74,197.54 713.44,194.09 542.78,182.97 543.09,186.42 	"/>
	<polygon class="st25" points="625.71,205.12 713.44,194.09 630.3,169.63 542.78,182.97 	"/>
</g>
</svg>
