<?xml version="1.0" encoding="utf-8"?>
<!-- Generator: Adobe Illustrator 24.2.1, SVG Export Plug-In . SVG Version: 6.00 Build 0)  -->
<svg version="1.1" id="Слой_1" xmlns="http://www.w3.org/2000/svg" xmlns:xlink="http://www.w3.org/1999/xlink" x="0px" y="0px"
	 viewBox="0 0 864.61 999.02" style="enable-background:new 0 0 864.61 999.02;" xml:space="preserve">
<style type="text/css">
	.st0{fill:#FFFFFF;}
	.st1{fill:#B7B5DC;}
	.st2{fill-rule:evenodd;clip-rule:evenodd;fill:#484A73;}
	.st3{fill-rule:evenodd;clip-rule:evenodd;fill:#2F3C5A;}
	.st4{fill:#E3AB84;}
	.st5{fill:#484A73;}
	.st6{fill:#DA9792;}
	.st7{fill-rule:evenodd;clip-rule:evenodd;fill:#1C2036;}
	.st8{fill:#D7816C;}
	.st9{fill:#2F3C5A;}
	.st10{fill-rule:evenodd;clip-rule:evenodd;fill:#E3AB84;}
	.st11{fill-rule:evenodd;clip-rule:evenodd;fill:#D7816C;}
	.st12{fill-rule:evenodd;clip-rule:evenodd;fill:none;stroke:#D7816C;stroke-miterlimit:10;}
	.st13{fill-rule:evenodd;clip-rule:evenodd;fill:#FFFFFF;}
	.st14{opacity:0.5;fill-rule:evenodd;clip-rule:evenodd;fill:#FFFFFF;}
	.st15{fill:#807DBA;}
	.st16{fill:#C2E1CE;}
	.st17{fill:#C1E5FA;}
	.st18{opacity:0.5;fill:#B7B5DC;}
	.st19{fill-rule:evenodd;clip-rule:evenodd;fill:#C2E1CE;}
	.st20{fill-rule:evenodd;clip-rule:evenodd;fill:none;stroke:#1C2036;stroke-miterlimit:10;}
	.st21{opacity:0.2;fill-rule:evenodd;clip-rule:evenodd;fill:#FFFFFF;}
	.st22{fill-rule:evenodd;clip-rule:evenodd;fill:none;stroke:#807DBA;stroke-miterlimit:10;}
	.st23{fill:#EBEAF6;}
	.st24{fill-rule:evenodd;clip-rule:evenodd;fill:none;stroke:#70BE8D;stroke-miterlimit:10;}
</style>
<g>
	<g>
		<path class="st0" d="M865.89,239.2c-28.5,10.92-64.42,26.1-102.44,45.79c-80.68,41.8-187.68,112.93-239.14,214.57
			c-13.67,27.02-22.84,54.93-27.48,83.65c-1.83,0.11-3.67,0.22-5.53,0.3c4.67-29.69,14.08-58.52,28.21-86.4
			c52.1-102.93,160.13-174.8,241.56-216.94c38.89-20.14,75.61-35.6,104.52-46.62C865.73,235.43,865.84,237.32,865.89,239.2z"/>
		<path class="st0" d="M858.88,316c-0.4,1.94-0.86,3.91-1.35,5.88c-22.95,5.8-57.41,17.85-90.96,42.36
			c-41.85,30.55-89.02,85.97-103.09,184.1c-1.91,0.76-3.86,1.54-5.8,2.29c13.81-101.99,62.64-159.4,105.9-190.89
			C799.02,333.91,835.48,321.64,858.88,316z"/>
		<path class="st0" d="M421.25,583.78c-1.83-0.05-3.67-0.13-5.5-0.22c-0.65-15.02-3.4-36.57-12.22-60.67
			c-15.42-42.07-53.02-100.83-144.62-141.87c-91.71-41.12-147.99-97.86-162.77-164.14c-9.28-41.53-1.62-84.38,22.09-125.93
			c1.73,0.57,3.45,1.19,5.2,1.83c-23.46,40.67-31.07,82.49-22.03,122.94c14.4,64.53,69.63,120,159.72,160.37
			c93.46,41.91,131.84,102.09,147.56,145.24C417.82,546.37,420.66,568.46,421.25,583.78z"/>
		<path class="st0" d="M77.86,495.33c-1.65-1.19-3.26-2.37-4.88-3.64c6.2-41.91,3.07-106.81-43.6-184.21
			C-9.59,242.82-8,168.79,34.01,93.34c3.56-6.36,7.25-12.51,11.06-18.39c2.02,0.11,4.07,0.24,6.15,0.43
			c-4.31,6.58-8.55,13.48-12.57,20.71c-41.53,74.67-43.09,144.84-4.67,208.58C82.53,385.17,84.76,452.56,77.86,495.33z"/>
		<path class="st0" d="M344.61,577.68c-1.97-0.24-3.94-0.49-5.91-0.73c-12.67-37.27-38.78-89.1-89.47-112.53
			c-15.64-7.23-29.93-7.25-42.47-0.03c-22,12.7-35.78,45.36-44.17,75.67c-1.78-0.59-3.53-1.21-5.26-1.89
			c8.68-31.12,23.16-64.85,46.73-78.44c14.13-8.14,30.09-8.22,47.43-0.19C305.02,484.27,331.91,539.31,344.61,577.68z"/>
		<path class="st0" d="M760.94,42.59c-8.2,14.37-16.45,30.71-25.24,48.13c-40.85,81.03-91.71,181.91-203.54,207.18
			c-14.99,3.4-29.42,5.1-43.17,5.1c-31.52,0-59.68-8.9-84.03-26.64c-32.84-23.92-54.2-60.86-67.95-95.92
			c1.91-0.05,3.75-0.19,5.58-0.38c13.46,33.76,34.14,69.03,65.56,91.93c33.65,24.51,74.99,31.47,122.83,20.66
			C640.32,267.92,690.56,168.34,730.9,88.3c8.9-17.64,17.26-34.19,25.62-48.78C758,40.52,759.49,41.51,760.94,42.59z"/>
		<path class="st0" d="M729.28,23.66c-26.08,47.24-78.88,125.42-159.07,164.33c-12.62,6.12-24.92,9.17-36.86,9.17
			c-10.92,0-21.49-2.56-31.71-7.69c-28.37-14.21-49.97-46.09-65.8-79.66c1.32-1.59,2.64-3.18,3.96-4.83
			c15.53,33.68,36.7,65.85,64.26,79.66c19.77,9.92,41.23,9.41,63.77-1.51c78.82-38.24,130.84-115.17,156.59-161.8
			C726.05,22.07,727.67,22.85,729.28,23.66z"/>
		<path class="st0" d="M629.97,0.23c-4.85,34.06-19.23,77.23-60.3,87.51c-5.31,1.32-10.41,1.91-15.26,1.91
			c-27.29,0-47.27-19.39-60.81-40.04c1.4-1.11,2.83-2.21,4.23-3.26c14.97,23,38.1,44.22,70.54,36.13
			c37.29-9.3,50.99-49.67,55.9-82.14C626.16,0.28,628.08,0.23,629.97,0.23z"/>
	</g>
	<path class="st1" d="M618.72,941.7c24.19,0,46.71-1.51,65.66-4.11c14.82,2.57,33.7,4.11,54.28,4.11c47.62,0,86.23-8.25,86.23-18.44
		c0-10.18-38.61-18.44-86.23-18.44c-3.03,0-6.02,0.03-8.97,0.1c-19.13-9.03-61.6-15.31-110.97-15.31
		c-67.27,0-121.8,11.66-121.8,26.04S551.45,941.7,618.72,941.7z"/>
	<path class="st2" d="M591.46,913.04h23.17c1.86,0,3.38-1.65,3.38-3.66v-6.23c0-2.01-1.52-3.66-3.38-3.66h-23.17
		c-1.86,0-3.38,1.65-3.38,3.66v6.23C588.08,911.39,589.6,913.04,591.46,913.04z"/>
	<path class="st2" d="M552.17,907.21c0,0-1.32-0.95-1.32-3.82c0-11.12,17.43-5.7,23.9-9.54c5.46-3.24,14.38-11.42,14.53-21.47
		c0,0,0-5.63,6.49-5.63s7.97,0,10.2,0c2.22,0,5.93,1.71,6.49,5.02c0,0,4.27,0,6.58,0c2.32,0,5.65,0.5,5.65,7.44
		c0,6.94,0,21.91,0,23.67c0,1.76-0.68,3.87-1.82,4.33c0,0-0.45,2.36-0.73,2.61c-0.28,0.25-5.05,1.26-7.19,0.91
		c-2.13-0.35-8-3.49-8-3.49s-1.6-0.48-1.6-2.62c0,0-0.09-1.91-2.39-1.91c-2.29,0-6.84,1.94-7.42,2.29
		c-0.58,0.35-0.87,0.96-0.87,2.21c0,1.25-5.21,3.82-11.79,4.22C576.32,911.83,552.17,907.21,552.17,907.21z"/>
	<path class="st2" d="M552.17,913.04h42.52c0.8,0,1.45-0.71,1.45-1.58v-2.68c0-0.87-0.65-1.57-1.45-1.57h-42.52
		c-0.8,0-1.45,0.71-1.45,1.57v2.68C550.72,912.33,551.37,913.04,552.17,913.04z"/>
	<path class="st2" d="M589.53,913.04h33.34c0.8,0,1.45-0.71,1.45-1.58v-2.68c0-0.87-0.65-1.57-1.45-1.57h-33.34
		c-0.8,0-1.45,0.71-1.45,1.57v2.68C588.08,912.33,588.73,913.04,589.53,913.04z"/>
	<path class="st3" d="M749.46,873.68c0,0-1.28-4.52-3.04-4.52s-10.23,0-11.88,0c-1.66,0-7.58,1.67-7.58,7.1c0,0-3.76,3.61-4.4,4.48
		c-0.64,0.88-1.2,1.78-1.2,4.78c0,3,0,14.58,0,16.74s-0.53,10.69,12.6,10.69c13.14,0,20.97,0,25.04,0c4.07,0,7.21-4.03,7.21-7.84
		c0-3.81-0.7-7.68-5.1-14.74c-4.4-7.06-7.59-12.3-7.59-12.3S751.56,874.74,749.46,873.68z"/>
	<path class="st3" d="M734.32,869.17c-1.9,0.13-7.37,1.87-7.37,7.09c0,0-3.76,3.61-4.4,4.48c-0.64,0.88-1.2,1.78-1.2,4.78
		c0,3,0,14.58,0,16.74s-0.53,10.69,12.6,10.69h3.29l-1.37-8.53c0,0-5.57-18.3-6.12-25.74C729.21,871.29,734.26,869.19,734.32,869.17
		z"/>
	<path class="st4" d="M211.35,866.6c-3.16,25.16-0.84,20.17-29.51,31.51s-8.39,12.01-5.33,11.33c9.71-2.14,18.67-8.67,39.33-6
		c20.67,2.67,8.1-19.56,8.1-19.56l-0.77-23.11L211.35,866.6z"/>
	<path class="st1" d="M273.63,946.2c-24.19,0-46.71-1.51-65.66-4.11c-14.82,2.57-33.7,4.11-54.28,4.11
		c-47.62,0-86.23-8.25-86.23-18.44s38.61-18.44,86.23-18.44c3.03,0,6.02,0.03,8.97,0.1c19.13-9.03,61.6-15.31,110.97-15.31
		c67.27,0,121.8,11.66,121.8,26.04C395.43,934.55,340.89,946.2,273.63,946.2z"/>
	<path class="st5" d="M181.84,898.11c-28.67,11.33-8.39,12.01-5.33,11.33c9.71-2.14,18.67-8.67,39.33-6
		c20.67,2.67,8.1-19.56,8.1-19.56s-16.19,10.06-24.69,7.56L181.84,898.11z"/>
	<polygon class="st6" points="300.85,852.37 299.97,869.06 285.97,868.72 286.86,852.03 	"/>
	<path class="st7" d="M217.56,381.19c0,0,10.55,51.36,14.62,85.58c4.07,34.22,59.73-15.49,59.73-15.49s51.39,10.78,35.6-19.85
		c-15.79-30.63-13.26-79.86-13.26-79.86l-52.95-0.24L217.56,381.19z"/>
	<path class="st8" d="M225.45,588.23l20.59,1.61l6.14,15.8l-28-5.65c-3.79-0.41-9.37-8.46-7.01-10.71
		C218.85,587.67,225.45,588.23,225.45,588.23z"/>
	<path class="st4" d="M262.79,589.92l-10.61,15.72l-20.2-4.08l22.5-33.68l4.36,2.87C265.23,574.96,266.99,583.54,262.79,589.92z"/>
	<polygon class="st1" points="245.51,582.88 180.71,535.34 200.17,507.44 255.48,567.96 	"/>
	<path class="st1" d="M198.91,528.83c-3.23,6.82-11.37,9.74-18.19,6.51c-6.82-3.23-9.74-11.37-6.51-18.19
		c3.23-6.82,11.37-9.74,18.19-6.51C199.22,513.86,202.13,522.01,198.91,528.83z"/>
	<path class="st1" d="M202.17,534.11l-26.09-19.57l42.76-59.09c6.37-8.59,28.88-13.54,36.48-6.02l0,0c7.6,7.52,6.78,28.44-1.75,34.9
		L202.17,534.11z"/>
	<path class="st1" d="M269.81,566.57l-50.31-103.8c-5.5-8.6,8.78-18.34,17.57-19.53l61.46-13.93c8.78-1.19,16.65,5.52,20.19,14.38
		l20.05,114.47L269.81,566.57z"/>
	<path class="st9" d="M622.83,486l17.68,105.44l-15.99,291.72h-27.94c0,0-27.3-201.25-19.07-311.72c1.82-24.5,7.89-90,7.89-90
		L622.83,486z"/>
	<path class="st5" d="M622.83,486l6.25,103.76l99.1,288.35l19.06-7.31c0,0-27.57-207.53-49.73-307.36
		c-4.82-21.72-26.87-71.62-26.87-71.62L622.83,486z"/>
	<path class="st9" d="M308.49,561.86l-30.8,76.04l29.43,245.26h22.6c0,0,33.29-158.1,26.63-247.47
		c-1.48-19.82-17.58-77.52-17.58-77.52L308.49,561.86z"/>
	<path class="st5" d="M308.49,561.86v76.04l-83.64,235.26h-17c0,0,17.73-172.96,35.66-253.72c3.9-17.57,26.31-52.87,26.31-52.87
		L308.49,561.86z"/>
	<path class="st10" d="M293.09,431.83l-5.34-39.28c-1.53-11.29-9.83-19.56-18.43-18.39l0,0c-8.6,1.17-14.39,11.36-12.85,22.65
		l7.37,40.31C263.84,437.11,297.68,451.55,293.09,431.83z"/>
	<path class="st11" d="M269.32,374.15L269.32,374.15c8.6-1.17,16.9,7.11,18.43,18.39l4.42,32.49c-3.22,2.51-6.9,4.17-11.01,4.73
		c-7.35,1-13.39-0.59-19.99-6.99l-4.71-25.97C254.93,385.51,260.72,375.32,269.32,374.15z"/>
	<g>
		<path class="st11" d="M306.01,343.1c0.33-0.05,0.65-0.09,0.97-0.12l0.01,0l0,0c5.99-0.5,11.74,3.16,13.65,9.13
			c2.21,6.93-1.61,14.35-8.55,16.57c-6.94,2.21-14.36-1.61-16.57-8.55c-1.29-4.03-0.54-8.22,1.68-11.46
			c0.79,3.83,2.76,8.26,7.66,7.31l-2.31-7.24C301.62,345.8,303.96,343.63,306.01,343.1z"/>
		<path class="st11" d="M219.63,368.9c-0.3,0.14-0.6,0.28-0.88,0.43l-0.01,0.01l0,0c-5.28,2.86-8.08,9.08-6.41,15.12
			c1.95,7.01,9.22,11.12,16.23,9.17c7.01-1.95,11.12-9.22,9.17-16.23c-1.13-4.08-4.06-7.17-7.7-8.66c1.44,3.63,2.22,8.43-2.4,10.31
			l-2.04-7.32C224.78,368.75,221.62,368.22,219.63,368.9z"/>
	</g>
	<path class="st10" d="M282.15,419.45c-15.74,5.74-41.79-17.35-59.07-38.74l-9.33-30.45c-7.27-23.73,6.2-49.1,29.94-56.37l0,0
		c23.73-7.27,49.1,6.2,56.37,29.94l9.13,29.8C306.46,379.51,300.01,412.94,282.15,419.45z"/>
	<path class="st11" d="M296.97,366.99c-3.27-0.5-6.7,2.35-7.66,6.36c-0.96,4.01,0.91,7.67,4.18,8.17c3.27,0.5,6.7-2.35,7.66-6.36
		C302.11,371.15,300.24,367.5,296.97,366.99z"/>
	<path class="st11" d="M247.38,382.74c-4.51-0.6-8.4,2.07-8.69,5.96c-0.29,3.89,3.13,7.53,7.64,8.13c4.51,0.6,8.4-2.07,8.69-5.96
		C255.31,386.98,251.89,383.34,247.38,382.74z"/>
	<g>
		<path class="st7" d="M246.75,349.66c1.03,0.13,1.76,1.08,1.63,2.12c-0.13,1.03-1.08,1.77-2.12,1.63c-0.02,0-6.26-0.91-10.46,3.95
			c-0.69,0.79-1.89,0.88-2.68,0.2c-0.79-0.69-0.88-1.88-0.2-2.68C238.48,348.46,246.73,349.66,246.75,349.66z"/>
		<path class="st7" d="M289.67,337.4c1.02,0.22,1.67,1.22,1.45,2.24c-0.22,1.02-1.22,1.67-2.24,1.46c-0.02,0-6.16-1.42-10.75,3.09
			c-0.75,0.74-1.95,0.73-2.69-0.02c-0.73-0.75-0.72-1.95,0.02-2.69C281.53,335.53,289.65,337.39,289.67,337.4z"/>
	</g>
	<path class="st12" d="M273.1,378.27c0.11,0.96-4.59,2.66-6.28,1.66c-1.12-0.67-1.13-4.41-0.92-6.97"/>
	<path class="st7" d="M210.29,364.03l4.3,8.84c0,0,5.78-1.01,7.31,3.99c0,0,2.34-6.36-0.44-12.55c0,0,6.83-15.66,2.11-29.36
		c-4.72-13.7-10.78-22.2-10.78-22.2S198.1,335.17,210.29,364.03z"/>
	<path class="st7" d="M310.66,333.3l1.39,9.73c0,0-5.36,2.4-3.83,7.4c0,0-5.5-3.95-6.67-10.64c0,0-14.43-9.15-18.19-23.15
		c-3.76-14-0.37-21.91-0.37-21.91S304.59,302.56,310.66,333.3z"/>
	<g>
		<path class="st7" d="M288.06,364.82c2.84-0.87,4.43-3.87,3.57-6.71c-0.12-0.39-0.28-0.75-0.47-1.09l0.53-0.39
			c0.54-0.41,1.06-0.96,1.46-1.69c0.18-0.32,0.06-0.74-0.26-0.91c-0.33-0.18-0.74-0.07-0.92,0.26c-0.39,0.71-0.93,1.2-1.47,1.54
			l-0.01,0c0.48-0.53,0.91-1.24,1.09-2.16c0.07-0.36-0.17-0.72-0.53-0.78c-0.37-0.07-0.72,0.17-0.79,0.54
			c-0.14,0.76-0.54,1.32-0.94,1.7l-0.07-0.04c0.29-0.43,0.52-1,0.51-1.7c-0.01-0.37-0.32-0.67-0.69-0.66
			c-0.37,0.01-0.67,0.32-0.66,0.69c0.01,0.5-0.2,0.88-0.41,1.12c-0.97-0.28-2.03-0.3-3.08,0.02c-2.84,0.87-4.43,3.87-3.57,6.71
			C282.21,364.1,285.22,365.69,288.06,364.82z"/>
		<path class="st7" d="M246.67,377.5c-2.84,0.87-5.84-0.73-6.71-3.56c-0.12-0.39-0.19-0.78-0.22-1.16l-0.65-0.03
			c-0.68-0.04-1.41-0.21-2.16-0.59c-0.33-0.17-0.46-0.57-0.3-0.9c0.17-0.33,0.57-0.47,0.9-0.3c0.72,0.37,1.44,0.47,2.08,0.45
			l0.01-0.01c-0.7-0.17-1.45-0.51-2.11-1.18c-0.26-0.27-0.26-0.69,0-0.95c0.26-0.26,0.69-0.26,0.95,0.01
			c0.54,0.55,1.18,0.79,1.73,0.88l0.03-0.07c-0.47-0.19-0.99-0.53-1.37-1.12c-0.2-0.31-0.11-0.73,0.2-0.93s0.73-0.11,0.93,0.2
			c0.27,0.42,0.66,0.61,0.97,0.7c0.64-0.78,1.52-1.39,2.56-1.71c2.84-0.87,5.84,0.73,6.71,3.56
			C251.1,373.62,249.51,376.63,246.67,377.5z"/>
	</g>
	<path class="st13" d="M284.57,385.32c1.53,5.01-3.75,11.9-8.76,13.43c-5.01,1.53-13.93-1.73-15.47-6.74
		c-0.28-0.92,3.86-1.45,4.78-1.73l14.8-4.53C280.84,385.47,284.29,384.4,284.57,385.32z"/>
	<path class="st7" d="M212.01,318.65c0,0,9.87-81.38,80.52-29.09c14.83,10.98,30.38,22.44,30.15,29.92
		C321.8,347.63,225.15,352.69,212.01,318.65z"/>
	<path class="st14" d="M212.8,312.74c0,0,45.06,35.71,101.44-5.1l-13.62-12.27c0,0-27.05,36.82-87.9,16.84L212.8,312.74z"/>
	<path class="st1" d="M640.51,915.64c0,7.51-78.12-0.76-178.23,9.61c-106.5,11.03-186.21-2.1-186.21-9.61
		c0-7.51,81.58-13.6,182.22-13.6C558.92,902.04,640.51,908.13,640.51,915.64z"/>
	<polygon class="st15" points="607.44,891.32 615.51,843.44 590.84,822.11 591.51,758.77 386.17,662.77 386.17,746.77 
		358.17,749.44 358.06,662.03 322.09,666.27 273.3,706.86 289.68,909.9 631.51,914.22 637.33,904.57 	"/>
	<polygon class="st16" points="460.53,627.97 407.92,664.97 407.92,804.65 496.58,804.65 496.58,662.25 	"/>
	<rect x="407.92" y="796.14" class="st17" width="88.65" height="17.67"/>
	<polygon class="st17" points="407.92,761.61 407.92,775.45 459,768.48 496.58,772.71 496.58,757.34 460.22,751.2 	"/>
	<polygon class="st0" points="407.92,699 407.92,718.43 459.81,679.36 497.82,702.2 497.82,686.22 459.41,663.99 	"/>
	<polygon class="st0" points="459.81,602.91 407.92,642.89 407.92,674.56 459,637.1 496.58,663.99 496.58,629.03 	"/>
	<polygon class="st17" points="407.92,652.39 417.42,635.57 408.76,642.25 407.92,643.73 	"/>
	<polygon class="st17" points="430.75,625.3 407.92,665.72 407.92,674.56 411.92,671.63 443.74,615.3 	"/>
	<polygon class="st16" points="333.2,815.5 333.2,900.53 499.57,900.53 499.57,758.13 463.52,723.85 	"/>
	<polygon class="st0" points="322.2,807.12 462.8,698.79 499.57,724.91 499.57,759.87 461.99,732.98 343.61,819.8 343.61,831.33 
		462.4,759.87 499.57,781.39 499.57,795.6 462.8,775.24 343.61,840.93 344.02,850.92 463.2,801.75 499.57,817.11 499.57,832.86 
		463.2,820.95 344.02,859.75 343.61,870.89 463.2,847.08 499.57,853.22 499.57,868.59 461.99,864.36 343.61,880.5 343.61,892.02 
		499.57,892.02 499.57,909.7 321.89,909.7 	"/>
	<polygon class="st18" points="391.79,753.5 378.8,763.51 349.41,815.55 361.94,806.36 	"/>
	<polygon class="st18" points="321.99,877.1 350.02,827.48 343.61,831.33 343.61,825.82 322.03,864.04 	"/>
	<polygon class="st18" points="389.53,786.12 420.41,731.45 411.75,738.13 381.18,792.25 	"/>
	<polygon class="st18" points="365.34,828.95 374.5,812.75 367.09,817.21 358.24,832.87 	"/>
	<polygon class="st18" points="321.9,905.88 343.75,867.19 344.02,859.75 348.83,858.19 355.65,846.12 349.27,848.75 321.93,897.17 
			"/>
	<polygon class="st18" points="414.91,767.51 446.73,711.18 433.73,721.19 402.38,776.7 	"/>
	<polygon class="st18" points="334.61,909.7 344.59,892.02 343.61,892.02 343.61,880.76 327.27,909.7 	"/>
	<polygon class="st18" points="351.72,879.39 358.16,868 349.89,869.64 343.77,880.48 	"/>
	<polygon class="st18" points="367.05,852.26 375.03,838.12 365.46,842.07 358.06,855.18 	"/>
	<polygon class="st18" points="386.93,817.06 397.01,799.21 385.9,805.89 376.27,822.93 	"/>
	<polygon class="st18" points="348.71,786.7 322.12,833.78 322.09,842.49 357.37,780.02 	"/>
	<polygon class="st0" points="502.63,758.13 502.63,787.32 539.53,808.84 539.53,785.28 	"/>
	<polygon class="st0" points="502.63,793.73 502.63,821.9 539.53,837.27 539.53,813.19 	"/>
	<polygon class="st0" points="502.63,830.35 502.63,857.76 539.53,864.93 539.53,843.42 	"/>
	<polygon class="st0" points="502.63,866.98 502.63,894.9 539.53,895.39 539.53,872.36 	"/>
	<polygon class="st0" points="502.63,899.44 502.63,909.7 538.63,909.7 539.53,899.44 	"/>
	<polygon class="st0" points="322.09,666.27 321.89,787.22 357.37,760.38 358.06,662.03 	"/>
	<path class="st4" d="M222.94,883.88"/>
	<polygon class="st1" points="437.51,577.44 425.51,582.11 348.76,527.94 378.84,515.09 	"/>
	<path class="st1" d="M381.07,518.6l-32.23,9.51l-51.33-61.52c-10.74-7.72-7.67-31.03,1.02-37.27l-0.98,0.81
		c8.69-6.24,24.39-0.45,29.33,9.04L381.07,518.6z"/>
	<path class="st4" d="M543.85,407.63c0,0-48.9,92.03-37.05,95.71c11.85,3.68,29.37,8.76,74.72-78.95L543.85,407.63z"/>
	<path class="st4" d="M518.75,504.96c-29.57,2.67-88.01-65.09-83.71-84.23c0,0-5.06-6.99,6.93-1.51
		c11.4,5.21,49.64,18.21,96.62,64.62C538.58,483.83,525.96,504.31,518.75,504.96z"/>
	<path class="st19" d="M577.43,369.14c0,0-9.57,3.26-12.78,6.05c-3.21,2.78-38.98,57.29-38.98,57.29l31.83,36.97l26.57-35.68
		C584.08,433.76,594.38,395.55,577.43,369.14z"/>
	<path class="st19" d="M635.66,366.58c12.42,0,14.96-9.54,14.96-9.54l38.81,10.85c8.95,24.66,6.75,64.99,6.75,64.99
		c-6.47,41.84-4.81,45.69,0.48,87.29c0.54,4.23-0.54,9.1-0.54,9.1c-12.67,22.04-110.92,19.45-123.12-1.78c0,0-1.08-4.87-0.54-9.1
		c5.29-41.6,9.17-43.67,2.69-85.51c0,0,15.53-36.87,2.29-63.75l43.27-12.1C620.71,357.04,623.24,366.58,635.66,366.58z"/>
	<path class="st10" d="M642.64,309.17L642.64,309.17c8.37,1.18,13.99,10.92,12.47,21.64l-3.97,28.08
		c-1.51,10.72-9.6,18.52-17.98,17.34l0,0c-8.37-1.18-13.98-10.92-12.47-21.64l3.97-28.08C626.18,315.79,634.27,307.99,642.64,309.17
		z"/>
	<path class="st11" d="M643.64,289.17L643.64,289.17c8.37,1.18,13.99,10.92,12.47,21.64l-3.97,28.08
		c-1.51,10.72-9.6,18.52-17.98,17.34l0,0c-8.37-1.18-13.98-10.92-12.47-21.64l3.97-28.08C627.18,295.79,635.27,287.99,643.64,289.17
		z"/>
	<path class="st20" d="M217.51,376.94"/>
	<g>
		<path class="st11" d="M594.26,276.94c-1.84,6.76,0.44,15.61,7.2,17.45c0.19,0.05,0.38,0.1,0.57,0.14
			c-0.18-4.71,0.23-9.31,1.26-13.52l0.92-3.77C606.09,269.52,597.33,265.63,594.26,276.94z"/>
		<path class="st11" d="M693.26,302.69c-1.49,6.85-6.57,12.33-13.42,10.85c-0.19-0.04-0.38-0.09-0.57-0.14
			c2.33-4.1,4.1-8.36,5.12-12.58l0.92-3.77C687.19,289.33,695.74,291.23,693.26,302.69z"/>
	</g>
	<path class="st10" d="M661.21,219.78L661.21,219.78c-22.3-5.45-45.16,8.95-50.79,32l-9.31,38.12c2.4,25.04,8.01,46.37,30.32,51.82
		l0,0c13.58,4.22,45.16-8.95,50.79-32l9.31-38.12C697.15,248.55,683.51,225.23,661.21,219.78z"/>
	<path class="st11" d="M665.43,305.64c-4.76,1.25-7.91,5.38-7.04,9.23c0.86,3.85,5.42,5.95,10.17,4.7c4.76-1.25,7.91-5.38,7.05-9.23
		S670.19,304.39,665.43,305.64z"/>
	<path class="st11" d="M608.08,291.85c-2.97,1.53-3.16,6.36-0.44,10.8c2.73,4.44,7.34,6.79,10.3,5.27c2.97-1.53,3.16-6.36,0.43-10.8
		C615.65,292.68,611.04,290.32,608.08,291.85z"/>
	<path class="st12" d="M642.28,304.66c-0.38,0.84-5.11-0.06-6.01-1.72c-0.6-1.1,1.24-4.21,2.67-6.22"/>
	<g>
		<path class="st7" d="M634.54,268.15c0.79,0.62,0.93,1.77,0.31,2.55c-0.62,0.79-1.76,0.93-2.55,0.31
			c-0.02-0.01-4.73-3.83-10.6-1.88c-0.96,0.32-1.99-0.2-2.31-1.15c-0.32-0.96,0.2-1.99,1.16-2.31
			C628.3,263.08,634.52,268.14,634.54,268.15z"/>
		<path class="st7" d="M676.09,279.13c0.73,0.68,0.78,1.84,0.1,2.57c-0.68,0.74-1.84,0.78-2.57,0.1c-0.01-0.01-4.4-4.21-10.41-2.73
			c-0.98,0.24-1.97-0.36-2.21-1.34c-0.24-0.98,0.36-1.97,1.34-2.21C670.27,273.57,676.07,279.12,676.09,279.13z"/>
	</g>
	<path class="st7" d="M691.98,293.36c0,0-5.48-1.2-6.67,3.69c0,0-2.61-5.98-0.28-12.09c0,0-7.44-14.67-3.65-28.1
		c3.78-13.43,15.04-13.75,15.04-13.75C719.94,256.68,697.63,270.24,691.98,293.36z"/>
	<path class="st7" d="M599.98,270.89c0,0,5.42,1.46,4.22,6.35c0,0,5.07-4.1,5.82-10.6c0,0,13.36-9.59,16.2-23.25
		c2.84-13.66-7-19.13-7-19.13C592.08,225.45,605.63,247.77,599.98,270.89z"/>
	<path class="st7" d="M684.89,260.03c0,0-5.07,5.85-8.04,4.72c-2.96-1.13-3.28-5.66-1.01-9.96c0,0-10.08-12.58-19.29-12.2
		c-9.2,0.38-30.02,31.73-49.46,25.97c-19.44-5.76-31.22-31.31-15.02-52.86c16.2-21.55,40.87-28.07,71.92-17.65
		c31.06,10.42,36.27,31.57,32.42,45.06C692.56,256.6,684.89,260.03,684.89,260.03z"/>
	<path class="st21" d="M693.16,219.21c-25.03,15.46-63.95,29.05-105.66,4.2c1.16-2.6,2.67-5.18,4.57-7.7
		c1.8-2.4,3.71-4.61,5.72-6.63c36.54,21.34,69.32,14.98,91.58,4.78C690.86,215.6,692.11,217.39,693.16,219.21z"/>
	<g>
		<path class="st7" d="M622.68,289.57c2.78,0.68,5.58-1.02,6.25-3.8c0.68-2.78-1.02-5.57-3.8-6.25c-2.78-0.68-5.57,1.02-6.25,3.8
			C618.21,286.09,619.91,288.89,622.68,289.57z"/>
		<path class="st7" d="M663.22,299.47c2.78,0.68,5.57-1.02,6.25-3.8c0.68-2.77-1.02-5.57-3.8-6.25c-2.78-0.68-5.58,1.02-6.25,3.8
			C658.74,296,660.44,298.79,663.22,299.47z"/>
	</g>
	<path class="st13" d="M650.51,315.19c-1.2,4.9-9.24,7.49-14.14,6.29c-4.9-1.2-10.31-7.89-9.11-12.79c0.22-0.9,3.54,0.31,4.44,0.53
		c0,0,10.86,2.65,14.47,3.53C647.06,312.97,650.73,314.29,650.51,315.19z"/>
	<path class="st20" d="M216.01,372.69c0,0-33.67-26.14-3.21-59.95c0,0,64.05,69.77,109.88,6.73"/>
	<line class="st20" x1="218.26" y1="392.44" x2="222.76" y2="450.69"/>
	<path class="st20" d="M602.84,266.11c0,0,22.09,22.96,53.71-23.52"/>
	<path class="st22" d="M311.51,439.44c0,0,38,40,17,64"/>
	<path class="st22" d="M235.51,499.44c0,0,19-18-7-55"/>
	<circle class="st13" cx="667.12" cy="292.79" r="2"/>
	<circle class="st13" cx="626.69" cy="283.58" r="2"/>
	<polygon class="st0" points="350.73,368.03 503.73,363.03 491.73,586.03 354.73,584.03 	"/>
	<path class="st4" d="M426.7,363.58l35.94-2.15c0,0-6.24,32.94-17.58,31.61C437.6,392.15,426.7,363.58,426.7,363.58z"/>
	<polyline class="st23" points="471.73,515.03 484.23,414.53 453.73,409.03 448.73,490.53 425.73,493.53 433.73,432.03 
		395.23,442.03 391.23,509.53 368.73,509.03 369.23,521.03 	"/>
	<path class="st4" d="M537.8,513.17l18.37-2.73l-3.13-0.81c-25.32,4.08-23.56-3.47-23.56-3.47s24.48-5.91,24.82-5.03
		c0.34,0.89,20.48,6,20.48,6l10.39,3.65l-2.52,4.2l2.72,3.54c0,0-40.36,7.39-41.83,7.95c-2.67,1.02-30.61-7.96-30.61-7.96
		S497.73,505.6,537.8,513.17z"/>
	<path class="st4" d="M697.75,410.11c0,0-6.06,104.04-18.1,101.02c-12.03-3.01-24.17-17.36-22.8-106.28L697.75,410.11z"/>
	<path class="st4" d="M680.84,510.72c0,0-107.55,20.37-118.68,4.21c0,0-8.57-1.03,3.59-6.11c11.57-4.83,47.09-24.06,113.06-27
		L680.84,510.72z"/>
	<path class="st19" d="M690.46,367.54c0,0,6.48,7.76,7.78,11.81c1.3,4.05,1.57,74.15,1.57,74.15l-42.65,2.76l-3.43-51.22
		C653.72,405.03,665.47,396.5,690.46,367.54z"/>
	<path class="st24" d="M575.15,432.88c0,0,11.92-32.3-2.28-54.94 M578.48,463.59c0,0,2.93,14.45,12.92,23.11 M556.89,385.77
		l-0.89,35.68 M657.25,402.93l-5.59,38.18 M696.17,432.88c0,0,5.69-33.58-4.43-57.35"/>
</g>
</svg>
