<?xml version="1.0" encoding="utf-8"?>
<!-- Generator: Adobe Illustrator 24.2.1, SVG Export Plug-In . SVG Version: 6.00 Build 0)  -->
<svg version="1.1" id="Слой_1" xmlns="http://www.w3.org/2000/svg" xmlns:xlink="http://www.w3.org/1999/xlink" x="0px" y="0px"
	 viewBox="0 0 864.61 999.02" style="enable-background:new 0 0 864.61 999.02;" xml:space="preserve">
<style type="text/css">
	.st0{fill:#FFFFFF;}
	.st1{fill:#B7B5DC;}
	.st2{fill-rule:evenodd;clip-rule:evenodd;fill:#484A73;}
	.st3{fill-rule:evenodd;clip-rule:evenodd;fill:#2F3C5A;}
	.st4{fill:#E3AB84;}
	.st5{fill:#484A73;}
	.st6{fill-rule:evenodd;clip-rule:evenodd;fill:#1C2036;}
	.st7{fill:#D86C51;}
	.st8{fill:#2F3C5A;}
	.st9{fill-rule:evenodd;clip-rule:evenodd;fill:#E3AB84;}
	.st10{fill-rule:evenodd;clip-rule:evenodd;fill:#D7816C;}
	.st11{fill:#D7816C;}
	.st12{fill-rule:evenodd;clip-rule:evenodd;fill:#FFFFFF;}
	.st13{opacity:0.5;fill-rule:evenodd;clip-rule:evenodd;fill:#FFFFFF;}
	.st14{fill:#C1E5FA;}
	.st15{fill-rule:evenodd;clip-rule:evenodd;fill:#B7B5DC;}
	.st16{fill:#807DBA;}
	.st17{fill-rule:evenodd;clip-rule:evenodd;fill:none;stroke:#1C2036;stroke-miterlimit:10;}
	.st18{fill:#1C2036;}
	.st19{fill:#D2492D;}
	.st20{fill-rule:evenodd;clip-rule:evenodd;fill:#F3E9D6;}
	.st21{fill-rule:evenodd;clip-rule:evenodd;fill:#E6AE83;}
	.st22{fill-rule:evenodd;clip-rule:evenodd;fill:#202023;}
	.st23{fill:#807DBA;stroke:#807DBA;stroke-miterlimit:10;}
</style>
<g>
	<path class="st0" d="M864.55,239.25c-28.5,10.92-64.42,26.1-102.44,45.79c-80.68,41.8-187.68,112.93-239.14,214.57
		c-13.67,27.02-22.84,54.93-27.48,83.65c-1.83,0.11-3.67,0.22-5.53,0.3c4.67-29.69,14.08-58.52,28.21-86.4
		c52.1-102.93,160.13-174.8,241.56-216.94c38.89-20.14,75.61-35.6,104.52-46.62C864.38,235.48,864.49,237.37,864.55,239.25z"/>
	<path class="st0" d="M857.53,316.05c-0.4,1.94-0.86,3.91-1.35,5.88c-22.95,5.8-57.41,17.85-90.96,42.36
		c-41.85,30.55-89.02,85.97-103.09,184.1c-1.91,0.76-3.86,1.54-5.8,2.29c13.81-101.99,62.64-159.4,105.9-190.89
		C797.67,333.96,834.13,321.69,857.53,316.05z"/>
	<path class="st0" d="M419.9,583.83c-1.83-0.05-3.67-0.13-5.5-0.22c-0.65-15.02-3.4-36.57-12.22-60.67
		c-15.42-42.07-53.02-100.83-144.62-141.87c-91.71-41.12-147.99-97.86-162.77-164.14c-9.28-41.53-1.62-84.38,22.09-125.93
		c1.73,0.57,3.45,1.19,5.2,1.83c-23.46,40.67-31.07,82.49-22.03,122.94c14.4,64.53,69.63,120,159.72,160.37
		c93.46,41.91,131.84,102.09,147.56,145.24C416.47,546.43,419.31,568.51,419.9,583.83z"/>
	<path class="st0" d="M76.51,495.38c-1.65-1.19-3.26-2.37-4.88-3.64c6.2-41.91,3.07-106.81-43.6-184.21
		c-38.97-64.66-37.38-138.69,4.64-214.14c3.56-6.36,7.25-12.51,11.06-18.39c2.02,0.11,4.07,0.24,6.15,0.43
		c-4.31,6.58-8.55,13.48-12.57,20.71c-41.53,74.67-43.09,144.84-4.67,208.58C81.18,385.22,83.41,452.61,76.51,495.38z"/>
	<path class="st0" d="M343.26,577.73c-1.97-0.24-3.94-0.49-5.91-0.73c-12.67-37.27-38.78-89.1-89.47-112.53
		c-15.64-7.23-29.93-7.25-42.47-0.03c-22,12.7-35.78,45.36-44.17,75.67c-1.78-0.59-3.53-1.21-5.26-1.89
		c8.68-31.12,23.16-64.85,46.73-78.44c14.13-8.14,30.09-8.22,47.43-0.19C303.67,484.32,330.56,539.36,343.26,577.73z"/>
	<path class="st0" d="M759.59,42.64c-8.2,14.37-16.45,30.71-25.24,48.13c-40.85,81.03-91.71,181.91-203.54,207.18
		c-14.99,3.4-29.42,5.1-43.17,5.1c-31.52,0-59.68-8.9-84.03-26.64c-32.84-23.92-54.2-60.86-67.95-95.92
		c1.91-0.05,3.75-0.19,5.58-0.38c13.46,33.76,34.14,69.03,65.56,91.93c33.65,24.51,74.99,31.47,122.83,20.66
		c109.35-24.73,159.59-124.31,199.93-204.35c8.9-17.64,17.26-34.19,25.62-48.78C756.65,40.57,758.14,41.57,759.59,42.64z"/>
	<path class="st0" d="M727.93,23.71c-26.08,47.24-78.88,125.42-159.07,164.33c-12.62,6.12-24.92,9.17-36.86,9.17
		c-10.92,0-21.49-2.56-31.71-7.69c-28.37-14.21-49.97-46.09-65.8-79.66c1.32-1.59,2.64-3.18,3.96-4.83
		c15.53,33.68,36.7,65.85,64.26,79.66c19.77,9.92,41.23,9.41,63.77-1.51c78.82-38.24,130.84-115.17,156.59-161.8
		C724.7,22.12,726.32,22.9,727.93,23.71z"/>
	<path class="st0" d="M628.62,0.28c-4.85,34.06-19.23,77.23-60.3,87.51c-5.31,1.32-10.41,1.91-15.26,1.91
		c-27.29,0-47.27-19.39-60.81-40.04c1.4-1.11,2.83-2.21,4.23-3.26c14.97,23,38.1,44.22,70.54,36.13
		c37.29-9.3,50.99-49.67,55.9-82.14C624.82,0.33,626.73,0.28,628.62,0.28z"/>
</g>
<path class="st1" d="M617.37,955.78c24.19,0,46.71-1.51,65.66-4.11c14.82,2.57,33.7,4.11,54.28,4.11c47.62,0,86.23-8.25,86.23-18.44
	s-38.61-18.44-86.23-18.44c-3.03,0-6.02,0.03-8.97,0.1c-19.13-9.03-61.6-15.31-110.97-15.31c-67.27,0-121.8,11.66-121.8,26.04
	C495.57,944.12,550.1,955.78,617.37,955.78z"/>
<path class="st2" d="M590.11,927.11h23.17c1.86,0,3.38-1.65,3.38-3.66v-6.23c0-2.01-1.52-3.66-3.38-3.66h-23.17
	c-1.86,0-3.38,1.65-3.38,3.66v6.23C586.73,925.46,588.25,927.11,590.11,927.11z"/>
<path class="st2" d="M550.82,921.28c0,0-1.32-0.95-1.32-3.82c0-11.12,17.43-5.7,23.9-9.54c5.46-3.24,14.38-11.42,14.53-21.47
	c0,0,0-5.63,6.49-5.63s7.97,0,10.2,0c2.22,0,5.93,1.71,6.49,5.02c0,0,4.27,0,6.58,0c2.32,0,5.65,0.5,5.65,7.44
	c0,6.94,0,21.91,0,23.67c0,1.76-0.68,3.87-1.82,4.33c0,0-0.45,2.36-0.73,2.61c-0.28,0.25-5.05,1.26-7.19,0.91
	c-2.13-0.35-8-3.49-8-3.49s-1.6-0.48-1.6-2.62c0,0-0.09-1.91-2.39-1.91c-2.29,0-6.84,1.93-7.42,2.29c-0.58,0.35-0.87,0.96-0.87,2.21
	c0,1.25-5.21,3.82-11.79,4.22C574.97,925.9,550.82,921.28,550.82,921.28z"/>
<path class="st2" d="M550.82,927.11h42.52c0.8,0,1.45-0.71,1.45-1.58v-2.68c0-0.87-0.65-1.57-1.45-1.57h-42.52
	c-0.8,0-1.45,0.71-1.45,1.57v2.68C549.37,926.4,550.02,927.11,550.82,927.11z"/>
<path class="st2" d="M588.18,927.11h33.34c0.8,0,1.45-0.71,1.45-1.58v-2.68c0-0.87-0.65-1.57-1.45-1.57h-33.34
	c-0.8,0-1.45,0.71-1.45,1.57v2.68C586.73,926.4,587.38,927.11,588.18,927.11z"/>
<path class="st3" d="M748.11,887.76c0,0-1.28-4.52-3.04-4.52s-10.23,0-11.88,0c-1.66,0-7.58,1.67-7.58,7.1c0,0-3.76,3.61-4.4,4.48
	c-0.64,0.88-1.2,1.78-1.2,4.78c0,3,0,14.58,0,16.74c0,2.16-0.53,10.69,12.6,10.69c13.14,0,20.97,0,25.04,0
	c4.07,0,7.21-4.03,7.21-7.84c0-3.81-0.7-7.68-5.1-14.74c-4.4-7.06-7.59-12.3-7.59-12.3S750.21,888.82,748.11,887.76z"/>
<path class="st3" d="M732.97,883.25c-1.9,0.13-7.37,1.87-7.37,7.09c0,0-3.76,3.61-4.4,4.48c-0.64,0.88-1.2,1.78-1.2,4.78
	c0,3,0,14.58,0,16.74c0,2.16-0.53,10.69,12.6,10.69h3.29l-1.37-8.53c0,0-5.57-18.3-6.12-25.74
	C727.87,885.36,732.91,883.27,732.97,883.25z"/>
<path class="st4" d="M210,880.67c-3.16,25.16-0.84,20.17-29.51,31.51c-28.67,11.33-8.39,12.01-5.33,11.33
	c9.71-2.14,18.67-8.67,39.33-6c20.67,2.67,8.1-19.56,8.1-19.56l-0.77-23.11L210,880.67z"/>
<path class="st1" d="M272.28,960.28c-24.19,0-46.71-1.51-65.66-4.11c-14.82,2.57-33.7,4.11-54.28,4.11
	c-47.62,0-86.23-8.25-86.23-18.44s38.61-18.44,86.23-18.44c3.03,0,6.02,0.03,8.97,0.1c19.13-9.03,61.6-15.31,110.97-15.31
	c67.27,0,121.8,11.66,121.8,26.04S339.54,960.28,272.28,960.28z"/>
<path class="st5" d="M180.49,912.18c-28.67,11.33-8.39,12.01-5.33,11.33c9.71-2.14,18.67-8.67,39.33-6
	c20.67,2.67,8.1-19.56,8.1-19.56s-16.19,10.06-24.69,7.56L180.49,912.18z"/>
<path class="st4" d="M321.72,880.67c3.16,25.16,0.84,20.17,29.51,31.51c28.67,11.33,8.39,12.01,5.33,11.33
	c-9.71-2.14-18.67-8.67-39.33-6c-20.67,2.67-8.1-19.56-8.1-19.56l0.77-23.11L321.72,880.67z"/>
<path class="st5" d="M351.23,912.18c28.67,11.33,8.39,12.01,5.33,11.33c-9.71-2.14-18.67-8.67-39.33-6
	c-20.67,2.67-8.1-19.56-8.1-19.56s16.19,10.06,24.69,7.56L351.23,912.18z"/>
<path class="st6" d="M326.44,423.01c-23-25.66-13.55-57.36-13.55-57.36l-52.95-0.24l-43.74,29.85c0,0,2.17,17.02,6.24,51.24
	C222.44,446.51,339.44,437.51,326.44,423.01z"/>
<path class="st7" d="M193.22,553.07c-3.23,6.82-11.37,9.74-18.19,6.51c-6.82-3.23-9.74-11.37-6.51-18.19
	c3.23-6.82,11.37-9.74,18.19-6.51C193.54,538.1,196.45,546.25,193.22,553.07z"/>
<path class="st7" d="M190.28,557.18l-15.55-28.57l42.76-59.09c6.37-8.59,28.88-13.54,36.48-6.02l0,0c7.6,7.52,6.78,28.44-1.75,34.9
	L190.28,557.18z"/>
<path class="st7" d="M268.46,580.65l-50.31-103.8c-5.5-8.6,8.78-18.34,17.57-19.53l61.46-13.93c8.78-1.19,16.65,5.52,20.19,14.38
	l20.05,114.47L268.46,580.65z"/>
<path class="st8" d="M621.48,500.07l17.68,105.44l-15.99,291.72h-27.94c0,0-27.3-201.25-19.07-311.72c1.82-24.5,7.89-90,7.89-90
	L621.48,500.07z"/>
<path class="st5" d="M621.48,500.07l6.25,103.76l99.1,288.35l19.06-7.31c0,0-27.57-207.53-49.73-307.36
	c-4.82-21.72-26.87-71.62-26.87-71.62L621.48,500.07z"/>
<path class="st8" d="M307.14,575.93l-19.2,76.58l18,237h21c0,0,34.72-150.38,28.06-239.75c-1.48-19.82-17.58-77.52-17.58-77.52
	L307.14,575.93z"/>
<path class="st5" d="M307.14,575.93v76.04L223.5,887.24h-17c0,0,17.73-172.96,35.66-253.72c3.9-17.57,26.31-52.87,26.31-52.87
	L307.14,575.93z"/>
<path class="st9" d="M291.74,445.91l-5.34-39.28c-1.53-11.29-9.83-19.56-18.43-18.39l0,0c-8.6,1.17-14.39,11.36-12.85,22.65
	l7.37,40.31C262.49,451.18,296.33,465.63,291.74,445.91z"/>
<path class="st10" d="M267.97,388.23L267.97,388.23c8.6-1.17,16.9,7.11,18.43,18.39l4.42,32.49c-3.22,2.51-6.9,4.17-11.01,4.73
	c-7.35,1-13.39-0.59-19.99-6.99l-4.71-25.97C253.58,399.59,259.37,389.4,267.97,388.23z"/>
<g>
	<path class="st10" d="M304.66,357.18c0.33-0.05,0.65-0.09,0.97-0.12l0.01,0l0,0c5.99-0.5,11.74,3.16,13.65,9.13
		c2.21,6.93-1.61,14.35-8.55,16.57c-6.94,2.21-14.36-1.61-16.57-8.55c-1.29-4.03-0.54-8.22,1.68-11.46
		c0.79,3.83,2.76,8.26,7.66,7.31l-2.31-7.24C300.27,359.88,302.61,357.7,304.66,357.18z"/>
	<path class="st10" d="M218.28,382.98c-0.3,0.14-0.6,0.28-0.88,0.43l-0.01,0.01l0,0c-5.28,2.86-8.08,9.08-6.41,15.12
		c1.95,7.01,9.22,11.12,16.23,9.17c7.01-1.95,11.12-9.22,9.17-16.23c-1.13-4.08-4.06-7.17-7.7-8.66c1.44,3.63,2.22,8.43-2.4,10.31
		l-2.04-7.32C223.43,382.83,220.27,382.29,218.28,382.98z"/>
</g>
<path class="st9" d="M280.8,433.52c-15.74,5.74-41.79-17.35-59.07-38.74l-9.33-30.45c-7.27-23.73,6.2-49.1,29.94-56.37l0,0
	c23.73-7.27,49.1,6.2,56.37,29.94l9.13,29.8C305.11,393.58,298.66,427.01,280.8,433.52z"/>
<path class="st10" d="M295.62,381.07c-3.27-0.5-6.7,2.35-7.66,6.36c-0.96,4.01,0.91,7.67,4.18,8.17c3.27,0.5,6.7-2.35,7.66-6.36
	C300.76,385.22,298.89,381.57,295.62,381.07z"/>
<path class="st10" d="M246.03,396.81c-4.51-0.6-8.4,2.07-8.69,5.96c-0.29,3.89,3.13,7.53,7.64,8.13c4.51,0.6,8.4-2.07,8.69-5.96
	C253.96,401.06,250.54,397.42,246.03,396.81z"/>
<g>
	<path class="st6" d="M245.4,363.74c1.03,0.13,1.76,1.08,1.63,2.12c-0.13,1.03-1.08,1.77-2.12,1.63c-0.02,0-6.26-0.91-10.46,3.95
		c-0.69,0.79-1.89,0.88-2.68,0.2c-0.79-0.69-0.88-1.88-0.2-2.68C237.13,362.54,245.38,363.73,245.4,363.74z"/>
	<path class="st6" d="M288.32,351.47c1.02,0.22,1.67,1.22,1.45,2.24c-0.22,1.02-1.22,1.67-2.24,1.46c-0.02,0-6.16-1.42-10.75,3.09
		c-0.75,0.74-1.95,0.73-2.69-0.02c-0.73-0.75-0.72-1.95,0.02-2.69C280.18,349.6,288.3,351.47,288.32,351.47z"/>
</g>
<path class="st11" d="M266.91,394.81c-0.66,0-1.25-0.11-1.69-0.37c-1.47-0.87-1.36-5.04-1.17-7.44l1,0.08
	c-0.31,3.82,0.11,6.16,0.68,6.5c0.63,0.37,2.07,0.29,3.58-0.2c1.23-0.4,1.88-0.88,1.95-1.05l0.99-0.04
	c0.05,0.43-0.23,0.83-0.85,1.23C270.36,394.19,268.46,394.81,266.91,394.81z"/>
<path class="st6" d="M208.94,378.11l4.3,8.84c0,0,5.78-1.01,7.31,3.99c0,0,2.34-6.36-0.44-12.55c0,0,6.83-15.66,2.11-29.36
	c-4.72-13.7-10.78-22.2-10.78-22.2S196.75,349.25,208.94,378.11z"/>
<path class="st6" d="M309.31,347.37l1.39,9.73c0,0-5.36,2.4-3.83,7.4c0,0-5.5-3.95-6.67-10.64c0,0-14.43-9.15-18.19-23.15
	c-3.76-14-0.37-21.91-0.37-21.91S303.24,316.63,309.31,347.37z"/>
<path class="st12" d="M283.22,399.39c1.53,5.01-3.75,11.9-8.76,13.43c-5.01,1.53-13.93-1.73-15.46-6.74
	c-0.28-0.92,3.86-1.45,4.78-1.73l14.8-4.53C279.49,399.54,282.94,398.47,283.22,399.39z"/>
<path class="st6" d="M210.66,332.72c0,0,9.87-81.38,80.52-29.09c14.83,10.98,30.38,22.44,30.15,29.92
	C320.45,361.7,223.8,366.77,210.66,332.72z"/>
<path class="st13" d="M211.45,326.82c0,0,45.06,35.71,101.44-5.1l-13.62-12.27c0,0-27.05,36.82-87.9,16.84L211.45,326.82z"/>
<path class="st1" d="M636.16,940.72c0,7.51-78.12-0.76-178.23,9.61c-106.5,11.03-186.21-2.1-186.21-9.61
	c0-7.51,81.58-13.6,182.22-13.6C554.57,927.11,636.16,933.2,636.16,940.72z"/>
<polygon class="st14" points="406.57,666.46 416.07,649.65 407.41,656.32 406.57,657.8 "/>
<path class="st4" d="M221.59,897.96"/>
<path class="st4" d="M459.18,623.47l-15.13-10.76l1.7,2.76c21.08,14.61,14.58,18.83,14.58,18.83s-21.75-12.7-21.38-13.57
	c0.37-0.87-10.61-18.51-10.61-18.51l-4.96-9.83l4.73-1.28l0.49-4.44c0,0,34.23,22.64,35.67,23.25c2.63,1.11,16.55,26.95,16.55,26.95
	S482.83,656.68,459.18,623.47z"/>
<polygon class="st7" points="436.16,591.51 424.16,596.18 347.41,542.01 377.49,529.16 "/>
<path class="st7" d="M379.72,532.67l-32.23,9.51l-51.33-61.52c-10.74-7.72-7.67-31.03,1.02-37.27l-0.98,0.81
	c8.69-6.24,24.39-0.45,29.33,9.04L379.72,532.67z"/>
<path class="st4" d="M720.93,405.56c0,0,48.9-92.03,37.05-95.71c-11.85-3.68-29.67,2.27-74.72,78.95L720.93,405.56z"/>
<path class="st4" d="M748.55,342.87c0,0,46.67-99.02,33.81-113.84c0,0,1.15-8.55-6.82,1.95c-7.58,9.99-35.09,39.56-54.47,102.68
	L748.55,342.87z"/>
<path class="st4" d="M784.84,239.85l-10.86-6.88c0,0,5.58-29.54,14.08-35.03c8.49-5.5,18.56,9.35,18.56,9.35
	S804.47,214.6,784.84,239.85z"/>
<path class="st11" d="M806.62,207.29l-20.28-8.17c0,0,12.72-26.39,18.46-24C810.54,177.52,806.62,207.29,806.62,207.29z"/>
<path class="st4" d="M773.98,232.97c0,0-2.32-31.6,2.77-35.7c5.1-4.1,4.64,26.25,4.64,26.25L773.98,232.97z"/>
<path class="st4" d="M117.44,471.51l9.74-6.3c0,0-5.58-29.54-14.08-35.03c-8.46-5.47-15.36,15.41-15.42,15.59c0,0,0,0,0,0.01
	C97.65,445.87,98.52,447.16,117.44,471.51z"/>
<path class="st11" d="M97.94,445.51l17.63-13.4c0,0-12.72-26.39-18.46-24C91.38,410.51,97.94,445.51,97.94,445.51z"/>
<path class="st4" d="M127.94,465.96c0,0,2.32-31.6-2.77-35.7c-5.1-4.1-4.64,26.25-4.64,26.25L127.94,465.96z"/>
<path class="st4" d="M540.77,423.54c0,0-48.9,92.03-37.05,95.71c11.85,3.68,29.67-2.27,74.72-78.95L540.77,423.54z"/>
<path class="st4" d="M513.15,486.24c0,0-46.67,99.02-33.81,113.84c0,0-1.15,8.55,6.82-1.95c7.58-9.99,35.09-39.56,54.47-102.68
	L513.15,486.24z"/>
<path class="st4" d="M476.86,589.25l10.86,6.88c0,0-5.58,29.54-14.08,35.03c-8.49,5.5-18.56-9.35-18.56-9.35
	S457.24,614.51,476.86,589.25z"/>
<path class="st11" d="M455.08,621.82l20.28,8.17c0,0-12.72,26.39-18.46,24S455.08,621.82,455.08,621.82z"/>
<path class="st4" d="M487.72,596.14c0,0,2.32,31.6-2.77,35.7c-5.1,4.1-4.64-26.25-4.64-26.25L487.72,596.14z"/>
<path class="st15" d="M576.08,383.21c0,0-9.57,3.26-12.78,6.05c-3.21,2.78-38.98,57.29-38.98,57.29l31.83,36.97l26.57-35.68
	C582.73,447.84,593.04,409.63,576.08,383.21z"/>
<path class="st15" d="M692.57,438.14c0,0,9.57-3.26,12.78-6.05c3.21-2.78,39.88-62.53,39.88-62.53l-35-24.53l-29.55,41.98
	C680.68,387.02,686.28,400.41,692.57,438.14z"/>
<path class="st15" d="M634.31,380.65c12.42,0,14.96-9.54,14.96-9.54l38.81,10.85c8.95,24.66,6.75,64.99,6.75,64.99
	c-6.47,41.84-4.81,45.69,0.48,87.29c0.54,4.23-0.54,9.1-0.54,9.1c-12.67,22.04-110.92,19.45-123.12-1.78c0,0-1.08-4.87-0.54-9.1
	c5.29-41.6,9.17-43.67,2.69-85.51c0,0,15.53-36.87,2.29-63.75l43.27-12.1C619.36,371.12,621.9,380.65,634.31,380.65z"/>
<path class="st16" d="M589.72,501.15c-10-8.67-13.05-23.24-13.08-23.39l0.98-0.2c0.03,0.14,3.02,14.39,12.75,22.83L589.72,501.15z
	 M684.69,499.17l-0.62-0.79c4.88-3.82,6.17-16.82,6.18-16.95l1,0.09C691.2,482.08,689.91,495.09,684.69,499.17z M574.27,447.13
	l-0.94-0.35c0.12-0.32,11.67-32.33-2.24-54.5l0.85-0.53C586.11,414.34,574.39,446.8,574.27,447.13z M693.83,438.65l-0.99-0.1
	c0.03-0.34,3.38-34-8.04-56.68l0.89-0.45C697.24,404.37,693.87,438.32,693.83,438.65z M555.15,435.53l-1-0.03l0.89-35.68l1,0.03
	L555.15,435.53z M707,422.88l-4.6-37.97l0.99-0.12l4.6,37.97L707,422.88z"/>
<path class="st17" d="M216.16,391.01"/>
<path class="st18" d="M214.35,387.16c-0.15-0.11-14.5-11.44-16.02-28.57c-0.96-10.85,3.33-21.65,12.75-32.11l0.37-0.41l0.37,0.41
	c0.32,0.35,32.39,34.83,66.8,32.86c16.16-0.92,30.39-9.7,42.3-26.08l0.81,0.59c-12.1,16.64-26.58,25.55-43.06,26.49
	c-32.84,1.89-63.48-28.89-67.21-32.78c-8.98,10.12-13.06,20.53-12.13,30.95c1.48,16.69,15.5,27.76,15.64,27.87L214.35,387.16z"/>
<rect x="218.17" y="406.43" transform="matrix(0.996 -0.0892 0.0892 0.996 -37.1561 21.2082)" class="st18" width="1" height="39.66"/>
<path class="st19" d="M327.53,517.84l-0.75-0.66c20.46-23.39-16.61-62.93-16.99-63.33l0.72-0.69
	C310.9,453.57,348.59,493.78,327.53,517.84z"/>
<path class="st19" d="M234.47,513.9l-0.63-0.77c0.2-0.17,20.1-17.17-5.3-53.33l0.82-0.57C255.32,496.18,234.68,513.73,234.47,513.9z
	"/>
<path class="st9" d="M642.64,319.74L642.64,319.74c8.37,1.18,13.99,10.92,12.47,21.64l-3.97,28.08
	c-1.51,10.72-9.6,18.52-17.98,17.34l0,0c-8.37-1.18-13.98-10.92-12.47-21.64l3.97-28.08C626.18,326.36,634.27,318.56,642.64,319.74z
	"/>
<path class="st10" d="M645.64,296.41L645.64,296.41c8.37,1.18,13.99,10.92,12.47,21.64l-3.97,28.08
	c-1.51,10.72-9.6,18.52-17.98,17.34l0,0c-8.37-1.18-13.98-10.92-12.47-21.64l3.97-28.08C629.18,303.03,637.27,295.23,645.64,296.41z
	"/>
<g>
	<path class="st10" d="M592.54,289.39c-1.84,6.76,2.15,13.74,8.92,15.57c0.19,0.05,0.38,0.1,0.57,0.14
		c-0.18-4.71,0.23-9.31,1.26-13.52l0.92-3.77C606.09,280.09,595.62,278.08,592.54,289.39z"/>
	<path class="st10" d="M694.93,314.4c-1.49,6.85-8.24,11.2-15.09,9.71c-0.19-0.04-0.38-0.09-0.57-0.14c2.33-4.1,4.1-8.36,5.12-12.58
		l0.92-3.77C687.2,299.9,697.41,302.94,694.93,314.4z"/>
</g>
<path class="st9" d="M661.21,230.36L661.21,230.36c-22.3-5.45-45.16,8.95-50.79,32l-9.31,38.12c-0.66,24.54,14.07,47.54,30.32,51.82
	l0,0c11.52,2.72,45.16-8.95,50.79-32l9.31-38.12C697.16,259.12,683.51,235.81,661.21,230.36z"/>
<path class="st10" d="M666.32,314.38c-4.67,1.42-7.78,5.31-6.95,8.69c0.82,3.38,5.27,4.98,9.94,3.57c4.67-1.42,7.78-5.31,6.95-8.69
	C675.43,314.56,670.98,312.96,666.32,314.38z"/>
<path class="st10" d="M610.27,300.06c-2.82,0.59-4.06,4.66-2.76,9.09c1.3,4.43,4.65,7.53,7.47,6.94c2.82-0.59,4.06-4.66,2.75-9.09
	C616.44,302.58,613.09,299.47,610.27,300.06z"/>
<path class="st11" d="M641.24,316.05c-1.72,0-4.63-0.87-5.41-2.3l0.88-0.48c0.33,0.6,1.52,1.23,2.97,1.57
	c1.25,0.29,2.05,0.22,2.19,0.12c0.01-0.09,0.14-1.09-0.44-7.1l1-0.1c0.67,6.88,0.42,7.43,0.31,7.67c-0.18,0.39-0.61,0.59-1.33,0.61
	C641.35,316.05,641.29,316.05,641.24,316.05z"/>
<g>
	<path class="st10" d="M634.54,278.73c0.79,0.62,0.93,1.77,0.31,2.55c-0.62,0.79-1.76,0.93-2.55,0.31
		c-0.02-0.01-4.73-3.83-10.6-1.88c-0.96,0.32-1.99-0.2-2.31-1.15c-0.32-0.96,0.2-1.99,1.16-2.31
		C628.3,273.66,634.53,278.71,634.54,278.73z"/>
	<path class="st10" d="M676.09,289.71c0.73,0.68,0.78,1.84,0.1,2.57c-0.68,0.74-1.84,0.78-2.57,0.1c-0.01-0.01-4.4-4.21-10.41-2.73
		c-0.98,0.24-1.97-0.36-2.21-1.34c-0.24-0.98,0.36-1.97,1.34-2.21C670.27,284.15,676.07,289.69,676.09,289.71z"/>
</g>
<path class="st20" d="M691.98,303.94c0,0-5.48-1.2-6.67,3.69c0,0-2.61-5.98-0.28-12.09c0,0-7.43-14.67-3.65-28.1
	c3.78-13.43,15.04-13.75,15.04-13.75C719.94,267.26,697.63,280.82,691.98,303.94z"/>
<path class="st20" d="M599.98,281.47c0,0,5.42,1.46,4.22,6.35c0,0,5.07-4.1,5.82-10.6c0,0,13.36-9.59,16.2-23.25
	c2.84-13.66-7-19.13-7-19.13C592.08,236.02,605.63,258.34,599.98,281.47z"/>
<path class="st20" d="M684.89,270.61c0,0-2.41,3.87-5.38,2.74c-2.96-1.13-5.94-3.68-3.67-7.98c0,0-10.08-12.58-19.29-12.2
	c-9.2,0.38-31.27,11.61-50.71,5.85c-19.44-5.76-15.39-20.29,3-40c14-15,29.94-18.42,61-8c31.06,10.42,30.42,29.18,26.57,42.67
	C692.56,267.18,684.89,270.61,684.89,270.61z"/>
<path class="st13" d="M695.18,229.35c-25.03,15.46-57.3,32.85-99.02,8c1.16-2.6,2.67-5.18,4.57-7.7c1.8-2.4,3.71-4.61,5.72-6.63
	c36.54,21.34,62.14,9.87,84.4-0.33C692.34,224.43,694.13,227.53,695.18,229.35z"/>
<polygon class="st21" points="115.61,469.35 122.61,481.01 134.44,472.01 125.94,458.01 "/>
<g>
	<path class="st6" d="M622.69,300.14c2.78,0.68,5.58-1.02,6.25-3.8c0.68-2.78-1.02-5.57-3.79-6.25c-2.78-0.68-5.57,1.02-6.25,3.8
		C618.21,296.67,619.91,299.47,622.69,300.14z"/>
	<path class="st6" d="M663.22,310.05c2.78,0.68,5.57-1.02,6.25-3.8c0.68-2.77-1.02-5.57-3.79-6.25c-2.78-0.68-5.58,1.02-6.25,3.8
		C658.74,306.57,660.44,309.37,663.22,310.05z"/>
</g>
<path class="st12" d="M650.18,325.35c-1.2,4.9-8.91,7.91-13.81,6.71c-4.9-1.2-9.72-6.81-8.52-11.71c0.22-0.9,1.13-1.45,2.03-1.23
	l19.07,4.2C649.84,323.54,650.4,324.45,650.18,325.35z"/>
<path class="st18" d="M331.65,422.42c-26.87-19.41-32.65-77.77-32.7-78.36l1-0.09c0.06,0.58,5.79,58.5,32.3,77.64L331.65,422.42z"/>
<path class="st22" d="M290.35,372.17c0.14,0.7-0.3,1.38-1,1.52c-0.69,0.14-1.38-0.3-1.52-1c-0.23-1.13-0.9-2.05-1.78-2.63l-0.01,0
	c-0.88-0.58-2-0.82-3.12-0.59c-1.13,0.23-2.05,0.9-2.63,1.78l-0.01,0.01c-0.58,0.89-0.83,2-0.59,3.13c0.14,0.7-0.3,1.38-1,1.52
	c-0.7,0.14-1.38-0.3-1.53-1c-0.38-1.81,0.02-3.61,0.96-5.05l0.01-0.01c0.95-1.44,2.44-2.52,4.26-2.9c1.7-0.35,3.39-0.02,4.78,0.79
	c0.17-0.19,0.34-0.47,0.36-0.83c0.02-0.31,0.3-0.55,0.61-0.53c0.31,0.02,0.55,0.3,0.53,0.61c-0.04,0.59-0.29,1.05-0.56,1.39
	l0.05,0.04c0.37-0.29,0.75-0.73,0.93-1.36c0.09-0.3,0.4-0.48,0.7-0.39c0.3,0.09,0.48,0.4,0.39,0.7c-0.22,0.76-0.64,1.32-1.09,1.73
	l0.01,0.01c0.48-0.24,0.97-0.61,1.36-1.18c0.18-0.26,0.53-0.33,0.79-0.15c0.26,0.18,0.32,0.53,0.14,0.79
	c-0.4,0.58-0.87,1.01-1.36,1.31l-0.46,0.28C289.94,370.77,290.2,371.44,290.35,372.17z"/>
<path class="st22" d="M241.33,384.65c0.24,0.67,0.98,1.02,1.65,0.77c0.67-0.24,1.01-0.98,0.77-1.65c-0.39-1.08-0.3-2.22,0.14-3.18
	l0.01-0.01c0.45-0.96,1.27-1.75,2.35-2.14c1.08-0.39,2.22-0.31,3.18,0.14l0.01,0c0.96,0.45,1.75,1.27,2.14,2.35
	c0.24,0.67,0.98,1.02,1.65,0.78c0.67-0.24,1.02-0.98,0.78-1.65c-0.63-1.74-1.91-3.07-3.47-3.8l-0.01,0
	c-1.56-0.74-3.4-0.87-5.15-0.24c-1.63,0.59-2.9,1.75-3.66,3.18c-0.25-0.07-0.53-0.22-0.74-0.52c-0.18-0.25-0.54-0.31-0.8-0.13
	c-0.26,0.18-0.31,0.54-0.13,0.79c0.34,0.48,0.79,0.75,1.2,0.89l-0.02,0.06c-0.47-0.05-1.02-0.23-1.5-0.67
	c-0.23-0.21-0.59-0.2-0.8,0.04c-0.21,0.23-0.2,0.59,0.04,0.8c0.58,0.54,1.24,0.79,1.83,0.91l0,0.01c-0.54,0.05-1.15-0.01-1.78-0.29
	c-0.29-0.13-0.63,0-0.75,0.29c-0.13,0.29,0,0.63,0.29,0.75c0.64,0.29,1.27,0.4,1.85,0.41l0.53,0
	C240.95,383.25,241.08,383.96,241.33,384.65z"/>
<polygon class="st7" points="134.61,470.18 188.18,523.77 169.28,553.51 119.23,480.17 "/>
<g>
	<path class="st23" d="M702.27,203.27c-0.18-0.05-0.33-0.15-0.43-0.32c-0.11-0.17-0.14-0.33-0.1-0.48c0.09-0.34,0.35-0.45,0.79-0.33
		l1.51,0.39c0.77-2.96,1.66-6.73,2.65-11.29c0.84-3.64,1.48-6.5,1.91-8.6l0.55-1.96l0.67-2.55c0.34-1.29,0.52-2.12,0.57-2.5
		l-1.35-0.35c-0.26-0.07-0.34-0.28-0.25-0.64c0.06-0.23,0.21-0.39,0.45-0.46c0.2-0.03,0.69,0.06,1.46,0.26l1.08,0.28
		c0.38,0.13,0.87,0.27,1.46,0.42c0.21,0.05,0.36,0.14,0.47,0.27c0.1,0.13,0.13,0.28,0.09,0.46c-0.04,0.15-0.12,0.29-0.23,0.4
		c-0.11,0.11-0.24,0.14-0.4,0.1c-0.18-0.05-0.33-0.1-0.45-0.16l-0.46-0.12l-0.39-0.1c-0.26-0.07-0.42-0.08-0.48-0.04l-0.12,0.13
		c-0.52,2.01-1.42,6.12-2.67,12.32c-1.16,5.73-2.07,9.84-2.71,12.31l-0.28,1.08c-0.11,0.33-0.22,0.67-0.31,1.04l1.39,0.36
		c0.59,0.15,0.84,0.41,0.75,0.77c-0.04,0.16-0.14,0.29-0.29,0.4s-0.29,0.15-0.42,0.12l-2.09-0.54
		C704.01,203.74,703.22,203.52,702.27,203.27z"/>
	<path class="st23" d="M713.09,206.14c-0.27-0.24-0.38-0.46-0.32-0.66c0.04-0.15,0.21-0.38,0.51-0.69c0.29-0.28,0.45-0.52,0.47-0.71
		l0.77-3.44l2.48-10.64l1.14-4.7c0.72-2.87,1.12-4.68,1.21-5.43c0.02-0.3,0-0.65-0.06-1.05c-0.05-0.54-0.05-0.91,0-1.12
		c0.16-0.62,1.22-0.67,3.18-0.16l0.19,0.05c1.32,0.34,2.33,1.09,3.05,2.24c0.57,0.89,0.95,2.16,1.16,3.81
		c0.1,1.29,0.07,2.71-0.11,4.23c-0.1,0.8-0.32,2.01-0.66,3.63l-0.31,1.2c-0.42,1.6-1.08,3.28-1.99,5.04
		c-0.91,1.76-1.97,3.35-3.17,4.78c-0.73,0.91-1.58,1.68-2.53,2.32c-0.95,0.63-1.82,1.1-2.62,1.4c-0.79,0.3-1.31,0.42-1.54,0.36
		C713.65,206.53,713.36,206.37,713.09,206.14z M715.06,204.79c1.08-0.24,2.12-0.73,3.11-1.48c0.99-0.75,1.86-1.63,2.59-2.65
		c0.64-0.85,1.24-1.86,1.82-3.02c0.58-1.16,1.05-2.25,1.43-3.29c0.32-0.91,0.59-1.79,0.81-2.64c1.96-7.53,0.87-11.84-3.29-12.93
		c-0.54-0.14-0.85-0.07-0.92,0.21c-0.24,0.9-0.46,1.99-0.68,3.25c-0.23,1.29-0.45,2.38-0.68,3.25c-0.37,1.42-0.91,3.91-1.62,7.47
		c-0.61,3.09-1.16,5.57-1.65,7.43l-1.13,4.34L715.06,204.79z"/>
	<path class="st23" d="M727.34,210.07c-0.22-0.18-0.28-0.44-0.19-0.77l0.19-0.73c0.03-0.21,0.08-0.45,0.14-0.71l0.02-0.08l1.51-5.64
		l4.13-16c0.43-1.65,0.78-3.09,1.04-4.32c0.08-0.31,0.21-0.55,0.4-0.72c0.18-0.17,0.38-0.23,0.58-0.18l2.4,0.63
		c0.36,0.09,0.63,0.19,0.79,0.29c0.24,0.14,0.31,0.4,0.22,0.76c-0.05,0.21-0.18,0.36-0.36,0.44c-0.19,0.09-0.38,0.12-0.56,0.1
		l-0.66-0.17l-0.61-0.2l-0.61-0.2c-0.18-0.05-0.31-0.05-0.39,0c-0.08,0.05-0.15,0.16-0.19,0.34c-0.32,1.21-0.59,2.31-0.82,3.3
		l-0.86,3.29l-1.26,4.84c-0.01,0.05,0,0.08,0.06,0.1l0.04,0.01l0.04,0.01c0.66,0.12,1.36,0.27,2.11,0.47
		c0.41,0.11,0.57,0.34,0.48,0.7c-0.07,0.26-0.16,0.42-0.27,0.49c-0.11,0.07-0.27,0.07-0.48,0.02l-2.21-0.58
		c-0.1-0.03-0.17,0.03-0.21,0.15l-1.42,5.75c-0.41,1.79-0.92,3.85-1.53,6.18l-0.37,1.43l1.66,0.43l1.63,0.42l0.35,0.09
		c0.46,0.12,0.65,0.35,0.56,0.69c-0.11,0.41-0.29,0.63-0.54,0.64c-0.34,0.02-0.98-0.09-1.94-0.34l-1.63-0.42
		C727.97,210.43,727.55,210.25,727.34,210.07z"/>
	<path class="st23" d="M743.59,214.04c-0.11-0.17-0.14-0.34-0.09-0.52l1.32-5.07c0.08-0.31-0.5-0.77-1.75-1.37
		c-1.25-0.6-2.3-1.01-3.15-1.23c-0.05-0.01-0.19,0.16-0.4,0.52c-0.22,0.36-0.37,0.62-0.47,0.79c-0.68,1.25-1.39,2.6-2.13,4.03
		l-0.42,0.8c-0.11,0.19-0.26,0.26-0.47,0.21c-0.21-0.05-0.38-0.17-0.51-0.34c-0.13-0.17-0.18-0.35-0.13-0.53l0.06-0.07l0.01-0.04
		l0.93-1.82c0.63-1.13,1.21-2.25,1.74-3.35c0.6-1.25,1.02-2.05,1.25-2.4c0.43-0.8,1.4-2.82,2.9-6.06l0.57-1.22
		c1.71-3.8,2.82-6.18,3.35-7.14c0.29-0.59,0.76-1.44,1.41-2.57c0.26-0.48,0.58-0.95,0.95-1.41c0.35-0.38,0.6-0.55,0.75-0.51
		c0.41,0.11,0.67,0.32,0.79,0.62c0.07,0.26-0.06,1.59-0.4,3.99c-0.33,2.39-0.71,4.8-1.12,7.23l-1.17,6.56
		c-0.29,1.11-0.65,2.81-1.08,5.09c-0.44,2.31-0.8,4.02-1.09,5.13l-0.04,0.15c-0.07,0.29-0.18,0.53-0.32,0.74
		c-0.16,0.18-0.43,0.22-0.82,0.12C743.85,214.32,743.69,214.21,743.59,214.04z M745.33,206.31c0.42-1.6,0.9-3.81,1.44-6.63
		c0.54-2.82,0.98-5.32,1.33-7.49c0.18-0.92,0.34-1.94,0.47-3.06l0.24-1.55c-0.01,0.03,0-0.12,0.03-0.45l0.04-0.48
		c-0.36,0.51-0.76,1.25-1.22,2.21c-0.46,0.96-0.97,2.09-1.53,3.4c-1.62,3.68-2.9,6.44-3.85,8.26l-0.69,1.23
		c-0.72,1.19-1.17,2.12-1.35,2.79l-0.06,0.23c1.04,0.66,2.3,1.18,3.77,1.56l0.23,0.06c0.07,0.05,0.16,0.08,0.26,0.11
		C744.97,206.63,745.26,206.57,745.33,206.31z"/>
</g>
<g>
	<path class="st23" d="M143.65,347.21c-0.16-0.06-0.3-0.2-0.45-0.43l-0.32-0.51c-0.04-0.13-0.13-0.29-0.25-0.49
		c-2.42-3.87-5.62-8.69-9.61-14.45l-0.3,0.19l-0.81,0.5l-0.81,0.5c-1.58,0.99-2.55,1.65-2.89,1.98c1.29,2.06,3,4.55,5.13,7.46
		c2.43,3.32,4.15,5.8,5.18,7.44c0.26,0.42,0.24,0.73-0.07,0.93c-0.42,0.26-0.76,0.2-1.01-0.2c-0.89-1.37-2.15-3.24-3.78-5.63
		c-1.63-2.38-3.01-4.4-4.16-6.04c-4.74-6.39-9.03-12.67-12.88-18.84c-0.18-0.28-0.08-0.54,0.29-0.77c0.17-0.11,0.33-0.14,0.5-0.1
		s0.28,0.15,0.36,0.34l1.96,3.14c0.48,0.76,1.45,2.16,2.91,4.19l0.98,1.39c1.04,1.55,1.67,2.48,1.86,2.79l1.3,2.08
		c0.46,0.74,0.76,1.06,0.9,0.97l1.56-1.09l0.79-0.61c1.34-1,2.11-1.55,2.31-1.68l-0.01-0.11c-0.78-1.24-2.34-3.59-4.69-7.03
		c-2.38-3.5-3.96-5.86-4.71-7.08c-0.21-0.34-0.12-0.63,0.28-0.88c0.2-0.12,0.4-0.18,0.6-0.17c0.2,0.01,0.36,0.1,0.46,0.27
		c3.44,5.51,7.33,11.52,11.66,18.01c4.35,6.52,6.99,10.53,7.92,12.03l0.37,0.59c0.14,0.23,0.21,0.46,0.22,0.69
		c0.01,0.23-0.08,0.4-0.25,0.5C144,347.23,143.81,347.27,143.65,347.21z"/>
	<path class="st23" d="M150.99,341.98c-0.2,0.12-0.42,0.16-0.66,0.12c-0.24-0.04-0.42-0.15-0.52-0.32c-0.23-0.37-0.11-0.7,0.38-1
		l1.65-1.03c-2.03-3.25-4.69-7.29-7.98-12.11c-2.58-3.89-4.64-6.93-6.17-9.12l-1.31-2.19l-1.75-2.8c-0.88-1.41-1.47-2.3-1.78-2.66
		l-1.48,0.93c-0.28,0.18-0.55,0.07-0.79-0.33c-0.16-0.25-0.17-0.52-0.03-0.81c0.14-0.21,0.64-0.58,1.49-1.11l1.19-0.74
		c0.44-0.24,0.99-0.56,1.64-0.96c0.22-0.14,0.44-0.21,0.64-0.2c0.2,0.01,0.37,0.11,0.49,0.31c0.11,0.17,0.16,0.35,0.16,0.55
		c0,0.19-0.08,0.34-0.25,0.45c-0.2,0.12-0.38,0.21-0.53,0.27l-0.51,0.32l-0.42,0.26c-0.28,0.18-0.44,0.31-0.46,0.4l0.02,0.22
		c1.38,2.21,4.34,6.54,8.89,13.02c4.21,5.98,7.16,10.33,8.85,13.04l0.74,1.19c0.2,0.39,0.42,0.78,0.67,1.17l1.53-0.95
		c0.65-0.41,1.1-0.41,1.35-0.01c0.11,0.17,0.14,0.37,0.11,0.61c-0.03,0.23-0.12,0.4-0.26,0.48l-2.29,1.43
		C152.91,340.8,152.04,341.33,150.99,341.98z"/>
	<path class="st23" d="M160.15,327.19l-0.09-0.06l-6.36-10.18l-2.17-3.66l-2.28-3.65c-0.79-1.27-1.53-2.36-2.22-3.27l-0.8-1.09
		l-1.44-2.11c-0.18-0.28-0.19-0.64-0.04-1.06c0.15-0.43,0.36-0.73,0.64-0.9c0.37-0.23,0.67-0.16,0.89,0.21
		c1.55,2.49,3.52,5.96,5.91,10.4c2.64,4.92,4.59,8.39,5.86,10.43l0.57,0.82l0.63,1.02c0.74,1.19,1.15,2.09,1.22,2.71l0.26,0.13
		l-0.55,0.34L160.15,327.19z M164.57,334.27l-0.71,0.09c-0.2,0-0.61-0.15-1.23-0.47c-0.18-0.28-0.22-0.66-0.12-1.13
		c0.1-0.47,0.29-0.8,0.57-0.97c0.4-0.25,0.8-0.29,1.21-0.14s0.76,0.46,1.04,0.91c0.44,0.71,0.32,1.29-0.37,1.77
		C164.81,334.21,164.68,334.2,164.57,334.27z"/>
</g>
</svg>
