<?xml version="1.0" encoding="utf-8"?>
<!-- Generator: Adobe Illustrator 24.2.1, SVG Export Plug-In . SVG Version: 6.00 Build 0)  -->
<svg version="1.1" id="Слой_1" xmlns="http://www.w3.org/2000/svg" xmlns:xlink="http://www.w3.org/1999/xlink" x="0px" y="0px"
	 viewBox="0 0 864.61 999.02" style="enable-background:new 0 0 864.61 999.02;" xml:space="preserve">
<style type="text/css">
	.st0{fill:#FFFFFF;}
	.st1{fill:#B7B5DC;}
	.st2{fill:#484A73;}
	.st3{fill-rule:evenodd;clip-rule:evenodd;fill:#2F3C5A;}
	.st4{fill:#E3AB84;}
	.st5{fill-rule:evenodd;clip-rule:evenodd;fill:#F3E9D6;}
	.st6{fill:#C2E1CE;}
	.st7{fill:#2F3C5A;}
	.st8{fill-rule:evenodd;clip-rule:evenodd;fill:#E3AB84;}
	.st9{fill-rule:evenodd;clip-rule:evenodd;fill:#D7816C;}
	.st10{fill-rule:evenodd;clip-rule:evenodd;fill:#1C2036;}
	.st11{fill:#D7816C;}
	.st12{fill-rule:evenodd;clip-rule:evenodd;fill:#FFFFFF;}
	.st13{opacity:0.5;fill-rule:evenodd;clip-rule:evenodd;fill:#FFFFFF;}
	.st14{fill:#C1E5FA;}
	.st15{fill:#B46F5C;}
	.st16{fill:#A4504A;}
	.st17{fill-rule:evenodd;clip-rule:evenodd;fill:#B7B5DC;}
	.st18{fill:#807DBA;}
	.st19{fill-rule:evenodd;clip-rule:evenodd;fill:none;stroke:#1C2036;stroke-miterlimit:10;}
	.st20{fill:#F3E9D6;}
	.st21{fill:#70BE8D;}
	.st22{fill-rule:evenodd;clip-rule:evenodd;fill:#B46F5C;}
	.st23{fill-rule:evenodd;clip-rule:evenodd;fill:#A4504A;}
	.st24{fill-rule:evenodd;clip-rule:evenodd;fill:#202023;}
	.st25{fill:#EB5A3F;}
	.st26{opacity:0.3;fill:#FFFFFF;}
</style>
<g>
	<path class="st0" d="M865.75,239.9c-28.5,10.92-64.42,26.1-102.44,45.79c-80.68,41.8-187.68,112.93-239.14,214.57
		c-13.67,27.02-22.84,54.93-27.48,83.65c-1.83,0.11-3.67,0.22-5.53,0.3c4.67-29.69,14.08-58.52,28.21-86.4
		c52.1-102.93,160.13-174.8,241.56-216.94c38.89-20.14,75.61-35.6,104.52-46.62C865.59,236.13,865.7,238.02,865.75,239.9z"/>
	<path class="st0" d="M858.74,316.7c-0.4,1.94-0.86,3.91-1.35,5.88c-22.95,5.8-57.41,17.85-90.96,42.36
		c-41.85,30.55-89.02,85.97-103.09,184.1c-1.91,0.76-3.86,1.54-5.8,2.29c13.81-101.99,62.64-159.4,105.9-190.89
		C798.87,334.61,835.33,322.34,858.74,316.7z"/>
	<path class="st0" d="M421.1,584.48c-1.83-0.05-3.67-0.13-5.5-0.22c-0.65-15.02-3.4-36.57-12.22-60.67
		c-15.42-42.07-53.02-100.83-144.62-141.87C167.06,340.6,110.78,283.86,96,217.58c-9.28-41.53-1.62-84.38,22.09-125.93
		c1.73,0.57,3.45,1.19,5.2,1.83c-23.46,40.67-31.07,82.49-22.03,122.94c14.4,64.53,69.63,120,159.72,160.37
		c93.46,41.91,131.84,102.09,147.56,145.24C417.68,547.08,420.51,569.16,421.1,584.48z"/>
	<path class="st0" d="M77.72,496.03c-1.65-1.19-3.26-2.37-4.88-3.64c6.2-41.91,3.07-106.81-43.6-184.21
		C-9.73,243.52-8.14,169.5,33.87,94.04c3.56-6.36,7.25-12.51,11.06-18.39c2.02,0.11,4.07,0.24,6.15,0.43
		c-4.31,6.58-8.55,13.48-12.57,20.71c-41.53,74.67-43.09,144.84-4.67,208.58C82.38,385.87,84.62,453.26,77.72,496.03z"/>
	<path class="st0" d="M344.47,578.38c-1.97-0.24-3.94-0.49-5.91-0.73c-12.67-37.27-38.78-89.1-89.47-112.53
		c-15.64-7.23-29.93-7.25-42.47-0.03c-22,12.7-35.78,45.36-44.17,75.67c-1.78-0.59-3.53-1.21-5.26-1.89
		c8.68-31.12,23.16-64.85,46.73-78.44c14.13-8.14,30.09-8.22,47.43-0.19C304.88,484.97,331.77,540.01,344.47,578.38z"/>
	<path class="st0" d="M760.8,43.29c-8.2,14.37-16.45,30.71-25.24,48.13c-40.85,81.03-91.71,181.91-203.54,207.18
		c-14.99,3.4-29.42,5.1-43.17,5.1c-31.52,0-59.68-8.9-84.03-26.64c-32.84-23.92-54.2-60.86-67.95-95.92
		c1.91-0.05,3.75-0.19,5.58-0.38c13.46,33.76,34.14,69.03,65.56,91.93c33.65,24.51,74.99,31.47,122.83,20.66
		C640.18,268.62,690.42,169.04,730.76,89c8.9-17.64,17.26-34.19,25.62-48.78C757.86,41.22,759.34,42.22,760.8,43.29z"/>
	<path class="st0" d="M729.14,24.36c-26.08,47.24-78.88,125.42-159.07,164.33c-12.62,6.12-24.92,9.17-36.86,9.17
		c-10.92,0-21.49-2.56-31.71-7.69c-28.37-14.21-49.97-46.09-65.8-79.66c1.32-1.59,2.64-3.18,3.96-4.83
		c15.53,33.68,36.7,65.85,64.26,79.66c19.77,9.92,41.23,9.41,63.77-1.51c78.82-38.24,130.84-115.17,156.59-161.8
		C725.9,22.77,727.52,23.55,729.14,24.36z"/>
	<path class="st0" d="M629.82,0.93c-4.85,34.06-19.23,77.23-60.3,87.51c-5.31,1.32-10.41,1.91-15.26,1.91
		c-27.29,0-47.27-19.39-60.81-40.04c1.4-1.11,2.83-2.21,4.23-3.26c14.97,23,38.1,44.22,70.54,36.13
		c37.29-9.3,50.99-49.67,55.9-82.14C626.02,0.98,627.94,0.93,629.82,0.93z"/>
</g>
<path class="st1" d="M273.48,944.43c-24.19,0-46.71-1.51-65.66-4.11c-14.82,2.57-33.7,4.11-54.28,4.11
	c-47.62,0-86.23-8.25-86.23-18.44c0-10.18,38.61-18.44,86.23-18.44c3.03,0,6.02,0.03,8.97,0.1c19.13-9.03,61.6-15.31,110.97-15.31
	c67.27,0,121.8,11.66,121.8,26.04S340.75,944.43,273.48,944.43z"/>
<path class="st2" d="M269.38,486.72L251.7,592.16l15.99,291.72h27.94c0,0,27.3-201.25,19.07-311.72c-1.82-24.5-7.89-90-7.89-90
	L269.38,486.72z"/>
<path class="st3" d="M300.74,913.76h-23.17c-1.86,0-3.38-1.65-3.38-3.66v-6.23c0-2.01,1.52-3.66,3.38-3.66h23.17
	c1.86,0,3.38,1.65,3.38,3.66v6.23C304.12,912.11,302.6,913.76,300.74,913.76z"/>
<path class="st3" d="M340.03,907.93c0,0,1.32-0.95,1.32-3.82c0-11.12-17.43-5.7-23.9-9.54c-5.46-3.24-14.38-11.42-14.53-21.47
	c0,0,0-5.63-6.49-5.63c-6.49,0-7.97,0-10.2,0c-2.22,0-5.93,1.71-6.49,5.02c0,0-4.27,0-6.58,0c-2.32,0-5.65,0.5-5.65,7.44
	c0,6.94,0,21.91,0,23.67c0,1.76,0.68,3.87,1.82,4.33c0,0,0.45,2.36,0.73,2.61c0.28,0.25,5.05,1.26,7.19,0.91
	c2.13-0.35,8-3.49,8-3.49s1.6-0.48,1.6-2.62c0,0,0.09-1.91,2.39-1.91c2.29,0,6.84,1.94,7.42,2.29c0.58,0.35,0.87,0.96,0.87,2.21
	c0,1.25,5.21,3.82,11.79,4.22C315.88,912.56,340.03,907.93,340.03,907.93z"/>
<path class="st3" d="M340.03,913.76h-42.52c-0.8,0-1.45-0.71-1.45-1.58v-2.68c0-0.87,0.65-1.57,1.45-1.57h42.52
	c0.8,0,1.45,0.71,1.45,1.57v2.68C341.48,913.05,340.83,913.76,340.03,913.76z"/>
<path class="st3" d="M302.67,913.76h-33.34c-0.8,0-1.45-0.71-1.45-1.58v-2.68c0-0.87,0.65-1.57,1.45-1.57h33.34
	c0.8,0,1.45,0.71,1.45,1.57v2.68C304.12,913.05,303.47,913.76,302.67,913.76z"/>
<path class="st3" d="M142.75,874.41c0,0,1.28-4.52,3.04-4.52s10.23,0,11.88,0c1.66,0,7.58,1.67,7.58,7.1c0,0,3.76,3.61,4.4,4.48
	c0.64,0.88,1.2,1.78,1.2,4.78c0,3,0,14.58,0,16.74s0.53,10.69-12.6,10.69c-13.14,0-20.97,0-25.04,0c-4.07,0-7.21-4.03-7.21-7.84
	c0-3.81,0.7-7.68,5.1-14.74c4.4-7.06,7.59-12.3,7.59-12.3S140.65,875.47,142.75,874.41z"/>
<path class="st3" d="M157.89,869.9c1.9,0.13,7.37,1.87,7.37,7.09c0,0,3.76,3.61,4.4,4.48c0.64,0.88,1.2,1.78,1.2,4.78
	c0,3,0,14.58,0,16.74s0.53,10.69-12.6,10.69h-3.29l1.37-8.53c0,0,5.57-18.3,6.12-25.74C162.99,872.02,157.94,869.92,157.89,869.9z"
	/>
<path class="st4" d="M680.86,867.32c3.16,25.16,0.84,20.17,29.51,31.51s8.39,12.01,5.33,11.33c-9.71-2.14-18.67-8.67-39.33-6
	c-20.67,2.67-8.1-19.56-8.1-19.56l0.77-23.11L680.86,867.32z"/>
<path class="st1" d="M618.58,946.93c24.19,0,46.71-1.51,65.66-4.11c14.82,2.57,33.7,4.11,54.28,4.11c47.62,0,86.23-8.25,86.23-18.44
	s-38.61-18.44-86.23-18.44c-3.03,0-6.02,0.03-8.97,0.1c-19.13-9.03-61.6-15.31-110.97-15.31c-67.27,0-121.8,11.66-121.8,26.04
	C496.78,935.27,551.31,946.93,618.58,946.93z"/>
<path class="st2" d="M710.36,898.83c28.67,11.33,8.39,12.01,5.33,11.33c-9.71-2.14-18.67-8.67-39.33-6
	c-20.67,2.67-8.1-19.56-8.1-19.56s16.19,10.06,24.69,7.56L710.36,898.83z"/>
<path class="st4" d="M569.13,867.32c-3.16,25.16-0.84,20.17-29.51,31.51c-28.67,11.33-8.39,12.01-5.33,11.33
	c9.71-2.14,18.67-8.67,39.33-6c20.67,2.67,8.1-19.56,8.1-19.56l-0.77-23.11L569.13,867.32z"/>
<path class="st2" d="M539.62,898.83c-28.67,11.33-8.39,12.01-5.33,11.33c9.71-2.14,18.67-8.67,39.33-6
	c20.67,2.67,8.1-19.56,8.1-19.56s-16.19,10.06-24.69,7.56L539.62,898.83z"/>
<path class="st5" d="M564.41,409.67c23-25.66,13.55-57.36,13.55-57.36l52.95-0.24l43.74,29.85c0,0-2.17,17.02-6.24,51.24
	C668.41,433.17,551.41,424.17,564.41,409.67z"/>
<path class="st6" d="M622.39,567.3l50.31-103.8c5.5-8.6-8.78-18.34-17.57-19.53l-61.46-13.93c-8.78-1.19-16.65,5.52-20.19,14.38
	L553.43,558.9L622.39,567.3z"/>
<path class="st2" d="M269.38,486.72l-6.25,103.76l-99.1,288.35l-19.06-7.31c0,0,27.57-207.53,49.73-307.36
	c4.82-21.72,26.87-71.62,26.87-71.62L269.38,486.72z"/>
<path class="st7" d="M583.71,562.58l19.2,76.58l-18,237l-24,1c0,0-34.44-168.82-27.78-258.19c1.48-19.82,20.31-60.08,20.31-60.08
	L583.71,562.58z"/>
<path class="st2" d="M583.71,562.58v76.04l83.64,235.26h17c0,0-17.73-172.96-35.66-253.72c-3.9-17.57-26.31-52.87-26.31-52.87
	L583.71,562.58z"/>
<path class="st8" d="M599.11,432.56l5.34-39.28c1.53-11.29,9.83-19.56,18.43-18.39l0,0c8.6,1.17,14.39,11.36,12.85,22.65
	l-7.37,40.31C628.36,437.83,594.52,452.28,599.11,432.56z"/>
<path class="st9" d="M622.88,374.88L622.88,374.88c-8.6-1.17-16.9,7.11-18.43,18.39l-4.42,32.49c3.22,2.51,6.9,4.17,11.01,4.73
	c7.35,1,13.39-0.59,19.99-6.99l4.71-25.97C637.27,386.24,631.49,376.05,622.88,374.88z"/>
<g>
	<path class="st9" d="M586.2,343.83c-0.33-0.05-0.65-0.09-0.97-0.12l-0.01,0l0,0c-5.99-0.5-11.74,3.16-13.65,9.13
		c-2.21,6.93,1.61,14.35,8.55,16.57c6.94,2.21,14.36-1.61,16.57-8.55c1.29-4.03,0.54-8.22-1.68-11.46
		c-0.79,3.83-2.76,8.26-7.66,7.31l2.31-7.24C590.59,346.53,588.24,344.35,586.2,343.83z"/>
	<path class="st9" d="M672.58,369.63c0.3,0.14,0.6,0.28,0.88,0.43l0.01,0.01l0,0c5.28,2.86,8.08,9.08,6.41,15.12
		c-1.95,7.01-9.22,11.12-16.23,9.17c-7.01-1.95-11.12-9.22-9.17-16.23c1.13-4.08,4.06-7.17,7.7-8.66c-1.44,3.63-2.22,8.43,2.4,10.31
		l2.04-7.32C667.43,369.48,670.58,368.94,672.58,369.63z"/>
</g>
<path class="st8" d="M610.05,420.18c15.74,5.74,41.79-17.35,59.07-38.74l9.33-30.45c7.27-23.73-6.2-49.1-29.94-56.37l0,0
	c-23.73-7.27-49.1,6.2-56.37,29.94l-9.13,29.8C585.74,380.23,592.2,413.66,610.05,420.18z"/>
<path class="st9" d="M595.23,367.72c3.27-0.5,6.7,2.35,7.66,6.36c0.96,4.01-0.91,7.67-4.18,8.17c-3.27,0.5-6.7-2.35-7.66-6.36
	C590.1,371.88,591.97,368.22,595.23,367.72z"/>
<path class="st9" d="M644.82,383.46c4.51-0.6,8.4,2.07,8.69,5.96c0.29,3.89-3.13,7.53-7.64,8.13c-4.51,0.6-8.4-2.07-8.69-5.96
	C636.89,387.71,640.31,384.07,644.82,383.46z"/>
<g>
	<path class="st10" d="M645.45,350.39c-1.03,0.13-1.76,1.08-1.63,2.12c0.13,1.03,1.08,1.77,2.12,1.63c0.02,0,6.26-0.91,10.46,3.95
		c0.69,0.79,1.89,0.88,2.68,0.2c0.79-0.69,0.88-1.88,0.2-2.68C653.72,349.19,645.48,350.39,645.45,350.39z"/>
	<path class="st10" d="M602.53,338.13c-1.02,0.22-1.67,1.22-1.45,2.24c0.22,1.02,1.22,1.67,2.24,1.46c0.02,0,6.16-1.42,10.75,3.09
		c0.75,0.74,1.95,0.73,2.69-0.02c0.73-0.75,0.72-1.95-0.02-2.69C610.68,336.25,602.55,338.12,602.53,338.13z"/>
</g>
<path class="st11" d="M623.94,381.46c-1.55,0-3.45-0.62-4.48-1.29c-0.62-0.4-0.9-0.8-0.85-1.23l0.99,0.11c0-0.04,0-0.07-0.01-0.07
	c0.07,0.17,0.72,0.64,1.95,1.05c1.51,0.49,2.95,0.57,3.58,0.2c0.57-0.34,0.99-2.68,0.68-6.5l1-0.08c0.19,2.4,0.3,6.57-1.17,7.44
	C625.2,381.35,624.6,381.46,623.94,381.46z"/>
<path class="st5" d="M681.91,364.76l-4.3,8.84c0,0-5.78-1.01-7.31,3.99c0,0-2.34-6.36,0.44-12.55c0,0-6.83-15.66-2.11-29.36
	c4.72-13.7,10.78-22.2,10.78-22.2S694.1,335.9,681.91,364.76z"/>
<path class="st5" d="M581.55,334.02l-1.39,9.73c0,0,5.36,2.4,3.83,7.4c0,0,5.5-3.95,6.67-10.64c0,0,14.43-9.15,18.19-23.15
	c3.76-14,0.37-21.91,0.37-21.91S587.61,303.28,581.55,334.02z"/>
<path class="st12" d="M607.63,386.04c-1.53,5.01,3.75,11.9,8.76,13.43c5.01,1.53,13.93-1.73,15.47-6.74
	c0.28-0.92-3.86-1.45-4.78-1.73l-14.8-4.53C611.36,386.19,607.91,385.12,607.63,386.04z"/>
<path class="st5" d="M680.19,319.37c0,0-9.87-81.38-80.52-29.09c-14.83,10.98-30.38,22.44-30.15,29.92
	C570.41,348.35,667.05,353.42,680.19,319.37z"/>
<path class="st13" d="M679.41,313.47c0,0-45.06,35.71-101.44-5.1l13.62-12.27c0,0,27.05,36.82,87.9,16.84L679.41,313.47z"/>
<path class="st1" d="M254.7,929.37c0,7.51,78.12-0.76,178.23,9.61c106.5,11.03,186.21-2.1,186.21-9.61
	c0-7.51-81.58-13.6-182.22-13.6C336.28,915.76,254.7,921.85,254.7,929.37z"/>
<polygon class="st14" points="484.28,653.12 474.78,636.3 483.44,642.97 484.28,644.45 "/>
<path class="st4" d="M669.26,884.61"/>
<polygon class="st4" points="454.7,578.16 462.5,587.5 531.17,540.83 513.36,515.81 "/>
<path class="st6" d="M511.13,519.33l20.03,22.84l63.53-74.86c10.74-7.72,7.67-31.03-1.02-37.27l0.98,0.81
	c-8.69-6.24-24.39-0.45-29.33,9.04L511.13,519.33z"/>
<path class="st15" d="M169.92,392.22c0,0-48.9-92.03-37.05-95.71s29.67,2.27,74.72,78.95L169.92,392.22z"/>
<path class="st15" d="M142.3,329.52c0,0-46.67-99.02-33.81-113.84c0,0-1.15-8.55,6.82,1.95c7.58,9.99,35.09,39.56,54.47,102.68
	L142.3,329.52z"/>
<path class="st15" d="M106.01,226.51l10.86-6.88c0,0-5.58-29.54-14.08-35.03c-8.49-5.5-18.56,9.35-18.56,9.35
	S86.39,201.25,106.01,226.51z"/>
<path class="st16" d="M84.23,193.94l20.28-8.17c0,0-12.72-26.39-18.46-24C80.31,164.17,84.23,193.94,84.23,193.94z"/>
<path class="st15" d="M116.87,219.62c0,0,2.32-31.6-2.77-35.7c-5.1-4.1-4.64,26.25-4.64,26.25L116.87,219.62z"/>
<path class="st4" d="M773.41,458.17l-9.74-6.3c0,0,5.58-29.54,14.08-35.03c8.46-5.47,15.36,15.41,15.42,15.59c0,0,0,0,0,0.01
	C793.2,432.52,792.33,433.82,773.41,458.17z"/>
<path class="st11" d="M792.91,432.17l-17.63-13.4c0,0,12.72-26.39,18.46-24C799.48,397.16,792.91,432.17,792.91,432.17z"/>
<path class="st4" d="M762.92,452.61c0,0-2.32-31.6,2.77-35.7c5.1-4.1,4.64,26.25,4.64,26.25L762.92,452.61z"/>
<path class="st15" d="M337.28,404.75c0,0,26.11,100.89,13.73,101.71c-12.38,0.82-28.33-9.12-54.27-94.18L337.28,404.75z"/>
<path class="st15" d="M350.23,514.77c0,0,88.12-64.94,83.85-84.09c0,0,5.07-6.98-6.92-1.52c-11.41,5.19-49.67,18.13-96.72,64.46
	L350.23,514.77z"/>
<path class="st15" d="M431.12,441.38l-6.28-11.22c0,0,18.95-23.33,29.03-24.13c10.09-0.8,11.89,17.05,11.89,17.05
	S460.38,428.49,431.12,441.38z"/>
<path class="st15" d="M424.83,430.16c0,0,12.98-28.91,19.41-30.1c6.43-1.19-8.4,25.3-8.4,25.3L424.83,430.16z"/>
<path class="st17" d="M317.33,369.31c0,0,8.55,5.4,11.02,8.86c2.48,3.46,24.56,64.79,24.56,64.79l-39.57,28.54l-17.53-40.89
	C295.82,430.61,294.69,391.05,317.33,369.31z"/>
<path class="st17" d="M198.28,424.79c0,0-9.57-3.26-12.78-6.05c-3.21-2.78-39.88-62.53-39.88-62.53l35-24.53l29.55,41.98
	C210.18,373.67,204.58,387.06,198.28,424.79z"/>
<path class="st17" d="M256.54,367.3c-12.42,0-14.96-9.54-14.96-9.54l-38.81,10.85c-8.95,24.66-6.75,64.99-6.75,64.99
	c6.47,41.84,4.81,45.69-0.48,87.29c-0.54,4.23,0.54,9.1,0.54,9.1c12.67,22.04,110.92,19.45,123.12-1.78c0,0,1.08-4.87,0.54-9.1
	c-5.29-41.6-9.17-43.67-2.69-85.51c0,0-13.3-37.07-0.06-63.94l-45.5-11.9C271.5,357.77,268.96,367.3,256.54,367.3z"/>
<path class="st18" d="M301.13,487.8l-0.66-0.76c9.74-8.44,12.73-22.69,12.75-22.83l0.98,0.2
	C314.18,464.56,311.13,479.13,301.13,487.8z M206.16,485.82c-5.22-4.08-6.51-17.09-6.56-17.64l1-0.09
	c0.01,0.13,1.3,13.13,6.18,16.95L206.16,485.82z M316.59,433.78c-0.12-0.33-11.84-32.79,2.33-55.38l0.85,0.53
	c-13.91,22.17-2.36,54.18-2.24,54.5L316.59,433.78z M332.21,428.69l-0.89-35.68l1-0.03l0.89,35.68L332.21,428.69z M197.02,425.31
	c-0.04-0.34-3.41-34.29,8.14-57.23l0.89,0.45c-11.42,22.68-8.07,56.34-8.04,56.68L197.02,425.31z M183.86,409.53l-0.99-0.12
	l4.6-37.97l0.99,0.12L183.86,409.53z"/>
<path class="st19" d="M674.7,377.66"/>
<path class="st20" d="M676.5,373.81l-0.61-0.79c0.14-0.11,14.16-11.19,15.64-27.88c0.92-10.42-3.16-20.82-12.14-30.94
	c-3.63,3.78-32.59,32.86-64.31,32.87c-0.97,0-1.93-0.03-2.9-0.08c-16.48-0.94-30.96-9.85-43.06-26.49l0.81-0.59
	c11.91,16.38,26.15,25.16,42.31,26.08c34.4,1.99,66.48-32.51,66.8-32.86l0.37-0.41l0.37,0.41c9.42,10.46,13.71,21.26,12.75,32.11
	C691.01,362.37,676.65,373.7,676.5,373.81z"/>
<rect x="652.35" y="412.42" transform="matrix(0.0898 -0.996 0.996 0.0898 200.5503 1045.2838)" class="st20" width="39.66" height="1"/>
<path class="st21" d="M563.32,504.49c-21.06-24.06,16.63-64.27,17.01-64.67l0.72,0.69c-0.38,0.4-37.44,39.94-16.99,63.33
	L563.32,504.49z"/>
<path class="st10" d="M610.13,362.98c-2.95-0.35-5.05-3.02-4.71-5.96c0.05-0.4,0.14-0.79,0.27-1.16l-0.59-0.29
	c-0.61-0.31-1.21-0.76-1.74-1.4c-0.24-0.29-0.19-0.71,0.09-0.95c0.29-0.24,0.71-0.2,0.95,0.09c0.52,0.63,1.13,1.01,1.72,1.25
	l0.01-0.01c-0.57-0.43-1.12-1.05-1.45-1.93c-0.13-0.35,0.04-0.74,0.39-0.87c0.35-0.13,0.74,0.04,0.87,0.39
	c0.28,0.72,0.76,1.2,1.23,1.5l0.06-0.05c-0.36-0.37-0.69-0.89-0.8-1.58c-0.06-0.37,0.19-0.71,0.56-0.77
	c0.37-0.06,0.71,0.19,0.77,0.56c0.08,0.5,0.36,0.83,0.61,1.03c0.9-0.45,1.95-0.66,3.03-0.53c2.95,0.35,5.05,3.02,4.71,5.97
	C615.75,361.22,613.08,363.33,610.13,362.98z"/>
<path class="st22" d="M257.54,305.72L257.54,305.72c-8.45-0.27-15.65,8.36-15.99,19.18l-0.9,28.34
	c-0.34,10.82,6.29,19.89,14.74,20.16l0,0c8.45,0.27,15.65-8.36,15.99-19.18l0.9-28.34C272.62,315.07,265.99,305.99,257.54,305.72z"
	/>
<path class="st23" d="M258.58,282.22L258.58,282.22c-8.45-0.27-15.65,8.36-15.99,19.18l-0.9,28.34
	c-0.34,10.82,6.29,19.89,14.74,20.16l0,0c8.45,0.27,15.65-8.36,15.99-19.18l0.9-28.34C273.66,291.56,267.03,282.49,258.58,282.22z"
	/>
<g>
	<g>
		<path class="st23" d="M312.1,284.4c0.65,6.98-4.47,13.16-11.45,13.82c-0.2,0.02-0.39,0.03-0.59,0.04
			c0.98-4.61,1.37-9.21,1.08-13.54l-0.26-3.87C300.34,272.92,311,272.73,312.1,284.4z"/>
		<path class="st23" d="M206.93,291.5c0.29,7,6.2,12.44,13.21,12.15c0.2-0.01,0.39-0.02,0.59-0.04c-1.6-4.44-2.6-8.94-2.89-13.27
			l-0.26-3.87C217.04,278.55,206.45,279.79,206.93,291.5z"/>
	</g>
</g>
<path class="st22" d="M254.55,214.48L254.55,214.48c22.91-1.55,42.96,16.56,44.56,40.23l2.65,39.15
	c-3.55,24.29-22,44.42-38.74,45.86l0,0c-11.81,0.71-42.96-16.56-44.56-40.23l-2.64-39.15C214.21,236.66,231.65,216.03,254.55,214.48
	z"/>
<path class="st23" d="M235.13,296.38c4.35,2.19,6.75,6.56,5.36,9.75c-1.39,3.19-6.05,4.01-10.4,1.81c-4.35-2.19-6.75-6.56-5.36-9.76
	S230.78,294.19,235.13,296.38z"/>
<path class="st23" d="M292.8,291.88c2.68,1.07,3.2,5.29,1.16,9.43c-2.04,4.14-5.87,6.63-8.55,5.56c-2.68-1.07-3.2-5.29-1.16-9.43
	C286.29,293.3,290.12,290.81,292.8,291.88z"/>
<path class="st16" d="M260.8,302.43c-0.52,0-1.01-0.04-1.41-0.13c-0.71-0.15-1.1-0.42-1.21-0.83c-0.07-0.25-0.22-0.84,1.62-7.5
	l0.96,0.27c-1.61,5.82-1.64,6.83-1.61,7c0.09,0.05,0.87,0.25,2.15,0.18c1.49-0.09,2.77-0.5,3.19-1.04l0.78,0.62
	C264.48,301.99,262.45,302.43,260.8,302.43z"/>
<g>
	<path class="st10" d="M272.54,266.7c-0.89,0.48-1.22,1.58-0.74,2.46c0.47,0.88,1.58,1.22,2.46,0.74c0.02-0.01,5.32-2.97,10.77-0.04
		c0.89,0.48,2,0.15,2.47-0.74c0.48-0.89,0.15-2-0.74-2.47C279.56,262.78,272.56,266.69,272.54,266.7z"/>
	<path class="st10" d="M229.73,270.4c-0.84,0.55-1.08,1.68-0.54,2.52c0.55,0.84,1.68,1.08,2.52,0.54c0.01-0.01,5.06-3.39,10.73-0.91
		c0.92,0.4,2-0.02,2.4-0.94c0.4-0.92-0.02-2-0.94-2.41C236.41,265.92,229.75,270.39,229.73,270.4z"/>
</g>
<path class="st10" d="M211.63,281.7c0,0,5.6-0.25,5.94,4.77c0,0,3.59-5.44,2.34-11.86c0,0,9.84-13.18,8.41-27.06
	c-1.42-13.88-12.46-16.12-12.46-16.12C190.37,240.78,210.03,257.95,211.63,281.7z"/>
<path class="st10" d="M306.12,275.32c0,0-5.59,0.51-5.25,5.53c0,0-4.29-4.91-3.92-11.44c0,0-11.52-11.74-11.97-25.68
	c-0.46-13.95,10.18-17.65,10.18-17.65C321.69,231.9,304.52,251.57,306.12,275.32z"/>
<path class="st10" d="M224.33,250.08c0,0,1.72,4.23,4.83,3.62c3.11-0.6,6.48-2.61,4.98-7.24c0,0,12.09-10.67,21.09-8.72
	c9,1.95,28.81,16.8,48.96,14.45c20.14-2.35,18.64-17.36,3.9-39.92c-11.22-17.18-26.35-23.28-58.73-18.33
	c-32.39,4.95-34.97,23.54-33.49,37.49C217.36,245.39,224.33,250.08,224.33,250.08z"/>
<g>
	<path class="st10" d="M280.55,289.83c-2.85,0.19-5.32-1.96-5.51-4.81c-0.19-2.85,1.96-5.32,4.81-5.51
		c2.85-0.19,5.31,1.96,5.51,4.81C285.56,287.18,283.4,289.64,280.55,289.83z"/>
	<path class="st10" d="M238.92,292.65c-2.85,0.19-5.31-1.96-5.51-4.81c-0.19-2.85,1.96-5.32,4.81-5.51
		c2.85-0.19,5.32,1.96,5.51,4.81C243.93,289.99,241.78,292.45,238.92,292.65z"/>
</g>
<path class="st12" d="M249.15,309.95c0.34,5.03,7.43,9.32,12.46,8.98c5.03-0.34,10.74-5.05,10.4-10.08
	c-0.06-0.92-0.87-1.63-1.79-1.56l-19.51,0.87C249.79,308.23,249.09,309.03,249.15,309.95z"/>
<path class="st20" d="M559.2,409.07l-0.59-0.81c26.51-19.14,32.24-77.06,32.3-77.64l1,0.09C591.85,331.3,586.08,389.66,559.2,409.07
	z"/>
<path class="st24" d="M652.24,368.24c0.15-0.69-0.28-1.38-0.98-1.54c-0.69-0.15-1.38,0.29-1.53,0.98c-0.25,1.12-0.93,2.04-1.82,2.61
	l-0.01,0c-0.89,0.57-2.01,0.8-3.13,0.55c-1.13-0.25-2.04-0.93-2.61-1.82l-0.01-0.01c-0.57-0.9-0.8-2.01-0.55-3.13
	c0.15-0.69-0.28-1.38-0.98-1.54c-0.7-0.15-1.38,0.28-1.54,0.98c-0.4,1.81-0.03,3.61,0.9,5.07l0.01,0.01
	c0.93,1.46,2.41,2.56,4.22,2.96c1.69,0.38,3.39,0.07,4.79-0.73c0.17,0.19,0.33,0.47,0.35,0.84c0.02,0.31,0.29,0.55,0.6,0.54
	c0.31-0.02,0.55-0.29,0.53-0.6c-0.03-0.59-0.27-1.05-0.54-1.4l0.05-0.04c0.37,0.3,0.74,0.74,0.91,1.37c0.08,0.3,0.4,0.48,0.7,0.4
	c0.3-0.08,0.48-0.39,0.4-0.7c-0.21-0.76-0.62-1.33-1.06-1.74l0.01-0.01c0.48,0.25,0.96,0.62,1.35,1.2c0.17,0.26,0.53,0.33,0.79,0.16
	c0.26-0.18,0.33-0.53,0.15-0.79c-0.39-0.59-0.86-1.02-1.35-1.33l-0.45-0.28C651.81,369.63,652.08,368.96,652.24,368.24z"/>
<polygon class="st4" points="763.17,449.5 702.68,510.42 721.58,540.17 774.17,457.16 "/>
<circle class="st10" cx="312.5" cy="226.16" r="9"/>
<circle class="st10" cx="301.5" cy="211.16" r="14"/>
<circle class="st10" cx="289.5" cy="205.16" r="14"/>
<circle class="st10" cx="269.5" cy="195.16" r="14"/>
<circle class="st10" cx="252.5" cy="201.16" r="14"/>
<circle class="st10" cx="236.5" cy="204.16" r="14"/>
<circle class="st10" cx="224.5" cy="218.16" r="14"/>
<circle class="st10" cx="212.5" cy="232.16" r="14"/>
<path class="st6" d="M697.63,539.72c3.23,6.82,11.37,9.74,18.19,6.51c6.82-3.23,9.74-11.37,6.51-18.19
	c-3.23-6.82-11.37-9.74-18.19-6.51C697.32,524.75,694.4,532.9,697.63,539.72z"/>
<path class="st6" d="M700.58,543.83l22.26-13l-49.47-74.67c-6.37-8.59-28.88-13.54-36.48-6.02l0,0c-7.6,7.52-6.78,28.44,1.75,34.9
	L700.58,543.83z"/>
<path class="st21" d="M656.38,500.55c-0.21-0.17-20.85-17.72,5.12-54.67l0.82,0.57c-25.44,36.2-5.51,53.16-5.3,53.33L656.38,500.55z
	"/>
<path class="st4" d="M470.67,580.79l-10.39-7.57c0,0-25.42,16.05-27.41,25.97c-1.99,9.92,15.52,13.82,15.52,13.82
	S454.4,608.32,470.67,580.79z"/>
<path class="st4" d="M460.27,573.22c0,0-30.24,9.46-32.18,15.7c-1.94,6.25,26.11-5.34,26.11-5.34L460.27,573.22z"/>
<path class="st25" d="M419.51,929.31L419.51,929.31c-2.43-0.18-4.28-2.32-4.1-4.75l45.47-836.18c0.18-2.43,2.32-4.28,4.75-4.1l0,0
	c2.43,0.18,4.28,2.32,4.1,4.75l-45.47,836.18C424.08,927.64,421.94,929.48,419.51,929.31z"/>
<path class="st25" d="M683.22,235.16c-54.03,19.41-102.93-30.97-156.96-11.56c2.6-35.25,5.19-70.5,7.79-105.75
	c54.03-19.41,102.93,30.97,156.96,11.56C688.41,164.66,685.82,199.91,683.22,235.16z"/>
<path class="st26" d="M534.07,117.84l-6.32,85.83c32.8,8.23,65.04,24.03,99.32,11.73l6.32-85.83
	C600.58,121.33,568.34,105.53,534.07,117.84z"/>
<path class="st25" d="M617.79,204.64c-54.03,19.41-102.93-30.97-156.96-11.56c2.6-35.25,5.19-70.5,7.79-105.75
	c54.03-19.41,102.93,30.97,156.96,11.56C622.98,134.13,620.39,169.39,617.79,204.64z"/>
<path class="st15" d="M465.75,423.08c0,0,8.24-22.41-17.26-24.41s0,0,0,0s-25.5,23.5-8,32C440.5,430.66,441.01,434.49,465.75,423.08
	z"/>
<path class="st4" d="M448.39,613.01c0,0-23.23,5.53-22.2-20.03s0,0,0,0s26.36-22.53,32.72-4.15
	C458.91,588.83,462.66,589.79,448.39,613.01z"/>
</svg>
