<?xml version="1.0" encoding="utf-8"?>
<!-- Generator: Adobe Illustrator 24.2.1, SVG Export Plug-In . SVG Version: 6.00 Build 0)  -->
<svg version="1.1" id="Слой_1" xmlns="http://www.w3.org/2000/svg" xmlns:xlink="http://www.w3.org/1999/xlink" x="0px" y="0px"
	 viewBox="0 0 864.61 999.02" style="enable-background:new 0 0 864.61 999.02;" xml:space="preserve">
<style type="text/css">
	.st0{fill:#8CA12E;}
	.st1{fill-rule:evenodd;clip-rule:evenodd;fill:#484A73;}
	.st2{fill:#FFFFFF;}
	.st3{fill:#A4504A;}
	.st4{fill:#2F3C5A;}
	.st5{fill:#484A73;}
	.st6{fill:#E3AB84;}
	.st7{fill-rule:evenodd;clip-rule:evenodd;fill:#EB5A3F;}
	.st8{fill-rule:evenodd;clip-rule:evenodd;fill:#1C2036;}
	.st9{fill-rule:evenodd;clip-rule:evenodd;fill:#E3AB84;}
	.st10{fill-rule:evenodd;clip-rule:evenodd;fill:#D7816C;}
	
		.st11{fill-rule:evenodd;clip-rule:evenodd;fill:none;stroke:#A53B43;stroke-width:0.7087;stroke-linecap:round;stroke-linejoin:round;stroke-miterlimit:2.6131;}
	.st12{fill-rule:evenodd;clip-rule:evenodd;fill:#FFFFFF;}
	.st13{fill-rule:evenodd;clip-rule:evenodd;fill:none;stroke:#D7816C;stroke-miterlimit:10;}
	.st14{fill:#1C2036;}
	.st15{opacity:0.3;fill:#A53B43;}
	.st16{fill:#D8412C;}
	.st17{fill:#EB5A3F;}
	.st18{fill-rule:evenodd;clip-rule:evenodd;fill:#F3E9D6;}
	.st19{opacity:0.5;fill-rule:evenodd;clip-rule:evenodd;fill:#FFFFFF;}
	.st20{fill-rule:evenodd;clip-rule:evenodd;fill:none;stroke:#1C2036;stroke-miterlimit:10;}
	.st21{fill-rule:evenodd;clip-rule:evenodd;fill:none;stroke:#E5EDC0;stroke-miterlimit:10;}
	.st22{fill:#D7816C;}
</style>
<g>
	<path class="st0" d="M601.7,942.68c24.19,0,46.71-1.51,65.66-4.11c14.82,2.57,33.7,4.11,54.28,4.11c47.62,0,86.23-8.25,86.23-18.44
		s-38.61-18.44-86.23-18.44c-3.03,0-6.02,0.03-8.97,0.1c-19.13-9.03-61.6-15.31-110.97-15.31c-67.27,0-121.8,11.66-121.8,26.04
		S534.43,942.68,601.7,942.68z"/>
	<path class="st1" d="M770.82,891.37c-4.04-7.06-6.96-12.3-6.96-12.3s-1.8-3.34-3.73-4.4c0,0-1.18-4.52-2.79-4.52
		c-1.62,0-9.39,0-10.91,0s-6.96,1.67-6.96,7.1c0,0-3.45,3.61-4.04,4.48c-0.59,0.88-1.1,1.78-1.1,4.78c0,3,0,14.58,0,16.74
		c0,2.16-0.49,10.69,11.57,10.69c0.35,0,0.69,0,1.04,0c1.14,0,2.24,0,3.29,0c9.49,0,15.39,0,18.66,0c3.74,0,6.62-4.03,6.62-7.84
		C775.5,902.29,774.86,898.43,770.82,891.37z"/>
	<g>
		<path class="st2" d="M866.1,240.33c-28.5,10.92-64.42,26.1-102.44,45.79c-80.68,41.8-187.68,112.93-239.14,214.57
			c-13.67,27.02-22.84,54.93-27.48,83.65c-1.83,0.11-3.67,0.22-5.53,0.3c4.67-29.69,14.08-58.52,28.21-86.4
			c52.1-102.93,160.13-174.8,241.56-216.94c38.89-20.14,75.61-35.6,104.52-46.62C865.94,236.55,866.04,238.44,866.1,240.33z"/>
		<path class="st2" d="M859.09,317.13c-0.4,1.94-0.86,3.91-1.35,5.88c-22.95,5.8-57.41,17.85-90.96,42.36
			c-41.85,30.55-89.02,85.97-103.09,184.1c-1.91,0.76-3.86,1.54-5.8,2.29c13.81-101.99,62.64-159.4,105.9-190.89
			C799.22,335.03,835.68,322.76,859.09,317.13z"/>
		<path class="st2" d="M421.45,584.9c-1.83-0.05-3.67-0.13-5.5-0.22c-0.65-15.02-3.4-36.57-12.22-60.67
			c-15.42-42.07-53.02-100.83-144.62-141.87C167.4,341.02,111.13,284.28,96.35,218c-9.28-41.53-1.62-84.38,22.09-125.93
			c1.73,0.57,3.45,1.19,5.2,1.83c-23.46,40.67-31.07,82.49-22.03,122.94c14.4,64.53,69.63,120,159.72,160.37
			c93.46,41.91,131.84,102.09,147.56,145.24C418.03,547.5,420.86,569.59,421.45,584.9z"/>
		<path class="st2" d="M78.06,496.45c-1.65-1.19-3.26-2.37-4.88-3.64c6.2-41.91,3.07-106.81-43.6-184.21
			C-9.39,243.94-7.8,169.92,34.22,94.47c3.56-6.36,7.25-12.51,11.06-18.39c2.02,0.11,4.07,0.24,6.15,0.43
			c-4.31,6.58-8.55,13.48-12.57,20.71C-2.67,171.89-4.24,242.05,34.19,305.8C82.73,386.3,84.97,453.68,78.06,496.45z"/>
		<path class="st2" d="M344.81,578.81c-1.97-0.24-3.94-0.49-5.91-0.73c-12.67-37.27-38.78-89.1-89.47-112.53
			c-15.64-7.23-29.93-7.25-42.47-0.03c-22,12.7-35.78,45.36-44.17,75.67c-1.78-0.59-3.53-1.21-5.26-1.89
			c8.68-31.12,23.16-64.85,46.73-78.44c14.13-8.14,30.09-8.22,47.43-0.19C305.23,485.4,332.11,540.43,344.81,578.81z"/>
		<path class="st2" d="M761.15,43.72c-8.2,14.37-16.45,30.71-25.24,48.13c-40.85,81.03-91.71,181.91-203.54,207.18
			c-14.99,3.4-29.42,5.1-43.17,5.1c-31.52,0-59.68-8.9-84.03-26.64c-32.84-23.92-54.2-60.86-67.95-95.92
			c1.91-0.05,3.75-0.19,5.58-0.38c13.46,33.76,34.14,69.03,65.56,91.93c33.65,24.51,74.99,31.47,122.83,20.66
			c109.35-24.73,159.59-124.31,199.93-204.35c8.9-17.64,17.26-34.19,25.62-48.78C758.21,41.64,759.69,42.64,761.15,43.72z"/>
		<path class="st2" d="M729.49,24.79c-26.08,47.24-78.88,125.42-159.07,164.33c-12.62,6.12-24.92,9.17-36.86,9.17
			c-10.92,0-21.49-2.56-31.71-7.69c-28.37-14.21-49.97-46.09-65.8-79.66c1.32-1.59,2.64-3.18,3.96-4.83
			c15.53,33.68,36.7,65.85,64.26,79.66c19.77,9.92,41.23,9.41,63.77-1.51c78.82-38.24,130.84-115.17,156.59-161.8
			C726.25,23.2,727.87,23.98,729.49,24.79z"/>
		<path class="st2" d="M630.17,1.35c-4.85,34.06-19.23,77.23-60.3,87.51c-5.31,1.32-10.41,1.91-15.26,1.91
			c-27.29,0-47.27-19.39-60.81-40.04c1.4-1.11,2.83-2.21,4.23-3.26c14.97,23,38.1,44.22,70.54,36.13
			c37.29-9.3,50.99-49.67,55.9-82.14C626.37,1.41,628.28,1.35,630.17,1.35z"/>
	</g>
	<rect x="317.96" y="129.73" class="st3" width="318.81" height="734.84"/>
	<rect x="286.55" y="99.59" class="st4" width="429.95" height="764.98"/>
	<rect x="317.96" y="129.73" class="st2" width="318.81" height="734.84"/>
	<polygon class="st5" points="684.23,864.57 365.42,891.71 365.42,106.59 684.23,129.73 	"/>
	<path class="st6" d="M627,444.84c0,0-35.25,54-59.88,50.69c-11.78-1.58-7-25.12,43.46-93.79L627,444.84z"/>
	<path class="st7" d="M633.41,378.12c0,0-9.57,3.26-12.78,6.05c-3.21,2.78-38.98,57.29-38.98,57.29l27.88,32.39l31.97-24.91
		C641.5,448.92,650.36,404.53,633.41,378.12z"/>
	<path class="st8" d="M764.21,878.69c-3.42-73.85-11.18-341.27-11.53-345.55c-0.43-5.24-57.07-13.59-85.22-9.65
		c-28.16,3.94-36.32,9.65-36.32,9.65s-18.51,261.79-23.68,341.73l27.26,2.59c9.87-63.1,50.78-256.96,56.05-268.54
		c2.5-5.5,2.49,2.96,4,9.5c1.51,6.54,30.23,199.54,39.74,261.17L764.21,878.69z"/>
	<path class="st6" d="M319.67,655.09l-6.78-13.44l0.17,2.62c9.59,18.44,3.34,19.01,3.34,19.01s-10.79-17.32-10.2-17.81
		c0.6-0.49-0.61-17.29-0.61-17.29l0.16-8.93l3.88,0.87l2.03-3c0,0,15.98,29.17,16.79,30.16c1.47,1.79,1.68,25.58,1.68,25.58
		S324.07,687.85,319.67,655.09z"/>
	<path class="st9" d="M691.64,338.67L691.64,338.67c-8.22,0-14.95,6.94-14.95,15.42v20.4c0,8.48,6.73,15.42,14.95,15.42l0,0
		c8.23,0,14.96-6.94,14.96-15.42v-20.4C706.59,345.61,699.86,338.67,691.64,338.67z"/>
	<path class="st10" d="M691.64,313.67L691.64,313.67c-8.22,0-14.95,6.94-14.95,15.42v20.4c0,8.48,6.73,15.42,14.95,15.42l0,0
		c8.23,0,14.96-6.94,14.96-15.42v-20.4C706.59,320.61,699.86,313.67,691.64,313.67z"/>
	<path class="st7" d="M691.64,375.56c12.42,0,14.96-9.54,14.96-9.54l38.81,10.85c8.95,24.66,6.75,64.99,6.75,64.99
		c-6.47,41.84-4.81,45.69,0.48,87.29c0.54,4.23-0.54,9.1-0.54,9.1c-12.67,22.04-110.92,19.45-123.12-1.78c0,0-1.08-4.87-0.54-9.1
		c5.29-41.6,9.17-43.67,2.69-85.51c0,0,15.53-36.87,2.29-63.75l43.27-12.1C676.69,366.02,679.22,375.56,691.64,375.56z"/>
	<path class="st6" d="M593.85,525.79l18.37-2.73l-3.13-0.81c-25.32,4.08-23.56-3.47-23.56-3.47s24.48-5.91,24.82-5.03
		c0.34,0.89,20.48,6,20.48,6l10.39,3.65l-2.52,4.2l2.72,3.54c0,0-40.36,7.39-41.83,7.95c-2.67,1.02-30.61-7.96-30.61-7.96
		S553.79,518.23,593.85,525.79z"/>
	<path class="st6" d="M753.81,422.73c0,0-6.06,104.04-18.1,101.02c-12.03-3.01-24.17-17.36-22.8-106.28L753.81,422.73z"/>
	<path class="st6" d="M736.9,523.35c0,0-107.55,20.37-118.68,4.21c0,0-8.57-1.03,3.59-6.11c11.57-4.83,47.09-24.06,113.06-27
		L736.9,523.35z"/>
	<path class="st7" d="M745.52,376.99c0,0,6.48,7.76,7.78,11.81c1.3,4.05,1.57,74.15,1.57,74.15l-42.65,2.76l-3.43-51.23
		C708.78,414.49,720.52,405.96,745.52,376.99z"/>
	<path class="st11" d="M631.13,441.86c0,0,11.92-32.3-2.28-54.94 M749.75,506.55c0,0-1.26,13.3-6.37,17.3 M634.46,472.57
		c0,0,2.93,14.45,12.92,23.11 M612.87,394.75l-0.89,35.68 M707.25,423.41l2.16,38.18 M752.15,441.86c0,0,5.69-33.58-4.43-57.35"/>
	<path class="st10" d="M646.02,288.14c0.33-0.05,0.67-0.08,1.01-0.11c2.18,0.05,5.05,1.7,4.79,4.87l-0.64,7.84
		c5.16-0.17,6.11-5.11,6.02-9.15c2.99,2.75,4.73,6.8,4.37,11.16c-0.62,7.51-7.2,13.09-14.71,12.48c-7.5-0.62-9.05-15.14-8.43-22.65
		C638.43,292.58,639.65,287.61,646.02,288.14z"/>
	<path class="st10" d="M745.27,294.22c0.33,0.06,0.66,0.14,0.99,0.23l0.01,0l0,0c5.99,1.65,6.26,6.96,5.98,13.44
		c-0.33,7.52-2.7,13.66-10.22,13.33c-7.52-0.33-13.36-6.7-13.02-14.22c0.19-4.37,2.42-8.17,5.73-10.53c-0.6,4-0.28,9.01,4.82,9.83
		l0.35-7.86C740.04,295.26,743.1,293.99,745.27,294.22z"/>
	<path class="st9" d="M740.1,313.25l4-40.59c1.61-25.63-18.04-47.92-43.67-49.53l-0.01,0c-25.63-1.61-47.92,18.04-49.53,43.67
		l-2.67,42.39c7.2,24.06,17.37,44.88,34.28,47.4C700.32,359.24,715.84,350.92,740.1,313.25z"/>
	<path class="st12" d="M674.06,327.48c-0.47,6.24,7.13,12.22,13.37,12.69c6.24,0.47,14.66-5.26,15.12-11.5l-0.02,0
		c0.08-1.07-0.73-2.02-1.8-2.1l-24.56-0.9c-1.07-0.08-2.02,0.73-2.1,1.8L674.06,327.48z"/>
	<path class="st10" d="M715.64,319.08c-5.2,2.16-8.38,6.35-7.1,9.37c1.29,3.01,6.54,3.71,11.74,1.55c5.2-2.16,8.38-6.35,7.1-9.37
		C726.09,317.62,720.84,316.92,715.64,319.08z"/>
	<path class="st10" d="M663.56,316.44c-4.11-2.61-8.84-2.48-10.57,0.27c-1.73,2.76,0.2,7.12,4.3,9.73c4.1,2.61,8.84,2.49,10.57-0.27
		C669.59,323.41,667.66,319.05,663.56,316.44z"/>
	<path class="st8" d="M662.32,288.46c-0.78,0.36-1.7,0.01-2.06-0.77c-0.36-0.78-0.01-1.7,0.76-2.05c4.19-1.98,9.7-2.03,13.66,0.54
		c0.72,0.47,0.92,1.43,0.46,2.15c-0.47,0.72-1.43,0.92-2.15,0.46C669.8,286.71,665.69,287,662.32,288.46z"/>
	<path class="st8" d="M716.42,290.27c-3.26-1.7-7.34-2.28-10.67-0.44c-0.75,0.41-1.7,0.14-2.11-0.61c-0.41-0.75-0.14-1.7,0.61-2.11
		c4.13-2.28,9.62-1.83,13.66,0.43c0.75,0.41,1.03,1.36,0.62,2.11C718.11,290.4,717.16,290.67,716.42,290.27z"/>
	<path class="st13" d="M690.35,317.19c0,0-0.23,2.62-4.23,1.55c-4-1.07,1.42-11.85,3.52-11.25"/>
	<path class="st8" d="M679.55,257.69c-5.02-0.32-23.08,0.54-23.71,10.56c-0.63,10.03,0.4,17.07-6,16.67c0,0,0.61,4.27,0.33,8.67
		c-0.28,4.4,2.96,9.72-1.19,9.46c0.6-9.46-2.05-13.36-2.05-13.36s-5.63-18-4.93-29.06c0.7-11.06,11.17-20.39,26.33-29.68
		c19.63-12.02,45.81-10.37,63.77,4.01c13.88,11.12,22.55,17.23,21.86,28.29c-0.7,11.07-7.99,32.67-7.99,32.67s-3.12,3.54-3.71,13
		c-4.15-0.26-4.3-4.74-4.02-9.14c0.28-4.4,0.5-7.87,0.5-7.87c-6.4-0.4-7.8-8.47-7.16-18.5c0.63-10.03-8.93-13.02-13.95-13.33
		C704.92,259.29,692.23,258.49,679.55,257.69z"/>
	<g>
		<path class="st8" d="M730.8,255.82c0,0,10.72-7.39,10.73-15.83c0.02-15.49-31.67-41.11-51.26-30.08
			c-46.59-17.45-69.68,14.02-29.1,46.34c0.19,0.15,2.48-3.15,2.67-3c3.1-2.91,10.98,3.02,13.93,2.83c12.69-0.8,25.37-1.6,38.06-2.4
			c3.31-0.21,8.71,0.49,12.19,3.85C729.79,256.5,730.8,255.82,730.8,255.82z"/>
		<path class="st8" d="M739.21,243.91c-0.19,0.3-0.11,0.7,0.17,0.9c0.28,0.2,0.66,0.12,0.85-0.17c0.02-0.03,7.25-11.1-3.06-24.37
			c-0.21-0.28-0.6-0.32-0.86-0.09c-0.26,0.23-0.29,0.64-0.08,0.91C745.95,233.61,739.23,243.89,739.21,243.91z"/>
		<path class="st8" d="M727.89,219.61c0.22,0.27,0.61,0.31,0.86,0.08c0.26-0.23,0.29-0.64,0.07-0.91
			c-0.04-0.04-12.55-15.96-25-15.37c-12.92,0.61-8.9,14.54-8.89,14.58c0.09,0.34,0.44,0.54,0.76,0.45c0.32-0.1,0.51-0.46,0.41-0.81
			c-0.01-0.03-3.58-12.39,7.78-12.93C715.72,204.14,727.85,219.57,727.89,219.61z"/>
	</g>
	<g>
		<path class="st8" d="M708.27,309.84c2.96,0.68,5.91-1.17,6.59-4.13c0.68-2.96-1.17-5.91-4.13-6.59c-2.96-0.68-5.91,1.17-6.59,4.13
			C703.46,306.21,705.31,309.16,708.27,309.84z"/>
		<path class="st8" d="M666.06,307.21c2.96,0.68,5.91-1.17,6.59-4.13c0.68-2.96-1.17-5.91-4.13-6.59c-2.96-0.68-5.91,1.17-6.59,4.13
			C661.25,303.59,663.1,306.53,666.06,307.21z"/>
	</g>
	<path class="st6" d="M229.21,491.42c0,0,14.73,74.61,25.62,69.84s24.87,3.15,9.36-80.64L229.21,491.42z"/>
	<path class="st6" d="M86.17,565.59c0,0,11.07,95.48,21.96,90.71s14.04-21.71,1.73-103.36L86.17,565.59z"/>
	<circle class="st14" cx="444.84" cy="516.25" r="22.67"/>
	<circle class="st4" cx="444.84" cy="512.25" r="22.67"/>
	<path class="st6" d="M247.89,555.77c0,0,49.19,81.99,67.52,77.8c0,0,6.71,4.82,1.43-6.64c-5.03-10.91-13.91-48.91-52-99.33
		L247.89,555.77z"/>
	<path class="st2" d="M254.12,461.83c9.47,4.41,18.68,44.56,18.68,44.56l-36.92,19.22c0,0-18.65-24.2-12.68-36.4
		C229.41,476.51,243.31,456.79,254.12,461.83z"/>
	<path class="st6" d="M126.01,474.5c0,0-46.65,83.19-39.17,92.42c24.68,30.45,30.5-3.03,74.97-75.72L126.01,474.5z"/>
	<path class="st0" d="M264.77,946.68c-24.19,0-46.71-1.51-65.66-4.11c-14.82,2.57-33.7,4.11-54.28,4.11
		c-47.62,0-86.23-8.25-86.23-18.44s38.61-18.44,86.23-18.44c3.03,0,6.02,0.03,8.97,0.1c19.13-9.03,61.6-15.31,110.97-15.31
		c67.27,0,121.8,11.66,121.8,26.04S332.04,946.68,264.77,946.68z"/>
	<path class="st6" d="M186.56,871.3c2.64,25.22,0.43,20.19,28.85,32.11s8.14,12.18,5.1,11.44c-9.67-2.35-18.48-9.05-39.2-6.81
		c-20.72,2.24-7.7-19.72-7.7-19.72l1.25-23.09L186.56,871.3z"/>
	<path class="st5" d="M215.41,903.41c28.43,11.92,8.14,12.18,5.1,11.44c-9.67-2.35-18.48-9.05-39.2-6.81
		c-20.72,2.24-7.7-19.72-7.7-19.72s15.98,10.39,24.53,8.07L215.41,903.41z"/>
	<path class="st6" d="M241.16,845.46c10.7,22.99,6.97,18.95,37.73,20.98s11.66,8.87,8.54,9.16c-9.9,0.93-20.42-2.55-39.28,6.31
		c-18.86,8.86-13.7-16.14-13.7-16.14l-6.33-22.24L241.16,845.46z"/>
	<path class="st5" d="M278.89,866.44c30.76,2.03,11.66,8.87,8.54,9.16c-9.9,0.93-20.42-2.55-39.28,6.31
		c-18.86,8.86-13.7-16.14-13.7-16.14s18.49,4.63,25.82-0.35L278.89,866.44z"/>
	<path class="st14" d="M443.38,498.92l16.87,3.18l-2.92,0.64c-23.25-4.68-21.9,2.35-21.9,2.35s22.4,6.35,22.75,5.55
		c0.34-0.81,20.32-7.22,20.32-7.22l8.55-0.58l-2.18-3.97l2.64-3.17c0,0-37.03-8.29-38.36-8.87c-2.43-1.04-28.57,6.25-28.57,6.25
		S406.09,504.46,443.38,498.92z"/>
	<path class="st7" d="M192.13,626.95l-19.65,244.19c0,0,10.86,1.4,13.08,1.69c2.23,0.29,2.97-1.78,2.97-1.78
		c7.1-24.19,45.3-140.65,53.81-170.78c8.51-30.13,14.3-50.02,13.46-67.11c-0.39-7.87-7.24-30.68-7.24-30.68s-45.68-1.39-53.02-3.42
		C190.41,597.64,192.13,626.95,192.13,626.95z"/>
	<path class="st15" d="M205.22,667.18c13.39,29.6-2.42,83.57-8.25,103.12c-1.54-29.73-2.31-67.47-4.78-94.2
		C194.93,661.13,199.05,653.54,205.22,667.18z"/>
	<path class="st8" d="M141.8,381.12c0,0,8.77,42.24,8.19,76.7c-0.57,34.46,56.04,2.77,56.04,2.77s46.01,9.97,34.49-22.5
		c-11.52-32.48,1.09-73.28,1.09-73.28l-52.44-7.37L141.8,381.12z"/>
	<path class="st9" d="M194.04,381.11L194.04,381.11c8.68,0,15.79,9.32,15.79,20.71v39.65c0,11.39-7.1,20.71-15.79,20.71l0,0
		c-8.68,0-15.79-9.32-15.79-20.71v-39.65C178.25,390.43,185.36,381.11,194.04,381.11z"/>
	<path class="st10" d="M194.04,381.11L194.04,381.11c8.68,0,15.79,9.32,15.79,20.71v32.79c-3.53,2.05-7.4,3.2-11.55,3.2
		c-7.42,0-14.35-4.76-20.03-11.99v-24C178.25,390.43,185.36,381.11,194.04,381.11z"/>
	<g>
		<path class="st10" d="M234.57,355.29c0.33-0.01,0.65,0,0.98,0.01l0.01,0l0,0c6,0.31,11.21,4.72,12.29,10.88
			c1.26,7.17-3.53,14-10.7,15.27c-7.17,1.26-14.01-3.53-15.27-10.7c-0.73-4.17,0.58-8.22,3.21-11.13c0.27,3.9,1.62,8.56,6.6,8.27
			l-1.32-7.49C229.86,357.38,232.48,355.53,234.57,355.29z"/>
		<path class="st10" d="M145.51,369.22c-0.32,0.09-0.63,0.2-0.93,0.31l-0.01,0l0,0c-5.62,2.12-9.23,7.91-8.39,14.12
			c0.99,7.21,7.64,12.26,14.85,11.27c7.21-0.99,12.26-7.64,11.27-14.85c-0.57-4.19-3.06-7.65-6.46-9.62
			c0.93,3.79,1.07,8.65-3.77,9.89l-1.03-7.53C150.63,369.76,147.58,368.81,145.51,369.22z"/>
	</g>
	<path class="st9" d="M198.26,425.92c-21.49,2.58-36.68-21.01-50.92-44.53l-5.14-31.43c-4.01-24.5,12.76-47.82,37.26-51.82h0
		c24.49-4,47.82,12.76,51.82,37.26l5.03,30.76C230.12,391.42,223.26,422.92,198.26,425.92z"/>
	<path class="st10" d="M222.4,377.75c-3.17-0.93-6.96,1.43-8.45,5.27c-1.49,3.85-2.86,8.71,0.31,9.65
		c3.17,0.93,9.68-2.42,11.18-6.27C226.93,382.56,225.57,378.68,222.4,377.75z"/>
	<path class="st10" d="M171.14,386.67c-4.39-1.2-8.6,0.92-9.41,4.73c-0.81,3.81,2.09,7.89,6.48,9.09c4.39,1.21,10,0.5,10.81-3.32
		C179.82,393.35,175.53,387.87,171.14,386.67z"/>
	<g>
		<path class="st10" d="M174.98,353.81c1.01,0.27,1.6,1.31,1.33,2.32c-0.27,1.01-1.31,1.6-2.32,1.33c-0.02-0.01-6.08-1.75-10.9,2.51
			c-0.79,0.69-1.99,0.62-2.68-0.17c-0.69-0.79-0.62-1.99,0.17-2.68C166.94,351.5,174.95,353.8,174.98,353.81z"/>
		<path class="st10" d="M219.16,347.44c0.98,0.35,1.49,1.44,1.14,2.42c-0.35,0.98-1.44,1.49-2.42,1.14
			c-0.02-0.01-5.92-2.24-11.06,1.61c-0.84,0.63-2.03,0.46-2.66-0.38c-0.62-0.84-0.45-2.03,0.39-2.66
			C211.34,344.49,219.14,347.43,219.16,347.44z"/>
	</g>
	<path class="st16" d="M227.5,656.92c0,0,24.25,67.42,23.25,88.42s-4.33,106-4.33,106l-15.58,7.58c0,0-29.33-75.33-20.33-106.33
		c0,0-95.74-76.41-71.37-138.21S227.5,656.92,227.5,656.92z"/>
	<path class="st17" d="M210.5,626.59c0,0,43.25,92.75,42.25,113.75s-6.33,111.08-6.33,111.08l-15.67,7.5
		c0,0-27.25-80.33-18.25-111.33c0,0-95.74-76.41-71.37-138.21S210.5,626.59,210.5,626.59z"/>
	<path class="st13" d="M197.23,385.71c-0.02,0.96-4.91,2.01-6.44,0.8c-1.02-0.81-0.53-4.52,0.02-7.03"/>
	<path class="st8" d="M136.91,363.13l3.07,9.34c0,0,5.86-0.23,6.71,4.94c0,0,3.18-5.98,1.26-12.5c0,0,8.88-14.59,6.04-28.81
		c-2.84-14.22-7.69-23.45-7.69-23.45S128.72,332.9,136.91,363.13z"/>
	<path class="st18" d="M240.5,346.2l0.06,9.83c0,0-5.64,1.65-4.79,6.81c0,0-4.92-4.66-5.18-11.44c0,0-13.07-11.01-14.9-25.39
		c-1.84-14.38,2.59-21.76,2.59-21.76S238.63,314.92,240.5,346.2z"/>
	<g>
		<path class="st8" d="M213.86,374.39c2.93-0.48,4.92-3.24,4.44-6.17c-0.07-0.4-0.18-0.78-0.32-1.14l0.57-0.31
			c0.59-0.34,1.18-0.81,1.67-1.48c0.22-0.3,0.16-0.72-0.13-0.94c-0.3-0.22-0.72-0.16-0.94,0.13c-0.49,0.65-1.08,1.06-1.66,1.32
			l-0.01-0.01c0.55-0.46,1.07-1.1,1.37-1.99c0.12-0.35-0.07-0.73-0.42-0.85c-0.35-0.12-0.73,0.07-0.85,0.43
			c-0.24,0.74-0.71,1.23-1.16,1.56l-0.06-0.05c0.34-0.39,0.65-0.92,0.73-1.61c0.04-0.37-0.22-0.7-0.59-0.75
			c-0.37-0.04-0.7,0.22-0.75,0.59c-0.06,0.5-0.32,0.84-0.56,1.06c-0.92-0.41-1.97-0.57-3.05-0.39c-2.93,0.48-4.92,3.24-4.44,6.17
			C208.17,372.89,210.93,374.87,213.86,374.39z"/>
		<path class="st8" d="M171.14,381.38c-2.93,0.48-5.69-1.51-6.17-4.43c-0.07-0.4-0.09-0.8-0.06-1.18l-0.64-0.12
			c-0.67-0.13-1.37-0.4-2.06-0.87c-0.31-0.21-0.38-0.63-0.17-0.93c0.21-0.31,0.63-0.38,0.94-0.17c0.67,0.46,1.36,0.66,2,0.72
			l0.01-0.01c-0.67-0.26-1.37-0.7-1.93-1.45c-0.22-0.3-0.16-0.72,0.13-0.94c0.29-0.22,0.72-0.16,0.94,0.13
			c0.47,0.62,1.06,0.94,1.6,1.11l0.04-0.06c-0.44-0.26-0.91-0.66-1.21-1.29c-0.16-0.34-0.01-0.74,0.32-0.9s0.74-0.02,0.9,0.32
			c0.21,0.45,0.57,0.7,0.87,0.82c0.74-0.69,1.69-1.17,2.76-1.35c2.93-0.48,5.69,1.51,6.17,4.43
			C176.06,378.14,174.08,380.9,171.14,381.38z"/>
	</g>
	<path class="st12" d="M207.65,395.23c0.84,5.17-5.32,11.29-10.49,12.13c-5.17,0.84-13.57-3.59-14.42-8.76
		c-0.15-0.95,4.02-0.92,4.97-1.07l15.27-2.5C203.93,394.88,207.49,394.28,207.65,395.23z"/>
	<path class="st12" d="M177.53,445.08c0,0,3.58,9.21,16.76,9.21c13.17,0,15.37-11.55,15.37-11.55l44.9,19.73
		c-7.25,10.76-9.2,42.36-9.2,42.36c1.4,10.29-9.08,50.19-8.61,58.14c0.47,7.95,14.53,46.3,14.53,46.3
		c-8.19,8.42-41.77,20.46-56.19,20.46c-14.42,0-45.77-11.93-53.96-20.35c0,0,15.2-41.68,15.67-49.64
		c0.47-7.95-17.28-40.31-15.88-50.6c0,0,0.79-32.85-6.46-43.6L177.53,445.08z"/>
	<path class="st8" d="M144.73,318.4c0,0,20.74-79.3,83.7-17.98c13.22,12.87,27.08,26.33,25.84,33.71
		C249.61,361.9,153.17,353.9,144.73,318.4z"/>
	<g>
		<g>
			<path class="st14" d="M142.25,320.14c0.6,3.28,1.27,6.55,1.94,9.81c1.74,8.46,3.62,16.89,5.62,25.29
				c2.77,11.63,5.77,23.21,9.07,34.71c3.63,12.65,7.6,25.22,12.15,37.57c4.29,11.68,9.07,23.23,14.89,34.23
				c0.67,1.26,1.35,2.52,2.05,3.77c0.39,0.7,1.47,0.07,1.08-0.63c-6.05-10.79-10.95-22.19-15.34-33.74
				c-4.66-12.27-8.72-24.77-12.42-37.36c-3.41-11.61-6.51-23.32-9.36-35.08c-2.16-8.88-4.18-17.79-6.05-26.74
				c-0.57-2.74-1.13-5.49-1.67-8.24c-0.24-1.21-0.32-2.59-0.72-3.76c-0.02-0.05-0.02-0.11-0.03-0.17
				C143.31,319.02,142.11,319.35,142.25,320.14L142.25,320.14z"/>
		</g>
	</g>
	<g>
		<g>
			<path class="st14" d="M235.2,314.89c1.04,2.9,1.96,5.85,2.87,8.8c2.37,7.72,4.49,15.52,6.38,23.38
				c2.67,11.1,4.9,22.31,6.59,33.61c1.94,12.97,3.17,26.07,3.37,39.19c0.21,13.44-0.63,26.95-3.23,40.15
				c-0.32,1.61-0.66,3.21-1.03,4.81c-0.18,0.78,1.02,1.12,1.21,0.33c3.01-13.07,4.24-26.5,4.33-39.89
				c0.09-13.29-0.94-26.58-2.71-39.75c-1.56-11.59-3.69-23.09-6.31-34.49c-1.95-8.49-4.16-16.93-6.66-25.28
				c-0.76-2.53-1.54-5.05-2.36-7.56c-0.37-1.14-0.66-2.39-1.17-3.47c-0.02-0.05-0.03-0.1-0.05-0.15
				C236.14,313.81,234.93,314.13,235.2,314.89L235.2,314.89z"/>
		</g>
	</g>
	<path class="st19" d="M146.3,312.65c0,0,39.84,41.45,101.21,8.61l-11.84-14c0,0-31.76,32.84-89.36,4.84V312.65z"/>
	<path class="st2" d="M138.11,463.48c-10.39,1.07-32.23,36-32.23,36l31.63,38.78c0,0,22.51-25.3,20.86-38.78
		C156.65,485.44,149.96,462.26,138.11,463.48z"/>
	<circle class="st12" cx="712.76" cy="302.67" r="2"/>
	<circle class="st12" cx="670.01" cy="299.67" r="2"/>
	<path class="st20" d="M648.75,208.5c0,0-31.25,13.63,7.08,54.76"/>
	<path class="st21" d="M142.76,521.92c0,0,20.4-17.76-8.3-56.38"/>
	<line class="st21" x1="236.74" y1="562.97" x2="218.76" y2="582.92"/>
	<line class="st21" x1="243.76" y1="520.92" x2="233.76" y2="479.92"/>
	<path class="st8" d="M146.3,313.73c0,0-36.61,29.61,3.23,158.27c0,0,37.68,18.3,15.61-52.76S146.3,313.73,146.3,313.73z"/>
	<path class="st8" d="M228.53,314.76c0,0,39.93,24.95,16,157.49c0,0-35.18,22.74-21.9-50.47
		C235.91,348.57,228.53,314.76,228.53,314.76z"/>
	<path class="st6" d="M103.22,645.91l12.32,0.18c0,0,10.25,26.92,6.06,35.67s-19.85,1.66-19.85,1.66S99.85,676.37,103.22,645.91z"/>
	<path class="st22" d="M101.76,683.42l20.65-3.49c0,0,2.84,27.92-3.05,28.85S101.76,683.42,101.76,683.42z"/>
	<path class="st6" d="M115.54,646.09c0,0,17.74,24.64,15.63,30.55s-16.94-19.11-16.94-19.11L115.54,646.09z"/>
	<path class="st6" d="M443.38,497.92l16.87,3.18l-2.92,0.64c-23.25-4.68-21.9,2.35-21.9,2.35s22.4,6.35,22.75,5.55
		c0.34-0.81,19.14-4.8,19.14-4.8l9.73-3l-2.18-3.97l2.64-3.17c0,0-37.03-8.29-38.36-8.87c-2.43-1.04-28.57,6.25-28.57,6.25
		S406.09,503.46,443.38,497.92z"/>
	<path class="st1" d="M607.46,874.86c0,0-60.95,14.72-46.95,27.39c0,0,10.67,4,59.33-6.67c0,0,25.76,3.07,14.88-18.13L607.46,874.86
		z"/>
	<path class="st6" d="M572.42,495.42c0,0-91.81,19.02-101.75,3.05c0,0-8.15-1.37,3.71-5.69c11.29-4.11,39.16-20.71,101.79-29.2
		L572.42,495.42z"/>
</g>
</svg>
