<?xml version="1.0" encoding="utf-8"?>
<!-- Generator: Adobe Illustrator 24.2.1, SVG Export Plug-In . SVG Version: 6.00 Build 0)  -->
<svg version="1.1" id="Слой_1" xmlns="http://www.w3.org/2000/svg" xmlns:xlink="http://www.w3.org/1999/xlink" x="0px" y="0px"
	 viewBox="0 0 864.61 960.34" style="enable-background:new 0 0 864.61 960.34;" xml:space="preserve">
<style type="text/css">
	.st0{fill:#FFFFFF;}
	.st1{fill:#8FB7E2;}
	.st2{fill:#EB5A3F;}
	.st3{fill-rule:evenodd;clip-rule:evenodd;fill:#2F3C5A;}
	.st4{fill:#B46F5C;}
	.st5{fill:#D7816C;}
	.st6{fill:#E3AB84;}
	.st7{fill-rule:evenodd;clip-rule:evenodd;fill:#FFFFFF;}
	.st8{fill-rule:evenodd;clip-rule:evenodd;fill:#E3AB84;}
	.st9{fill-rule:evenodd;clip-rule:evenodd;fill:#D7816C;}
	.st10{fill-rule:evenodd;clip-rule:evenodd;fill:#1C2036;}
	.st11{fill-rule:evenodd;clip-rule:evenodd;fill:none;stroke:#1C2036;stroke-width:0;stroke-miterlimit:10;}
	.st12{fill:#D86C51;}
	.st13{fill:#2F3C5A;}
	.st14{fill:#484A73;}
	.st15{fill-rule:evenodd;clip-rule:evenodd;fill:#B46F5C;}
	.st16{fill-rule:evenodd;clip-rule:evenodd;fill:#A4504A;}
	.st17{fill:#A4504A;}
	.st18{opacity:0.5;fill-rule:evenodd;clip-rule:evenodd;fill:#FFFFFF;}
	.st19{fill-rule:evenodd;clip-rule:evenodd;fill:none;stroke:#1C2036;stroke-miterlimit:10;}
	.st20{fill:#1C2036;}
	.st21{fill:#F3E9D6;}
	.st22{fill:#70BE8D;}
	.st23{fill:#C2E1CE;}
	.st24{opacity:0.3;fill-rule:evenodd;clip-rule:evenodd;fill:#FFFFFF;}
	.st25{fill:#D7E6F7;}
</style>
<g>
	<g>
		<path class="st0" d="M864.61,265.31c-28.5,10.92-64.42,26.1-102.44,45.79c-80.68,41.8-187.68,112.93-239.14,214.57
			c-13.67,27.02-22.84,54.93-27.48,83.65c-1.83,0.11-3.67,0.22-5.53,0.3c4.67-29.69,14.08-58.52,28.21-86.4
			c52.1-102.93,160.13-174.8,241.56-216.94c38.89-20.14,75.61-35.6,104.52-46.62C864.45,261.54,864.56,263.42,864.61,265.31z"/>
		<path class="st0" d="M857.6,342.11c-0.4,1.94-0.86,3.91-1.35,5.88c-22.95,5.8-57.41,17.85-90.96,42.36
			c-41.85,30.55-89.02,85.97-103.09,184.1c-1.91,0.76-3.86,1.54-5.8,2.29c13.81-101.99,62.64-159.4,105.9-190.89
			C797.74,360.02,834.19,347.75,857.6,342.11z"/>
		<path class="st0" d="M419.97,609.89c-1.83-0.05-3.67-0.13-5.5-0.22c-0.65-15.02-3.4-36.57-12.22-60.67
			c-15.42-42.07-53.02-100.83-144.62-141.87C165.92,366,109.64,309.27,94.86,242.98c-9.28-41.53-1.62-84.38,22.09-125.93
			c1.73,0.57,3.45,1.19,5.2,1.83c-23.46,40.67-31.07,82.49-22.03,122.94c14.4,64.53,69.63,120,159.72,160.37
			c93.46,41.91,131.84,102.09,147.56,145.24C416.54,572.48,419.37,594.57,419.97,609.89z"/>
		<path class="st0" d="M76.58,521.44c-1.65-1.19-3.26-2.37-4.88-3.64c6.2-41.91,3.07-106.81-43.6-184.21
			c-38.97-64.66-37.38-138.69,4.64-214.14c3.56-6.36,7.25-12.51,11.06-18.39c2.02,0.11,4.07,0.24,6.15,0.43
			c-4.31,6.58-8.55,13.48-12.57,20.71C-4.16,196.87-5.72,267.04,32.7,330.79C81.24,411.28,83.48,478.67,76.58,521.44z"/>
		<path class="st0" d="M343.33,603.79c-1.97-0.24-3.94-0.49-5.91-0.73c-12.67-37.27-38.78-89.1-89.47-112.53
			c-15.64-7.23-29.93-7.25-42.47-0.03c-22,12.7-35.78,45.36-44.17,75.67c-1.78-0.59-3.53-1.21-5.26-1.89
			c8.68-31.12,23.16-64.85,46.73-78.44c14.13-8.14,30.09-8.22,47.43-0.19C303.74,510.38,330.63,565.42,343.33,603.79z"/>
		<path class="st0" d="M759.66,68.7c-8.2,14.37-16.45,30.71-25.24,48.13c-40.85,81.03-91.71,181.91-203.54,207.18
			c-14.99,3.4-29.42,5.1-43.17,5.1c-31.52,0-59.68-8.9-84.03-26.64c-32.84-23.92-54.2-60.86-67.95-95.92
			c1.91-0.05,3.75-0.19,5.58-0.38c13.46,33.76,34.14,69.03,65.56,91.93c33.65,24.51,74.99,31.47,122.83,20.66
			c109.35-24.73,159.59-124.31,199.93-204.35c8.9-17.64,17.26-34.19,25.62-48.78C756.72,66.62,758.2,67.62,759.66,68.7z"/>
		<path class="st0" d="M728,49.77c-26.08,47.24-78.88,125.42-159.07,164.33c-12.62,6.12-24.92,9.17-36.86,9.17
			c-10.92,0-21.49-2.56-31.71-7.69c-28.37-14.21-49.97-46.09-65.8-79.66c1.32-1.59,2.64-3.18,3.96-4.83
			c15.53,33.68,36.7,65.85,64.26,79.66c19.77,9.92,41.23,9.41,63.77-1.51c78.82-38.24,130.84-115.17,156.59-161.8
			C724.77,48.18,726.38,48.96,728,49.77z"/>
		<path class="st0" d="M628.68,26.34c-4.85,34.06-19.23,77.23-60.3,87.51c-5.31,1.32-10.41,1.91-15.26,1.91
			c-27.29,0-47.27-19.39-60.81-40.04c1.4-1.11,2.83-2.21,4.23-3.26c14.97,23,38.1,44.22,70.54,36.13
			c37.29-9.3,50.99-49.67,55.9-82.14C624.88,26.39,626.8,26.34,628.68,26.34z"/>
	</g>
	<g>
		<path class="st1" d="M703.27,759.95c0,0-81.52,34.32-68.65,68.65s70.96,60.07,54.79,87.95c-16.17,27.89,26.73,8.58,26.73,8.58
			s27.89-68.65-17.16-77.23c-45.05-8.58,79.37-21.45,53.63-92.24C726.87,684.87,703.27,759.95,703.27,759.95z"/>
		<path class="st1" d="M577.18,787.99c0,0-62.09,26.14-52.29,52.29c9.8,26.14,54.05,45.75,41.73,67
			c-12.32,21.24,20.36,6.54,20.36,6.54s21.24-52.29-13.07-58.83s60.46-16.34,40.85-70.26C595.15,730.8,577.18,787.99,577.18,787.99z
			"/>
		<path class="st1" d="M498.32,266.35c0,0-20.45-135.36-155.65-120.71c0,0,143.01,43.15,112.72,140.08L498.32,266.35z"/>
		<path class="st1" d="M362.22,147.83c0,0-18.48-26.39-37.55-14.41c-19.07,11.98-16.78,42.84-16.78,42.84
			S316.3,129.18,362.22,147.83z"/>
		<path class="st1" d="M358.67,148.83c0,0,5.29-31.78-16.72-36.58c-22.01-4.8-41.98,18.83-41.98,18.83S338.95,103.36,358.67,148.83z
			"/>
		<path class="st1" d="M369.75,149.3c0,0-24.51-20.91-39.97-4.53s-5.5,45.68-5.5,45.68S320.62,142.76,369.75,149.3z"/>
		<path class="st1" d="M763.95,228.56c0,0,64.75-120.61-52.27-189.91c0,0,88.63,120.24,6.29,179.69L763.95,228.56z"/>
		<path class="st1" d="M832.18,358.55c42.9,174.86-14.88,399.43-149.05,432.34s-134.04,2.38-176.93-172.48
			c-6.13-24.98-12.8-51.54-19.35-78.84c-39.3-163.79-74.07-353.68,40.93-381.9C661.95,124.76,789.28,183.69,832.18,358.55z"/>
		<path class="st1" d="M532.64,78.79c13.05,21.73,10.88,47.81-4.83,58.25s-17.71-12.64-30.76-34.37
			c-13.05-21.73-32.21-33.89-16.5-44.33C496.27,47.9,519.59,57.05,532.64,78.79z"/>
		<path class="st1" d="M581.67,34.26c13.05,21.73,10.88,47.81-4.83,58.25s-17.71-12.64-30.76-34.37s-32.21-33.89-16.5-44.33
			S568.62,12.53,581.67,34.26z"/>
		<path class="st1" d="M726.02,52.12c0,0,1.02-32.2-21.43-34.04s-39.11,24.24-39.11,24.24S700.44,9.67,726.02,52.12z"/>
		<path class="st1" d="M722.58,50.79c0,0,23.28-22.27,8.54-39.3C716.38-5.55,686.22,1.4,686.22,1.4S734.04,2.57,722.58,50.79z"/>
		<path class="st1" d="M731.16,57.8c0,0-7.09-31.43-29.28-27.58C679.69,34.08,670.1,63.5,670.1,63.5S695.75,23.13,731.16,57.8z"/>
		<path class="st1" d="M583.05,51.19c0,0,38.48,63.8,19.49,101.89s-15.44,2.97-15.44,2.97S585.23,83.92,583.05,51.19z"/>
		<path class="st1" d="M533.67,102.49c0,0,38.48,63.8,19.49,101.89s-15.44,2.97-15.44,2.97S535.85,135.22,533.67,102.49z"/>
		<path class="st1" d="M767.63,225.07c0,0,91.53,55.06,78.66,106.55c0,0-25.92-64.36-95.11-57.92S767.63,225.07,767.63,225.07z"/>
		<path class="st1" d="M761.99,293.15c0,0,94.55,23.39,89.37,76.2c0,0-29.66-57.41-97.14-40.89
			C686.72,344.98,761.99,293.15,761.99,293.15z"/>
		<path class="st1" d="M784.36,327.44c0,0,90.1,37,77.22,88.49c0,0-20.91-61.14-90.1-54.7
			C702.31,367.66,784.36,327.44,784.36,327.44z"/>
	</g>
	<path class="st1" d="M236.61,947.57c18.72,0,36.15-1.17,50.82-3.18c11.47,1.99,26.09,3.18,42.01,3.18
		c36.86,0,66.74-6.39,66.74-14.27s-29.88-14.27-66.74-14.27c-2.34,0-4.66,0.03-6.94,0.08c-14.81-6.99-47.68-11.85-85.89-11.85
		c-52.06,0-94.27,9.02-94.27,20.16S184.54,947.57,236.61,947.57z"/>
	<path class="st0" d="M455.07,483.57c0,0,21,44,19,41s3-40,3-40l26,31l12-40l15,36l24-49C554.07,462.57,480.07,431.57,455.07,483.57
		z"/>
	<path class="st0" d="M566.56,558.3c0,0-22.1-27.34-20.06-25.52c2.04,1.82-0.65,26.56-0.65,26.56l-26.09-18.4l-9.1,27.25
		l-16.03-22.54l-19.89,34.1C474.73,579.76,545.9,594.45,566.56,558.3z"/>
	<path class="st1" d="M258.49,929.27c0,7.51,78.12-0.76,178.23,9.61c106.5,11.03,186.21-2.1,186.21-9.61
		c0-7.51-81.58-13.6-182.22-13.6C340.07,915.67,258.49,921.76,258.49,929.27z"/>
	<path class="st2" d="M259.75,500.13l17.68,105.44l-15.99,291.72H233.5c0,0-27.3-201.25-19.07-311.72c1.82-24.5,7.89-90,7.89-90
		L259.75,500.13z"/>
	<path class="st3" d="M228.38,927.17h23.17c1.86,0,3.38-1.65,3.38-3.66v-6.23c0-2.01-1.52-3.66-3.38-3.66h-23.17
		c-1.86,0-3.38,1.65-3.38,3.66v6.23C225,925.52,226.52,927.17,228.38,927.17z"/>
	<path class="st3" d="M189.09,921.34c0,0-1.32-0.95-1.32-3.82c0-11.12,17.43-5.7,23.9-9.54c5.46-3.24,14.38-11.42,14.53-21.47
		c0,0,0-5.63,6.49-5.63c6.49,0,7.97,0,10.2,0c2.22,0,5.93,1.71,6.49,5.02c0,0,4.27,0,6.58,0c2.32,0,5.65,0.5,5.65,7.44
		c0,6.94,0,21.91,0,23.67c0,1.76-0.68,3.87-1.82,4.33c0,0-0.45,2.36-0.73,2.61c-0.28,0.25-5.05,1.26-7.19,0.91
		c-2.13-0.35-8-3.49-8-3.49s-1.6-0.48-1.6-2.62c0,0-0.09-1.91-2.39-1.91c-2.29,0-6.84,1.93-7.42,2.29
		c-0.58,0.35-0.87,0.96-0.87,2.21c0,1.25-5.21,3.82-11.79,4.22C213.24,925.96,189.09,921.34,189.09,921.34z"/>
	<path class="st3" d="M189.09,927.17h42.52c0.8,0,1.45-0.71,1.45-1.58v-2.68c0-0.87-0.65-1.57-1.45-1.57h-42.52
		c-0.8,0-1.45,0.71-1.45,1.57v2.68C187.64,926.46,188.29,927.17,189.09,927.17z"/>
	<path class="st3" d="M226.46,927.17h33.34c0.8,0,1.45-0.71,1.45-1.58v-2.68c0-0.87-0.65-1.57-1.45-1.57h-33.34
		c-0.8,0-1.45,0.71-1.45,1.57v2.68C225,926.46,225.66,927.17,226.46,927.17z"/>
	<path class="st3" d="M386.38,887.82c0,0-1.28-4.52-3.04-4.52s-10.23,0-11.88,0c-1.66,0-7.58,1.67-7.58,7.1c0,0-3.76,3.61-4.4,4.48
		c-0.64,0.88-1.2,1.78-1.2,4.78c0,3,0,14.58,0,16.74c0,2.16-0.53,10.69,12.6,10.69c13.14,0,20.97,0,25.04,0
		c4.07,0,7.21-4.03,7.21-7.84c0-3.81-0.7-7.68-5.1-14.74c-4.4-7.06-7.59-12.3-7.59-12.3S388.48,888.87,386.38,887.82z"/>
	<path class="st3" d="M371.24,883.31c-1.9,0.13-7.37,1.87-7.37,7.09c0,0-3.76,3.61-4.4,4.48c-0.64,0.88-1.2,1.78-1.2,4.78
		c0,3,0,14.58,0,16.74c0,2.16-0.53,10.69,12.6,10.69h3.29l-1.37-8.53c0,0-5.57-18.3-6.12-25.74
		C366.14,885.42,371.18,883.33,371.24,883.31z"/>
	<path class="st2" d="M259.75,500.13L266,603.89l99.1,288.35l19.06-7.31c0,0-27.57-207.53-49.73-307.36
		c-4.82-21.72-26.87-71.62-26.87-71.62L259.75,500.13z"/>
	<path class="st4" d="M447.29,245.91l10.86-6.88c0,0-5.58-29.54-14.08-35.03c-8.49-5.5-18.56,9.35-18.56,9.35
		S427.66,220.66,447.29,245.91z"/>
	<path class="st5" d="M425.51,213.35l20.28-8.17c0,0-12.72-26.39-18.46-24C421.59,183.58,425.51,213.35,425.51,213.35z"/>
	<path class="st4" d="M458.15,239.03c0,0,2.32-31.6-2.77-35.7c-5.1-4.1-4.64,26.25-4.64,26.25L458.15,239.03z"/>
	<path class="st6" d="M359.21,405.62c0,0,48.9-92.03,37.05-95.71c-11.85-3.68-29.67,2.27-74.72,78.95L359.21,405.62z"/>
	<path class="st6" d="M386.83,342.92c0,0,46.67-99.02,33.81-113.84c0,0,1.15-8.55-6.82,1.95c-7.58,9.99-35.09,39.56-54.47,102.68
		L386.83,342.92z"/>
	<path class="st6" d="M423.12,239.91l-10.86-6.88c0,0,5.58-29.54,14.08-35.03c8.49-5.5,18.56,9.35,18.56,9.35
		S442.74,214.66,423.12,239.91z"/>
	<path class="st5" d="M444.89,207.35l-20.28-8.17c0,0,12.72-26.39,18.46-24C448.82,177.58,444.89,207.35,444.89,207.35z"/>
	<path class="st6" d="M412.26,233.03c0,0-2.32-31.6,2.77-35.7c5.1-4.1,4.64,26.25,4.64,26.25L412.26,233.03z"/>
	<path class="st7" d="M330.84,438.2c0,0,9.57-3.26,12.78-6.05c3.21-2.78,39.88-62.53,39.88-62.53l-35-24.53l-29.55,41.98
		C318.95,387.08,324.55,400.46,330.84,438.2z"/>
	<path class="st7" d="M272.58,380.71c12.42,0,14.96-9.54,14.96-9.54l38.81,10.85c8.95,24.66,6.75,64.99,6.75,64.99
		c-6.47,41.84-4.81,45.69,0.48,87.29c0.54,4.23-0.54,9.1-0.54,9.1c-12.67,22.04-110.92,19.45-123.12-1.78c0,0-1.08-4.87-0.54-9.1
		c5.29-41.6,9.17-43.67,2.69-85.51c0,0,13.3-37.07,0.06-63.94l45.5-11.9C257.63,371.17,260.17,380.71,272.58,380.71z"/>
	<path class="st8" d="M271.59,319.13L271.59,319.13c8.45-0.27,15.65,8.36,15.99,19.18l0.9,28.34c0.34,10.82-6.29,19.89-14.74,20.16
		l0,0c-8.45,0.27-15.65-8.36-15.99-19.18l-0.9-28.34C256.5,328.47,263.14,319.4,271.59,319.13z"/>
	<path class="st9" d="M270.55,295.63L270.55,295.63c8.45-0.27,15.65,8.36,15.99,19.18l0.9,28.34c0.34,10.82-6.29,19.89-14.74,20.16
		l0,0c-8.45,0.27-15.65-8.36-15.99-19.18l-0.9-28.34C255.46,304.97,262.1,295.9,270.55,295.63z"/>
	<g>
		<path class="st9" d="M217.03,297.8c-0.65,6.98,4.47,13.16,11.45,13.82c0.2,0.02,0.39,0.03,0.59,0.04
			c-0.98-4.61-1.37-9.21-1.08-13.54l0.26-3.87C228.78,286.33,218.12,286.13,217.03,297.8z"/>
		<path class="st9" d="M322.19,304.91c-0.29,7-6.2,12.44-13.21,12.15c-0.2-0.01-0.39-0.02-0.59-0.04c1.6-4.44,2.6-8.94,2.89-13.27
			l0.26-3.87C312.09,291.95,322.68,293.2,322.19,304.91z"/>
	</g>
	<path class="st8" d="M274.58,227.89L274.58,227.89c-22.91-1.55-42.96,16.56-44.56,40.23l-2.65,39.15
		c3.55,24.29,22,44.42,38.74,45.86l0,0c11.81,0.71,42.96-16.56,44.56-40.23l2.64-39.15C314.92,250.07,297.48,229.43,274.58,227.89z"
		/>
	<path class="st9" d="M294,309.79c-4.35,2.19-6.75,6.56-5.36,9.75c1.39,3.19,6.05,4.01,10.4,1.81c4.35-2.19,6.75-6.56,5.36-9.76
		C303.01,308.4,298.35,307.59,294,309.79z"/>
	<path class="st9" d="M236.32,305.28c-2.68,1.07-3.2,5.29-1.16,9.43c2.04,4.14,5.87,6.63,8.55,5.56c2.68-1.07,3.2-5.29,1.16-9.43
		C242.83,306.71,239,304.22,236.32,305.28z"/>
	<path class="st5" d="M268.33,315.83c-1.66,0-3.69-0.44-4.48-1.44l0.78-0.62c0.42,0.54,1.71,0.95,3.19,1.04
		c1.28,0.08,2.06-0.13,2.18-0.26c-0.01-0.09-0.05-1.1-1.65-6.92l0.96-0.27c1.84,6.66,1.69,7.25,1.62,7.5
		c-0.11,0.41-0.5,0.68-1.21,0.83C269.34,315.79,268.85,315.83,268.33,315.83z"/>
	<g>
		<path class="st10" d="M256.59,280.11c0.89,0.48,1.22,1.58,0.74,2.46c-0.47,0.88-1.58,1.22-2.46,0.74
			c-0.02-0.01-5.32-2.97-10.77-0.04c-0.89,0.48-2,0.15-2.47-0.74c-0.48-0.89-0.15-2,0.74-2.47
			C249.56,276.19,256.57,280.1,256.59,280.11z"/>
		<path class="st10" d="M299.4,283.81c0.84,0.55,1.08,1.68,0.54,2.52c-0.55,0.84-1.68,1.08-2.52,0.54
			c-0.01-0.01-5.06-3.39-10.73-0.91c-0.92,0.4-2-0.02-2.4-0.94c-0.4-0.92,0.02-2,0.94-2.41C292.71,279.33,299.38,283.8,299.4,283.81
			z"/>
	</g>
	<path class="st10" d="M317.49,295.11c0,0-5.6-0.25-5.94,4.77c0,0-3.59-5.44-2.34-11.86c0,0-9.84-13.18-8.41-27.06
		c1.42-13.88,12.46-16.12,12.46-16.12C338.76,254.18,319.1,271.36,317.49,295.11z"/>
	<path class="st10" d="M223,288.73c0,0,5.59,0.51,5.25,5.53c0,0,4.29-4.91,3.92-11.44c0,0,11.52-11.74,11.97-25.68
		c0.46-13.95-10.18-17.65-10.18-17.65C207.43,245.31,224.61,264.98,223,288.73z"/>
	<path class="st10" d="M304.79,263.49c0,0-1.72,4.23-4.83,3.62c-3.11-0.6-6.48-2.61-4.98-7.24c0,0-12.09-10.67-21.09-8.72
		c-9,1.95-28.81,16.8-48.96,14.45c-20.14-2.35-18.64-17.36-3.9-39.92c11.22-17.18,26.35-23.28,58.73-18.33
		c32.39,4.95,34.97,23.54,33.49,37.49C311.77,258.79,304.79,263.49,304.79,263.49z"/>
	<g>
		<path class="st10" d="M248.57,303.24c2.85,0.19,5.32-1.96,5.51-4.81c0.19-2.85-1.96-5.32-4.81-5.51
			c-2.85-0.19-5.31,1.96-5.51,4.81C243.57,300.58,245.72,303.05,248.57,303.24z"/>
		<path class="st10" d="M290.2,306.05c2.85,0.19,5.31-1.96,5.51-4.81c0.19-2.85-1.96-5.32-4.81-5.51c-2.85-0.19-5.32,1.96-5.51,4.81
			C285.2,303.4,287.35,305.86,290.2,306.05z"/>
	</g>
	<path class="st7" d="M279.97,323.36c-0.34,5.03-7.43,9.32-12.46,8.98c-5.03-0.34-10.74-5.05-10.4-10.08
		c0.06-0.92,0.87-1.63,1.79-1.56l19.51,0.87C279.33,321.63,280.04,322.44,279.97,323.36z"/>
	<circle class="st10" cx="216.63" cy="239.57" r="9"/>
	<circle class="st11" cx="220.13" cy="262.07" r="9"/>
	<circle class="st10" cx="227.63" cy="224.57" r="14"/>
	<circle class="st10" cx="239.63" cy="218.57" r="14"/>
	<circle class="st10" cx="259.63" cy="208.57" r="14"/>
	<circle class="st10" cx="276.63" cy="214.57" r="14"/>
	<circle class="st10" cx="292.63" cy="217.57" r="14"/>
	<circle class="st11" cx="294.63" cy="216.57" r="14"/>
	<circle class="st10" cx="304.63" cy="231.57" r="14"/>
	<circle class="st10" cx="316.63" cy="245.57" r="14"/>
	<circle class="st11" cx="315.13" cy="259.57" r="14"/>
	<path class="st6" d="M665.64,880.73c3.16,25.16,0.84,20.17,29.51,31.51s8.39,12.01,5.33,11.33c-9.71-2.14-18.67-8.67-39.33-6
		c-20.67,2.67-8.1-19.56-8.1-19.56l0.77-23.11L665.64,880.73z"/>
	<path class="st1" d="M613.37,960.34c24.19,0,46.71-1.51,65.66-4.11c14.82,2.57,33.7,4.11,54.28,4.11
		c47.62,0,86.23-8.25,86.23-18.44s-38.61-18.44-86.23-18.44c-3.03,0-6.02,0.03-8.97,0.1c-19.13-9.03-61.6-15.31-110.97-15.31
		c-67.27,0-121.8,11.66-121.8,26.04C491.57,948.68,546.1,960.34,613.37,960.34z"/>
	<path class="st12" d="M695.15,912.24c28.67,11.33,8.39,12.01,5.33,11.33c-9.71-2.14-18.67-8.67-39.33-6
		c-20.67,2.67-8.1-19.56-8.1-19.56s16.19,10.06,24.69,7.56L695.15,912.24z"/>
	<path class="st6" d="M553.92,880.73c-3.16,25.16-0.84,20.17-29.51,31.51c-28.67,11.33-8.39,12.01-5.33,11.33
		c9.71-2.14,18.67-8.67,39.33-6c20.67,2.67,8.1-19.56,8.1-19.56l-0.77-23.11L553.92,880.73z"/>
	<path class="st12" d="M524.41,912.24c-28.67,11.33-8.39,12.01-5.33,11.33c9.71-2.14,18.67-8.67,39.33-6
		c20.67,2.67,8.1-19.56,8.1-19.56s-16.19,10.06-24.69,7.56L524.41,912.24z"/>
	<path class="st13" d="M568.5,555.99l19.2,76.58l-18,257l-24,1c0,0-34.44-188.82-27.78-278.19c1.48-19.82,20.31-60.08,20.31-60.08
		L568.5,555.99z"/>
	<path class="st14" d="M568.5,555.99v76.04l83.64,255.26h17c0,0-17.73-192.96-35.66-273.72c-3.9-17.57-26.31-52.87-26.31-52.87
		L568.5,555.99z"/>
	<path class="st15" d="M583.9,425.96l5.34-39.28c1.53-11.29,9.83-19.56,18.43-18.39l0,0c8.6,1.17,14.39,11.36,12.85,22.65
		l-7.37,40.31C613.15,431.24,579.31,445.69,583.9,425.96z"/>
	<path class="st16" d="M607.67,368.28L607.67,368.28c-8.6-1.17-16.9,7.11-18.43,18.39l-4.42,32.49c3.22,2.51,6.9,4.17,11.01,4.73
		c7.35,1,13.39-0.59,19.99-6.99l4.71-25.97C622.06,379.65,616.27,369.45,607.67,368.28z"/>
	<g>
		<g>
			<path class="st16" d="M570.98,337.24c-0.33-0.05-0.65-0.09-0.97-0.12l-0.01,0l0,0c-5.99-0.5-11.74,3.16-13.65,9.13
				c-2.21,6.93,1.61,14.35,8.55,16.57c6.94,2.21,14.36-1.61,16.57-8.55c1.29-4.03,0.54-8.22-1.68-11.46
				c-0.79,3.83-2.76,8.26-7.66,7.31l2.31-7.24C575.37,339.94,573.03,337.76,570.98,337.24z"/>
			<path class="st16" d="M657.36,363.04c0.3,0.14,0.6,0.28,0.88,0.43l0.01,0.01l0,0c5.28,2.86,8.08,9.08,6.41,15.12
				c-1.95,7.01-9.22,11.12-16.23,9.17c-7.01-1.95-11.12-9.22-9.17-16.23c1.13-4.08,4.06-7.17,7.7-8.66
				c-1.44,3.63-2.22,8.43,2.4,10.31l2.04-7.32C652.21,362.89,655.37,362.35,657.36,363.04z"/>
		</g>
	</g>
	<path class="st15" d="M594.84,413.58c15.74,5.74,41.79-17.35,59.07-38.74l9.33-30.45c7.27-23.73-6.2-49.1-29.94-56.37l0,0
		c-23.73-7.27-49.1,6.2-56.37,29.94l-9.13,29.8C570.53,373.64,576.99,407.07,594.84,413.58z"/>
	<path class="st16" d="M580.02,361.13c3.27-0.5,6.7,2.35,7.66,6.36c0.96,4.01-0.91,7.67-4.18,8.17c-3.27,0.5-6.7-2.35-7.66-6.36
		C574.89,365.28,576.75,361.63,580.02,361.13z"/>
	<path class="st16" d="M629.61,376.87c4.51-0.6,8.4,2.07,8.69,5.96c0.29,3.89-3.13,7.53-7.64,8.13c-4.51,0.6-8.4-2.07-8.69-5.96
		C621.68,381.11,625.1,377.47,629.61,376.87z"/>
	<g>
		<path class="st10" d="M630.24,343.8c-1.03,0.13-1.76,1.08-1.63,2.12c0.13,1.03,1.08,1.77,2.12,1.63c0.02,0,6.26-0.91,10.46,3.95
			c0.69,0.79,1.89,0.88,2.68,0.2c0.79-0.69,0.88-1.88,0.2-2.68C638.51,342.59,630.26,343.79,630.24,343.8z"/>
		<path class="st10" d="M587.32,331.53c-1.02,0.22-1.67,1.22-1.45,2.24c0.22,1.02,1.22,1.67,2.24,1.46c0.02,0,6.16-1.42,10.75,3.09
			c0.75,0.74,1.95,0.73,2.69-0.02c0.73-0.75,0.72-1.95-0.02-2.69C595.47,329.66,587.34,331.53,587.32,331.53z"/>
	</g>
	<path class="st17" d="M608.73,374.87c-1.55,0-3.45-0.62-4.48-1.29c-0.62-0.4-0.9-0.8-0.85-1.23l0.99,0.11c0-0.04,0-0.07-0.01-0.07
		c0.07,0.17,0.71,0.64,1.95,1.04c1.51,0.5,2.96,0.58,3.59,0.2c0.57-0.34,0.99-2.68,0.68-6.5l1-0.08c0.19,2.41,0.3,6.57-1.17,7.44
		C609.98,374.76,609.39,374.87,608.73,374.87z"/>
	<path class="st10" d="M666.7,358.16l-4.3,8.84c0,0-5.78-1.01-7.31,3.99c0,0-2.34-6.36,0.44-12.55c0,0-6.83-15.66-2.11-29.36
		c4.72-13.7,10.78-22.2,10.78-22.2S678.89,329.3,666.7,358.16z"/>
	<path class="st10" d="M566.34,327.43l-1.39,9.73c0,0,5.36,2.4,3.83,7.4c0,0,5.5-3.95,6.67-10.64c0,0,14.43-9.15,18.19-23.15
		c3.76-14,0.37-21.91,0.37-21.91S572.4,296.69,566.34,327.43z"/>
	<path class="st7" d="M592.42,379.45c-1.53,5.01,3.75,11.9,8.76,13.43c5.01,1.53,13.93-1.73,15.47-6.74
		c0.28-0.92-3.86-1.45-4.78-1.73l-14.8-4.53C596.15,379.6,592.7,378.53,592.42,379.45z"/>
	<path class="st10" d="M664.98,312.78c0,0-9.87-81.38-80.52-29.09c-14.83,10.98-30.38,22.44-30.15,29.92
		C555.2,341.76,651.84,346.83,664.98,312.78z"/>
	<path class="st18" d="M664.19,306.88c0,0-45.06,35.71-101.44-5.1l13.62-12.27c0,0,27.05,36.82,87.9,16.84L664.19,306.88z"/>
	<path class="st6" d="M654.05,898.01"/>
	<path class="st19" d="M659.49,371.07"/>
	<path class="st20" d="M661.29,367.22l-0.61-0.79c0.14-0.11,14.16-11.19,15.64-27.88c0.92-10.42-3.16-20.82-12.14-30.94
		c-3.63,3.78-32.59,32.86-64.31,32.87c-0.97,0-1.93-0.03-2.9-0.08c-16.48-0.94-30.96-9.85-43.06-26.49l0.81-0.59
		c11.91,16.38,26.15,25.16,42.31,26.08c34.43,1.94,66.48-32.51,66.8-32.86l0.37-0.41l0.37,0.41c9.42,10.46,13.71,21.26,12.75,32.11
		C675.79,355.77,661.44,367.1,661.29,367.22z"/>
	
		<rect x="637.14" y="405.82" transform="matrix(0.0898 -0.996 0.996 0.0898 193.2711 1024.1321)" class="st21" width="39.66" height="1"/>
	<path class="st10" d="M594.92,356.39c-2.95-0.35-5.05-3.02-4.71-5.96c0.05-0.4,0.14-0.79,0.27-1.16l-0.59-0.29
		c-0.61-0.31-1.21-0.76-1.74-1.4c-0.24-0.29-0.19-0.71,0.09-0.95c0.29-0.24,0.71-0.2,0.95,0.09c0.52,0.63,1.13,1.02,1.72,1.25
		l0.01-0.01c-0.57-0.43-1.12-1.05-1.45-1.93c-0.13-0.35,0.04-0.74,0.39-0.87c0.35-0.13,0.74,0.04,0.87,0.39
		c0.28,0.72,0.76,1.2,1.23,1.5l0.06-0.05c-0.36-0.37-0.69-0.89-0.8-1.58c-0.06-0.37,0.19-0.71,0.56-0.77
		c0.37-0.06,0.71,0.19,0.77,0.56c0.08,0.5,0.36,0.83,0.61,1.03c0.9-0.45,1.95-0.66,3.03-0.53c2.95,0.35,5.05,3.02,4.71,5.97
		C600.54,354.63,597.86,356.73,594.92,356.39z"/>
	<path class="st10" d="M629.34,366.39c2.95-0.35,5.05-3.02,4.71-5.96c-0.05-0.4-0.14-0.79-0.27-1.16l0.59-0.29
		c0.61-0.31,1.21-0.76,1.74-1.4c0.24-0.29,0.19-0.71-0.09-0.95c-0.29-0.24-0.71-0.2-0.95,0.09c-0.52,0.63-1.13,1.02-1.72,1.25
		l-0.01-0.01c0.57-0.43,1.12-1.05,1.45-1.93c0.13-0.35-0.04-0.74-0.39-0.87c-0.35-0.13-0.74,0.04-0.87,0.39
		c-0.28,0.72-0.76,1.2-1.23,1.5l-0.06-0.05c0.36-0.37,0.69-0.89,0.8-1.58c0.06-0.37-0.19-0.71-0.56-0.77
		c-0.37-0.06-0.71,0.19-0.77,0.56c-0.08,0.5-0.36,0.83-0.61,1.03c-0.9-0.45-1.95-0.66-3.03-0.53c-2.95,0.35-5.05,3.02-4.71,5.97
		C623.72,364.63,626.39,366.73,629.34,366.39z"/>
	<path class="st22" d="M641.17,493.96c-0.21-0.17-20.85-17.72,5.12-54.67l0.82,0.57c-25.44,36.2-5.51,53.16-5.3,53.33L641.17,493.96
		z"/>
	<circle class="st10" cx="663.27" cy="269.07" r="33.5"/>
	<path class="st20" d="M667.27,303.07c-18.75,0-34-15.25-34-34s15.25-34,34-34s34,15.25,34,34S686.01,303.07,667.27,303.07z
		 M667.27,236.07c-18.2,0-33,14.8-33,33s14.8,33,33,33s33-14.8,33-33S685.46,236.07,667.27,236.07z"/>
	<path class="st23" d="M607.18,560.7l50.31-103.8c5.5-8.6-8.78-18.34-17.57-19.53l-61.46-13.93c-8.78-1.19-16.65,5.52-20.19,14.38
		c0,0-18.49,33.62-17.07,45.74c0.38,3.2,6,13.33,6,13.33l-8.98,55.4L607.18,560.7z"/>
	<path class="st22" d="M548.11,497.9c-21.06-24.06,16.63-64.27,17.01-64.67l0.72,0.69c-0.38,0.4-37.44,39.94-16.99,63.33
		L548.11,497.9z"/>
	<path class="st4" d="M506.07,395.57c0,0-43.77-75.98-31.93-79.66c11.85-3.68,12.34-11.02,57.39,65.66L506.07,395.57z"/>
	<path class="st4" d="M483.58,348.92c0,0-46.67-99.02-33.81-113.84c0,0-1.15-8.55,6.82,1.95c7.58,9.99,38.24,52.74,57.62,115.87
		L483.58,348.92z"/>
	<path class="st6" d="M223.83,442.62c0,0-43.6,89.84-53.14,82.75c-9.54-7.09-12.42-22.93,21.47-101.12L223.83,442.62z"/>
	<path class="st2" d="M607.18,560.7l50.31-103.8c5.5-8.6-8.78-18.34-17.57-19.53l-61.46-13.93c-8.78-1.19-16.65,5.52-20.19,14.38
		c0,0-17.21,30.73-16.4,42.91c0.5,7.5,5.33,16.17,5.33,16.17l-8.98,55.4L607.18,560.7z"/>
	<path class="st4" d="M665.64,880.73c3.16,25.16,0.84,20.17,29.51,31.51s8.39,12.01,5.33,11.33c-9.71-2.14-18.67-8.67-39.33-6
		c-20.67,2.67-8.1-19.56-8.1-19.56l0.77-23.11L665.64,880.73z"/>
	<path class="st2" d="M695.15,912.24c28.67,11.33,8.39,12.01,5.33,11.33c-9.71-2.14-18.67-8.67-39.33-6
		c-20.67,2.67-8.1-19.56-8.1-19.56s16.19,10.06,24.69,7.56L695.15,912.24z"/>
	<path class="st4" d="M553.92,880.73c-3.16,25.16-0.84,20.17-29.51,31.51c-28.67,11.33-8.39,12.01-5.33,11.33
		c9.71-2.14,18.67-8.67,39.33-6c20.67,2.67,8.1-19.56,8.1-19.56l-0.77-23.11L553.92,880.73z"/>
	<path class="st2" d="M524.41,912.24c-28.67,11.33-8.39,12.01-5.33,11.33c9.71-2.14,18.67-8.67,39.33-6
		c20.67,2.67,8.1-19.56,8.1-19.56s-16.19,10.06-24.69,7.56L524.41,912.24z"/>
	<path class="st13" d="M568.5,555.99l19.2,76.58l-18,257l-24,1c0,0-34.44-188.82-27.78-278.19c1.48-19.82,20.31-60.08,20.31-60.08
		L568.5,555.99z"/>
	<path class="st14" d="M568.5,555.99v76.04l83.64,255.26h17c0,0-17.73-192.96-35.66-273.72c-3.9-17.57-26.31-52.87-26.31-52.87
		L568.5,555.99z"/>
	<path class="st15" d="M583.9,425.96l5.34-39.28c1.53-11.29,9.83-19.56,18.43-18.39l0,0c8.6,1.17,14.39,11.36,12.85,22.65
		l-7.37,40.31C613.15,431.24,579.31,445.69,583.9,425.96z"/>
	<path class="st16" d="M607.67,368.28L607.67,368.28c-8.6-1.17-16.9,7.11-18.43,18.39l-4.42,32.49c3.22,2.51,6.9,4.17,11.01,4.73
		c7.35,1,13.39-0.59,19.99-6.99l4.71-25.97C622.06,379.65,616.27,369.45,607.67,368.28z"/>
	<g>
		<path class="st16" d="M570.98,337.24c-0.33-0.05-0.65-0.09-0.97-0.12l-0.01,0l0,0c-5.99-0.5-11.74,3.16-13.65,9.13
			c-2.21,6.93,1.61,14.35,8.55,16.57c6.94,2.21,14.36-1.61,16.57-8.55c1.29-4.03,0.54-8.22-1.68-11.46
			c-0.79,3.83-2.76,8.26-7.66,7.31l2.31-7.24C575.37,339.94,573.03,337.76,570.98,337.24z"/>
		<path class="st16" d="M657.36,363.04c0.3,0.14,0.6,0.28,0.88,0.43l0.01,0.01l0,0c5.28,2.86,8.08,9.08,6.41,15.12
			c-1.95,7.01-9.22,11.12-16.23,9.17c-7.01-1.95-11.12-9.22-9.17-16.23c1.13-4.08,4.06-7.17,7.7-8.66
			c-1.44,3.63-2.22,8.43,2.4,10.31l2.04-7.32C652.21,362.89,655.37,362.35,657.36,363.04z"/>
	</g>
	<path class="st15" d="M594.84,413.58c15.74,5.74,41.79-17.35,59.07-38.74l9.33-30.45c7.27-23.73-6.2-49.1-29.94-56.37l0,0
		c-23.73-7.27-49.1,6.2-56.37,29.94l-9.13,29.8C570.53,373.64,576.99,407.07,594.84,413.58z"/>
	<path class="st16" d="M580.02,361.13c3.27-0.5,6.7,2.35,7.66,6.36c0.96,4.01-0.91,7.67-4.18,8.17c-3.27,0.5-6.7-2.35-7.66-6.36
		C574.89,365.28,576.75,361.63,580.02,361.13z"/>
	<path class="st16" d="M629.61,376.87c4.51-0.6,8.4,2.07,8.69,5.96c0.29,3.89-3.13,7.53-7.64,8.13c-4.51,0.6-8.4-2.07-8.69-5.96
		C621.68,381.11,625.1,377.47,629.61,376.87z"/>
	<g>
		<path class="st10" d="M630.24,343.8c-1.03,0.13-1.76,1.08-1.63,2.12c0.13,1.03,1.08,1.77,2.12,1.63c0.02,0,6.26-0.91,10.46,3.95
			c0.69,0.79,1.89,0.88,2.68,0.2c0.79-0.69,0.88-1.88,0.2-2.68C638.51,342.59,630.26,343.79,630.24,343.8z"/>
		<path class="st10" d="M587.32,331.53c-1.02,0.22-1.67,1.22-1.45,2.24c0.22,1.02,1.22,1.67,2.24,1.46c0.02,0,6.16-1.42,10.75,3.09
			c0.75,0.74,1.95,0.73,2.69-0.02c0.73-0.75,0.72-1.95-0.02-2.69C595.47,329.66,587.34,331.53,587.32,331.53z"/>
	</g>
	<path class="st17" d="M608.73,374.87c-1.55,0-3.45-0.62-4.48-1.29c-0.62-0.4-0.9-0.8-0.85-1.23l0.99,0.11c0-0.04,0-0.07-0.01-0.07
		c0.07,0.17,0.71,0.64,1.95,1.04c1.51,0.5,2.96,0.58,3.59,0.2c0.57-0.34,0.99-2.68,0.68-6.5l1-0.08c0.19,2.41,0.3,6.57-1.17,7.44
		C609.98,374.76,609.39,374.87,608.73,374.87z"/>
	<path class="st10" d="M666.7,358.16l-4.3,8.84c0,0-5.78-1.01-7.31,3.99c0,0-2.34-6.36,0.44-12.55c0,0-6.83-15.66-2.11-29.36
		c4.72-13.7,10.78-22.2,10.78-22.2S678.89,329.3,666.7,358.16z"/>
	<path class="st10" d="M566.34,327.43l-1.39,9.73c0,0,5.36,2.4,3.83,7.4c0,0,5.5-3.95,6.67-10.64c0,0,14.43-9.15,18.19-23.15
		c3.76-14,0.37-21.91,0.37-21.91S572.4,296.69,566.34,327.43z"/>
	<path class="st7" d="M592.42,379.45c-1.53,5.01,3.75,11.9,8.76,13.43c5.01,1.53,13.93-1.73,15.47-6.74
		c0.28-0.92-3.86-1.45-4.78-1.73l-14.8-4.53C596.15,379.6,592.7,378.53,592.42,379.45z"/>
	<path class="st10" d="M664.98,312.78c0,0-9.87-81.38-80.52-29.09c-14.83,10.98-30.38,22.44-30.15,29.92
		C555.2,341.76,651.84,346.83,664.98,312.78z"/>
	<path class="st24" d="M664.19,306.88c0,0-45.06,35.71-101.44-5.1l13.62-12.27c0,0,27.05,36.82,87.9,16.84L664.19,306.88z"/>
	<path class="st6" d="M654.05,898.01"/>
	<path class="st19" d="M659.49,371.07"/>
	<path class="st20" d="M661.29,367.22l-0.61-0.79c0.14-0.11,14.16-11.19,15.64-27.88c0.92-10.42-3.16-20.82-12.14-30.94
		c-3.63,3.78-32.59,32.86-64.31,32.87c-0.97,0-1.93-0.03-2.9-0.08c-16.48-0.94-30.96-9.85-43.06-26.49l0.81-0.59
		c11.91,16.38,26.15,25.16,42.31,26.08c34.43,1.94,66.48-32.51,66.8-32.86l0.37-0.41l0.37,0.41c9.42,10.46,13.71,21.26,12.75,32.11
		C675.79,355.77,661.44,367.1,661.29,367.22z"/>
	
		<rect x="637.14" y="405.82" transform="matrix(0.0898 -0.996 0.996 0.0898 193.2711 1024.1321)" class="st21" width="39.66" height="1"/>
	<path class="st10" d="M594.92,356.39c-2.95-0.35-5.05-3.02-4.71-5.96c0.05-0.4,0.14-0.79,0.27-1.16l-0.59-0.29
		c-0.61-0.31-1.21-0.76-1.74-1.4c-0.24-0.29-0.19-0.71,0.09-0.95c0.29-0.24,0.71-0.2,0.95,0.09c0.52,0.63,1.13,1.02,1.72,1.25
		l0.01-0.01c-0.57-0.43-1.12-1.05-1.45-1.93c-0.13-0.35,0.04-0.74,0.39-0.87c0.35-0.13,0.74,0.04,0.87,0.39
		c0.28,0.72,0.76,1.2,1.23,1.5l0.06-0.05c-0.36-0.37-0.69-0.89-0.8-1.58c-0.06-0.37,0.19-0.71,0.56-0.77
		c0.37-0.06,0.71,0.19,0.77,0.56c0.08,0.5,0.36,0.83,0.61,1.03c0.9-0.45,1.95-0.66,3.03-0.53c2.95,0.35,5.05,3.02,4.71,5.97
		C600.54,354.63,597.86,356.73,594.92,356.39z"/>
	<path class="st10" d="M629.34,366.39c2.95-0.35,5.05-3.02,4.71-5.96c-0.05-0.4-0.14-0.79-0.27-1.16l0.59-0.29
		c0.61-0.31,1.21-0.76,1.74-1.4c0.24-0.29,0.19-0.71-0.09-0.95c-0.29-0.24-0.71-0.2-0.95,0.09c-0.52,0.63-1.13,1.02-1.72,1.25
		l-0.01-0.01c0.57-0.43,1.12-1.05,1.45-1.93c0.13-0.35-0.04-0.74-0.39-0.87c-0.35-0.13-0.74,0.04-0.87,0.39
		c-0.28,0.72-0.76,1.2-1.23,1.5l-0.06-0.05c0.36-0.37,0.69-0.89,0.8-1.58c0.06-0.37-0.19-0.71-0.56-0.77
		c-0.37-0.06-0.71,0.19-0.77,0.56c-0.08,0.5-0.36,0.83-0.61,1.03c-0.9-0.45-1.95-0.66-3.03-0.53c-2.95,0.35-5.05,3.02-4.71,5.97
		C623.72,364.63,626.39,366.73,629.34,366.39z"/>
	<circle class="st10" cx="663.27" cy="269.07" r="33.5"/>
	<path class="st20" d="M667.27,303.07c-18.75,0-34-15.25-34-34s15.25-34,34-34s34,15.25,34,34S686.01,303.07,667.27,303.07z
		 M667.27,236.07c-18.2,0-33,14.8-33,33s14.8,33,33,33s33-14.8,33-33S685.46,236.07,667.27,236.07z"/>
	<path class="st22" d="M548.11,497.9c-21.06-24.06,16.63-64.27,17.01-64.67l0.72,0.69c-0.38,0.4-37.44,39.94-16.99,63.33
		L548.11,497.9z"/>
	<path class="st4" d="M483.58,348.92c0,0-46.67-99.02-33.81-113.84c0,0-1.15-8.55,6.82,1.95c7.58,9.99,38.24,52.74,57.62,115.87
		L483.58,348.92z"/>
	<path class="st7" d="M211.79,382.71c0,0-8.55,5.4-11.02,8.86c-2.48,3.46-24.56,64.79-24.56,64.79l39.57,28.54l17.53-40.89
		C233.31,444.01,234.43,404.46,211.79,382.71z"/>
	<path class="st25" d="M227.99,501.21c-10-8.67-13.05-23.24-13.08-23.39l0.98-0.2c0.03,0.14,3.01,14.39,12.75,22.83L227.99,501.21z
		 M322.97,499.23l-0.62-0.79c4.88-3.82,6.17-16.82,6.18-16.95l1,0.09C329.47,482.14,328.18,495.15,322.97,499.23z M212.54,447.19
		l-0.94-0.35c0.12-0.32,11.67-32.33-2.24-54.5l0.85-0.53C224.38,414.4,212.66,446.86,212.54,447.19z M196.92,442.09l-1-0.03
		l0.89-35.68l1,0.03L196.92,442.09z M332.1,438.71l-0.99-0.1c0.04-0.34,3.38-34-8.04-56.68l0.89-0.45
		C335.52,404.43,332.14,438.37,332.1,438.71z M345.27,422.94l-4.6-37.97l0.99-0.12l4.6,37.97L345.27,422.94z"/>
	<path class="st2" d="M678.6,537.76l27.73-17.8l-50.47-72.38c-5.79-9.13-16.38-6.08-24.6,0.94l0,0c-8.22,7.02-8.92,28.16-0.81,35.3
		L678.6,537.76z"/>
	<path class="st17" d="M654.82,590.74l-20.08-4.86L624.01,599l28.38,3.31c3.73,0.79,11.53-5.14,9.98-8.01
		C661.27,592.25,654.82,590.74,654.82,590.74z"/>
	<path class="st4" d="M618.8,580.77l5.21,18.23l20.47,2.39l-10.95-39l-5.04,1.38C621.12,565.78,616.78,573.39,618.8,580.77z"/>
	<polygon class="st1" points="638.03,580.22 700.14,540.57 682.58,511.03 621.34,566.89 	"/>
	<path class="st1" d="M682.28,532.68c2.75,7.11,10.74,10.65,17.86,7.9c7.11-2.75,10.65-10.74,7.9-17.86
		c-2.75-7.11-10.74-10.65-17.85-7.9C683.07,517.57,679.53,525.56,682.28,532.68z"/>
	<polygon class="st0" points="435.57,39.57 406.71,73.9 425.51,217.35 444.21,216.39 465.21,73.9 	"/>
	<path class="st6" d="M434.2,53.57c0,47.38,0,94.76,0,142.15c0,6.78,0,13.57,0,20.35c0,2.41,3.75,2.42,3.75,0
		c0-47.38,0-94.76,0-142.15c0-6.78,0-13.57,0-20.35C437.95,51.16,434.2,51.15,434.2,53.57L434.2,53.57z"/>
	<path class="st2" d="M435.74,258.9L435.74,258.9c-4.22,0-7.67-3.45-7.67-7.67v-28.67c0-4.22,3.45-7.67,7.67-7.67h0
		c4.22,0,7.67,3.45,7.67,7.67v28.67C443.41,255.45,439.96,258.9,435.74,258.9z"/>
	<path class="st2" d="M515.41,350.24l-31.17,12.46l51.92,83.33c4.08,12.59,27.21,16.77,35.81,10.39l-1.07,0.69
		c8.59-6.38,7.86-23.09,0.33-30.69L515.41,350.24z"/>
	<path class="st5" d="M447.41,194.9c0,0-33.33,6.67-25.33,25.33c0,0,8,6.67,26.67-0.67L447.41,194.9z"/>
	<circle class="st6" cx="171.57" cy="520.07" r="122"/>
	<path class="st2" d="M171.57,636.32c-64.1,0-116.25-52.15-116.25-116.25s52.15-116.25,116.25-116.25s116.25,52.15,116.25,116.25
		S235.67,636.32,171.57,636.32z M171.57,408.82c-61.34,0-111.25,49.91-111.25,111.25s49.91,111.25,111.25,111.25
		s111.25-49.91,111.25-111.25S232.92,408.82,171.57,408.82z"/>
	<circle class="st2" cx="171.57" cy="520.07" r="45.5"/>
	<circle class="st6" cx="635.57" cy="578.07" r="122"/>
	<path class="st2" d="M635.57,694.32c-64.1,0-116.25-52.15-116.25-116.25s52.15-116.25,116.25-116.25s116.25,52.15,116.25,116.25
		S699.67,694.32,635.57,694.32z M635.57,466.82c-61.34,0-111.25,49.91-111.25,111.25s49.91,111.25,111.25,111.25
		s111.25-49.91,111.25-111.25S696.92,466.82,635.57,466.82z"/>
	<circle class="st2" cx="635.57" cy="578.07" r="45.5"/>
</g>
</svg>
