<?xml version="1.0" encoding="utf-8"?>
<!-- Generator: Adobe Illustrator 24.2.1, SVG Export Plug-In . SVG Version: 6.00 Build 0)  -->
<svg version="1.1" id="Слой_1" xmlns="http://www.w3.org/2000/svg" xmlns:xlink="http://www.w3.org/1999/xlink" x="0px" y="0px"
	 viewBox="0 0 864.61 999.02" style="enable-background:new 0 0 864.61 999.02;" xml:space="preserve">
<style type="text/css">
	.st0{fill:#FFFFFF;}
	.st1{fill:#8FB7E2;}
	.st2{fill:#EB5A3F;}
	.st3{fill-rule:evenodd;clip-rule:evenodd;fill:#2F3C5A;}
	.st4{fill:#B46F5C;}
	.st5{fill:#D7816C;}
	.st6{fill:#E3AB84;}
	.st7{fill-rule:evenodd;clip-rule:evenodd;fill:#FFFFFF;}
	.st8{fill-rule:evenodd;clip-rule:evenodd;fill:#E3AB84;}
	.st9{fill-rule:evenodd;clip-rule:evenodd;fill:#D7816C;}
	.st10{fill-rule:evenodd;clip-rule:evenodd;fill:none;stroke:#A4504A;stroke-miterlimit:10;}
	.st11{fill-rule:evenodd;clip-rule:evenodd;fill:#1C2036;}
	.st12{fill-rule:evenodd;clip-rule:evenodd;fill:none;stroke:#1C2036;stroke-width:0;stroke-miterlimit:10;}
	.st13{fill:#D86C51;}
	.st14{fill:#2F3C5A;}
	.st15{fill:#484A73;}
	.st16{fill-rule:evenodd;clip-rule:evenodd;fill:#B46F5C;}
	.st17{fill-rule:evenodd;clip-rule:evenodd;fill:#A4504A;}
	.st18{opacity:0.5;fill-rule:evenodd;clip-rule:evenodd;fill:#FFFFFF;}
	.st19{fill-rule:evenodd;clip-rule:evenodd;fill:none;stroke:#1C2036;stroke-miterlimit:10;}
	.st20{fill-rule:evenodd;clip-rule:evenodd;fill:none;stroke:#F3E9D6;stroke-miterlimit:10;}
	.st21{fill-rule:evenodd;clip-rule:evenodd;fill:none;stroke:#70BE8D;stroke-miterlimit:10;}
	.st22{fill:#C2E1CE;}
	.st23{opacity:0.3;fill-rule:evenodd;clip-rule:evenodd;fill:#FFFFFF;}
	.st24{fill-rule:evenodd;clip-rule:evenodd;fill:none;stroke:#D7E6F7;stroke-miterlimit:10;}
	.st25{fill:#A4504A;}
	.st26{fill:none;stroke:#EB5A3F;stroke-width:5;stroke-miterlimit:10;}
</style>
<g>
	<g>
		<path class="st0" d="M863.2,265.61c-28.5,10.92-64.42,26.1-102.44,45.79c-80.68,41.8-187.68,112.93-239.14,214.57
			c-13.67,27.02-22.84,54.93-27.48,83.65c-1.83,0.11-3.67,0.22-5.53,0.3c4.67-29.69,14.08-58.52,28.21-86.4
			c52.1-102.93,160.13-174.8,241.56-216.94c38.89-20.14,75.61-35.6,104.52-46.62C863.04,261.83,863.14,263.72,863.2,265.61z"/>
		<path class="st0" d="M856.19,342.41c-0.4,1.94-0.86,3.91-1.35,5.88c-22.95,5.8-57.41,17.85-90.96,42.36
			c-41.85,30.55-89.02,85.97-103.09,184.1c-1.91,0.76-3.86,1.54-5.8,2.29c13.81-101.99,62.64-159.4,105.9-190.89
			C796.32,360.31,832.78,348.04,856.19,342.41z"/>
		<path class="st0" d="M418.55,610.18c-1.83-0.05-3.67-0.13-5.5-0.22c-0.65-15.02-3.4-36.57-12.22-60.67
			c-15.42-42.07-53.02-100.83-144.62-141.87C164.5,366.3,108.22,309.56,93.45,243.28c-9.28-41.53-1.62-84.38,22.09-125.93
			c1.73,0.57,3.45,1.19,5.2,1.83c-23.46,40.67-31.07,82.49-22.03,122.94c14.4,64.53,69.63,120,159.72,160.37
			c93.46,41.91,131.84,102.09,147.56,145.24C415.13,572.78,417.96,594.86,418.55,610.18z"/>
		<path class="st0" d="M75.16,521.73c-1.65-1.19-3.26-2.37-4.88-3.64c6.2-41.91,3.07-106.81-43.6-184.21
			c-38.97-64.66-37.38-138.69,4.64-214.14c3.56-6.36,7.25-12.51,11.06-18.39c2.02,0.11,4.07,0.24,6.15,0.43
			c-4.31,6.58-8.55,13.48-12.57,20.71c-41.53,74.67-43.09,144.84-4.67,208.58C79.83,411.57,82.07,478.96,75.16,521.73z"/>
		<path class="st0" d="M341.91,604.09c-1.97-0.24-3.94-0.49-5.91-0.73c-12.67-37.27-38.78-89.1-89.47-112.53
			c-15.64-7.23-29.93-7.25-42.47-0.03c-22,12.7-35.78,45.36-44.17,75.67c-1.78-0.59-3.53-1.21-5.26-1.89
			c8.68-31.12,23.16-64.85,46.73-78.44c14.13-8.14,30.09-8.22,47.43-0.19C302.33,510.68,329.21,565.71,341.91,604.09z"/>
		<path class="st0" d="M758.25,69c-8.2,14.37-16.45,30.71-25.24,48.13c-40.85,81.03-91.71,181.91-203.54,207.18
			c-14.99,3.4-29.42,5.1-43.17,5.1c-31.52,0-59.68-8.9-84.03-26.64c-32.84-23.92-54.2-60.86-67.95-95.92
			c1.91-0.05,3.75-0.19,5.58-0.38c13.46,33.76,34.14,69.03,65.56,91.93c33.65,24.51,74.99,31.47,122.83,20.66
			C637.63,294.33,687.86,194.74,728.2,114.7c8.9-17.64,17.26-34.19,25.62-48.78C755.31,66.92,756.79,67.92,758.25,69z"/>
		<path class="st0" d="M726.59,50.07c-26.08,47.24-78.88,125.42-159.07,164.33c-12.62,6.12-24.92,9.17-36.86,9.17
			c-10.92,0-21.49-2.56-31.71-7.69c-28.37-14.21-49.97-46.09-65.8-79.66c1.32-1.59,2.64-3.18,3.96-4.83
			c15.53,33.68,36.7,65.85,64.26,79.66c19.77,9.92,41.23,9.41,63.77-1.51c78.82-38.24,130.84-115.17,156.59-161.8
			C723.35,48.47,724.97,49.26,726.59,50.07z"/>
		<path class="st0" d="M627.27,26.63c-4.85,34.06-19.23,77.23-60.3,87.51c-5.31,1.32-10.41,1.91-15.26,1.91
			c-27.29,0-47.27-19.39-60.81-40.04c1.4-1.11,2.83-2.21,4.23-3.26c14.97,23,38.1,44.22,70.54,36.13
			c37.29-9.3,50.99-49.67,55.9-82.14C623.47,26.69,625.38,26.63,627.27,26.63z"/>
	</g>
	<g>
		<path class="st1" d="M701.86,760.24c0,0-81.52,34.32-68.65,68.65s70.96,60.07,54.79,87.95c-16.17,27.89,26.73,8.58,26.73,8.58
			s27.89-68.65-17.16-77.23c-45.05-8.58,79.37-21.45,53.63-92.24C725.45,685.16,701.86,760.24,701.86,760.24z"/>
		<path class="st1" d="M575.76,788.28c0,0-62.09,26.14-52.29,52.29c9.8,26.14,54.05,45.75,41.73,67
			c-12.32,21.24,20.36,6.54,20.36,6.54s21.24-52.29-13.07-58.83c-34.32-6.54,60.46-16.34,40.85-70.26
			C593.74,731.09,575.76,788.28,575.76,788.28z"/>
		<path class="st1" d="M496.9,266.65c0,0-20.45-135.36-155.65-120.71c0,0,143.01,43.15,112.72,140.08L496.9,266.65z"/>
		<path class="st1" d="M360.81,148.13c0,0-18.48-26.39-37.55-14.41s-16.78,42.84-16.78,42.84S314.89,129.48,360.81,148.13z"/>
		<path class="st1" d="M357.26,149.12c0,0,5.29-31.78-16.72-36.58c-22.01-4.8-41.98,18.83-41.98,18.83S337.54,103.65,357.26,149.12z
			"/>
		<path class="st1" d="M368.33,149.6c0,0-24.51-20.91-39.97-4.53s-5.5,45.68-5.5,45.68S319.21,143.05,368.33,149.6z"/>
		<path class="st1" d="M762.53,228.85c0,0,64.75-120.61-52.27-189.91c0,0,88.63,120.24,6.29,179.69L762.53,228.85z"/>
		<path class="st1" d="M830.76,358.84c42.9,174.86-14.88,399.43-149.05,432.34c-134.17,32.92-134.04,2.38-176.93-172.48
			c-6.13-24.98-12.8-51.54-19.35-78.84c-39.3-163.79-74.07-353.68,40.93-381.9C660.53,125.05,787.86,183.99,830.76,358.84z"/>
		<path class="st1" d="M531.22,79.08c13.05,21.73,10.88,47.81-4.83,58.25c-15.72,10.44-17.71-12.64-30.76-34.37
			c-13.05-21.73-32.21-33.89-16.5-44.33C494.86,48.19,518.18,57.35,531.22,79.08z"/>
		<path class="st1" d="M580.26,34.55c13.05,21.73,10.88,47.81-4.83,58.25s-17.71-12.64-30.76-34.37
			c-13.05-21.73-32.21-33.89-16.5-44.33C543.89,3.67,567.21,12.82,580.26,34.55z"/>
		<path class="st1" d="M724.61,52.41c0,0,1.02-32.2-21.43-34.04s-39.11,24.24-39.11,24.24S699.02,9.97,724.61,52.41z"/>
		<path class="st1" d="M721.17,51.08c0,0,23.28-22.27,8.54-39.3S684.81,1.7,684.81,1.7S732.63,2.87,721.17,51.08z"/>
		<path class="st1" d="M729.75,58.1c0,0-7.09-31.43-29.28-27.58c-22.19,3.85-31.78,33.27-31.78,33.27S694.34,23.42,729.75,58.1z"/>
		<path class="st1" d="M581.64,51.48c0,0,38.48,63.8,19.49,101.89s-15.44,2.97-15.44,2.97S583.82,84.22,581.64,51.48z"/>
		<path class="st1" d="M532.25,102.78c0,0,38.48,63.8,19.49,101.89s-15.44,2.97-15.44,2.97S534.43,135.52,532.25,102.78z"/>
		<path class="st1" d="M766.21,225.37c0,0,91.53,55.06,78.66,106.55c0,0-25.92-64.36-95.11-57.92S766.21,225.37,766.21,225.37z"/>
		<path class="st1" d="M760.57,293.45c0,0,94.55,23.39,89.37,76.2c0,0-29.66-57.41-97.14-40.89
			C685.31,345.27,760.57,293.45,760.57,293.45z"/>
		<path class="st1" d="M782.95,327.73c0,0,90.1,37,77.22,88.49c0,0-20.91-61.14-90.1-54.7S782.95,327.73,782.95,327.73z"/>
	</g>
	<path class="st1" d="M235.19,947.86c18.72,0,36.15-1.17,50.82-3.18c11.47,1.99,26.09,3.18,42.01,3.18
		c36.86,0,66.74-6.39,66.74-14.27c0-7.88-29.88-14.27-66.74-14.27c-2.34,0-4.66,0.03-6.94,0.08c-14.81-6.99-47.68-11.85-85.89-11.85
		c-52.06,0-94.27,9.02-94.27,20.16S183.13,947.86,235.19,947.86z"/>
	<path class="st0" d="M453.66,483.87c0,0,21,44,19,41s3-40,3-40l26,31l12-40l15,36l24-49C552.66,462.87,478.66,431.87,453.66,483.87
		z"/>
	<path class="st0" d="M565.15,558.59c0,0-22.1-27.34-20.06-25.52c2.04,1.82-0.65,26.56-0.65,26.56l-26.09-18.4l-9.1,27.25
		l-16.03-22.54l-19.89,34.1C473.32,580.05,544.48,594.74,565.15,558.59z"/>
	<path class="st1" d="M257.07,929.57c0,7.51,78.12-0.76,178.23,9.61c106.5,11.03,186.21-2.1,186.21-9.61
		c0-7.51-81.58-13.6-182.22-13.6C338.65,915.97,257.07,922.06,257.07,929.57z"/>
	<path class="st2" d="M258.33,500.43l17.68,105.44l-15.99,291.72h-27.94c0,0-27.3-201.25-19.07-311.72c1.82-24.5,7.89-90,7.89-90
		L258.33,500.43z"/>
	<path class="st3" d="M226.97,927.46h23.17c1.86,0,3.38-1.65,3.38-3.66v-6.23c0-2.01-1.52-3.66-3.38-3.66h-23.17
		c-1.86,0-3.38,1.65-3.38,3.66v6.23C223.59,925.82,225.11,927.46,226.97,927.46z"/>
	<path class="st3" d="M187.68,921.63c0,0-1.32-0.95-1.32-3.82c0-11.12,17.43-5.7,23.9-9.54c5.46-3.24,14.38-11.42,14.53-21.47
		c0,0,0-5.63,6.49-5.63s7.97,0,10.2,0c2.22,0,5.93,1.71,6.49,5.02c0,0,4.27,0,6.58,0c2.32,0,5.65,0.5,5.65,7.44
		c0,6.94,0,21.91,0,23.67c0,1.76-0.68,3.87-1.82,4.33c0,0-0.45,2.36-0.73,2.61c-0.28,0.25-5.05,1.26-7.19,0.91
		c-2.13-0.35-8-3.49-8-3.49s-1.6-0.48-1.6-2.62c0,0-0.09-1.91-2.39-1.91c-2.29,0-6.84,1.93-7.42,2.29
		c-0.58,0.35-0.87,0.96-0.87,2.21c0,1.25-5.21,3.82-11.79,4.22C211.83,926.26,187.68,921.63,187.68,921.63z"/>
	<path class="st3" d="M187.68,927.46h42.52c0.8,0,1.45-0.71,1.45-1.58v-2.68c0-0.87-0.65-1.57-1.45-1.57h-42.52
		c-0.8,0-1.45,0.71-1.45,1.57v2.68C186.23,926.76,186.88,927.46,187.68,927.46z"/>
	<path class="st3" d="M225.04,927.46h33.34c0.8,0,1.45-0.71,1.45-1.58v-2.68c0-0.87-0.65-1.57-1.45-1.57h-33.34
		c-0.8,0-1.45,0.71-1.45,1.57v2.68C223.59,926.76,224.24,927.46,225.04,927.46z"/>
	<path class="st3" d="M384.97,888.11c0,0-1.28-4.52-3.04-4.52c-1.76,0-10.23,0-11.88,0c-1.66,0-7.58,1.67-7.58,7.1
		c0,0-3.76,3.61-4.4,4.48c-0.64,0.88-1.2,1.78-1.2,4.78c0,3,0,14.58,0,16.74c0,2.16-0.53,10.69,12.6,10.69c13.14,0,20.97,0,25.04,0
		c4.07,0,7.21-4.03,7.21-7.84c0-3.81-0.7-7.68-5.1-14.74c-4.4-7.06-7.59-12.3-7.59-12.3S387.06,889.17,384.97,888.11z"/>
	<path class="st3" d="M369.83,883.6c-1.9,0.13-7.37,1.87-7.37,7.09c0,0-3.76,3.61-4.4,4.48c-0.64,0.88-1.2,1.78-1.2,4.78
		c0,3,0,14.58,0,16.74c0,2.16-0.53,10.69,12.6,10.69h3.29l-1.37-8.53c0,0-5.57-18.3-6.12-25.74
		C364.72,885.72,369.77,883.62,369.83,883.6z"/>
	<path class="st2" d="M258.33,500.43l6.25,103.76l99.1,288.35l19.06-7.31c0,0-27.57-207.53-49.73-307.36
		c-4.82-21.72-26.87-71.62-26.87-71.62L258.33,500.43z"/>
	<path class="st4" d="M445.87,246.21l10.86-6.88c0,0-5.58-29.54-14.08-35.03c-8.49-5.5-18.56,9.35-18.56,9.35
		S426.25,220.95,445.87,246.21z"/>
	<path class="st5" d="M424.09,213.64l20.28-8.17c0,0-12.72-26.39-18.46-24S424.09,213.64,424.09,213.64z"/>
	<path class="st4" d="M456.73,239.32c0,0,2.32-31.6-2.77-35.7c-5.1-4.1-4.64,26.25-4.64,26.25L456.73,239.32z"/>
	<path class="st6" d="M357.79,405.92c0,0,48.9-92.03,37.05-95.71c-11.85-3.68-29.67,2.27-74.72,78.95L357.79,405.92z"/>
	<path class="st6" d="M385.41,343.22c0,0,46.67-99.02,33.81-113.84c0,0,1.15-8.55-6.82,1.95c-7.58,9.99-35.09,39.56-54.47,102.68
		L385.41,343.22z"/>
	<path class="st6" d="M421.7,240.21l-10.86-6.88c0,0,5.58-29.54,14.08-35.03c8.49-5.5,18.56,9.35,18.56,9.35
		S441.32,214.95,421.7,240.21z"/>
	<path class="st5" d="M443.48,207.64l-20.28-8.17c0,0,12.72-26.39,18.46-24S443.48,207.64,443.48,207.64z"/>
	<path class="st6" d="M410.84,233.32c0,0-2.32-31.6,2.77-35.7c5.1-4.1,4.64,26.25,4.64,26.25L410.84,233.32z"/>
	<path class="st7" d="M329.43,438.5c0,0,9.57-3.26,12.78-6.05c3.21-2.78,39.88-62.53,39.88-62.53l-35-24.53l-29.55,41.98
		C317.53,387.37,323.14,400.76,329.43,438.5z"/>
	<path class="st7" d="M271.17,381.01c12.42,0,14.96-9.54,14.96-9.54l38.81,10.85c8.95,24.66,6.75,64.99,6.75,64.99
		c-6.47,41.84-4.81,45.69,0.48,87.29c0.54,4.23-0.54,9.1-0.54,9.1c-12.67,22.04-110.92,19.45-123.12-1.78c0,0-1.08-4.87-0.54-9.1
		c5.29-41.6,9.17-43.67,2.69-85.51c0,0,13.3-37.07,0.06-63.94l45.5-11.9C256.22,371.47,258.75,381.01,271.17,381.01z"/>
	<path class="st8" d="M270.17,319.43L270.17,319.43c8.45-0.27,15.65,8.36,15.99,19.18l0.9,28.34c0.34,10.82-6.29,19.89-14.74,20.16
		l0,0c-8.45,0.27-15.65-8.36-15.99-19.18l-0.9-28.34C255.09,328.77,261.72,319.69,270.17,319.43z"/>
	<path class="st9" d="M269.13,295.92L269.13,295.92c8.45-0.27,15.65,8.36,15.99,19.18l0.9,28.34c0.34,10.82-6.29,19.89-14.74,20.16
		l0,0c-8.45,0.27-15.65-8.36-15.99-19.18l-0.9-28.34C254.05,305.27,260.68,296.19,269.13,295.92z"/>
	<g>
		<path class="st9" d="M215.61,298.1c-0.65,6.98,4.47,13.16,11.45,13.82c0.2,0.02,0.39,0.03,0.59,0.04
			c-0.98-4.61-1.37-9.21-1.08-13.54l0.26-3.87C227.37,286.62,216.71,286.43,215.61,298.1z"/>
		<path class="st9" d="M320.78,305.21c-0.29,7-6.2,12.44-13.21,12.15c-0.2-0.01-0.39-0.02-0.59-0.04c1.6-4.44,2.6-8.94,2.89-13.27
			l0.26-3.87C310.67,292.25,321.26,293.49,320.78,305.21z"/>
	</g>
	<path class="st8" d="M273.16,228.18L273.16,228.18c-22.91-1.55-42.96,16.56-44.56,40.23l-2.65,39.15
		c3.55,24.29,22,44.42,38.74,45.86l0,0c11.81,0.71,42.96-16.56,44.56-40.23l2.64-39.15C313.5,250.36,296.07,229.73,273.16,228.18z"
		/>
	<path class="st9" d="M292.58,310.08c-4.35,2.19-6.75,6.56-5.36,9.75c1.39,3.19,6.05,4.01,10.4,1.81c4.35-2.19,6.75-6.56,5.36-9.76
		C301.59,308.7,296.93,307.89,292.58,310.08z"/>
	<path class="st9" d="M234.91,305.58c-2.68,1.07-3.2,5.29-1.16,9.43c2.04,4.14,5.87,6.63,8.55,5.56c2.68-1.07,3.2-5.29,1.16-9.43
		C241.42,307,237.59,304.51,234.91,305.58z"/>
	<path class="st10" d="M267.43,307.8c0.65,2.35,1.78,6.6,1.62,7.25c-0.23,0.9-5.05,0.81-6.22-0.66"/>
	<g>
		<path class="st11" d="M255.17,280.4c0.89,0.48,1.22,1.58,0.74,2.46c-0.47,0.88-1.58,1.22-2.46,0.74
			c-0.02-0.01-5.32-2.97-10.77-0.04c-0.89,0.48-2,0.15-2.47-0.74c-0.48-0.89-0.15-2,0.74-2.47
			C248.15,276.48,255.15,280.39,255.17,280.4z"/>
		<path class="st11" d="M297.98,284.11c0.84,0.55,1.08,1.68,0.54,2.52c-0.55,0.84-1.68,1.08-2.52,0.54
			c-0.01-0.01-5.06-3.39-10.73-0.91c-0.92,0.4-2-0.02-2.4-0.94c-0.4-0.92,0.02-2,0.94-2.41
			C291.3,279.63,297.96,284.09,297.98,284.11z"/>
	</g>
	<path class="st11" d="M316.08,295.4c0,0-5.6-0.25-5.94,4.77c0,0-3.59-5.44-2.34-11.86c0,0-9.84-13.18-8.41-27.06
		c1.42-13.88,12.46-16.12,12.46-16.12C337.35,254.48,317.68,271.65,316.08,295.4z"/>
	<path class="st11" d="M221.59,289.02c0,0,5.59,0.51,5.25,5.53c0,0,4.29-4.91,3.92-11.44c0,0,11.52-11.74,11.97-25.68
		c0.46-13.95-10.18-17.65-10.18-17.65C206.02,245.6,223.19,265.27,221.59,289.02z"/>
	<path class="st11" d="M303.38,263.78c0,0-1.72,4.23-4.83,3.62c-3.11-0.6-6.48-2.61-4.98-7.24c0,0-12.09-10.67-21.09-8.72
		c-9,1.95-28.81,16.8-48.96,14.45c-20.14-2.35-18.64-17.36-3.9-39.92c11.22-17.18,26.35-23.28,58.73-18.33
		c32.39,4.95,34.97,23.54,33.49,37.49C310.35,259.09,303.38,263.78,303.38,263.78z"/>
	<g>
		<path class="st11" d="M247.16,303.53c2.85,0.19,5.32-1.96,5.51-4.81c0.19-2.85-1.96-5.32-4.81-5.51
			c-2.85-0.19-5.31,1.96-5.51,4.81C242.15,300.88,244.31,303.34,247.16,303.53z"/>
		<path class="st11" d="M288.79,306.35c2.85,0.19,5.31-1.96,5.51-4.81c0.19-2.85-1.96-5.32-4.81-5.51
			c-2.85-0.19-5.32,1.96-5.51,4.81C283.78,303.69,285.94,306.16,288.79,306.35z"/>
	</g>
	<path class="st7" d="M278.56,323.66c-0.34,5.03-7.43,9.32-12.46,8.98c-5.03-0.34-10.74-5.05-10.4-10.08
		c0.06-0.92,0.87-1.63,1.79-1.56l19.51,0.87C277.92,321.93,278.62,322.73,278.56,323.66z"/>
	<circle class="st11" cx="215.21" cy="239.87" r="9"/>
	<circle class="st12" cx="218.71" cy="262.37" r="9"/>
	<circle class="st11" cx="226.21" cy="224.87" r="14"/>
	<circle class="st11" cx="238.21" cy="218.87" r="14"/>
	<circle class="st11" cx="258.21" cy="208.87" r="14"/>
	<circle class="st11" cx="275.21" cy="214.87" r="14"/>
	<circle class="st11" cx="291.21" cy="217.87" r="14"/>
	<circle class="st12" cx="293.21" cy="216.87" r="14"/>
	<circle class="st11" cx="303.21" cy="231.87" r="14"/>
	<circle class="st11" cx="315.21" cy="245.87" r="14"/>
	<circle class="st12" cx="313.71" cy="259.87" r="14"/>
	<path class="st6" d="M664.23,881.02c3.16,25.16,0.84,20.17,29.51,31.51c28.67,11.33,8.39,12.01,5.33,11.33
		c-9.71-2.14-18.67-8.67-39.33-6s-8.1-19.56-8.1-19.56l0.77-23.11L664.23,881.02z"/>
	<path class="st1" d="M611.95,960.63c24.19,0,46.71-1.51,65.66-4.11c14.82,2.57,33.7,4.11,54.28,4.11
		c47.62,0,86.23-8.25,86.23-18.44c0-10.18-38.61-18.44-86.23-18.44c-3.03,0-6.02,0.03-8.97,0.1c-19.13-9.03-61.6-15.31-110.97-15.31
		c-67.27,0-121.8,11.66-121.8,26.04S544.68,960.63,611.95,960.63z"/>
	<path class="st13" d="M693.74,912.53c28.67,11.33,8.39,12.01,5.33,11.33c-9.71-2.14-18.67-8.67-39.33-6s-8.1-19.56-8.1-19.56
		s16.19,10.06,24.69,7.56L693.74,912.53z"/>
	<path class="st6" d="M552.5,881.02c-3.16,25.16-0.84,20.17-29.51,31.51c-28.67,11.33-8.39,12.01-5.33,11.33
		c9.71-2.14,18.67-8.67,39.33-6c20.67,2.67,8.1-19.56,8.1-19.56l-0.77-23.11L552.5,881.02z"/>
	<path class="st13" d="M522.99,912.53c-28.67,11.33-8.39,12.01-5.33,11.33c9.71-2.14,18.67-8.67,39.33-6
		c20.67,2.67,8.1-19.56,8.1-19.56s-16.19,10.06-24.69,7.56L522.99,912.53z"/>
	<path class="st14" d="M567.09,556.29l19.2,76.58l-18,257l-24,1c0,0-34.44-188.82-27.78-278.19c1.48-19.82,20.31-60.08,20.31-60.08
		L567.09,556.29z"/>
	<path class="st15" d="M567.09,556.29v76.04l83.64,255.26h17c0,0-17.73-192.96-35.66-273.72c-3.9-17.57-26.31-52.87-26.31-52.87
		L567.09,556.29z"/>
	<path class="st16" d="M582.48,426.26l5.34-39.28c1.53-11.29,9.83-19.56,18.43-18.39l0,0c8.6,1.17,14.39,11.36,12.85,22.65
		l-7.37,40.31C611.74,431.53,577.89,445.98,582.48,426.26z"/>
	<path class="st17" d="M606.26,368.58L606.26,368.58c-8.6-1.17-16.9,7.11-18.43,18.39l-4.42,32.49c3.22,2.51,6.9,4.17,11.01,4.73
		c7.35,1,13.39-0.59,19.99-6.99l4.71-25.97C620.65,379.94,614.86,369.75,606.26,368.58z"/>
	<g>
		<g>
			<path class="st17" d="M569.57,337.53c-0.33-0.05-0.65-0.09-0.97-0.12l-0.01,0l0,0c-5.99-0.5-11.74,3.16-13.65,9.13
				c-2.21,6.93,1.61,14.35,8.55,16.57c6.94,2.21,14.36-1.61,16.57-8.55c1.29-4.03,0.54-8.22-1.68-11.46
				c-0.79,3.83-2.76,8.26-7.66,7.31l2.31-7.24C573.96,340.23,571.62,338.05,569.57,337.53z"/>
			<path class="st17" d="M655.95,363.33c0.3,0.14,0.6,0.28,0.88,0.43l0.01,0.01l0,0c5.28,2.86,8.08,9.08,6.41,15.12
				c-1.95,7.01-9.22,11.12-16.23,9.17c-7.01-1.95-11.12-9.22-9.17-16.23c1.13-4.08,4.06-7.17,7.7-8.66
				c-1.44,3.63-2.22,8.43,2.4,10.31l2.04-7.32C650.8,363.18,653.95,362.64,655.95,363.33z"/>
		</g>
	</g>
	<path class="st16" d="M593.42,413.88c15.74,5.74,41.79-17.35,59.07-38.74l9.33-30.45c7.27-23.73-6.2-49.1-29.94-56.37l0,0
		c-23.73-7.27-49.1,6.2-56.37,29.94l-9.13,29.8C569.12,373.93,575.57,407.37,593.42,413.88z"/>
	<path class="st17" d="M578.61,361.42c3.27-0.5,6.7,2.35,7.66,6.36c0.96,4.01-0.91,7.67-4.18,8.17c-3.27,0.5-6.7-2.35-7.66-6.36
		C573.47,365.58,575.34,361.92,578.61,361.42z"/>
	<path class="st17" d="M628.2,377.16c4.51-0.6,8.4,2.07,8.69,5.96c0.29,3.89-3.13,7.53-7.64,8.13c-4.51,0.6-8.4-2.07-8.69-5.96
		C620.26,381.41,623.69,377.77,628.2,377.16z"/>
	<g>
		<path class="st11" d="M628.82,344.09c-1.03,0.13-1.76,1.08-1.63,2.12c0.13,1.03,1.08,1.77,2.12,1.63c0.02,0,6.26-0.91,10.46,3.95
			c0.69,0.79,1.89,0.88,2.68,0.2c0.79-0.69,0.88-1.88,0.2-2.68C637.1,342.89,628.85,344.09,628.82,344.09z"/>
		<path class="st11" d="M585.9,331.83c-1.02,0.22-1.67,1.22-1.45,2.24c0.22,1.02,1.22,1.67,2.24,1.46c0.02,0,6.16-1.42,10.75,3.09
			c0.75,0.74,1.95,0.73,2.69-0.02c0.73-0.75,0.72-1.95-0.02-2.69C594.05,329.96,585.93,331.82,585.9,331.83z"/>
	</g>
	<path class="st10" d="M602.48,372.7c-0.11,0.96,4.59,2.66,6.28,1.66c1.12-0.67,1.13-4.41,0.92-6.97"/>
	<path class="st11" d="M665.28,358.46l-4.3,8.84c0,0-5.78-1.01-7.31,3.99c0,0-2.34-6.36,0.44-12.55c0,0-6.83-15.66-2.11-29.36
		c4.72-13.7,10.78-22.2,10.78-22.2S677.47,329.6,665.28,358.46z"/>
	<path class="st11" d="M564.92,327.72l-1.39,9.73c0,0,5.36,2.4,3.83,7.4c0,0,5.5-3.95,6.67-10.64c0,0,14.43-9.15,18.19-23.15
		c3.76-14,0.37-21.91,0.37-21.91S570.99,296.99,564.92,327.72z"/>
	<path class="st7" d="M591,379.74c-1.53,5.01,3.75,11.9,8.76,13.43c5.01,1.53,13.93-1.73,15.47-6.74c0.28-0.92-3.86-1.45-4.78-1.73
		l-14.8-4.53C594.73,379.89,591.29,378.82,591,379.74z"/>
	<path class="st11" d="M663.56,313.07c0,0-9.87-81.38-80.52-29.09c-14.83,10.98-30.38,22.44-30.15,29.92
		C553.78,342.05,650.42,347.12,663.56,313.07z"/>
	<path class="st18" d="M662.78,307.17c0,0-45.06,35.71-101.44-5.1l13.62-12.27c0,0,27.05,36.82,87.9,16.84L662.78,307.17z"/>
	<path class="st6" d="M652.63,898.31"/>
	<path class="st19" d="M658.07,371.37"/>
	<path class="st19" d="M659.57,367.12c0,0,33.67-26.14,3.21-59.95c0,0-64.05,69.77-109.88,6.73"/>
	<line class="st20" x1="657.32" y1="386.87" x2="653.78" y2="426.37"/>
	<path class="st11" d="M593.5,356.68c-2.95-0.35-5.05-3.02-4.71-5.96c0.05-0.4,0.14-0.79,0.27-1.16l-0.59-0.29
		c-0.61-0.31-1.21-0.76-1.74-1.4c-0.24-0.29-0.19-0.71,0.09-0.95c0.29-0.24,0.71-0.2,0.95,0.09c0.52,0.63,1.13,1.02,1.72,1.25
		l0.01-0.01c-0.57-0.43-1.12-1.05-1.45-1.93c-0.13-0.35,0.04-0.74,0.39-0.87c0.35-0.13,0.74,0.04,0.87,0.39
		c0.28,0.72,0.76,1.2,1.23,1.5l0.06-0.05c-0.36-0.37-0.69-0.89-0.8-1.58c-0.06-0.37,0.19-0.71,0.56-0.77
		c0.37-0.06,0.71,0.19,0.77,0.56c0.08,0.5,0.36,0.83,0.61,1.03c0.9-0.45,1.95-0.66,3.03-0.53c2.95,0.35,5.05,3.02,4.71,5.97
		C599.12,354.92,596.45,357.03,593.5,356.68z"/>
	<path class="st11" d="M627.92,366.68c2.95-0.35,5.05-3.02,4.71-5.96c-0.05-0.4-0.14-0.79-0.27-1.16l0.59-0.29
		c0.61-0.31,1.21-0.76,1.74-1.4c0.24-0.29,0.19-0.71-0.09-0.95c-0.29-0.24-0.71-0.2-0.95,0.09c-0.52,0.63-1.13,1.02-1.72,1.25
		l-0.01-0.01c0.57-0.43,1.12-1.05,1.45-1.93c0.13-0.35-0.04-0.74-0.39-0.87c-0.35-0.13-0.74,0.04-0.87,0.39
		c-0.28,0.72-0.76,1.2-1.23,1.5l-0.06-0.05c0.36-0.37,0.69-0.89,0.8-1.58c0.06-0.37-0.19-0.71-0.56-0.77
		c-0.37-0.06-0.71,0.19-0.77,0.56c-0.08,0.5-0.36,0.83-0.61,1.03c-0.9-0.45-1.95-0.66-3.03-0.53c-2.95,0.35-5.05,3.02-4.71,5.97
		C622.3,364.92,624.98,367.03,627.92,366.68z"/>
	<path class="st21" d="M640.07,493.87c0,0-20.79-17,5.21-54"/>
	<circle class="st11" cx="661.85" cy="269.36" r="33.5"/>
	<circle class="st19" cx="665.85" cy="269.36" r="33.5"/>
	<path class="st22" d="M605.77,561l50.31-103.8c5.5-8.6-8.78-18.34-17.57-19.53l-61.46-13.93c-8.78-1.19-16.65,5.52-20.19,14.38
		c0,0-18.49,33.62-17.07,45.74c0.38,3.2,6,13.33,6,13.33l-8.98,55.4L605.77,561z"/>
	<path class="st21" d="M564.07,433.87c0,0-38,40-17,64"/>
	<path class="st4" d="M504.66,395.87c0,0-43.77-75.98-31.93-79.66c11.85-3.68,12.34-11.02,57.39,65.66L504.66,395.87z"/>
	<path class="st4" d="M482.16,349.22c0,0-46.67-99.02-33.81-113.84c0,0-1.15-8.55,6.82,1.95c7.58,9.99,38.24,52.74,57.62,115.87
		L482.16,349.22z"/>
	<path class="st6" d="M222.42,442.91c0,0-43.6,89.84-53.14,82.75c-9.54-7.09-12.42-22.93,21.47-101.12L222.42,442.91z"/>
	<path class="st2" d="M605.77,561l50.31-103.8c5.5-8.6-8.78-18.34-17.57-19.53l-61.46-13.93c-8.78-1.19-16.65,5.52-20.19,14.38
		c0,0-17.21,30.73-16.4,42.91c0.5,7.5,5.33,16.17,5.33,16.17l-8.98,55.4L605.77,561z"/>
	<path class="st4" d="M664.23,881.02c3.16,25.16,0.84,20.17,29.51,31.51c28.67,11.33,8.39,12.01,5.33,11.33
		c-9.71-2.14-18.67-8.67-39.33-6s-8.1-19.56-8.1-19.56l0.77-23.11L664.23,881.02z"/>
	<path class="st2" d="M693.74,912.53c28.67,11.33,8.39,12.01,5.33,11.33c-9.71-2.14-18.67-8.67-39.33-6s-8.1-19.56-8.1-19.56
		s16.19,10.06,24.69,7.56L693.74,912.53z"/>
	<path class="st4" d="M552.5,881.02c-3.16,25.16-0.84,20.17-29.51,31.51c-28.67,11.33-8.39,12.01-5.33,11.33
		c9.71-2.14,18.67-8.67,39.33-6c20.67,2.67,8.1-19.56,8.1-19.56l-0.77-23.11L552.5,881.02z"/>
	<path class="st2" d="M522.99,912.53c-28.67,11.33-8.39,12.01-5.33,11.33c9.71-2.14,18.67-8.67,39.33-6
		c20.67,2.67,8.1-19.56,8.1-19.56s-16.19,10.06-24.69,7.56L522.99,912.53z"/>
	<path class="st14" d="M567.09,556.29l19.2,76.58l-18,257l-24,1c0,0-34.44-188.82-27.78-278.19c1.48-19.82,20.31-60.08,20.31-60.08
		L567.09,556.29z"/>
	<path class="st15" d="M567.09,556.29v76.04l83.64,255.26h17c0,0-17.73-192.96-35.66-273.72c-3.9-17.57-26.31-52.87-26.31-52.87
		L567.09,556.29z"/>
	<path class="st16" d="M582.48,426.26l5.34-39.28c1.53-11.29,9.83-19.56,18.43-18.39l0,0c8.6,1.17,14.39,11.36,12.85,22.65
		l-7.37,40.31C611.74,431.53,577.89,445.98,582.48,426.26z"/>
	<path class="st17" d="M606.26,368.58L606.26,368.58c-8.6-1.17-16.9,7.11-18.43,18.39l-4.42,32.49c3.22,2.51,6.9,4.17,11.01,4.73
		c7.35,1,13.39-0.59,19.99-6.99l4.71-25.97C620.65,379.94,614.86,369.75,606.26,368.58z"/>
	<g>
		<path class="st17" d="M569.57,337.53c-0.33-0.05-0.65-0.09-0.97-0.12l-0.01,0l0,0c-5.99-0.5-11.74,3.16-13.65,9.13
			c-2.21,6.93,1.61,14.35,8.55,16.57c6.94,2.21,14.36-1.61,16.57-8.55c1.29-4.03,0.54-8.22-1.68-11.46
			c-0.79,3.83-2.76,8.26-7.66,7.31l2.31-7.24C573.96,340.23,571.62,338.05,569.57,337.53z"/>
		<path class="st17" d="M655.95,363.33c0.3,0.14,0.6,0.28,0.88,0.43l0.01,0.01l0,0c5.28,2.86,8.08,9.08,6.41,15.12
			c-1.95,7.01-9.22,11.12-16.23,9.17c-7.01-1.95-11.12-9.22-9.17-16.23c1.13-4.08,4.06-7.17,7.7-8.66
			c-1.44,3.63-2.22,8.43,2.4,10.31l2.04-7.32C650.8,363.18,653.95,362.64,655.95,363.33z"/>
	</g>
	<path class="st16" d="M593.42,413.88c15.74,5.74,41.79-17.35,59.07-38.74l9.33-30.45c7.27-23.73-6.2-49.1-29.94-56.37l0,0
		c-23.73-7.27-49.1,6.2-56.37,29.94l-9.13,29.8C569.12,373.93,575.57,407.37,593.42,413.88z"/>
	<path class="st17" d="M578.61,361.42c3.27-0.5,6.7,2.35,7.66,6.36c0.96,4.01-0.91,7.67-4.18,8.17c-3.27,0.5-6.7-2.35-7.66-6.36
		C573.47,365.58,575.34,361.92,578.61,361.42z"/>
	<path class="st17" d="M628.2,377.16c4.51-0.6,8.4,2.07,8.69,5.96c0.29,3.89-3.13,7.53-7.64,8.13c-4.51,0.6-8.4-2.07-8.69-5.96
		C620.26,381.41,623.69,377.77,628.2,377.16z"/>
	<g>
		<path class="st11" d="M628.82,344.09c-1.03,0.13-1.76,1.08-1.63,2.12c0.13,1.03,1.08,1.77,2.12,1.63c0.02,0,6.26-0.91,10.46,3.95
			c0.69,0.79,1.89,0.88,2.68,0.2c0.79-0.69,0.88-1.88,0.2-2.68C637.1,342.89,628.85,344.09,628.82,344.09z"/>
		<path class="st11" d="M585.9,331.83c-1.02,0.22-1.67,1.22-1.45,2.24c0.22,1.02,1.22,1.67,2.24,1.46c0.02,0,6.16-1.42,10.75,3.09
			c0.75,0.74,1.95,0.73,2.69-0.02c0.73-0.75,0.72-1.95-0.02-2.69C594.05,329.96,585.93,331.82,585.9,331.83z"/>
	</g>
	<path class="st10" d="M602.48,372.7c-0.11,0.96,4.59,2.66,6.28,1.66c1.12-0.67,1.13-4.41,0.92-6.97"/>
	<path class="st11" d="M665.28,358.46l-4.3,8.84c0,0-5.78-1.01-7.31,3.99c0,0-2.34-6.36,0.44-12.55c0,0-6.83-15.66-2.11-29.36
		c4.72-13.7,10.78-22.2,10.78-22.2S677.47,329.6,665.28,358.46z"/>
	<path class="st11" d="M564.92,327.72l-1.39,9.73c0,0,5.36,2.4,3.83,7.4c0,0,5.5-3.95,6.67-10.64c0,0,14.43-9.15,18.19-23.15
		c3.76-14,0.37-21.91,0.37-21.91S570.99,296.99,564.92,327.72z"/>
	<path class="st7" d="M591,379.74c-1.53,5.01,3.75,11.9,8.76,13.43c5.01,1.53,13.93-1.73,15.47-6.74c0.28-0.92-3.86-1.45-4.78-1.73
		l-14.8-4.53C594.73,379.89,591.29,378.82,591,379.74z"/>
	<path class="st11" d="M663.56,313.07c0,0-9.87-81.38-80.52-29.09c-14.83,10.98-30.38,22.44-30.15,29.92
		C553.78,342.05,650.42,347.12,663.56,313.07z"/>
	<path class="st23" d="M662.78,307.17c0,0-45.06,35.71-101.44-5.1l13.62-12.27c0,0,27.05,36.82,87.9,16.84L662.78,307.17z"/>
	<path class="st6" d="M652.63,898.31"/>
	<path class="st19" d="M658.07,371.37"/>
	<path class="st19" d="M659.57,367.12c0,0,33.67-26.14,3.21-59.95c0,0-64.05,69.77-109.88,6.73"/>
	<line class="st20" x1="657.32" y1="386.87" x2="653.78" y2="426.37"/>
	<path class="st11" d="M593.5,356.68c-2.95-0.35-5.05-3.02-4.71-5.96c0.05-0.4,0.14-0.79,0.27-1.16l-0.59-0.29
		c-0.61-0.31-1.21-0.76-1.74-1.4c-0.24-0.29-0.19-0.71,0.09-0.95c0.29-0.24,0.71-0.2,0.95,0.09c0.52,0.63,1.13,1.02,1.72,1.25
		l0.01-0.01c-0.57-0.43-1.12-1.05-1.45-1.93c-0.13-0.35,0.04-0.74,0.39-0.87c0.35-0.13,0.74,0.04,0.87,0.39
		c0.28,0.72,0.76,1.2,1.23,1.5l0.06-0.05c-0.36-0.37-0.69-0.89-0.8-1.58c-0.06-0.37,0.19-0.71,0.56-0.77
		c0.37-0.06,0.71,0.19,0.77,0.56c0.08,0.5,0.36,0.83,0.61,1.03c0.9-0.45,1.95-0.66,3.03-0.53c2.95,0.35,5.05,3.02,4.71,5.97
		C599.12,354.92,596.45,357.03,593.5,356.68z"/>
	<path class="st11" d="M627.92,366.68c2.95-0.35,5.05-3.02,4.71-5.96c-0.05-0.4-0.14-0.79-0.27-1.16l0.59-0.29
		c0.61-0.31,1.21-0.76,1.74-1.4c0.24-0.29,0.19-0.71-0.09-0.95c-0.29-0.24-0.71-0.2-0.95,0.09c-0.52,0.63-1.13,1.02-1.72,1.25
		l-0.01-0.01c0.57-0.43,1.12-1.05,1.45-1.93c0.13-0.35-0.04-0.74-0.39-0.87c-0.35-0.13-0.74,0.04-0.87,0.39
		c-0.28,0.72-0.76,1.2-1.23,1.5l-0.06-0.05c0.36-0.37,0.69-0.89,0.8-1.58c0.06-0.37-0.19-0.71-0.56-0.77
		c-0.37-0.06-0.71,0.19-0.77,0.56c-0.08,0.5-0.36,0.83-0.61,1.03c-0.9-0.45-1.95-0.66-3.03-0.53c-2.95,0.35-5.05,3.02-4.71,5.97
		C622.3,364.92,624.98,367.03,627.92,366.68z"/>
	<circle class="st11" cx="661.85" cy="269.36" r="33.5"/>
	<circle class="st19" cx="665.85" cy="269.36" r="33.5"/>
	<path class="st21" d="M564.07,433.87c0,0-38,40-17,64"/>
	<path class="st4" d="M482.16,349.22c0,0-46.67-99.02-33.81-113.84c0,0-1.15-8.55,6.82,1.95c7.58,9.99,38.24,52.74,57.62,115.87
		L482.16,349.22z"/>
	<path class="st7" d="M210.38,383.01c0,0-8.55,5.4-11.02,8.86c-2.48,3.46-24.56,64.79-24.56,64.79l39.57,28.54l17.53-40.89
		C231.89,444.31,233.02,404.75,210.38,383.01z"/>
	<path class="st24" d="M210.66,447.31c0,0,11.92-32.3-2.28-54.94 M327.61,481.83c0,0-1.26,13.3-6.37,17.3 M213.99,478.02
		c0,0,2.93,14.45,12.92,23.11 M195.9,406.69L195,442.37 M339.75,385.21l4.6,37.97 M330.19,438.96c0,0,3.53-33.87-8.09-56.95"/>
	<path class="st2" d="M677.19,538.05l27.73-17.8l-50.47-72.38c-5.79-9.13-16.38-6.08-24.6,0.94l0,0c-8.22,7.02-8.92,28.16-0.81,35.3
		L677.19,538.05z"/>
	<path class="st25" d="M653.41,591.04l-20.08-4.86l-10.74,13.11l28.38,3.31c3.73,0.79,11.53-5.14,9.98-8.01
		C659.85,592.54,653.41,591.04,653.41,591.04z"/>
	<path class="st4" d="M617.38,581.06l5.21,18.23l20.47,2.39l-10.95-39l-5.04,1.38C619.7,566.08,615.36,573.69,617.38,581.06z"/>
	<polygon class="st1" points="636.61,580.51 698.72,540.87 681.17,511.32 619.93,567.18 	"/>
	<path class="st1" d="M680.87,532.97c2.75,7.11,10.74,10.65,17.86,7.9c7.11-2.75,10.65-10.74,7.9-17.86
		c-2.75-7.11-10.74-10.65-17.85-7.9C681.65,517.87,678.12,525.86,680.87,532.97z"/>
	<polygon class="st0" points="434.16,39.87 405.29,74.2 424.09,217.64 442.79,216.69 463.79,74.2 	"/>
	<g>
		<g>
			<path class="st6" d="M432.78,53.87c0,5.42,0,10.84,0,16.26c0,12.93,0,25.86,0,38.78c0,15.62,0,31.25,0,46.87
				c0,13.51,0,27.02,0,40.53c0,6.58-0.21,13.2,0,19.78c0,0.09,0,0.18,0,0.27c0,2.41,3.75,2.42,3.75,0c0-5.42,0-10.84,0-16.26
				c0-12.93,0-25.86,0-38.78c0-15.62,0-31.25,0-46.87c0-13.51,0-27.02,0-40.53c0-6.58,0.21-13.2,0-19.78c0-0.09,0-0.18,0-0.27
				C436.53,51.45,432.78,51.45,432.78,53.87L432.78,53.87z"/>
		</g>
	</g>
	<path class="st2" d="M434.33,259.2L434.33,259.2c-4.22,0-7.67-3.45-7.67-7.67v-28.67c0-4.22,3.45-7.67,7.67-7.67l0,0
		c4.22,0,7.67,3.45,7.67,7.67v28.67C441.99,255.75,438.54,259.2,434.33,259.2z"/>
	<path class="st2" d="M513.99,350.53L482.83,363l51.92,83.33c4.08,12.59,27.21,16.77,35.81,10.39l-1.07,0.69
		c8.59-6.38,7.86-23.09,0.33-30.69L513.99,350.53z"/>
	<path class="st5" d="M445.99,195.2c0,0-33.33,6.67-25.33,25.33c0,0,8,6.67,26.67-0.67L445.99,195.2z"/>
	<circle class="st6" cx="170.16" cy="520.37" r="122"/>
	<circle class="st26" cx="170.16" cy="520.37" r="113.75"/>
	<circle class="st2" cx="170.16" cy="520.37" r="45.5"/>
	<circle class="st6" cx="634.16" cy="578.37" r="122"/>
	<circle class="st26" cx="634.16" cy="578.37" r="113.75"/>
	<circle class="st2" cx="634.16" cy="578.37" r="45.5"/>
</g>
</svg>
