<?xml version="1.0" encoding="utf-8"?>
<!-- Generator: Adobe Illustrator 24.2.1, SVG Export Plug-In . SVG Version: 6.00 Build 0)  -->
<svg version="1.1" id="Слой_1" xmlns="http://www.w3.org/2000/svg" xmlns:xlink="http://www.w3.org/1999/xlink" x="0px" y="0px"
	 viewBox="0 0 864.61 999.02" style="enable-background:new 0 0 864.61 999.02;" xml:space="preserve">
<style type="text/css">
	.st0{fill:#E3AB84;}
	.st1{fill:#B7B5DC;}
	.st2{fill:#D86C51;}
	.st3{fill:#484A73;}
	.st4{fill:#2F3C5A;}
	.st5{fill:#FFFFFF;}
	.st6{fill:#8FB7E2;}
	.st7{fill:#93315B;}
	.st8{fill:#DE6296;}
	.st9{fill:#8CA12E;}
	.st10{fill:#70BE8D;}
	.st11{opacity:0.15;fill:#020203;}
	.st12{fill:#F2D066;}
	.st13{fill-rule:evenodd;clip-rule:evenodd;fill:#1C2036;}
	.st14{fill-rule:evenodd;clip-rule:evenodd;fill:#E3AB84;}
	.st15{fill-rule:evenodd;clip-rule:evenodd;fill:#D7816C;}
	.st16{fill:#D7816C;}
	.st17{fill-rule:evenodd;clip-rule:evenodd;fill:#FFFFFF;}
	.st18{opacity:0.5;fill-rule:evenodd;clip-rule:evenodd;fill:#FFFFFF;}
	.st19{fill:#C1E5FA;}
	.st20{fill-rule:evenodd;clip-rule:evenodd;fill:#8CA12E;}
	.st21{fill-rule:evenodd;clip-rule:evenodd;fill:none;stroke:#1C2036;stroke-miterlimit:10;}
	.st22{fill:#1C2036;}
	.st23{fill:#807DBA;}
	.st24{fill-rule:evenodd;clip-rule:evenodd;fill:#F3E9D6;}
	.st25{fill-rule:evenodd;clip-rule:evenodd;fill:#202023;}
	.st26{fill:#7B8A27;}
</style>
<g>
	<path class="st0" d="M152.7,505.69l10.52-7.2c0,0-17.98-32.72-27.29-36.66c-9.28-3.92-15,14.04-15.03,14.22
		c0,0-0.47,5.52-0.47,5.53C120.41,481.69,129.43,488.08,152.7,505.69z"/>
	<path class="st1" d="M674.31,999.02c-24.19,0-46.71-1.51-65.66-4.11c-14.82,2.57-33.7,4.11-54.28,4.11
		c-47.62,0-86.23-8.25-86.23-18.44s38.61-18.44,86.23-18.44c3.03,0,6.02,0.03,8.97,0.1c19.13-9.03,61.6-15.31,110.97-15.31
		c67.27,0,121.8,11.66,121.8,26.04C796.11,987.36,741.58,999.02,674.31,999.02z"/>
	<path class="st1" d="M518.32,981.02c-24.19,0-46.71-1.51-65.66-4.11c-14.82,2.57-33.7,4.11-54.28,4.11
		c-47.62,0-86.23-8.25-86.23-18.44s38.61-18.44,86.23-18.44c3.03,0,6.02,0.03,8.97,0.1c19.13-9.03,61.6-15.31,110.97-15.31
		c67.27,0,121.8,11.66,121.8,26.04C640.12,969.36,585.59,981.02,518.32,981.02z"/>
	<path class="st0" d="M744.1,895.58c0,0,8.67,18,18.67,21.33c10,3.33-30.67,40-30.67,40l-2-10.67l-0.67-54.67L744.1,895.58z"/>
	<path class="st0" d="M582.43,887.58c8.58,35.51,28.17,31.63-31.08,47.33c-23.92,6.34-13.89,17.48-9.17,16.74
		c14.98-2.36,29.21-11.44,60.4-5.45c31.19,5.99,14.16-28.99,14.16-28.99l-19.02-35.23L582.43,887.58z"/>
	<path class="st2" d="M551.35,934.91c-44.67,14.56-13.89,17.48-9.17,16.74c14.98-2.36,29.21-11.44,60.4-5.45
		c31.19,5.99,14.16-28.99,14.16-28.99s-25.57,13.79-38.26,9.19L551.35,934.91z"/>
	<path class="st3" d="M612.38,584.57c0,0-133.64,126.57-115.34,150.94c18.31,24.37,84.72,170.75,84.72,170.75l25.33-11.67
		c0,0-8.95-128.79-57.61-163.35c0,0,131.03-79.86,130.53-129.02L612.38,584.57z"/>
	<path class="st4" d="M693.43,575.58c0,0,35,21,6,72l-3.67,113.33c0,0,38.33-1,51.33,138l-19.67,6.67l-74-128c0,0-51-159-38-219
		C630.41,489.46,693.43,575.58,693.43,575.58z"/>
	<g>
		<path class="st5" d="M343.33,586.97c-1.97-0.24-3.94-0.49-5.91-0.73c-12.67-37.27-38.78-89.1-89.47-112.53
			c-15.64-7.23-29.93-7.25-42.47-0.03c-22,12.7-35.78,45.36-44.17,75.67c-1.78-0.59-3.53-1.21-5.26-1.89
			c8.68-31.12,23.16-64.85,46.73-78.44c14.13-8.14,30.09-8.22,47.43-0.19C303.74,493.56,330.63,548.6,343.33,586.97z"/>
		<path class="st5" d="M864.61,248.49c-28.5,10.92-64.42,26.1-102.44,45.79c-80.68,41.8-187.68,112.93-239.14,214.57
			c-13.67,27.02-22.84,54.93-27.48,83.65c-1.83,0.11-3.67,0.22-5.53,0.3c4.67-29.69,14.08-58.52,28.21-86.4
			c52.1-102.93,160.13-174.8,241.56-216.94c38.89-20.14,75.61-35.6,104.52-46.62C864.45,244.72,864.56,246.61,864.61,248.49z"/>
		<path class="st5" d="M857.6,325.29c-0.4,1.94-0.86,3.91-1.35,5.88c-22.95,5.8-57.41,17.85-90.96,42.36
			c-41.85,30.55-89.02,85.97-103.09,184.1c-1.91,0.76-3.86,1.54-5.8,2.29c13.81-101.99,62.64-159.4,105.9-190.89
			C797.74,343.2,834.19,330.93,857.6,325.29z"/>
		<path class="st5" d="M419.97,593.07c-1.83-0.05-3.67-0.13-5.5-0.22c-0.65-15.02-3.4-36.57-12.22-60.67
			c-15.42-42.07-53.02-100.83-144.62-141.87c-91.71-41.12-147.99-97.86-162.77-164.14c-9.28-41.53-1.62-84.38,22.09-125.93
			c1.73,0.57,3.45,1.19,5.2,1.83c-23.46,40.67-31.07,82.49-22.03,122.94c14.4,64.53,69.63,120,159.72,160.37
			c93.46,41.91,131.84,102.09,147.56,145.24C416.54,555.67,419.37,577.75,419.97,593.07z"/>
		<path class="st5" d="M76.58,504.62c-1.65-1.19-3.26-2.37-4.88-3.64c6.2-41.91,3.07-106.81-43.6-184.21
			c-38.97-64.66-37.38-138.69,4.64-214.14c3.56-6.36,7.25-12.51,11.06-18.39c2.02,0.11,4.07,0.24,6.15,0.43
			c-4.31,6.58-8.55,13.48-12.57,20.71C-4.16,180.05-5.72,250.22,32.7,313.97C81.24,394.46,83.48,461.85,76.58,504.62z"/>
		<path class="st5" d="M759.66,51.88c-8.2,14.37-16.45,30.71-25.24,48.13c-40.85,81.03-91.71,181.91-203.54,207.18
			c-14.99,3.4-29.42,5.1-43.17,5.1c-31.52,0-59.68-8.9-84.03-26.64c-32.84-23.92-54.2-60.86-67.95-95.92
			c1.91-0.05,3.75-0.19,5.58-0.38c13.46,33.76,34.14,69.03,65.56,91.93c33.65,24.51,74.99,31.47,122.83,20.66
			c109.35-24.73,159.59-124.31,199.93-204.35c8.9-17.64,17.26-34.19,25.62-48.78C756.72,49.81,758.2,50.81,759.66,51.88z"/>
		<path class="st5" d="M728,32.95c-26.08,47.24-78.88,125.42-159.07,164.33c-12.62,6.12-24.92,9.17-36.86,9.17
			c-10.92,0-21.49-2.56-31.71-7.69c-28.37-14.21-49.97-46.09-65.8-79.66c1.32-1.59,2.64-3.18,3.96-4.83
			c15.53,33.68,36.7,65.85,64.26,79.66c19.77,9.92,41.23,9.41,63.77-1.51c78.82-38.24,130.84-115.17,156.59-161.8
			C724.77,31.36,726.38,32.14,728,32.95z"/>
		<path class="st5" d="M628.68,9.52c-4.85,34.06-19.23,77.23-60.3,87.51c-5.31,1.32-10.41,1.91-15.26,1.91
			c-27.29,0-47.27-19.39-60.81-40.04c1.4-1.11,2.83-2.21,4.23-3.26c14.97,23,38.1,44.22,70.54,36.13
			c37.29-9.3,50.99-49.67,55.9-82.14C624.88,9.57,626.8,9.52,628.68,9.52z"/>
	</g>
	<g>
		<g>
			<path class="st6" d="M391.72,290.2l-2.06-8.23l-4.24-2.4c0,0,14.19-0.88,23.07,3.87l5.47,11.08
				C413.95,294.52,399.55,289.77,391.72,290.2z"/>
			<path class="st6" d="M391.72,290.2l-2.06-8.23l-4.24-2.4c0,0,14.19-0.88,23.07,3.87l5.47,11.08
				C413.95,294.52,399.55,289.77,391.72,290.2z"/>
			<path class="st6" d="M398.45,272c-13.86-4.89-29.86-0.12-29.86-0.12l-4.62-11.46c12.02-5.06,27.62,1.31,27.62,1.31l1.67,4.97
				L398.45,272z"/>
			<path class="st6" d="M398.45,272c-13.86-4.89-29.86-0.12-29.86-0.12l-4.62-11.46c12.02-5.06,27.62,1.31,27.62,1.31l1.67,4.97
				L398.45,272z"/>
			<path class="st6" d="M397.64,242.11l-29.06,29.77c0,0-4.22-4.96-4.62-11.46l29.06-29.77
				C397.24,235.61,397.64,242.11,397.64,242.11z"/>
			<path class="st6" d="M398.45,272l-6.73,18.2c0,0-4.92-4.26-6.3-10.63l6.17-17.84C396.73,265.72,398.45,272,398.45,272z"/>
			<path class="st6" d="M424.98,331.86l-3.1,10.37c0,0,0.03-24.13-23.74-21.63l1.66-12.64C399.81,307.95,423.72,309.2,424.98,331.86
				z"/>
			<path class="st6" d="M424.98,331.86l-3.1,10.37c0,0,0.03-24.13-23.74-21.63l1.66-12.64C399.81,307.95,423.72,309.2,424.98,331.86
				z"/>
			<path class="st6" d="M409.15,346.3l1.03-8.47c0,0,12.43,1.92,14.8-5.97C424.98,331.86,426.99,347.15,409.15,346.3z"/>
			<path class="st6" d="M413.95,294.52l-15.81,26.07c0,0-3.84-5.26-3.75-11.77l14.09-25.38
				C413.07,288.07,413.95,294.52,413.95,294.52z"/>
		</g>
		<g>
			<path class="st7" d="M505.3,154.58c0,0-25.6-15.12-16.94-30.86l6.23-6.19c0,0-6.95,16.17,13.8,28.6l-2.33,4.1L505.3,154.58z"/>
			<path class="st7" d="M495.16,199.38c0,0-24.5-10.78-31.45-25.31c0,0-1.12-4.3,3.58-9.77c0,0-0.51,11.19,27.06,23.4l-0.62,5.76
				L495.16,199.38z"/>
			<path class="st8" d="M467.5,211.11l-1.1-10.89c0,0,17.23-2.07,27.95-12.52l0.81,11.68C495.16,199.38,486.32,209.62,467.5,211.11z
				"/>
			<path class="st8" d="M523.88,121.05l-5.63,9.38c0,0-15.04-8.66-29.88-6.7l6.34-9.84C494.7,113.88,507.91,110.98,523.88,121.05z"
				/>
			<path class="st8" d="M463.71,174.08c0,0,4.22-16.42,41.59-19.5c0,0,2.05-3.14,3.1-8.45c0,0-25.96-3.53-41.4,13.27
				C466.99,159.4,460.43,167.48,463.71,174.08z"/>
		</g>
		<path class="st1" d="M821.17,59.88c0,0-0.41,12.35,12.35,13.58l-12.35,8.64c0,0-8.64-4.53-9.47-22.23H821.17z"/>
		<path class="st9" d="M622.88,193.96L635,191.7c0,0,8.89,16.17,4.85,26.67l-11.32,6.06C628.54,224.44,632.98,200.67,622.88,193.96z
			"/>
		<path class="st9" d="M793.24,2.26L805.37,0c0,0,8.89,16.17,4.85,26.67l-11.32,6.06C798.9,32.74,803.35,8.96,793.24,2.26z"/>
		<polygon class="st1" points="724.45,42.5 724.45,66.75 713.14,66.75 716.37,42.5 		"/>
		<path class="st1" d="M645.27,149.34c0,7.16,5.8,12.96,12.96,12.96c7.16,0,12.96-5.8,12.96-12.96c0-7.16-5.8-12.96-12.96-12.96
			C651.07,136.38,645.27,142.18,645.27,149.34z"/>
		<circle class="st5" cx="291.77" cy="174.08" r="6.76"/>
		<path class="st1" d="M215.8,263.64c0,3.74,3.03,6.76,6.76,6.76c3.74,0,6.76-3.03,6.76-6.76c0-3.73-3.03-6.76-6.76-6.76
			C218.83,256.88,215.8,259.91,215.8,263.64z"/>
		<circle class="st1" cx="104.74" cy="310.82" r="6.76"/>
		<path class="st1" d="M64.43,188.53c0,3.74,3.03,6.76,6.76,6.76c3.74,0,6.76-3.03,6.76-6.76c0-3.73-3.03-6.76-6.76-6.76
			C67.46,181.77,64.43,184.8,64.43,188.53z"/>
		<circle class="st5" cx="184.89" cy="83.93" r="6.76"/>
		
			<ellipse transform="matrix(0.3827 -0.9239 0.9239 0.3827 132.8862 264.355)" class="st1" cx="264.26" cy="32.74" rx="6.76" ry="6.76"/>
		<circle class="st8" cx="435.31" cy="160.9" r="6.76"/>
		<circle class="st1" cx="548.85" cy="196.65" r="6.76"/>
		<circle class="st1" cx="761.71" cy="113.15" r="6.76"/>
		<path class="st8" d="M508.68,50.69c0,3.5,2.84,6.34,6.34,6.34c3.5,0,6.34-2.84,6.34-6.34c0-3.5-2.84-6.34-6.34-6.34
			C511.52,44.35,508.68,47.19,508.68,50.69z"/>
		<path class="st6" d="M742.64,413.68c0,7.16,5.8,12.96,12.96,12.96c7.16,0,12.96-5.8,12.96-12.96c0-7.16-5.8-12.96-12.96-12.96
			C748.45,400.72,742.64,406.52,742.64,413.68z"/>
		<path class="st2" d="M831.5,199.3c0,7.16,5.8,12.96,12.96,12.96c7.16,0,12.96-5.8,12.96-12.96c0-7.16-5.8-12.96-12.96-12.96
			C837.31,186.34,831.5,192.14,831.5,199.3z"/>
		<path class="st1" d="M817.92,392.43c0,4.62,3.74,8.36,8.36,8.36c4.62,0,8.36-3.75,8.36-8.36c0-4.62-3.74-8.36-8.36-8.36
			C821.67,384.07,817.92,387.81,817.92,392.43z"/>
		<path class="st9" d="M788.74,140.9c0,7.16,5.8,12.96,12.96,12.96s12.96-5.8,12.96-12.96c0-7.16-5.8-12.96-12.96-12.96
			S788.74,133.74,788.74,140.9z"/>
		<polygon class="st10" points="484.38,325.4 481.54,331.14 475.21,332.06 479.79,336.53 478.71,342.83 484.38,339.86 
			490.04,342.83 488.96,336.53 493.54,332.06 487.21,331.14 		"/>
		<polygon class="st10" points="196.65,270.74 193.82,276.48 187.48,277.4 192.07,281.87 190.99,288.18 196.65,285.2 202.32,288.18 
			201.24,281.87 205.82,277.4 199.48,276.48 		"/>
		<polygon class="st10" points="72.65,397 69.82,402.74 63.48,403.66 68.07,408.13 66.99,414.44 72.65,411.46 78.32,414.44 
			77.23,408.13 81.82,403.66 75.48,402.74 		"/>
		<polygon class="st10" points="313.98,38.78 311.15,44.52 304.81,45.44 309.4,49.91 308.32,56.22 313.98,53.24 319.65,56.22 
			318.57,49.91 323.15,45.44 316.81,44.52 		"/>
		<polygon class="st10" points="801.79,183.99 798.96,189.73 792.63,190.65 797.21,195.12 796.13,201.42 801.79,198.45 
			807.46,201.42 806.38,195.12 810.96,190.65 804.63,189.73 		"/>
		<polygon class="st6" points="476.54,35.63 473.71,41.37 467.37,42.29 471.96,46.76 470.88,53.07 476.54,50.09 482.21,53.07 
			481.12,46.76 485.71,42.29 479.37,41.37 		"/>
		<polygon class="st6" points="562.11,149.03 559.27,154.77 552.94,155.69 557.52,160.16 556.44,166.46 562.11,163.49 
			567.77,166.46 566.69,160.16 571.27,155.69 564.94,154.77 		"/>
		<polygon class="st5" points="755.61,335.11 751.51,343.41 742.35,344.75 748.98,351.21 747.41,360.33 755.61,356.02 763.8,360.33 
			762.23,351.21 768.86,344.75 759.7,343.41 		"/>
		<g>
			<path class="st7" d="M163.02,169c0,0-29.46,3.97-32.4-13.75l1.06-8.72c0,0,4.55,17,28.54,13.92l0.71,4.66L163.02,169z"/>
			<path class="st7" d="M182.79,210.47c0,0-25.91,6.7-40.37-0.41c0,0-3.54-2.69-3.23-9.89c0,0,6.53,9.11,35.74,1.62l3.08,4.91
				L182.79,210.47z"/>
			<path class="st8" d="M168.33,236.8l-7.6-7.87c0,0,12.25-12.29,14.2-27.13l7.86,8.67C182.79,210.47,182.19,223.98,168.33,236.8z"
				/>
			<path class="st8" d="M156.86,131.16l1.38,10.85c0,0-17.17,2.51-27.62,13.23l-1.11-11.65
				C129.51,143.6,138.09,133.14,156.86,131.16z"/>
			<path class="st8" d="M142.43,210.06c0,0-6.85-15.51,20.6-41.06c0,0-0.34-3.74-2.8-8.55c0,0-22.57,13.3-24.3,36.05
				C135.92,196.5,135.77,206.91,142.43,210.06z"/>
		</g>
		<g>
			<path class="st10" d="M837.09,317.81l-1.31,8.2c-28.63,4.3-36.71,20.33-36.71,20.33l1.77-12.1
				C806.52,323.6,837.09,317.81,837.09,317.81z"/>
			<path class="st10" d="M799.29,300.66c0,0,9.89-13.46,36.11-26.2c0,0,1.46,7.22-1.42,10.12c0,0-31.1,18.08-33.21,26.24
				C800.77,310.82,797.24,306.7,799.29,300.66z"/>
			<path class="st10" d="M837.09,317.81l-1.31,8.2c-28.63,4.3-36.71,20.33-36.71,20.33l1.77-12.1
				C806.52,323.6,837.09,317.81,837.09,317.81z"/>
			<path class="st10" d="M799.29,300.66c0,0,9.89-13.46,36.11-26.2c0,0,1.46,7.22-1.42,10.12c0,0-31.1,18.08-33.21,26.24
				C800.77,310.82,797.24,306.7,799.29,300.66z"/>
			<path class="st10" d="M837.09,317.81l-1.31,8.2c-28.63,4.3-36.71,20.33-36.71,20.33l1.77-12.1
				C806.52,323.6,837.09,317.81,837.09,317.81z"/>
			<path class="st10" d="M799.29,300.66c0,0,9.89-13.46,36.11-26.2c0,0,1.46,7.22-1.42,10.12c0,0-31.1,18.08-33.21,26.24
				C800.77,310.82,797.24,306.7,799.29,300.66z"/>
			<path class="st10" d="M837.09,317.81l-1.31,8.2c-28.63,4.3-36.71,20.33-36.71,20.33l1.77-12.1
				C806.52,323.6,837.09,317.81,837.09,317.81z"/>
			<path class="st10" d="M799.29,300.66c0,0,9.89-13.46,36.11-26.2c0,0,1.46,7.22-1.42,10.12c0,0-31.1,18.08-33.21,26.24
				C800.77,310.82,797.24,306.7,799.29,300.66z"/>
			<path class="st10" d="M819.95,242.7l-5.33,5.16c0,0,20.31,19.46,19.36,36.72C833.98,284.58,849.24,277.41,819.95,242.7z"/>
			<path class="st10" d="M799.29,300.66c0,0-1.03,13.95,37.8,17.15c0,0,1.25,5.3-1.31,8.2C835.78,326,791.16,323.38,799.29,300.66z"
				/>
			<path class="st10" d="M800.83,334.24c0,0,0.31,16.86,6.8,25.11l-6.11,4.43C801.52,363.77,791.58,348.37,800.83,334.24z"/>
		</g>
		<g>
			<g>
				<path class="st9" d="M766.89,234.43l1.16,8.18c-25.98,12.5-28.97,30.12-28.97,30.12l-1.87-12.03
					C739.5,248.92,766.89,234.43,766.89,234.43z"/>
				<path class="st9" d="M725.89,229.21c0,0,4.97-15.24,26.18-35.06c0,0,2.41,3.61,2.66,9.51c0,0-24.83,26.41-24.44,34.79
					C730.28,238.44,725.71,235.56,725.89,229.21z"/>
				<path class="st9" d="M742.94,160.73c0,0-2.41,12.8-23.62,32.62c0,0-5.41-0.27-5.65-6.16c0,0,25.27-27.31,24.88-35.69
					C738.55,151.49,743.12,154.38,742.94,160.73z"/>
				<path class="st9" d="M766.89,234.43l1.16,8.18c-25.98,12.5-28.97,30.12-28.97,30.12l-1.87-12.03
					C739.5,248.92,766.89,234.43,766.89,234.43z"/>
				<path class="st9" d="M725.89,229.21c0,0,4.97-15.24,26.18-35.06c0,0,2.41,3.61,2.66,9.51c0,0-24.83,26.41-24.44,34.79
					C730.28,238.44,725.71,235.56,725.89,229.21z"/>
				<path class="st9" d="M742.94,160.73c0,0-2.41,12.8-23.62,32.62c0,0-5.41-0.27-5.65-6.16c0,0,25.27-27.31,24.88-35.69
					C738.55,151.49,743.12,154.38,742.94,160.73z"/>
				<path class="st9" d="M766.89,234.43l1.16,8.18c-25.98,12.5-28.97,30.12-28.97,30.12l-1.87-12.03
					C739.5,248.92,766.89,234.43,766.89,234.43z"/>
				<path class="st9" d="M725.89,229.21c0,0,4.97-15.24,26.18-35.06c0,0,2.41,3.61,2.66,9.51c0,0-24.83,26.41-24.44,34.79
					C730.28,238.44,725.71,235.56,725.89,229.21z"/>
				<path class="st9" d="M742.94,160.73c0,0-2.41,12.8-23.62,32.62c0,0-5.41-0.27-5.65-6.16c0,0,25.27-27.31,24.88-35.69
					C738.55,151.49,743.12,154.38,742.94,160.73z"/>
				<path class="st9" d="M766.89,234.43l1.16,8.18c-25.98,12.5-28.97,30.12-28.97,30.12l-1.87-12.03
					C739.5,248.92,766.89,234.43,766.89,234.43z"/>
				<path class="st9" d="M725.89,229.21c0,0,4.97-15.24,26.18-35.06c0,0,2.41,3.61,2.66,9.51c0,0-24.83,26.41-24.44,34.79
					C730.28,238.44,725.71,235.56,725.89,229.21z"/>
				<path class="st9" d="M742.94,160.73c0,0-2.41,12.8-23.62,32.62c0,0-5.41-0.27-5.65-6.16c0,0,25.27-27.31,24.88-35.69
					C738.55,151.49,743.12,154.38,742.94,160.73z"/>
				<path class="st9" d="M700.63,148.72l1.25,7.28c0,0,27.41-5.78,41.07,4.7C742.95,160.69,746.75,140.58,700.63,148.72z"/>
				<path class="st9" d="M725.89,229.21c0,0,3.12,13.57,41,5.22c0,0,2.75,4.68,1.16,8.18C768.05,242.62,724.82,253.22,725.89,229.21
					z"/>
				<path class="st9" d="M754.72,203.65c0,0-2.11-13.77-40.5-8.22c0,0-2.4-4.87-0.55-8.25
					C713.67,187.19,757.56,179.79,754.72,203.65z"/>
			</g>
			<path class="st9" d="M737.21,260.7c0,0,5.25,15.96,13.84,21.89l-4.52,6.01C746.53,288.61,732.56,276.87,737.21,260.7z"/>
		</g>
		<path class="st1" d="M43.27,59.88c0,0,0.41,12.35-12.35,13.58l12.35,8.64c0,0,8.64-4.53,9.47-22.23H43.27z"/>
		<path class="st10" d="M628.57,119.02l5.74,7.23c0,0,12.96-4.77,15.84-12.69l-3.42-8.98C646.73,104.57,637.57,120.19,628.57,119.02
			z"/>
		<path class="st10" d="M8.89,122.96l5.74,7.23c0,0,12.96-4.77,15.84-12.69l-3.42-8.98C27.05,108.51,17.89,124.13,8.89,122.96z"/>
		<path class="st11" d="M275.81,405.1c-4.04-10.51,4.85-26.67,4.85-26.67l12.13,2.26c-10.11,6.7-5.66,30.48-5.66,30.48L275.81,405.1
			z"/>
		<path class="st2" d="M71.2,2.26L59.07,0c0,0-8.89,16.17-4.85,26.67l11.32,6.06C65.54,32.74,61.09,8.96,71.2,2.26z"/>
		<polygon class="st6" points="139.99,42.5 139.99,66.75 151.3,66.75 148.07,42.5 		"/>
		<polygon class="st10" points="180.92,301.01 165.56,324.86 176.07,330.92 193.05,312.73 		"/>
		<path class="st6" d="M98.58,248.79c0,7.16-5.8,12.96-12.96,12.96c-7.16,0-12.96-5.8-12.96-12.96c0-7.16,5.8-12.96,12.96-12.96
			C92.77,235.83,98.58,241.63,98.58,248.79z"/>
		<path class="st1" d="M219.17,149.34c0,7.16-5.8,12.96-12.96,12.96s-12.96-5.8-12.96-12.96c0-7.16,5.8-12.96,12.96-12.96
			S219.17,142.18,219.17,149.34z"/>
		<path class="st6" d="M348.58,195.29c0,7.16-5.8,12.96-12.96,12.96s-12.96-5.8-12.96-12.96c0-7.16,5.8-12.96,12.96-12.96
			S348.58,188.14,348.58,195.29z"/>
		<path class="st2" d="M554.33,334.24c0,7.16-5.8,12.96-12.96,12.96c-7.16,0-12.96-5.8-12.96-12.96c0-7.16,5.8-12.96,12.96-12.96
			C548.53,321.27,554.33,327.08,554.33,334.24z"/>
		<path class="st2" d="M613.14,22.87c0,7.16-5.8,12.96-12.96,12.96s-12.96-5.8-12.96-12.96c0-7.16,5.8-12.96,12.96-12.96
			S613.14,15.72,613.14,22.87z"/>
		<path class="st6" d="M417.35,22.87c0,7.16-5.8,12.96-12.96,12.96s-12.96-5.8-12.96-12.96c0-7.16,5.8-12.96,12.96-12.96
			S417.35,15.71,417.35,22.87z"/>
		<path class="st1" d="M197.85,16.37c0,7.16-5.8,12.96-12.96,12.96s-12.96-5.8-12.96-12.96c0-7.16,5.8-12.96,12.96-12.96
			S197.85,9.21,197.85,16.37z"/>
		<path class="st2" d="M32.94,199.3c0,7.16-5.8,12.96-12.96,12.96c-7.16,0-12.96-5.8-12.96-12.96c0-7.16,5.8-12.96,12.96-12.96
			C27.14,186.34,32.94,192.14,32.94,199.3z"/>
		<path class="st9" d="M168.68,368.85c0,4.62-3.74,8.36-8.36,8.36s-8.36-3.75-8.36-8.36c0-4.62,3.74-8.36,8.36-8.36
			S168.68,364.23,168.68,368.85z"/>
		<path class="st2" d="M46.52,392.43c0,4.62-3.74,8.36-8.36,8.36s-8.36-3.75-8.36-8.36c0-4.62,3.74-8.36,8.36-8.36
			S46.52,387.81,46.52,392.43z"/>
		<path class="st9" d="M372.46,83.93c0,7.16-5.8,12.96-12.96,12.96s-12.96-5.8-12.96-12.96c0-7.16,5.8-12.96,12.96-12.96
			S372.46,76.77,372.46,83.93z"/>
		<path class="st9" d="M353.22,306.96c0,7.16-5.8,12.96-12.96,12.96s-12.96-5.8-12.96-12.96c0-7.16,5.8-12.96,12.96-12.96
			S353.22,299.81,353.22,306.96z"/>
		<polygon class="st2" points="315.59,245.46 319.69,253.76 328.85,255.09 322.22,261.55 323.79,270.68 315.59,266.37 307.4,270.68 
			308.97,261.55 302.34,255.09 311.5,253.76 		"/>
		<g>
			<path class="st6" d="M281.39,108.71l2.02-8.24l4.23-2.42c0,0-14.2-0.81-23.05,3.99l-5.41,11.11
				C259.18,113.15,273.56,108.32,281.39,108.71z"/>
			<path class="st6" d="M281.39,108.71l2.02-8.24l4.23-2.42c0,0-14.2-0.81-23.05,3.99l-5.41,11.11
				C259.18,113.15,273.56,108.32,281.39,108.71z"/>
			<path class="st6" d="M274.56,90.55c13.84-4.97,29.86-0.29,29.86-0.29l4.56-11.48c-12.04-5-27.61,1.46-27.61,1.46l-1.64,4.98
				L274.56,90.55z"/>
			<path class="st6" d="M274.56,90.55c13.84-4.97,29.86-0.29,29.86-0.29l4.56-11.48c-12.04-5-27.61,1.46-27.61,1.46l-1.64,4.98
				L274.56,90.55z"/>
			<path class="st6" d="M275.21,60.65l29.22,29.61c0,0,4.2-4.98,4.56-11.48l-29.22-29.61C275.57,54.15,275.21,60.65,275.21,60.65z"
				/>
			<path class="st6" d="M274.56,90.55l6.83,18.16c0,0,4.9-4.29,6.24-10.66l-6.26-17.81C276.24,84.26,274.56,90.55,274.56,90.55z"/>
			<path class="st6" d="M248.35,150.55l3.16,10.35c0,0-0.16-24.13,23.62-21.76l-1.73-12.63C273.4,126.5,249.49,127.88,248.35,150.55
				z"/>
			<path class="st6" d="M248.35,150.55l3.16,10.35c0,0-0.16-24.13,23.62-21.76l-1.73-12.63C273.4,126.5,249.49,127.88,248.35,150.55
				z"/>
			<path class="st6" d="M264.26,164.9l-1.07-8.46c0,0-12.42,1.99-14.84-5.89C248.35,150.55,246.43,165.85,264.26,164.9z"/>
			<path class="st6" d="M259.18,113.15l15.95,25.99c0,0,3.81-5.28,3.68-11.79l-14.23-25.3
				C260.03,106.69,259.18,113.15,259.18,113.15z"/>
		</g>
		<g>
			<g>
				<path class="st12" d="M439.44,98.39l3.74-5.76c-15.21-18.51-11.29-32.85-11.29-32.85l-5.62,8.42
					C423.87,77.89,439.44,98.39,439.44,98.39z"/>
				<path class="st12" d="M406.71,87.98c0,0-1.59,13.23,7.46,35.59c0,0,3.08-1.88,5.33-6.24c0,0-9.48-28.6-6.25-34.78
					C413.25,82.56,408.79,83.13,406.71,87.98z"/>
				<path class="st12" d="M395.59,145.57c0,0,2.66-10.49-6.39-32.86c0,0-4.17-1.69-6.42,2.67c0,0,9.49,29.43,6.26,35.62
					C389.05,151,393.51,150.43,395.59,145.57z"/>
				<path class="st12" d="M439.44,98.39l3.74-5.76c-15.21-18.51-11.29-32.85-11.29-32.85l-5.62,8.42
					C423.87,77.89,439.44,98.39,439.44,98.39z"/>
				<path class="st12" d="M406.71,87.98c0,0-1.59,13.23,7.46,35.59c0,0,3.08-1.88,5.33-6.24c0,0-9.48-28.6-6.25-34.78
					C413.25,82.56,408.79,83.13,406.71,87.98z"/>
				<path class="st12" d="M395.59,145.57c0,0,2.66-10.49-6.39-32.86c0,0-4.17-1.69-6.42,2.67c0,0,9.49,29.43,6.26,35.62
					C389.05,151,393.51,150.43,395.59,145.57z"/>
				<path class="st12" d="M439.44,98.39l3.74-5.76c-15.21-18.51-11.29-32.85-11.29-32.85l-5.62,8.42
					C423.87,77.89,439.44,98.39,439.44,98.39z"/>
				<path class="st12" d="M406.71,87.98c0,0-1.59,13.23,7.46,35.59c0,0,3.08-1.88,5.33-6.24c0,0-9.48-28.6-6.25-34.78
					C413.25,82.56,408.79,83.13,406.71,87.98z"/>
				<path class="st12" d="M395.59,145.57c0,0,2.66-10.49-6.39-32.86c0,0-4.17-1.69-6.42,2.67c0,0,9.49,29.43,6.26,35.62
					C389.05,151,393.51,150.43,395.59,145.57z"/>
				<path class="st12" d="M439.44,98.39l3.74-5.76c-15.21-18.51-11.29-32.85-11.29-32.85l-5.62,8.42
					C423.87,77.89,439.44,98.39,439.44,98.39z"/>
				<path class="st12" d="M406.71,87.98c0,0-1.59,13.23,7.46,35.59c0,0,3.08-1.88,5.33-6.24c0,0-9.48-28.6-6.25-34.78
					C413.25,82.56,408.79,83.13,406.71,87.98z"/>
				<path class="st12" d="M395.59,145.57c0,0,2.66-10.49-6.39-32.86c0,0-4.17-1.69-6.42,2.67c0,0,9.49,29.43,6.26,35.62
					C389.05,151,393.51,150.43,395.59,145.57z"/>
				<path class="st12" d="M359.5,139.82l3.49-5.05c0,0,18.64,13.95,32.6,10.83C395.59,145.6,391.42,162.1,359.5,139.82z"/>
				<path class="st12" d="M406.71,87.98c0,0,7.1-9.14,32.73,10.41c0,0,3.71-2.56,3.74-5.76C443.18,92.63,414.31,69.51,406.71,87.98z
					"/>
				<path class="st12" d="M419.5,117.34c0,0-6.41,9.64-33.41-7.98c0,0-3.51,2.83-3.3,6.02C382.79,115.38,413.28,136.32,419.5,117.34
					z"/>
			</g>
			<path class="st12" d="M426.26,68.2c0,0,9.54-10.19,18.1-11.66l-1.3-6.11C443.06,50.43,428.42,54.39,426.26,68.2z"/>
		</g>
	</g>
	<path class="st0" d="M280.07,889.91c-3.16,25.16-0.84,20.17-29.51,31.51c-28.67,11.33-8.39,12.01-5.33,11.33
		c9.71-2.14,18.67-8.67,39.33-6s8.1-19.56,8.1-19.56l-0.77-23.11L280.07,889.91z"/>
	<path class="st1" d="M272.34,969.52c-24.19,0-46.71-1.51-65.66-4.11c-14.82,2.57-33.7,4.11-54.28,4.11
		c-47.62,0-86.23-8.25-86.23-18.44s38.61-18.44,86.23-18.44c3.03,0,6.02,0.03,8.97,0.1c19.13-9.03,61.6-15.31,110.97-15.31
		c67.27,0,121.8,11.66,121.8,26.04S339.61,969.52,272.34,969.52z"/>
	<path class="st4" d="M250.56,921.42c-28.67,11.33-8.39,12.01-5.33,11.33c9.71-2.14,18.67-8.67,39.33-6s8.1-19.56,8.1-19.56
		s-16.19,10.06-24.69,7.56L250.56,921.42z"/>
	<path class="st0" d="M455.13,859.98c4.94,8.77,5.05,20.35,5.55,26.85c0.64,8.39,7.77,6.02-5.5,19.04
		c-15.37,15.09-0.05,12.58,2,10.21c6.53-7.51,5.3-19.01,23.49-29.17c18.19-10.16-5.13-20.54-5.13-20.54l-14.38-18.11L455.13,859.98z
		"/>
	<path class="st4" d="M455.18,905.87c-18.62,17.46-0.09,13.1,2.46,11.28c8.54-6.07,4.84-20.08,23.03-30.24
		c18.19-10.16-5.13-20.54-5.13-20.54s-7.02,17.72-15.34,20.77L455.18,905.87z"/>
	<path class="st13" d="M254.05,431.59c22.36-26.22,12.12-57.68,12.12-57.68l52.93-1.55l44.47,28.76c0,0-1.75,17.07-4.96,51.38
		C358.6,452.5,241.42,446.41,254.05,431.59z"/>
	<path class="st2" d="M331.87,565.33c0.49,7.53-5.21,14.03-12.74,14.53c-7.53,0.49-14.03-5.21-14.53-12.74
		c-0.49-7.53,5.21-14.03,12.74-14.53C324.87,552.09,331.37,557.8,331.87,565.33z"/>
	<path class="st1" d="M341.27,581.87c0,0-5.74-21.06-5.84-28.28c-0.3-22,15.44-86.66,15.44-86.66c2.04-10-14.79-13.95-23.41-11.9
		l-62.35,9.11c-8.62,2.05-13.55,11.14-13.67,20.68l-3,30.27l25.48,83.75L341.27,581.87z"/>
	<path class="st14" d="M289.31,456.61l4.36-39.4c1.25-11.32,9.34-19.8,17.97-18.85l0,0c8.63,0.96,14.67,11,13.41,22.32l-6.37,40.48
		C318.69,461.16,285.21,476.44,289.31,456.61z"/>
	<path class="st1" d="M234.63,566.97l-20.27-25.44l34.32-53.2c4.78-9.57,23.62-30.77,32.42-24.68l0,0
		c8.8,6.09,11.61,26.83,4.34,34.68L234.63,566.97z"/>
	<path class="st15" d="M311.65,395.36L311.65,395.36c-8.63-0.96-16.72,7.52-17.97,18.85l-3.61,32.59c3.28,2.43,7,4,11.13,4.45
		c7.38,0.82,13.37-0.92,19.81-7.48l4.06-26.08C326.31,406.36,320.27,396.31,311.65,395.36z"/>
	<g>
		<path class="st15" d="M274.2,365.23c-0.33-0.04-0.65-0.08-0.97-0.09l-0.01,0l0,0c-6-0.35-11.66,3.45-13.42,9.46
			c-2.04,6.99,1.97,14.31,8.95,16.35c6.99,2.04,14.31-1.97,16.35-8.95c1.19-4.06,0.33-8.23-1.97-11.42
			c-0.69,3.84-2.56,8.33-7.48,7.49l2.13-7.3C278.65,367.82,276.26,365.7,274.2,365.23z"/>
		<path class="st15" d="M361.19,388.88c0.3,0.13,0.6,0.27,0.89,0.41l0.01,0.01l0,0c5.35,2.73,8.31,8.88,6.78,14.95
			c-1.78,7.06-8.94,11.34-16,9.57c-7.06-1.78-11.34-8.94-9.57-16c1.03-4.1,3.88-7.27,7.48-8.85c-1.35,3.67-2.01,8.48,2.65,10.25
			l1.85-7.37C356.04,388.86,359.18,388.24,361.19,388.88z"/>
	</g>
	<path class="st14" d="M299.94,440.96c15.88,5.35,41.34-18.38,58.09-40.19l8.57-30.67c6.68-23.91-7.42-48.93-31.32-55.61l0,0
		c-23.9-6.68-48.93,7.42-55.61,31.33l-8.39,30.02C274.65,401.64,281.93,434.9,299.94,440.96z"/>
	<path class="st15" d="M283.83,388.89c3.26-0.58,6.76,2.18,7.82,6.17c1.06,3.99-0.72,7.69-3.97,8.27c-3.26,0.58-6.76-2.18-7.82-6.17
		C278.8,393.17,280.57,389.47,283.83,388.89z"/>
	<path class="st15" d="M333.79,403.4c4.49-0.71,8.45,1.86,8.83,5.74c0.39,3.88-2.95,7.61-7.44,8.32c-4.49,0.71-8.45-1.86-8.84-5.74
		C325.97,407.84,329.3,404.11,333.79,403.4z"/>
	<g>
		<path class="st13" d="M333.6,370.32c-1.03,0.16-1.74,1.13-1.58,2.16c0.16,1.03,1.13,1.74,2.16,1.58c0.02,0,6.23-1.07,10.55,3.69
			c0.7,0.77,1.91,0.83,2.68,0.13c0.77-0.7,0.83-1.91,0.13-2.68C341.84,368.91,333.62,370.31,333.6,370.32z"/>
		<path class="st13" d="M290.39,359.12c-1.01,0.24-1.64,1.26-1.4,2.28c0.24,1.01,1.26,1.64,2.28,1.4c0.02,0,6.13-1.57,10.82,2.82
			c0.77,0.72,1.97,0.68,2.69-0.09c0.71-0.77,0.67-1.97-0.09-2.68C298.49,357.05,290.41,359.12,290.39,359.12z"/>
	</g>
	<path class="st16" d="M312.72,401.92c-1.52,0-3.35-0.55-4.36-1.18c-0.63-0.39-0.92-0.78-0.88-1.21l1,0.09c0-0.04,0-0.07-0.01-0.07
		c0.07,0.16,0.73,0.63,1.97,1c1.52,0.46,2.97,0.5,3.59,0.11c0.56-0.35,0.92-2.71,0.52-6.52l0.99-0.11c0.25,2.4,0.47,6.56-0.98,7.47
		C314.08,401.8,313.43,401.92,312.72,401.92z"/>
	<path class="st13" d="M370.4,383.78l-4.08,8.95c0,0-5.8-0.87-7.21,4.17c0,0-2.5-6.3,0.12-12.56c0,0-7.22-15.48-2.83-29.3
		c4.38-13.82,10.23-22.46,10.23-22.46S381.87,354.62,370.4,383.78z"/>
	<path class="st13" d="M269.31,355.54l-1.15,9.77c0,0,5.42,2.26,4.01,7.3c0,0,5.4-4.09,6.41-10.8c0,0,14.2-9.5,17.61-23.59
		c3.41-14.09-0.18-21.91-0.18-21.91S274.61,324.66,269.31,355.54z"/>
	<path class="st17" d="M296.67,406.9c-1.41,5.04,4.05,11.8,9.09,13.21c5.05,1.41,13.88-2.07,15.29-7.12
		c0.26-0.93-3.89-1.36-4.82-1.61l-14.9-4.16C300.41,406.96,296.94,405.97,296.67,406.9z"/>
	<path class="st13" d="M367.56,338.45c0,0-11.89-81.11-81.21-27.08c-14.55,11.34-29.81,23.19-29.39,30.66
		C258.53,370.14,355.27,372.81,367.56,338.45z"/>
	<path class="st18" d="M366.63,332.57c0,0-44.16,36.81-101.54-2.58l13.31-12.61c0,0,27.95,36.13,88.29,14.65L366.63,332.57z"/>
	<polygon class="st19" points="406.64,675.71 416.14,658.89 407.48,665.56 406.64,667.04 	"/>
	<path class="st0" d="M221.66,907.2"/>
	<path class="st0" d="M554.35,454.56c0,0-91.93-49.08-84.16-58.75c7.78-9.66,25.89-14.67,106.06,23.81L554.35,454.56z"/>
	<path class="st0" d="M471.83,400.53c0,0,7.94-109.18,26.42-115.77c0,0,3.2-8.01,4.98,5.04c1.7,12.42,11.15,51.69-2.95,116.2
		L471.83,400.53z"/>
	<path class="st20" d="M606.16,468.32c0,0-11.76,9.28-15.98,8.76c-4.22-0.52-62.31-32.43-62.31-32.43l5.81-44.82l64,10.25
		C597.68,410.08,605.48,436.94,606.16,468.32z"/>
	<path class="st20" d="M694.39,485.78c0,0-0.26-28.04-9.21-52.7l-41.75-18.83c0,0,2.86,5.23-9.55,5.23
		c-12.41,0-14.95-9.54-14.95-9.54l-45.9-0.43c-11.59,30.16,0.34,76.27,0.34,76.27l24.06,121.8c12.2,21.23,101.83,12.62,114.5-9.42
		C711.93,598.17,658.6,521.17,694.39,485.78"/>
	<path class="st21" d="M363.51,396.86"/>
	<path class="st22" d="M365.22,392.96l-0.63-0.77c0.14-0.11,13.88-11.54,14.94-28.25c0.66-10.44-3.68-20.74-12.9-30.63
		c-3.64,3.99-33.49,35.52-66.38,34.44c-16.49-0.53-31.2-9.08-43.7-25.42l0.79-0.61c12.31,16.08,26.76,24.5,42.94,25.03
		c34.45,1.15,65.66-34.15,65.97-34.51l0.36-0.41l0.38,0.4c9.68,10.22,14.24,20.91,13.54,31.78
		C379.44,381.16,365.37,392.84,365.22,392.96z"/>
	
		<rect x="342.04" y="431.66" transform="matrix(0.0644 -0.9979 0.9979 0.0644 -92.7138 765.429)" class="st22" width="39.66" height="1"/>
	<path class="st23" d="M263.56,544.52c-28.3-14.88-7.6-65.95-7.39-66.46l0.92,0.38c-0.21,0.51-20.57,50.74,6.93,65.2L263.56,544.52z
		"/>
	<path class="st14" d="M647.02,415.93l7.53-27.34c2.87-10.44-1.45-20.81-9.6-23.06l0,0c-8.15-2.24-17.17,4.46-20.04,14.9
		l-7.53,27.34c0,0-8.95,17.15,4.05,18.48C634.43,427.58,647.02,415.93,647.02,415.93z"/>
	<path class="st15" d="M650.91,342.77L650.91,342.77c8.15,2.24,12.47,12.62,9.6,23.06l-7.53,27.34
		c-2.87,10.44-11.89,17.14-20.05,14.9l0,0c-8.15-2.24-12.47-12.62-9.6-23.06l7.53-27.34C633.73,347.23,642.75,340.53,650.91,342.77z
		"/>
	<path class="st15" d="M605.14,327.01c-2.69,6.47,0.38,13.9,6.85,16.59c0.18,0.08,0.37,0.15,0.55,0.21c0.43-4.7,1.41-9.2,2.98-13.25
		l1.39-3.62C619.77,319.52,609.64,316.18,605.14,327.01z"/>
	<path class="st15" d="M698.49,363.92c-2.35,6.6-9.61,10.05-16.21,7.7c-0.18-0.07-0.37-0.14-0.55-0.21
		c2.84-3.77,5.13-7.77,6.69-11.82l1.39-3.62C692.67,348.55,702.42,352.87,698.49,363.92z"/>
	<path class="st24" d="M606.53,322.11c0,0,5.19,2.14,3.38,6.83c0,0,5.55-3.42,7.13-9.76c0,0,14.48-7.8,19.04-20.99
		c4.56-13.19-4.5-19.87-4.5-19.87C604.51,276.03,615.1,299.89,606.53,322.11z"/>
	<path class="st0" d="M674.8,279.25c-21.42-8.26-45.94,3.1-54.47,25.24l-14.11,36.61c-0.04,0.26-0.07,0.53-0.11,0.79
		c2.62,0.37,5.11,3.65,5.77,7.81c0.73,4.56-1.02,8.44-3.89,8.66c-0.69,0.05-1.37-0.11-2.03-0.44c2.14,17.96,11.77,33.6,23.71,38.45
		c11.08,4.17,45.94-3.1,54.47-25.24l14.11-36.61C706.77,312.38,696.22,287.51,674.8,279.25z"/>
	<path class="st15" d="M659.11,363.23c-4.81,0.81-8.39,4.27-8.01,7.73c0.38,3.46,4.59,5.62,9.4,4.81c4.81-0.81,8.39-4.27,8.01-7.73
		C668.13,364.58,663.92,362.43,659.11,363.23z"/>
	<path class="st16" d="M611.88,349.71c-0.66-4.16-3.15-7.44-5.77-7.81c-0.77,5.4-0.78,10.81-0.16,16.03
		c0.66,0.33,1.35,0.5,2.03,0.44C610.86,358.14,612.61,354.27,611.88,349.71z"/>
	<path class="st16" d="M632.57,361.23c-1.47,0-3.23-0.53-4.21-1.13c-0.62-0.38-0.9-0.76-0.86-1.19c0.02-0.26,0.08-0.87,4.03-6.54
		l0.82,0.57c-3.45,4.95-3.82,5.89-3.85,6.06c0.07,0.07,0.73,0.53,1.96,0.88c1.43,0.41,2.78,0.45,3.36,0.08l0.53,0.85
		C633.89,361.11,633.26,361.23,632.57,361.23z"/>
	<g>
		<path class="st15" d="M632.16,323.81c0.71,0.72,0.7,1.87-0.02,2.57c-0.71,0.7-1.87,0.7-2.57-0.02c-0.01-0.01-4.2-4.41-10.27-3.22
			c-0.99,0.19-1.95-0.45-2.14-1.44c-0.19-0.99,0.45-1.95,1.44-2.14C626.62,317.99,632.15,323.8,632.16,323.81z"/>
		<path class="st15" d="M671.96,340.02c0.64,0.77,0.54,1.92-0.23,2.56c-0.77,0.64-1.92,0.54-2.57-0.23
			c-0.01-0.01-3.83-4.73-9.98-4.04c-1,0.11-1.91-0.61-2.02-1.61c-0.11-1,0.61-1.91,1.61-2.02C666.9,333.76,671.95,340,671.96,340.02
			z"/>
	</g>
	<path class="st24" d="M695.9,356.17c0,0-5.28-1.89-7.09,2.8c0,0-1.82-6.26,1.27-12.02c0,0-5.5-15.5-0.03-28.34
		c5.47-12.84,16.67-11.71,16.67-11.71C728.33,323.37,704.46,333.96,695.9,356.17z"/>
	<path class="st24" d="M693.13,322.2c0,0-2.89,3.53-5.68,2.03c-2.79-1.5-5.42-4.41-2.62-8.39c0,0-8.39-13.77-17.57-14.57
		c-9.18-0.8-32.49,7.52-51.04-0.69c-18.55-8.2-12.67-22.1,8.09-39.29c15.8-13.09,32.06-14.44,61.52-0.13
		c29.47,14.31,26.44,32.84,20.89,45.72C701.18,319.78,693.13,322.2,693.13,322.2z"/>
	<path class="st18" d="M708.62,282.6c-26.8,12.13-61.03,25.25-99.23-4.74c1.49-2.43,3.31-4.79,5.52-7.06
		c2.1-2.14,4.27-4.09,6.52-5.84c33.51,25.84,60.37,17.74,83.75,10.47C706.43,277.36,707.81,280.66,708.62,282.6z"/>
	<path class="st17" d="M641.7,372.05c-1.81,4.7-9.85,6.7-14.55,4.89c-4.7-1.81-8.77-8-6.96-12.7c0.33-0.86,1.31-1.3,2.17-0.96
		l18.38,6.61C641.6,370.21,642.04,371.19,641.7,372.05z"/>
	<path class="st22" d="M247.28,436.8l-0.65-0.76c24.73-21.4,25.36-79.59,25.37-80.17l1,0.01
		C272.98,356.46,272.34,415.11,247.28,436.8z"/>
	<path class="st25" d="M288.88,379.86c-0.13,0.7,0.34,1.37,1.04,1.5c0.7,0.13,1.37-0.34,1.5-1.04c0.21-1.13,0.85-2.07,1.72-2.68
		l0.01,0c0.87-0.6,1.97-0.87,3.11-0.67c1.13,0.21,2.08,0.85,2.68,1.72l0.01,0.01c0.6,0.87,0.87,1.98,0.67,3.11
		c-0.13,0.7,0.34,1.37,1.03,1.5c0.7,0.13,1.37-0.34,1.5-1.04c0.33-1.82-0.11-3.61-1.09-5.03l-0.01-0.01
		c-0.98-1.42-2.5-2.46-4.33-2.79c-1.71-0.31-3.39,0.06-4.76,0.91c-0.18-0.19-0.35-0.46-0.38-0.83c-0.03-0.31-0.31-0.54-0.62-0.51
		c-0.31,0.03-0.54,0.31-0.51,0.62c0.05,0.59,0.31,1.04,0.59,1.37l-0.05,0.04c-0.38-0.28-0.76-0.71-0.96-1.34
		c-0.09-0.3-0.42-0.47-0.71-0.37c-0.3,0.09-0.47,0.41-0.37,0.71c0.24,0.76,0.67,1.31,1.13,1.7l-0.01,0.01
		c-0.49-0.23-0.99-0.59-1.39-1.15c-0.18-0.26-0.54-0.31-0.8-0.13c-0.25,0.19-0.31,0.54-0.12,0.79c0.41,0.57,0.9,0.99,1.4,1.28
		l0.46,0.26C289.25,378.45,289.01,379.13,288.88,379.86z"/>
	<path class="st25" d="M338.19,391.12c-0.22,0.68-0.95,1.04-1.63,0.82c-0.67-0.22-1.04-0.95-0.81-1.63
		c0.36-1.09,0.25-2.23-0.22-3.17l-0.01-0.01c-0.47-0.95-1.31-1.72-2.4-2.08c-1.09-0.36-2.23-0.25-3.17,0.22l-0.01,0
		c-0.95,0.47-1.72,1.31-2.08,2.41c-0.22,0.68-0.95,1.04-1.63,0.82c-0.68-0.23-1.04-0.96-0.82-1.63c0.58-1.76,1.83-3.11,3.37-3.89
		l0.01,0c1.54-0.77,3.38-0.96,5.14-0.37c1.65,0.55,2.94,1.68,3.74,3.09c0.24-0.08,0.53-0.24,0.73-0.54
		c0.18-0.26,0.53-0.33,0.79-0.15c0.26,0.18,0.33,0.53,0.15,0.79c-0.33,0.49-0.77,0.77-1.18,0.92l0.03,0.06
		c0.47-0.07,1.01-0.26,1.49-0.71c0.23-0.22,0.59-0.21,0.8,0.02c0.22,0.23,0.21,0.59-0.02,0.8c-0.57,0.55-1.22,0.82-1.81,0.95l0,0.01
		c0.54,0.03,1.15-0.04,1.77-0.34c0.28-0.14,0.63-0.02,0.76,0.27c0.13,0.28,0.01,0.63-0.27,0.76c-0.64,0.31-1.26,0.43-1.84,0.45
		l-0.53,0.01C338.53,389.71,338.42,390.42,338.19,391.12z"/>
	<path class="st25" d="M614.67,334.15c-0.24,0.67,0.1,1.41,0.77,1.65c0.67,0.24,1.41-0.1,1.65-0.77c0.4-1.08,1.19-1.9,2.15-2.35
		l0.01,0c0.96-0.45,2.09-0.52,3.18-0.13c1.08,0.4,1.9,1.19,2.34,2.15l0.01,0.01c0.45,0.96,0.52,2.1,0.13,3.18
		c-0.24,0.67,0.1,1.41,0.76,1.65c0.67,0.25,1.41-0.1,1.65-0.77c0.64-1.74,0.51-3.58-0.22-5.14l-0.01-0.01
		c-0.73-1.57-2.05-2.85-3.79-3.49c-1.63-0.6-3.35-0.52-4.85,0.09c-0.14-0.21-0.26-0.51-0.23-0.88c0.02-0.31-0.21-0.59-0.53-0.61
		c-0.31-0.02-0.59,0.21-0.61,0.53c-0.05,0.59,0.13,1.08,0.35,1.46l-0.06,0.03c-0.33-0.34-0.63-0.83-0.72-1.48
		c-0.04-0.31-0.33-0.53-0.64-0.49c-0.31,0.04-0.53,0.33-0.49,0.64c0.1,0.79,0.44,1.4,0.82,1.87l-0.01,0.01
		c-0.44-0.31-0.87-0.75-1.18-1.37c-0.14-0.28-0.48-0.4-0.76-0.26c-0.28,0.14-0.4,0.48-0.26,0.76c0.31,0.63,0.71,1.12,1.16,1.5
		l0.41,0.34C615.29,332.82,614.93,333.45,614.67,334.15z"/>
	<path class="st25" d="M661.35,353.64c-0.34,0.63-1.12,0.86-1.74,0.53c-0.63-0.34-0.86-1.12-0.52-1.74
		c0.54-1.01,0.62-2.15,0.32-3.16l0-0.01c-0.3-1.01-1-1.91-2.01-2.46c-1.02-0.55-2.15-0.63-3.16-0.32l-0.01,0
		c-1.02,0.31-1.92,1-2.46,2.02c-0.34,0.63-1.12,0.86-1.74,0.53c-0.63-0.34-0.86-1.12-0.53-1.75c0.88-1.63,2.34-2.75,3.98-3.26
		l0.01,0c1.65-0.5,3.49-0.37,5.13,0.51c1.53,0.82,2.61,2.16,3.16,3.68c0.25-0.04,0.56-0.14,0.81-0.41c0.22-0.23,0.58-0.23,0.81-0.01
		c0.23,0.22,0.23,0.58,0.01,0.8c-0.41,0.43-0.89,0.62-1.32,0.7l0.01,0.06c0.47,0.01,1.04-0.08,1.58-0.45
		c0.26-0.18,0.62-0.11,0.79,0.15c0.18,0.26,0.11,0.61-0.15,0.79c-0.66,0.44-1.34,0.61-1.94,0.63l0,0.01
		c0.52,0.13,1.14,0.16,1.8-0.03c0.3-0.09,0.62,0.09,0.7,0.4c0.08,0.3-0.09,0.62-0.4,0.7c-0.68,0.19-1.31,0.21-1.89,0.13l-0.53-0.08
		C661.93,352.31,661.7,352.99,661.35,353.64z"/>
	<path class="st0" d="M157.48,494.07c0,0-3.2-31.52-8.93-34.68c-5.73-3.16-0.01,26.65-0.01,26.65L157.48,494.07z"/>
	<g>
		<path class="st3" d="M175.65,435.34l-18.57,7.28l-3.31-21.38l-18.83,5.55c-0.13,0.28-0.26,0.55-0.39,0.83
			c-0.63,1.43-1.15,2.88-1.59,4.34l18.89-5.57l3.25,20.98l18.04-7.07l5.95,20.67l3.72-1.69c1.26-1.58,2.41-3.29,3.42-5.13
			l-4.57,2.08L175.65,435.34z"/>
		<path class="st3" d="M152.04,452.69l-3.31-21.38l-16.78,4.95c-1.61,9.25,0.44,18.38,5.46,25.1c-4.82,12.2-14.37,33.97-23.23,39.83
			c-3.48,0.42-6.65,2.61-8.16,6.05c-2.26,5.17,0.1,11.2,5.27,13.47c5.17,2.26,11.2-0.1,13.47-5.27c0.78-1.78,1-3.65,0.76-5.44
			c0.79-4.47,5.4-26.13,22.23-40.32c0.04,0.02,0.09,0.04,0.13,0.06c9.41,4.11,20.11,2.15,28.53-4.19l-5.79-20.12L152.04,452.69z"/>
		<path class="st12" d="M188.91,424.41c-5.32,2.17-12.16,1.63-18.16-2c-6.13-3.7-9.81-9.68-10.25-15.51
			c-8.84,1.18-17.34,6.62-22.9,15.1l19.29-5.69l3.25,20.98l18.04-7.07l5.95,20.67l4.55-2.07
			C191.77,440.46,191.66,431.75,188.91,424.41z"/>
		<path class="st2" d="M178.17,430.23l-18.04,7.07l-3.25-20.98L137.59,422c-0.98,1.5-1.87,3.1-2.66,4.78l18.83-5.55l3.31,21.38
			l18.57-7.28l6.02,20.9l4.57-2.08c0.58-1.04,1.12-2.12,1.61-3.24c0.3-0.69,0.57-1.39,0.83-2.08l-4.55,2.07L178.17,430.23z"/>
		<path class="st12" d="M173.14,440.3l-18.04,7.07l-3.25-20.98l-18.89,5.57c-0.43,1.43-0.76,2.86-1.01,4.3l16.78-4.95l3.31,21.38
			l18.57-7.28l5.79,20.12c2.33-1.76,4.5-3.85,6.4-6.25l-3.72,1.69L173.14,440.3z"/>
		<path class="st2" d="M170.74,422.41c6.01,3.63,12.85,4.16,18.16,2c-1.03-2.74-2.43-5.28-4.17-7.54c-1.97,2-5.8,2.24-9.24,0.4
			c-3.97-2.12-5.92-6.21-4.36-9.13c0.08-0.15,0.18-0.3,0.27-0.44c-3.58-1.04-7.28-1.28-10.92-0.8
			C160.93,412.74,164.61,418.71,170.74,422.41z"/>
		<path class="st3" d="M175.49,417.27c3.44,1.84,7.27,1.6,9.24-0.4c-2.65-3.45-6.09-6.24-10.22-8.05c-1.02-0.45-2.06-0.81-3.1-1.11
			c-0.1,0.14-0.19,0.28-0.27,0.44C169.57,411.06,171.52,415.14,175.49,417.27z"/>
	</g>
	<polygon class="st1" points="161.5,493.69 223.55,537.16 210.11,569.74 148.09,506.2 	"/>
	<path class="st0" d="M683.43,518.08c0,0-35.49,55.43-44.73,47.15c-9.24-8.28-13.29-26.63,29.36-104.66L683.43,518.08z"/>
	<path class="st0" d="M639.37,565.52c0,0-96.9-41.82-96.94-61.44c-4.61,1.71-7.52-6.6,6.24-4.23c12.36,2.12,52.44,6.78,108.52,41.65
		L639.37,565.52z"/>
	<path class="st20" d="M661.56,465.63l-23.76,45.51l37.85,19.86c0,0,52.28-59.42,10.07-97.57
		C678.13,426.57,661.56,465.63,661.56,465.63z"/>
	<path class="st0" d="M492.81,290.44l11.86,4.97c0,0,21.03-21.48,20.68-31.59s-31.42-1.23-31.42-1.23S493.43,257.58,492.81,290.44z"
		/>
	<path class="st0" d="M504.67,295.4c0,0,27.25-16.18,27.7-22.7s-24.18,11.22-24.18,11.22L504.67,295.4z"/>
	<path class="st2" d="M760.1,913.58c0,0,24,15.33-1.33,33.33c0,0-7.33,10.67-4.33,32c2.66,18.9-37.33,9.33-37.33,9.33
		s-14-6,12.67-13.33l0.33-34.67C730.1,940.25,746.76,942.92,760.1,913.58z"/>
	<g>
		<path class="st3" d="M572.99,253.95l-20.63-2.71l7.74-21.2l-19.99-4.41c-0.26,0.19-0.52,0.37-0.77,0.57
			c-1.29,0.99-2.5,2.05-3.63,3.16l20.06,4.42l-7.59,20.8l20.04,2.63l-4.97,21.88l4.25,0.33c1.95-0.81,3.86-1.8,5.71-2.96l-5.22-0.4
			L572.99,253.95z"/>
		<path class="st3" d="M542.69,257.91l7.74-21.2l-17.82-3.93c-6.13,7.64-8.85,17.01-7.65,25.67c-10.54,8.72-30.23,23.79-41.27,24.69
			c-3.39-1.37-7.39-0.97-10.5,1.42c-4.67,3.59-5.55,10.28-1.96,14.96c3.59,4.67,10.28,5.55,14.96,1.96c1.6-1.23,2.75-2.83,3.43-4.59
			c2.98-3.69,18.09-21.15,40.61-25.63c0.03,0.04,0.06,0.08,0.09,0.12c6.52,8.49,17.29,12.09,28.17,10.54l4.84-21.3L542.69,257.91z"
			/>
		<path class="st12" d="M575.02,239.67c-3.73-6.47-4.09-13.78-1.56-19.33c-8.67-3.37-19.18-2.68-28.52,2.26l20.48,4.52l-7.59,20.8
			l20.04,2.63l-4.97,21.88l5.2,0.4c7.04-6.09,11.34-14.11,12.51-22.2C584.66,249.94,578.68,246,575.02,239.67z"/>
		<path class="st2" d="M577.87,250.55l-20.04-2.63l7.59-20.8l-20.48-4.52c-1.65,0.88-3.27,1.89-4.83,3.03l19.99,4.41l-7.74,21.2
			l20.63,2.71l-5.03,22.12l5.22,0.4c1.05-0.66,2.09-1.37,3.1-2.15c0.62-0.48,1.22-0.98,1.81-1.48l-5.2-0.4L577.87,250.55z"/>
		<path class="st12" d="M568.2,257.22l-20.04-2.63l7.59-20.8l-20.06-4.42c-1.11,1.09-2.14,2.23-3.09,3.42l17.82,3.93l-7.74,21.2
			l20.63,2.71l-4.84,21.3c3.02-0.43,6.04-1.25,8.99-2.48l-4.25-0.33L568.2,257.22z"/>
		<path class="st2" d="M581.43,230.08c0-1.52,0.28-2.97,0.79-4.29c-2.57-2.37-5.53-4.19-8.76-5.45c-2.54,5.55-2.18,12.86,1.56,19.33
			c3.66,6.34,9.64,10.27,15.59,10.97c0.45-3.1,0.43-6.2-0.05-9.21C585.39,240.56,581.43,235.82,581.43,230.08z"/>
		<path class="st3" d="M582.22,225.79c-0.5,1.33-0.79,2.77-0.79,4.29c0,5.73,3.96,10.47,9.13,11.34c-0.71-4.4-2.43-8.61-5.25-12.28
			C584.36,227.92,583.32,226.81,582.22,225.79z"/>
	</g>
	<path class="st15" d="M492.93,263.11c0,0,21.6-15.6,26.4-11.6c4.8,4,6,34-4,29.2C505.33,275.91,492.93,263.11,492.93,263.11z"/>
	<g>
		<path class="st3" d="M564.03,434.15l-17.01,11.99l-8.67-20.84l-17.69,10.3c-0.06,0.31-0.13,0.62-0.18,0.94
			c-0.28,1.61-0.45,3.21-0.53,4.79L537.69,431l8.51,20.45l16.52-11.64l11.17,19.46l3.35-2.64c0.88-1.91,1.62-3.93,2.19-6.04
			l-4.11,3.24L564.03,434.15z"/>
		<path class="st3" d="M544.42,457.59l-8.67-20.84l-15.77,9.18c0.67,9.77,5.02,18.51,11.76,24.07
			c-1.85,13.56-6.12,37.98-13.64,46.12c-3.42,1.29-6.09,4.29-6.76,8.15c-1.01,5.8,2.88,11.33,8.69,12.33
			c5.8,1.01,11.33-2.88,12.33-8.69c0.35-1.99,0.1-3.95-0.59-5.7c-0.31-4.73-1.02-27.81,12.51-46.37c0.05,0.01,0.1,0.02,0.15,0.03
			c10.55,1.83,20.9-2.82,27.86-11.34l-10.87-18.94L544.42,457.59z"/>
		<path class="st12" d="M574.74,419.79c-4.85,3.52-11.91,4.67-18.9,2.49c-7.13-2.23-12.35-7.36-14.24-13.16
			c-8.66,3.4-15.92,11.02-19.44,20.98l18.13-10.55l8.51,20.45l16.52-11.64l11.17,19.46l4.1-3.23
			C581.63,435.34,579.36,426.53,574.74,419.79z"/>
		<path class="st2" d="M565.31,428.36L548.79,440l-8.51-20.45l-18.13,10.55c-0.62,1.76-1.13,3.6-1.5,5.5l17.69-10.3l8.67,20.84
			l17.01-11.99l11.29,19.68l4.11-3.24c0.33-1.2,0.6-2.42,0.82-3.68c0.13-0.78,0.24-1.55,0.32-2.32l-4.1,3.23L565.31,428.36z"/>
		<path class="st12" d="M562.72,439.81l-16.52,11.64L537.69,431l-17.75,10.33c-0.08,1.55-0.06,3.09,0.04,4.6l15.77-9.18l8.67,20.84
			l17.01-11.99l10.87,18.94c1.93-2.36,3.6-5.02,4.93-7.92l-3.35,2.64L562.72,439.81z"/>
		<path class="st2" d="M555.84,422.28c6.98,2.18,14.05,1.03,18.9-2.49c-1.72-2.52-3.78-4.74-6.1-6.6c-1.5,2.52-5.32,3.71-9.26,2.7
			c-4.55-1.17-7.54-4.82-6.68-8.17c0.04-0.17,0.1-0.34,0.17-0.51c-3.88-0.17-7.69,0.51-11.26,1.91
			C543.5,414.92,548.71,420.05,555.84,422.28z"/>
		<path class="st3" d="M559.38,415.89c3.94,1.01,7.76-0.18,9.26-2.7c-3.54-2.83-7.72-4.81-12.36-5.61c-1.14-0.2-2.28-0.31-3.42-0.36
			c-0.06,0.17-0.12,0.33-0.17,0.51C551.84,411.06,554.83,414.72,559.38,415.89z"/>
	</g>
	<g>
		<path class="st3" d="M236.53,448.65l-17.01,11.99l-8.67-20.84l-17.69,10.3c-0.06,0.31-0.13,0.62-0.18,0.94
			c-0.28,1.61-0.45,3.21-0.53,4.79l17.75-10.33l8.51,20.45l16.52-11.64l11.17,19.46l3.35-2.64c0.88-1.91,1.62-3.93,2.19-6.04
			l-4.11,3.24L236.53,448.65z"/>
		<path class="st3" d="M216.92,472.09l-8.67-20.84l-15.77,9.18c0.67,9.77,5.02,18.51,11.76,24.07
			c-1.85,13.56-6.12,37.98-13.64,46.12c-3.42,1.29-6.09,4.29-6.76,8.15c-1.01,5.8,2.88,11.33,8.69,12.33
			c5.8,1.01,11.33-2.88,12.33-8.69c0.35-1.99,0.1-3.95-0.59-5.7c-0.31-4.73-1.02-27.81,12.51-46.37c0.05,0.01,0.1,0.02,0.15,0.03
			c10.55,1.83,20.9-2.82,27.86-11.34l-10.87-18.94L216.92,472.09z"/>
		<path class="st12" d="M247.24,434.29c-4.85,3.52-11.91,4.67-18.9,2.49c-7.13-2.23-12.35-7.36-14.24-13.16
			c-8.66,3.4-15.92,11.02-19.44,20.98l18.13-10.55l8.51,20.45l16.52-11.64l11.17,19.46l4.1-3.23
			C254.13,449.84,251.86,441.03,247.24,434.29z"/>
		<path class="st2" d="M237.81,442.86l-16.52,11.64l-8.51-20.45l-18.13,10.55c-0.62,1.76-1.13,3.6-1.5,5.5l17.69-10.3l8.67,20.84
			l17.01-11.99l11.29,19.68l4.11-3.24c0.33-1.2,0.6-2.42,0.82-3.68c0.13-0.78,0.24-1.55,0.32-2.32l-4.1,3.23L237.81,442.86z"/>
		<path class="st12" d="M235.22,454.31l-16.52,11.64l-8.51-20.45l-17.75,10.33c-0.08,1.55-0.06,3.09,0.04,4.6l15.77-9.18l8.67,20.84
			l17.01-11.99l10.87,18.94c1.93-2.36,3.6-5.02,4.93-7.92l-3.35,2.64L235.22,454.31z"/>
		<path class="st2" d="M228.34,436.78c6.98,2.18,14.05,1.03,18.9-2.49c-1.72-2.52-3.78-4.74-6.1-6.6c-1.5,2.52-5.32,3.71-9.26,2.7
			c-4.55-1.17-7.54-4.82-6.68-8.17c0.04-0.17,0.1-0.34,0.17-0.51c-3.88-0.17-7.69,0.51-11.26,1.91
			C216,429.42,221.21,434.55,228.34,436.78z"/>
		<path class="st3" d="M231.88,430.39c3.94,1.01,7.76-0.18,9.26-2.7c-3.54-2.83-7.72-4.81-12.36-5.61c-1.14-0.2-2.28-0.31-3.42-0.36
			c-0.06,0.17-0.12,0.33-0.17,0.51C224.34,425.56,227.33,429.22,231.88,430.39z"/>
	</g>
	<path class="st0" d="M547.49,512.65l3.31-13.05c0,0-20.56-22.54-30.7-21.35c-10.14,1.19-7.33,25.67-7.33,25.67
		S515.36,504.99,547.49,512.65z"/>
	<path class="st0" d="M551.16,500.33c0,0-19.01-25.35-25.54-25.1c-6.54,0.25,13.75,22.83,13.75,22.83L551.16,500.33z"/>
	<path class="st23" d="M325.13,568l-25.75-19.88l15.3-71.32c2.36-10.43,20.97-24.04,30.96-20.22l0,0
		c9.99,3.82,17.67,23.29,12.48,32.64L325.13,568z"/>
	<path class="st1" d="M326.13,569l-25.75-19.88l15.3-71.32c2.36-10.43,20.97-24.04,30.96-20.22l0,0
		c9.99,3.82,17.67,23.29,12.48,32.64L326.13,569z"/>
	<path class="st0" d="M233.43,526.58l8.5-9.5c0,0-28.64-30.58-38.63-32.19c-9.95-1.6-7.84,20.29-7.82,20.48c0,0,0,0,0,0.01
		C195.48,505.49,206.3,511.93,233.43,526.58z"/>
	<path class="st0" d="M272.53,587.89c0,0-12.6,125.7-3.6,159.7s11.14,142.33,11.14,142.33l11.82-5.83c0,0,25.54-118.5,10.54-152.5
		l22-139L272.53,587.89z"/>
	<path class="st0" d="M279.09,627.47c0,0,62.66,109.69,89.71,132.16c27.06,22.47,91.64,109.47,91.64,109.47l6.25-11.6
		c0,0-47.95-111.34-79.89-130.33l-62.72-125.98L279.09,627.47z"/>
	<path class="st16" d="M206.34,485.67l-10.73,19.37C195.61,505.05,189.75,480.77,206.34,485.67z"/>
	<path class="st0" d="M235.3,514.16c0,0-10.62-29.85-16.94-31.55c-6.32-1.7,6.34,25.89,6.34,25.89L235.3,514.16z"/>
	<path class="st23" d="M239.11,510.83l70.45,28.09c0,0,37.76-20.85,18.62,29.91c-5.75,15.25-24.76,7.94-24.76,7.94l-74.77-49.09
		L239.11,510.83z"/>
	<path class="st1" d="M239.11,512.83l69.42,25.98l33.4-7.73c0,0-13.75,42.75-21.5,45.25c-3.82,1.23-10.02,0.73-13.75-0.75
		c-20.63-8.19-77.61-47.4-77.61-47.4L239.11,512.83z"/>
	<path class="st1" d="M237.43,559.08c0,9.53-11.54,13.75-19,13.75s-13.5-7.72-13.5-17.25s6.04-17.25,13.5-17.25
		S237.43,549.56,237.43,559.08z"/>
	<path class="st16" d="M136.93,462.33c0,0,21.5,21.75,6.5,25.75s-23-6.5-23-6.5S122.18,455.83,136.93,462.33z"/>
	<path class="st12" d="M272.53,587.89l-90.1,96.7c0,0,154,122,237,1l-77.94-106.1L272.53,587.89z"/>
	
		<rect x="619.45" y="487.92" transform="matrix(0.3184 -0.9479 0.9479 0.3184 -25.8108 940.9335)" class="st26" width="43.96" height="1"/>
</g>
</svg>
