<?xml version="1.0" encoding="utf-8"?>
<!-- Generator: Adobe Illustrator 24.2.1, SVG Export Plug-In . SVG Version: 6.00 Build 0)  -->
<svg version="1.1" id="Слой_1" xmlns="http://www.w3.org/2000/svg" xmlns:xlink="http://www.w3.org/1999/xlink" x="0px" y="0px"
	 viewBox="0 0 864.61 999.02" style="enable-background:new 0 0 864.61 999.02;" xml:space="preserve">
<style type="text/css">
	.st0{fill:#FFFFFF;}
	.st1{fill:#8CA12E;}
	.st2{fill:#1C2036;}
	.st3{fill:#DB9C82;}
	.st4{fill:#E3AB84;}
	.st5{opacity:0.5;fill:#D7816C;}
	.st6{fill:#B7B5DC;}
	.st7{fill:#8E6BA0;}
	.st8{fill:#484A73;}
	.st9{fill-rule:evenodd;clip-rule:evenodd;fill:none;stroke:#EB5A3F;stroke-width:0;stroke-miterlimit:10;}
	.st10{fill-rule:evenodd;clip-rule:evenodd;fill:#E3AB84;}
	.st11{fill-rule:evenodd;clip-rule:evenodd;fill:#D7816C;}
	.st12{fill:#D7816C;}
	.st13{fill-rule:evenodd;clip-rule:evenodd;fill:#EB5A3F;}
	.st14{fill-rule:evenodd;clip-rule:evenodd;fill:#1C2036;}
	.st15{fill-rule:evenodd;clip-rule:evenodd;fill:#FFFFFF;}
	.st16{opacity:0.2;fill-rule:evenodd;clip-rule:evenodd;fill:#FFFFFF;}
	.st17{fill:#EB5A3F;}
	.st18{opacity:0.2;fill:#FFFFFF;}
	.st19{fill:#D7E6F7;}
	.st20{fill:#F2D066;}
	.st21{opacity:0.5;fill:#FFFFFF;}
</style>
<g>
	<g>
		<path class="st0" d="M864.61,240.84c-28.5,10.92-64.42,26.1-102.44,45.79c-80.68,41.8-187.68,112.93-239.14,214.57
			c-13.67,27.02-22.84,54.93-27.48,83.65c-1.83,0.11-3.67,0.22-5.53,0.3c4.67-29.69,14.08-58.52,28.21-86.4
			c52.1-102.93,160.13-174.8,241.56-216.94c38.89-20.14,75.61-35.6,104.52-46.62C864.45,237.07,864.56,238.95,864.61,240.84z"/>
		<path class="st0" d="M857.6,317.64c-0.4,1.94-0.86,3.91-1.35,5.88c-22.95,5.8-57.41,17.85-90.96,42.36
			c-41.85,30.55-89.02,85.97-103.09,184.1c-1.91,0.76-3.86,1.54-5.8,2.29c13.81-101.99,62.64-159.4,105.9-190.89
			C797.74,335.55,834.19,323.28,857.6,317.64z"/>
		<path class="st0" d="M419.97,585.41c-1.83-0.05-3.67-0.13-5.5-0.22c-0.65-15.02-3.4-36.57-12.22-60.67
			c-15.42-42.07-53.02-100.83-144.62-141.87c-91.71-41.12-147.99-97.86-162.77-164.14c-9.28-41.53-1.62-84.38,22.09-125.93
			c1.73,0.57,3.45,1.19,5.2,1.83c-23.46,40.67-31.07,82.49-22.03,122.94c14.4,64.53,69.63,120,159.72,160.37
			c93.46,41.91,131.84,102.09,147.56,145.24C416.54,548.01,419.37,570.1,419.97,585.41z"/>
		<path class="st0" d="M76.58,496.97c-1.65-1.19-3.26-2.37-4.88-3.64c6.2-41.91,3.07-106.81-43.6-184.21
			c-38.97-64.66-37.38-138.69,4.64-214.14c3.56-6.36,7.25-12.51,11.06-18.39c2.02,0.11,4.07,0.24,6.15,0.43
			c-4.31,6.58-8.55,13.48-12.57,20.71C-4.16,172.4-5.72,242.57,32.7,306.31C81.24,386.81,83.48,454.2,76.58,496.97z"/>
		<path class="st0" d="M343.33,579.32c-1.97-0.24-3.94-0.49-5.91-0.73c-12.67-37.27-38.78-89.1-89.47-112.53
			c-15.64-7.23-29.93-7.25-42.47-0.03c-22,12.7-35.78,45.36-44.17,75.67c-1.78-0.59-3.53-1.21-5.26-1.89
			c8.68-31.12,23.16-64.85,46.73-78.44c14.13-8.14,30.09-8.22,47.43-0.19C303.74,485.91,330.63,540.95,343.33,579.32z"/>
		<path class="st0" d="M759.66,44.23c-8.2,14.37-16.45,30.71-25.24,48.13c-40.85,81.03-91.71,181.91-203.54,207.18
			c-14.99,3.4-29.42,5.1-43.17,5.1c-31.52,0-59.68-8.9-84.03-26.64c-32.84-23.92-54.2-60.86-67.95-95.92
			c1.91-0.05,3.75-0.19,5.58-0.38c13.46,33.76,34.14,69.03,65.56,91.93c33.65,24.51,74.99,31.47,122.83,20.66
			c109.35-24.73,159.59-124.31,199.93-204.35c8.9-17.64,17.26-34.19,25.62-48.78C756.72,42.15,758.2,43.15,759.66,44.23z"/>
		<path class="st0" d="M728,25.3c-26.08,47.24-78.88,125.42-159.07,164.33c-12.62,6.12-24.92,9.17-36.86,9.17
			c-10.92,0-21.49-2.56-31.71-7.69c-28.37-14.21-49.97-46.09-65.8-79.66c1.32-1.59,2.64-3.18,3.96-4.83
			c15.53,33.68,36.7,65.85,64.26,79.66c19.77,9.92,41.23,9.41,63.77-1.51c78.82-38.24,130.84-115.17,156.59-161.8
			C724.77,23.71,726.38,24.49,728,25.3z"/>
		<path class="st0" d="M628.68,1.87c-4.85,34.06-19.23,77.23-60.3,87.51c-5.31,1.32-10.41,1.91-15.26,1.91
			c-27.29,0-47.27-19.39-60.81-40.04c1.4-1.11,2.83-2.21,4.23-3.26c14.97,23,38.1,44.22,70.54,36.13
			c37.29-9.3,50.99-49.67,55.9-82.14C624.88,1.92,626.8,1.87,628.68,1.87z"/>
	</g>
	<path class="st1" d="M517.49,804.36c-56.52,0-109.14-3.12-153.42-8.49c-34.63,5.3-78.75,8.49-126.81,8.49
		c-111.27,0-201.48-17.03-201.48-38.04s90.21-38.04,201.48-38.04c7.08,0,14.07,0.07,20.96,0.2c44.7-18.62,143.93-31.58,259.27-31.58
		c157.17,0,284.58,24.06,284.58,53.73S674.66,804.36,517.49,804.36z"/>
	<path class="st2" d="M582.63,585.38c0,0-33.06,24.7-39.79,31.06c0,0-115.06,40.27-120.26,65.68c-5.2,25.41,4.34,38.94,34.7,38.94
		c30.36,0,115.74-37.29,149.05-37.29c40.88,0,136.35,37.29,158.91,37.29c22.55,0,32.53-13.53,30.36-22.14
		c-2.17-8.61-119.36-80.24-131.07-85.16c-11.71-4.92-15.99-18.96-23.58-26.13C633.35,580.46,582.63,585.38,582.63,585.38z"/>
	<path class="st3" d="M194.82,707.49c0,0-17.73-5.29-14.05-8.97c3.68-3.68,35.33-2.42,42.54-2.42c7.22,0,13.29-6.46,18.99-6.46
		c5.7,0,16.71,17.85,16.71,17.85H194.82z"/>
	<path class="st2" d="M238.57,617.09c0,0-25.26,23.74-31.15,29.63c0,0-104.46,36.46-109.02,60.01c-4.56,23.55,3.8,36.09,30.39,36.09
		c26.59,0,100.81-44.3,129.97-44.3c35.8,0,119.96,44.3,139.71,44.3c19.75,0,28.49-12.54,26.59-20.51
		c-1.9-7.98-104.69-70.89-114.95-75.45c-10.26-4.56-13.84-21.03-20.49-27.68C282.99,612.54,238.57,617.09,238.57,617.09z"/>
	<path class="st4" d="M420.9,717.69c-8.34-6.56-46.34-12.48-61.53-12.48c-10.09,0-28.57,2.85-45.85,4.76
		c-35.95-8.98-94.08-12.82-102.19-14.74c-9.24-2.19-12.48-10.12-14.14-12.81c-1.66-2.69-16.58-0.78-23.46,3.47
		c-6.88,4.25-31.69-6.28-36.4,0.41c-4.71,6.69,43.53,10.69,56.31,16.06c10.27,4.31,23.86,6.2,46.65,16.86
		c0.05,0.02,0.04,0.09-0.01,0.1c-7.35,1.68-12.33,2.97-12.33,2.97c2.28,0,18.03,4.4,38.81,10.21c6.63,2.59,14.71,4.79,23.63,6.59
		c7.18,1.99,14.56,4.01,21.88,5.98c39.5,10.64,101.42,9.5,108.63-2.28C428.12,731.04,429.24,724.25,420.9,717.69z"/>
	<path class="st5" d="M420.9,717.69c-8.34-6.56-46.34-12.48-61.53-12.48c-10.09,0-28.57,2.85-45.85,4.76
		c-35.95-8.98-94.08-12.82-102.19-14.74c-9.24-2.19-12.48-10.12-14.14-12.81c-1.66-2.69-16.58-0.78-23.46,3.47
		c-6.88,4.25-31.69-6.28-36.4,0.41c-4.71,6.69,43.53,10.69,56.31,16.06c10.27,4.31,23.86,6.2,46.65,16.86
		c0.05,0.02,0.04,0.09-0.01,0.1c-7.35,1.68-12.33,2.97-12.33,2.97c2.28,0,18.03,4.4,38.81,10.21c6.63,2.59,14.71,4.79,23.63,6.59
		c7.18,1.99,14.56,4.01,21.88,5.98c39.5,10.64,101.42,9.5,108.63-2.28C428.12,731.04,429.24,724.25,420.9,717.69z"/>
	<path class="st4" d="M118.03,711.54c0,0,43.82-7.46,78-11.64c34.19-4.18,107.5,8.36,116.99,8.36c9.5,0,14.48-6.98,16.71-9.21
		c2.23-2.23,16.31,3.06,22.03,8.78c5.72,5.72,32.29,1.19,35.33,8.78c3.04,7.6-44.82,0.38-58.5,2.66
		c-13.67,2.28-103.32,15.57-141.3,26.59c-37.98,11.02-83.14,0.09-86.6-14.01C97.24,717.75,118.03,711.54,118.03,711.54z"/>
	<path class="st6" d="M243.56,483.75c-26.28,5.35-41.5,15.77-41.5,15.77s-15.71,11.62-11.09,22.18c4.62,10.56,25.14,78.7,25.58,85.3
		c0.44,6.6-11.14,40.79-11.14,40.79s35.68,11.56,104.18-1.93c-0.46-2.85-10.31-38.19-11.37-41.71c-1.06-3.52,10.3-53.91,12.94-62.27
		c2.64-8.36,7.39-43.74,6.51-45.95c0,0-29.22-13.56-42.11-12.17"/>
	<path class="st4" d="M642.83,486.1l59.08,102.17c3.08,8.51,11.98,13.44,20.83,11.51l0,0c10.62-2.31,16.82-13.4,13.2-23.65
		c-7.69-21.83-23.86-70.98-31.8-92.83c-3.86-10.64-19.36-15.24-29.2-9.65l0,0C667.21,478.04,639.8,477.73,642.83,486.1z"/>
	<line class="st7" x1="243.56" y1="483.95" x2="275.55" y2="483.95"/>
	<path class="st4" d="M303.24,535.9l36.26,81.09c2.85,7.89,11.1,12.45,19.3,10.67l0,0c9.84-2.14,15.58-12.42,12.23-21.92
		c-7.13-20.22-28.6-61.14-35.95-81.39c-3.58-9.86-15.16-14.12-24.28-8.94l0,0C303.63,519.49,300.43,528.14,303.24,535.9z"/>
	<path class="st4" d="M551.91,505.04l-45.67,82.15c-4.22,8.01-13.72,11.65-22.22,8.53l0,0c-10.2-3.75-14.81-15.59-9.81-25.25
		c10.63-20.56,18.5-65.61,32.52-84.15c8.32-11,16.53-13.08,25.5-6.19l0,0C539.28,485.56,556.06,497.17,551.91,505.04z"/>
	<g>
		<path class="st6" d="M315.17,494.77c0,0,13.28,2.79,27.99,41.62l-34.42,17.88l-11.2-33.31L315.17,494.77z"/>
	</g>
	<path class="st4" d="M213.36,535.9l-36.26,81.09c-2.85,7.89-11.1,12.45-19.3,10.67l0,0c-9.84-2.14-15.58-12.42-12.23-21.92
		c7.13-20.22,27.12-62.58,37.62-81.39c6.23-11.16,13.49-14.12,22.61-8.94l0,0C212.97,519.49,216.17,528.14,213.36,535.9z"/>
	<g>
		<path class="st6" d="M206.84,497.16c0,0-11.92-0.2-31.71,41.63l31.8,24.13l15.57-36.05L206.84,497.16z"/>
	</g>
	<path class="st2" d="M238.57,617.09c0,0-25.26,23.74-31.15,29.63c0,0-104.46,36.46-109.02,60.01c-4.56,23.55,3.8,36.09,30.39,36.09
		c26.59,0,104.2-37.72,133.36-37.72c35.8,0,116.57,37.72,136.32,37.72c19.75,0,28.49-12.54,26.59-20.51
		c-1.9-7.98-104.69-70.89-114.95-75.45c-10.26-4.56-13.84-21.03-20.49-27.68C282.99,612.54,238.57,617.09,238.57,617.09z"/>
	<path class="st4" d="M420.9,717.69c-8.34-6.56-46.34-12.48-61.53-12.48c-10.09,0-28.57,2.85-45.85,4.76
		c-35.95-8.98-94.08-12.82-102.19-14.74c-9.24-2.19-12.48-10.12-14.14-12.81c-1.66-2.69-16.58-0.78-23.46,3.47
		c-6.88,4.25-31.69-6.28-36.4,0.41c-4.71,6.69,43.53,10.69,56.31,16.06c10.27,4.31,23.86,6.2,46.65,16.86
		c0.05,0.02,0.04,0.09-0.01,0.1c-7.35,1.68-12.33,2.97-12.33,2.97c2.28,0,18.03,4.4,38.81,10.21c6.63,2.59,14.71,4.79,23.63,6.59
		c7.18,1.99,14.56,4.01,21.88,5.98c39.5,10.64,101.42,9.5,108.63-2.28C428.12,731.04,429.24,724.25,420.9,717.69z"/>
	<path class="st5" d="M420.9,717.69c-8.34-6.56-46.34-12.48-61.53-12.48c-10.09,0-28.57,2.85-45.85,4.76
		c-35.95-8.98-94.08-12.82-102.19-14.74c-9.24-2.19-12.48-10.12-14.14-12.81c-1.66-2.69-16.58-0.78-23.46,3.47
		c-6.88,4.25-31.69-6.28-36.4,0.41c-4.71,6.69,43.53,10.69,56.31,16.06c10.27,4.31,23.86,6.2,46.65,16.86
		c0.05,0.02,0.04,0.09-0.01,0.1c-7.35,1.68-12.33,2.97-12.33,2.97c2.28,0,18.03,4.4,38.81,10.21c6.63,2.59,14.71,4.79,23.63,6.59
		c7.18,1.99,14.56,4.01,21.88,5.98c39.5,10.64,101.42,9.5,108.63-2.28C428.12,731.04,429.24,724.25,420.9,717.69z"/>
	<path class="st4" d="M118.03,711.54c0,0,43.82-7.46,78-11.64c34.19-4.18,107.5,8.36,116.99,8.36c9.5,0,14.48-6.98,16.71-9.21
		c2.23-2.23,16.31,3.06,22.03,8.78c5.72,5.72,32.29,1.19,35.33,8.78c3.04,7.6-44.82,0.38-58.5,2.66
		c-13.67,2.28-103.32,15.57-141.3,26.59c-37.98,11.02-83.14,0.09-86.6-14.01C97.24,717.75,118.03,711.54,118.03,711.54z"/>
	<path class="st8" d="M243.56,483.75c-26.28,5.35-41.5,15.77-41.5,15.77s-15.71,11.62-11.09,22.18c4.62,10.56,25.14,78.7,25.58,85.3
		c0.44,6.6-11.14,40.79-11.14,40.79s35.68,11.56,104.18-1.93c-0.46-2.85-10.31-38.19-11.37-41.71c-1.06-3.52,10.3-53.91,12.94-62.27
		c2.64-8.36,7.39-43.74,6.51-45.95c0,0-29.22-13.56-42.11-12.17"/>
	<path class="st4" d="M303.24,535.9l36.26,81.09c2.85,7.89,11.1,12.45,19.3,10.67l0,0c9.84-2.14,15.58-12.42,12.23-21.92
		c-7.13-20.22-28.6-61.14-35.95-81.39c-3.58-9.86-15.16-14.12-24.28-8.94l0,0C303.63,519.49,300.43,528.14,303.24,535.9z"/>
	<g>
		<path class="st8" d="M315.17,494.77c0,0,13.28,2.79,27.99,41.62l-34.42,17.88l-11.2-33.31L315.17,494.77z"/>
	</g>
	<path class="st4" d="M213.36,535.9l-36.26,81.09c-2.85,7.89-11.1,12.45-19.3,10.67l0,0c-9.84-2.14-15.58-12.42-12.23-21.92
		c7.13-20.22,27.12-62.58,37.62-81.39c6.23-11.16,13.49-14.12,22.61-8.94l0,0C212.97,519.49,216.17,528.14,213.36,535.9z"/>
	<g>
		<path class="st8" d="M206.84,497.16c0,0-11.92-0.2-31.71,41.63l31.8,24.13l15.57-36.05L206.84,497.16z"/>
	</g>
	<path class="st4" d="M147.31,618.94c-0.58-0.86,1.59-0.89-57.39-74.56l3.79-4.94c5.54-1.93,5.04-2.99,7.94-0.47l74.74,67.96
		L147.31,618.94z"/>
	<line class="st4" x1="137.37" y1="594.94" x2="145.01" y2="610.68"/>
	<path class="st4" d="M790.83,693.94c-9.52-7.08-52.92-13.46-70.27-13.46c-11.53,0-32.63,3.07-52.36,5.14
		c-41.06-9.69-107.43-13.83-116.69-15.9c-10.55-2.36-12.07-13.38-13.96-16.28c-1.89-2.9-18.94-1.25-26.81,3.33
		c-7.86,4.59-41.54-5.89-46.91,1.33c-5.37,7.22,52.88,13.52,67.47,19.31c11.72,4.65,27.25,6.69,53.27,18.19
		c0.05,0.02,0.04,0.1-0.01,0.11c-8.39,1.81-14.08,3.21-14.08,3.21c2.61,0,20.59,4.74,44.32,11.02c7.57,2.79,16.8,5.17,26.99,7.12
		c8.2,2.15,16.62,4.33,24.98,6.46c45.11,11.48,115.81,10.25,124.05-2.46C799.07,708.35,800.35,701.02,790.83,693.94z"/>
	<path class="st5" d="M790.83,693.94c-9.52-7.08-52.92-13.46-70.27-13.46c-11.53,0-32.63,3.07-52.36,5.14
		c-41.06-9.69-107.43-13.83-116.69-15.9c-10.55-2.36-12.07-13.38-13.96-16.28c-1.89-2.9-18.94-1.25-26.81,3.33
		c-7.86,4.59-41.54-5.89-46.91,1.33c-5.37,7.22,52.88,13.52,67.47,19.31c11.72,4.65,27.25,6.69,53.27,18.19
		c0.05,0.02,0.04,0.1-0.01,0.11c-8.39,1.81-14.08,3.21-14.08,3.21c2.61,0,20.59,4.74,44.32,11.02c7.57,2.79,16.8,5.17,26.99,7.12
		c8.2,2.15,16.62,4.33,24.98,6.46c45.11,11.48,115.81,10.25,124.05-2.46C799.07,708.35,800.35,701.02,790.83,693.94z"/>
	<g>
		<path class="st4" d="M444.98,687.3c0,0,50.04-8.05,89.07-12.56c39.04-4.51,122.75,9.02,133.59,9.02
			c10.84,0,17.61-8.58,20.16-10.99c2.55-2.41,18.86,2.49,25.39,8.67c6.53,6.17,42.38,4.47,45.85,12.67
			c3.47,8.2-53.87,1.87-69.48,4.33c-15.61,2.46-122.12,14.02-165.49,25.9c-43.37,11.89-94.94,0.1-98.88-15.12
			C421.24,694,444.98,687.3,444.98,687.3z"/>
	</g>
	<path class="st9" d="M203.01,392.07c0.66,2.96,3.82,11.53,3.82,11.53s3.67-1.19,3.74,4.04c0,0,4.03-5.45,3.1-12.17
		c0,0,10.94-13.12,10.25-27.6c-0.7-14.48-1.33-23.77-1.33-23.77S196.24,361.49,203.01,392.07z"/>
	<path class="st10" d="M257.61,419.3L257.61,419.3c8.68,0,15.79,9.32,15.79,20.71v39.65c0,11.39-7.1,20.71-15.79,20.71l0,0
		c-8.68,0-15.79-9.32-15.79-20.71v-39.65C241.82,428.62,248.93,419.3,257.61,419.3z"/>
	<path class="st11" d="M257.61,419.3L257.61,419.3c8.68,0,15.79,9.32,15.79,20.71v32.79c-3.53,2.05-7.4,3.2-11.55,3.2
		c-7.42,0-14.35-4.76-20.03-11.99v-24C241.82,428.62,248.93,419.3,257.61,419.3z"/>
	<g>
		<path class="st11" d="M302.76,398.79c0.33,0.04,0.65,0.09,0.97,0.16l0.01,0l0,0c5.89,1.19,10.38,6.32,10.55,12.59
			c0.18,7.28-5.57,13.33-12.84,13.51c-7.28,0.18-13.33-5.57-13.51-12.84c-0.11-4.23,1.79-8.04,4.83-10.53
			c-0.31,3.89,0.34,8.71,5.31,9.16l-0.19-7.6C297.79,400.15,300.64,398.72,302.76,398.79z"/>
		<path class="st11" d="M212.61,399.37c-0.33,0.05-0.65,0.1-0.97,0.17l-0.01,0l0,0c-5.87,1.27-10.3,6.46-10.39,12.72
			c-0.09,7.28,5.74,13.25,13.02,13.35c7.28,0.09,13.26-5.74,13.35-13.01c0.06-4.23-1.89-8.02-4.96-10.47
			c0.36,3.89-0.23,8.71-5.19,9.22l0.1-7.6C217.59,400.66,214.72,399.27,212.61,399.37z"/>
	</g>
	<path class="st10" d="M256.38,463.26c-21.64-0.63-33.16-26.21-43.76-51.59l-0.43-31.84c-0.33-24.82,19.71-45.4,44.52-45.73l0,0
		c24.82-0.33,45.4,19.7,45.73,44.52l0.42,31.17C293,433.86,281.55,463.99,256.38,463.26z"/>
	<path class="st11" d="M287.39,419.19c-3-1.39-7.09,0.38-9.14,3.96c-2.05,3.58-4.12,8.19-1.12,9.59c3,1.39,9.93-0.96,11.98-4.54
		C291.16,424.62,290.39,420.59,287.39,419.19z"/>
	<path class="st11" d="M235.37,420.42c-4.16-1.84-8.64-0.37-10.01,3.29c-1.37,3.65,0.9,8.11,5.06,9.95
		c4.16,1.84,9.81,1.97,11.18-1.68C242.97,428.32,239.53,422.26,235.37,420.42z"/>
	<g>
		<path class="st11" d="M244.03,388.49c0.95,0.42,1.39,1.53,0.97,2.49c-0.42,0.96-1.54,1.39-2.49,0.98
			c-0.02-0.01-5.75-2.63-11.15,0.87c-0.88,0.57-2.06,0.32-2.63-0.56c-0.57-0.88-0.32-2.06,0.56-2.62
			C236.43,385.02,244.01,388.48,244.03,388.49z"/>
		<path class="st11" d="M288.67,388.74c0.92,0.49,1.26,1.64,0.77,2.56c-0.49,0.92-1.64,1.26-2.56,0.77
			c-0.01-0.01-5.52-3.09-11.18-0.04c-0.92,0.5-2.08,0.15-2.57-0.77c-0.49-0.92-0.15-2.08,0.78-2.57
			C281.37,384.66,288.65,388.73,288.67,388.74z"/>
	</g>
	<path class="st12" d="M258.36,424.65c-1.52,0-3.15-0.33-3.9-1.14c-1.17-1.25,0.1-5.22,0.96-7.47l0.93,0.36
		c-1.37,3.58-1.62,5.95-1.17,6.44c0.5,0.54,1.91,0.86,3.5,0.81c1.3-0.04,2.05-0.32,2.16-0.46l0.96,0.24
		c-0.07,0.42-0.45,0.73-1.16,0.94C260.04,424.55,259.22,424.65,258.36,424.65z"/>
	<path class="st13" d="M205.01,392.07l1.65,9.69c0,0,5.83,0.65,5.91,5.87c0,0,4.03-5.45,3.1-12.17c0,0,10.94-13.12,10.25-27.6
		c-0.7-14.48-3.5-24.11-3.5-24.11S201.39,360.96,205.01,392.07z"/>
	<path class="st13" d="M309.96,390.67l-1.39,9.73c0,0-5.82,0.8-5.74,6.03c0,0-4.18-5.34-3.43-12.08c0,0-11.29-12.82-10.98-27.31
		c0.31-14.49,5.78-21.14,5.78-21.14S312.75,359.47,309.96,390.67z"/>
	<g>
		<path class="st14" d="M279.44,414.61c2.97-0.04,5.34-2.48,5.3-5.44c-0.01-0.4-0.06-0.8-0.15-1.18l0.61-0.23
			c0.64-0.24,1.29-0.63,1.87-1.21c0.27-0.26,0.27-0.69,0.01-0.95c-0.26-0.27-0.69-0.27-0.95-0.01c-0.58,0.57-1.23,0.89-1.84,1.06
			l-0.01-0.01c0.61-0.37,1.22-0.93,1.65-1.77c0.17-0.33,0.04-0.74-0.29-0.9c-0.33-0.17-0.74-0.03-0.91,0.29
			c-0.35,0.69-0.88,1.11-1.38,1.37l-0.05-0.06c0.4-0.33,0.78-0.81,0.96-1.49c0.1-0.36-0.12-0.73-0.47-0.83
			c-0.36-0.1-0.73,0.12-0.83,0.47c-0.13,0.48-0.44,0.78-0.71,0.96c-0.85-0.54-1.87-0.86-2.96-0.84c-2.97,0.04-5.34,2.48-5.3,5.45
			C274.03,412.28,276.47,414.65,279.44,414.61z"/>
		<path class="st14" d="M236.16,415.19c-2.97,0.04-5.4-2.33-5.44-5.3c-0.01-0.4,0.03-0.8,0.11-1.18l-0.62-0.21
			c-0.64-0.23-1.3-0.59-1.91-1.17c-0.27-0.25-0.28-0.68-0.03-0.95c0.25-0.27,0.68-0.29,0.95-0.03c0.59,0.55,1.25,0.86,1.87,1.01
			l0.01-0.01c-0.62-0.36-1.25-0.9-1.7-1.72c-0.18-0.33-0.06-0.74,0.27-0.91c0.32-0.18,0.74-0.05,0.91,0.27
			c0.37,0.68,0.91,1.09,1.42,1.33l0.05-0.06c-0.4-0.32-0.8-0.79-1-1.46c-0.11-0.36,0.1-0.73,0.45-0.84
			c0.36-0.11,0.73,0.09,0.84,0.45c0.14,0.48,0.46,0.77,0.74,0.94c0.84-0.57,1.85-0.91,2.93-0.92c2.97-0.04,5.41,2.33,5.45,5.3
			C241.5,412.71,239.13,415.15,236.16,415.19z"/>
	</g>
	<path class="st15" d="M270.21,434.3c0.07,5.24-6.94,10.37-12.17,10.44c-5.24,0.07-12.89-5.56-12.96-10.8
		c-0.01-0.96,4.11-0.31,5.07-0.33l15.47-0.21C266.59,433.4,270.19,433.34,270.21,434.3z"/>
	<path class="st13" d="M219.37,348.99c0,0,32.27-75.36,85.44-5.38c11.16,14.69,22.88,30.05,20.56,37.16
		C316.65,407.55,222.45,385.35,219.37,348.99z"/>
	<path class="st16" d="M221.78,343.54c0,0,33.91,46.61,99.46,23.23l-10.29-15.31c0,0-36.28,27.77-89.09-8.45L221.78,343.54z"/>
	<path class="st13" d="M282.03,306.2c-0.16,21.14-12.06,38.2-26.58,38.09c-14.52-0.11-26.16-17.34-26.01-38.48
		c0.16-21.14,13.57-30.85,28.09-30.74C272.05,275.17,282.18,285.05,282.03,306.2z"/>
	<path class="st17" d="M251.59,344.79c-0.05,0-0.09,0-0.14,0c-14.77-0.11-26.66-17.6-26.5-38.99c0.07-9.96,3.12-18.15,8.81-23.7
		c5-4.87,11.93-7.54,19.54-7.54c0.08,0,0.16,0,0.24,0c7.57,0.06,13.84,2.77,18.13,7.86c4.63,5.48,6.94,13.49,6.86,23.78
		c-0.08,10.33-2.92,20.02-7.99,27.3C265.45,340.78,258.73,344.79,251.59,344.79z M253.29,275.56c-7.35,0-14.03,2.57-18.84,7.26
		c-5.49,5.35-8.44,13.3-8.51,22.99c-0.16,20.83,11.29,37.87,25.51,37.98c0.04,0,0.09,0,0.13,0c6.8,0,13.24-3.85,18.13-10.86
		c4.96-7.11,7.74-16.61,7.81-26.73c0.08-10.05-2.15-17.83-6.63-23.13c-4.1-4.85-10.11-7.45-17.37-7.5
		C253.45,275.56,253.37,275.56,253.29,275.56z"/>
	<path class="st4" d="M68.29,523.07l15.41,6.3l-2.04-2.06c-21.38-8.43-16.58-13.45-16.58-13.45s21.58,6.63,21.43,7.47
		c-0.15,0.84,13.05,13.98,13.05,13.98l6.34,7.56l-3.87,2.09l0.48,3.97c0,0-34.5-12.75-35.89-12.99
		c-2.53-0.43-19.95-20.13-19.95-20.13S40.86,498.92,68.29,523.07z"/>
	<path class="st4" d="M368.74,621.94c0.58-0.86-1.59-0.89,57.39-74.56l-3.79-4.94c-5.54-1.93-5.04-2.99-7.94-0.47l-74.74,67.96
		L368.74,621.94z"/>
	<path class="st4" d="M447.75,526.07l-15.41,6.3l2.04-2.06c21.38-8.43,16.58-13.45,16.58-13.45s-21.58,6.63-21.43,7.47
		c0.15,0.84-13.05,13.98-13.05,13.98l-6.34,7.56l3.87,2.09l-0.48,3.97c0,0,34.5-12.75,35.89-12.99
		c2.53-0.43,19.95-20.13,19.95-20.13S475.18,501.92,447.75,526.07z"/>
	<path class="st4" d="M475.09,588.94c-0.48-0.98,1.79-0.7-48.87-85.82l4.66-4.59c6.03-1.21,5.68-2.37,8.32,0.66l67.86,81.48
		L475.09,588.94z"/>
	<path class="st4" d="M400.39,479.66l16.17,6.61l-2.14-2.16c-22.44-8.85-17.4-14.11-17.4-14.11s22.65,6.96,22.49,7.84
		c-0.15,0.88,13.69,14.68,13.69,14.68l6.66,7.94l-4.06,2.19l0.51,4.17c0,0-36.21-13.38-37.67-13.63
		c-2.65-0.46-20.95-21.13-20.95-21.13S371.6,454.31,400.39,479.66z"/>
	<path class="st4" d="M729.12,596.94c0.66-0.98,5.62-1.01,65.22-84.73l-4.31-5.61c-6.29-2.2-5.73-3.39-9.02-0.54l-76.44,64.54
		L729.12,596.94z"/>
	<path class="st4" d="M818.92,487.99l-17.51,7.15l2.32-2.34c24.3-9.58,18.84-15.28,18.84-15.28s-24.52,7.53-24.35,8.49
		c0.17,0.95-14.83,15.89-14.83,15.89l-7.21,8.6l4.39,2.37l-0.55,4.52c0,0,39.2-14.49,40.78-14.76c2.87-0.49,22.68-22.88,22.68-22.88
		S850.09,460.54,818.92,487.99z"/>
	<path class="st17" d="M591.16,438.77c0,0,7.67,4.59,32.5,0.71c13.83-2.16,55.45,13.14,55.45,13.14
		c0.95,2.37,15.23,47.79,12.38,56.82c-2.85,9.02-22.48,55.87-21.33,59.67c1.15,3.8-4.83,42.26-4.33,45.33
		c-53,35.17-123,2.67-123,2.67s-4.86-40.54-5.33-47.67s-20.13-77.61-25.11-89c-4.99-11.4,22.35-29.37,22.35-29.37
		S562.8,444.54,591.16,438.77"/>
	<g>
		<path class="st1" d="M486.74,334.98c-0.15,0.11-0.33,0.15-0.52,0.13c-0.2-0.02-0.34-0.1-0.44-0.23c-0.2-0.28-0.12-0.56,0.26-0.82
			l1.27-0.9c-1.77-2.5-4.08-5.6-6.93-9.3c-2.24-2.99-4.03-5.32-5.35-7l-1.15-1.69l-1.53-2.16c-0.77-1.09-1.29-1.77-1.54-2.04
			l-1.14,0.81c-0.22,0.15-0.43,0.08-0.65-0.23c-0.14-0.2-0.16-0.41-0.06-0.64c0.11-0.17,0.49-0.49,1.14-0.95l0.91-0.65
			c0.34-0.21,0.76-0.49,1.26-0.84c0.17-0.12,0.34-0.19,0.51-0.19c0.16,0,0.3,0.08,0.41,0.23c0.09,0.13,0.15,0.27,0.16,0.43
			c0.01,0.16-0.05,0.28-0.18,0.37c-0.15,0.11-0.29,0.19-0.42,0.24l-0.39,0.28l-0.33,0.23c-0.22,0.15-0.33,0.27-0.34,0.34l0.03,0.18
			c1.2,1.7,3.77,5.03,7.7,9.98c3.64,4.58,6.19,7.92,7.67,10.01l0.65,0.91c0.18,0.3,0.38,0.6,0.59,0.9l1.17-0.83
			c0.5-0.35,0.86-0.38,1.08-0.08c0.09,0.13,0.13,0.29,0.12,0.48c-0.01,0.19-0.08,0.32-0.18,0.4l-1.76,1.25
			C488.21,333.95,487.54,334.41,486.74,334.98z"/>
		<path class="st1" d="M495.9,328.54c-0.35,0.05-0.59,0-0.71-0.18c-0.09-0.13-0.16-0.41-0.2-0.84c-0.03-0.41-0.1-0.68-0.23-0.81
			l-2.13-2.8l-6.54-8.75l-2.86-3.9c-1.73-2.4-2.86-3.87-3.38-4.42c-0.21-0.21-0.49-0.42-0.84-0.63c-0.44-0.31-0.73-0.54-0.85-0.72
			c-0.37-0.52,0.27-1.37,1.93-2.54l0.16-0.12c1.11-0.79,2.34-1.08,3.68-0.89c1.05,0.14,2.27,0.67,3.66,1.57
			c1.06,0.76,2.11,1.69,3.16,2.81c0.55,0.59,1.33,1.54,2.35,2.84l0.72,1.01c0.96,1.35,1.81,2.94,2.57,4.77
			c0.76,1.83,1.3,3.67,1.62,5.5c0.22,1.15,0.27,2.29,0.14,3.43c-0.13,1.14-0.33,2.1-0.61,2.91c-0.28,0.8-0.52,1.27-0.71,1.41
			C496.56,328.36,496.25,328.48,495.9,328.54z M496.13,326.17c0.51-0.98,0.8-2.1,0.87-3.34c0.07-1.24-0.05-2.47-0.36-3.69
			c-0.24-1.04-0.62-2.15-1.14-3.34c-0.51-1.19-1.04-2.26-1.59-3.21c-0.49-0.83-0.99-1.6-1.5-2.32c-4.5-6.35-8.5-8.29-12-5.81
			c-0.46,0.32-0.6,0.6-0.43,0.84c0.54,0.76,1.22,1.63,2.05,2.62c0.84,1,1.53,1.88,2.05,2.62c0.85,1.2,2.41,3.22,4.68,6.05
			c1.97,2.46,3.51,4.47,4.62,6.04l2.59,3.66L496.13,326.17z"/>
		<path class="st1" d="M508.09,320.18c-0.28,0.05-0.51-0.07-0.71-0.35l-0.44-0.62c-0.14-0.16-0.29-0.35-0.45-0.56l-0.04-0.06
			l-3.34-4.79l-9.58-13.46c-0.99-1.39-1.86-2.58-2.63-3.58c-0.19-0.26-0.28-0.52-0.3-0.77c-0.02-0.25,0.07-0.44,0.24-0.56l2.02-1.43
			c0.3-0.22,0.55-0.35,0.73-0.42c0.27-0.09,0.5,0.02,0.72,0.32c0.12,0.17,0.16,0.36,0.1,0.56c-0.05,0.2-0.15,0.37-0.29,0.5
			l-0.55,0.39l-0.54,0.34l-0.54,0.34c-0.15,0.11-0.24,0.21-0.25,0.3c-0.02,0.09,0.03,0.21,0.14,0.37c0.72,1.02,1.39,1.94,2,2.75
			l1.96,2.77l2.89,4.08c0.03,0.04,0.07,0.05,0.11,0.02l0.03-0.02l0.04-0.02c0.51-0.43,1.08-0.87,1.71-1.31
			c0.35-0.25,0.63-0.22,0.85,0.09c0.15,0.22,0.22,0.39,0.2,0.52c-0.02,0.13-0.12,0.26-0.29,0.38l-1.86,1.32
			c-0.09,0.06-0.09,0.15-0.01,0.26l3.48,4.78c1.11,1.47,2.36,3.19,3.74,5.15l0.86,1.21l1.4-0.99l1.37-0.97l0.29-0.21
			c0.39-0.28,0.69-0.27,0.89,0.01c0.25,0.35,0.29,0.62,0.14,0.83c-0.2,0.27-0.7,0.69-1.51,1.26l-1.37,0.97
			C508.76,319.92,508.36,320.13,508.09,320.18z"/>
		<path class="st1" d="M521.58,310.3c-0.2-0.02-0.35-0.11-0.46-0.26l-3.03-4.28c-0.18-0.26-0.91-0.11-2.17,0.46
			c-1.27,0.57-2.26,1.11-2.97,1.61c-0.04,0.03,0,0.24,0.13,0.64c0.13,0.4,0.23,0.68,0.3,0.87c0.52,1.33,1.09,2.74,1.72,4.22
			l0.34,0.83c0.08,0.2,0.03,0.37-0.14,0.49c-0.18,0.12-0.37,0.18-0.59,0.17c-0.22-0.01-0.38-0.09-0.49-0.24l-0.02-0.09l-0.02-0.03
			l-0.8-1.89c-0.46-1.21-0.94-2.37-1.44-3.49c-0.57-1.26-0.91-2.1-1.04-2.5c-0.33-0.84-1.26-2.88-2.77-6.13l-0.57-1.22
			c-1.81-3.75-2.91-6.14-3.31-7.17c-0.26-0.6-0.61-1.51-1.05-2.73c-0.2-0.51-0.35-1.06-0.47-1.63c-0.07-0.51-0.03-0.81,0.1-0.9
			c0.35-0.25,0.68-0.31,0.98-0.2c0.25,0.12,1.18,1.08,2.79,2.87c1.62,1.8,3.22,3.63,4.81,5.51l4.26,5.12c0.66,0.94,1.73,2.3,3.2,4.1
			c1.49,1.82,2.56,3.2,3.22,4.14l0.09,0.13c0.17,0.24,0.29,0.48,0.36,0.72c0.04,0.24-0.11,0.47-0.44,0.7
			C521.97,310.28,521.78,310.33,521.58,310.3z M516.8,303.99c-0.96-1.35-2.34-3.14-4.15-5.37c-1.81-2.23-3.43-4.18-4.87-5.84
			c-0.58-0.73-1.26-1.51-2.04-2.33l-1.03-1.18c0.02,0.02-0.09-0.08-0.32-0.31l-0.34-0.35c0.16,0.6,0.47,1.39,0.9,2.35
			c0.44,0.96,0.98,2.08,1.62,3.36c1.78,3.61,3.05,6.37,3.84,8.26l0.49,1.32c0.44,1.32,0.87,2.26,1.27,2.83l0.14,0.2
			c1.17-0.37,2.38-1,3.62-1.88l0.2-0.14c0.08-0.02,0.16-0.07,0.25-0.13C516.81,304.47,516.95,304.21,516.8,303.99z"/>
	</g>
	<g>
		<path class="st1" d="M147.23,283.89c-0.19,0.02-0.36-0.02-0.52-0.13c-0.16-0.11-0.25-0.25-0.27-0.41
			c-0.04-0.34,0.16-0.54,0.61-0.6l1.55-0.2c-0.39-3.04-0.97-6.86-1.75-11.47c-0.58-3.69-1.06-6.59-1.43-8.69l-0.22-2.03l-0.33-2.62
			c-0.17-1.32-0.3-2.17-0.4-2.53l-1.39,0.18c-0.26,0.03-0.42-0.13-0.47-0.5c-0.03-0.24,0.05-0.44,0.25-0.6
			c0.17-0.1,0.66-0.21,1.45-0.31l1.11-0.14c0.4-0.02,0.9-0.07,1.51-0.15c0.21-0.03,0.39,0,0.53,0.07c0.14,0.08,0.23,0.21,0.25,0.39
			c0.02,0.16,0,0.31-0.06,0.45c-0.06,0.14-0.17,0.22-0.33,0.24c-0.18,0.02-0.34,0.03-0.48,0.02l-0.48,0.06l-0.4,0.05
			c-0.26,0.03-0.42,0.08-0.46,0.14l-0.06,0.17c0.26,2.06,0.97,6.21,2.11,12.43c1.06,5.75,1.75,9.9,2.07,12.44l0.14,1.11
			c0.02,0.35,0.05,0.71,0.1,1.08l1.43-0.18c0.61-0.08,0.94,0.07,0.98,0.44c0.02,0.16-0.02,0.32-0.12,0.48
			c-0.1,0.16-0.22,0.25-0.35,0.27l-2.14,0.27C149.02,283.67,148.21,283.76,147.23,283.89z"/>
		<path class="st1" d="M158.34,282.51c-0.34-0.12-0.52-0.28-0.55-0.49c-0.02-0.16,0.05-0.44,0.21-0.83
			c0.17-0.37,0.23-0.65,0.18-0.83l-0.57-3.48l-1.66-10.8l-0.69-4.79c-0.4-2.93-0.7-4.76-0.9-5.49c-0.09-0.28-0.24-0.6-0.44-0.95
			c-0.25-0.48-0.39-0.82-0.42-1.04c-0.08-0.63,0.88-1.08,2.89-1.34l0.2-0.03c1.35-0.17,2.57,0.14,3.67,0.94
			c0.86,0.62,1.69,1.65,2.5,3.11c0.58,1.16,1.07,2.49,1.47,3.96c0.21,0.78,0.46,1.99,0.74,3.62l0.16,1.23
			c0.21,1.64,0.22,3.45,0.03,5.42c-0.19,1.98-0.58,3.84-1.16,5.61c-0.34,1.12-0.83,2.15-1.48,3.09c-0.65,0.94-1.28,1.7-1.91,2.28
			c-0.63,0.58-1.06,0.88-1.29,0.91C159.01,282.67,158.68,282.63,158.34,282.51z M159.66,280.53c0.91-0.63,1.69-1.47,2.34-2.54
			c0.64-1.06,1.12-2.21,1.42-3.43c0.27-1.03,0.46-2.19,0.56-3.48c0.1-1.29,0.14-2.48,0.11-3.58c-0.04-0.96-0.12-1.88-0.23-2.75
			c-0.99-7.72-3.61-11.31-7.87-10.77c-0.55,0.07-0.81,0.25-0.78,0.54c0.12,0.93,0.31,2.02,0.58,3.27c0.27,1.28,0.46,2.37,0.58,3.27
			c0.19,1.46,0.61,3.97,1.29,7.54c0.58,3.1,1,5.6,1.24,7.5l0.57,4.44L159.66,280.53z"/>
		<path class="st1" d="M173.03,280.85c-0.27-0.09-0.42-0.3-0.47-0.65l-0.1-0.75c-0.05-0.21-0.1-0.44-0.13-0.71l-0.01-0.08l-0.7-5.8
			l-2.13-16.38c-0.22-1.69-0.43-3.16-0.64-4.4c-0.04-0.32-0.01-0.59,0.1-0.82c0.1-0.23,0.26-0.36,0.48-0.38l2.46-0.31
			c0.37-0.05,0.65-0.06,0.84-0.03c0.27,0.04,0.44,0.25,0.48,0.62c0.03,0.21-0.03,0.39-0.17,0.55c-0.14,0.15-0.3,0.25-0.49,0.3
			l-0.67,0.09l-0.64,0.04l-0.64,0.04c-0.19,0.02-0.31,0.07-0.37,0.15c-0.06,0.08-0.07,0.2-0.05,0.39c0.16,1.24,0.31,2.37,0.47,3.37
			l0.43,3.37l0.63,4.96c0.01,0.05,0.04,0.08,0.09,0.07l0.04-0.01l0.04,0c0.65-0.14,1.36-0.26,2.13-0.35
			c0.42-0.05,0.66,0.11,0.71,0.48c0.03,0.26,0.01,0.45-0.07,0.55c-0.08,0.1-0.23,0.17-0.44,0.2l-2.26,0.29
			c-0.11,0.01-0.15,0.09-0.13,0.22l0.83,5.86c0.29,1.82,0.58,3.92,0.89,6.3l0.19,1.47l1.71-0.22l1.67-0.21l0.36-0.04
			c0.48-0.06,0.74,0.08,0.78,0.42c0.05,0.42-0.03,0.69-0.26,0.8c-0.3,0.15-0.95,0.28-1.92,0.41l-1.67,0.21
			C173.75,280.94,173.3,280.94,173.03,280.85z"/>
		<path class="st1" d="M189.58,278.48c-0.16-0.11-0.26-0.26-0.28-0.45l-0.66-5.2c-0.04-0.32-0.75-0.52-2.13-0.61
			c-1.38-0.09-2.51-0.08-3.38,0.03c-0.05,0.01-0.11,0.22-0.18,0.63c-0.07,0.41-0.12,0.71-0.15,0.91c-0.17,1.42-0.32,2.93-0.47,4.54
			l-0.09,0.9c-0.03,0.22-0.15,0.34-0.36,0.37c-0.21,0.03-0.41-0.01-0.6-0.13c-0.19-0.11-0.29-0.26-0.32-0.44l0.03-0.08l0-0.04
			l0.18-2.04c0.16-1.28,0.28-2.54,0.37-3.76c0.09-1.38,0.18-2.28,0.26-2.7c0.1-0.9,0.25-3.14,0.43-6.71l0.07-1.34
			c0.17-4.16,0.32-6.79,0.45-7.88c0.05-0.65,0.17-1.62,0.35-2.91c0.06-0.55,0.18-1.1,0.35-1.66c0.18-0.48,0.35-0.73,0.51-0.75
			c0.42-0.05,0.74,0.04,0.96,0.28c0.16,0.22,0.54,1.5,1.12,3.85c0.58,2.35,1.13,4.72,1.66,7.13l1.36,6.52
			c0.15,1.14,0.44,2.85,0.9,5.13c0.46,2.31,0.76,4.03,0.9,5.17l0.02,0.16c0.04,0.29,0.03,0.56-0.02,0.81
			c-0.08,0.23-0.32,0.36-0.71,0.42C189.93,278.63,189.74,278.59,189.58,278.48z M188.32,270.65c-0.21-1.64-0.59-3.87-1.14-6.69
			c-0.55-2.82-1.07-5.3-1.56-7.44c-0.17-0.92-0.41-1.92-0.71-3.01l-0.36-1.53c0,0.03-0.04-0.12-0.13-0.43l-0.14-0.47
			c-0.14,0.61-0.24,1.44-0.31,2.5c-0.07,1.06-0.12,2.3-0.15,3.73c-0.13,4.02-0.3,7.05-0.49,9.09l-0.18,1.4
			c-0.23,1.37-0.3,2.4-0.21,3.09l0.03,0.24c1.21,0.22,2.57,0.24,4.08,0.04l0.24-0.03c0.08,0.02,0.18,0.02,0.28,0
			C188.11,271.09,188.36,270.92,188.32,270.65z"/>
	</g>
	<g>
		<path class="st17" d="M679.21,452.66c0,0,33.63,19.44,39.13,65.44l-48.5,15.5l-39-53.5L679.21,452.66z"/>
	</g>
	<g>
		<path class="st17" d="M534.41,451.77c0,0-38,18.33-48.67,77l50.33,17.67L546.42,496L534.41,451.77z"/>
	</g>
	<path class="st10" d="M602.83,398.6L602.83,398.6c-9.71,0-17.66,7.6-17.66,16.88v22.33c0,9.28,7.95,16.88,17.66,16.88l0,0
		c9.72,0,17.67-7.6,17.67-16.88v-22.33C620.5,406.2,612.55,398.6,602.83,398.6z"/>
	<path class="st11" d="M602.83,372.23L602.83,372.23c-9.71,0-17.66,7.6-17.66,16.88v22.33c0,9.28,7.95,16.88,17.66,16.88l0,0
		c9.72,0,17.67-7.6,17.67-16.88v-22.33C620.5,379.83,612.55,372.23,602.83,372.23z"/>
	<path class="st11" d="M557.09,348.31c0.33-0.05,0.67-0.08,1.01-0.11c2.18,0.05,5.05,1.7,4.79,4.87l-0.64,7.84
		c5.16-0.17,6.11-5.11,6.02-9.15c2.99,2.75,4.73,6.8,4.37,11.16c-0.62,7.51-7.2,13.09-14.71,12.48c-7.5-0.62-9.05-15.14-8.43-22.65
		C549.5,352.76,550.72,347.78,557.09,348.31z"/>
	<path class="st11" d="M656.34,354.39c0.33,0.06,0.66,0.14,0.99,0.23l0.01,0l0,0c5.99,1.65,6.26,6.96,5.98,13.44
		c-0.33,7.52-2.7,13.66-10.22,13.33c-7.52-0.33-13.36-6.7-13.02-14.22c0.19-4.37,2.42-8.17,5.73-10.53c-0.6,4-0.28,9.01,4.82,9.83
		l0.35-7.86C651.11,355.44,654.17,354.16,656.34,354.39z"/>
	<path class="st10" d="M611.5,283.3L611.5,283.3c-25.64-1.61-47.93,18.04-49.54,43.67l-2.67,42.39c7.2,24.06,24.87,48.4,43.67,49.53
		l0.01,0c17.2,0.2,46.58-19.84,48.2-45.47l4-40.59C656.78,307.21,637.13,284.92,611.5,283.3z"/>
	<path class="st15" d="M592.13,387.65c-0.47,6.24,7.13,12.22,13.37,12.69c6.24,0.47,14.66-5.26,15.12-11.5l-0.02,0
		c0.08-1.07-0.73-2.02-1.8-2.1l-24.56-0.9c-1.07-0.08-2.02,0.73-2.1,1.8L592.13,387.65z"/>
	<path class="st15" d="M616.07,387.84l-17.53-1.32c-0.42,1.92,0.33,3.94,1.6,4.47c1.55,0.64,14.26,1.26,15.23,0.33
		C615.84,390.86,616.01,389.31,616.07,387.84z"/>
	<path class="st11" d="M633.71,379.26c-5.2,2.16-8.38,6.35-7.1,9.37c1.29,3.01,6.54,3.71,11.74,1.55c5.2-2.16,8.38-6.35,7.1-9.37
		C644.16,377.8,638.91,377.1,633.71,379.26z"/>
	<path class="st11" d="M581.63,376.61c-4.11-2.61-8.84-2.48-10.57,0.27c-1.73,2.76,0.2,7.12,4.3,9.73c4.1,2.61,8.84,2.49,10.57-0.27
		C587.66,383.58,585.73,379.23,581.63,376.61z"/>
	<path class="st14" d="M580.39,348.64c-0.78,0.36-1.7,0.01-2.06-0.77c-0.36-0.78-0.01-1.7,0.76-2.05c4.19-1.98,9.7-2.03,13.66,0.54
		c0.72,0.47,0.92,1.43,0.46,2.15c-0.47,0.72-1.43,0.92-2.15,0.46C587.87,346.89,583.76,347.18,580.39,348.64z"/>
	<path class="st14" d="M634.49,350.44c-3.26-1.7-7.34-2.28-10.67-0.44c-0.75,0.41-1.7,0.14-2.11-0.61c-0.41-0.75-0.14-1.7,0.61-2.11
		c4.13-2.28,9.62-1.83,13.66,0.43c0.75,0.41,1.03,1.36,0.62,2.11C636.18,350.57,635.23,350.85,634.49,350.44z"/>
	<path class="st12" d="M605.92,379.67c-0.56,0-1.17-0.09-1.86-0.27c-0.85-0.23-1.43-0.84-1.67-1.76c-0.71-2.71,1.66-7.79,3.58-9.67
		c0.7-0.68,1.33-0.95,1.88-0.79l-0.28,0.96c-0.1-0.03-0.41,0.05-0.9,0.54c-1.68,1.64-3.92,6.39-3.32,8.7
		c0.15,0.58,0.46,0.91,0.96,1.04c1.33,0.35,2.36,0.31,2.98-0.12c0.56-0.39,0.62-0.98,0.62-0.99l1,0.09c0,0.04-0.1,1.06-1.05,1.72
		C607.36,379.49,606.7,379.67,605.92,379.67z"/>
	<path class="st14" d="M590.61,317.86c-5.02-0.32-14.88,1.45-15.51,11.48c-0.63,10.03-3.03,17.86-9.43,17.46c0,0-0.22,3.47-0.5,7.87
		c-0.28,4.4-0.99,8.82-5.14,8.56c0.6-9.46-2.05-13.36-2.05-13.36s-5.63-18-4.93-29.06c0.7-11.06,11.17-20.39,26.33-29.68
		c19.63-12.02,45.81-10.37,63.77,4.01c13.88,11.12,22.55,17.23,21.86,28.29c-0.7,11.07-7.99,32.67-7.99,32.67s-3.12,3.54-3.71,13
		c-4.15-0.26-4.3-4.74-4.02-9.14c0.28-4.4,0.5-7.87,0.5-7.87c-6.4-0.4-7.8-8.47-7.16-18.5c0.63-10.03-8.93-13.02-13.95-13.33
		C615.99,319.46,603.3,318.66,590.61,317.86z"/>
	<g>
		<path class="st14" d="M641.86,316c0,0,10.72-7.39,10.73-15.83c0.02-15.49-31.67-41.11-51.26-30.08
			c-46.59-17.45-64.2,17.62-23.62,49.94c0.19,0.15,0.37,0.28,0.56,0.43c3.1-2.91,7.61-4.02,10.55-4.21
			c12.69-0.8,25.37-1.6,38.06-2.4c3.31-0.21,8.71,0.49,12.19,3.85C640.86,316.67,641.86,316,641.86,316z"/>
		<path class="st14" d="M650.28,304.09c-0.19,0.3-0.11,0.7,0.17,0.9c0.28,0.2,0.66,0.12,0.85-0.17c0.02-0.03,7.25-11.1-3.06-24.37
			c-0.21-0.28-0.6-0.32-0.86-0.09c-0.26,0.23-0.29,0.64-0.08,0.91C657.02,293.78,650.3,304.06,650.28,304.09z"/>
		<path class="st14" d="M638.96,279.79c0.22,0.27,0.61,0.31,0.86,0.08c0.26-0.23,0.29-0.64,0.07-0.91
			c-0.04-0.04-12.55-15.96-25-15.37c-12.92,0.61-8.9,14.54-8.89,14.58c0.09,0.34,0.44,0.54,0.76,0.45c0.32-0.1,0.51-0.46,0.41-0.81
			c-0.01-0.03-3.58-12.39,7.78-12.93C626.79,264.32,638.92,279.74,638.96,279.79z"/>
	</g>
	<g>
		<path class="st14" d="M626.34,370.01c2.96,0.68,5.91-1.17,6.59-4.13c0.68-2.96-1.17-5.91-4.13-6.59
			c-2.96-0.68-5.91,1.17-6.59,4.13C621.53,366.39,623.38,369.34,626.34,370.01z"/>
		<path class="st14" d="M584.13,367.39c2.96,0.68,5.91-1.17,6.59-4.13c0.68-2.96-1.17-5.91-4.13-6.59
			c-2.96-0.68-5.91,1.17-6.59,4.13C579.31,363.76,581.17,366.71,584.13,367.39z"/>
	</g>
	<circle class="st15" cx="629.83" cy="366.84" r="2"/>
	<circle class="st15" cx="587.08" cy="363.84" r="2"/>
	<path class="st2" d="M570.5,326.6c-15.2-16.3-22.04-30.71-20.35-42.82c1.49-10.64,9.09-15.34,9.41-15.53l0.52,0.86
		c-0.08,0.05-7.53,4.67-8.94,14.84c-1.64,11.8,5.13,25.92,20.1,41.98L570.5,326.6z"/>
	<polygon class="st8" points="36.07,409.75 36.07,462.71 130.73,501.1 129.41,451.45 	"/>
	<polygon class="st18" points="37.81,437.89 37.62,461.47 129.44,498.97 128.86,475.58 	"/>
	<path class="st8" d="M74.64,345.46l89.73,39.26c0,0,2.57,1.65,1.19,3.96l-36.15,62.78l-93.33-41.7l34.7-63.61
		C70.77,346.14,71.74,344.36,74.64,345.46z"/>
	<polygon class="st19" points="39.26,409.47 73.33,347.59 163.66,387.05 127.99,448.91 	"/>
	<polygon class="st8" points="73.38,463.02 73.96,473.07 93.68,481.19 93.1,470.94 	"/>
	<polygon class="st8" points="846.97,395.75 846.97,448.71 752.31,487.1 753.63,437.45 	"/>
	<polygon class="st18" points="845.23,423.89 845.42,447.47 753.6,484.97 754.18,461.58 	"/>
	<path class="st8" d="M808.4,331.46l-89.73,39.26c0,0-2.57,1.65-1.19,3.96l36.15,62.78l93.33-41.7l-34.7-63.61
		C812.27,332.14,811.29,330.36,808.4,331.46z"/>
	<polygon class="st19" points="843.78,395.47 809.71,333.59 719.38,373.05 755.05,434.91 	"/>
	<polygon class="st8" points="809.66,449.02 809.08,459.07 789.36,467.19 789.94,456.94 	"/>
	<path class="st20" d="M427.92,410.91c1.77,5.81-0.19,11.61-4.57,13.01s-8.18-2.71-11.28-7.94c-5.21-8.77-10.21-7.32-9.58-9.55
		c0.75-2.66,11.77-2.7,14.15-3.46c2.37-0.76,9.99-5.72,12.14-4.01C430.61,400.41,425.83,404.05,427.92,410.91z"/>
	<circle class="st20" cx="412.12" cy="387.96" r="22.62"/>
	<path class="st0" d="M415.45,409.63c-1.37-3.38-3.28-7.64-5.23-11.42c-1.65-0.16-2.96-0.8-3.87-1.42c-3.1-2.11-4.95-6.27-4.24-8.07
		c0.25-0.64,0.83-0.96,1.54-0.85c1.99,0.32,4.76,4.67,7.21,9.38c1.57,0.02,3.42-0.48,5.5-1.91c-0.12-3.36,0.17-6.46,1.32-8.05
		c0.52-0.72,1.19-1.12,2-1.2c1.63-0.16,2.65,0.21,3.05,1.09c0.99,2.19-2.83,6.5-3.45,7.07c-0.66,0.61-1.29,1.14-1.92,1.6
		c0.29,5.81,1.72,12.34,1.74,12.44l-0.98,0.22c-0.09-0.41-1.39-6.35-1.72-12.01c-1.88,1.18-3.58,1.66-5.06,1.73
		c2.5,4.93,4.58,9.98,5,11.02L415.45,409.63z M403.38,388.84c-0.19,0-0.27,0.09-0.33,0.24c-0.45,1.14,0.87,4.83,3.87,6.87
		c0.76,0.52,1.68,0.96,2.74,1.17c-2.37-4.47-4.72-8.04-6.16-8.27C403.46,388.85,403.41,388.84,403.38,388.84z M420.41,387.05
		c-0.21,0-0.42,0.01-0.61,0.03c-0.51,0.05-0.93,0.31-1.28,0.79c-0.95,1.31-1.23,3.87-1.16,6.75c0.42-0.33,0.84-0.7,1.28-1.11
		c1.27-1.19,3.79-4.66,3.22-5.93C421.65,387.17,421.04,387.05,420.41,387.05z"/>
	<path class="st8" d="M411.93,415.74c0,0,2.65,11.74,11.35,8.94c6.76-2.17,6.4-7.8,4.43-14.17L411.93,415.74z"/>
	<circle class="st18" cx="412.14" cy="388.92" r="14.06"/>
	
		<rect x="413.1" y="416.32" transform="matrix(0.9493 -0.3145 0.3145 0.9493 -109.6452 153.4966)" class="st21" width="15.61" height="0.5"/>
	
		<rect x="414.78" y="419.48" transform="matrix(0.9487 -0.3162 0.3162 0.9487 -111.095 154.8549)" class="st21" width="13.6" height="0.5"/>
	<path class="st20" d="M375.79,379.28c-5.95-1.07-11.89-2.14-17.84-3.21c-1.57-0.28-2.25,2.13-0.66,2.41
		c5.95,1.07,11.89,2.14,17.84,3.21C376.69,381.98,377.37,379.57,375.79,379.28L375.79,379.28z"/>
	<path class="st20" d="M397.71,356.06c-4.05-8.66-8.11-17.31-12.16-25.97c-0.68-1.46-2.84-0.19-2.16,1.26
		c4.05,8.66,8.11,17.31,12.16,25.97C396.23,358.78,398.39,357.51,397.71,356.06L397.71,356.06z"/>
	<path class="st20" d="M430.5,361.29c2.61-5.72,5.22-11.45,7.83-17.17c0.66-1.45-1.49-2.73-2.16-1.26
		c-2.61,5.72-5.22,11.45-7.83,17.17C427.68,361.48,429.83,362.75,430.5,361.29L430.5,361.29z"/>
	<path class="st20" d="M444.4,387.03c5.75-2.55,11.5-5.1,17.25-7.65c1.47-0.65,0.2-2.81-1.26-2.16c-5.75,2.55-11.5,5.1-17.25,7.65
		C441.67,385.52,442.94,387.67,444.4,387.03L444.4,387.03z"/>
	<path class="st20" d="M370.75,417.72c5.75-2.55,11.5-5.1,17.25-7.65c1.47-0.65,0.2-2.81-1.26-2.16c-5.75,2.55-11.5,5.1-17.25,7.65
		C368.02,416.21,369.29,418.37,370.75,417.72L370.75,417.72z"/>
	<path class="st20" d="M749.79,291.77c2.82,5.38,1.96,11.45-2.08,13.64c-4.04,2.19-8.54-1.15-12.56-5.71
		c-6.75-7.66-11.39-5.3-11.19-7.61c0.24-2.75,11.07-4.84,13.26-6.03c2.19-1.18,8.76-7.47,11.19-6.19
		C750.49,280.96,746.47,285.42,749.79,291.77z"/>
	<circle class="st20" cx="730.01" cy="272.15" r="22.62"/>
	<path class="st0" d="M737.31,292.82c-1.97-3.06-4.64-6.9-7.26-10.26c-1.65,0.15-3.06-0.24-4.06-0.68c-3.44-1.5-6.03-5.24-5.66-7.14
		c0.13-0.68,0.64-1.1,1.36-1.12c0.02,0,0.03,0,0.05,0c2.02,0,5.52,3.74,8.78,7.88c1.55-0.27,3.27-1.11,5.05-2.9
		c-0.74-3.28-1.03-6.38-0.19-8.16c0.38-0.8,0.96-1.32,1.74-1.55c1.57-0.46,2.65-0.29,3.2,0.51c1.38,1.97-1.58,6.91-2.08,7.58
		c-0.53,0.73-1.06,1.36-1.59,1.93c1.37,5.65,3.98,11.8,4.02,11.9l-0.92,0.39c-0.17-0.39-2.54-5.99-3.92-11.48
		c-1.63,1.51-3.21,2.3-4.65,2.64c3.37,4.38,6.35,8.96,6.96,9.9L737.31,292.82z M721.74,274.62c-0.01,0-0.02,0-0.03,0
		c-0.29,0.01-0.37,0.12-0.41,0.31c-0.23,1.21,1.75,4.58,5.08,6.04c0.84,0.37,1.82,0.63,2.91,0.64
		C726.16,277.68,723.21,274.62,721.74,274.62z M738.63,269.65c-0.39,0-0.84,0.1-1.24,0.21c-0.5,0.14-0.86,0.48-1.11,1.02
		c-0.69,1.46-0.49,4.03,0.11,6.85c0.35-0.4,0.7-0.84,1.05-1.32c1.02-1.4,2.87-5.28,2.06-6.42
		C739.33,269.73,739,269.65,738.63,269.65z"/>
	<path class="st8" d="M734.98,299.48c0,0,4.78,11.04,12.81,6.68c6.24-3.39,4.84-8.85,1.73-14.74L734.98,299.48z"/>
	<circle class="st18" cx="730.21" cy="273.09" r="14.06"/>
	
		<rect x="736.15" y="298.38" transform="matrix(0.8741 -0.4858 0.4858 0.8741 -51.3885 399.027)" class="st21" width="15.61" height="0.5"/>
	
		<rect x="738.4" y="301.36" transform="matrix(0.8736 -0.4866 0.4866 0.8736 -52.5832 400.7648)" class="st21" width="13.6" height="0.5"/>
	<path class="st20" d="M692.6,270.35c-6.04,0.05-12.08,0.11-18.13,0.16c-1.61,0.01-1.61,2.51,0,2.5c6.04-0.05,12.08-0.11,18.13-0.16
		C694.2,272.84,694.21,270.34,692.6,270.35L692.6,270.35z"/>
	<path class="st20" d="M710.07,243.66c-5.59-7.75-11.18-15.51-16.77-23.26c-0.93-1.29-3.1-0.05-2.16,1.26
		c5.59,7.75,11.18,15.51,16.77,23.26C708.84,246.22,711.01,244.97,710.07,243.66L710.07,243.66z"/>
	<path class="st20" d="M743.16,242.44c1.5-6.11,3.01-12.22,4.51-18.32c0.38-1.56-2.03-2.23-2.41-0.66
		c-1.5,6.11-3.01,12.22-4.51,18.32C740.36,243.34,742.77,244.01,743.16,242.44L743.16,242.44z"/>
	<path class="st20" d="M761.36,265.38c5.18-3.57,10.35-7.15,15.53-10.72c1.32-0.91,0.07-3.08-1.26-2.16
		c-5.18,3.57-10.35,7.15-15.53,10.72C758.79,264.13,760.04,266.3,761.36,265.38L761.36,265.38z"/>
	<path class="st20" d="M694.69,309.2c5.18-3.57,10.35-7.15,15.53-10.72c1.32-0.91,0.07-3.08-1.26-2.16
		c-5.18,3.57-10.35,7.15-15.53,10.72C692.11,307.95,693.36,310.11,694.69,309.2L694.69,309.2z"/>
	<polygon class="st17" points="309.12,330.75 305.98,326.86 385.28,262.81 437.37,290.88 477.16,238.15 512.69,250.16 583.6,159.06 
		587.55,162.14 514.46,256.04 478.98,244.05 438.78,297.32 385.83,268.79 	"/>
	<polygon class="st17" points="575.07,159.85 601.57,137.93 589.91,170.27 	"/>
</g>
</svg>
