<?xml version="1.0" encoding="utf-8"?>
<!-- Generator: Adobe Illustrator 24.2.1, SVG Export Plug-In . SVG Version: 6.00 Build 0)  -->
<svg version="1.1" id="Слой_1" xmlns="http://www.w3.org/2000/svg" xmlns:xlink="http://www.w3.org/1999/xlink" x="0px" y="0px"
	 viewBox="0 0 864.61 999.02" style="enable-background:new 0 0 864.61 999.02;" xml:space="preserve">
<style type="text/css">
	.st0{fill:#FFFFFF;}
	.st1{fill-rule:evenodd;clip-rule:evenodd;fill:#FFFFFF;}
	.st2{fill:#6B98D1;}
	.st3{fill-rule:evenodd;clip-rule:evenodd;fill:#6B98D1;}
	.st4{fill:#A4504A;}
	.st5{fill:#D7E6F7;}
	.st6{fill:#E3AB84;}
	.st7{fill-rule:evenodd;clip-rule:evenodd;fill:#E3AB84;}
	.st8{fill-rule:evenodd;clip-rule:evenodd;fill:#D7816C;}
	.st9{fill:#EFF7F3;}
	.st10{fill-rule:evenodd;clip-rule:evenodd;fill:#1C2036;}
	.st11{fill:#D7816C;}
	.st12{fill:#B46F5C;}
	.st13{fill-rule:evenodd;clip-rule:evenodd;fill:#B46F5C;}
	.st14{fill-rule:evenodd;clip-rule:evenodd;fill:#A4504A;}
	.st15{fill:#1C2036;}
	.st16{opacity:0.5;fill-rule:evenodd;clip-rule:evenodd;fill:#FFFFFF;}
	.st17{fill:#70BE8D;}
	.st18{opacity:0.3;fill-rule:evenodd;clip-rule:evenodd;fill:#1C2036;}
	.st19{fill-rule:evenodd;clip-rule:evenodd;fill:#D7E6F7;}
	.st20{fill-rule:evenodd;clip-rule:evenodd;fill:#484A73;}
	.st21{fill-rule:evenodd;clip-rule:evenodd;fill:#2F3C5A;}
</style>
<g>
	<g>
		<path class="st0" d="M862.78,239.7c-28.5,10.92-64.42,26.1-102.44,45.79c-80.68,41.8-187.68,112.93-239.14,214.57
			c-13.67,27.02-22.84,54.93-27.48,83.65c-1.83,0.11-3.67,0.22-5.53,0.3c4.67-29.69,14.08-58.52,28.21-86.4
			c52.1-102.93,160.13-174.8,241.56-216.94c38.89-20.14,75.61-35.6,104.52-46.62C862.62,235.93,862.73,237.82,862.78,239.7z"/>
		<path class="st0" d="M855.77,316.5c-0.4,1.94-0.86,3.91-1.35,5.88c-22.95,5.8-57.41,17.85-90.96,42.36
			c-41.85,30.55-89.02,85.97-103.09,184.1c-1.91,0.76-3.86,1.54-5.8,2.29c13.81-101.99,62.64-159.4,105.9-190.89
			C795.91,334.41,832.36,322.14,855.77,316.5z"/>
		<path class="st0" d="M418.14,584.28c-1.83-0.05-3.67-0.13-5.5-0.22c-0.65-15.02-3.4-36.57-12.22-60.67
			c-15.42-42.07-53.02-100.83-144.62-141.87c-91.71-41.12-147.99-97.86-162.77-164.14c-9.28-41.53-1.62-84.38,22.09-125.93
			c1.73,0.57,3.45,1.19,5.2,1.83c-23.46,40.67-31.07,82.49-22.03,122.94c14.4,64.53,69.63,120,159.72,160.37
			c93.46,41.91,131.84,102.09,147.56,145.24C414.71,546.88,417.54,568.96,418.14,584.28z"/>
		<path class="st0" d="M74.75,495.83c-1.65-1.19-3.26-2.37-4.88-3.64c6.2-41.91,3.07-106.81-43.6-184.21
			C-12.7,243.32-11.11,169.29,30.9,93.84c3.56-6.36,7.25-12.51,11.06-18.39c2.02,0.11,4.07,0.24,6.15,0.43
			c-4.31,6.58-8.55,13.48-12.57,20.71c-41.53,74.67-43.09,144.84-4.67,208.58C79.41,385.67,81.65,453.06,74.75,495.83z"/>
		<path class="st0" d="M341.5,578.18c-1.97-0.24-3.94-0.49-5.91-0.73c-12.67-37.27-38.78-89.1-89.47-112.53
			c-15.64-7.23-29.93-7.25-42.47-0.03c-22,12.7-35.78,45.36-44.17,75.67c-1.78-0.59-3.53-1.21-5.26-1.89
			c8.68-31.12,23.16-64.85,46.73-78.44c14.13-8.14,30.09-8.22,47.43-0.19C301.91,484.77,328.8,539.81,341.5,578.18z"/>
		<path class="st0" d="M757.83,43.09c-8.2,14.37-16.45,30.71-25.24,48.13c-40.85,81.03-91.71,181.91-203.54,207.18
			c-14.99,3.4-29.42,5.1-43.17,5.1c-31.52,0-59.68-8.9-84.03-26.64c-32.84-23.92-54.2-60.86-67.95-95.92
			c1.91-0.05,3.75-0.19,5.58-0.38c13.46,33.76,34.14,69.03,65.56,91.93c33.65,24.51,74.99,31.47,122.83,20.66
			C637.21,268.42,687.45,168.84,727.79,88.8c8.9-17.64,17.26-34.19,25.62-48.78C754.89,41.02,756.37,42.01,757.83,43.09z"/>
		<path class="st0" d="M726.17,24.16c-26.08,47.24-78.88,125.42-159.07,164.33c-12.62,6.12-24.92,9.17-36.86,9.17
			c-10.92,0-21.49-2.56-31.71-7.69c-28.37-14.21-49.97-46.09-65.8-79.66c1.32-1.59,2.64-3.18,3.96-4.83
			c15.53,33.68,36.7,65.85,64.26,79.66c19.77,9.92,41.23,9.41,63.77-1.51c78.82-38.24,130.84-115.17,156.59-161.8
			C722.93,22.57,724.55,23.35,726.17,24.16z"/>
		<path class="st0" d="M626.85,0.73c-4.85,34.06-19.23,77.23-60.3,87.51c-5.31,1.32-10.41,1.91-15.26,1.91
			c-27.29,0-47.27-19.39-60.81-40.04c1.4-1.11,2.83-2.21,4.23-3.26c14.97,23,38.1,44.22,70.54,36.13
			c37.29-9.3,50.99-49.67,55.9-82.14C623.05,0.78,624.97,0.73,626.85,0.73z"/>
	</g>
	<rect x="88.93" y="447.11" class="st1" width="176.99" height="133.49"/>
	<path class="st2" d="M89.18,447.99c26.7-26.7,53.41-53.41,80.11-80.11c3.79-3.79,7.59-7.59,11.39-11.38c-0.59,0-1.18,0-1.77,0
		c24.95,26.7,49.89,53.39,74.84,80.09c3.55,3.8,7.11,7.61,10.66,11.41c1.1,1.18,2.87-0.59,1.77-1.77
		c-24.95-26.7-49.89-53.39-74.84-80.09c-3.55-3.8-7.11-7.61-10.66-11.41c-0.46-0.49-1.3-0.47-1.77,0
		c-26.7,26.7-53.41,53.41-80.11,80.11c-3.79,3.8-7.59,7.59-11.39,11.39C86.27,447.36,88.04,449.13,89.18,447.99L89.18,447.99z"/>
	<circle class="st3" cx="179.93" cy="356.71" r="3.75"/>
	<path class="st2" d="M114.78,553.37c11.01-9.68,22.02-19.36,33.04-29.05c2.53-2.22,5.05-4.44,7.58-6.66
		c0.56-0.49,1.13-1.11,1.75-1.54c0.78-0.53-1.02-0.62-0.1,0.06c5.85,4.36,11.31,9.37,16.93,14.03c5.79,4.8,11.58,9.6,17.37,14.39
		c0.32,0.27,0.74,0.23,0.98-0.13c14.76-21.51,29.52-43.02,44.28-64.52c2.13-3.11,4.26-6.21,6.4-9.32c0.46-0.66-0.63-1.29-1.08-0.63
		c-10.58,15.42-21.17,30.84-31.75,46.27c-5.57,8.12-11.14,16.24-16.72,24.36c-0.58,0.85-1.36,1.72-1.81,2.64
		c-0.52,1.06,0.68,0.53,0.24,0.16c-3.06-2.57-6.16-5.1-9.23-7.65c-8.38-6.95-16.77-13.9-25.15-20.85c-0.27-0.23-0.61-0.24-0.88,0
		c-14.23,12.52-28.47,25.03-42.7,37.55C113.3,553.02,114.18,553.9,114.78,553.37L114.78,553.37z"/>
	<path class="st4" d="M114.51,532.26c5.19-2.17,10.38-4.34,15.57-6.51c3.28-1.37,6.56-2.74,9.83-4.11c0.76-0.32,1.87-1.05,2.69-1.12
		c0.49-0.04-0.46-0.15,0.68,0.34c2.82,1.2,5.53,3.6,8.1,5.26c3.18,2.07,6.36,4.14,9.55,6.2c3.09,2.01,3.31,1.8,6.85,0.91
		c14.18-3.54,28.36-7.08,42.54-10.61c2.5-0.62,7.32-0.85,9.36-2.53c0.73-0.6,1.27-2.11,1.75-2.9c1.48-2.46,2.96-4.92,4.44-7.38
		c7.23-12.01,14.45-24.01,21.68-36.02c0.42-0.69-0.66-1.32-1.08-0.63c-6.15,10.22-12.3,20.44-18.45,30.66
		c-2.92,4.86-5.59,10.05-8.85,14.7c-0.88,1.26,0.05,0.4-0.74,0.8c-1.59,0.82-3.97,0.99-5.7,1.42c-14.23,3.55-28.47,7.1-42.7,10.65
		c-1.71,0.43-3.7,1.27-5.47,1.37c-0.4,0.02-1.08,0.06-0.33,0.23c-0.6-0.14-1.35-0.88-1.85-1.2c-5.95-3.87-11.81-7.94-17.87-11.62
		c-3.51-2.13-8.6,1.82-12.08,3.27c-6.08,2.54-12.16,5.09-18.25,7.63C113.45,531.36,113.77,532.57,114.51,532.26L114.51,532.26z"/>
	<path class="st5" d="M107.05,463.96c0,29.2,0,58.41,0,87.61c0,4.13,0,8.26,0,12.39c0,0.34,0.29,0.63,0.63,0.63
		c41.44,0,82.87,0,124.31,0c5.9,0,11.79,0,17.69,0c0.8,0,0.81-1.25,0-1.25c-34.76,0-69.53,0-104.29,0c-8.87,0-17.75,0-26.62,0
		c-2.63,0-5.26,0-7.89,0c-0.84,0-2.38,0.31-3.18,0c1.02,0.4,0.42,0.82,0.62-0.3c0.16-0.89,0-1.94,0-2.84c0-3.34,0-6.68,0-10.02
		c0-10.57,0-21.14,0-31.71c0-18.16,0-36.33,0-54.49C108.3,463.16,107.05,463.16,107.05,463.96L107.05,463.96z"/>
	<rect x="312.11" y="375.53" class="st1" width="230.13" height="173.58"/>
	<path class="st2" d="M312.16,376.41c34.69-34.69,69.37-69.37,104.06-104.06c4.97-4.97,9.94-9.94,14.91-14.91c-0.59,0-1.18,0-1.77,0
		c32.45,34.73,64.9,69.45,97.35,104.18c4.61,4.93,9.21,9.86,13.82,14.79c1.1,1.18,2.87-0.59,1.77-1.77
		c-32.45-34.73-64.9-69.45-97.35-104.18c-4.61-4.93-9.21-9.86-13.82-14.79c-0.46-0.49-1.3-0.47-1.77,0
		c-34.69,34.69-69.37,69.37-104.06,104.06c-4.97,4.97-9.94,9.94-14.91,14.91C309.26,375.78,311.03,377.55,312.16,376.41
		L312.16,376.41z"/>
	<circle class="st3" cx="430.43" cy="257.99" r="4.88"/>
	<path class="st5" d="M335.86,397.44c0,38,0,76,0,114c0,5.34,0,10.69,0,16.03c0,0.34,0.29,0.63,0.63,0.63c20.77,0,41.54,0,62.32,0
		c33.13,0,66.27,0,99.4,0c7.64,0,15.28,0,22.92,0c0.8,0,0.81-1.25,0-1.25c-45.39,0-90.78,0-136.17,0c-11.44,0-22.88,0-34.32,0
		c-3.41,0-6.82,0-10.23,0c-0.96,0-3,0.41-3.91,0c1.23,0.54,0.34,0.6,0.62-0.67c0.24-1.11,0-2.53,0-3.66c0-4.39,0-8.78,0-13.17
		c0-13.64,0-27.28,0-40.93c0-23.66,0-47.32,0-70.98C337.11,396.64,335.86,396.64,335.86,397.44L335.86,397.44z"/>
	<path class="st6" d="M581.76,750.9c0,0-71.73,115.82-81.59,104.94c-9.86-10.89-4.76-46.58,50.58-134.88L581.76,750.9z"/>
	<path class="st7" d="M632.12,640.69L632.12,640.69c-8.22,0-14.95,6.94-14.95,15.42v20.4c0,8.48,6.73,15.42,14.95,15.42l0,0
		c8.23,0,14.96-6.94,14.96-15.42v-20.4C647.07,647.63,640.34,640.69,632.12,640.69z"/>
	<path class="st8" d="M632.12,615.69L632.12,615.69c-8.22,0-14.95,6.94-14.95,15.42v20.4c0,8.48,6.73,15.42,14.95,15.42l0,0
		c8.23,0,14.96-6.94,14.96-15.42v-20.4C647.07,622.63,640.34,615.69,632.12,615.69z"/>
	<path class="st8" d="M586.5,590.16c0.33-0.05,0.67-0.08,1.01-0.11c2.18,0.05,5.05,1.7,4.79,4.87l-0.64,7.84
		c5.16-0.17,6.11-5.11,6.02-9.15c2.99,2.75,4.73,6.8,4.37,11.16c-0.62,7.51-7.2,13.09-14.71,12.48c-7.5-0.62-9.05-15.14-8.43-22.65
		C578.91,594.61,580.13,589.63,586.5,590.16z"/>
	<path class="st8" d="M685.75,596.24c0.33,0.06,0.66,0.14,0.99,0.23l0.01,0l0,0c5.99,1.65,6.26,6.96,5.98,13.44
		c-0.33,7.52-2.7,13.66-10.22,13.33c-7.52-0.33-13.36-6.7-13.02-14.22c0.19-4.37,2.42-8.17,5.73-10.53c-0.6,4-0.28,9.01,4.82,9.83
		l0.35-7.86C680.52,597.28,683.58,596.01,685.75,596.24z"/>
	<path class="st7" d="M640.91,525.15L640.91,525.15c-25.64-1.61-47.93,18.04-49.54,43.67l-2.67,42.39
		c7.2,24.06,24.87,48.4,43.67,49.53l0.01,0c17.2,0.2,46.58-19.84,48.2-45.47l4-40.59C686.19,549.05,666.54,526.76,640.91,525.15z"/>
	<path class="st1" d="M621.54,629.5c-0.47,6.24,7.13,12.22,13.37,12.69c6.24,0.47,14.66-5.26,15.12-11.5l-0.02,0
		c0.08-1.07-0.73-2.02-1.8-2.1l-24.56-0.9c-1.07-0.08-2.02,0.73-2.1,1.8L621.54,629.5z"/>
	<path class="st1" d="M645.48,629.68l-17.53-1.32c-0.42,1.92,0.33,3.94,1.6,4.47c1.55,0.64,14.26,1.26,15.23,0.33
		C645.25,632.71,645.42,631.16,645.48,629.68z"/>
	<path class="st8" d="M663.12,621.1c-5.2,2.16-8.38,6.35-7.1,9.37c1.29,3.01,6.54,3.71,11.74,1.55c5.2-2.16,8.38-6.35,7.1-9.37
		C673.57,619.64,668.32,618.95,663.12,621.1z"/>
	<path class="st8" d="M611.04,618.46c-4.11-2.61-8.84-2.48-10.57,0.27c-1.73,2.76,0.2,7.12,4.3,9.73c4.1,2.61,8.84,2.49,10.57-0.27
		C617.07,625.43,615.15,621.07,611.04,618.46z"/>
	<path class="st1" d="M633.64,688.41c-12.42,0-14.96-9.54-14.96-9.54l-38.81,10.85c-8.95,24.66-6.75,64.99-6.75,64.99
		c6.47,41.84,4.81,45.69-0.48,87.29c-0.54,4.23,0.54,9.1,0.54,9.1c12.67,22.04,110.92,19.45,123.12-1.78c0,0,1.08-4.87,0.54-9.1
		c-5.29-41.6-9.17-43.67-2.69-85.51c0,0-15.53-36.87-2.29-63.75l-43.27-12.1C648.59,678.87,646.05,688.41,633.64,688.41z"/>
	<polygon class="st9" points="642.29,867.11 629.96,867.11 629.95,866.61 627.95,693.28 628.95,693.27 630.95,866.11 641.28,866.11 
		638.62,694.61 639.62,694.6 	"/>
	<path class="st10" d="M609.8,590.48c-0.78,0.36-1.7,0.01-2.06-0.77c-0.36-0.78-0.01-1.7,0.76-2.05c4.19-1.98,9.7-2.03,13.66,0.54
		c0.72,0.47,0.92,1.43,0.46,2.15c-0.47,0.72-1.43,0.92-2.15,0.46C617.28,588.73,613.17,589.02,609.8,590.48z"/>
	<path class="st10" d="M663.9,592.29c-3.26-1.7-7.34-2.28-10.67-0.44c-0.75,0.41-1.7,0.14-2.11-0.61c-0.41-0.75-0.14-1.7,0.61-2.11
		c4.13-2.28,9.62-1.83,13.66,0.43c0.75,0.41,1.03,1.36,0.62,2.11C665.59,592.42,664.64,592.7,663.9,592.29z"/>
	<path class="st11" d="M635.33,621.52c-0.55,0-1.17-0.09-1.86-0.27c-0.85-0.23-1.43-0.84-1.67-1.76c-0.71-2.71,1.66-7.78,3.58-9.67
		c0.7-0.68,1.33-0.95,1.88-0.79l-0.28,0.96c-0.1-0.03-0.41,0.05-0.91,0.54c-1.68,1.64-3.92,6.39-3.32,8.7
		c0.15,0.58,0.46,0.91,0.96,1.04c1.33,0.35,2.36,0.31,2.98-0.12c0.56-0.39,0.62-0.98,0.62-0.99l1,0.09c0,0.04-0.1,1.06-1.05,1.72
		C636.77,621.34,636.12,621.52,635.33,621.52z"/>
	<path class="st10" d="M620.03,559.71c-5.02-0.32-14.88,1.45-15.51,11.48c-0.63,10.03-3.03,17.86-9.43,17.46c0,0-0.22,3.47-0.5,7.87
		c-0.28,4.4-0.99,8.82-5.14,8.56c0.6-9.46-2.05-13.36-2.05-13.36s-5.63-18-4.93-29.06c0.7-11.06,11.17-20.39,26.33-29.68
		c19.63-12.02,45.81-10.37,63.77,4.01c13.88,11.12,22.55,17.23,21.86,28.29c-0.7,11.07-7.99,32.67-7.99,32.67s-3.12,3.54-3.71,13
		c-4.15-0.26-4.3-4.74-4.02-9.14c0.28-4.4,0.5-7.87,0.5-7.87c-6.4-0.4-7.8-8.47-7.16-18.5c0.63-10.03-8.93-13.02-13.95-13.33
		C645.4,561.31,632.71,560.51,620.03,559.71z"/>
	<g>
		<path class="st10" d="M671.28,557.84c0,0,10.72-7.39,10.73-15.83c0.02-15.49-31.67-41.11-51.26-30.08
			c-46.59-17.45-64.2,17.62-23.62,49.94c0.19,0.15,0.37,0.28,0.56,0.43c3.1-2.91,7.61-4.02,10.55-4.21
			c12.69-0.8,25.37-1.6,38.06-2.4c3.31-0.21,8.71,0.49,12.19,3.85C670.27,558.52,671.28,557.84,671.28,557.84z"/>
		<path class="st10" d="M679.69,545.94c-0.19,0.3-0.11,0.7,0.17,0.9c0.28,0.2,0.66,0.12,0.85-0.17c0.02-0.03,7.25-11.1-3.06-24.37
			c-0.21-0.28-0.6-0.32-0.86-0.09c-0.26,0.23-0.29,0.64-0.08,0.91C686.43,535.63,679.71,545.91,679.69,545.94z"/>
		<path class="st10" d="M668.37,521.63c0.22,0.27,0.61,0.31,0.86,0.08c0.26-0.23,0.29-0.64,0.07-0.91
			c-0.04-0.04-12.55-15.96-25-15.37c-12.92,0.61-8.9,14.54-8.89,14.58c0.09,0.34,0.44,0.54,0.76,0.45c0.32-0.1,0.51-0.46,0.41-0.81
			c-0.01-0.03-3.58-12.39,7.78-12.93C656.2,506.16,668.33,521.59,668.37,521.63z"/>
	</g>
	<g>
		<path class="st10" d="M655.75,611.86c2.96,0.68,5.91-1.17,6.59-4.13c0.68-2.96-1.17-5.91-4.13-6.59
			c-2.96-0.68-5.91,1.17-6.59,4.13C650.94,608.23,652.79,611.18,655.75,611.86z"/>
		<path class="st10" d="M613.54,609.23c2.96,0.68,5.91-1.17,6.59-4.13c0.68-2.96-1.17-5.91-4.13-6.59
			c-2.96-0.68-5.91,1.17-6.59,4.13C608.73,605.61,610.58,608.56,613.54,609.23z"/>
	</g>
	<path class="st12" d="M309.11,775.54c0,0,40.36,91.34,50.15,84.59c9.79-6.74,13.23-22.47-17.84-101.82L309.11,775.54z"/>
	<path class="st2" d="M334.6,743.85c9.47,4.41,18.68,44.56,18.68,44.56l-36.92,19.22c0,0-18.65-24.2-12.68-36.4
		C309.89,758.53,323.79,738.82,334.6,743.85z"/>
	<path class="st12" d="M215.66,750.02c0,0-71.83,88.58-60.42,94.42s35.61-1.7,95.77-70.76L215.66,750.02z"/>
	<path class="st10" d="M222.28,663.14c0,0,8.77,42.24,8.19,76.7c-0.57,34.46,56.04,2.77,56.04,2.77s46.01,9.97,34.49-22.5
		c-11.52-32.48,1.09-73.28,1.09-73.28l-52.44-7.37L222.28,663.14z"/>
	<path class="st13" d="M274.52,663.13L274.52,663.13c8.68,0,15.79,9.32,15.79,20.71v39.65c0,11.39-7.1,20.71-15.79,20.71l0,0
		c-8.68,0-15.79-9.32-15.79-20.71v-39.65C258.73,672.45,265.84,663.13,274.52,663.13z"/>
	<path class="st14" d="M274.52,663.13L274.52,663.13c8.68,0,15.79,9.32,15.79,20.71v32.79c-3.53,2.05-7.4,3.2-11.55,3.2
		c-7.42,0-14.35-4.76-20.03-11.99v-24C258.73,672.45,265.84,663.13,274.52,663.13z"/>
	<g>
		<path class="st8" d="M315.05,637.31c0.33-0.01,0.65,0,0.98,0.01l0.01,0l0,0c6,0.31,11.21,4.72,12.29,10.88
			c1.26,7.17-3.53,14-10.7,15.27c-7.17,1.26-14.01-3.53-15.27-10.7c-0.73-4.17,0.58-8.22,3.21-11.13c0.27,3.9,1.62,8.56,6.6,8.27
			l-1.32-7.49C310.34,639.4,312.96,637.55,315.05,637.31z"/>
		<path class="st8" d="M225.99,651.24c-0.32,0.09-0.63,0.2-0.93,0.31l-0.01,0l0,0c-5.62,2.12-9.23,7.91-8.39,14.12
			c0.99,7.21,7.64,12.26,14.85,11.27c7.21-0.99,12.26-7.64,11.27-14.85c-0.57-4.19-3.06-7.65-6.46-9.62
			c0.93,3.79,1.07,8.65-3.77,9.89l-1.03-7.53C231.11,651.78,228.06,650.83,225.99,651.24z"/>
	</g>
	<path class="st13" d="M278.74,707.94c-21.49,2.58-36.68-21.01-50.92-44.53l-5.14-31.43c-4.01-24.5,12.76-47.82,37.26-51.82h0
		c24.49-4,47.82,12.76,51.82,37.26l5.03,30.76C310.6,673.44,303.74,704.94,278.74,707.94z"/>
	<path class="st14" d="M302.88,659.77c-3.17-0.93-6.96,1.43-8.45,5.27c-1.49,3.85-2.86,8.71,0.31,9.65
		c3.17,0.93,9.68-2.42,11.18-6.27C307.41,664.58,306.05,660.7,302.88,659.77z"/>
	<path class="st14" d="M251.62,668.69c-4.39-1.2-8.6,0.92-9.41,4.73c-0.81,3.81,2.09,7.89,6.48,9.09c4.39,1.21,10,0.5,10.81-3.32
		C260.3,675.37,256.01,669.89,251.62,668.69z"/>
	<path class="st14" d="M255.46,635.83c1.01,0.27,1.6,1.31,1.33,2.32s-1.31,1.6-2.32,1.33c-0.02-0.01-6.08-1.75-10.9,2.51
		c-0.79,0.69-1.99,0.62-2.68-0.17c-0.69-0.79-0.62-1.99,0.17-2.68C247.42,633.52,255.43,635.82,255.46,635.83z"/>
	<path class="st14" d="M299.64,629.46c0.98,0.35,1.49,1.44,1.14,2.42c-0.35,0.98-1.44,1.49-2.42,1.14
		c-0.02-0.01-5.92-2.24-11.06,1.61c-0.84,0.63-2.03,0.46-2.66-0.38c-0.62-0.84-0.45-2.03,0.39-2.66
		C291.82,626.51,299.62,629.45,299.64,629.46z"/>
	<path class="st4" d="M273.54,669.58c-1.03,0-1.99-0.19-2.59-0.66c-1.34-1.06-0.67-5.18-0.15-7.53l0.98,0.21
		c-0.82,3.74-0.72,6.12-0.2,6.54c0.57,0.45,2.01,0.57,3.58,0.28c1.28-0.23,1.98-0.62,2.07-0.77l0.98,0.09
		c-0.01,0.43-0.34,0.79-1.01,1.11C276.31,669.27,274.87,669.58,273.54,669.58z"/>
	<path class="st10" d="M217.39,645.16l3.07,9.34c0,0,5.86-0.23,6.71,4.94c0,0,3.18-5.98,1.26-12.5c0,0,8.88-14.59,6.04-28.81
		c-2.84-14.22-7.69-23.45-7.69-23.45S209.2,614.92,217.39,645.16z"/>
	<path class="st10" d="M320.98,628.22l0.06,9.83c0,0-5.64,1.65-4.79,6.81c0,0-4.92-4.66-5.18-11.44c0,0-13.07-11.01-14.9-25.39
		c-1.84-14.38,2.59-21.76,2.59-21.76S319.11,596.95,320.98,628.22z"/>
	<g>
		<path class="st10" d="M294.34,656.41c2.93-0.48,4.92-3.24,4.44-6.17c-0.07-0.4-0.18-0.78-0.32-1.14l0.57-0.31
			c0.59-0.34,1.18-0.81,1.67-1.48c0.22-0.3,0.16-0.72-0.13-0.94c-0.3-0.22-0.72-0.16-0.94,0.13c-0.49,0.65-1.08,1.06-1.66,1.32
			l-0.01-0.01c0.55-0.46,1.07-1.1,1.37-1.99c0.12-0.35-0.07-0.73-0.42-0.85c-0.35-0.12-0.73,0.07-0.85,0.43
			c-0.24,0.73-0.71,1.23-1.16,1.56l-0.06-0.05c0.34-0.39,0.65-0.92,0.73-1.61c0.04-0.37-0.22-0.7-0.59-0.75
			c-0.37-0.04-0.7,0.22-0.75,0.59c-0.06,0.5-0.32,0.84-0.56,1.06c-0.92-0.41-1.97-0.57-3.05-0.39c-2.93,0.48-4.92,3.24-4.44,6.17
			C288.65,654.91,291.41,656.89,294.34,656.41z"/>
		<path class="st10" d="M251.62,663.4c-2.93,0.48-5.69-1.51-6.17-4.43c-0.07-0.4-0.09-0.8-0.06-1.18l-0.64-0.12
			c-0.67-0.13-1.37-0.4-2.06-0.87c-0.31-0.21-0.38-0.63-0.17-0.93c0.21-0.31,0.63-0.38,0.94-0.17c0.67,0.46,1.36,0.66,2,0.72
			l0.01-0.01c-0.67-0.26-1.37-0.7-1.93-1.45c-0.22-0.3-0.16-0.72,0.13-0.94c0.29-0.22,0.72-0.16,0.94,0.13
			c0.47,0.62,1.06,0.94,1.6,1.11l0.04-0.06c-0.44-0.26-0.91-0.66-1.21-1.29c-0.16-0.34-0.01-0.74,0.32-0.9
			c0.34-0.16,0.74-0.02,0.9,0.32c0.21,0.45,0.57,0.7,0.87,0.82c0.74-0.69,1.69-1.17,2.76-1.35c2.93-0.48,5.69,1.51,6.17,4.43
			C256.54,660.16,254.56,662.92,251.62,663.4z"/>
	</g>
	<path class="st1" d="M288.13,677.25c0.84,5.17-5.32,11.29-10.49,12.13c-5.17,0.84-13.57-3.59-14.42-8.76
		c-0.15-0.95,4.02-0.92,4.97-1.07l15.27-2.5C284.41,676.9,287.97,676.3,288.13,677.25z"/>
	<path class="st3" d="M258.01,727.1c0,0,3.58,9.21,16.76,9.21c13.17,0,15.37-11.55,15.37-11.55l44.9,19.73
		c-7.25,10.76-9.2,42.36-9.2,42.36c1.4,10.29-9.08,50.19-8.61,58.14c0.47,7.95,14.53,46.3,14.53,46.3
		c-22.52,0.67-43.1-4.33-57.52-4.33c-14.42,0-23,1-52.63,4.44c0,0,15.2-41.68,15.67-49.64c0.47-7.95-17.28-40.31-15.88-50.6
		c0,0,0.79-32.85-6.46-43.6L258.01,727.1z"/>
	<path class="st10" d="M225.21,600.42c0,0,20.74-79.3,83.7-17.98c13.22,12.87,27.08,26.33,25.84,33.71
		C330.09,643.92,233.65,635.92,225.21,600.42z"/>
	<path class="st15" d="M297.34,630.34c-30.93,0-65.69-12.09-70.61-32.81l-0.03-0.12l0.03-0.12c0.09-0.34,9.14-33.96,32.65-40.5
		c14.97-4.17,32.42,3.34,51.89,22.3l0.24,0.24c13.28,12.94,27.02,26.32,25.74,33.91c-1.68,9.98-15.15,16.35-36.04,17.05
		C299.92,630.32,298.63,630.34,297.34,630.34z M227.73,597.42c5.13,21.02,42.07,32.91,73.44,31.85c20.38-0.68,33.5-6.74,35.09-16.22
		c1.19-7.08-12.36-20.27-25.45-33.03l-0.24-0.24c-19.19-18.69-36.32-26.11-50.92-22.05C237.38,563.94,228.34,595.23,227.73,597.42z"
		/>
	<path class="st15" d="M315.68,596.91c11.73,32.88,18.46,68.97,19.18,103.8c0.32,15.48-0.81,31-4.23,46.13
		c-0.18,0.78,1.03,1.12,1.21,0.33c10.28-45.44,1.92-94.8-11.19-138.85c-1.17-3.93-2.37-7.87-3.75-11.74
		C316.62,595.83,315.41,596.15,315.68,596.91L315.68,596.91z"/>
	<path class="st16" d="M226.78,594.67c0,0,39.84,41.45,101.21,8.61l-11.84-14c0,0-31.76,32.84-89.36,4.84V594.67z"/>
	<path class="st2" d="M218.59,745.5c-10.39,1.07-32.23,36-32.23,36l28.6,30.24c0,0,25.54-16.76,23.89-30.24
		C237.13,767.46,230.44,744.28,218.59,745.5z"/>
	<circle class="st1" cx="659.24" cy="608.69" r="2"/>
	<circle class="st1" cx="616.49" cy="605.69" r="2"/>
	<path class="st15" d="M599.91,568.44c-15.2-16.3-22.04-30.71-20.35-42.82c1.49-10.64,9.09-15.34,9.41-15.53l0.52,0.86
		c-0.08,0.05-7.53,4.67-8.94,14.84c-1.64,11.8,5.13,25.92,20.1,41.98L599.91,568.44z"/>
	<path class="st5" d="M223.57,804.32l-0.66-0.75c0.2-0.18,19.68-17.95-8.38-55.71l0.8-0.6C243.98,785.8,223.78,804.14,223.57,804.32
		z"/>
	
		<rect x="254.81" y="854.47" transform="matrix(0.6696 -0.7428 0.7428 0.6696 -546.3997 481.7499)" class="st17" width="26.85" height="1"/>
	<line class="st18" x1="324.24" y1="802.94" x2="314.24" y2="761.94"/>
	<polygon class="st2" points="259.58,722.27 274.34,735.55 264.24,753.61 246.99,730.19 	"/>
	<polygon class="st2" points="289.58,722.27 273.58,735.61 284.91,753.61 301.99,728.44 	"/>
	<path class="st5" d="M264.3,754.53l-18.03-24.48l13.36-8.4l15.43,13.62L264.3,754.53z M247.71,730.33l16.47,22.36l9.61-17.2
		l-14.27-12.59L247.71,730.33z"/>
	<path class="st5" d="M284.87,754.55l-10.83-19.2l15.46-13.68l13.23,6.57L284.87,754.55z M275.31,735.57l9.64,17.09l16.31-24.03
		l-11.6-5.76L275.31,735.57z"/>
	<path class="st6" d="M685.34,747.3c0,0,71.63,118.93,81.49,108.04c9.86-10.89,7.49-46.44-47.85-134.73L685.34,747.3z"/>
	<path class="st4" d="M150.59,841.44c0,0-3.3-3.5,10.36-7c13.66-3.5,27.79,3,27.79,8.5s-5.18,25.5-15.07,26.5
		S150.59,841.44,150.59,841.44z"/>
	<path class="st10" d="M226.78,595.75c0,0-36.61,29.61,3.23,158.27c0,0,37.68,18.3,15.61-52.76S226.78,595.75,226.78,595.75z"/>
	<path class="st10" d="M309.01,596.78c0,0,39.93,24.95,16,157.49c0,0-35.18,22.74-21.9-50.47S309.01,596.78,309.01,596.78z"/>
	<path class="st1" d="M691.86,690.97c0,0,9.57,3.26,12.78,6.05c3.21,2.78,38.98,57.29,38.98,57.29l-35.88,37.14l-19.79-37.67
		C687.95,753.77,674.91,717.39,691.86,690.97z"/>
	<path class="st1" d="M579.87,689.72c0,0-9.57,3.26-12.78,6.05c-3.21,2.78-39.88,62.53-39.88,62.53l41.53,33.14l23.03-50.59
		C591.77,740.85,586.17,727.46,579.87,689.72z"/>
	<path class="st9" d="M678.22,808.91l-0.65-0.76c9.74-8.44,12.72-22.69,12.75-22.83l0.98,0.2
		C691.27,785.67,688.23,800.24,678.22,808.91z M583.25,806.93c-5.21-4.08-6.51-17.09-6.56-17.64l1-0.09
		c0.01,0.13,1.3,13.13,6.18,16.95L583.25,806.93z M693.68,754.89c-0.12-0.33-11.84-32.79,2.33-55.38l0.85,0.53
		c-13.91,22.17-2.36,54.18-2.24,54.5L693.68,754.89z M572.63,754.8c-0.06-0.34-5.6-34,4.46-57.63l0.92,0.39
		c-9.94,23.37-4.45,56.74-4.4,57.08L572.63,754.8z M557.54,745.97l-1-0.06l2.16-38.18l1,0.06L557.54,745.97z M712.8,743.29
		l-0.89-35.68l1-0.03l0.89,35.68L712.8,743.29z"/>
	<polygon class="st1" points="606.45,682.61 616.58,670.27 633.64,688.41 619.79,700.61 	"/>
	<polygon class="st1" points="648.08,668.44 660.79,682.27 644.45,700.61 633.64,688.41 	"/>
	<polyline class="st1" points="633.47,688.37 619.62,700.56 606.29,682.56 	"/>
	<polygon class="st9" points="619.54,701.3 605.88,682.86 606.69,682.27 619.7,699.83 633.14,687.99 633.8,688.75 	"/>
	<polygon class="st9" points="644.45,701.36 633.26,688.74 634.01,688.08 644.45,699.85 660.41,681.94 661.16,682.6 	"/>
	<polygon class="st19" points="590.26,844.21 575.68,795.52 689.01,795.52 681.88,844.07 	"/>
	<path class="st11" d="M591.8,784.84c0,0-73.38,84.5-95.43,61.98c-12.44-12.7-3.95-26.73,86.82-81.59L591.8,784.84z"/>
	<polygon class="st5" points="283.3,842.96 270.96,842.96 269.01,744.56 270.01,744.54 271.94,841.96 282.27,841.96 279.68,745.48 
		280.68,745.45 	"/>
	<rect x="379.68" y="721.96" class="st0" width="110" height="141"/>
	<rect x="379.68" y="728.46" class="st9" width="110.5" height="1"/>
	<rect x="379.68" y="738.46" class="st9" width="110.5" height="1"/>
	<rect x="379.68" y="742.46" class="st9" width="110.5" height="1"/>
	<rect x="379.68" y="745.46" class="st9" width="110.5" height="1"/>
	<rect x="379.68" y="775.46" class="st9" width="110.5" height="1"/>
	<rect x="379.68" y="755.46" class="st9" width="110.5" height="1"/>
	<rect x="379.68" y="757.46" class="st9" width="110.5" height="1"/>
	<rect x="379.68" y="759.46" class="st9" width="110.5" height="1"/>
	<rect x="379.68" y="762.46" class="st9" width="110.5" height="1"/>
	<rect x="379.68" y="792.46" class="st9" width="110.5" height="1"/>
	<rect x="379.68" y="782.46" class="st9" width="110.5" height="1"/>
	<rect x="379.68" y="784.46" class="st9" width="110.5" height="1"/>
	<rect x="379.68" y="794.46" class="st9" width="110.5" height="1"/>
	<rect x="379.68" y="802.46" class="st9" width="110.5" height="1"/>
	<rect x="379.68" y="822.46" class="st9" width="110.5" height="1"/>
	<rect x="379.68" y="832.46" class="st9" width="110.5" height="1"/>
	<rect x="379.68" y="828.46" class="st9" width="110.5" height="1"/>
	<rect x="376.68" y="838.46" class="st9" width="110.5" height="1"/>
	<rect x="379.68" y="848.46" class="st9" width="110.5" height="1"/>
	<rect x="379.68" y="850.46" class="st9" width="110.5" height="1"/>
	<rect x="379.68" y="844.46" class="st9" width="110.5" height="1"/>
	<polygon class="st9" points="379.68,721.96 395.18,711.46 477.68,711.46 489.68,722.21 	"/>
	<polygon class="st1" points="232.3,843.21 219.34,799.96 320.01,799.96 313.68,843.09 	"/>
	<polygon class="st12" points="295.29,844.4 361.01,842.63 359.54,812.88 295.87,830.12 	"/>
	<path class="st12" d="M266.85,835.67l18.37-2.73l-3.13-0.81c-25.32,4.08-23.56-3.47-23.56-3.47s24.48-5.91,24.82-5.03
		c0.34,0.89,20.48,6,20.48,6l10.39,3.65l-2.52,4.2l2.72,3.54c0,0-40.36,7.39-41.83,7.95c-2.67,1.02-30.61-7.96-30.61-7.96
		S226.78,828.1,266.85,835.67z"/>
	<path class="st6" d="M634.32,841.26l18.5,1.59l-3.08,1c-25.52-2.52-23.31,4.91-23.31,4.91s24.8,4.4,25.08,3.5
		c0.28-0.91,20.07-7.24,20.07-7.24l10.15-4.28l-2.78-4.04l2.5-3.7c0,0-40.74-4.9-42.24-5.37c-2.73-0.85-30.06,9.83-30.06,9.83
		S594.79,851.27,634.32,841.26z"/>
	<path class="st20" d="M618.09,769.34c0,0-20.97,6.93-35.58,7.05c0,0-4.81,5.6,1.52,8.27c0,0,26.9-9.47,34.76-10.31L618.09,769.34z"
		/>
	
		<ellipse transform="matrix(0.9853 -0.1708 0.1708 0.9853 -120.9517 121.8047)" class="st20" cx="647.47" cy="763.89" rx="30.58" ry="10.42"/>
	
		<ellipse transform="matrix(0.9853 -0.1708 0.1708 0.9853 -121.6967 121.9873)" class="st19" cx="648.16" cy="768.31" rx="30.58" ry="10.42"/>
	
		<ellipse transform="matrix(0.041 -0.9992 0.9992 0.041 -128.8028 1392.7209)" class="st1" cx="661.13" cy="763.46" rx="2.23" ry="6.55"/>
	<path class="st11" d="M579.32,767.53c0,0,17.87-12.47,34.54-3.26"/>
	<path class="st6" d="M589.43,784.96c0,0-57.75,76-91.42,61c-16.24-7.24-9.33-21.67,85.08-79.52L589.43,784.96z"/>
	<path class="st6" d="M579.45,771.42c0,0-3.61-3.17,9.64-7.93s27.9,0.37,28.42,5.84c0.52,5.47-2.76,25.83-12.49,27.75
		C595.28,799.01,579.45,771.42,579.45,771.42z"/>
	<rect x="84.24" y="842.94" class="st20" width="704" height="12"/>
	<path class="st15" d="M250.43,674.96c-9.51,0-17.25-7.74-17.25-17.25s7.74-17.25,17.25-17.25s17.25,7.74,17.25,17.25
		S259.94,674.96,250.43,674.96z M250.43,641.46c-8.96,0-16.25,7.29-16.25,16.25s7.29,16.25,16.25,16.25s16.25-7.29,16.25-16.25
		S259.39,641.46,250.43,641.46z"/>
	<path class="st15" d="M292.43,667.96c-9.51,0-17.25-7.74-17.25-17.25s7.74-17.25,17.25-17.25s17.25,7.74,17.25,17.25
		S301.94,667.96,292.43,667.96z M292.43,634.46c-8.96,0-16.25,7.29-16.25,16.25s7.29,16.25,16.25,16.25s16.25-7.29,16.25-16.25
		S301.39,634.46,292.43,634.46z"/>
	<path class="st15" d="M267.44,654.71l-0.87-0.5c0.06-0.11,1.53-2.62,4.22-3.09c1.78-0.31,3.65,0.35,5.54,1.96l-0.65,0.76
		c-1.65-1.41-3.23-1.99-4.71-1.74C268.75,652.49,267.46,654.69,267.44,654.71z"/>
	
		<rect x="303.25" y="638.82" transform="matrix(0.2109 -0.9775 0.9775 0.2109 -380.5177 807.2506)" class="st15" width="13" height="1"/>
	
		<rect x="231.18" y="636.77" transform="matrix(0.9341 -0.3569 0.3569 0.9341 -214.8369 125.1409)" class="st15" width="1" height="15.88"/>
	<path class="st6" d="M763.45,842.69c0,0-108.96,5.64-100.52-3.98c9-10.25,17.25-13.75,96-25.75L763.45,842.69z"/>
	<polygon class="st21" points="735.97,892.96 134.12,892.96 84.24,853.94 788.24,853.94 	"/>
	<path class="st12" d="M150.59,842.44c0,0-3.3-3.5,10.36-7c13.66-3.5,27.79,3,27.79,8.5s-5.18,25.5-15.07,26.5
		S150.59,842.44,150.59,842.44z"/>
	<rect x="363.34" y="425.96" class="st3" width="38.67" height="101.33"/>
	<rect x="411.34" y="463.3" class="st19" width="30.67" height="64"/>
	<rect x="461.34" y="443.3" class="st8" width="27.33" height="84"/>
</g>
</svg>
