<?xml version="1.0" encoding="UTF-8"?>
<svg width="32px" height="32px" viewBox="0 0 32 32" version="1.1" xmlns="http://www.w3.org/2000/svg" xmlns:xlink="http://www.w3.org/1999/xlink">
    <title>16A18DE0-E47A-4B4C-9D39-5DD937B0DB02</title>
    <g id="Wireframes" stroke="none" stroke-width="1" fill="none" fill-rule="evenodd">
        <g id="report---share-modal" transform="translate(-24.000000, -747.000000)">
            <g id="icon-facebook" transform="translate(24.000000, 747.000000)">
                <polygon id="Path" points="0 0 32 0 32 32 0 32"></polygon>
                <path d="M17.3333333,26.584 C22.9156093,25.8737018 26.9862199,20.9495355 26.6338394,15.3332951 C26.2814589,9.71705464 21.62728,5.34030891 16,5.33333032 C10.3652596,5.32913732 5.69917164,9.70836698 5.34632414,15.3320505 C4.99347664,20.9557339 9.07559238,25.8838533 14.6666667,26.584 L14.6666667,18.6666667 L12,18.6666667 L12,16 L14.6666667,16 L14.6666667,13.7946667 C14.6666667,12.012 14.8533333,11.3653333 15.2,10.7133333 C15.541486,10.0682476 16.0692804,9.54091774 16.7146667,9.2 C17.224,8.92666667 17.8573333,8.76266667 18.964,8.692 C19.4026667,8.664 19.9706667,8.69866667 20.668,8.79866667 L20.668,11.332 L20,11.332 C18.7773333,11.332 18.272,11.3893333 17.9706667,11.5506667 C17.7908621,11.6431423 17.6444756,11.7895288 17.552,11.9693333 C17.392,12.2706667 17.3333333,12.5693333 17.3333333,13.7933333 L17.3333333,16 L20.6666667,16 L20,18.6666667 L17.3333333,18.6666667 L17.3333333,26.584 Z M16,29.3333333 C8.636,29.3333333 2.66666667,23.364 2.66666667,16 C2.66666667,8.636 8.636,2.66666667 16,2.66666667 C23.364,2.66666667 29.3333333,8.636 29.3333333,16 C29.3333333,23.364 23.364,29.3333333 16,29.3333333 Z" id="Shape" fill="#666666" fill-rule="nonzero"></path>
            </g>
        </g>
    </g>
</svg>