<?xml version="1.0" encoding="UTF-8"?>
<svg width="32px" height="32px" viewBox="0 0 32 32" version="1.1" xmlns="http://www.w3.org/2000/svg" xmlns:xlink="http://www.w3.org/1999/xlink">
    <title>D001ECE2-08E9-4B06-9EE5-F0210B57DDCA</title>
    <g id="Wireframes" stroke="none" stroke-width="1" fill="none" fill-rule="evenodd">
        <g id="report---share-modal" transform="translate(-319.000000, -747.000000)">
            <g id="icon-twitter" transform="translate(319.000000, 747.000000)">
                <polygon id="Path" points="0 0 32 0 32 32 0 32"></polygon>
                <path d="M20.4,7.39999994 C18.2917944,7.39964789 16.5718626,9.08814644 16.5333333,11.196 L16.496,13.296 C16.4915797,13.5240531 16.3900223,13.7393749 16.2168569,13.8878388 C16.0436915,14.0363026 15.8153869,14.103789 15.5893333,14.0733333 L13.508,13.7906667 C10.7693333,13.4173333 8.14533333,12.156 5.628,10.0586667 C4.83066667,14.472 6.388,17.5293333 10.1386667,19.888 L12.468,21.352 C12.692726,21.4932256 12.8327781,21.7367132 12.8418606,22.0019752 C12.8509431,22.2672373 12.7278733,22.5197341 12.5133333,22.676 L10.3906667,24.2266667 C11.6533333,24.3053333 12.852,24.2493333 13.8466667,24.052 C20.1373333,22.796 24.32,18.0626667 24.32,10.2546667 C24.32,9.61733333 22.9706667,7.39999994 20.4,7.39999994 L20.4,7.39999994 Z M13.8666667,11.1466667 C13.9142505,8.51891207 15.5317779,6.17549015 17.9718864,5.19915573 C20.4119949,4.22282132 23.1995804,4.80367273 25.0466667,6.67333333 C25.9946667,6.66666667 26.8013333,6.90666667 28.6053333,5.81333333 C28.1586667,8 27.9386667,8.94933333 26.9866667,10.2546667 C26.9866667,20.444 20.724,25.3986667 14.3693333,26.6666667 C10.012,27.536 3.676,26.108 1.86,24.212 C2.78533333,24.14 6.54533333,23.736 8.71866667,22.1453333 C6.88,20.9333333 -0.438666667,16.6266667 4.37066667,5.048 C6.628,7.684 8.91733333,9.47866667 11.2373333,10.4306667 C12.7813333,11.064 13.16,11.0506667 13.868,11.148 L13.8666667,11.1466667 Z" id="Shape" fill="#666666" fill-rule="nonzero"></path>
            </g>
        </g>
    </g>
</svg>