<?xml version="1.0" encoding="utf-8"?>
<!-- Generator: Adobe Illustrator 24.2.1, SVG Export Plug-In . SVG Version: 6.00 Build 0)  -->
<svg version="1.1" id="Слой_1" xmlns="http://www.w3.org/2000/svg" xmlns:xlink="http://www.w3.org/1999/xlink" x="0px" y="0px"
	 viewBox="0 0 864.61 999.02" style="enable-background:new 0 0 864.61 999.02;" xml:space="preserve">
<style type="text/css">
	.st0{fill:#6B98D1;}
	.st1{fill:#FFFFFF;}
	.st2{fill:#B46F5C;}
	.st3{fill-rule:evenodd;clip-rule:evenodd;fill:#B46F5C;}
	.st4{fill-rule:evenodd;clip-rule:evenodd;fill:#A4504A;}
	.st5{fill-rule:evenodd;clip-rule:evenodd;fill:#FFFFFF;}
	.st6{fill:#EFF7F3;}
	.st7{fill-rule:evenodd;clip-rule:evenodd;fill:#1C2036;}
	.st8{fill:#A4504A;}
	.st9{fill:#E3AB84;}
	.st10{fill:#1C2036;}
	.st11{fill-rule:evenodd;clip-rule:evenodd;fill:#F3E9D6;}
	.st12{fill-rule:evenodd;clip-rule:evenodd;fill:#E3AB84;}
	.st13{fill-rule:evenodd;clip-rule:evenodd;fill:#D7816C;}
	.st14{fill:#D7816C;}
	.st15{fill:#F3E9D6;}
	.st16{opacity:0.5;fill-rule:evenodd;clip-rule:evenodd;fill:#FFFFFF;}
	.st17{opacity:0.5;fill:#FFFFFF;}
	.st18{fill:#70BE8D;}
	.st19{fill-rule:evenodd;clip-rule:evenodd;fill:#2F3C5A;}
	.st20{fill-rule:evenodd;clip-rule:evenodd;fill:#484A73;}
	.st21{fill:#2F3C5A;}
	.st22{fill:#484A73;}
	.st23{opacity:0.5;fill:#6B98D1;}
	.st24{opacity:0.5;fill:#D7E6F7;}
</style>
<g>
	<path class="st0" d="M360.21,653.46c-3.04,0-6.05-0.04-9.04-0.11l0.08-3c2.96,0.08,6.01,0.13,8.97,0.11c1,0,1.99,0,2.99-0.01
		l0.03,3C362.22,653.46,361.22,653.46,360.21,653.46z M375.26,653.13l-0.13-3c3.96-0.17,7.97-0.42,11.92-0.73l0.24,2.99
		C383.3,652.7,379.26,652.95,375.26,653.13z M339.12,652.82c-3.99-0.24-8.04-0.56-12.02-0.94l0.29-2.99
		c3.94,0.38,7.95,0.7,11.91,0.94L339.12,652.82z M399.28,651.22l-0.34-2.98c3.93-0.45,7.92-0.98,11.84-1.57l0.45,2.97
		C407.26,650.23,403.25,650.76,399.28,651.22z M315.13,650.51c-3.96-0.52-7.97-1.13-11.92-1.79l0.5-2.96
		c3.91,0.66,7.88,1.26,11.81,1.78L315.13,650.51z M423.1,647.62l-0.55-2.95c3.9-0.73,7.83-1.54,11.7-2.41l0.66,2.93
		C431.01,646.06,427.04,646.88,423.1,647.62z M291.37,646.5c-3.92-0.81-7.88-1.69-11.76-2.64l0.71-2.92
		c3.85,0.94,7.77,1.82,11.66,2.61L291.37,646.5z M446.61,642.33l-0.76-2.9c3.83-1.01,7.7-2.1,11.49-3.24l0.87,2.87
		C454.38,640.21,450.48,641.32,446.61,642.33z M267.95,640.81c-3.84-1.08-7.73-2.25-11.54-3.47l0.92-2.86
		c3.78,1.21,7.63,2.37,11.44,3.44L267.95,640.81z M469.68,635.38l-0.97-2.84c3.75-1.28,7.53-2.64,11.23-4.06l1.07,2.8
		C477.28,632.71,473.46,634.09,469.68,635.38z M244.99,633.46c-3.77-1.36-7.56-2.8-11.26-4.29l1.12-2.78
		c3.67,1.47,7.43,2.9,11.16,4.25L244.99,633.46z M492.16,626.8l-1.17-2.76c3.64-1.54,7.3-3.16,10.89-4.83l1.27,2.72
		C499.53,623.61,495.83,625.25,492.16,626.8z M222.63,624.49c-3.65-1.62-7.33-3.33-10.93-5.08l1.31-2.7
		c3.57,1.74,7.22,3.43,10.83,5.03L222.63,624.49z M513.95,616.66l-1.36-2.67c3.52-1.79,7.06-3.68,10.52-5.6l1.46,2.62
		C521.08,612.95,517.51,614.85,513.95,616.66z M200.95,613.94c-3.53-1.87-7.07-3.84-10.54-5.84l1.5-2.6
		c3.44,1.99,6.95,3.94,10.45,5.79L200.95,613.94z M534.98,604.99l-1.55-2.57c3.39-2.04,6.79-4.17,10.1-6.33l1.64,2.51
		C541.83,600.78,538.4,602.93,534.98,604.99z M180.09,601.88c-0.82-0.51-1.63-1.03-2.45-1.55l1.61-2.53
		c0.81,0.51,1.62,1.03,2.43,1.53L180.09,601.88z M555.14,591.86l-1.73-2.45c3.24-2.28,6.48-4.64,9.64-7.04l1.81,2.39
		C561.68,587.17,558.41,589.56,555.14,591.86z M574.33,577.32l-1.89-2.33c3.08-2.51,6.14-5.1,9.12-7.7l1.98,2.26
		C580.53,572.18,577.44,574.79,574.33,577.32z M592.46,561.46l-2.05-2.19c2.89-2.71,5.77-5.52,8.56-8.33l2.13,2.11
		C598.28,555.9,595.37,558.73,592.46,561.46z M609.43,544.36l-2.2-2.04c2.69-2.91,5.37-5.91,7.95-8.91l2.27,1.96
		C614.84,538.4,612.14,541.42,609.43,544.36z M625.15,526.09l-2.34-1.88c2.48-3.1,4.94-6.28,7.31-9.46l2.41,1.79
		C630.14,519.76,627.66,522.97,625.15,526.09z M639.56,506.75l-2.47-1.71c2.26-3.27,4.49-6.62,6.62-9.96l2.53,1.62
		C644.09,500.07,641.84,503.45,639.56,506.75z M652.56,486.43l-2.58-1.53c2.01-3.41,4-6.91,5.9-10.4l2.64,1.43
		C656.6,479.46,654.59,482.99,652.56,486.43z M664.09,465.23l-2.68-1.34c1.77-3.54,3.5-7.18,5.15-10.8l2.73,1.24
		C667.62,457.98,665.88,461.65,664.09,465.23z M674.09,443.24l-2.77-1.14c1.51-3.67,2.98-7.43,4.36-11.15l2.81,1.04
		C677.1,435.75,675.61,439.54,674.09,443.24z M682.49,420.59l-2.85-0.94c1.25-3.77,2.44-7.6,3.54-11.4l2.88,0.84
		C684.95,412.92,683.74,416.79,682.49,420.59z M689.23,397.45l-2.91-0.74c0.97-3.83,1.89-7.75,2.72-11.63l2.93,0.63
		C691.13,389.64,690.21,393.58,689.23,397.45z M694.3,373.9l-2.95-0.53c0.69-3.9,1.33-7.86,1.88-11.79l2.97,0.42
		C695.64,365.96,695,369.97,694.3,373.9z M697.68,350.04l-2.98-0.32c0.42-3.94,0.77-7.94,1.04-11.9l2.99,0.21
		C698.45,342.03,698.1,346.07,697.68,350.04z M699.36,326.01l-3-0.1c0.14-3.95,0.21-7.97,0.21-11.94h3
		C699.57,317.97,699.5,322.02,699.36,326.01z"/>
	<path class="st0" d="M554.37,675.34l-0.02-3c3.96-0.02,7.98-0.11,11.94-0.28l0.12,3C562.42,675.22,558.37,675.31,554.37,675.34z
		 M542.31,675.18c-4.01-0.12-8.06-0.32-12.05-0.58l0.2-2.99c3.95,0.26,7.97,0.46,11.94,0.58L542.31,675.18z M578.46,674.35
		l-0.23-2.99c3.96-0.3,7.96-0.68,11.89-1.13l0.34,2.98C586.49,673.66,582.45,674.04,578.46,674.35z M518.25,673.6
		c-3.98-0.41-8.01-0.89-11.97-1.43l0.41-2.97c3.93,0.54,7.92,1.02,11.87,1.42L518.25,673.6z M602.41,671.65l-0.44-2.97
		c3.92-0.59,7.89-1.25,11.78-1.97l0.55,2.95C610.36,670.39,606.37,671.06,602.41,671.65z M494.36,670.31
		c-3.95-0.69-7.93-1.45-11.84-2.28l0.62-2.94c3.87,0.82,7.82,1.58,11.73,2.26L494.36,670.31z M470.78,665.34
		c-3.88-0.96-7.8-2.01-11.65-3.11l0.82-2.88c3.81,1.09,7.7,2.13,11.54,3.08L470.78,665.34z M447.6,658.72
		c-3.8-1.23-7.64-2.55-11.4-3.92l1.03-2.82c3.72,1.35,7.52,2.66,11.29,3.88L447.6,658.72z M424.96,650.48
		c-3.71-1.5-7.44-3.08-11.09-4.71l1.22-2.74c3.62,1.61,7.31,3.18,10.99,4.67L424.96,650.48z M402.96,640.67
		c-3.59-1.76-7.2-3.6-10.73-5.48l1.41-2.65c3.49,1.86,7.07,3.69,10.63,5.43L402.96,640.67z M381.71,629.34
		c-3.46-2.01-6.93-4.1-10.31-6.22l1.6-2.54c3.35,2.11,6.79,4.18,10.22,6.17L381.71,629.34z M361.32,616.53
		c-3.31-2.25-6.62-4.58-9.84-6.94l1.77-2.42c3.19,2.34,6.47,4.65,9.75,6.88L361.32,616.53z M341.9,602.3
		c-3.13-2.47-6.27-5.03-9.32-7.62l1.94-2.29c3.02,2.56,6.13,5.1,9.23,7.55L341.9,602.3z M323.55,586.74
		c-2.96-2.69-5.9-5.47-8.75-8.26l2.1-2.14c2.82,2.76,5.74,5.52,8.67,8.19L323.55,586.74z M306.36,569.92
		c-2.75-2.89-5.49-5.87-8.13-8.86l2.25-1.99c2.62,2.96,5.33,5.91,8.06,8.78L306.36,569.92z M290.4,551.89
		c-2.54-3.08-5.06-6.26-7.49-9.44l2.38-1.82c2.41,3.15,4.91,6.3,7.43,9.35L290.4,551.89z M275.76,532.76
		c-2.31-3.26-4.6-6.6-6.8-9.95l2.51-1.65c2.18,3.31,4.45,6.63,6.74,9.86L275.76,532.76z M262.51,512.63
		c-2.08-3.41-4.12-6.91-6.08-10.4l2.62-1.47c1.94,3.46,3.97,6.93,6.03,10.31L262.51,512.63z M250.7,491.62
		c-1.84-3.56-3.64-7.2-5.35-10.81l2.71-1.28c1.69,3.58,3.48,7.18,5.3,10.71L250.7,491.62z M240.39,469.83
		c-1.59-3.68-3.13-7.43-4.58-11.15l2.79-1.09c1.44,3.69,2.96,7.41,4.54,11.06L240.39,469.83z M231.64,447.37
		c-1.32-3.78-2.59-7.63-3.77-11.45l2.87-0.89c1.17,3.79,2.43,7.61,3.74,11.35L231.64,447.37z M224.5,424.34
		c-1.05-3.87-2.04-7.8-2.95-11.69l2.92-0.68c0.9,3.86,1.88,7.75,2.92,11.59L224.5,424.34z M219.03,400.86
		c-0.77-3.92-1.48-7.92-2.1-11.87l2.96-0.47c0.62,3.92,1.32,7.88,2.08,11.76L219.03,400.86z M215.25,377.05
		c-0.49-3.97-0.91-8-1.25-11.99l2.99-0.26c0.34,3.95,0.76,7.95,1.24,11.88L215.25,377.05z M213.18,353.04
		c-0.2-3.99-0.33-8.04-0.39-12.05l3-0.04c0.06,3.97,0.19,7.99,0.39,11.94L213.18,353.04z M215.82,329l-3-0.06
		c0.08-4,0.24-8.06,0.47-12.04l3,0.17C216.06,321.02,215.91,325.03,215.82,329z"/>
	<path class="st0" d="M436.91,870.03c-4.01-0.07-8.07-0.21-12.07-0.42l0.16-3c3.96,0.21,7.99,0.35,11.96,0.42L436.91,870.03z
		 M448.98,870.03l-0.05-3c3.98-0.07,8-0.22,11.96-0.43l0.16,3C457.06,869.81,453,869.96,448.98,870.03z M412.8,868.76
		c-3.99-0.35-8.03-0.79-12.01-1.28l0.37-2.98c3.94,0.49,7.94,0.92,11.9,1.27L412.8,868.76z M473.09,868.73l-0.27-2.99
		c3.96-0.35,7.96-0.79,11.9-1.28l0.38,2.98C481.12,867.93,477.08,868.37,473.09,868.73z M388.84,865.76
		c-3.95-0.64-7.95-1.36-11.88-2.15l0.59-2.94c3.9,0.78,7.86,1.49,11.78,2.13L388.84,865.76z M497.05,865.7l-0.48-2.96
		c3.92-0.64,7.88-1.36,11.77-2.14l0.59,2.94C505,864.33,501,865.06,497.05,865.7z M365.16,861.03c-3.9-0.93-7.83-1.94-11.7-3
		l0.8-2.89c3.83,1.06,7.73,2.06,11.59,2.98L365.16,861.03z M520.72,860.95l-0.7-2.92c3.86-0.92,7.76-1.93,11.59-2.99l0.8,2.89
		C528.55,859.01,524.62,860.02,520.72,860.95z M341.89,854.6c-3.83-1.21-7.69-2.51-11.48-3.86l1.01-2.83
		c3.76,1.34,7.59,2.63,11.38,3.82L341.89,854.6z M543.99,854.5l-0.91-2.86c3.79-1.2,7.6-2.49,11.34-3.82l1.01,2.83
		C551.66,851.99,547.81,853.29,543.99,854.5z M319.07,846.47c-3.74-1.49-7.49-3.06-11.16-4.68l1.21-2.75
		c3.64,1.6,7.36,3.17,11.06,4.64L319.07,846.47z M566.73,846.37l-1.11-2.79c3.68-1.47,7.38-3.02,11-4.62l1.21,2.74
		C574.17,843.32,570.44,844.89,566.73,846.37z M296.93,836.7c-3.61-1.75-7.24-3.59-10.79-5.48l1.41-2.65
		c3.52,1.87,7.11,3.69,10.69,5.43L296.93,836.7z M588.75,836.63l-1.31-2.7c3.56-1.73,7.14-3.55,10.64-5.41l1.41,2.65
		C595.96,833.05,592.34,834.89,588.75,836.63z M275.57,825.36c-3.47-2.01-6.95-4.11-10.36-6.24l1.59-2.54
		c3.37,2.12,6.83,4.2,10.26,6.19L275.57,825.36z M610.03,825.33l-1.5-2.6c3.43-1.98,6.87-4.06,10.23-6.17l1.59,2.54
		C616.97,821.23,613.5,823.32,610.03,825.33z M630.46,812.51l-1.69-2.48c3.29-2.23,6.58-4.55,9.77-6.89l1.77,2.42
		C637.09,807.92,633.77,810.26,630.46,812.51z M255.09,812.5c-3.32-2.25-6.64-4.6-9.87-6.97l1.77-2.42c3.2,2.35,6.5,4.67,9.79,6.91
		L255.09,812.5z M649.91,798.25l-1.86-2.35c3.11-2.46,6.22-5.01,9.25-7.58l1.94,2.29C656.19,793.2,653.05,795.77,649.91,798.25z
		 M235.6,798.22c-3.14-2.48-6.28-5.06-9.34-7.66l1.94-2.29c3.03,2.58,6.15,5.13,9.26,7.59L235.6,798.22z M668.3,782.62l-2.02-2.21
		c2.94-2.68,5.86-5.45,8.69-8.23l2.1,2.14C674.22,777.12,671.27,779.91,668.3,782.62z M217.2,782.57c-2.96-2.7-5.9-5.5-8.77-8.31
		l2.1-2.14c2.84,2.79,5.76,5.55,8.69,8.23L217.2,782.57z M685.53,765.71l-2.18-2.06c2.73-2.88,5.45-5.85,8.08-8.83l2.25,1.98
		C691.03,759.8,688.29,762.8,685.53,765.71z M199.97,765.65c-2.76-2.91-5.5-5.9-8.15-8.91l2.25-1.98c2.63,2.98,5.34,5.95,8.07,8.83
		L199.97,765.65z M701.51,747.6l-2.32-1.9c2.52-3.07,5.02-6.23,7.43-9.39l2.39,1.82C706.58,741.31,704.05,744.5,701.51,747.6z
		 M184,747.55c-2.54-3.1-5.06-6.28-7.48-9.47l2.39-1.82c2.4,3.15,4.9,6.31,7.42,9.38L184,747.55z M716.15,728.38l-2.45-1.73
		c2.29-3.25,4.56-6.58,6.73-9.91l2.51,1.64C720.75,721.74,718.47,725.1,716.15,728.38z M169.39,728.36
		c-2.31-3.27-4.59-6.63-6.78-9.97l2.51-1.64c2.17,3.32,4.43,6.64,6.72,9.89L169.39,728.36z M156.19,708.17
		c-2.07-3.42-4.1-6.93-6.04-10.43l2.62-1.46c1.92,3.47,3.94,6.94,5.99,10.34L156.19,708.17z M729.38,708.14l-2.57-1.55
		c2.05-3.4,4.07-6.89,6-10.37l2.62,1.46C733.49,701.19,731.45,704.71,729.38,708.14z M144.49,687.1c-1.81-3.57-3.59-7.21-5.27-10.83
		l2.72-1.26c1.67,3.59,3.42,7.2,5.22,10.74L144.49,687.1z M741.12,686.99l-2.67-1.36c1.8-3.55,3.57-7.18,5.24-10.79l2.72,1.26
		C744.72,679.75,742.94,683.42,741.12,686.99z M134.35,665.26c-1.55-3.69-3.06-7.45-4.47-11.18l2.81-1.06
		c1.4,3.69,2.89,7.42,4.43,11.08L134.35,665.26z M751.29,665.04l-2.77-1.16c1.54-3.67,3.04-7.42,4.44-11.14l2.81,1.06
		C754.36,657.56,752.85,661.34,751.29,665.04z M125.81,642.71c-1.28-3.79-2.51-7.67-3.66-11.51l2.88-0.86
		c1.13,3.81,2.35,7.65,3.62,11.41L125.81,642.71z M759.85,642.39l-2.84-0.96c1.27-3.76,2.48-7.6,3.61-11.41l2.88,0.85
		C762.35,634.72,761.13,638.6,759.85,642.39z M118.92,619.57c-1-3.88-1.95-7.83-2.81-11.74l2.93-0.64
		c0.85,3.88,1.79,7.79,2.78,11.64L118.92,619.57z M766.72,619.24l-2.91-0.75c0.99-3.85,1.92-7.76,2.77-11.64l2.93,0.64
		C768.66,611.41,767.72,615.36,766.72,619.24z M113.73,595.99c-0.72-3.94-1.37-7.95-1.95-11.92l2.97-0.43
		c0.57,3.93,1.22,7.91,1.93,11.81L113.73,595.99z M771.88,595.65l-2.95-0.54c0.71-3.9,1.35-7.88,1.92-11.81l2.97,0.43
		C773.25,587.71,772.6,591.72,771.88,595.65z M110.26,572.09c-0.43-3.98-0.8-8.03-1.09-12.02l2.99-0.22
		c0.29,3.96,0.65,7.97,1.08,11.92L110.26,572.09z M775.33,571.75l-2.98-0.32c0.42-3.95,0.78-7.96,1.06-11.92l2.99,0.21
		C776.12,563.73,775.76,567.77,775.33,571.75z M108.52,548.01c-0.15-3.99-0.22-8.05-0.23-12.07l3,0c0,3.98,0.08,8.01,0.22,11.97
		L108.52,548.01z M777.05,547.67l-3-0.11c0.14-3.96,0.21-7.99,0.21-11.96l0-0.66l3-0.01l0,0.67
		C777.26,539.61,777.19,543.68,777.05,547.67z M111.49,523.97l-3-0.1c0.14-4.01,0.35-8.06,0.63-12.06l2.99,0.21
		C111.84,515.98,111.63,520,111.49,523.97z M774.02,522.98c-0.15-3.98-0.37-8-0.66-11.95l2.99-0.22c0.29,3.99,0.52,8.05,0.67,12.06
		L774.02,522.98z M113.17,500.1l-2.98-0.32c0.42-3.98,0.93-8.01,1.49-11.98l2.97,0.42C114.09,492.16,113.59,496.15,113.17,500.1z
		 M772.27,499.11c-0.43-3.94-0.94-7.94-1.52-11.87l2.97-0.43c0.58,3.97,1.09,8,1.53,11.98L772.27,499.11z M116.56,476.41l-2.95-0.53
		c0.71-3.94,1.5-7.92,2.36-11.84l2.93,0.64C118.05,468.56,117.27,472.51,116.56,476.41z M768.81,475.44
		c-0.72-3.9-1.51-7.85-2.37-11.73l2.93-0.65c0.87,3.91,1.67,7.9,2.39,11.84L768.81,475.44z M121.66,453.03l-2.91-0.75
		c1-3.88,2.08-7.8,3.21-11.64l2.88,0.85C123.72,445.3,122.65,449.18,121.66,453.03z M763.65,452.07c-1-3.84-2.08-7.72-3.22-11.53
		l2.88-0.86c1.15,3.84,2.24,7.75,3.25,11.63L763.65,452.07z M128.44,430.08l-2.84-0.95c1.28-3.81,2.64-7.65,4.06-11.41l2.81,1.06
		C131.06,422.51,129.71,426.31,128.44,430.08z M756.8,429.14c-1.27-3.76-2.64-7.55-4.05-11.26l2.8-1.07
		c1.42,3.75,2.8,7.57,4.08,11.36L756.8,429.14z M136.9,407.63l-2.77-1.16c1.55-3.71,3.19-7.43,4.88-11.08l2.72,1.26
		C140.06,400.26,138.44,403.95,136.9,407.63z M748.31,406.81c-1.54-3.65-3.17-7.32-4.84-10.91l2.72-1.27
		c1.69,3.62,3.33,7.33,4.88,11.01L748.31,406.81z M146.96,385.86l-2.68-1.36c1.82-3.58,3.72-7.17,5.67-10.69l2.63,1.45
		C150.65,378.75,148.76,382.32,146.96,385.86z M738.24,385.17c-1.8-3.53-3.69-7.08-5.62-10.54l2.62-1.46
		c1.94,3.49,3.85,7.07,5.67,10.63L738.24,385.17z M158.57,364.89l-2.57-1.55c2.07-3.44,4.23-6.88,6.42-10.24l2.51,1.64
		C162.76,358.07,160.62,361.49,158.57,364.89z M726.62,364.3c-2.05-3.39-4.19-6.8-6.37-10.11l2.51-1.64
		c2.19,3.35,4.35,6.78,6.42,10.2L726.62,364.3z M171.66,344.83l-2.45-1.73c2.31-3.28,4.71-6.56,7.14-9.75l2.39,1.82
		C176.33,338.33,173.95,341.58,171.66,344.83z M713.53,344.31c-2.3-3.24-4.68-6.48-7.08-9.63l2.38-1.82
		c2.43,3.18,4.83,6.45,7.15,9.72L713.53,344.31z M186.15,325.76l-2.32-1.9c2.54-3.1,5.17-6.2,7.82-9.21l2.25,1.98
		C191.27,319.62,188.67,322.69,186.15,325.76z M699.02,325.3c-2.52-3.07-5.13-6.13-7.76-9.1l2.25-1.99c2.65,3,5.29,6.09,7.83,9.19
		L699.02,325.3z M201.97,307.8l-2.18-2.06c2.75-2.9,5.59-5.8,8.46-8.62l2.1,2.14C207.51,302.05,204.69,304.92,201.97,307.8z
		 M683.18,307.38c-2.74-2.88-5.56-5.75-8.39-8.53l2.1-2.14c2.86,2.8,5.71,5.7,8.47,8.6L683.18,307.38z M219.03,291.02l-2.03-2.21
		c2.96-2.71,6-5.39,9.05-7.99l1.94,2.28C224.98,285.67,221.96,288.34,219.03,291.02z M666.09,290.62c-2.94-2.68-5.96-5.34-8.99-7.91
		l1.94-2.29c3.05,2.59,6.1,5.27,9.07,7.98L666.09,290.62z M237.24,275.51l-1.86-2.35c3.14-2.49,6.37-4.95,9.59-7.32l1.78,2.42
		C243.56,270.61,240.36,273.05,237.24,275.51z M647.83,275.14c-3.11-2.45-6.32-4.89-9.54-7.24l1.77-2.42
		c3.25,2.37,6.48,4.83,9.62,7.31L647.83,275.14z M256.51,261.36l-1.69-2.48c3.31-2.25,6.7-4.47,10.09-6.6l1.6,2.54
		C263.15,256.93,259.79,259.13,256.51,261.36z M628.51,261c-3.29-2.23-6.67-4.43-10.04-6.54l1.59-2.54c3.4,2.13,6.81,4.35,10.13,6.6
		L628.51,261z M276.74,248.64l-1.5-2.59c3.46-2,7-3.97,10.53-5.86l1.41,2.65C283.67,244.7,280.16,246.65,276.74,248.64z
		 M608.2,248.28c-3.44-1.99-6.97-3.94-10.49-5.8l1.4-2.65c3.55,1.88,7.11,3.85,10.58,5.85L608.2,248.28z M297.81,237.41l-1.31-2.7
		c3.6-1.75,7.28-3.46,10.92-5.08l1.21,2.74C305.03,233.98,301.38,235.67,297.81,237.41z M587.02,237.06
		c-3.59-1.74-7.25-3.43-10.89-5.03l1.21-2.75c3.67,1.61,7.37,3.32,10.99,5.07L587.02,237.06z M319.63,227.74l-1.12-2.79
		c3.72-1.49,7.51-2.93,11.29-4.28l1.01,2.82C327.08,224.84,323.32,226.27,319.63,227.74z M565.06,227.4
		c-3.7-1.47-7.48-2.89-11.23-4.22l1-2.83c3.79,1.35,7.6,2.78,11.33,4.26L565.06,227.4z M342.16,219.66l-0.91-2.86
		c3.82-1.22,7.72-2.38,11.57-3.45l0.8,2.89C349.8,217.31,345.95,218.46,342.16,219.66z M542.45,219.37
		c-3.79-1.19-7.65-2.33-11.48-3.39l0.8-2.89c3.86,1.06,7.76,2.21,11.58,3.42L542.45,219.37z M365.21,213.24l-0.7-2.92
		c3.9-0.94,7.87-1.81,11.79-2.6l0.59,2.94C373.01,211.45,369.07,212.32,365.21,213.24z M519.38,213.01
		c-3.87-0.91-7.8-1.77-11.69-2.54l0.58-2.94c3.93,0.78,7.9,1.64,11.8,2.57L519.38,213.01z M388.66,208.51l-0.49-2.96
		c3.96-0.65,7.98-1.23,11.95-1.74l0.38,2.98C396.57,207.29,392.59,207.87,388.66,208.51z M495.91,208.35
		c-3.91-0.63-7.9-1.2-11.85-1.69l0.37-2.98c3.98,0.5,8,1.07,11.95,1.7L495.91,208.35z M412.4,205.49l-0.27-2.99
		c4-0.36,8.05-0.66,12.04-0.88l0.16,3C420.38,204.84,416.36,205.13,412.4,205.49z M472.16,205.4c-3.95-0.35-7.96-0.63-11.94-0.83
		l0.16-3c4.01,0.21,8.06,0.49,12.04,0.84L472.16,205.4z M436.3,204.18l-0.06-3c4.02-0.08,8.06-0.08,12.08-0.02l-0.05,3
		C444.28,204.1,440.28,204.1,436.3,204.18z"/>
	<g>
		<path class="st0" d="M668.58,366.48l-1.73-2.45c1.63-1.15,3.24-2.31,4.84-3.49l1.77,2.42
			C671.85,364.15,670.22,365.32,668.58,366.48z"/>
		<path class="st0" d="M628.34,390.87l-1.37-2.67c3.45-1.77,6.91-3.62,10.28-5.51l1.46,2.62
			C635.31,387.21,631.82,389.08,628.34,390.87z M648.89,379.38l-1.55-2.57c3.31-2.01,6.63-4.1,9.87-6.22l1.64,2.51
			C655.58,375.24,652.23,377.36,648.89,379.38z"/>
		<path class="st0" d="M475.78,427.61c-2.13,0-4.25-0.02-6.37-0.06l0.06-3c3.88,0.07,7.79,0.08,11.67,0.02l0.05,3
			C479.38,427.59,477.58,427.61,475.78,427.61z M492.93,427.17l-0.15-3c3.87-0.2,7.78-0.46,11.64-0.79l0.26,2.99
			C500.78,426.71,496.83,426.98,492.93,427.17z M457.64,427.12c-3.9-0.21-7.85-0.49-11.74-0.83l0.26-2.99
			c3.86,0.34,7.77,0.62,11.64,0.83L457.64,427.12z M516.38,425.17l-0.36-2.98c3.85-0.47,7.73-1.01,11.55-1.6l0.46,2.96
			C524.18,424.15,520.26,424.7,516.38,425.17z M434.17,425.05c-3.89-0.48-7.81-1.04-11.67-1.66l0.47-2.96
			c3.82,0.61,7.71,1.16,11.57,1.64L434.17,425.05z M539.63,421.52l-0.57-2.95c3.8-0.74,7.64-1.55,11.41-2.42l0.67,2.92
			C547.34,419.96,543.47,420.78,539.63,421.52z M410.9,421.32c-3.83-0.75-7.71-1.59-11.52-2.48l0.68-2.92
			c3.78,0.88,7.62,1.71,11.42,2.46L410.9,421.32z M562.56,416.24l-0.78-2.9c3.73-1,7.5-2.08,11.21-3.22l0.88,2.87
			C570.14,414.14,566.33,415.23,562.56,416.24z M387.95,415.96c-3.77-1.02-7.58-2.13-11.31-3.29l0.89-2.87
			c3.7,1.15,7.47,2.24,11.21,3.26L387.95,415.96z M585.07,409.34l-0.98-2.84c3.66-1.26,7.34-2.61,10.95-4l1.08,2.8
			C592.48,406.71,588.76,408.07,585.07,409.34z M365.44,408.98c-3.68-1.29-7.4-2.66-11.05-4.08l1.09-2.8
			c3.62,1.41,7.3,2.77,10.95,4.04L365.44,408.98z M607.03,400.87l-1.18-2.76c3.56-1.52,7.14-3.13,10.64-4.77l1.28,2.72
			C614.23,397.72,610.62,399.34,607.03,400.87z M343.49,400.43c-3.59-1.55-7.2-3.18-10.73-4.85l1.28-2.71
			c3.5,1.66,7.08,3.28,10.64,4.81L343.49,400.43z M322.21,390.35c-3.47-1.79-6.95-3.68-10.36-5.6l1.47-2.61
			c3.38,1.9,6.83,3.77,10.27,5.55L322.21,390.35z M301.69,378.79c-3.33-2.04-6.68-4.16-9.94-6.31l1.65-2.5
			c3.23,2.13,6.55,4.24,9.85,6.26L301.69,378.79z M282.03,365.82c-3.18-2.27-6.37-4.62-9.47-7l1.82-2.38
			c3.07,2.36,6.23,4.69,9.39,6.93L282.03,365.82z M263.34,351.5c-3.02-2.49-6.04-5.06-8.96-7.64l1.99-2.25
			c2.89,2.56,5.88,5.11,8.88,7.57L263.34,351.5z M245.7,335.91c-2.83-2.69-5.66-5.46-8.4-8.25l2.14-2.1
			c2.72,2.76,5.52,5.51,8.33,8.17L245.7,335.91z"/>
		<path class="st0" d="M229.21,319.15c-1.36-1.48-2.7-2.97-4.03-4.48l2.25-1.99c1.32,1.49,2.65,2.97,4,4.44L229.21,319.15z"/>
	</g>
	<g>
		<path class="st0" d="M484.95,249.89l-2.97-0.4c0.26-1.97,0.51-3.95,0.74-5.92l2.98,0.34C485.46,245.9,485.21,247.9,484.95,249.89z
			"/>
		<path class="st0" d="M475.46,295.98l-2.89-0.81c1.05-3.73,2.04-7.53,2.95-11.29l2.92,0.71
			C477.52,288.38,476.52,292.21,475.46,295.98z M481.02,273.1l-2.94-0.6c0.78-3.8,1.5-7.66,2.15-11.47l2.96,0.5
			C482.53,265.37,481.8,269.27,481.02,273.1z"/>
		<path class="st0" d="M163.23,539.73l-0.09-3c3.88-0.11,7.8-0.3,11.65-0.55l0.19,2.99C171.09,539.43,167.14,539.62,163.23,539.73z
			 M186.72,538.22l-0.3-2.99c3.86-0.38,7.76-0.84,11.59-1.36l0.4,2.97C194.55,537.37,190.61,537.83,186.72,538.22z M210.05,535.06
			l-0.51-2.96c3.81-0.65,7.67-1.38,11.47-2.17l0.61,2.94C217.79,533.67,213.9,534.4,210.05,535.06z M233.11,530.28l-0.71-2.91
			c3.76-0.92,7.56-1.92,11.29-2.97l0.81,2.89C240.74,528.34,236.9,529.35,233.11,530.28z M255.77,523.89l-0.92-2.86
			c3.69-1.18,7.41-2.45,11.05-3.76l1.02,2.82C263.25,521.42,259.5,522.69,255.77,523.89z M277.94,515.91l-1.12-2.79
			c3.59-1.44,7.21-2.96,10.76-4.53l1.21,2.74C285.21,512.93,281.56,514.46,277.94,515.91z M299.48,506.39l-1.31-2.7
			c3.49-1.69,6.99-3.47,10.41-5.28l1.4,2.65C306.53,502.89,303,504.69,299.48,506.39z M320.3,495.37l-1.5-2.6
			c3.36-1.94,6.73-3.96,10.01-6.01l1.59,2.54C327.09,491.37,323.69,493.41,320.3,495.37z M340.29,482.89l-1.68-2.49
			c3.21-2.16,6.43-4.42,9.56-6.7l1.76,2.43C346.77,478.43,343.53,480.7,340.29,482.89z M359.35,469.02l-1.85-2.36
			c3.05-2.38,6.1-4.86,9.07-7.36l1.93,2.29C365.5,464.12,362.42,466.62,359.35,469.02z M377.39,453.84l-2.01-2.23
			c2.87-2.6,5.74-5.28,8.52-7.97l2.09,2.15C383.18,448.52,380.28,451.22,377.39,453.84z M394.29,437.46l-2.16-2.08
			c1.46-1.51,2.9-3.04,4.34-4.59c1.22-1.31,2.42-2.63,3.61-3.95l2.23,2c-1.2,1.34-2.41,2.67-3.64,3.99
			C397.22,434.39,395.76,435.93,394.29,437.46z M410.02,419.95l-2.3-1.93c2.48-2.97,4.95-6.02,7.33-9.07l2.37,1.84
			C415.01,413.88,412.52,416.96,410.02,419.95z M424.49,401.4l-2.43-1.76c2.27-3.13,4.52-6.35,6.68-9.56l2.49,1.67
			C429.05,394.99,426.78,398.24,424.49,401.4z M437.62,381.87l-2.55-1.58c2.05-3.29,4.06-6.66,5.99-10.01l2.6,1.49
			C441.72,375.15,439.69,378.55,437.62,381.87z M449.34,361.46l-2.65-1.4c1.81-3.43,3.58-6.93,5.26-10.41l2.7,1.31
			C452.95,354.47,451.17,358,449.34,361.46z M459.59,340.27l-2.75-1.21c1.56-3.55,3.08-7.17,4.51-10.76l2.79,1.11
			C462.7,333.04,461.17,336.69,459.59,340.27z M468.31,318.41l-2.82-1.01c1.31-3.65,2.56-7.36,3.74-11.05l2.86,0.91
			C470.9,310.98,469.63,314.73,468.31,318.41z"/>
		<path class="st0" d="M151.49,539.87c-2.01-0.01-4.02-0.04-6.02-0.09l0.07-3c1.99,0.05,3.98,0.08,5.97,0.09L151.49,539.87z"/>
	</g>
	<g>
		<path class="st1" d="M866.61,241.7c-28.5,10.92-64.42,26.1-102.44,45.79c-80.68,41.8-187.68,112.93-239.14,214.57
			c-13.67,27.02-22.84,54.93-27.48,83.65c-1.83,0.11-3.67,0.22-5.53,0.3c4.67-29.69,14.08-58.52,28.21-86.4
			c52.1-102.93,160.13-174.8,241.56-216.94c38.89-20.14,75.61-35.6,104.52-46.62C866.45,237.93,866.56,239.81,866.61,241.7z"/>
		<path class="st1" d="M859.6,318.5c-0.4,1.94-0.86,3.91-1.35,5.88c-22.95,5.8-57.41,17.85-90.96,42.36
			c-41.85,30.55-89.02,85.97-103.09,184.1c-1.91,0.76-3.86,1.54-5.8,2.29c13.81-101.99,62.64-159.4,105.9-190.89
			C799.73,336.41,836.19,324.14,859.6,318.5z"/>
		<path class="st1" d="M421.96,586.27c-1.83-0.05-3.67-0.13-5.5-0.22c-0.65-15.02-3.4-36.57-12.22-60.67
			c-15.42-42.07-53.02-100.83-144.62-141.87c-91.71-41.12-147.99-97.86-162.77-164.14c-9.28-41.53-1.62-84.38,22.09-125.93
			c1.73,0.57,3.45,1.19,5.2,1.83c-23.46,40.67-31.07,82.49-22.03,122.94c14.4,64.53,69.63,120,159.72,160.37
			c93.46,41.91,131.84,102.09,147.56,145.24C418.54,548.87,421.37,570.96,421.96,586.27z"/>
		<path class="st1" d="M78.58,497.83c-1.65-1.19-3.26-2.37-4.88-3.64c6.2-41.91,3.07-106.81-43.6-184.21
			C-8.88,245.31-7.28,171.29,34.73,95.84c3.56-6.36,7.25-12.51,11.06-18.39c2.02,0.11,4.07,0.24,6.15,0.43
			c-4.31,6.58-8.55,13.48-12.57,20.71C-2.16,173.26-3.73,243.43,34.7,307.17C83.24,387.67,85.48,455.06,78.58,497.83z"/>
		<path class="st1" d="M345.33,580.18c-1.97-0.24-3.94-0.49-5.91-0.73c-12.67-37.27-38.78-89.1-89.47-112.53
			c-15.64-7.23-29.93-7.25-42.47-0.03c-22,12.7-35.78,45.36-44.17,75.67c-1.78-0.59-3.53-1.21-5.26-1.89
			c8.68-31.12,23.16-64.85,46.73-78.44c14.13-8.14,30.09-8.22,47.43-0.19C305.74,486.77,332.62,541.81,345.33,580.18z"/>
		<path class="st1" d="M761.66,45.09c-8.2,14.37-16.45,30.71-25.24,48.13c-40.85,81.03-91.71,181.91-203.54,207.18
			c-14.99,3.4-29.42,5.1-43.17,5.1c-31.52,0-59.68-8.9-84.03-26.64c-32.85-23.92-54.2-60.86-67.95-95.92
			c1.91-0.05,3.75-0.19,5.58-0.38c13.46,33.76,34.14,69.03,65.56,91.93c33.65,24.51,74.99,31.47,122.83,20.66
			C641.04,270.42,691.28,170.83,731.62,90.8c8.9-17.64,17.26-34.19,25.62-48.78C758.72,43.01,760.2,44.01,761.66,45.09z"/>
		<path class="st1" d="M730,26.16c-26.08,47.24-78.88,125.42-159.07,164.33c-12.62,6.12-24.92,9.17-36.86,9.17
			c-10.92,0-21.49-2.56-31.71-7.69c-28.37-14.21-49.97-46.09-65.8-79.66c1.32-1.59,2.64-3.18,3.96-4.83
			c15.53,33.68,36.7,65.85,64.26,79.66c19.77,9.92,41.23,9.41,63.77-1.51c78.82-38.24,130.84-115.17,156.59-161.8
			C726.76,24.57,728.38,25.35,730,26.16z"/>
		<path class="st1" d="M630.68,2.73c-4.85,34.06-19.23,77.23-60.3,87.51c-5.31,1.32-10.41,1.91-15.26,1.91
			c-27.29,0-47.27-19.39-60.81-40.04c1.4-1.11,2.83-2.21,4.23-3.26c14.97,23,38.1,44.22,70.54,36.13
			c37.29-9.3,50.99-49.67,55.9-82.14C626.88,2.78,628.79,2.73,630.68,2.73z"/>
	</g>
	<path class="st2" d="M585.59,752.9c0,0-71.73,115.82-81.59,104.94c-9.86-10.89-4.76-46.58,50.58-134.88L585.59,752.9z"/>
	<path class="st3" d="M635.95,642.69L635.95,642.69c-8.22,0-14.95,6.94-14.95,15.42v20.4c0,8.48,6.73,15.42,14.95,15.42l0,0
		c8.23,0,14.96-6.94,14.96-15.42v-20.4C650.9,649.63,644.17,642.69,635.95,642.69z"/>
	<path class="st4" d="M635.95,617.69L635.95,617.69c-8.22,0-14.95,6.94-14.95,15.42v20.4c0,8.48,6.73,15.42,14.95,15.42l0,0
		c8.23,0,14.96-6.94,14.96-15.42v-20.4C650.9,624.63,644.17,617.69,635.95,617.69z"/>
	<path class="st4" d="M590.33,592.16c0.33-0.05,0.67-0.08,1.01-0.11c2.18,0.05,5.05,1.7,4.79,4.87l-0.64,7.84
		c5.16-0.17,6.11-5.11,6.02-9.15c2.99,2.75,4.73,6.8,4.37,11.16c-0.62,7.51-7.2,13.09-14.71,12.48c-7.5-0.62-9.05-15.14-8.43-22.65
		C582.74,596.6,583.96,591.62,590.33,592.16z"/>
	<path class="st4" d="M689.58,598.23c0.33,0.06,0.66,0.14,0.99,0.23l0.01,0l0,0c5.99,1.65,6.26,6.96,5.98,13.44
		c-0.33,7.52-2.7,13.66-10.22,13.33c-7.52-0.33-13.36-6.7-13.02-14.22c0.19-4.37,2.42-8.17,5.73-10.53c-0.6,4-0.28,9.01,4.82,9.83
		l0.35-7.86C684.35,599.28,687.41,598.01,689.58,598.23z"/>
	<path class="st3" d="M644.74,527.15L644.74,527.15c-25.64-1.61-47.93,18.04-49.54,43.67l-2.67,42.39
		c7.2,24.06,24.87,48.4,43.67,49.53l0.01,0c17.2,0.2,46.58-19.84,48.2-45.47l4-40.59C690.02,551.05,670.37,528.76,644.74,527.15z"/>
	<path class="st5" d="M625.37,631.49c-0.47,6.24,7.13,12.22,13.37,12.69c6.24,0.47,14.66-5.26,15.12-11.5l-0.02,0
		c0.08-1.07-0.73-2.02-1.8-2.1l-24.56-0.9c-1.07-0.08-2.02,0.73-2.1,1.8L625.37,631.49z"/>
	<path class="st5" d="M649.31,631.68l-17.53-1.32c-0.42,1.92,0.33,3.94,1.6,4.47c1.55,0.64,14.26,1.26,15.23,0.33
		C649.08,634.71,649.25,633.16,649.31,631.68z"/>
	<path class="st4" d="M666.95,623.1c-5.2,2.16-8.38,6.35-7.1,9.37c1.29,3.01,6.54,3.71,11.74,1.55c5.2-2.16,8.38-6.35,7.1-9.37
		C677.4,621.64,672.15,620.94,666.95,623.1z"/>
	<path class="st4" d="M614.87,620.46c-4.11-2.61-8.84-2.48-10.57,0.27c-1.73,2.76,0.2,7.12,4.3,9.73c4.1,2.61,8.84,2.49,10.57-0.27
		C620.9,627.42,618.97,623.07,614.87,620.46z"/>
	<path class="st5" d="M637.46,690.41c-12.42,0-14.96-9.54-14.96-9.54l-38.81,10.85c-8.95,24.66-6.75,64.99-6.75,64.99
		c6.47,41.84,4.81,45.69-0.48,87.29c-0.54,4.23,0.54,9.1,0.54,9.1c12.67,22.04,110.92,19.45,123.12-1.78c0,0,1.08-4.87,0.54-9.1
		c-5.29-41.6-9.17-43.67-2.69-85.51c0,0-15.53-36.87-2.29-63.75l-43.27-12.1C652.42,680.87,649.88,690.41,637.46,690.41z"/>
	<polygon class="st6" points="646.12,869.1 633.79,869.1 633.78,868.61 631.78,695.28 632.78,695.26 634.78,868.1 645.11,868.1 
		642.45,696.61 643.45,696.6 	"/>
	<path class="st7" d="M613.63,592.48c-0.78,0.36-1.7,0.01-2.06-0.77c-0.36-0.78-0.01-1.7,0.76-2.05c4.19-1.98,9.7-2.03,13.66,0.54
		c0.72,0.47,0.92,1.43,0.46,2.15c-0.47,0.72-1.43,0.92-2.15,0.46C621.11,590.73,617,591.02,613.63,592.48z"/>
	<path class="st7" d="M667.73,594.29c-3.26-1.7-7.34-2.28-10.67-0.44c-0.75,0.41-1.7,0.14-2.11-0.61c-0.41-0.75-0.14-1.7,0.61-2.11
		c4.13-2.28,9.62-1.83,13.66,0.43c0.75,0.41,1.03,1.36,0.62,2.11C669.42,594.42,668.47,594.69,667.73,594.29z"/>
	<path class="st8" d="M639.16,623.52c-0.55,0-1.17-0.09-1.86-0.27c-0.85-0.23-1.43-0.84-1.67-1.76c-0.71-2.71,1.66-7.79,3.58-9.67
		c0.7-0.68,1.33-0.95,1.88-0.79l-0.28,0.96c-0.1-0.03-0.41,0.05-0.9,0.54c-1.68,1.64-3.92,6.39-3.32,8.7
		c0.15,0.58,0.46,0.91,0.96,1.04c1.33,0.35,2.36,0.31,2.98-0.12c0.56-0.39,0.62-0.98,0.62-0.99l1,0.09c0,0.04-0.1,1.06-1.05,1.72
		C640.6,623.34,639.94,623.52,639.16,623.52z"/>
	<path class="st7" d="M623.85,561.71c-5.02-0.32-14.88,1.45-15.51,11.48c-0.63,10.03-3.03,17.86-9.43,17.46c0,0-0.22,3.47-0.5,7.87
		c-0.28,4.4-0.99,8.82-5.14,8.56c0.6-9.46-2.05-13.36-2.05-13.36s-5.63-18-4.93-29.06c0.7-11.06,11.17-20.39,26.33-29.68
		c19.63-12.02,45.81-10.37,63.77,4.01c13.88,11.12,22.55,17.23,21.86,28.29c-0.7,11.07-7.99,32.67-7.99,32.67s-3.12,3.54-3.71,13
		c-4.15-0.26-4.3-4.74-4.02-9.14c0.28-4.4,0.5-7.87,0.5-7.87c-6.4-0.4-7.8-8.47-7.16-18.5c0.63-10.03-8.93-13.02-13.95-13.33
		C649.23,563.3,636.54,562.51,623.85,561.71z"/>
	<g>
		<path class="st7" d="M675.1,559.84c0,0,10.72-7.39,10.73-15.83c0.02-15.49-31.67-41.11-51.26-30.08
			c-46.59-17.45-64.2,17.62-23.62,49.94c0.19,0.15,0.37,0.28,0.56,0.43c3.1-2.91,7.61-4.02,10.55-4.21
			c12.69-0.8,25.37-1.6,38.06-2.4c3.31-0.21,8.71,0.49,12.19,3.85C674.1,560.52,675.1,559.84,675.1,559.84z"/>
		<path class="st7" d="M683.52,547.93c-0.19,0.3-0.11,0.7,0.17,0.9c0.28,0.2,0.66,0.12,0.85-0.17c0.02-0.03,7.25-11.1-3.06-24.37
			c-0.21-0.28-0.6-0.32-0.86-0.09c-0.26,0.23-0.29,0.64-0.08,0.91C690.26,537.63,683.54,547.9,683.52,547.93z"/>
		<path class="st7" d="M672.2,523.63c0.22,0.27,0.61,0.31,0.86,0.08c0.26-0.23,0.29-0.64,0.07-0.91c-0.04-0.04-12.55-15.96-25-15.37
			c-12.92,0.61-8.9,14.54-8.89,14.58c0.09,0.34,0.44,0.54,0.76,0.45c0.32-0.1,0.51-0.46,0.41-0.81c-0.01-0.03-3.58-12.39,7.78-12.93
			C660.03,508.16,672.16,523.59,672.2,523.63z"/>
	</g>
	<g>
		<path class="st7" d="M659.58,613.86c2.96,0.68,5.91-1.17,6.59-4.13c0.68-2.96-1.17-5.91-4.13-6.59c-2.96-0.68-5.91,1.17-6.59,4.13
			C654.77,610.23,656.62,613.18,659.58,613.86z"/>
		<path class="st7" d="M617.36,611.23c2.96,0.68,5.91-1.17,6.59-4.13c0.68-2.96-1.17-5.91-4.13-6.59c-2.96-0.68-5.91,1.17-6.59,4.13
			C612.55,607.6,614.41,610.55,617.36,611.23z"/>
	</g>
	<path class="st9" d="M313.52,775.43c0,0,22.36,97.32,33.25,92.55c10.89-4.77,17.24-19.57,1.73-103.36L313.52,775.43z"/>
	<path class="st10" d="M338.42,745.84c9.47,4.41,18.68,44.56,18.68,44.56l-36.92,19.22c0,0-18.65-24.2-12.68-36.4
		C313.72,760.53,327.62,740.81,338.42,745.84z"/>
	<path class="st9" d="M219.49,752.02c0,0-71.83,88.58-60.42,94.42c11.41,5.84,35.61-1.7,95.77-70.76L219.49,752.02z"/>
	<path class="st11" d="M226.11,665.14c0,0,8.77,42.24,8.19,76.7c-0.57,34.46,56.04,2.77,56.04,2.77s46.01,9.97,34.49-22.5
		c-11.52-32.48,1.09-73.28,1.09-73.28l-52.44-7.37L226.11,665.14z"/>
	<path class="st12" d="M278.35,665.13L278.35,665.13c8.68,0,15.79,9.32,15.79,20.71v39.65c0,11.39-7.1,20.71-15.79,20.71l0,0
		c-8.68,0-15.79-9.32-15.79-20.71v-39.65C262.56,674.45,269.67,665.13,278.35,665.13z"/>
	<path class="st13" d="M278.35,665.13L278.35,665.13c8.68,0,15.79,9.32,15.79,20.71v32.79c-3.53,2.05-7.4,3.2-11.55,3.2
		c-7.42,0-14.35-4.76-20.03-11.99v-24C262.56,674.45,269.67,665.13,278.35,665.13z"/>
	<g>
		<path class="st13" d="M318.88,639.31c0.33-0.01,0.65,0,0.98,0.01l0.01,0l0,0c6,0.31,11.21,4.72,12.29,10.88
			c1.26,7.17-3.53,14-10.7,15.27c-7.17,1.26-14.01-3.53-15.27-10.7c-0.73-4.17,0.58-8.22,3.21-11.13c0.27,3.9,1.62,8.56,6.6,8.27
			l-1.32-7.49C314.17,641.39,316.79,639.55,318.88,639.31z"/>
		<path class="st13" d="M229.81,653.24c-0.32,0.09-0.63,0.2-0.93,0.31l-0.01,0l0,0c-5.62,2.12-9.23,7.91-8.39,14.12
			c0.99,7.21,7.64,12.26,14.85,11.27c7.21-0.99,12.26-7.64,11.27-14.85c-0.57-4.19-3.06-7.65-6.46-9.62
			c0.93,3.79,1.07,8.65-3.77,9.89l-1.03-7.53C234.94,653.78,231.89,652.83,229.81,653.24z"/>
	</g>
	<path class="st12" d="M282.57,709.94c-21.49,2.58-36.68-21.01-50.92-44.53l-5.14-31.43c-4.01-24.5,12.76-47.82,37.26-51.82h0
		c24.49-4,47.82,12.76,51.82,37.26l5.03,30.76C314.43,675.44,307.57,706.94,282.57,709.94z"/>
	<path class="st13" d="M306.71,661.77c-3.17-0.93-6.96,1.43-8.45,5.27c-1.49,3.85-2.86,8.71,0.31,9.65
		c3.17,0.93,9.68-2.42,11.18-6.27C311.24,666.57,309.88,662.7,306.71,661.77z"/>
	<path class="st13" d="M255.45,670.68c-4.39-1.2-8.6,0.92-9.41,4.73c-0.81,3.81,2.09,7.89,6.48,9.09c4.39,1.21,10,0.5,10.81-3.32
		C264.13,677.37,259.84,671.89,255.45,670.68z"/>
	<g>
		<path class="st13" d="M259.28,637.83c1.01,0.27,1.6,1.31,1.33,2.32c-0.27,1.01-1.31,1.6-2.32,1.33c-0.02-0.01-6.08-1.75-10.9,2.51
			c-0.79,0.69-1.99,0.62-2.68-0.17c-0.69-0.79-0.62-1.99,0.17-2.68C251.25,635.52,259.26,637.82,259.28,637.83z"/>
		<path class="st13" d="M303.47,631.46c0.98,0.35,1.49,1.44,1.14,2.42c-0.35,0.98-1.44,1.49-2.42,1.14
			c-0.02-0.01-5.92-2.24-11.06,1.61c-0.84,0.63-2.03,0.46-2.66-0.38c-0.62-0.84-0.45-2.03,0.39-2.66
			C295.65,628.5,303.44,631.45,303.47,631.46z"/>
	</g>
	<path class="st14" d="M277.37,671.58c-1.03,0-1.99-0.19-2.59-0.66c-1.34-1.06-0.67-5.18-0.15-7.53l0.98,0.21
		c-0.82,3.74-0.72,6.12-0.2,6.54c0.57,0.46,2.01,0.57,3.58,0.28c1.28-0.23,1.98-0.62,2.07-0.77l0.98,0.09
		c-0.01,0.43-0.34,0.79-1.01,1.11C280.13,671.26,278.7,671.58,277.37,671.58z"/>
	<path class="st11" d="M221.22,647.15l3.07,9.34c0,0,5.86-0.23,6.71,4.94c0,0,3.18-5.98,1.26-12.5c0,0,8.88-14.59,6.04-28.81
		c-2.84-14.22-7.69-23.45-7.69-23.45S213.03,616.91,221.22,647.15z"/>
	<path class="st11" d="M324.81,630.22l0.06,9.83c0,0-5.64,1.65-4.79,6.81c0,0-4.92-4.66-5.18-11.44c0,0-13.07-11.01-14.9-25.39
		c-1.84-14.38,2.59-21.76,2.59-21.76S322.94,598.94,324.81,630.22z"/>
	<g>
		<path class="st7" d="M298.17,658.41c2.93-0.48,4.92-3.24,4.44-6.17c-0.07-0.4-0.18-0.78-0.32-1.14l0.57-0.31
			c0.59-0.34,1.18-0.81,1.67-1.48c0.22-0.3,0.16-0.72-0.13-0.94c-0.3-0.22-0.72-0.16-0.94,0.13c-0.49,0.65-1.08,1.06-1.66,1.32
			l-0.01-0.01c0.55-0.46,1.07-1.1,1.37-1.99c0.12-0.35-0.07-0.73-0.42-0.85c-0.35-0.12-0.73,0.07-0.85,0.43
			c-0.24,0.73-0.71,1.23-1.16,1.56l-0.06-0.05c0.34-0.39,0.65-0.92,0.73-1.61c0.04-0.37-0.22-0.7-0.59-0.75
			c-0.37-0.04-0.7,0.22-0.75,0.59c-0.06,0.5-0.32,0.84-0.56,1.06c-0.92-0.41-1.97-0.57-3.05-0.39c-2.93,0.48-4.92,3.24-4.44,6.17
			C292.48,656.9,295.24,658.89,298.17,658.41z"/>
		<path class="st7" d="M255.45,665.4c-2.93,0.48-5.69-1.51-6.17-4.43c-0.07-0.4-0.09-0.8-0.06-1.18l-0.64-0.12
			c-0.67-0.13-1.37-0.4-2.06-0.87c-0.31-0.21-0.38-0.63-0.17-0.93c0.21-0.31,0.63-0.38,0.94-0.17c0.67,0.46,1.36,0.66,2,0.72
			l0.01-0.01c-0.67-0.26-1.37-0.7-1.93-1.45c-0.22-0.3-0.16-0.72,0.13-0.94c0.29-0.22,0.72-0.16,0.94,0.13
			c0.47,0.62,1.06,0.94,1.6,1.11l0.04-0.06c-0.44-0.26-0.91-0.66-1.21-1.29c-0.16-0.34-0.01-0.74,0.32-0.9s0.74-0.02,0.9,0.32
			c0.21,0.45,0.57,0.7,0.87,0.82c0.74-0.69,1.69-1.17,2.76-1.35c2.93-0.48,5.69,1.51,6.17,4.43
			C260.37,662.16,258.38,664.92,255.45,665.4z"/>
	</g>
	<path class="st5" d="M291.96,679.25c0.84,5.17-5.32,11.29-10.49,12.13c-5.17,0.84-13.57-3.59-14.42-8.76
		c-0.15-0.95,4.02-0.92,4.97-1.07l15.27-2.5C288.24,678.9,291.8,678.3,291.96,679.25z"/>
	<path class="st7" d="M261.84,729.1c0,0,3.58,9.21,16.76,9.21c13.17,0,15.37-11.55,15.37-11.55l44.9,19.73
		c-7.25,10.76-9.2,42.36-9.2,42.36c1.4,10.29-9.08,50.19-8.61,58.14c0.47,7.95,14.53,46.3,14.53,46.3
		c-22.52,0.67-43.1-4.33-57.52-4.33c-14.42,0-23,1-52.63,4.44c0,0,15.2-41.68,15.67-49.64c0.47-7.95-17.28-40.31-15.88-50.6
		c0,0,0.79-32.85-6.46-43.6L261.84,729.1z"/>
	<path class="st11" d="M229.04,602.41c0,0,20.74-79.3,83.7-17.98c13.22,12.87,27.08,26.33,25.84,33.71
		C333.92,645.92,237.47,637.92,229.04,602.41z"/>
	<path class="st15" d="M319.87,598.81c11.74,32.91,18.48,69.03,19.19,103.9c0.32,15.52-0.82,31.07-4.25,46.22
		c-0.07,0.31,0.41,0.45,0.48,0.13c10.27-45.37,1.9-94.67-11.19-138.65c-1.17-3.93-2.37-7.87-3.75-11.74
		C320.25,598.38,319.76,598.51,319.87,598.81L319.87,598.81z"/>
	<path class="st16" d="M230.61,596.67c0,0,39.84,41.45,101.21,8.61l-11.84-14c0,0-31.76,32.84-89.36,4.84V596.67z"/>
	<path class="st10" d="M222.41,747.5c-10.39,1.07-32.23,36-32.23,36l28.6,30.24c0,0,25.54-16.76,23.89-30.24
		C240.95,769.46,234.27,746.28,222.41,747.5z"/>
	<circle class="st5" cx="663.07" cy="610.69" r="2"/>
	<circle class="st5" cx="620.32" cy="607.69" r="2"/>
	<path class="st10" d="M603.74,570.44c-15.2-16.3-22.04-30.71-20.35-42.82c1.49-10.64,9.09-15.34,9.41-15.53l0.52,0.86
		c-0.08,0.05-7.53,4.67-8.94,14.84c-1.64,11.8,5.13,25.92,20.1,41.98L603.74,570.44z"/>
	<path class="st17" d="M227.4,806.31l-0.66-0.75c0.2-0.18,19.68-17.95-8.38-55.71l0.8-0.6C247.81,787.8,227.61,806.13,227.4,806.31z
		"/>
	
		<rect x="258.64" y="856.46" transform="matrix(0.6696 -0.7428 0.7428 0.6696 -546.6183 485.2537)" class="st18" width="26.85" height="1"/>
	
		<rect x="322.57" y="763.34" transform="matrix(0.9715 -0.237 0.237 0.9715 -176.6761 98.8942)" class="st17" width="1" height="42.2"/>
	<polygon class="st1" points="263.4,724.27 279.4,737.6 268.07,755.6 250.82,732.19 	"/>
	<polygon class="st1" points="293.4,724.27 277.4,737.6 288.74,755.6 305.82,730.44 	"/>
	<path class="st9" d="M410.73,775.54l-10.76-4.34c0,0-0.13-30.06,7.17-37.07c7.26-6.98,18,12.21,18.09,12.38c0,0,0,0,0,0.01
		C425.3,746.61,424.69,748.05,410.73,775.54z"/>
	<path class="st14" d="M424.94,746.32l-19.85-9.81c0,0,7.48-28.32,13.57-27.06C424.75,710.7,424.94,746.32,424.94,746.32z"/>
	<path class="st9" d="M399.38,772.08c0,0-8.28-30.59-4.05-35.58c4.22-5,9.53,24.89,9.53,24.89L399.38,772.08z"/>
	<path class="st2" d="M689.07,752.4c0,0,71.73,115.82,81.59,104.94c9.86-10.89,7.49-46.44-47.85-134.73L689.07,752.4z"/>
	<path class="st2" d="M765.45,863.99c0,0-136.07-6.83-131.3-20.72s29.13-28.83,133.17-23.05L765.45,863.99z"/>
	<polygon class="st9" points="399.03,768.98 351.2,840.27 375.41,865.89 411.28,774.42 	"/>
	<polygon class="st19" points="739.8,894.96 137.95,894.96 88.07,855.94 792.07,855.94 	"/>
	<rect x="88.07" y="844.94" class="st20" width="704" height="12"/>
	<path class="st14" d="M154.42,843.44c0,0-3.3-3.5,10.36-7s27.79,3,27.79,8.5s-5.18,25.5-15.07,26.5
		C167.61,872.44,154.42,843.44,154.42,843.44z"/>
	<path class="st9" d="M154.42,844.44c0,0-3.3-3.5,10.36-7s27.79,3,27.79,8.5s-5.18,25.5-15.07,26.5
		C167.61,873.44,154.42,844.44,154.42,844.44z"/>
	<path class="st11" d="M230.61,597.75c0,0-36.61,29.61,3.23,158.27c0,0,37.68,18.3,15.61-52.76S230.61,597.75,230.61,597.75z"/>
	<path class="st11" d="M312.84,598.78c0,0,39.93,24.95,16,157.49c0,0-35.18,22.74-21.9-50.47S312.84,598.78,312.84,598.78z"/>
	<path class="st5" d="M695.69,692.97c0,0,9.57,3.26,12.78,6.05c3.21,2.78,38.98,57.29,38.98,57.29l-35.88,37.14l-19.79-37.67
		C691.78,755.77,678.74,719.39,695.69,692.97z"/>
	<path class="st5" d="M583.7,691.72c0,0-9.57,3.26-12.78,6.05c-3.21,2.78-39.88,62.53-39.88,62.53l41.53,33.14l23.03-50.59
		C595.6,742.85,590,729.46,583.7,691.72z"/>
	<path class="st6" d="M682.05,810.91l-0.66-0.76c9.74-8.44,12.73-22.69,12.75-22.83l0.98,0.2
		C695.1,787.66,692.05,802.24,682.05,810.91z M587.08,808.92c-5.21-4.08-6.51-17.09-6.56-17.64l1-0.09
		c0.01,0.13,1.3,13.13,6.18,16.95L587.08,808.92z M697.51,756.89c-0.12-0.33-11.84-32.79,2.33-55.38l0.85,0.53
		c-13.91,22.18-2.36,54.18-2.24,54.5L697.51,756.89z M576.46,756.8c-0.06-0.34-5.6-34,4.46-57.63l0.92,0.39
		c-9.95,23.37-4.45,56.74-4.4,57.08L576.46,756.8z M561.37,747.97l-1-0.06l2.16-38.18l1,0.06L561.37,747.97z M716.63,745.29
		l-0.89-35.68l1-0.03l0.89,35.68L716.63,745.29z"/>
	<polygon class="st5" points="610.28,684.6 620.4,672.27 637.46,690.41 623.61,702.6 	"/>
	<polygon class="st5" points="651.9,670.44 664.61,684.27 648.28,702.6 637.46,690.41 	"/>
	<polyline class="st5" points="637.3,690.37 623.45,702.56 610.11,684.56 	"/>
	<polygon class="st6" points="623.37,703.3 609.71,684.86 610.52,684.26 623.53,701.83 636.97,689.99 637.63,690.74 	"/>
	<polygon class="st6" points="648.28,703.36 637.09,690.74 637.84,690.08 648.28,701.85 664.24,683.94 664.99,684.6 	"/>
	<path class="st2" d="M493.45,843.89c0,0-3.6-3.82,11.3-7.64c14.9-3.82,30.31,3.27,30.31,9.27s-5.65,27.82-16.44,28.91
		C507.84,875.52,493.45,843.89,493.45,843.89z"/>
	<path class="st14" d="M494.14,841.05l-0.49-0.87c0.21-0.12,21.2-11.74,38.44,0.02l-0.56,0.83
		C514.79,829.61,494.34,840.94,494.14,841.05z"/>
	<path class="st14" d="M494.14,841.05l-0.49-0.87c0.21-0.12,21.2-11.74,38.44,0.02l-0.56,0.83
		C514.79,829.61,494.34,840.94,494.14,841.05z"/>
	<path class="st14" d="M494.14,841.05l-0.49-0.87c0.21-0.12,21.2-11.74,38.44,0.02l-0.56,0.83
		C514.79,829.61,494.34,840.94,494.14,841.05z"/>
	<path class="st8" d="M494.14,841.05l-0.49-0.87c0.21-0.12,21.2-11.74,38.44,0.02l-0.56,0.83
		C514.79,829.61,494.34,840.94,494.14,841.05z"/>
	<path class="st21" d="M740.33,845.56H538.48c-1.61,0-2.94-1.32-2.94-2.94v-0.61c0-1.61,1.32-2.94,2.94-2.94h201.84
		c1.61,0,2.94,1.32,2.94,2.94v0.61C743.26,844.24,741.94,845.56,740.33,845.56z"/>
	<path class="st22" d="M712.21,845.56H566.6c-12.63,0-22.96-8.59-22.96-19.1l-8.1-75.99c0-10.5,10.33-19.1,22.96-19.1h161.8
		c12.63,0,22.96,8.59,22.96,19.1l-8.1,75.99C735.16,836.97,724.83,845.56,712.21,845.56z"/>
	<g>
		<rect x="642.77" y="226.62" class="st9" width="127.49" height="127.49"/>
		<path class="st14" d="M773.26,357.11H639.77V223.62h133.49V357.11z M645.77,351.11h121.49V229.62H645.77V351.11z"/>
	</g>
	<g>
		<line class="st9" x1="645.32" y1="229.21" x2="767.57" y2="350.71"/>
		
			<rect x="699.45" y="203.78" transform="matrix(0.7049 -0.7093 0.7093 0.7049 2.7899 586.6266)" class="st14" width="14" height="172.36"/>
	</g>
	<rect x="717.76" y="240.11" class="st14" width="39" height="22.5"/>
	<g>
		<rect x="52.77" y="580.8" class="st9" width="59.3" height="59.3"/>
		<path class="st14" d="M115.07,643.11h-65.3v-65.3h65.3V643.11z M55.77,637.11h53.3v-53.3h-53.3V637.11z"/>
	</g>
	<g>
		<line class="st9" x1="53.95" y1="582.01" x2="110.82" y2="638.53"/>
		
			<rect x="75.39" y="570.18" transform="matrix(0.7049 -0.7093 0.7093 0.7049 -408.5406 238.5084)" class="st14" width="14" height="80.17"/>
	</g>
	<rect x="87.65" y="587.08" class="st14" width="18.14" height="10.47"/>
	<g>
		<rect x="116.77" y="580.8" class="st9" width="59.3" height="59.3"/>
		<path class="st14" d="M179.07,643.11h-65.3v-65.3h65.3V643.11z M119.77,637.11h53.3v-53.3h-53.3V637.11z"/>
	</g>
	<g>
		<line class="st9" x1="117.95" y1="582.01" x2="174.82" y2="638.53"/>
		
			<rect x="139.39" y="570.18" transform="matrix(0.7049 -0.7093 0.7093 0.7049 -389.6561 283.9022)" class="st14" width="14" height="80.17"/>
	</g>
	<rect x="151.65" y="587.08" class="st14" width="18.14" height="10.47"/>
	<g>
		<rect x="86.77" y="517.8" class="st9" width="59.3" height="59.3"/>
		<path class="st14" d="M149.07,580.11h-65.3v-65.3h65.3V580.11z M89.77,574.11h53.3v-53.3h-53.3V574.11z"/>
	</g>
	<g>
		<line class="st9" x1="87.95" y1="519.01" x2="144.82" y2="575.53"/>
		
			<rect x="109.39" y="507.18" transform="matrix(0.7049 -0.7093 0.7093 0.7049 -353.8237 244.0344)" class="st14" width="14" height="80.17"/>
	</g>
	<rect x="121.65" y="524.08" class="st14" width="18.14" height="10.47"/>
	<path class="st22" d="M155.3,263.83c15.38-30.02,129.81,42.91,122.08,57.45C271.36,332.62,140.67,292.37,155.3,263.83z"/>
	<path class="st22" d="M191.74,270.83c0,0,53.46-17.56,66.23-13.57s-41.49,33.51-41.49,33.51L191.74,270.83z"/>
	<path class="st22" d="M185.36,281.2c0,0-14.36,84.58,1.6,78.2c15.96-6.38,31.12-65.43,31.12-65.43L185.36,281.2z"/>
	<path class="st22" d="M264.35,309.13c0,0,16.76-21.54,20.75-12.77c3.99,8.78-7.72,24.92-7.72,24.92L264.35,309.13z"/>
	<path class="st23" d="M155.3,263.83c0,0,25.72,19.37,31.11-4.57C186.4,259.26,161.87,250.93,155.3,263.83z"/>
	<circle class="st23" cx="197.82" cy="282.5" r="5.69"/>
	<circle class="st23" cx="211.99" cy="289.88" r="5.69"/>
	<circle class="st23" cx="225.55" cy="296.66" r="5.69"/>
	<g>
		<path class="st1" d="M397.13,161.98l28.07-28.44h56.81v101.54c0,0,1.7,13.02-12.29,12.15c-13.99-0.87-66.49,0-66.49,0
			s-6.52,1.74-6.1-12.15C397.55,221.19,397.13,161.98,397.13,161.98z"/>
		<path class="st23" d="M397.13,161.93h26.09c0,0,1.14,0.06,1.59-0.34c0.92-0.81,0.77-2.33,0.77-2.33l-0.38-25.72L397.13,161.93z"/>
		<rect x="429.65" y="147.45" class="st23" width="45.79" height="1"/>
		<rect x="429.65" y="164.41" class="st23" width="45.79" height="1"/>
		<rect x="404.21" y="181.37" class="st23" width="71.22" height="1"/>
		<rect x="404.21" y="198.32" class="st23" width="71.22" height="1"/>
		<rect x="404.21" y="215.28" class="st23" width="71.22" height="1"/>
		<rect x="404.21" y="232.24" class="st23" width="71.22" height="1"/>
	</g>
	<path class="st0" d="M521.57,252.46h-81.76c-4.4,0-8-3.6-8-8V200.3c0-4.4,3.6-8,8-8h81.76c4.4,0,8,3.6,8,8v44.16
		C529.57,248.86,525.97,252.46,521.57,252.46z"/>
	<path class="st24" d="M482.05,234.36c-19.62,0-49.37-33.45-50.73-34.99l1.5-1.32c0.35,0.4,35.28,39.68,53.18,33.71
		c18.26-6.09,42.05-35.38,42.29-35.68l1.56,1.26c-0.99,1.22-24.4,30.05-43.21,36.32C485.19,234.14,483.65,234.36,482.05,234.36z"/>
</g>
</svg>
