<?xml version="1.0" encoding="utf-8"?>
<!-- Generator: Adobe Illustrator 24.2.1, SVG Export Plug-In . SVG Version: 6.00 Build 0)  -->
<svg version="1.1" id="Слой_1" xmlns="http://www.w3.org/2000/svg" xmlns:xlink="http://www.w3.org/1999/xlink" x="0px" y="0px"
	 viewBox="0 0 864.61 999.02" style="enable-background:new 0 0 864.61 999.02;" xml:space="preserve">
<style type="text/css">
	.st0{fill:#FFFFFF;}
	.st1{fill:#8CA12E;}
	.st2{fill:#E3AB84;}
	.st3{fill-rule:evenodd;clip-rule:evenodd;fill:#EB5A3F;}
	.st4{fill-rule:evenodd;clip-rule:evenodd;fill:#1C2036;}
	.st5{fill-rule:evenodd;clip-rule:evenodd;fill:#484A73;}
	.st6{fill-rule:evenodd;clip-rule:evenodd;fill:#E3AB84;}
	.st7{fill-rule:evenodd;clip-rule:evenodd;fill:#D7816C;}
	
		.st8{fill-rule:evenodd;clip-rule:evenodd;fill:none;stroke:#A53B43;stroke-width:0.7087;stroke-linecap:round;stroke-linejoin:round;stroke-miterlimit:2.6131;}
	.st9{fill-rule:evenodd;clip-rule:evenodd;fill:#FFFFFF;}
	.st10{fill-rule:evenodd;clip-rule:evenodd;fill:none;stroke:#D7816C;stroke-miterlimit:10;}
	.st11{fill-rule:evenodd;clip-rule:evenodd;fill:none;stroke:#1C2036;stroke-miterlimit:10;}
	.st12{fill:#484A73;}
	.st13{fill:#2F3C5A;}
	.st14{fill-rule:evenodd;clip-rule:evenodd;fill:#F3E9D6;}
	.st15{fill:#D7816C;}
	.st16{fill-rule:evenodd;clip-rule:evenodd;fill:#8CA12E;}
	.st17{fill:#F3E9D6;}
	.st18{opacity:0.5;fill-rule:evenodd;clip-rule:evenodd;fill:#FFFFFF;}
	.st19{fill-rule:evenodd;clip-rule:evenodd;fill:none;stroke:#758527;stroke-miterlimit:10;}
	.st20{fill-rule:evenodd;clip-rule:evenodd;fill:#2F3C5A;}
	.st21{fill-rule:evenodd;clip-rule:evenodd;fill:#B7B5DC;}
	.st22{opacity:0.2;fill-rule:evenodd;clip-rule:evenodd;fill:#FFFFFF;}
	.st23{fill-rule:evenodd;clip-rule:evenodd;fill:none;stroke:#807DBA;stroke-miterlimit:10;}
</style>
<g>
	<g>
		<path class="st0" d="M864.17,242.1c-28.5,10.92-64.42,26.1-102.44,45.79c-80.68,41.8-187.68,112.93-239.14,214.57
			c-13.67,27.02-22.84,54.93-27.48,83.65c-1.83,0.11-3.67,0.22-5.53,0.3c4.67-29.69,14.08-58.52,28.21-86.4
			c52.1-102.93,160.13-174.8,241.56-216.94c38.89-20.14,75.61-35.6,104.52-46.62C864.01,238.32,864.12,240.21,864.17,242.1z"/>
		<path class="st0" d="M857.16,318.9c-0.4,1.94-0.86,3.91-1.35,5.88c-22.95,5.8-57.41,17.85-90.96,42.36
			c-41.85,30.55-89.02,85.97-103.09,184.1c-1.91,0.76-3.86,1.54-5.8,2.29c13.81-101.99,62.64-159.4,105.9-190.89
			C797.3,336.8,833.76,324.53,857.16,318.9z"/>
		<path class="st0" d="M419.53,586.67c-1.83-0.05-3.67-0.13-5.5-0.22c-0.65-15.02-3.4-36.57-12.22-60.67
			c-15.42-42.07-53.02-100.83-144.62-141.87c-91.71-41.12-147.99-97.86-162.77-164.14c-9.28-41.53-1.62-84.38,22.09-125.93
			c1.73,0.57,3.45,1.19,5.2,1.83c-23.46,40.67-31.07,82.49-22.03,122.94c14.4,64.53,69.63,120,159.72,160.37
			c93.46,41.91,131.84,102.09,147.56,145.24C416.1,549.27,418.94,571.35,419.53,586.67z"/>
		<path class="st0" d="M76.14,498.22c-1.65-1.19-3.26-2.37-4.88-3.64c6.2-41.91,3.07-106.81-43.6-184.21
			c-38.97-64.66-37.38-138.69,4.64-214.14c3.56-6.36,7.25-12.51,11.06-18.39c2.02,0.11,4.07,0.24,6.15,0.43
			c-4.31,6.58-8.55,13.48-12.57,20.71C-4.6,173.66-6.16,243.82,32.27,307.57C80.81,388.06,83.04,455.45,76.14,498.22z"/>
		<path class="st0" d="M342.89,580.58c-1.97-0.24-3.94-0.49-5.91-0.73c-12.67-37.27-38.78-89.1-89.47-112.53
			c-15.64-7.23-29.93-7.25-42.47-0.03c-22,12.7-35.78,45.36-44.17,75.67c-1.78-0.59-3.53-1.21-5.26-1.89
			c8.68-31.12,23.16-64.85,46.73-78.44c14.13-8.14,30.09-8.22,47.43-0.19C303.3,487.16,330.19,542.2,342.89,580.58z"/>
		<path class="st0" d="M759.22,45.49c-8.2,14.37-16.45,30.71-25.24,48.13c-40.85,81.03-91.71,181.91-203.54,207.18
			c-14.99,3.4-29.42,5.1-43.17,5.1c-31.52,0-59.68-8.9-84.03-26.64c-32.84-23.92-54.2-60.86-67.95-95.92
			c1.91-0.05,3.75-0.19,5.58-0.38c13.46,33.76,34.14,69.03,65.56,91.93c33.65,24.51,74.99,31.47,122.83,20.66
			C638.6,270.82,688.84,171.23,729.18,91.19c8.9-17.64,17.26-34.19,25.62-48.78C756.28,43.41,757.77,44.41,759.22,45.49z"/>
		<path class="st0" d="M727.56,26.55c-26.08,47.24-78.88,125.42-159.07,164.33c-12.62,6.12-24.92,9.17-36.86,9.17
			c-10.92,0-21.49-2.56-31.71-7.69c-28.37-14.21-49.97-46.09-65.8-79.66c1.32-1.59,2.64-3.18,3.96-4.83
			c15.53,33.68,36.7,65.85,64.26,79.66c19.77,9.92,41.23,9.41,63.77-1.51c78.82-38.24,130.84-115.17,156.59-161.8
			C724.33,24.96,725.95,25.75,727.56,26.55z"/>
		<path class="st0" d="M628.25,3.12c-4.85,34.06-19.23,77.23-60.3,87.51c-5.31,1.32-10.41,1.91-15.26,1.91
			c-27.29,0-47.27-19.39-60.81-40.04c1.4-1.11,2.83-2.21,4.23-3.26c14.97,23,38.1,44.22,70.54,36.13
			c37.29-9.3,50.99-49.67,55.9-82.14C624.45,3.18,626.36,3.12,628.25,3.12z"/>
	</g>
	<path class="st1" d="M241.95,900.81c-24.19,0-46.71-1.51-65.66-4.11c-14.82,2.57-33.7,4.11-54.28,4.11
		c-47.62,0-86.23-8.25-86.23-18.44s38.61-18.44,86.23-18.44c3.03,0,6.02,0.03,8.97,0.1c19.13-9.03,61.6-15.31,110.97-15.31
		c67.27,0,121.8,11.66,121.8,26.04C363.75,889.15,309.21,900.81,241.95,900.81z"/>
	<path class="st1" d="M357.58,906.81c24.19,0,46.71-1.51,65.66-4.11c14.82,2.57,33.7,4.11,54.28,4.11
		c47.62,0,86.23-8.25,86.23-18.44s-38.61-18.44-86.23-18.44c-3.03,0-6.02,0.03-8.97,0.1c-19.13-9.03-61.6-15.31-110.97-15.31
		c-67.27,0-121.8,11.66-121.8,26.04C235.78,895.15,290.31,906.81,357.58,906.81z"/>
	<path class="st1" d="M701.95,909.81c-24.19,0-46.71-1.51-65.66-4.11c-14.82,2.57-33.7,4.11-54.28,4.11
		c-47.62,0-86.23-8.25-86.23-18.44s38.61-18.44,86.23-18.44c3.03,0,6.02,0.03,8.97,0.1c19.13-9.03,61.6-15.31,110.97-15.31
		c67.27,0,121.8,11.66,121.8,26.04C823.75,898.15,769.21,909.81,701.95,909.81z"/>
	<path class="st2" d="M523.88,423.86c0,0-15.3,78.16-26.74,73.35c-11.44-4.81-21.25-20.83-6.41-108.51L523.88,423.86z"/>
	<path class="st2" d="M381.74,398.32c0,0-49.34,86.82-58.4,79.12c-9.06-7.69-10.91-23.69,27.99-99.51L381.74,398.32z"/>
	<path class="st3" d="M370.1,350.98c0,0-14.01,6.1-17.23,8.88c-5.07,4.38-29.25,69.25-29.25,69.25l38.13,20.17l16.23-35
		C377.99,414.27,391.04,374.36,370.1,350.98z"/>
	<path class="st4" d="M500.09,851.82c-3.42-73.85-11.18-341.27-11.53-345.55c-0.43-5.24-57.07-13.59-85.22-9.65
		c-28.16,3.94-36.32,9.65-36.32,9.65s-18.51,261.79-23.68,341.73l27.26,2.59c9.87-63.1,50.78-256.96,56.05-268.54
		c2.5-5.5,2.49,2.96,4,9.5c1.51,6.54,31.6,203.66,41.11,265.29L500.09,851.82z"/>
	<path class="st5" d="M340.31,887.15h23.17c1.86,0,3.38-1.65,3.38-3.66v-6.23c0-2.01-1.52-3.66-3.38-3.66h-23.17
		c-1.86,0-3.38,1.65-3.38,3.66v6.23C336.94,885.5,338.45,887.15,340.31,887.15z"/>
	<path class="st5" d="M301.03,881.32c0,0-1.32-0.95-1.32-3.82c0-11.12,17.43-5.7,23.9-9.54c5.46-3.24,14.38-11.42,14.53-21.47
		c0,0,0-5.63,6.49-5.63c6.49,0,7.97,0,10.2,0c2.22,0,5.93,1.71,6.49,5.02c0,0,4.27,0,6.58,0c2.32,0,5.65,0.5,5.65,7.44
		c0,6.94,0,21.91,0,23.67c0,1.76-0.68,3.87-1.82,4.33c0,0-0.45,2.36-0.73,2.61c-0.28,0.25-5.05,1.26-7.19,0.91
		c-2.13-0.35-8-3.49-8-3.49s-1.6-0.48-1.6-2.62c0,0-0.09-1.91-2.39-1.91c-2.29,0-6.84,1.93-7.42,2.29
		c-0.58,0.35-0.87,0.96-0.87,2.21c0,1.25-5.21,3.82-11.79,4.22C325.18,885.94,301.03,881.32,301.03,881.32z"/>
	<path class="st5" d="M361.31,845.88c0,0,4.27,0,6.58,0c2.32,0,5.65,0.5,5.65,7.44c0,6.94,0,21.91,0,23.67
		c0,1.76-0.68,3.87-1.82,4.33c0,0-0.45,2.36-0.73,2.61c-0.28,0.25-5.05,1.26-7.19,0.91c-2.13-0.35-8-3.49-8-3.49s-1.6-0.48-1.6-2.62
		c0,0-0.09-1.91-2.39-1.91c-2.29,0-6.84,1.93-7.42,2.29c-0.58,0.35-0.87,0.96-0.87,2.21c0,1.25-5.21,3.82-11.79,4.22
		c-4.19,0.26-15.51-1.53-23.17-2.85c1.51-7.02,6.14-9.16,10.76-9.16c5.64,0,10.69,0,24.89,0c14.19,0,17.08-11.78,17.08-17.78
		C361.31,849.73,361.31,845.88,361.31,845.88z"/>
	<path class="st5" d="M301.03,887.15h42.52c0.8,0,1.45-0.71,1.45-1.58v-2.68c0-0.87-0.65-1.57-1.45-1.57h-42.52
		c-0.8,0-1.45,0.71-1.45,1.57v2.68C299.57,886.44,300.22,887.15,301.03,887.15z"/>
	<path class="st5" d="M338.39,887.15h33.34c0.8,0,1.45-0.71,1.45-1.58v-2.68c0-0.87-0.65-1.57-1.45-1.57h-33.34
		c-0.8,0-1.45,0.71-1.45,1.57v2.68C336.94,886.44,337.59,887.15,338.39,887.15z"/>
	<path class="st5" d="M498.31,847.79c0,0-1.28-4.52-3.04-4.52s-10.23,0-11.88,0c-1.66,0-7.58,1.67-7.58,7.1c0,0-3.76,3.61-4.4,4.48
		c-0.64,0.88-1.2,1.78-1.2,4.78c0,3,0,14.58,0,16.74c0,2.16-0.53,10.69,12.6,10.69c13.14,0,20.97,0,25.04,0
		c4.07,0,7.21-4.03,7.21-7.84c0-3.81-0.7-7.68-5.1-14.74c-4.4-7.06-7.59-12.3-7.59-12.3S500.41,848.85,498.31,847.79z"/>
	<path class="st5" d="M483.17,843.28c-1.9,0.13-7.37,1.87-7.37,7.09c0,0-3.76,3.61-4.4,4.48c-0.64,0.88-1.2,1.78-1.2,4.78
		c0,3,0,14.58,0,16.74c0,2.16-0.53,10.69,12.6,10.69h3.29l-1.37-8.53c0,0-5.57-18.3-6.12-25.74
		C478.07,845.4,483.12,843.3,483.17,843.28z"/>
	<path class="st5" d="M515.17,878.47h-44.56c-1.12,0-2.03,1.02-2.03,2.27v4.13c0,1.25,0.91,2.28,2.03,2.28h44.56
		c1.12,0,2.03-1.02,2.03-2.28v-4.13C517.2,879.49,516.29,878.47,515.17,878.47z"/>
	<path class="st5" d="M483.21,880.75v4.12c0,1.06,0.65,1.95,1.52,2.21c0.16,0.05,0.34,0.07,0.51,0.07h-14.63
		c-1.12,0-2.03-1.03-2.03-2.28v-4.12c0-1.12,0.73-2.06,1.68-2.24c0.11-0.02,0.23-0.03,0.35-0.03h14.63
		C484.13,878.47,483.21,879.49,483.21,880.75z"/>
	<path class="st3" d="M481.31,350.04c0,0,16.23,6.4,19.06,9.56c2.83,3.17,27.5,73.75,27.5,73.75l-44.5,14l-19.22-47.65
		C464.16,399.7,470.32,386.69,481.31,350.04z"/>
	<path class="st6" d="M427.51,311.8L427.51,311.8c-8.22,0-14.95,6.94-14.95,15.42v20.4c0,8.48,6.73,15.42,14.95,15.42l0,0
		c8.23,0,14.96-6.94,14.96-15.42v-20.4C442.47,318.74,435.74,311.8,427.51,311.8z"/>
	<path class="st7" d="M427.51,286.8L427.51,286.8c-8.22,0-14.95,6.94-14.95,15.42v20.4c0,8.48,6.73,15.42,14.95,15.42l0,0
		c8.23,0,14.96-6.94,14.96-15.42v-20.4C442.47,293.74,435.74,286.8,427.51,286.8z"/>
	<path class="st3" d="M427.51,348.69c12.42,0,14.96-9.54,14.96-9.54L481.28,350c8.95,24.66,6.75,64.99,6.75,64.99
		c-6.47,41.84-4.81,45.69,0.48,87.29c0.54,4.23-0.54,9.1-0.54,9.1c-12.67,22.04-110.92,19.45-123.12-1.78c0,0-1.08-4.87-0.54-9.1
		c5.29-41.6,9.17-43.67,2.69-85.51c0,0,15.53-36.87,2.29-63.75l43.27-12.1C412.56,339.15,415.1,348.69,427.51,348.69z"/>
	<path class="st8" d="M367,414.99c0,0,11.92-32.3-2.28-54.94 M483.96,449.51c0.35-0.16-0.9,13.13-6.37,17.3 M370.34,445.7
		c0,0,2.93,14.45,12.92,23.11 M348.74,367.88l-0.89,35.68 M501.95,368.04l2.16,38.18 M488.03,414.99c0,0,5.69-33.58-4.43-57.35"/>
	<path class="st7" d="M381.89,261.27c0.33-0.05,0.67-0.08,1.01-0.11c2.18,0.05,5.05,1.7,4.79,4.87l-0.64,7.84
		c5.16-0.17,6.11-5.11,6.02-9.15c2.99,2.75,4.73,6.8,4.37,11.16c-0.62,7.51-7.2,13.09-14.71,12.48c-7.5-0.62-9.05-15.14-8.43-22.65
		C374.3,265.71,375.53,260.74,381.89,261.27z"/>
	<path class="st7" d="M481.14,267.34c0.33,0.06,0.66,0.14,0.99,0.23l0.01,0l0,0c5.99,1.65,6.26,6.96,5.98,13.44
		c-0.33,7.52-2.7,13.66-10.22,13.33c-7.52-0.33-13.36-6.7-13.02-14.22c0.19-4.37,2.42-8.17,5.73-10.53c-0.6,4-0.28,9.01,4.82,9.83
		l0.35-7.86C475.92,268.39,478.97,267.12,481.14,267.34z"/>
	<path class="st6" d="M436.31,196.26L436.31,196.26c-25.64-1.61-47.93,18.04-49.54,43.67l-2.67,42.39
		c7.2,24.06,24.87,48.4,43.67,49.53l0.01,0c17.2,0.2,46.58-19.84,48.2-45.47l4-40.59C481.59,220.16,461.94,197.87,436.31,196.26z"/>
	<path class="st9" d="M416.93,300.61c-0.47,6.24,7.13,12.22,13.37,12.69c6.24,0.47,14.66-5.26,15.12-11.5l-0.02,0
		c0.08-1.07-0.73-2.02-1.8-2.1l-24.56-0.9c-1.07-0.08-2.02,0.73-2.1,1.8L416.93,300.61z"/>
	<path class="st9" d="M440.87,300.79l-17.53-1.32c-0.42,1.92,0.33,3.94,1.6,4.47c1.55,0.64,14.26,1.26,15.23,0.33
		C440.64,303.82,440.82,302.27,440.87,300.79z"/>
	<path class="st7" d="M458.51,292.21c-5.2,2.16-8.38,6.35-7.1,9.37c1.29,3.01,6.54,3.71,11.74,1.55c5.2-2.16,8.38-6.35,7.1-9.37
		C468.97,290.75,463.71,290.05,458.51,292.21z"/>
	<path class="st7" d="M406.43,289.57c-4.11-2.61-8.84-2.48-10.57,0.27c-1.73,2.76,0.2,7.12,4.3,9.73c4.1,2.61,8.84,2.49,10.57-0.27
		C412.46,296.54,410.54,292.18,406.43,289.57z"/>
	<path class="st4" d="M405.2,261.59c-0.78,0.36-1.7,0.01-2.06-0.77c-0.36-0.78-0.01-1.7,0.76-2.05c4.19-1.98,9.7-2.03,13.66,0.54
		c0.72,0.47,0.92,1.43,0.46,2.15c-0.47,0.72-1.43,0.92-2.15,0.46C412.67,259.84,408.56,260.13,405.2,261.59z"/>
	<path class="st4" d="M459.29,263.4c-3.26-1.7-7.34-2.28-10.67-0.44c-0.75,0.41-1.7,0.14-2.11-0.61c-0.41-0.75-0.14-1.7,0.61-2.11
		c4.13-2.28,9.62-1.83,13.66,0.43c0.75,0.41,1.03,1.36,0.62,2.11C460.98,263.53,460.04,263.8,459.29,263.4z"/>
	<path class="st10" d="M433.22,290.32c0,0-0.23,2.62-4.23,1.55c-4-1.07,1.42-11.85,3.52-11.25"/>
	<path class="st4" d="M415.42,230.82c-5.02-0.32-14.88,1.45-15.51,11.48c-0.63,10.03-3.03,17.86-9.43,17.46c0,0-0.22,3.47-0.5,7.87
		c-0.28,4.4-0.99,8.82-5.14,8.56c0.6-9.46-2.05-13.36-2.05-13.36s-5.63-18-4.93-29.06c0.7-11.06,11.17-20.39,26.33-29.68
		c19.63-12.02,45.81-10.37,63.77,4.01c13.88,11.12,22.55,17.23,21.86,28.29c-0.7,11.07-7.99,32.67-7.99,32.67s-3.12,3.54-3.71,13
		c-4.15-0.26-4.3-4.74-4.02-9.14c0.28-4.4,0.5-7.87,0.5-7.87c-6.4-0.4-7.8-8.47-7.16-18.5c0.63-10.03-8.93-13.02-13.95-13.33
		C440.79,232.42,428.11,231.62,415.42,230.82z"/>
	<g>
		<path class="st4" d="M466.67,228.95c0,0,10.72-7.39,10.73-15.83c0.02-15.49-31.67-41.11-51.26-30.08
			c-46.59-17.45-64.2,17.62-23.62,49.94c0.19,0.15,0.37,0.28,0.56,0.43c3.1-2.91,7.61-4.02,10.55-4.21
			c12.69-0.8,25.37-1.6,38.06-2.4c3.31-0.21,8.71,0.49,12.19,3.85C465.67,229.63,466.67,228.95,466.67,228.95z"/>
		<path class="st4" d="M475.09,217.04c-0.19,0.3-0.11,0.7,0.17,0.9c0.28,0.2,0.66,0.12,0.85-0.17c0.02-0.03,7.25-11.1-3.06-24.37
			c-0.21-0.28-0.6-0.32-0.86-0.09c-0.26,0.23-0.29,0.64-0.08,0.91C481.82,206.74,475.1,217.02,475.09,217.04z"/>
		<path class="st4" d="M463.76,192.74c0.22,0.27,0.61,0.31,0.86,0.08c0.26-0.23,0.29-0.64,0.07-0.91
			c-0.04-0.04-12.55-15.96-25-15.37c-12.92,0.61-8.9,14.54-8.89,14.58c0.09,0.34,0.44,0.54,0.76,0.45c0.32-0.1,0.51-0.46,0.41-0.81
			c-0.01-0.03-3.58-12.39,7.78-12.93C451.6,177.27,463.73,192.7,463.76,192.74z"/>
	</g>
	<g>
		<path class="st4" d="M451.14,282.97c2.96,0.68,5.91-1.17,6.59-4.13c0.68-2.96-1.17-5.91-4.13-6.59c-2.96-0.68-5.91,1.17-6.59,4.13
			C446.33,279.34,448.18,282.29,451.14,282.97z"/>
		<path class="st4" d="M408.93,280.34c2.96,0.68,5.91-1.17,6.59-4.13c0.68-2.96-1.17-5.91-4.13-6.59c-2.96-0.68-5.91,1.17-6.59,4.13
			C404.12,276.71,405.97,279.66,408.93,280.34z"/>
	</g>
	<circle class="st9" cx="455.64" cy="275.8" r="2"/>
	<circle class="st9" cx="412.89" cy="272.8" r="2"/>
	<path class="st11" d="M384.63,181.63c0,0-27.28,16.46,11.05,57.59"/>
	<path class="st11" d="M701.26,175.63c0,0,27.28,16.46-11.05,57.59"/>
	<path class="st2" d="M500.27,495.98c0,0-95.91,52.76-111.5,40.85c0,0-8.46,1.68,1.52-6.93c9.5-8.18,37.29-37.49,99.08-60.77
		L500.27,495.98z"/>
	<path class="st2" d="M334.95,548.77l8.08-10.22c0,0,28.79,0.92,35.25,8.15s-6.11,18.96-6.11,18.96S361.75,563.62,334.95,548.77z"/>
	<path class="st2" d="M343.02,538.55c0,0,29.58-6.86,34.21-2.65c4.64,4.22-24.16,8.26-24.16,8.26L343.02,538.55z"/>
	<path class="st2" d="M323.86,477.44c0,0,88.39,64.57,105.38,54.75c0,0,8.18,2.74-0.62-7.06c-8.37-9.33-32.2-41.94-90.51-72.92
		L323.86,477.44z"/>
	<g>
		<path class="st7" d="M215.5,306.42c0.33-0.01,0.65,0,0.98,0.01l0.01,0l0,0c6,0.31,11.21,4.72,12.29,10.88
			c1.26,7.17-3.53,14-10.7,15.27c-7.17,1.26-14.01-3.53-15.27-10.7c-0.73-4.17,0.58-8.22,3.21-11.13c0.27,3.9,1.62,8.56,6.6,8.27
			l-1.32-7.49C210.79,308.5,213.41,306.66,215.5,306.42z"/>
		<path class="st7" d="M126.44,320.35c-0.32,0.09-0.63,0.2-0.93,0.31l-0.01,0l0,0c-5.62,2.12-9.23,7.91-8.39,14.12
			c0.99,7.21,7.64,12.26,14.85,11.27c7.21-0.99,12.26-7.64,11.27-14.85c-0.57-4.19-3.06-7.65-6.46-9.62
			c0.93,3.79,1.07,8.65-3.77,9.89l-1.03-7.53C131.56,320.89,128.51,319.94,126.44,320.35z"/>
	</g>
	<path class="st2" d="M196.18,825.82c3.16,25.16,0.84,20.17,29.51,31.51s8.39,12.01,5.33,11.33c-9.71-2.14-18.67-8.67-39.33-6
		c-20.67,2.67-8.1-19.56-8.1-19.56l0.77-23.11L196.18,825.82z"/>
	<path class="st12" d="M225.69,857.33c28.67,11.33,8.39,12.01,5.33,11.33c-9.71-2.14-18.67-8.67-39.33-6
		c-20.67,2.67-8.1-19.56-8.1-19.56s16.19,10.06,24.69,7.56L225.69,857.33z"/>
	<path class="st5" d="M171.02,581.5l11.71,244.7c0,0,10.95,0,13.19,0s2.72-2.15,2.72-2.15c3.95-24.9,26.95-145.29,31.54-176.26
		c4.59-30.97,7.79-51.44,4.77-68.28c-1.39-7.76-11.1-29.5-11.1-29.5s-45.48,4.46-53.02,3.38
		C165.56,552.65,171.02,581.5,171.02,581.5z"/>
	<path class="st13" d="M186.15,618.31c13.39,29.6-2.42,83.57-8.25,103.12c-1.54-29.73-2.31-67.47-4.78-94.2
		C175.86,612.25,179.98,604.66,186.15,618.31z"/>
	<path class="st2" d="M154.19,825.82c-3.16,25.16-0.84,20.17-29.51,31.51s-8.39,12.01-5.33,11.33c9.71-2.14,18.67-8.67,39.33-6
		c20.67,2.67,8.1-19.56,8.1-19.56L166.01,820L154.19,825.82z"/>
	<path class="st12" d="M124.68,857.33c-28.67,11.33-8.39,12.01-5.33,11.33c9.71-2.14,18.67-8.67,39.33-6
		c20.67,2.67,8.1-19.56,8.1-19.56s-16.19,10.06-24.69,7.56L124.68,857.33z"/>
	<path class="st5" d="M179.36,581.5l-11.71,244.7c0,0-10.95,0-13.19,0s-2.72-2.15-2.72-2.15c-3.95-24.9-26.95-145.29-31.54-176.26
		c-4.59-30.97-7.79-51.44-4.77-68.28c1.39-7.76,11.1-29.5,11.1-29.5s45.48,4.46,53.02,3.38C184.81,552.65,179.36,581.5,179.36,581.5
		z"/>
	<path class="st2" d="M210.14,442.54c0,0,22.36,97.32,33.25,92.55c10.89-4.77,17.24-19.57,1.73-103.36L210.14,442.54z"/>
	<path class="st2" d="M242.5,534.7c0,0,102.78,31.01,113.67,15.68c0,0,8.22-0.87-3.36-5.91c-11.02-4.79-36.84-29.45-98.83-41.74
		L242.5,534.7z"/>
	<path class="st1" d="M235.04,412.95c9.47,4.41,18.68,44.56,18.68,44.56l-36.92,19.22c0,0-18.65-24.2-12.68-36.4
		C210.34,427.64,224.24,407.92,235.04,412.95z"/>
	<path class="st2" d="M112.65,418.94c0,0-61.75,78.48-51.2,83.96s28.37,2.9,83.88-61.76L112.65,418.94z"/>
	<path class="st14" d="M122.73,332.25c0,0,8.77,42.24,8.19,76.7c-0.57,34.46,56.04,2.77,56.04,2.77s46.01,9.97,34.49-22.5
		c-11.52-32.48,1.09-73.28,1.09-73.28l-52.44-7.37L122.73,332.25z"/>
	<path class="st6" d="M174.97,332.24L174.97,332.24c8.68,0,15.79,9.32,15.79,20.71v39.65c0,11.39-7.1,20.71-15.79,20.71l0,0
		c-8.68,0-15.79-9.32-15.79-20.71v-39.65C159.18,341.56,166.29,332.24,174.97,332.24z"/>
	<path class="st7" d="M174.97,332.24L174.97,332.24c8.68,0,15.79,9.32,15.79,20.71v32.79c-3.53,2.05-7.4,3.2-11.55,3.2
		c-7.42,0-14.35-4.76-20.03-11.99v-24C159.18,341.56,166.29,332.24,174.97,332.24z"/>
	<path class="st14" d="M209.46,265.89c0,0,39.93,24.95,16,157.49c0,0-35.18,22.74-21.9-50.47
		C216.84,299.7,209.46,265.89,209.46,265.89z"/>
	<path class="st2" d="M205.19,343.8c-3.17-0.94-1.81-5.81-0.31-9.65c1.5-3.84,5.28-6.2,8.45-5.27c0.47,0.14,0.9,0.35,1.29,0.61
		c0.82-4.14,1.66-8.26,2.63-12.21l-5.03-30.76c-4.01-24.5-27.33-41.26-51.82-37.26h0c-24.49,4-41.26,27.33-37.26,51.82l5.14,31.43
		c14.24,23.52,35.42,47.67,56.91,45.09c17.12-2.05,22.92-17.73,26.87-35.52C209.68,343.52,206.93,344.31,205.19,343.8z"/>
	<path class="st15" d="M213.33,328.87c-3.17-0.93-6.96,1.43-8.45,5.27c-1.49,3.85-2.86,8.71,0.31,9.65
		c1.74,0.51,4.49-0.27,6.86-1.72c0.92-4.13,1.73-8.38,2.57-12.59C214.23,329.23,213.8,329.01,213.33,328.87z"/>
	<path class="st7" d="M162.07,337.79c-4.39-1.2-8.6,0.92-9.41,4.73c-0.81,3.81,2.09,7.89,6.48,9.09c4.39,1.21,10,0.5,10.81-3.32
		C170.75,344.48,166.46,339,162.07,337.79z"/>
	<path class="st15" d="M380.9,544.29c3.33,4.48-0.8,19.51-6.02,21.5c-7.22,2.76-28.21-9.95-26.43-16.04S376,537.69,380.9,544.29z"/>
	<g>
		<path class="st7" d="M165.91,304.94c1.01,0.27,1.6,1.31,1.33,2.32c-0.27,1.01-1.31,1.6-2.32,1.33c-0.02-0.01-6.08-1.75-10.9,2.51
			c-0.79,0.69-1.99,0.62-2.68-0.17c-0.69-0.79-0.62-1.99,0.17-2.68C157.87,302.63,165.88,304.93,165.91,304.94z"/>
		<path class="st7" d="M210.09,298.57c0.98,0.35,1.49,1.44,1.14,2.42c-0.35,0.98-1.44,1.49-2.42,1.14
			c-0.02-0.01-5.92-2.24-11.06,1.61c-0.84,0.63-2.03,0.46-2.66-0.38c-0.62-0.84-0.45-2.03,0.39-2.66
			C202.27,295.61,210.06,298.56,210.09,298.57z"/>
	</g>
	<path class="st10" d="M182.12,337.85c0.34,0.9,5.3,0.29,6.35-1.36c0.7-1.1-0.99-4.45-2.33-6.64"/>
	<path class="st14" d="M117.84,314.26l3.07,9.34c0,0,5.86-0.23,6.71,4.94c0,0,3.18-5.98,1.26-12.5c0,0,8.88-14.59,6.04-28.81
		c-2.84-14.22-7.69-23.45-7.69-23.45S109.65,284.02,117.84,314.26z"/>
	<path class="st14" d="M221.43,297.33l0.06,9.83c0,0-5.64,1.65-4.79,6.81c0,0-4.92-4.66-5.18-11.44c0,0-13.07-11.01-14.9-25.39
		c-1.84-14.38,2.59-21.76,2.59-21.76S219.56,266.05,221.43,297.33z"/>
	<g>
		<path class="st4" d="M204.79,325.52c2.93-0.48,4.92-3.24,4.44-6.17c-0.07-0.4-0.18-0.78-0.32-1.14l0.57-0.31
			c0.59-0.34,1.18-0.81,1.67-1.48c0.22-0.3,0.16-0.72-0.13-0.94c-0.3-0.22-0.72-0.16-0.94,0.13c-0.49,0.65-1.08,1.06-1.66,1.32
			l-0.01-0.01c0.55-0.46,1.07-1.1,1.37-1.99c0.12-0.35-0.07-0.73-0.42-0.85c-0.35-0.12-0.73,0.07-0.85,0.43
			c-0.24,0.73-0.71,1.23-1.16,1.56l-0.06-0.05c0.34-0.39,0.65-0.92,0.73-1.61c0.04-0.37-0.22-0.7-0.59-0.75
			c-0.37-0.04-0.7,0.22-0.75,0.59c-0.06,0.5-0.32,0.84-0.56,1.06c-0.92-0.41-1.97-0.57-3.05-0.39c-2.93,0.48-4.92,3.24-4.44,6.17
			C199.1,324.01,201.86,326,204.79,325.52z"/>
		<path class="st4" d="M162.07,332.51c-2.93,0.48-5.69-1.51-6.17-4.43c-0.07-0.4-0.09-0.8-0.06-1.18l-0.64-0.12
			c-0.67-0.13-1.37-0.4-2.06-0.87c-0.31-0.21-0.38-0.63-0.17-0.93c0.21-0.31,0.63-0.38,0.94-0.17c0.67,0.46,1.36,0.66,2,0.72
			l0.01-0.01c-0.67-0.26-1.37-0.7-1.93-1.45c-0.22-0.3-0.16-0.72,0.13-0.94c0.29-0.22,0.72-0.16,0.94,0.13
			c0.47,0.62,1.06,0.94,1.6,1.11l0.04-0.06c-0.44-0.26-0.91-0.66-1.21-1.29c-0.16-0.34-0.01-0.74,0.32-0.9s0.74-0.02,0.9,0.32
			c0.21,0.45,0.57,0.7,0.87,0.82c0.74-0.69,1.69-1.17,2.76-1.35c2.93-0.48,5.69,1.51,6.17,4.43
			C166.99,329.26,165.01,332.03,162.07,332.51z"/>
	</g>
	<path class="st9" d="M198.58,346.36c0.84,5.17-5.32,11.29-10.49,12.13c-5.17,0.84-13.57-3.59-14.42-8.76
		c-0.15-0.95,4.02-0.92,4.97-1.07l15.27-2.5C194.86,346.01,198.42,345.41,198.58,346.36z"/>
	<path class="st16" d="M158.46,396.21c0,0,3.58,9.21,16.76,9.21c13.17,0,15.37-11.55,15.37-11.55l44.9,19.73
		c-7.25,10.76-9.2,42.36-9.2,42.36c1.4,10.29-9.08,50.19-8.61,58.14c0.47,7.95,14.53,46.3,14.53,46.3
		c-8.19,8.42-41.77,20.46-56.19,20.46c-14.42,0-45.77-11.93-53.96-20.35c0,0,15.2-41.68,15.67-49.64
		c0.47-7.95-17.28-40.31-15.88-50.6c0,0,0.79-32.85-6.46-43.6L158.46,396.21z"/>
	<path class="st14" d="M125.66,269.52c0,0,20.74-79.3,83.7-17.98c13.22,12.87,27.08,26.33,25.84,33.71
		C230.54,313.03,134.09,305.03,125.66,269.52z"/>
	<path class="st14" d="M127.23,264.85c0,0-36.61,29.61,3.23,158.27c0,0,37.68,18.3,15.61-52.76S127.23,264.85,127.23,264.85z"/>
	<g>
		<g>
			<path class="st17" d="M122.58,271.43c0.6,3.28,1.27,6.55,1.94,9.81c1.74,8.46,3.62,16.89,5.62,25.29
				c2.77,11.63,5.77,23.21,9.07,34.71c3.63,12.65,7.6,25.22,12.15,37.57c4.31,11.73,9.11,23.33,14.96,34.38
				c0.67,1.26,1.35,2.52,2.05,3.77c0.79,1.4,2.95,0.14,2.16-1.26c-6.02-10.74-10.91-22.09-15.28-33.59
				c-4.66-12.27-8.72-24.77-12.42-37.36c-3.41-11.61-6.51-23.32-9.36-35.08c-2.16-8.88-4.18-17.79-6.05-26.74
				c-0.57-2.74-1.13-5.49-1.67-8.24c-0.24-1.24-0.38-2.55-0.72-3.76c-0.02-0.05-0.02-0.11-0.03-0.17
				C124.7,269.19,122.29,269.86,122.58,271.43L122.58,271.43z"/>
		</g>
	</g>
	<g>
		<g>
			<path class="st17" d="M215.53,266.19c1.04,2.9,1.96,5.85,2.87,8.8c2.37,7.72,4.49,15.52,6.38,23.38
				c2.67,11.1,4.9,22.31,6.59,33.61c1.93,12.92,3.14,25.96,3.35,39.03c0.21,13.38-0.62,26.83-3.21,39.98
				c-0.32,1.61-0.66,3.21-1.03,4.81c-0.36,1.57,2.05,2.23,2.41,0.66c3.02-13.12,4.26-26.61,4.35-40.05
				c0.09-13.29-0.94-26.58-2.71-39.75c-1.56-11.64-3.7-23.21-6.33-34.65c-1.95-8.49-4.16-16.93-6.66-25.28
				c-1.1-3.67-2.1-7.48-3.54-11.04c-0.02-0.05-0.03-0.1-0.05-0.15C217.4,264.02,214.98,264.67,215.53,266.19L215.53,266.19z"/>
		</g>
	</g>
	<path class="st18" d="M127.23,263.78c0,0,39.84,41.45,101.21,8.61l-11.84-14c0,0-31.76,32.84-89.36,4.84V263.78z"/>
	<path class="st2" d="M59.93,500.35c0,0,34.86,92.84,53.64,93.59c0,0,5.22,6.41,3.11-6.04c-2-11.85-4.58-50.46-35.92-105.43
		L59.93,500.35z"/>
	<path class="st2" d="M104.21,583.82l11.19-5.16c0,0,20.87,19.85,20.88,29.54s-17.18,10.08-17.18,10.08S114.34,612.74,104.21,583.82
		z"/>
	<path class="st15" d="M119.1,618.28l17.11-12.08c0,0,14.63,23.95,9.72,27.33S119.1,618.28,119.1,618.28z"/>
	<path class="st2" d="M115.4,578.66c0,0,26.64,14.56,27.3,20.79c0.65,6.23-23.54-9.91-23.54-9.91L115.4,578.66z"/>
	<path class="st1" d="M119.04,414.61c-10.39,1.07-32.23,36-32.23,36l28.6,30.24c0,0,25.54-16.76,23.89-30.24
		C137.58,436.56,130.89,413.39,119.04,414.61z"/>
	<path class="st19" d="M123.69,473.05c0,0,20.4-17.76-8.3-56.38"/>
	<line class="st19" x1="217.67" y1="514.1" x2="199.69" y2="534.05"/>
	<line class="st19" x1="224.69" y1="472.05" x2="214.69" y2="431.05"/>
	<path class="st13" d="M115.93,619.35c0,0,13-6,20.5-19c0,0,38.5,50.5,4.5,43L115.93,619.35z"/>
	<path class="st12" d="M116.93,620.35c0,0,13-6,20.5-19c0,0,38.5,50.5,4.5,43L116.93,620.35z"/>
	<path class="st2" d="M399.73,538.64l-7.55-10.41c0,0-29.13,7.42-34.09,16.24s10.49,17.94,10.49,17.94S375.75,559.8,399.73,538.64z"
		/>
	<path class="st15" d="M368.59,562.4l-9.42-19.73c0,0-25.54,14.34-22.8,19.92C339.12,568.18,368.59,562.4,368.59,562.4z"/>
	<path class="st2" d="M392.18,528.23c0,0-31.68-0.34-35.46,5c-3.78,5.34,26.48,2.99,26.48,2.99L392.18,528.23z"/>
	<path class="st20" d="M758.81,842.29c0,0-1.28-4.52-3.04-4.52c-1.76,0-10.23,0-11.88,0c-1.66,0-7.58,1.67-7.58,7.1
		c0,0-3.76,3.61-4.4,4.48c-0.64,0.88-1.2,1.78-1.2,4.78c0,3,0,14.58,0,16.74c0,2.16-0.53,10.69,12.6,10.69c13.14,0,20.97,0,25.04,0
		c4.07,0,7.21-4.03,7.21-7.84c0-3.81-0.7-7.68-5.1-14.74c-4.4-7.06-7.59-12.3-7.59-12.3S760.91,843.35,758.81,842.29z"/>
	<path class="st20" d="M607.45,842.29c0,0,1.28-4.52,3.04-4.52s10.23,0,11.88,0c1.66,0,7.58,1.67,7.58,7.1c0,0,3.76,3.61,4.4,4.48
		c0.64,0.88,1.2,1.78,1.2,4.78c0,3,0,14.58,0,16.74c0,2.16,0.53,10.69-12.6,10.69c-13.14,0-20.97,0-25.04,0
		c-4.07,0-7.21-4.03-7.21-7.84c0-3.81,0.7-7.68,5.1-14.74c4.4-7.06,7.59-12.3,7.59-12.3S605.35,843.35,607.45,842.29z"/>
	<path class="st13" d="M632.18,454.61l17.68,105.44l-15.98,291.72l-22.5-6.41c0,0-32.75-194.84-24.52-305.31
		c1.82-24.5,7.89-90,7.89-90L632.18,454.61z"/>
	<path class="st12" d="M632.18,454.61l6.25,103.76l99.1,288.35l19.06-7.31c0,0-27.57-207.53-49.73-307.36
		c-4.82-21.72-26.87-71.62-26.87-71.62L632.18,454.61z"/>
	<path class="st2" d="M564.21,360.91c0,0-48.9,92.03-37.05,95.71s29.37,8.76,74.72-78.95L564.21,360.91z"/>
	<path class="st21" d="M587.79,337.75c0,0-9.57,3.26-12.78,6.05c-3.21,2.78-38.98,57.29-38.98,57.29l31.83,36.97l26.57-35.68
		C594.43,402.37,604.74,364.16,587.79,337.75z"/>
	<path class="st21" d="M645.01,335.19c12.42,0,14.96-9.54,14.96-9.54l28.81,10.85c8.95,24.66,6.75,64.99,6.75,64.99
		c-6.47,41.84-4.81,45.69,0.48,87.29c0.54,4.23-0.54,9.1-0.54,9.1c-12.67,22.04-100.92,19.45-113.12-1.78c0,0-1.08-4.87-0.54-9.1
		c5.29-41.6,9.17-43.67,2.69-85.51c0,0,15.53-36.87,2.29-63.75l43.27-12.1C630.06,325.65,632.6,335.19,645.01,335.19z"/>
	<path class="st6" d="M651.99,277.78L651.99,277.78c8.37,1.18,13.99,10.92,12.47,21.64l-3.97,28.08
		c-1.51,10.72-9.6,18.52-17.98,17.34l0,0c-8.37-1.18-13.98-10.92-12.47-21.64l3.97-28.08C635.53,284.4,643.62,276.6,651.99,277.78z"
		/>
	<path class="st7" d="M652.99,257.78L652.99,257.78c8.37,1.18,13.99,10.92,12.47,21.64l-3.97,28.08
		c-1.51,10.72-9.6,18.52-17.98,17.34l0,0c-8.37-1.18-13.98-10.92-12.47-21.64l3.97-28.08C636.53,264.4,644.62,256.6,652.99,257.78z"
		/>
	<g>
		<path class="st7" d="M603.61,245.55c-1.84,6.76,0.44,15.61,7.2,17.45c0.19,0.05,0.38,0.1,0.57,0.14
			c-0.18-4.71,0.23-9.31,1.26-13.52l0.92-3.77C615.44,238.13,606.69,234.24,603.61,245.55z"/>
		<path class="st7" d="M702.61,271.3c-1.49,6.85-6.57,12.33-13.42,10.85c-0.19-0.04-0.38-0.09-0.57-0.14
			c2.33-4.1,4.1-8.36,5.12-12.58l0.92-3.77C696.55,257.94,705.09,259.84,702.61,271.3z"/>
	</g>
	<path class="st2" d="M670.56,188.39c-22.3-5.45-45.16,8.95-50.79,32l-9.31,38.12c0.04,0.47,0.08,0.92,0.13,1.38
		c3.07-1,7.05,0.98,9.24,4.75c2.38,4.08,1.76,8.72-1.38,10.36c-1.8,0.94-4.05,0.68-6.08-0.49c3.72,23.5,10.05,30.51,17.77,33.84
		c13.05,5.65,55.81-6.98,61.44-30.03l9.31-38.12C706.51,217.16,692.86,193.84,670.56,188.39z"/>
	<path class="st7" d="M667.07,274.8c-4.61,0.77-8.11,3.88-7.81,6.94c0.29,3.06,4.27,4.91,8.88,4.14c4.61-0.77,8.11-3.88,7.82-6.94
		S671.68,274.03,667.07,274.8z"/>
	<path class="st15" d="M618.44,275c3.14-1.63,3.76-6.27,1.38-10.36c-2.19-3.77-6.17-5.74-9.24-4.75c0.5,5.48,1.09,10.33,1.77,14.62
		C614.39,275.67,616.64,275.93,618.44,275z"/>
	<path class="st10" d="M643.63,273.27c-0.38,0.84-5.11-0.06-6.01-1.72c-0.6-1.1,1.24-4.21,2.67-6.22"/>
	<g>
		<path class="st4" d="M635.89,236.76c0.79,0.62,0.93,1.77,0.31,2.55c-0.62,0.79-1.76,0.93-2.55,0.31
			c-0.02-0.01-4.73-3.83-10.6-1.88c-0.96,0.32-1.99-0.2-2.31-1.15c-0.32-0.96,0.2-1.99,1.16-2.31
			C629.65,231.69,635.88,236.75,635.89,236.76z"/>
		<path class="st4" d="M677.44,247.74c0.73,0.68,0.78,1.84,0.1,2.57c-0.68,0.74-1.84,0.78-2.57,0.1c-0.01-0.01-4.4-4.21-10.41-2.73
			c-0.98,0.24-1.97-0.36-2.21-1.34c-0.24-0.98,0.36-1.97,1.34-2.21C671.62,242.18,677.42,247.73,677.44,247.74z"/>
	</g>
	<path class="st4" d="M701.33,261.97c0,0-5.48-1.2-6.67,3.69c0,0-2.61-5.98-0.28-12.09c0,0-7.43-14.67-3.65-28.1
		c3.78-13.43,15.04-13.75,15.04-13.75C729.29,225.29,706.98,238.85,701.33,261.97z"/>
	<path class="st4" d="M609.33,239.5c0,0,5.42,1.46,4.22,6.35c0,0,5.07-4.1,5.82-10.6c0,0,13.36-9.59,16.2-23.25
		c2.84-13.66-7-19.13-7-19.13C601.43,194.06,614.98,216.38,609.33,239.5z"/>
	<path class="st4" d="M694.24,228.64c0,0-5.07,5.85-8.04,4.72c-2.96-1.13-3.28-5.66-1.01-9.96c0,0-10.08-12.58-19.29-12.2
		c-9.2,0.38-30.02,31.73-49.46,25.97c-19.44-5.76-31.22-31.31-15.02-52.86c16.2-21.55,40.87-28.07,71.92-17.65
		c31.06,10.42,36.27,31.57,32.42,45.06C701.91,225.21,694.24,228.64,694.24,228.64z"/>
	<path class="st22" d="M702.52,187.82c-25.03,15.46-63.95,29.05-105.66,4.2c1.16-2.6,2.67-5.18,4.57-7.7
		c1.8-2.4,3.71-4.61,5.72-6.63c36.54,21.34,69.32,14.98,91.58,4.78C700.21,184.21,701.47,186,702.52,187.82z"/>
	<g>
		<path class="st4" d="M624.04,258.18c2.78,0.68,5.58-1.02,6.25-3.8c0.68-2.78-1.02-5.57-3.79-6.25c-2.78-0.68-5.57,1.02-6.25,3.8
			C619.56,254.7,621.26,257.5,624.04,258.18z"/>
		<path class="st4" d="M664.57,268.08c2.78,0.68,5.57-1.02,6.25-3.8c0.68-2.77-1.02-5.57-3.8-6.25c-2.78-0.68-5.58,1.02-6.25,3.8
			C660.09,264.61,661.79,267.4,664.57,268.08z"/>
	</g>
	<path class="st9" d="M651.86,283.8c-1.2,4.9-9.24,7.49-14.14,6.29c-4.9-1.2-10.31-7.89-9.11-12.79c0.22-0.9,3.54,0.31,4.44,0.53
		c0,0,10.86,2.65,14.47,3.53C648.42,281.58,652.08,282.9,651.86,283.8z"/>
	<path class="st11" d="M612.19,234.71c0,0,22.09,22.96,53.71-23.52"/>
	<circle class="st9" cx="668.48" cy="261.4" r="2"/>
	<circle class="st9" cx="628.05" cy="252.19" r="2"/>
	<path class="st2" d="M464.99,544.82l16.07-9.31l-3.21,0.4c-22.03,13.13-23.18,5.47-23.18,5.47s20.57-14.53,21.21-13.83
		c0.64,0.7,21.25-1.98,21.25-1.98l11.01-0.44l-0.79,4.84l3.84,2.28c0,0-34.79,21.76-35.95,22.82c-2.11,1.93-31.38,3.89-31.38,3.89
		S424.95,552.57,464.99,544.82z"/>
	<path class="st2" d="M601.78,476.51c0,0-87.06,66.35-104.25,56.87c0,0-8.12,2.91,0.48-7.07c8.18-9.5,31.34-42.59,89.02-74.74
		L601.78,476.51z"/>
	<path class="st21" d="M689.38,336.61c0,0,14.18,10.19,18.5,29.08c5.33,23.33-29.33,71.33-29.33,71.33l-39.17-18.22l6.35-50.95
		C645.73,367.86,659.35,360.31,689.38,336.61z"/>
	<path class="st23" d="M584.5,401.49c0,0,11.92-32.3-2.28-54.94 M587.83,432.2c0,0,2.93,14.45,12.92,23.11 M693.13,470.82
		l-25.67,24.79 M646.03,370.03l-12.45,36.53 M653.42,445.94c0,0,30.07-15.99,42.73-38.51"/>
	<path class="st15" d="M528.54,456.69c0,0,40.13,74.83,58.81,72.7c0,0,4.51,2.28,0.53-9.7c-3.79-11.4-4-33.71-36.38-83.58
		L528.54,456.69z"/>
	<path class="st2" d="M526.54,456.69c0,0,40.13,74.83,58.81,72.7c0,0,6.14,5.54,2.15-6.44c-3.79-11.4-5.57-48.07-44.96-97.59
		L526.54,456.69z"/>
	<path class="st2" d="M574.55,520.82l10.26-6.82c0,0,23.67,16.42,25.16,25.99c1.49,9.58-15.43,12.59-15.43,12.59
		S588.98,547.85,574.55,520.82z"/>
	<path class="st12" d="M587.18,547.85c0,0,13-6,20.5-19c0,0,38.5,50.5,4.5,43L587.18,547.85z"/>
	<path class="st13" d="M588.18,548.85c0,0,13-6,20.5-19c0,0,38.5,50.5,4.5,43L588.18,548.85z"/>
	<path class="st2" d="M584.81,514c0,0,28.56,10.31,30.16,16.37c1.6,6.06-24.78-6.19-24.78-6.19L584.81,514z"/>
	<path class="st2" d="M653.03,444.98c0,0-82.85,60.74-87.82,49.37s-16.67-26.67,66.97-84.95L653.03,444.98z"/>
	<path class="st2" d="M418.14,532.58l8.82-9.36c0,0,27.94,11.07,31.73,20.45c3.79,9.38-12.7,16.46-12.7,16.46
		S439.22,556.63,418.14,532.58z"/>
	<path class="st15" d="M445.99,560.13l11.86-18.36c0,0,23.5,17.48,20.07,22.67C474.48,569.62,445.99,560.13,445.99,560.13z"/>
	<path class="st2" d="M426.95,523.22c0,0,31.47,3.7,34.53,9.49c3.06,5.78-26.65-0.42-26.65-0.42L426.95,523.22z"/>
</g>
</svg>
