<?xml version="1.0" encoding="utf-8"?>
<!-- Generator: Adobe Illustrator 24.2.1, SVG Export Plug-In . SVG Version: 6.00 Build 0)  -->
<svg version="1.1" id="Слой_1" xmlns="http://www.w3.org/2000/svg" xmlns:xlink="http://www.w3.org/1999/xlink" x="0px" y="0px"
	 viewBox="0 0 864.61 999.02" style="enable-background:new 0 0 864.61 999.02;" xml:space="preserve">
<style type="text/css">
	.st0{fill:#FFFFFF;}
	.st1{fill-rule:evenodd;clip-rule:evenodd;fill:#B7B5DC;}
	.st2{fill:#B7B5DC;}
	.st3{fill-rule:evenodd;clip-rule:evenodd;fill:#EB5A3F;}
	.st4{fill-rule:evenodd;clip-rule:evenodd;fill:#D86C51;}
	.st5{fill:#484A73;}
	.st6{fill-rule:evenodd;clip-rule:evenodd;fill:#2F3C5A;}
	.st7{fill:#B46F5C;}
	.st8{fill:#D7816C;}
	.st9{fill:#E3AB84;}
	.st10{fill:#C2E1CE;}
	.st11{fill:#A4504A;}
	.st12{fill-rule:evenodd;clip-rule:evenodd;fill:#70BE8D;}
	.st13{fill-rule:evenodd;clip-rule:evenodd;fill:#B46F5C;}
	.st14{fill-rule:evenodd;clip-rule:evenodd;fill:#A4504A;}
	.st15{fill-rule:evenodd;clip-rule:evenodd;fill:#1C2036;}
	.st16{fill-rule:evenodd;clip-rule:evenodd;fill:#FFFFFF;}
	.st17{fill-rule:evenodd;clip-rule:evenodd;fill:none;stroke:#1C2036;stroke-width:0;stroke-miterlimit:10;}
	.st18{fill:#D86C51;}
	.st19{fill:#2F3C5A;}
	.st20{opacity:0.5;fill-rule:evenodd;clip-rule:evenodd;fill:#FFFFFF;}
	.st21{fill-rule:evenodd;clip-rule:evenodd;fill:none;stroke:#1C2036;stroke-miterlimit:10;}
	.st22{fill:#1C2036;}
	.st23{fill:#70BE8D;}
	.st24{fill-rule:evenodd;clip-rule:evenodd;fill:#E3AB84;}
	.st25{fill-rule:evenodd;clip-rule:evenodd;fill:#D7816C;}
	.st26{fill:#807DBA;}
</style>
<g>
	<g>
		<path class="st0" d="M864.51,242.07c-28.5,10.92-64.42,26.1-102.44,45.79c-80.68,41.8-187.68,112.93-239.14,214.57
			c-13.67,27.02-22.84,54.93-27.48,83.65c-1.83,0.11-3.67,0.22-5.53,0.3c4.67-29.69,14.08-58.52,28.21-86.4
			c52.1-102.93,160.13-174.8,241.56-216.94c38.89-20.14,75.61-35.6,104.52-46.62C864.35,238.29,864.45,240.18,864.51,242.07z"/>
		<path class="st0" d="M857.5,318.87c-0.4,1.94-0.86,3.91-1.35,5.88c-22.95,5.8-57.41,17.85-90.96,42.36
			c-41.85,30.55-89.02,85.97-103.09,184.1c-1.91,0.76-3.86,1.54-5.8,2.29c13.81-101.99,62.64-159.4,105.9-190.89
			C797.63,336.77,834.09,324.5,857.5,318.87z"/>
		<path class="st0" d="M419.86,586.64c-1.83-0.05-3.67-0.13-5.5-0.22c-0.65-15.02-3.4-36.57-12.22-60.67
			c-15.42-42.07-53.02-100.83-144.62-141.87c-91.71-41.12-147.99-97.86-162.77-164.14c-9.28-41.53-1.62-84.38,22.09-125.93
			c1.73,0.57,3.45,1.19,5.2,1.83c-23.46,40.67-31.07,82.49-22.03,122.94c14.4,64.53,69.63,120,159.72,160.37
			c93.46,41.91,131.84,102.09,147.56,145.24C416.44,549.24,419.27,571.32,419.86,586.64z"/>
		<path class="st0" d="M76.47,498.19c-1.65-1.19-3.26-2.37-4.88-3.64c6.2-41.91,3.07-106.81-43.6-184.21
			c-38.97-64.66-37.38-138.69,4.64-214.14c3.56-6.36,7.25-12.51,11.06-18.39c2.02,0.11,4.07,0.24,6.15,0.43
			c-4.31,6.58-8.55,13.48-12.57,20.71C-4.26,173.63-5.83,243.79,32.6,307.54C81.14,388.03,83.38,455.42,76.47,498.19z"/>
		<path class="st0" d="M343.22,580.55c-1.97-0.24-3.94-0.49-5.91-0.73c-12.67-37.27-38.78-89.1-89.47-112.53
			c-15.64-7.23-29.93-7.25-42.47-0.03c-22,12.7-35.78,45.36-44.17,75.67c-1.78-0.59-3.53-1.21-5.26-1.89
			c8.68-31.12,23.16-64.85,46.73-78.44c14.13-8.14,30.09-8.22,47.43-0.19C303.64,487.14,330.52,542.17,343.22,580.55z"/>
		<path class="st0" d="M759.55,45.46c-8.2,14.37-16.45,30.71-25.24,48.13c-40.85,81.03-91.71,181.91-203.54,207.18
			c-14.99,3.4-29.42,5.1-43.17,5.1c-31.52,0-59.68-8.9-84.03-26.64c-32.85-23.92-54.2-60.86-67.95-95.92
			c1.91-0.05,3.75-0.19,5.58-0.38c13.46,33.76,34.14,69.03,65.56,91.93c33.65,24.51,74.99,31.47,122.83,20.66
			C638.94,270.79,689.17,171.2,729.51,91.16c8.9-17.64,17.26-34.19,25.62-48.78C756.62,43.38,758.1,44.38,759.55,45.46z"/>
		<path class="st0" d="M727.9,26.53c-26.08,47.24-78.88,125.42-159.07,164.33c-12.62,6.12-24.92,9.17-36.86,9.17
			c-10.92,0-21.49-2.56-31.71-7.69c-28.37-14.21-49.97-46.09-65.8-79.66c1.32-1.59,2.64-3.18,3.96-4.83
			c15.53,33.68,36.7,65.85,64.26,79.66c19.77,9.92,41.23,9.41,63.77-1.51c78.82-38.24,130.84-115.17,156.59-161.8
			C724.66,24.93,726.28,25.72,727.9,26.53z"/>
		<path class="st0" d="M628.58,3.09c-4.85,34.06-19.23,77.23-60.3,87.51c-5.31,1.32-10.41,1.91-15.26,1.91
			c-27.29,0-47.27-19.39-60.81-40.04c1.4-1.11,2.83-2.21,4.23-3.26c14.97,23,38.1,44.22,70.54,36.13
			c37.29-9.3,50.99-49.67,55.9-82.14C624.78,3.15,626.69,3.09,628.58,3.09z"/>
	</g>
	<g>
		<path class="st1" d="M163.31,388.41c0.79-1.26,1.5-2.76,2.1-4.56l33.13-71.89c13.41-26.44,14.02-27.84,13.96-27.93c0,0,0,0,0-0.01
			c-0.01-0.02-0.11-0.2-0.29-0.51c-0.04-3.37-0.51-34.88-6.2-36.05c-6-1.24-13.38,26.68-13.38,26.68l0.22,0.11
			c-1.54,2.77-2.63,6.76-3.4,11.03c-1.85-7.02-4.3-13.69-6.45-11.14c-3.42,4.05,1.48,25.13,3.33,32.51l-20.57,31.4
			c-0.66-5.62-1.51-11.81-2.56-18.65l3.8-1.98c0,0-9.08-39.59-18.42-43.94c-0.81-0.38-1.65-0.6-2.49-0.71
			c5.26-25.88,3.77-54.3,0.11-79.03c-0.92-14.94-3.14-26.64-5.84-35.74c4.61-2.61,7.65-6.07,8.39-10.44
			c0.96-5.69-7.19-15.03-17.01-24.9l-1.33-1.58c0,0-0.04,0.04-0.12,0.12c-2.3-2.28-4.66-4.59-7.01-6.87
			c-51.25-49.92-74.12-5.34-80.55,11.73c-0.14-0.07-0.29-0.13-0.43-0.2v0.53c0,0,0.08,0.08,0.23,0.23
			c-0.02,0.04-0.03,0.09-0.05,0.13c-0.11-0.22-0.18-0.36-0.18-0.36s-1.83,2.12-4.03,5.99c-7.84,12.05-22.23,48.91,3.7,139.36
			l-7.02,3.33c-0.25,0-0.49,0-0.74,0.03c-10.24,1.05-31.78,35.49-31.78,35.49l2.91,3.07C4.54,327.19,0.84,396,6.56,416.2
			c-0.71,1.13-1.17,2.07-1.45,2.85c-0.39,0.7-0.58,1.12-0.58,1.12l0.31-0.22c-0.58,2.53,1.08,2.86,1.08,2.86s15.4,8.95,26.15,10.62
			c-0.52,1.67-0.92,3.14-1.13,4.3c-2.98,16.61,0.18,36.79,4.7,67.32c4.52,30.54,27.21,149.24,31.1,173.79c0,0,0.47,2.12,2.68,2.12
			c0.48,0,1.36,0,2.45,0l-3,1.48c-2.25,17.93-1.69,20.33-11.87,24.51c-0.02-0.01-0.04-0.01-0.05-0.01l-8.95,3.43
			c-2.41,0.9-5.12,1.92-8.22,3.15c-28.27,11.17-8.27,11.84-5.26,11.17c9.58-2.11,18.41-8.55,38.78-5.92
			c20.38,2.63,7.99-19.28,7.99-19.28l-0.62-18.52c1.06,0,1.75,0,1.75,0l7.29-152.26l7.29,152.26c0,0,0.46,0,1.21,0l-0.62,18.52
			c0,0-12.39,21.91,7.99,19.28c20.38-2.63,29.21,3.8,38.78,5.92c3.01,0.67,23.01,0-5.26-11.17c-3.1-1.22-5.81-2.25-8.22-3.15
			l-8.95-3.43c-0.02,0-0.04,0.01-0.05,0.01c-10.18-4.17-9.62-6.58-11.87-24.51l-3-1.48c1.34,0,2.44,0,3,0
			c2.21,0,2.68-2.12,2.68-2.12c3.9-24.55,26.58-143.25,31.1-173.79c4.52-30.54,7.68-50.72,4.7-67.32
			c-0.65-3.63-3.15-10.37-5.6-16.44c1.16-0.83,2.13-1.63,2.88-2.41c0,0-13.87-37.81-14.33-45.65c-0.22-3.7,1.97-14.41,4.19-25.75
			c2.47,8.57,5.14,17.18,7.81,24.63l-0.48,0.73l1.22,1.31c4.63,12.56,9.2,21.27,12.61,19.77c1.31-0.58,2.56-1.3,3.71-2.28l0.86,0.92
			L163.31,388.41z M37.45,402.24c-1.17-1.65-4-2.29-7.55-1.89c4.9-11.93,9.56-30.02,13.51-57.05c4.45,11.12,9.5,22.48,9.25,26.74
			c-0.32,5.37-7.45,26.34-11.91,39.03C39.6,406.02,38.35,403.52,37.45,402.24z M141.34,270.76c0.75-4.76,1.41-9.37,1.98-13.83
			l1.53,15.37L141.34,270.76z"/>
		<path class="st2" d="M534.77,389.13h0.42c0,0-0.44-0.25-1.23-0.63c-1.39-0.96-3.69-2.02-7.39-3.1c-1.13-15.38-9.19-40-30.07-77.91
			l2.88-2.98c0,0-35.26-53.74-38.43-56.49c-3.17-2.74-12.6-5.96-12.6-5.96l-30.65-8.57l0.01-0.01l-12.53-13.64l-0.99,1.37v-12.39
			c13.31-5.81,27.48-18.48,31.78-34.08c1.01,0.29,2.06,0.48,3.15,0.53c7.42,0.32,9.75-5.73,10.08-13.15
			c0.28-6.32,0.01-11.51-5.73-13.19c1.6-4.91,6.83-21.58,7.42-30.81c0.52-8.23-4.22-13.68-12.45-20.56
			c1.52-3.83,3.35-12.24-4.09-21.82c-0.21-0.27-0.59-0.31-0.85-0.09c-0.25,0.22-0.29,0.63-0.08,0.9c5.01,6.44,5.59,12.28,5,16.4
			c-1.01-5.74-5.71-12.47-12.19-18.1c0.05-0.2,0.02-0.41-0.11-0.58c-0.04-0.04-12.37-15.74-24.65-15.16
			c-4.52,0.21-6.94,2.09-8.17,4.41c-1.8,0.43-3.54,1.08-5.19,2.01c-19.08-7.15-33.23-5.35-40.39,1.47l-0.55-2.87
			c0,0-19.32,11.66-2.2,39.91c-2.64,3.65-4.22,7.45-4.47,11.49c-0.56,8.96,3.07,22.51,4.39,27.08c-0.14,0.02-0.28,0.02-0.42,0.04
			c-6.28-0.52-7.49,4.39-7.49,4.39c-0.61,7.4,0.91,21.72,8.31,22.33c1.13,0.09,2.23,0.03,3.3-0.15
			c5.6,15.15,15.13,29.63,26.17,37.33c-0.03,0.38-0.06,0.75-0.06,1.13v14.59l-0.58-0.62l-9.65,11.76l-26.54,7.42
			c0,0-9.44,3.22-12.61,5.96c-3.17,2.74-39.32,61.65-39.32,61.65l3.32,2.65c-19.17,35.32-26.92,58.74-28.29,73.75
			c-2.08,0.75-3.53,1.49-4.52,2.17c-0.79,0.38-1.23,0.63-1.23,0.63h0.42c-2.11,1.88-0.85,3.23-0.85,3.23s14.19,31.19,24.82,30.12
			c10.64-1.08,16.21-22.59,16.21-28.5c0-2.59-2.92-5.39-7.44-7.4c10.72-13.52,23.27-31.67,33.88-47.64l4.62,3.68l7.17-15.76
			c2.75,23.7,0.87,32.62-3.32,65.62c-0.53,4.17,0.53,8.97,0.53,8.97c0.66,1.15,1.58,2.23,2.69,3.25
			c2.26,55.37,9.67,237.54,12.41,310.97c-5.66,0.41-5.68,5.51-5.68,5.51c-0.14,9.91-8.94,17.98-14.32,21.17
			c-6.39,3.79-23.57-1.56-23.57,9.41c0,2.82,1.3,3.77,1.3,3.77c-0.79,0-1.43,0.7-1.43,1.55v2.64c0,0.86,0.64,1.56,1.43,1.56H341h1.9
			h3.19h19.65h8.13c0.79,0,1.43-0.7,1.43-1.56v-2.64c0-0.86-0.64-1.55-1.43-1.55c1.13-0.44,1.79-2.53,1.79-4.26
			c0-1.73,0-16.5,0-23.34c0-4-1.13-5.82-2.52-6.65c8.97-67.65,10.39-249.74,15.42-260.82c2.47-5.42-0.01-1.03,1.48,5.42
			c1.42,6.15,9.2,187.02,18.06,256.35c-0.39,0.79-0.64,1.72-0.64,2.79c0,0-3.71,3.56-4.34,4.42c-0.63,0.86-1.18,1.76-1.18,4.72
			c0,2.96,0,14.38,0,16.51c0,0.46-0.02,1.21,0.07,2.1c-0.94,0.18-1.66,1.1-1.66,2.2v4.07c0,1.23,0.9,2.24,2,2.24h29.58h14.35h0.07
			c-0.01,0-0.02,0-0.03,0c0.15,0,0.3-0.03,0.44-0.07h0.43l-0.03-0.17c0.66-0.37,1.12-1.13,1.12-2v-4.07c0-1.22-0.88-2.22-1.97-2.24
			c0.01,0,0.02,0,0.04,0h-0.07h-0.12c-0.08-3.02-0.74-6.21-3.48-11.15c-1.33-5.12-2.63-10.78-2.88-14.16
			c-0.53-7.3,4.44-9.36,4.5-9.38c-1.69,0.11-6.22,1.53-7.1,5.57c-2.41-64.82,8.4-258.97,11.56-319.61c1.72-1.33,3.06-2.76,3.94-4.29
			c0,0,1.06-4.8,0.53-8.97c-4.84-38.05-8.48-42.57-3.88-75.95L464,341.13l2.35-2.43c11.02,16.53,23.93,35.09,34.67,48.34
			c-3.94,1.96-6.44,4.53-6.44,6.93c0,5.92,5.57,27.43,16.21,28.5c10.64,1.08,24.82-30.12,24.82-30.12S536.88,391.01,534.77,389.13z
			 M401.52,60.4c8.02-0.38,16.18,6.69,20.5,11.16c-8.18-5.87-18.15-9.71-26.95-8.37C396.29,61.67,398.29,60.55,401.52,60.4z
			 M434.25,726.28c-0.19-0.3-0.33-0.54-0.43-0.7l1.37-0.24C434.88,725.64,434.56,725.97,434.25,726.28z"/>
		<path class="st2" d="M658.44,342.73c-1.07-1.31-2.33-2.35-3.71-3.15l-54.21-45.85c-5-4.13-15.46-5.52-24.14-3.93l-1.65-0.06
			c0,0,0-0.01,0.01-0.01l-9.53-0.53c0,0-0.07,0.04-0.18,0.11l0.02-14.15c0.01-0.02,0.03-0.04,0.04-0.06l0-5.46
			c8.9-6.6,16.05-17.75,22.66-29.52c1.19,0.5,2.48,0.83,3.84,0.96c7.15,0.66,13.47-4.61,14.13-11.75c0.39-4.24-1.31-8.19-4.24-10.84
			h0l2.62-9.34c2.6-11.62,1.48-21.61-0.86-29.5c-1.37-25.79-13.02-35.07-19.66-38.29c23.39-16.41,12.78-33.91,12.78-33.91
			l-3.93,4.94c-0.87-9.25-6.07-15.08-16.23-17.03c-13.91-2.66-31.82,2.95-34.89,19c-0.97,5.06-0.75,10.04,0.43,14.56
			c-8.91,3.29-19.07,10.24-30.55,22.47c-2.24,2.39-4.5,4.79-6.7,7.18c-0.08-0.07-0.13-0.12-0.13-0.12l-1.26,1.64
			c-9.38,10.3-17.09,20-15.89,25.64c1.24,5.79,6.53,9.79,14.13,12.16l0.34,8.81c0,0,0.27,0.07,0.67,0.22
			c-3.9,1.82-6.81,5.53-7.41,10.11c-0.93,7.12,4.1,13.64,11.21,14.57c1.44,0.19,2.86,0.12,4.21-0.15
			c4.69,17.52,10.22,34.98,24.61,41.6l0.68,15.19l-18.46-0.71c-0.92,0.1-1.81,0.3-2.67,0.55c-6.85,1-13.77,5.08-16.91,10.61
			l-56.83,77.12l18.39,6.16l-8.52,14.62l35.63,3.19l-3.58,38.96l21.66,0.64c-4.33,30.05-5.14,84.84,19.26,167.97l0.51,0.01v108.2
			l-0.02,0c0.01,0.08,0.01,0.17,0.02,0.25v1.28l0.05,0c0.04,5.02-1.7,11.21-1.49,15.84c0.31,6.92-4.26,29.14-4.53,30.59
			c-0.18,0.96-2.11,2.7-3.69,3.89c-1.54-0.17-2.83,0.55-2.83,0.55c-4.66,3.04-8.45,5.49-8.71,6.64c-0.26,1.14,0.98,3.73,3.99,3.8
			c3.02,0.08,11.89,0.3,20.58,0.52c8.7,0.22,7.11-5.4,12.1-15.84c1.25-2.61,2.5-4.71,3.68-6.4c1.56,1.27,3.09,4.15,3.03,6.74
			c-0.03,1.15,0.03,3.6,0.11,6.24c-0.3,0.25-0.61,0.49-0.9,0.7c-1.53-0.17-2.83,0.55-2.83,0.55c-4.66,3.04-8.45,5.49-8.71,6.64
			c-0.26,1.14,0.98,3.73,3.99,3.8c3.02,0.08,11.89,0.3,20.58,0.53c8.7,0.22,7.11-5.4,12.1-15.84c1.25-2.61,2.5-4.71,3.68-6.4
			c1.56,1.27,3.09,4.15,3.03,6.74c-0.08,3.15,0.48,15.97,0.48,15.97h0.99l1.95-29.89l0,0c0.2-0.24,0.33-0.45,0.4-0.65
			c0.51-1.62-0.54-11.85-1.38-13.93c-0.84-2.08-3.45-6.82-3.89-6.86c-0.44-0.04-1.9,0.46-1.91,0.47c-0.81-0.98-1.81-2.27-2.81-3.77
			c0.1-2.91,2.67-6.68,3.31-10.33c19.66-52.62,19.37-87.09,13.93-108.58l0.76,0.02c0,0,34.7-111.96,12.93-170.19l0.87,1.29
			l19.92-4.02v0l7.7-1.55c3.73-0.4,9.24-8.34,6.91-10.56c-1.66-1.58-8.16-1.02-8.16-1.02l-14.47,1.13l-4.17-6.24l45.78-55.77
			C662.33,357.13,663.2,348.56,658.44,342.73z M553.76,735.9c0.31,6.92-4.26,29.14-4.53,30.59c-0.06,0.31-0.31,0.71-0.67,1.15
			l1.18-18.12l0,0c0.2-0.24,0.33-0.45,0.4-0.65c0.51-1.62-0.54-11.85-1.38-13.93c-0.84-2.08-3.45-6.82-3.89-6.86
			c-0.44-0.04-1.89,0.46-1.91,0.47c-0.81-0.98-1.81-2.27-2.81-3.77c0.1-2.91,2.67-6.68,3.31-10.33c5.23-14,9.06-26.73,11.74-38.26
			v42.34l-0.02,0c0.01,0.08,0.01,0.17,0.02,0.25v1.28l0.05,0C555.29,725.08,553.55,731.26,553.76,735.9z M543.06,728.66l0.87,1.02
			C543.69,729.41,543.4,729.08,543.06,728.66z M486.69,370.69l2.54-2.83l-0.32,3.5L486.69,370.69z M575,732.65
			c-0.24-0.28-0.54-0.62-0.89-1.04L575,732.65z M578.87,409.92l7.87-25.75c1.44-1.73,2.22-3.3,1.89-4.48
			c-0.06-0.23-0.18-0.43-0.32-0.63l10.55-34.52l22.06,12.84l-30.23,53.28l0.97,0.36c-1.17,2.44-1.6,5.18-1.21,7.87
			C587.12,415.28,583.29,412.26,578.87,409.92z"/>
		<g>
			<path class="st2" d="M424.78,247.34c-0.26-0.02-0.5-0.04-0.74-0.06C424.5,247.32,424.78,247.34,424.78,247.34z"/>
			<path class="st2" d="M416.49,246.69c0.43,0.03,0.91,0.07,1.45,0.11C417.44,246.77,416.95,246.73,416.49,246.69z"/>
			<path class="st2" d="M422.62,247.17c0.51,0.04,0.95,0.08,1.31,0.1C423.48,247.24,423.04,247.21,422.62,247.17z"/>
			<path class="st2" d="M424.78,247.34c0,0-1.07,0.99-2.62,2.63c-0.1-0.95-0.58-1.43-1.57-1.25c-6.34,1.17-19.14,29.67-19.14,29.67
				l2.29-1c-9.47,4.3-37.66,14.02-73.99,44.19c-1.31-8.42-3.07-17.62-4.92-26.46l5.7-4.11c0,0-21.77-60.48-24.21-63.88
				c-2.44-3.41-10.87-8.73-10.87-8.73c-0.12,0.11-0.23,0.23-0.35,0.35l-44.84-11.73c0,0-0.25,0.95-0.99,2.23
				c0.5-1.8,0.8-3.72,0.87-5.72l0.53-16.7c12.68-5.7,24.67-20.69,28.64-38.58c6.72-0.8,11.62-6.8,10.98-13.58
				c-0.52-5.59-3.28-8.41-5.9-8.95c0,0,0.01,0,0.01,0c-0.58-8.59,1.33-16.63,2.69-23.67c9.2-2.48,11.82-8.8,9.36-18.06
				c1.9-1.63,3.11-4.04,3.11-6.74c0-4.37-3.17-8-7.33-8.73c0.9-1.83,1.41-3.88,1.41-6.06c0-7.62-6.18-13.8-13.8-13.8
				c-0.17,0-0.33,0.02-0.49,0.03c-2.49-3.59-6.64-5.94-11.34-5.94c-2.21,0-4.3,0.53-6.15,1.46c-1.17-6.44-6.8-11.32-13.57-11.32
				c-5.07,0-9.49,2.74-11.89,6.82c-1.52-0.57-3.15-0.9-4.87-0.9c-3.92,0-7.44,1.64-9.96,4.26c-1.77-0.83-3.74-1.3-5.82-1.3
				c-7.62,0-13.8,6.18-13.8,13.8c0,0.05,0.01,0.1,0.01,0.16c-6.69,0.96-11.84,6.69-11.84,13.65c0,0.05,0.01,0.1,0.01,0.16
				c-6.69,0.96-11.84,6.69-11.84,13.65c0,4.11,1.81,7.79,4.66,10.32c-2.18,9.55,7.21,22.53,8.29,38.52c0,0,0.01,0,0.02,0
				c-2.54,0.88-4.88,4.05-4.65,9.66c0.27,6.54,5.52,11.69,11.95,11.97c2.52,11.66,12.06,21.44,21.96,27.78l-0.67,21.13
				c-0.05,1.59,0.07,3.14,0.31,4.63l-34.48,9.64l-25.01-35.53l-0.67,0.47c-3.9-5.45-7.48-10.12-10.8-14.11
				c-17.91-56.92-42.4-85.55-51.4-96.85l0,0c0,0,2.29-31.16-2.74-35.2c-2.49-2-3.63,4.32-4.15,11.22c-1.6-3.85-3.45-7.25-5.49-9.31
				l0.19-0.08c0,0-12.54-26.02-18.2-23.66s-1.79,31.71-1.79,31.71s2.13,7.21,21.47,32.11l0.29-0.18
				c0.91,18.64,14.85,54.38,24.99,78.14c2.24,10.79,10.3,29.52,18.39,46.7l-4.61,3.23c0,0,36.15,58.91,39.32,61.65
				c2.14,1.86,7.13,3.92,10.15,5.07c0.03,5.86,0.23,9.58,0.23,9.58c6.38,41.25,4.75,45.05-0.47,86.07
				c-0.53,4.17,0.53,8.97,0.53,8.97c1.43,2.49,3.98,4.65,7.36,6.51c-3.83,10.24-7.19,20.19-8.74,27.18
				c-20.79,93.64-46.4,283.38-48.84,301.63c-1.41,0.84-2.38,4.27-2.38,4.27c-2.07,1.04-4,4.34-4,4.34s-3.14,5.17-7.48,12.13
				c-4.34,6.96-5.03,10.77-5.03,14.53c0,3.76,3.1,7.73,7.11,7.73c3.67,0,10.44,0,21.45,0c1.05,0,2.12,0,3.24,0
				c12.95,0,12.43-8.41,12.43-10.54c0-2.13,0-13.55,0-16.51c0-2.96-0.55-3.85-1.18-4.72c-0.63-0.86-4.34-4.42-4.34-4.42
				c0-0.33-0.02-0.64-0.07-0.94c-0.01-0.1-0.04-0.19-0.06-0.29c0-0.02-0.01-0.04-0.01-0.06l86.84-252.69l14.12,257.59
				c0,7.1,0,20.96,0,22.63c0,1.74,0.67,3.82,1.79,4.26c0,0,0.44,2.33,0.72,2.57c0.27,0.25,4.98,1.24,7.09,0.89
				c2.1-0.35,7.88-3.44,7.88-3.44s1.58-0.48,1.58-2.58c0,0,0.09-1.88,2.35-1.88c2.26,0,6.74,1.91,7.31,2.25
				c0.57,0.35,0.85,0.94,0.85,2.18c0,1.24,5.14,3.76,11.63,4.16c6.49,0.4,30.3-4.16,30.3-4.16s1.3-0.94,1.3-3.77
				c0-10.96-17.18-5.62-23.57-9.41c-5.38-3.19-14.18-11.26-14.32-21.17c0,0-0.01-4.78-5.13-5.46
				c6.14-49.41,23.46-201.04,16.74-291.26c-0.64-8.65-1.83-22.5-3.08-36.71c3.5-1.95,6.11-4.16,7.53-6.62c0,0,1.06-4.8,0.53-8.97
				c-3.02-23.75-5.57-34.43-5.95-47.22l3.19-2.3c8.46,19.19,15.55,28.8,21.7,33.35l11.12,11.88c0,0,86.89-64.03,82.67-82.92
				c0,0,4.58-6.31-5.44-2.11l6.5-2.83c0.88,1.91,2.54,3.61,5.27,4.93c0,0,0.5,3.77,24.9-7.48
				C441.8,271.42,449.92,249.32,424.78,247.34z M197.35,140.54l-0.26-3.81l0,0l0.26,3.92C197.36,140.61,197.35,140.58,197.35,140.54
				z"/>
		</g>
		<g>
			<path class="st2" d="M497.7,276.92c0.26-0.02,0.5-0.04,0.74-0.06C497.98,276.9,497.7,276.92,497.7,276.92z"/>
			<path class="st2" d="M505.99,276.27c-0.43,0.03-0.91,0.07-1.45,0.11C505.04,276.35,505.53,276.31,505.99,276.27z"/>
			<path class="st2" d="M499.86,276.75c-0.51,0.04-0.95,0.08-1.31,0.1C499,276.82,499.44,276.79,499.86,276.75z"/>
			<path class="st2" d="M480.68,301c24.4,11.25,24.9,7.48,24.9,7.48c2.73-1.32,4.39-3.02,5.27-4.93l6.5,2.83
				c-10.02-4.2-5.44,2.11-5.44,2.11c-4.21,18.88,82.67,82.92,82.67,82.92l11.12-11.88c6.15-4.56,13.24-14.17,21.7-33.35l3.19,2.3
				c-0.38,12.79-2.93,23.48-5.95,47.22c-0.53,4.17,0.53,8.97,0.53,8.97c1.42,2.47,4.03,4.68,7.53,6.62
				c-1.25,14.21-2.43,28.05-3.08,36.71c-6.72,90.22,10.59,241.85,16.74,291.26c-5.12,0.68-5.13,5.46-5.13,5.46
				c-0.14,9.91-8.94,17.98-14.32,21.17c-6.39,3.79-23.57-1.56-23.57,9.41c0,2.82,1.3,3.77,1.3,3.77s23.81,4.56,30.3,4.16
				c6.49-0.4,11.63-2.92,11.63-4.16c0-1.24,0.28-1.84,0.85-2.18c0.57-0.35,5.05-2.25,7.31-2.25c2.26,0,2.35,1.88,2.35,1.88
				c0,2.11,1.58,2.58,1.58,2.58s5.78,3.09,7.88,3.44c2.1,0.35,6.81-0.64,7.09-0.89c0.27-0.25,0.72-2.57,0.72-2.57
				c1.13-0.44,1.79-2.53,1.79-4.26c0-1.68,0-15.53,0-22.63l14.11-257.59l86.84,252.69c0,0.02-0.01,0.04-0.01,0.06
				c-0.02,0.1-0.05,0.19-0.06,0.29c-0.04,0.3-0.07,0.61-0.07,0.94c0,0-3.71,3.56-4.34,4.42c-0.63,0.86-1.18,1.76-1.18,4.72
				c0,2.96,0,14.38,0,16.51c0,2.13-0.52,10.54,12.43,10.54c1.12,0,2.2,0,3.24,0c11.01,0,17.78,0,21.45,0c4.01,0,7.11-3.97,7.11-7.73
				c0-3.76-0.69-7.57-5.03-14.53c-4.34-6.96-7.48-12.13-7.48-12.13s-1.94-3.3-4-4.34c0,0-0.97-3.43-2.38-4.27
				c-2.44-18.26-28.05-207.99-48.84-301.63c-1.55-6.99-4.92-16.95-8.74-27.18c3.39-1.86,5.93-4.03,7.36-6.51c0,0,1.06-4.8,0.53-8.97
				c-5.22-41.01-6.85-44.81-0.47-86.07c0,0,0.2-3.72,0.23-9.58c3.02-1.15,8.02-3.21,10.15-5.07c3.17-2.74,39.32-61.65,39.32-61.65
				l-4.61-3.23c8.1-17.18,16.15-35.91,18.39-46.7c10.14-23.77,24.08-59.5,24.99-78.14l0.29,0.18c19.35-24.9,21.47-32.11,21.47-32.11
				s3.87-29.35-1.79-31.71s-18.2,23.66-18.2,23.66l0.19,0.08c-2.04,2.07-3.89,5.46-5.49,9.31c-0.52-6.9-1.67-13.22-4.15-11.22
				c-5.02,4.05-2.74,35.2-2.74,35.2l0,0c-9,11.31-33.49,39.94-51.4,96.85c-3.32,3.99-6.9,8.66-10.8,14.11l-0.67-0.47l-25.01,35.53
				l-34.48-9.64c0.24-1.49,0.36-3.04,0.31-4.63l-0.67-21.13c9.9-6.34,19.44-16.12,21.96-27.78c6.42-0.28,11.68-5.43,11.95-11.97
				c0.23-5.61-2.12-8.78-4.65-9.66c0,0,0.02,0,0.02,0c1.08-16,10.47-28.97,8.29-38.52c2.85-2.53,4.66-6.21,4.66-10.32
				c0-6.95-5.15-12.69-11.84-13.65c0-0.05,0.01-0.1,0.01-0.16c0-6.95-5.15-12.69-11.84-13.65c0-0.05,0.01-0.1,0.01-0.16
				c0-7.62-6.18-13.8-13.8-13.8c-2.08,0-4.05,0.47-5.82,1.3c-2.51-2.62-6.04-4.26-9.96-4.26c-1.72,0-3.35,0.33-4.87,0.9
				c-2.4-4.07-6.82-6.82-11.89-6.82c-6.77,0-12.4,4.88-13.57,11.32c-1.85-0.93-3.94-1.46-6.15-1.46c-4.7,0-8.85,2.35-11.34,5.94
				c-0.17-0.01-0.33-0.03-0.49-0.03c-7.62,0-13.8,6.18-13.8,13.8c0,2.18,0.52,4.23,1.41,6.06c-4.16,0.73-7.33,4.36-7.33,8.73
				c0,2.7,1.21,5.11,3.11,6.74c-2.46,9.26,0.16,15.58,9.36,18.06c1.36,7.03,3.27,15.08,2.69,23.67c0,0,0.01,0,0.01,0
				c-2.63,0.54-5.38,3.36-5.9,8.95c-0.63,6.77,4.26,12.78,10.98,13.58c3.97,17.89,15.96,32.88,28.64,38.58l0.53,16.7
				c0.06,2,0.36,3.92,0.87,5.72c-0.73-1.29-0.99-2.23-0.99-2.23l-44.84,11.73c-0.12-0.12-0.23-0.23-0.35-0.35
				c0,0-8.43,5.33-10.87,8.73c-2.44,3.41-24.21,63.88-24.21,63.88l5.7,4.11c-1.85,8.84-3.61,18.04-4.92,26.46
				c-36.33-30.16-64.52-39.88-73.99-44.19l2.29,1c0,0-12.79-28.5-19.14-29.67c-0.99-0.18-1.47,0.3-1.57,1.25
				c-1.55-1.64-2.62-2.63-2.62-2.63C472.56,278.9,480.68,301,480.68,301z M725.12,170.23l0.26-3.92l0,0l-0.26,3.81
				C725.13,170.16,725.13,170.19,725.12,170.23z"/>
		</g>
	</g>
	<path class="st2" d="M628.14,942.6c-24.19,0-46.71-1.51-65.66-4.11c-14.82,2.57-33.7,4.11-54.28,4.11
		c-47.62,0-86.23-8.25-86.23-18.44s38.61-18.44,86.23-18.44c3.03,0,6.02,0.03,8.97,0.1c19.13-9.03,61.6-15.31,110.97-15.31
		c67.27,0,121.8,11.66,121.8,26.04C749.94,930.94,695.41,942.6,628.14,942.6z"/>
	<path class="st2" d="M634.3,927.53c0,7.51-78.12-0.76-178.23,9.61c-106.5,11.03-186.21-2.1-186.21-9.61
		c0-7.51,81.58-13.6,182.22-13.6C552.72,913.93,634.3,920.02,634.3,927.53z"/>
	<path class="st3" d="M580.92,359.66c0,0-115.24,135.99-129.93,365.17c0,0,244-40,340,104c0,0,79.93-311.17-158.07-471.17
		C632.92,357.66,620.92,395.66,580.92,359.66z"/>
	<path class="st4" d="M310.32,426.7c0,0,86.6,163.62,108.6,273.62c0,0-140.73-20.19-286.22,119.31c0,0-9.15-302.01,116.17-379
		L310.32,426.7z"/>
	<path class="st3" d="M310.32,426.7c0,0,86.6,163.62,108.6,273.62c0,0-140.73-20.19-286.22,119.31c0,0-9.15-302.01,116.17-379
		L310.32,426.7z"/>
	<path class="st5" d="M624.04,484.89l-17.68,105.44l15.99,291.72h27.94c0,0,27.3-201.25,19.07-311.72c-1.82-24.5-7.89-90-7.89-90
		L624.04,484.89z"/>
	<path class="st6" d="M655.4,911.93h-23.17c-1.86,0-3.38-1.65-3.38-3.66v-6.23c0-2.01,1.52-3.66,3.38-3.66h23.17
		c1.86,0,3.38,1.65,3.38,3.66v6.23C658.78,910.28,657.26,911.93,655.4,911.93z"/>
	<path class="st6" d="M694.69,906.1c0,0,1.32-0.95,1.32-3.82c0-11.12-17.43-5.7-23.9-9.54c-5.46-3.24-14.38-11.42-14.53-21.47
		c0,0,0-5.63-6.49-5.63c-6.49,0-7.97,0-10.2,0c-2.22,0-5.93,1.71-6.49,5.02c0,0-4.27,0-6.58,0c-2.32,0-5.65,0.5-5.65,7.44
		c0,6.94,0,21.91,0,23.67c0,1.76,0.68,3.87,1.82,4.33c0,0,0.45,2.36,0.73,2.61c0.28,0.25,5.05,1.26,7.19,0.91
		c2.13-0.35,8-3.49,8-3.49s1.6-0.48,1.6-2.62c0,0,0.09-1.91,2.39-1.91c2.29,0,6.84,1.93,7.42,2.29c0.58,0.35,0.87,0.96,0.87,2.21
		c0,1.25,5.21,3.82,11.79,4.22C670.54,910.72,694.69,906.1,694.69,906.1z"/>
	<path class="st6" d="M694.69,911.93h-42.52c-0.8,0-1.45-0.71-1.45-1.58v-2.68c0-0.87,0.65-1.57,1.45-1.57h42.52
		c0.8,0,1.45,0.71,1.45,1.57v2.68C696.15,911.22,695.49,911.93,694.69,911.93z"/>
	<path class="st6" d="M657.33,911.93h-33.34c-0.8,0-1.45-0.71-1.45-1.58v-2.68c0-0.87,0.65-1.57,1.45-1.57h33.34
		c0.8,0,1.45,0.71,1.45,1.57v2.68C658.78,911.22,658.13,911.93,657.33,911.93z"/>
	<path class="st6" d="M497.41,872.57c0,0,1.28-4.52,3.04-4.52c1.76,0,10.23,0,11.88,0c1.66,0,7.58,1.67,7.58,7.1
		c0,0,3.76,3.61,4.4,4.48c0.64,0.88,1.2,1.78,1.2,4.78c0,3,0,14.58,0,16.74c0,2.16,0.53,10.69-12.6,10.69c-13.14,0-20.97,0-25.04,0
		c-4.07,0-7.21-4.03-7.21-7.84c0-3.81,0.7-7.68,5.1-14.74c4.4-7.06,7.59-12.3,7.59-12.3S495.31,873.63,497.41,872.57z"/>
	<path class="st6" d="M512.55,868.07c1.9,0.13,7.37,1.87,7.37,7.09c0,0,3.76,3.61,4.4,4.48c0.64,0.88,1.2,1.78,1.2,4.78
		c0,3,0,14.58,0,16.74c0,2.16,0.53,10.69-12.6,10.69h-3.29l1.37-8.53c0,0,5.57-18.3,6.12-25.74
		C517.65,870.18,512.6,868.09,512.55,868.07z"/>
	<path class="st5" d="M624.04,484.89l-6.25,103.76L518.69,877l-19.06-7.31c0,0,27.57-207.53,49.73-307.36
		c4.82-21.72,26.87-71.62,26.87-71.62L624.04,484.89z"/>
	<path class="st7" d="M526.92,391.66c0,0-56.79-99.22-44.18-103.13c12.61-3.92,31.58,2.42,79.52,84.02L526.92,391.66z"/>
	<path class="st7" d="M492.77,323.66c0,0-49.66-105.37-35.98-121.14c0,0-1.22-9.1,7.25,2.07c8.06,10.63,37.34,42.1,57.96,109.27
		L492.77,323.66z"/>
	<path class="st7" d="M454.15,214.04l11.56-7.33c0,0-5.94-31.43-14.98-37.28c-9.04-5.85-19.75,9.95-19.75,9.95
		S433.27,187.16,454.15,214.04z"/>
	<path class="st8" d="M368.56,576.5l-20.63,1.06l-6.56,15.63l28.15-4.9c3.8-0.31,9.59-8.21,7.29-10.52
		C375.16,576.12,368.56,576.5,368.56,576.5z"/>
	<path class="st9" d="M331.18,577.19l10.18,15.99l20.3-3.54l-21.59-34.27l-4.44,2.76C329.14,562.17,327.15,570.7,331.18,577.19z"/>
	<polygon class="st10" points="349.46,571.2 397.72,515.52 372.49,492.19 329.67,563.16 	"/>
	<path class="st11" d="M430.98,179.38l21.58-8.69c0,0-13.53-28.08-19.64-25.54S430.98,179.38,430.98,179.38z"/>
	<path class="st7" d="M465.71,206.71c0,0,2.47-33.63-2.95-38c-5.42-4.37-4.93,27.93-4.93,27.93L465.71,206.71z"/>
	<path class="st12" d="M552.94,422.96c0,0-9.57-3.26-12.78-6.05c-3.21-2.78-39.88-62.53-39.88-62.53l35-24.53l29.55,41.98
		C564.84,371.83,559.24,385.22,552.94,422.96z"/>
	<path class="st12" d="M611.21,365.47c-12.42,0-14.96-9.54-14.96-9.54l-38.81,10.85c-8.95,24.66-6.75,64.99-6.75,64.99
		c6.47,41.84,4.81,45.69-0.48,87.29c-0.54,4.23,0.54,9.1,0.54,9.1c12.67,22.04,110.92,19.45,123.12-1.78c0,0,1.08-4.87,0.54-9.1
		c-5.29-41.6-9.17-43.67-2.69-85.51c0,0-13.3-37.07-0.06-63.94l-45.5-11.9C626.16,355.93,623.62,365.47,611.21,365.47z"/>
	<path class="st13" d="M612.2,303.89L612.2,303.89c-8.45-0.27-15.65,8.36-15.99,19.18l-0.9,28.34
		c-0.34,10.82,6.29,19.89,14.74,20.16l0,0c8.45,0.27,15.65-8.36,15.99-19.18l0.9-28.34C627.28,313.23,620.65,304.16,612.2,303.89z"
		/>
	<path class="st14" d="M613.24,280.39L613.24,280.39c-8.45-0.27-15.65,8.36-15.99,19.18l-0.9,28.34
		c-0.34,10.82,6.29,19.89,14.74,20.16l0,0c8.45,0.27,15.65-8.36,15.99-19.18l0.9-28.34C628.32,289.73,621.69,280.66,613.24,280.39z"
		/>
	<g>
		<g>
			<path class="st14" d="M666.76,282.56c0.65,6.98-4.47,13.16-11.45,13.82c-0.2,0.02-0.39,0.03-0.59,0.04
				c0.98-4.61,1.37-9.21,1.08-13.54l-0.26-3.87C655,271.08,665.66,270.89,666.76,282.56z"/>
			<path class="st14" d="M561.59,289.67c0.29,7,6.2,12.44,13.21,12.15c0.2-0.01,0.39-0.02,0.59-0.04c-1.6-4.44-2.6-8.94-2.89-13.27
				l-0.26-3.87C571.7,276.71,561.11,277.96,561.59,289.67z"/>
		</g>
	</g>
	<path class="st13" d="M609.21,212.64L609.21,212.64c22.91-1.55,42.96,16.56,44.56,40.23l2.65,39.15
		c-3.55,24.29-22,44.42-38.74,45.86l0,0c-11.81,0.71-42.96-16.56-44.56-40.23l-2.64-39.15
		C568.87,234.83,586.31,214.19,609.21,212.64z"/>
	<path class="st14" d="M589.79,294.55c4.35,2.19,6.75,6.56,5.36,9.75c-1.39,3.19-6.05,4.01-10.4,1.81
		c-4.35-2.19-6.75-6.56-5.36-9.76C580.78,293.16,585.44,292.35,589.79,294.55z"/>
	<path class="st14" d="M647.46,290.04c2.68,1.07,3.2,5.29,1.16,9.43c-2.04,4.14-5.87,6.63-8.55,5.56c-2.68-1.07-3.2-5.29-1.16-9.43
		C640.95,291.46,644.78,288.98,647.46,290.04z"/>
	<path class="st11" d="M615.46,300.59c-0.52,0-1.01-0.04-1.41-0.13c-0.71-0.15-1.1-0.42-1.21-0.83c-0.07-0.25-0.22-0.84,1.62-7.5
		l0.96,0.27c-1.61,5.81-1.64,6.83-1.61,7c0.09,0.05,0.87,0.25,2.15,0.18c1.49-0.09,2.77-0.5,3.19-1.04l0.78,0.62
		C619.14,300.15,617.11,300.59,615.46,300.59z"/>
	<g>
		<path class="st15" d="M627.2,264.86c-0.89,0.48-1.22,1.58-0.74,2.46c0.47,0.88,1.58,1.22,2.46,0.74
			c0.02-0.01,5.32-2.97,10.77-0.04c0.89,0.48,2,0.15,2.47-0.74c0.48-0.89,0.15-2-0.74-2.47
			C634.22,260.94,627.22,264.85,627.2,264.86z"/>
		<path class="st15" d="M584.39,268.57c-0.84,0.55-1.08,1.68-0.54,2.52c0.55,0.84,1.68,1.08,2.52,0.54
			c0.01-0.01,5.05-3.39,10.73-0.91c0.92,0.4,2-0.02,2.4-0.94c0.4-0.92-0.02-2-0.94-2.41C591.07,264.09,584.41,268.56,584.39,268.57z
			"/>
	</g>
	<path class="st15" d="M566.29,279.87c0,0,5.6-0.25,5.94,4.77c0,0,3.59-5.44,2.34-11.86c0,0,9.84-13.18,8.41-27.06
		c-1.42-13.88-12.46-16.12-12.46-16.12C545.03,238.94,564.69,256.12,566.29,279.87z"/>
	<path class="st15" d="M660.78,273.48c0,0-5.59,0.51-5.25,5.53c0,0-4.29-4.91-3.92-11.44c0,0-11.52-11.74-11.97-25.68
		c-0.46-13.95,10.18-17.65,10.18-17.65C676.35,230.07,659.18,249.73,660.78,273.48z"/>
	<path class="st15" d="M578.99,248.24c0,0,1.72,4.23,4.83,3.62c3.11-0.6,6.48-2.61,4.98-7.24c0,0,12.09-10.67,21.09-8.72
		c9,1.95,28.81,16.8,48.96,14.45c20.14-2.35,18.64-17.36,3.9-39.92c-11.22-17.18-26.35-23.28-58.73-18.33
		c-32.39,4.95-34.97,23.54-33.49,37.49C572.02,243.55,578.99,248.24,578.99,248.24z"/>
	<g>
		<path class="st15" d="M635.21,288c-2.85,0.19-5.32-1.96-5.51-4.81c-0.19-2.85,1.96-5.32,4.81-5.51c2.85-0.19,5.31,1.96,5.51,4.81
			C640.22,285.34,638.06,287.81,635.21,288z"/>
		<path class="st15" d="M593.58,290.81c-2.85,0.19-5.31-1.96-5.51-4.81c-0.19-2.85,1.96-5.32,4.81-5.51
			c2.85-0.19,5.32,1.96,5.51,4.81C598.59,288.15,596.44,290.62,593.58,290.81z"/>
	</g>
	<path class="st16" d="M603.81,308.12c0.34,5.03,7.43,9.32,12.46,8.98c5.03-0.34,10.74-5.05,10.4-10.08
		c-0.06-0.92-0.87-1.63-1.79-1.56l-19.51,0.87C604.45,306.39,603.75,307.2,603.81,308.12z"/>
	<circle class="st15" cx="667.16" cy="224.33" r="9"/>
	<circle class="st17" cx="663.66" cy="246.83" r="9"/>
	<circle class="st15" cx="656.16" cy="209.33" r="14"/>
	<circle class="st15" cx="644.16" cy="203.33" r="14"/>
	<circle class="st15" cx="624.16" cy="193.33" r="14"/>
	<circle class="st15" cx="607.16" cy="199.33" r="14"/>
	<circle class="st15" cx="591.16" cy="202.33" r="14"/>
	<circle class="st17" cx="589.16" cy="201.33" r="14"/>
	<circle class="st15" cx="579.16" cy="216.33" r="14"/>
	<circle class="st15" cx="567.16" cy="230.33" r="14"/>
	<circle class="st17" cx="568.66" cy="244.33" r="14"/>
	<path class="st4" d="M560.92,364.33c0,0,12.66-19.46,35.33-8.39c0,0,4.13,21.98,14.33,24.06c10.21,2.08,15.33-25.67,15.33-25.67
		s21.67-8.33,29.67,10.33C663.58,383.33,602.11,411.45,560.92,364.33z"/>
	<path class="st9" d="M208.14,865.49c-3.16,25.16-0.84,20.17-29.51,31.51c-28.67,11.33-8.39,12.01-5.33,11.33
		c9.71-2.14,18.67-8.67,39.33-6c20.67,2.67,8.1-19.56,8.1-19.56l-0.77-23.11L208.14,865.49z"/>
	<path class="st2" d="M270.42,945.1c-24.19,0-46.71-1.51-65.66-4.11c-14.82,2.57-33.7,4.11-54.28,4.11
		c-47.62,0-86.23-8.25-86.23-18.44s38.61-18.44,86.23-18.44c3.03,0,6.02,0.03,8.97,0.1c19.13-9.03,61.6-15.31,110.97-15.31
		c67.27,0,121.8,11.66,121.8,26.04S337.69,945.1,270.42,945.1z"/>
	<path class="st18" d="M178.63,897c-28.67,11.33-8.39,12.01-5.33,11.33c9.71-2.14,18.67-8.67,39.33-6
		c20.67,2.67,8.1-19.56,8.1-19.56s-16.19,10.06-24.69,7.56L178.63,897z"/>
	<path class="st9" d="M319.87,865.49c3.16,25.16,0.84,20.17,29.51,31.51c28.67,11.33,8.39,12.01,5.33,11.33
		c-9.71-2.14-18.67-8.67-39.33-6c-20.67,2.67-8.1-19.56-8.1-19.56l0.77-23.11L319.87,865.49z"/>
	<path class="st18" d="M349.38,897c28.67,11.33,8.39,12.01,5.33,11.33c-9.71-2.14-18.67-8.67-39.33-6
		c-20.67,2.67-8.1-19.56-8.1-19.56s16.19,10.06,24.69,7.56L349.38,897z"/>
	<path class="st19" d="M305.29,560.75l-19.2,76.58l18,237l24,1c0,0,34.44-168.82,27.78-258.19c-1.48-19.82-20.31-60.08-20.31-60.08
		L305.29,560.75z"/>
	<path class="st5" d="M305.29,560.75v76.04l-83.64,235.26h-17c0,0,17.73-172.96,35.66-253.72c3.9-17.57,26.31-52.87,26.31-52.87
		L305.29,560.75z"/>
	<path class="st13" d="M289.89,430.72l-5.34-39.28c-1.53-11.29-9.83-19.56-18.43-18.39l0,0c-8.6,1.17-14.39,11.36-12.85,22.65
		l7.37,40.31C260.63,436,294.48,450.45,289.89,430.72z"/>
	<path class="st14" d="M266.11,373.04L266.11,373.04c8.6-1.17,16.9,7.11,18.43,18.39l4.42,32.49c-3.22,2.51-6.9,4.17-11.01,4.73
		c-7.35,1-13.39-0.59-19.99-6.99l-4.71-25.97C251.73,384.4,257.51,374.21,266.11,373.04z"/>
	<g>
		<g>
			<path class="st14" d="M302.8,342c0.33-0.05,0.65-0.09,0.97-0.12l0.01,0l0,0c5.99-0.5,11.74,3.16,13.65,9.13
				c2.21,6.93-1.61,14.35-8.55,16.57c-6.94,2.21-14.36-1.61-16.57-8.55c-1.29-4.03-0.54-8.22,1.68-11.46
				c0.79,3.83,2.76,8.26,7.66,7.31l-2.31-7.24C298.41,344.7,300.76,342.52,302.8,342z"/>
			<path class="st14" d="M216.42,367.79c-0.3,0.14-0.6,0.28-0.88,0.43l-0.01,0.01l0,0c-5.28,2.86-8.08,9.08-6.41,15.12
				c1.95,7.01,9.22,11.12,16.23,9.17c7.01-1.95,11.12-9.22,9.17-16.23c-1.13-4.08-4.06-7.17-7.7-8.66c1.44,3.63,2.22,8.43-2.4,10.31
				l-2.04-7.32C221.57,367.64,218.42,367.11,216.42,367.79z"/>
		</g>
	</g>
	<path class="st13" d="M278.95,418.34c-15.74,5.74-41.79-17.35-59.07-38.74l-9.33-30.45c-7.27-23.73,6.2-49.1,29.94-56.37l0,0
		c23.73-7.27,49.1,6.2,56.37,29.94l9.13,29.8C303.26,378.4,296.8,411.83,278.95,418.34z"/>
	<path class="st14" d="M293.76,365.89c-3.27-0.5-6.7,2.35-7.66,6.36c-0.96,4.01,0.91,7.67,4.18,8.17c3.27,0.5,6.7-2.35,7.66-6.36
		C298.9,370.04,297.03,366.39,293.76,365.89z"/>
	<path class="st14" d="M244.17,381.63c-4.51-0.6-8.4,2.07-8.69,5.96c-0.29,3.89,3.13,7.53,7.64,8.13c4.51,0.6,8.4-2.07,8.69-5.96
		C252.11,385.87,248.68,382.23,244.17,381.63z"/>
	<g>
		<path class="st15" d="M243.55,348.55c1.03,0.13,1.76,1.08,1.63,2.12c-0.13,1.03-1.08,1.77-2.12,1.63c-0.02,0-6.26-0.91-10.46,3.95
			c-0.69,0.79-1.89,0.88-2.68,0.2c-0.79-0.69-0.88-1.88-0.2-2.68C235.27,347.35,243.52,348.55,243.55,348.55z"/>
		<path class="st15" d="M286.47,336.29c1.02,0.22,1.67,1.22,1.45,2.24c-0.22,1.02-1.22,1.67-2.24,1.46c-0.02,0-6.16-1.42-10.75,3.09
			c-0.75,0.74-1.95,0.73-2.69-0.02c-0.73-0.75-0.72-1.95,0.02-2.69C278.32,334.42,286.44,336.28,286.47,336.29z"/>
	</g>
	<path class="st11" d="M265.06,379.63c-0.66,0-1.25-0.11-1.69-0.37c-1.47-0.88-1.36-5.04-1.17-7.44l1,0.08
		c-0.31,3.82,0.11,6.16,0.68,6.5c0.63,0.38,2.07,0.29,3.58-0.2c1.23-0.4,1.88-0.88,1.95-1.05l0.99-0.04
		c0.05,0.43-0.23,0.83-0.85,1.23C268.51,379.01,266.61,379.63,265.06,379.63z"/>
	<path class="st15" d="M207.09,362.92l4.3,8.84c0,0,5.78-1.01,7.31,3.99c0,0,2.34-6.36-0.44-12.55c0,0,6.83-15.66,2.11-29.36
		c-4.72-13.7-10.78-22.2-10.78-22.2S194.9,334.06,207.09,362.92z"/>
	<path class="st15" d="M307.45,332.19l1.39,9.73c0,0-5.36,2.4-3.83,7.4c0,0-5.5-3.95-6.67-10.64c0,0-14.43-9.15-18.19-23.15
		c-3.76-14-0.37-21.91-0.37-21.91S301.39,301.45,307.45,332.19z"/>
	<path class="st16" d="M281.37,384.21c1.53,5.01-3.75,11.9-8.76,13.43c-5.01,1.53-13.93-1.73-15.47-6.74
		c-0.28-0.92,3.86-1.45,4.78-1.73l14.8-4.53C277.64,384.36,281.08,383.29,281.37,384.21z"/>
	<path class="st15" d="M208.81,317.54c0,0,9.87-81.38,80.52-29.09c14.83,10.98,30.38,22.44,30.15,29.92
		C318.59,346.52,221.95,351.59,208.81,317.54z"/>
	<path class="st20" d="M209.59,311.63c0,0,45.06,35.71,101.44-5.1l-13.62-12.27c0,0-27.05,36.82-87.9,16.84L209.59,311.63z"/>
	<path class="st9" d="M219.74,882.77"/>
	<path class="st21" d="M214.3,375.83"/>
	<path class="st22" d="M212.49,371.97c-0.14-0.11-14.5-11.44-16.02-28.57c-0.96-10.85,3.33-21.65,12.75-32.11l0.37-0.41l0.37,0.41
		c0.32,0.35,32.4,34.82,66.8,32.86c16.16-0.92,30.39-9.7,42.31-26.08l0.81,0.59c-12.1,16.64-26.58,25.55-43.06,26.49
		c-32.8,1.9-63.48-28.89-67.21-32.78c-8.98,10.11-13.06,20.52-12.14,30.94c1.48,16.69,15.5,27.77,15.64,27.88L212.49,371.97z"/>
	<path class="st15" d="M278.87,361.14c2.95-0.35,5.05-3.02,4.71-5.96c-0.05-0.4-0.14-0.79-0.27-1.16l0.59-0.29
		c0.61-0.31,1.21-0.76,1.74-1.4c0.24-0.29,0.19-0.71-0.09-0.95c-0.29-0.24-0.71-0.2-0.95,0.09c-0.52,0.63-1.13,1.01-1.72,1.25
		l-0.01-0.01c0.57-0.43,1.12-1.05,1.45-1.93c0.13-0.35-0.04-0.74-0.39-0.87c-0.35-0.13-0.74,0.04-0.87,0.39
		c-0.28,0.72-0.76,1.2-1.23,1.5l-0.06-0.05c0.36-0.37,0.69-0.89,0.8-1.58c0.06-0.37-0.19-0.71-0.56-0.77
		c-0.37-0.06-0.71,0.19-0.77,0.56c-0.08,0.5-0.36,0.83-0.61,1.03c-0.9-0.45-1.95-0.66-3.03-0.53c-2.95,0.35-5.05,3.02-4.71,5.97
		C273.25,359.39,275.92,361.49,278.87,361.14z"/>
	<path class="st15" d="M244.45,371.14c-2.95-0.35-5.05-3.02-4.71-5.96c0.05-0.4,0.14-0.79,0.27-1.16l-0.59-0.29
		c-0.61-0.31-1.21-0.76-1.74-1.4c-0.24-0.29-0.19-0.71,0.09-0.95c0.29-0.24,0.71-0.2,0.95,0.09c0.52,0.63,1.13,1.01,1.72,1.25
		l0.01-0.01c-0.57-0.43-1.12-1.05-1.45-1.93c-0.13-0.35,0.04-0.74,0.39-0.87c0.35-0.13,0.74,0.04,0.87,0.39
		c0.28,0.72,0.76,1.2,1.23,1.5l0.06-0.05c-0.36-0.37-0.69-0.89-0.8-1.58c-0.06-0.37,0.19-0.71,0.56-0.77
		c0.37-0.06,0.71,0.19,0.77,0.56c0.08,0.5,0.36,0.83,0.61,1.03c0.9-0.45,1.95-0.66,3.03-0.53c2.95,0.35,5.05,3.02,4.71,5.97
		C250.07,369.39,247.39,371.49,244.45,371.14z"/>
	<path class="st23" d="M232.62,498.72l-0.63-0.77c0.2-0.17,20.1-17.17-5.3-53.33l0.82-0.57C253.46,481,232.83,498.54,232.62,498.72z
		"/>
	<circle class="st15" cx="210.52" cy="273.83" r="33.5"/>
	<path class="st22" d="M206.52,307.83c-18.75,0-34-15.25-34-34s15.25-34,34-34s34,15.25,34,34S225.27,307.83,206.52,307.83z
		 M206.52,240.83c-18.2,0-33,14.8-33,33s14.8,33,33,33s33-14.8,33-33S224.72,240.83,206.52,240.83z"/>
	<path class="st10" d="M266.61,565.46l-50.31-103.8c-5.5-8.6,8.78-18.34,17.57-19.53l61.46-13.93c8.78-1.19,16.65,5.52,20.19,14.38
		c0,0,18.49,33.62,17.07,45.74c-0.38,3.2-6,13.33-6,13.33l8.98,55.4L266.61,565.46z"/>
	<path class="st23" d="M325.68,502.66l-0.75-0.66c20.46-23.39-16.61-62.93-16.99-63.33l0.72-0.69
		C309.05,438.39,346.73,478.59,325.68,502.66z"/>
	<path class="st7" d="M659.95,427.38c0,0,43.6,89.84,53.14,82.75c9.54-7.09,12.42-22.93-21.47-101.12L659.95,427.38z"/>
	<path class="st7" d="M715.33,507.47c0,0,73.93-72.49,65.93-89.51c0,0,3.29-7.59-6.79,0.02c-9.59,7.24-41.17,15.03-82.34,62.98
		L715.33,507.47z"/>
	<path class="st13" d="M767.27,426.99c0,0-6.48-3.6-6.92-10.96c-0.44-7.36-0.51-12.43-0.51-12.43s-1-10.58-1.23-11.61
		c-0.23-1.04,0.77-3.13,2.09-3.73c1.32-0.59,5.26-3.34,5.79-3.6c0.53-0.27,3.62,2.04-0.38,7.94l1,5.52c0,0,0.71,0.52,0.82,1.12
		c0,0,4.85,0.05,6.92,0.95c0,0,0.39-0.77,1.07-0.99l2.34-4.99l-1.88-5.91c0,0-0.6-0.25-0.72-0.66c0,0-4.3,1.41-6.06,0.34
		c-1.76-1.08-1.66-2.31-1.31-2.92c0.35-0.61,3.56-2.97,3.73-3.13c0.18-0.17,0.88-0.71,2.16-0.72c1.27-0.01,6.46,1.05,6.46,1.05
		s1.7,0.22,2.21,1.87c0.5,1.66,2.39,8.41,2.39,8.41l1.51,0.07c0,0,15.42-19.1,17.39-20.77c1.97-1.67,4.05-1.41,4.87-0.88
		c0.82,0.53,1.22,1.25,0.16,2.71s-15.84,23.42-15.84,23.42s6.23-2.76,6.58-3.02c0.35-0.25,10.91-9.59,12.35-10.4
		c1.44-0.82,3.35-1.05,4.53,0.06c1.17,1.11-0.16,2.05-1.86,3.92c-1.71,1.87-9.92,10.57-10.72,11.38c-0.79,0.81-1.66,1.65-2.6,2.3
		c-0.94,0.65-2.8,2.04-2.8,2.04s14.78-3.35,15.74-3.42c0.95-0.08,2.68,1.47,2.96,2.17c0.28,0.7-1.19,1.25-3.01,1.98
		c-1.82,0.73-17.78,7.15-18.95,7.79c-1.16,0.64-15.24,15.48-17.17,19.28C778.39,431.16,771.56,430.13,767.27,426.99z"/>
	<g>
		<g>
			<path class="st11" d="M763.02,394.64c-0.22,0-0.44-0.02-0.67-0.07l0.2-0.98c1.69,0.33,3.17-1.3,3.18-1.32l0.75,0.67
				C766.41,393.02,764.94,394.64,763.02,394.64z"/>
			<path class="st11" d="M775.94,388.06l-0.57-0.82c0.27-0.18,1-0.79,1.21-1.4l0.95,0.31C777.18,387.18,776.06,387.97,775.94,388.06
				z"/>
			<path class="st11" d="M776.49,388.81c-0.1,0-0.16-0.01-0.19-0.01l0.12-0.99c0,0,1.17,0.1,3.21-1.36l0.58,0.81
				C778.26,388.65,776.97,388.81,776.49,388.81z"/>
			<path class="st11" d="M778.4,394.69l-0.29-0.96c0.15-0.04,3.58-1.06,4.75-1.11l0.04,1C782.03,393.66,779.36,394.41,778.4,394.69z
				"/>
			<path class="st11" d="M765.46,399.88l-0.34-0.94c0.69-0.25,1.4-0.91,1.62-1.15l0.74,0.67
				C767.44,398.5,766.52,399.5,765.46,399.88z"/>
			<path class="st11" d="M762.28,402.15l-0.03-1c3.26-0.08,5.28-2.23,5.3-2.25l0.73,0.68C768.2,399.68,765.96,402.05,762.28,402.15z
				"/>
			<path class="st11" d="M770.43,415.76l-0.61-0.79c5.6-4.36,7.53-9.94,7.04-11.83c-0.45-1.72-2.19-2.48-2.2-2.49l0.39-0.92
				c0.09,0.04,2.21,0.96,2.78,3.15C778.36,404.95,776.75,410.85,770.43,415.76z"/>
			<path class="st11" d="M788.84,412.01c-2.54-2.37-3.87-6.11-5.04-9.41c-1.1-3.09-2.05-5.76-3.53-5.76c-0.01,0-0.02,0-0.03,0
				l-0.03-1c2.24-0.04,3.3,2.95,4.53,6.42c1.13,3.19,2.42,6.81,4.78,9.02L788.84,412.01z"/>
			<path class="st11" d="M789.27,394.43c-1.43-1.07-2.61-1.32-2.62-1.33l0.2-0.98c0.06,0.01,1.4,0.29,3.02,1.5L789.27,394.43z"/>
			<path class="st11" d="M793.11,397.44c0,0-1.02-0.8-1.53-1.2l0.61-0.79c0.52,0.4,1.54,1.21,1.54,1.21L793.11,397.44z"/>
			
				<rect x="794.66" y="403.35" transform="matrix(0.9736 -0.2283 0.2283 0.9736 -71.1516 192.5466)" class="st11" width="4.21" height="1"/>
			
				<rect x="794.07" y="401.2" transform="matrix(0.9909 -0.1347 0.1347 0.9909 -47.1829 110.7056)" class="st11" width="1" height="5.71"/>
		</g>
	</g>
	<path class="st10" d="M266.61,565.46l-50.31-103.8c-5.5-8.6,8.78-18.34,17.57-19.53l61.46-13.93c8.78-1.19,16.65,5.52,20.19,14.38
		c0,0,17.21,30.73,16.4,42.91c-0.5,7.5-5.33,16.17-5.33,16.17l8.98,55.4L266.61,565.46z"/>
	<path class="st9" d="M208.14,865.49c-3.16,25.16-0.84,20.17-29.51,31.51c-28.67,11.33-8.39,12.01-5.33,11.33
		c9.71-2.14,18.67-8.67,39.33-6c20.67,2.67,8.1-19.56,8.1-19.56l-0.77-23.11L208.14,865.49z"/>
	<path class="st2" d="M270.42,945.1c-24.19,0-46.71-1.51-65.66-4.11c-14.82,2.57-33.7,4.11-54.28,4.11
		c-47.62,0-86.23-8.25-86.23-18.44s38.61-18.44,86.23-18.44c3.03,0,6.02,0.03,8.97,0.1c19.13-9.03,61.6-15.31,110.97-15.31
		c67.27,0,121.8,11.66,121.8,26.04S337.69,945.1,270.42,945.1z"/>
	<path class="st18" d="M178.63,897c-28.67,11.33-8.39,12.01-5.33,11.33c9.71-2.14,18.67-8.67,39.33-6
		c20.67,2.67,8.1-19.56,8.1-19.56s-16.19,10.06-24.69,7.56L178.63,897z"/>
	<path class="st9" d="M319.87,865.49c3.16,25.16,0.84,20.17,29.51,31.51c28.67,11.33,8.39,12.01,5.33,11.33
		c-9.71-2.14-18.67-8.67-39.33-6c-20.67,2.67-8.1-19.56-8.1-19.56l0.77-23.11L319.87,865.49z"/>
	<path class="st18" d="M349.38,897c28.67,11.33,8.39,12.01,5.33,11.33c-9.71-2.14-18.67-8.67-39.33-6
		c-20.67,2.67-8.1-19.56-8.1-19.56s16.19,10.06,24.69,7.56L349.38,897z"/>
	<path class="st19" d="M305.29,560.75l-19.2,76.58l18,237l24,1c0,0,34.44-168.82,27.78-258.19c-1.48-19.82-20.31-60.08-20.31-60.08
		L305.29,560.75z"/>
	<path class="st5" d="M305.29,560.75v76.04l-83.64,235.26h-17c0,0,17.73-172.96,35.66-253.72c3.9-17.57,26.31-52.87,26.31-52.87
		L305.29,560.75z"/>
	<path class="st24" d="M289.89,430.72l-5.34-39.28c-1.53-11.29-9.83-19.56-18.43-18.39l0,0c-8.6,1.17-14.39,11.36-12.85,22.65
		l7.37,40.31C260.63,436,294.48,450.45,289.89,430.72z"/>
	<path class="st25" d="M266.11,373.04L266.11,373.04c8.6-1.17,16.9,7.11,18.43,18.39l4.42,32.49c-3.22,2.51-6.9,4.17-11.01,4.73
		c-7.35,1-13.39-0.59-19.99-6.99l-4.71-25.97C251.73,384.4,257.51,374.21,266.11,373.04z"/>
	<g>
		<path class="st25" d="M302.8,342c0.33-0.05,0.65-0.09,0.97-0.12l0.01,0l0,0c5.99-0.5,11.74,3.16,13.65,9.13
			c2.21,6.93-1.61,14.35-8.55,16.57c-6.94,2.21-14.36-1.61-16.57-8.55c-1.29-4.03-0.54-8.22,1.68-11.46
			c0.79,3.83,2.76,8.26,7.66,7.31l-2.31-7.24C298.41,344.7,300.76,342.52,302.8,342z"/>
		<path class="st25" d="M216.42,367.79c-0.3,0.14-0.6,0.28-0.88,0.43l-0.01,0.01l0,0c-5.28,2.86-8.08,9.08-6.41,15.12
			c1.95,7.01,9.22,11.12,16.23,9.17c7.01-1.95,11.12-9.22,9.17-16.23c-1.13-4.08-4.06-7.17-7.7-8.66c1.44,3.63,2.22,8.43-2.4,10.31
			l-2.04-7.32C221.57,367.64,218.42,367.11,216.42,367.79z"/>
	</g>
	<path class="st24" d="M278.95,418.34c-15.74,5.74-41.79-17.35-59.07-38.74l-9.33-30.45c-7.27-23.73,6.2-49.1,29.94-56.37l0,0
		c23.73-7.27,49.1,6.2,56.37,29.94l9.13,29.8C303.26,378.4,296.8,411.83,278.95,418.34z"/>
	<path class="st25" d="M293.76,365.89c-3.27-0.5-6.7,2.35-7.66,6.36c-0.96,4.01,0.91,7.67,4.18,8.17c3.27,0.5,6.7-2.35,7.66-6.36
		C298.9,370.04,297.03,366.39,293.76,365.89z"/>
	<path class="st25" d="M244.17,381.63c-4.51-0.6-8.4,2.07-8.69,5.96c-0.29,3.89,3.13,7.53,7.64,8.13c4.51,0.6,8.4-2.07,8.69-5.96
		C252.11,385.87,248.68,382.23,244.17,381.63z"/>
	<g>
		<path class="st15" d="M243.55,348.55c1.03,0.13,1.76,1.08,1.63,2.12c-0.13,1.03-1.08,1.77-2.12,1.63c-0.02,0-6.26-0.91-10.46,3.95
			c-0.69,0.79-1.89,0.88-2.68,0.2c-0.79-0.69-0.88-1.88-0.2-2.68C235.27,347.35,243.52,348.55,243.55,348.55z"/>
		<path class="st15" d="M286.47,336.29c1.02,0.22,1.67,1.22,1.45,2.24c-0.22,1.02-1.22,1.67-2.24,1.46c-0.02,0-6.16-1.42-10.75,3.09
			c-0.75,0.74-1.95,0.73-2.69-0.02c-0.73-0.75-0.72-1.95,0.02-2.69C278.32,334.42,286.44,336.28,286.47,336.29z"/>
	</g>
	<path class="st11" d="M265.06,379.63c-0.66,0-1.25-0.11-1.69-0.37c-1.47-0.88-1.36-5.04-1.17-7.44l1,0.08
		c-0.31,3.82,0.11,6.16,0.68,6.5c0.63,0.38,2.07,0.29,3.58-0.2c1.23-0.4,1.88-0.88,1.95-1.05l0.99-0.04
		c0.05,0.43-0.23,0.83-0.85,1.23C268.51,379.01,266.61,379.63,265.06,379.63z"/>
	<path class="st15" d="M207.09,362.92l4.3,8.84c0,0,5.78-1.01,7.31,3.99c0,0,2.34-6.36-0.44-12.55c0,0,6.83-15.66,2.11-29.36
		c-4.72-13.7-10.78-22.2-10.78-22.2S194.9,334.06,207.09,362.92z"/>
	<path class="st15" d="M307.45,332.19l1.39,9.73c0,0-5.36,2.4-3.83,7.4c0,0-5.5-3.95-6.67-10.64c0,0-14.43-9.15-18.19-23.15
		c-3.76-14-0.37-21.91-0.37-21.91S301.39,301.45,307.45,332.19z"/>
	<path class="st16" d="M281.37,384.21c1.53,5.01-3.75,11.9-8.76,13.43c-5.01,1.53-13.93-1.73-15.47-6.74
		c-0.28-0.92,3.86-1.45,4.78-1.73l14.8-4.53C277.64,384.36,281.08,383.29,281.37,384.21z"/>
	<path class="st15" d="M208.81,317.54c0,0,9.87-81.38,80.52-29.09c14.83,10.98,30.38,22.44,30.15,29.92
		C318.59,346.52,221.95,351.59,208.81,317.54z"/>
	<path class="st20" d="M209.59,311.63c0,0,45.06,35.71,101.44-5.1l-13.62-12.27c0,0-27.05,36.82-87.9,16.84L209.59,311.63z"/>
	<path class="st9" d="M219.74,882.77"/>
	<path class="st21" d="M214.3,375.83"/>
	<path class="st22" d="M212.49,371.97c-0.14-0.11-14.5-11.44-16.02-28.57c-0.96-10.85,3.33-21.65,12.75-32.11l0.37-0.41l0.37,0.41
		c0.32,0.35,32.4,34.82,66.8,32.86c16.16-0.92,30.39-9.7,42.31-26.08l0.81,0.59c-12.1,16.64-26.58,25.55-43.06,26.49
		c-32.8,1.9-63.48-28.89-67.21-32.78c-8.98,10.11-13.06,20.52-12.14,30.94c1.48,16.69,15.5,27.77,15.64,27.88L212.49,371.97z"/>
	<path class="st15" d="M278.87,361.14c2.95-0.35,5.05-3.02,4.71-5.96c-0.05-0.4-0.14-0.79-0.27-1.16l0.59-0.29
		c0.61-0.31,1.21-0.76,1.74-1.4c0.24-0.29,0.19-0.71-0.09-0.95c-0.29-0.24-0.71-0.2-0.95,0.09c-0.52,0.63-1.13,1.01-1.72,1.25
		l-0.01-0.01c0.57-0.43,1.12-1.05,1.45-1.93c0.13-0.35-0.04-0.74-0.39-0.87c-0.35-0.13-0.74,0.04-0.87,0.39
		c-0.28,0.72-0.76,1.2-1.23,1.5l-0.06-0.05c0.36-0.37,0.69-0.89,0.8-1.58c0.06-0.37-0.19-0.71-0.56-0.77
		c-0.37-0.06-0.71,0.19-0.77,0.56c-0.08,0.5-0.36,0.83-0.61,1.03c-0.9-0.45-1.95-0.66-3.03-0.53c-2.95,0.35-5.05,3.02-4.71,5.97
		C273.25,359.39,275.92,361.49,278.87,361.14z"/>
	<path class="st15" d="M244.45,371.14c-2.95-0.35-5.05-3.02-4.71-5.96c0.05-0.4,0.14-0.79,0.27-1.16l-0.59-0.29
		c-0.61-0.31-1.21-0.76-1.74-1.4c-0.24-0.29-0.19-0.71,0.09-0.95c0.29-0.24,0.71-0.2,0.95,0.09c0.52,0.63,1.13,1.01,1.72,1.25
		l0.01-0.01c-0.57-0.43-1.12-1.05-1.45-1.93c-0.13-0.35,0.04-0.74,0.39-0.87c0.35-0.13,0.74,0.04,0.87,0.39
		c0.28,0.72,0.76,1.2,1.23,1.5l0.06-0.05c-0.36-0.37-0.69-0.89-0.8-1.58c-0.06-0.37,0.19-0.71,0.56-0.77
		c0.37-0.06,0.71,0.19,0.77,0.56c0.08,0.5,0.36,0.83,0.61,1.03c0.9-0.45,1.95-0.66,3.03-0.53c2.95,0.35,5.05,3.02,4.71,5.97
		C250.07,369.39,247.39,371.49,244.45,371.14z"/>
	<circle class="st15" cx="210.52" cy="273.83" r="33.5"/>
	<path class="st22" d="M206.52,307.83c-18.75,0-34-15.25-34-34s15.25-34,34-34s34,15.25,34,34S225.27,307.83,206.52,307.83z
		 M206.52,240.83c-18.2,0-33,14.8-33,33s14.8,33,33,33s33-14.8,33-33S224.72,240.83,206.52,240.83z"/>
	<path class="st23" d="M325.68,502.66l-0.75-0.66c20.46-23.39-16.61-62.93-16.99-63.33l0.72-0.69
		C309.05,438.39,346.73,478.59,325.68,502.66z"/>
	<path class="st4" d="M560.92,364.33c0,0,12.66-19.46,35.33-8.39c0,0,4.13,21.98,14.33,24.06c10.21,2.08,15.33-25.67,15.33-25.67
		s21.67-8.33,29.67,10.33C663.58,383.33,602.11,411.45,560.92,364.33z"/>
	<path class="st12" d="M671.99,367.47c0,0,8.55,5.4,11.02,8.86c2.48,3.46,24.56,64.79,24.56,64.79l-39.57,28.54l-17.53-40.89
		C650.48,428.77,649.35,389.21,671.99,367.47z"/>
	<path class="st26" d="M655.79,485.97l-0.65-0.76c9.75-8.45,12.73-22.69,12.75-22.83l0.98,0.2
		C668.84,462.73,665.79,477.3,655.79,485.97z M560.82,483.98c-5.21-4.08-6.51-17.09-6.56-17.64l1-0.09
		c0.01,0.13,1.3,13.13,6.18,16.95L560.82,483.98z M671.25,431.94c-0.12-0.33-11.84-32.79,2.33-55.38l0.85,0.53
		c-13.92,22.18-2.36,54.18-2.24,54.5L671.25,431.94z M686.87,426.85l-0.89-35.68l1-0.03l0.89,35.68L686.87,426.85z M551.68,423.47
		c-0.04-0.34-3.41-34.29,8.14-57.23l0.89,0.45c-11.42,22.68-8.07,56.34-8.04,56.68L551.68,423.47z M538.52,407.7l-0.99-0.12
		l4.6-37.97l0.99,0.12L538.52,407.7z"/>
	<path class="st10" d="M195.18,542.51l-27.73-17.8l50.47-72.38c5.79-9.13,16.38-6.08,24.6,0.94l0,0c8.22,7.02,8.92,28.16,0.81,35.3
		L195.18,542.51z"/>
	<path class="st8" d="M218.96,595.5l20.08-4.86l10.74,13.11l-28.38,3.31c-3.73,0.79-11.53-5.14-9.98-8.01
		C212.52,597.01,218.96,595.5,218.96,595.5z"/>
	<path class="st9" d="M254.99,585.52l-5.21,18.23l-20.47,2.39l10.95-39l5.04,1.38C252.67,570.54,257.01,578.15,254.99,585.52z"/>
	<polygon class="st10" points="235.76,584.98 173.65,545.33 191.21,515.79 252.45,571.64 	"/>
	<path class="st10" d="M191.5,537.43c-2.75,7.11-10.74,10.65-17.86,7.9c-7.11-2.75-10.65-10.74-7.9-17.86
		c2.75-7.11,10.74-10.65,17.85-7.9C190.72,522.33,194.25,530.32,191.5,537.43z"/>
	<path class="st10" d="M374.28,518.94l21.52-24.96l-68.98-55.03c-8.15-7.1-17.43-1.17-23.31,7.9l0,0
		c-5.88,9.07-0.54,29.54,9.27,34.07L374.28,518.94z"/>
	<path class="st10" d="M376.36,513.03c4.66,6.03,13.33,7.15,19.36,2.49c6.03-4.66,7.15-13.33,2.49-19.36
		c-4.66-6.03-13.33-7.15-19.36-2.49C372.82,498.32,371.7,506.99,376.36,513.03z"/>
	<path class="st4" d="M227.92,444.83c0,0,10.08-17.23,31.5-11c0,0,10.72,16.77,19.93,17.05c9.21,0.28,9.57-25.05,9.57-25.05
		s17.56-10.16,27.35,4.91C326.05,445.81,270.92,479.7,227.92,444.83z"/>
</g>
</svg>
