<?xml version="1.0" encoding="utf-8"?>
<!-- Generator: Adobe Illustrator 24.2.1, SVG Export Plug-In . SVG Version: 6.00 Build 0)  -->
<svg version="1.1" id="Слой_1" xmlns="http://www.w3.org/2000/svg" xmlns:xlink="http://www.w3.org/1999/xlink" x="0px" y="0px"
	 viewBox="0 0 864.61 999.02" style="enable-background:new 0 0 864.61 999.02;" xml:space="preserve">
<style type="text/css">
	.st0{fill:#FFFFFF;}
	.st1{fill:#2F3C5A;}
	.st2{fill:#C2E1CE;}
	.st3{fill:#E3AB84;}
	.st4{fill:#484A73;}
	.st5{fill-rule:evenodd;clip-rule:evenodd;fill:#1F3441;}
	.st6{fill-rule:evenodd;clip-rule:evenodd;fill:#FFFFFF;}
	.st7{fill:#EFF7F3;}
	.st8{fill-rule:evenodd;clip-rule:evenodd;fill:#E3AB84;}
	.st9{fill-rule:evenodd;clip-rule:evenodd;fill:#D7816C;}
	.st10{fill:#D7816C;}
	.st11{fill-rule:evenodd;clip-rule:evenodd;fill:#1C2036;}
	.st12{fill-rule:evenodd;clip-rule:evenodd;fill:#F3E9D6;}
	.st13{opacity:0.5;fill-rule:evenodd;clip-rule:evenodd;fill:#FFFFFF;}
	.st14{fill:#1C2036;}
	.st15{fill:#B25348;}
	.st16{fill:#70BE8D;}
	.st17{fill:#D86C51;}
	.st18{fill-rule:evenodd;clip-rule:evenodd;fill:none;stroke:#1C2036;stroke-miterlimit:10;}
	.st19{fill:#46AB70;}
	.st20{fill-rule:evenodd;clip-rule:evenodd;fill:#E0CDAA;}
	.st21{fill-rule:evenodd;clip-rule:evenodd;fill:#D86C51;}
	.st22{opacity:0.2;fill:#FFFFFF;}
	.st23{opacity:0.3;fill:#FFFFFF;}
	.st24{opacity:0.5;}
</style>
<g>
	<g>
		<path class="st0" d="M864.61,243.48c-28.5,10.92-64.42,26.1-102.44,45.79c-80.68,41.8-187.68,112.93-239.14,214.57
			c-13.67,27.02-22.84,54.93-27.48,83.65c-1.83,0.11-3.67,0.22-5.53,0.3c4.67-29.69,14.08-58.52,28.21-86.4
			c52.1-102.93,160.13-174.8,241.56-216.94c38.89-20.14,75.61-35.6,104.52-46.62C864.45,239.71,864.56,241.6,864.61,243.48z"/>
		<path class="st0" d="M857.6,320.28c-0.4,1.94-0.86,3.91-1.35,5.88c-22.95,5.8-57.41,17.85-90.96,42.36
			c-41.85,30.55-89.02,85.97-103.09,184.1c-1.91,0.76-3.86,1.54-5.8,2.29c13.81-101.99,62.64-159.4,105.9-190.89
			C797.74,338.19,834.19,325.92,857.6,320.28z"/>
		<path class="st0" d="M419.97,588.06c-1.83-0.05-3.67-0.13-5.5-0.22c-0.65-15.02-3.4-36.57-12.22-60.67
			c-15.42-42.07-53.02-100.83-144.62-141.87c-91.71-41.12-147.99-97.86-162.77-164.14c-9.28-41.53-1.62-84.38,22.09-125.93
			c1.73,0.57,3.45,1.19,5.2,1.83C98.69,137.72,91.09,179.55,100.12,220c14.4,64.53,69.63,120,159.72,160.37
			c93.46,41.91,131.84,102.09,147.56,145.24C416.54,550.66,419.37,572.74,419.97,588.06z"/>
		<path class="st0" d="M76.58,499.61c-1.65-1.19-3.26-2.37-4.88-3.64c6.2-41.91,3.07-106.81-43.6-184.21
			C-10.87,247.1-9.28,173.08,32.73,97.62c3.56-6.36,7.25-12.51,11.06-18.39c2.02,0.11,4.07,0.24,6.15,0.43
			c-4.31,6.58-8.55,13.48-12.57,20.71C-4.16,175.04-5.72,245.21,32.7,308.96C81.24,389.45,83.48,456.84,76.58,499.61z"/>
		<path class="st0" d="M343.33,581.96c-1.97-0.24-3.94-0.49-5.91-0.73c-12.67-37.27-38.78-89.1-89.47-112.53
			c-15.64-7.23-29.93-7.25-42.47-0.03c-22,12.7-35.78,45.36-44.17,75.67c-1.78-0.59-3.53-1.21-5.26-1.89
			c8.68-31.12,23.16-64.85,46.73-78.44c14.13-8.14,30.09-8.22,47.43-0.19C303.74,488.55,330.63,543.59,343.33,581.96z"/>
		<path class="st0" d="M759.66,46.87c-8.2,14.37-16.45,30.71-25.24,48.13c-40.85,81.03-91.71,181.91-203.54,207.18
			c-14.99,3.4-29.42,5.1-43.17,5.1c-31.52,0-59.68-8.9-84.03-26.64c-32.84-23.92-54.2-60.86-67.95-95.92
			c1.91-0.05,3.75-0.19,5.58-0.38c13.46,33.76,34.14,69.03,65.56,91.93c33.65,24.51,74.99,31.47,122.83,20.66
			C639.04,272.2,689.28,172.62,729.62,92.58c8.9-17.64,17.26-34.19,25.62-48.78C756.72,44.8,758.2,45.79,759.66,46.87z"/>
		<path class="st0" d="M728,27.94c-26.08,47.24-78.88,125.42-159.07,164.33c-12.62,6.12-24.92,9.17-36.86,9.17
			c-10.92,0-21.49-2.56-31.71-7.69c-28.37-14.21-49.97-46.09-65.8-79.66c1.32-1.59,2.64-3.18,3.96-4.83
			c15.53,33.68,36.7,65.85,64.26,79.66c19.77,9.92,41.23,9.41,63.77-1.51c78.82-38.24,130.84-115.17,156.59-161.8
			C724.77,26.35,726.38,27.13,728,27.94z"/>
		<path class="st0" d="M628.68,4.51c-4.85,34.06-19.23,77.23-60.3,87.51c-5.31,1.32-10.41,1.91-15.26,1.91
			c-27.29,0-47.27-19.39-60.81-40.04c1.4-1.11,2.83-2.21,4.23-3.26c14.97,23,38.1,44.22,70.54,36.13
			c37.29-9.3,50.99-49.67,55.9-82.14C624.88,4.56,626.8,4.51,628.68,4.51z"/>
	</g>
	<path class="st1" d="M274.11,499.24l-16,106.5L245.68,893.8h-27.94c0,0-27.3-201.25-19.07-311.72c1.82-24.5,7.89-90,7.89-90
		L274.11,499.24z"/>
	<path class="st2" d="M563.43,962.51c24.19,0,46.71-1.51,65.66-4.11c14.82,2.57,33.7,4.11,54.28,4.11
		c47.62,0,86.23-8.25,86.23-18.44s-38.61-18.44-86.23-18.44c-3.03,0-6.02,0.03-8.97,0.1c-19.13-9.03-61.6-15.31-110.97-15.31
		c-67.27,0-121.8,11.66-121.8,26.04C441.63,950.85,496.16,962.51,563.43,962.51z"/>
	<path class="st3" d="M677.07,889.9c3.16,25.16,0.84,20.17,29.51,31.51c28.67,11.33,8.39,12.01,5.33,11.33
		c-9.71-2.14-18.67-8.67-39.33-6c-20.67,2.67-8.1-19.56-8.1-19.56l0.77-23.11L677.07,889.9z"/>
	<path class="st4" d="M706.58,921.41c28.67,11.33,8.39,12.01,5.33,11.33c-9.71-2.14-18.67-8.67-39.33-6
		c-20.67,2.67-8.1-19.56-8.1-19.56s16.19,10.06,24.69,7.56L706.58,921.41z"/>
	<path class="st3" d="M565.35,889.9c-3.16,25.16-0.84,20.17-29.51,31.51c-28.67,11.33-8.39,12.01-5.33,11.33
		c9.71-2.14,18.67-8.67,39.33-6c20.67,2.67,8.1-19.56,8.1-19.56l-0.77-23.11L565.35,889.9z"/>
	<path class="st4" d="M535.84,921.41c-28.67,11.33-8.39,12.01-5.33,11.33c9.71-2.14,18.67-8.67,39.33-6
		c20.67,2.67,8.1-19.56,8.1-19.56s-16.19,10.06-24.69,7.56L535.84,921.41z"/>
	<path class="st1" d="M579.93,585.16l19.2,76.58l-18,237h-21c0,0-34.72-150.38-28.06-239.75c1.48-19.82,17.58-77.52,17.58-77.52
		L579.93,585.16z"/>
	<path class="st4" d="M579.93,585.16v76.04l83.64,235.26h17c0,0-17.73-172.96-35.66-253.72c-3.9-17.57-26.31-52.87-26.31-52.87
		L579.93,585.16z"/>
	<path class="st2" d="M295.83,950.51c-24.19,0-46.71-1.51-65.66-4.11c-14.82,2.57-33.7,4.11-54.28,4.11
		c-47.62,0-86.23-8.25-86.23-18.44s38.61-18.44,86.23-18.44c3.03,0,6.02,0.03,8.97,0.1c19.13-9.03,61.6-15.31,110.97-15.31
		c67.27,0,121.8,11.66,121.8,26.04S363.1,950.51,295.83,950.51z"/>
	<path class="st5" d="M305.59,926.34h-23.17c-1.86,0-3.38-1.65-3.38-3.66v-6.23c0-2.01,1.52-3.66,3.38-3.66h23.17
		c1.86,0,3.38,1.65,3.38,3.66v6.23C308.97,924.69,307.45,926.34,305.59,926.34z"/>
	<path class="st5" d="M284.59,885.08c0,0-4.27,0-6.58,0c-2.32,0-5.65,0.5-5.65,7.44c0,6.94,0,21.91,0,23.67
		c0,1.76,0.68,3.87,1.82,4.33c0,0,0.45,2.36,0.73,2.61c0.28,0.25,5.05,1.26,7.19,0.91c2.13-0.35,8-3.49,8-3.49s1.6-0.48,1.6-2.62
		c0,0,0.09-1.91,2.39-1.91c2.29,0,6.84,1.94,7.42,2.29c0.58,0.35,0.87,0.96,0.87,2.21c0,1.25,5.21,3.82,11.79,4.22
		c4.19,0.26,15.51-1.53,23.17-2.85c-1.51-7.02-6.14-9.16-10.76-9.16c-5.64,0-10.69,0-24.89,0c-14.19,0-17.08-11.78-17.08-17.78
		C284.59,888.92,284.59,885.08,284.59,885.08z"/>
	<path class="st5" d="M344.88,926.34h-42.52c-0.8,0-1.45-0.71-1.45-1.58v-2.68c0-0.87,0.65-1.57,1.45-1.57h42.52
		c0.8,0,1.45,0.71,1.45,1.57v2.68C346.33,925.63,345.68,926.34,344.88,926.34z"/>
	<path class="st5" d="M307.52,926.34h-33.34c-0.8,0-1.45-0.71-1.45-1.58v-2.68c0-0.87,0.65-1.57,1.45-1.57h33.34
		c0.8,0,1.45,0.71,1.45,1.57v2.68C308.97,925.63,308.32,926.34,307.52,926.34z"/>
	<path class="st1" d="M274.22,499.3l-16.12,104.44l14.42,292.72h27.94c0,0,27.3-201.25,19.07-311.72c-1.82-24.5-7.89-90-7.89-90
		L274.22,499.3z"/>
	<path class="st6" d="M261.76,379.38c-12.42,0-14.96-9.54-14.96-9.54l-38.81,10.85c-8.95,24.66-6.75,64.99-6.75,64.99
		c6.47,41.84,4.81,45.69-0.48,87.29c-0.54,4.23,0.54,9.1,0.54,9.1c12.67,22.04,110.92,19.45,123.12-1.78c0,0,1.08-4.87,0.54-9.1
		c-5.29-41.6-9.17-43.67-2.69-85.51c0,0-15.53-36.87-2.29-63.75l-43.27-12.1C276.71,369.85,274.17,379.38,261.76,379.38z"/>
	<path class="st3" d="M353.2,420.94c0,0,43.86,92.12,32.01,95.8c-11.85,3.68-24.15,5.21-69.5-82.5L353.2,420.94z"/>
	<path class="st3" d="M170.74,417.42c0,0-67.02,76.93-56.6,83.66s21.86,11.51,89.13-60.77L170.74,417.42z"/>
	<path class="st6" d="M319.62,382.44c0,0,9.57,3.26,12.78,6.05c3.21,2.78,38.98,57.29,38.98,57.29l-31.83,36.97l-23.84-37.5
		C315.71,445.24,302.67,408.86,319.62,382.44z"/>
	<path class="st6" d="M210.67,380.52c0,0-10.01,1.41-13.69,3.54c-3.68,2.13-50.91,53.93-50.91,53.93l29.78,30.67l36.91-35.69
		C212.76,432.96,209.77,418.76,210.67,380.52z"/>
	<path class="st7" d="M305.98,500.38l-0.66-0.76c9.75-8.45,12.73-22.69,12.75-22.83l0.98,0.2
		C319.03,477.14,315.98,491.71,305.98,500.38z M211.01,498.4c-5.21-4.08-6.51-17.09-6.56-17.64l1-0.09
		c0.01,0.13,1.3,13.13,6.18,16.95L211.01,498.4z M321.43,446.36c-0.12-0.33-11.84-32.79,2.33-55.38l0.85,0.53
		c-13.91,22.18-2.36,54.18-2.24,54.5L321.43,446.36z M200.39,446.27c-0.06-0.34-5.6-34,4.46-57.63l0.92,0.39
		c-9.95,23.37-4.45,56.74-4.4,57.08L200.39,446.27z M185.29,437.44l-1-0.06l2.16-38.18l1,0.06L185.29,437.44z M340.56,434.76
		l-0.89-35.68l1-0.03l0.89,35.68L340.56,434.76z"/>
	<path class="st8" d="M254.41,322.47L254.41,322.47c-8.37,1.18-13.99,10.92-12.47,21.64l3.97,28.08
		c1.51,10.72,9.6,18.52,17.98,17.34l0,0c8.37-1.18,13.98-10.92,12.47-21.64l-3.97-28.08C270.87,329.09,262.79,321.29,254.41,322.47z
		"/>
	<path class="st9" d="M251.41,299.14L251.41,299.14c-8.37,1.18-13.99,10.92-12.47,21.64l3.97,28.08
		c1.51,10.72,9.6,18.52,17.98,17.34l0,0c8.37-1.18,13.98-10.92,12.47-21.64l-3.97-28.08C267.87,305.76,259.79,297.96,251.41,299.14z
		"/>
	<g>
		<path class="st9" d="M304.51,292.12c1.84,6.76-2.15,13.74-8.92,15.57c-0.19,0.05-0.38,0.1-0.57,0.14
			c0.18-4.71-0.23-9.31-1.26-13.52l-0.92-3.77C290.97,282.82,301.44,280.81,304.51,292.12z"/>
		<path class="st9" d="M202.12,317.13c1.49,6.85,8.24,11.2,15.09,9.71c0.19-0.04,0.38-0.09,0.57-0.14c-2.33-4.1-4.1-8.36-5.12-12.58
			l-0.92-3.77C209.86,302.63,199.64,305.67,202.12,317.13z"/>
	</g>
	<path class="st8" d="M235.84,233.09L235.84,233.09c22.3-5.45,45.16,8.95,50.79,32l9.31,38.12c5.63,23.05-14.07,47.54-30.32,51.82
		l0,0c-13.09,3.39-45.16-8.95-50.79-32l-9.31-38.12C199.9,261.85,213.54,238.54,235.84,233.09z"/>
	<path class="st9" d="M231.75,320.73c3.24-0.73,6.47,1.31,7.19,4.56c0.73,3.24-1.31,6.47-4.55,7.2c-3.24,0.73-6.47-1.31-7.2-4.56
		C226.47,324.68,228.51,321.46,231.75,320.73z"/>
	<path class="st9" d="M280.4,309.83c3.24-0.73,6.47,1.31,7.2,4.55c0.73,3.25-1.31,6.47-4.56,7.2c-3.25,0.73-6.47-1.31-7.2-4.56
		C275.12,313.78,277.16,310.56,280.4,309.83z"/>
	<path class="st10" d="M255.82,318.78c-0.06,0-0.11,0-0.17,0c-0.72-0.03-1.16-0.23-1.33-0.61c-0.11-0.24-0.36-0.8,0.31-7.67l1,0.1
		c-0.59,6-0.45,7.01-0.39,7.17c0.1,0.03,0.89,0.1,2.15-0.19c1.45-0.34,2.64-0.97,2.97-1.57l0.88,0.48
		C260.45,317.91,257.54,318.78,255.82,318.78z"/>
	<g>
		<path class="st11" d="M262.51,281.45c-0.79,0.62-0.93,1.77-0.31,2.55c0.62,0.79,1.76,0.93,2.55,0.31
			c0.02-0.01,4.73-3.83,10.6-1.88c0.96,0.32,1.99-0.2,2.31-1.15c0.32-0.96-0.2-1.99-1.16-2.31
			C268.76,276.39,262.53,281.44,262.51,281.45z"/>
		<path class="st11" d="M220.97,292.44c-0.73,0.68-0.78,1.84-0.1,2.57c0.68,0.74,1.84,0.78,2.57,0.1c0.01-0.01,4.4-4.21,10.41-2.73
			c0.98,0.24,1.97-0.36,2.21-1.34c0.24-0.98-0.36-1.97-1.34-2.21C226.78,286.88,220.98,292.42,220.97,292.44z"/>
	</g>
	<path class="st12" d="M205.07,306.67c0,0,5.48-1.2,6.67,3.69c0,0,2.61-5.98,0.28-12.09c0,0,7.44-14.67,3.65-28.1
		c-3.78-13.43-15.04-13.75-15.04-13.75C177.11,269.99,199.42,283.55,205.07,306.67z"/>
	<path class="st12" d="M297.07,284.2c0,0-5.42,1.46-4.22,6.35c0,0-5.07-4.1-5.82-10.6c0,0-13.36-9.59-16.2-23.25
		c-2.84-13.66,7-19.13,7-19.13C304.97,238.75,291.42,261.07,297.07,284.2z"/>
	<path class="st12" d="M212.17,273.34c0,0,2.41,3.87,5.38,2.74c2.96-1.13,5.94-3.68,3.67-7.98c0,0,10.08-12.58,19.29-12.2
		c9.2,0.38,31.27,11.61,50.71,5.85c19.44-5.76,15.39-20.29-3-40c-14-15-29.94-18.42-61-8c-31.06,10.42-30.42,29.18-26.57,42.67
		C204.49,269.91,212.17,273.34,212.17,273.34z"/>
	<path class="st13" d="M201.88,232.08c25.03,15.46,65.96,29.49,107.68,4.63c-1.16-2.6-2.67-5.18-4.57-7.7
		c-1.8-2.4-3.71-4.61-5.72-6.63c-36.54,21.34-70.8,13.24-93.06,3.03C204.72,227.16,202.93,230.26,201.88,232.08z"/>
	<g>
		<path class="st11" d="M274.37,302.87c-2.78,0.68-5.58-1.02-6.25-3.8c-0.68-2.78,1.02-5.57,3.8-6.25c2.78-0.68,5.57,1.02,6.25,3.8
			C278.84,299.4,277.14,302.2,274.37,302.87z"/>
		<path class="st11" d="M233.84,312.78c-2.78,0.68-5.57-1.02-6.25-3.8c-0.68-2.77,1.02-5.57,3.8-6.25c2.78-0.68,5.58,1.02,6.25,3.8
			C238.31,309.3,236.61,312.1,233.84,312.78z"/>
	</g>
	<path class="st6" d="M246.88,328.08c1.2,4.9,8.91,7.91,13.81,6.71c4.9-1.2,9.72-6.81,8.52-11.71c-0.22-0.9-1.13-1.45-2.03-1.23
		l-19.07,4.2C247.21,326.27,246.66,327.18,246.88,328.08z"/>
	<path class="st14" d="M545.21,605.24"/>
	<path class="st15" d="M446.94,914.34c0,0.37-0.43,0.65-0.91,0.68c-0.46,0.03-0.87-0.17-0.98-0.51c-0.11-0.35,0.31-0.77,0.89-0.8
		C446.52,913.67,446.94,913.98,446.94,914.34z"/>
	<path class="st5" d="M344.88,920.51c0,0,1.32-0.95,1.32-3.82c0-11.12-17.43-5.7-23.9-9.54c-5.46-3.24-14.38-11.42-14.53-21.47
		c0,0,0-5.63-6.49-5.63c-6.49,0-7.97,0-10.2,0c-2.22,0-5.93,1.71-6.49,5.02c0,0-4.27,0-6.58,0c-2.32,0-5.65,0.5-5.65,7.44
		c0,6.94,0,21.91,0,23.67c0,1.76,0.68,3.87,1.82,4.33c0,0,0.45,2.36,0.73,2.61c0.28,0.25,5.05,1.26,7.19,0.91
		c2.13-0.35,8-3.49,8-3.49s1.6-0.48,1.6-2.62c0,0,0.09-1.91,2.39-1.91c2.29,0,6.84,1.94,7.42,2.29c0.58,0.35,0.87,0.96,0.87,2.21
		c0,1.25,5.21,3.82,11.79,4.22C320.73,925.13,344.88,920.51,344.88,920.51z"/>
	<path class="st5" d="M173.33,923.67h42.52c0.8,0,1.45-0.71,1.45-1.58v-2.68c0-0.87-0.65-1.57-1.45-1.57h-42.52
		c-0.8,0-1.45,0.71-1.45,1.57v2.68C171.88,922.97,172.53,923.67,173.33,923.67z"/>
	<path class="st5" d="M210.7,923.67h33.34c0.8,0,1.45-0.71,1.45-1.58v-2.68c0-0.87-0.65-1.57-1.45-1.57H210.7
		c-0.8,0-1.45,0.71-1.45,1.57v2.68C209.24,922.97,209.89,923.67,210.7,923.67z"/>
	<path class="st5" d="M228.13,917.87c0,0,5.86,3.14,8,3.49c2.13,0.35,6.91-0.65,7.19-0.91c0.28-0.25,0.73-2.61,0.73-2.61
		c1.14-0.45,1.82-2.56,1.82-4.33c0-1.76,0-16.73,0-23.67c0-6.94-3.34-7.44-5.65-7.44c-2.32,0-6.58,0-6.58,0
		c-0.56-3.32-4.26-5.02-6.49-5.02c-2.23,0-3.71,0-10.2,0s-6.49,5.63-6.49,5.63c-0.14,10.05-9.07,18.23-14.53,21.47
		c-6.48,3.84-23.9-1.58-23.9,9.54c0,2.86,1.32,3.82,1.32,3.82s24.15,4.62,30.73,4.22c6.58-0.4,11.79-2.97,11.79-4.22L228.13,917.87z
		"/>
	<path class="st11" d="M668.28,404.5c0,0-10.55,51.36-14.62,85.58c-4.07,34.22-59.73-15.49-59.73-15.49s-51.39,10.78-35.6-19.85
		c15.79-30.63,13.26-79.86,13.26-79.86l52.95-0.24L668.28,404.5z"/>
	<path class="st10" d="M660.39,611.54l-20.59,1.61l-6.14,15.8l28-5.65c3.79-0.41,9.37-8.46,7.01-10.71
		C666.98,610.98,660.39,611.54,660.39,611.54z"/>
	<path class="st3" d="M623.05,613.23l10.61,15.72l20.2-4.08l-22.5-33.68l-4.36,2.87C620.61,598.26,618.84,606.85,623.05,613.23z"/>
	<polygon class="st16" points="640.33,606.18 705.12,558.64 685.66,530.74 630.36,591.26 	"/>
	<path class="st16" d="M686.93,552.13c3.23,6.82,11.37,9.74,18.19,6.51c6.82-3.23,9.74-11.37,6.51-18.19
		c-3.23-6.82-11.37-9.74-18.19-6.51C686.62,537.17,683.7,545.31,686.93,552.13z"/>
	<path class="st16" d="M683.66,557.41l26.09-19.57L667,478.74c-6.37-8.59-28.88-13.54-36.48-6.02l0,0
		c-7.6,7.52-6.78,28.44,1.75,34.9L683.66,557.41z"/>
	<path class="st16" d="M616.02,589.88l50.31-103.8c5.5-8.6-8.78-18.34-17.57-19.53l-61.46-13.93c-8.78-1.19-16.65,5.52-20.19,14.38
		l-18.58,120.74L616.02,589.88z"/>
	<path class="st8" d="M592.74,455.14l5.34-39.28c1.53-11.29,9.83-19.56,18.43-18.39l0,0c8.6,1.17,14.39,11.36,12.85,22.65
		L622,460.41C622,460.41,588.15,474.86,592.74,455.14z"/>
	<path class="st9" d="M616.52,397.46L616.52,397.46c-8.6-1.17-16.9,7.11-18.43,18.39l-4.42,32.49c3.22,2.51,6.9,4.17,11.01,4.73
		c7.35,1,13.39-0.59,19.99-6.99l4.71-25.97C630.9,408.82,625.12,398.63,616.52,397.46z"/>
	<g>
		<path class="st9" d="M579.83,366.41c-0.33-0.05-0.65-0.09-0.97-0.12l-0.01,0l0,0c-5.99-0.5-11.74,3.16-13.65,9.13
			c-2.21,6.93,1.61,14.35,8.55,16.57c6.94,2.21,14.36-1.61,16.57-8.55c1.29-4.03,0.54-8.22-1.68-11.46
			c-0.79,3.83-2.76,8.26-7.66,7.31l2.31-7.24C584.22,369.11,581.87,366.93,579.83,366.41z"/>
		<path class="st9" d="M666.21,392.21c0.3,0.14,0.6,0.28,0.88,0.43l0.01,0.01l0,0c5.28,2.86,8.08,9.08,6.41,15.12
			c-1.95,7.01-9.22,11.12-16.23,9.17c-7.01-1.95-11.12-9.22-9.17-16.23c1.13-4.08,4.06-7.17,7.7-8.66
			c-1.44,3.63-2.22,8.43,2.4,10.31l2.04-7.32C661.06,392.06,664.21,391.52,666.21,392.21z"/>
	</g>
	<path class="st8" d="M603.68,442.75c15.74,5.74,41.79-17.35,59.07-38.74l9.33-30.45c7.27-23.73-6.2-49.1-29.94-56.37l0,0
		c-23.73-7.27-49.1,6.2-56.37,29.94l-9.13,29.8C579.38,402.81,585.83,436.24,603.68,442.75z"/>
	<path class="st9" d="M588.87,390.3c3.27-0.5,6.7,2.35,7.66,6.36c0.96,4.01-0.91,7.67-4.18,8.17c-3.27,0.5-6.7-2.35-7.66-6.36
		C583.73,394.45,585.6,390.8,588.87,390.3z"/>
	<path class="st9" d="M638.46,406.04c4.51-0.6,8.4,2.07,8.69,5.96c0.29,3.89-3.13,7.53-7.64,8.13c-4.51,0.6-8.4-2.07-8.69-5.96
		C630.52,410.29,633.95,406.65,638.46,406.04z"/>
	<g>
		<path class="st11" d="M639.08,372.97c-1.03,0.13-1.76,1.08-1.63,2.12c0.13,1.03,1.08,1.77,2.12,1.63c0.02,0,6.26-0.91,10.46,3.95
			c0.69,0.79,1.89,0.88,2.68,0.2c0.79-0.69,0.88-1.88,0.2-2.68C647.36,371.77,639.11,372.96,639.08,372.97z"/>
		<path class="st11" d="M596.16,360.7c-1.02,0.22-1.67,1.22-1.45,2.24c0.22,1.02,1.22,1.67,2.24,1.46c0.02,0,6.16-1.42,10.75,3.09
			c0.75,0.74,1.95,0.73,2.69-0.02c0.73-0.75,0.72-1.95-0.02-2.69C604.31,358.83,596.19,360.7,596.16,360.7z"/>
	</g>
	<path class="st10" d="M617.58,404.04c-1.55,0-3.45-0.62-4.48-1.29c-0.62-0.4-0.9-0.8-0.85-1.23c0.03-0.27,0.1-0.91,4.35-6.68
		l0.81,0.59c-3.82,5.18-4.14,6.08-4.16,6.2c0.07,0.09,0.71,0.56,1.94,0.97c1.51,0.49,2.95,0.58,3.58,0.2l0.51,0.86
		C618.83,403.93,618.23,404.04,617.58,404.04z"/>
	<path class="st11" d="M675.54,387.34l-4.3,8.84c0,0-5.78-1.01-7.31,3.99c0,0-2.34-6.36,0.44-12.55c0,0-6.83-15.66-2.11-29.36
		c4.72-13.7,10.78-22.2,10.78-22.2S687.73,358.48,675.54,387.34z"/>
	<path class="st11" d="M575.18,356.6l-1.39,9.73c0,0,5.36,2.4,3.83,7.4c0,0,5.5-3.95,6.67-10.64c0,0,14.43-9.15,18.19-23.15
		c3.76-14,0.37-21.91,0.37-21.91S581.25,325.86,575.18,356.6z"/>
	<g>
		<path class="st11" d="M597.78,388.13c-2.84-0.87-4.43-3.87-3.57-6.71c0.12-0.39,0.28-0.75,0.47-1.09l-0.53-0.39
			c-0.54-0.41-1.06-0.96-1.46-1.69c-0.18-0.32-0.06-0.74,0.26-0.91c0.33-0.18,0.74-0.07,0.92,0.26c0.39,0.71,0.93,1.2,1.47,1.54
			l0.01,0c-0.48-0.53-0.91-1.24-1.09-2.16c-0.07-0.36,0.17-0.72,0.53-0.78c0.37-0.07,0.72,0.17,0.79,0.54
			c0.14,0.76,0.54,1.32,0.94,1.7l0.07-0.04c-0.29-0.43-0.52-1-0.51-1.7c0.01-0.37,0.32-0.67,0.69-0.66
			c0.37,0.01,0.67,0.32,0.66,0.69c-0.01,0.5,0.2,0.88,0.41,1.12c0.97-0.28,2.03-0.3,3.08,0.02c2.84,0.87,4.43,3.87,3.57,6.71
			C603.62,387.4,600.62,389,597.78,388.13z"/>
		<path class="st11" d="M639.17,400.8c2.84,0.87,5.84-0.73,6.71-3.56c0.12-0.39,0.19-0.78,0.22-1.16l0.65-0.03
			c0.68-0.04,1.41-0.21,2.16-0.59c0.33-0.17,0.46-0.57,0.3-0.9c-0.17-0.33-0.57-0.47-0.9-0.3c-0.72,0.37-1.44,0.47-2.08,0.45
			l-0.01-0.01c0.7-0.17,1.45-0.51,2.11-1.18c0.26-0.27,0.26-0.69,0-0.95c-0.26-0.26-0.69-0.26-0.95,0.01
			c-0.54,0.55-1.18,0.79-1.73,0.88l-0.03-0.07c0.47-0.19,0.99-0.53,1.37-1.12c0.2-0.31,0.11-0.73-0.2-0.93s-0.73-0.11-0.93,0.2
			c-0.27,0.42-0.66,0.61-0.97,0.7c-0.64-0.78-1.52-1.39-2.56-1.71c-2.84-0.87-5.84,0.73-6.71,3.56
			C634.73,396.93,636.33,399.93,639.17,400.8z"/>
	</g>
	<path class="st6" d="M601.26,408.62c-1.53,5.01,3.75,11.9,8.76,13.43c5.01,1.53,13.93-1.73,15.47-6.74
		c0.28-0.92-3.86-1.45-4.78-1.73l-14.8-4.53C604.99,408.77,601.55,407.7,601.26,408.62z"/>
	<path class="st11" d="M673.82,341.95c0,0-9.87-81.38-80.52-29.09c-14.83,10.98-30.38,22.44-30.15,29.92
		C564.04,370.93,660.68,376,673.82,341.95z"/>
	<path class="st13" d="M673.04,336.05c0,0-45.06,35.71-101.44-5.1l13.62-12.27c0,0,27.05,36.82,87.9,16.84L673.04,336.05z"/>
	<polygon class="st17" points="440.38,563.06 445.08,551.07 536.92,531.34 525.98,562.18 	"/>
	<path class="st16" d="M504.77,541.9l31.77,13.84l51.79-65.86c10.74-7.72,7.67-31.03-1.02-37.27l0.98,0.81
		c-8.69-6.24-24.39-0.45-29.33,9.04L504.77,541.9z"/>
	<path class="st18" d="M668.33,400.24"/>
	<path class="st14" d="M670.14,396.39l-0.61-0.79c0.14-0.11,14.16-11.19,15.64-27.88c0.92-10.42-3.16-20.82-12.14-30.94
		c-3.63,3.78-32.59,32.86-64.31,32.87c-0.97,0-1.93-0.03-2.9-0.08c-16.48-0.94-30.96-9.85-43.06-26.49l0.81-0.59
		c11.91,16.38,26.14,25.16,42.3,26.08c34.38,1.97,66.48-32.51,66.8-32.86l0.37-0.4l0.37,0.41c9.42,10.46,13.71,21.26,12.75,32.11
		C684.64,384.94,670.28,396.28,670.14,396.39z"/>
	
		<rect x="636.12" y="444.37" transform="matrix(0.0771 -0.997 0.997 0.0771 170.4609 1073.8975)" class="st14" width="58.42" height="1"/>
	<path class="st19" d="M556.95,527.07c-21.06-24.06,16.63-64.27,17.01-64.67l0.72,0.69c-0.38,0.4-37.44,39.95-16.99,63.33
		L556.95,527.07z"/>
	<path class="st19" d="M649.99,523.11c-0.19-0.18-19.01-18.72,6.93-55.65l0.82,0.58c-25.46,36.23-7.25,54.17-7.07,54.35
		L649.99,523.11z"/>
	<ellipse class="st17" cx="519.54" cy="549.74" rx="19" ry="15"/>
	<path class="st20" d="M345.93,451.57l-25.83-22.21H187.76l-26.15,22.49C161.61,451.85,345.1,450.86,345.93,451.57z"/>
	<polygon class="st21" points="311.65,463.4 336.72,376.95 316.46,371.12 287.08,466.43 	"/>
	<g>
		<path class="st1" d="M226.5,407.2l4.49-5.07l0.74-14.92c0,0,8.43,4.14,11.02,23.03L226.5,407.2z"/>
		<path class="st1" d="M240.33,534.08l-18.67-100.92l14.03-2.91l25.6,99.08l-0.03,0.01c1.26,5.75-2.35,11.45-8.1,12.75
			c-5.75,1.3-11.46-2.29-12.8-8.01L240.33,534.08z"/>
		<path class="st1" d="M202.41,402.04c4.15-5.17,12.35-16.6,12.35-16.6l-1.92,14.78l5.47,5.37l24.38,4.61l-6.93,20.16l-14.02,2.91
			l-18.04-19.68C203.69,413.6,198.26,407.21,202.41,402.04z"/>
		<path class="st22" d="M202.41,402.04c4.15-5.17,12.35-16.6,12.35-16.6l-1.92,14.78l5.47,5.37l24.38,4.61l-6.93,20.16l-14.02,2.91
			l-18.04-19.68C203.69,413.6,198.26,407.21,202.41,402.04z"/>
		<polygon class="st1" points="221.12,422.37 224.63,426.2 229.71,425.08 231.27,420.12 227.75,416.28 222.68,417.41 		"/>
	</g>
	<g>
		<path class="st14" d="M251.51,514.57l16.3-76.79c3.18-0.88,2.01-2.81,0.05-3.39l-4.04-1.19c-1.97-0.58-3.99,0.41-4.52,2.22
			l-27.85,73.4L251.51,514.57z"/>
		<path class="st14" d="M295.33,419.26c-1.22-0.36-2.48-0.01-3.35,0.81c-3.34-1.57-7.68-3.38-8.57-3.64
			c-5.01-1.47-8.2-2.45-16.01-4.74c-9.43-2.77-6.12-9.48-21.2,7.05c-2.86,3.14-2.88,5.72-1.92,6.54c1.63,1.39,4.44,0.53,7.73-1.81
			c6.45-4.59,2.53-3.67,6.6-0.91c1.35,0.92,1.51,1.96,0.99,6.04c-0.29,2.31-1.29,9.21-1.29,9.21l8.96,2.49
			c0.39-1.69,12.82-5.7,20.57-6.61c0.22,1.26,1.13,2.36,2.43,2.74c1.83,0.54,3.76-0.52,4.3-2.35l3.09-10.52
			C298.21,421.73,297.15,419.79,295.33,419.26z"/>
		<path class="st23" d="M295.33,419.26c-1.22-0.36-2.48-0.01-3.35,0.81c-3.34-1.57-7.68-3.38-8.57-3.64
			c-5.01-1.47-8.2-2.45-16.01-4.74c-9.43-2.77-6.12-9.48-21.2,7.05c-2.86,3.14-2.88,5.72-1.92,6.54c1.63,1.39,4.44,0.53,7.73-1.81
			c6.45-4.59,2.53-3.67,6.6-0.91c1.35,0.92,1.51,1.96,0.99,6.04c-0.29,2.31-1.29,9.21-1.29,9.21l8.96,2.49
			c0.39-1.69,12.82-5.7,20.57-6.61c0.22,1.26,1.13,2.36,2.43,2.74c1.83,0.54,3.76-0.52,4.3-2.35l3.09-10.52
			C298.21,421.73,297.15,419.79,295.33,419.26z"/>
	</g>
	<g>
		<g>
			<polygon class="st14" points="147.6,425.29 246.63,517.48 245.72,518.45 244.16,518.82 244.42,517.24 242.86,517.61 
				243.11,516.03 241.55,516.4 241.81,514.81 240.25,515.18 240.5,513.6 238.95,513.97 239.2,512.39 237.65,512.76 237.9,511.18 
				236.35,511.55 236.6,509.97 235.04,510.34 235.3,508.75 233.74,509.12 234,507.54 232.44,507.91 232.69,506.33 231.14,506.7 
				231.39,505.12 229.83,505.49 230.09,503.9 228.53,504.27 228.79,502.69 227.23,503.06 227.48,501.48 225.92,501.85 
				226.18,500.27 224.62,500.63 224.88,499.05 223.32,499.42 223.58,497.84 222.01,498.21 222.27,496.63 220.71,497 220.97,495.41 
				219.41,495.78 219.66,494.2 218.1,494.57 218.36,492.98 216.8,493.36 217.06,491.77 215.5,492.14 215.75,490.56 214.19,490.92 
				214.45,489.34 212.89,489.71 213.14,488.13 211.58,488.49 211.84,486.91 210.28,487.28 210.53,485.7 208.97,486.07 
				209.23,484.48 207.67,484.85 207.92,483.27 206.36,483.64 206.62,482.05 205.06,482.42 205.32,480.84 203.76,481.21 
				204.01,479.63 202.45,480 202.71,478.41 201.15,478.78 201.4,477.2 199.84,477.56 200.1,475.98 198.54,476.35 198.79,474.77 
				197.23,475.13 197.48,473.55 195.92,473.92 196.17,472.39 194.66,472.74 194.92,471.16 193.36,471.53 193.62,469.95 
				192.06,470.32 192.31,468.74 190.75,469.11 191.01,467.52 189.45,467.89 189.71,466.31 188.15,466.68 188.41,465.1 
				186.85,465.47 187.11,463.89 185.55,464.26 185.8,462.68 184.25,463.05 184.5,461.47 182.94,461.84 183.2,460.25 181.64,460.62 
				181.9,459.04 180.34,459.41 180.59,457.83 179.04,458.19 179.29,456.62 177.73,456.98 177.99,455.4 176.43,455.77 176.69,454.19 
				175.13,454.56 175.38,452.98 173.82,453.34 174.08,451.76 172.52,452.13 172.78,450.55 171.21,450.92 171.47,449.33 
				169.91,449.7 170.17,448.12 168.61,448.49 168.86,446.91 167.3,447.28 167.56,445.69 166,446.06 166.26,444.48 164.69,444.85 
				164.95,443.27 163.39,443.63 163.65,442.05 162.09,442.42 162.34,440.84 160.78,441.2 161.04,439.62 159.48,439.99 159.73,438.4 
				158.17,438.77 158.43,437.19 156.87,437.56 157.12,435.98 155.57,436.35 155.82,434.77 154.26,435.13 154.52,433.55 
				152.96,433.92 153.21,432.34 151.65,432.7 151.91,431.12 150.35,431.49 150.6,429.9 149.04,430.27 149.3,428.69 147.73,429.06 
				147.99,427.47 146.42,427.84 146.67,426.29 			"/>
			<polygon class="st14" points="147.39,425.56 246.25,517.93 261.81,506.13 181.21,399.9 			"/>
		</g>
		<g class="st24">
			<polygon class="st0" points="147.6,425.29 246.63,517.48 245.72,518.45 244.16,518.82 244.42,517.24 242.86,517.61 
				243.11,516.03 241.55,516.4 241.81,514.81 240.25,515.18 240.5,513.6 238.95,513.97 239.2,512.39 237.65,512.76 237.9,511.18 
				236.35,511.55 236.6,509.97 235.04,510.34 235.3,508.75 233.74,509.12 234,507.54 232.44,507.91 232.69,506.33 231.14,506.7 
				231.39,505.12 229.83,505.49 230.09,503.9 228.53,504.27 228.79,502.69 227.23,503.06 227.48,501.48 225.92,501.85 
				226.18,500.27 224.62,500.63 224.88,499.05 223.32,499.42 223.58,497.84 222.01,498.21 222.27,496.63 220.71,497 220.97,495.41 
				219.41,495.78 219.66,494.2 218.1,494.57 218.36,492.98 216.8,493.36 217.06,491.77 215.5,492.14 215.75,490.56 214.19,490.92 
				214.45,489.34 212.89,489.71 213.14,488.13 211.58,488.49 211.84,486.91 210.28,487.28 210.53,485.7 208.97,486.07 
				209.23,484.48 207.67,484.85 207.92,483.27 206.36,483.64 206.62,482.05 205.06,482.42 205.32,480.84 203.76,481.21 
				204.01,479.63 202.45,480 202.71,478.41 201.15,478.78 201.4,477.2 199.84,477.56 200.1,475.98 198.54,476.35 198.79,474.77 
				197.23,475.13 197.48,473.55 195.92,473.92 196.17,472.39 194.66,472.74 194.92,471.16 193.36,471.53 193.62,469.95 
				192.06,470.32 192.31,468.74 190.75,469.11 191.01,467.52 189.45,467.89 189.71,466.31 188.15,466.68 188.41,465.1 
				186.85,465.47 187.11,463.89 185.55,464.26 185.8,462.68 184.25,463.05 184.5,461.47 182.94,461.84 183.2,460.25 181.64,460.62 
				181.9,459.04 180.34,459.41 180.59,457.83 179.04,458.19 179.29,456.62 177.73,456.98 177.99,455.4 176.43,455.77 176.69,454.19 
				175.13,454.56 175.38,452.98 173.82,453.34 174.08,451.76 172.52,452.13 172.78,450.55 171.21,450.92 171.47,449.33 
				169.91,449.7 170.17,448.12 168.61,448.49 168.86,446.91 167.3,447.28 167.56,445.69 166,446.06 166.26,444.48 164.69,444.85 
				164.95,443.27 163.39,443.63 163.65,442.05 162.09,442.42 162.34,440.84 160.78,441.2 161.04,439.62 159.48,439.99 159.73,438.4 
				158.17,438.77 158.43,437.19 156.87,437.56 157.12,435.98 155.57,436.35 155.82,434.77 154.26,435.13 154.52,433.55 
				152.96,433.92 153.21,432.34 151.65,432.7 151.91,431.12 150.35,431.49 150.6,429.9 149.04,430.27 149.3,428.69 147.73,429.06 
				147.99,427.47 146.42,427.84 146.67,426.29 			"/>
			<polygon class="st0" points="147.39,425.56 246.25,517.93 261.81,506.13 181.21,399.9 			"/>
		</g>
		<path class="st14" d="M119.98,381.14c-6.23,3.75-8.6,10.1-4.47,15.55c4.13,5.45,15.94,20.98,15.94,20.98s1.83,2.23,5.74,2.86
			c4.72,0.76,22.43,3.92,22.43,3.92l25.52-19.36l-28.77-37.92c0,0-5.41-7.15-8.16-10.71c-1.18-1.53-3.04-2.91-3.96-2.2
			c-1.79,1.36-2.69,2.41-0.3,9.42C147.38,373.81,126.21,377.39,119.98,381.14z M125.26,390.1l25.62-12.97
			c1.13-0.86,2.73-0.64,3.59,0.49l6.15,8.11c0.85,1.13,0.64,2.73-0.49,3.59l-25.62,12.97c-1.13,0.86-2.74,0.64-3.59-0.49l-6.15-8.11
			C123.91,392.56,124.13,390.96,125.26,390.1z"/>
	</g>
	<g>
		<g>
			<path class="st14" d="M355.81,406.15c12.39,9.1,5.43,23.71,5.43,23.71l-0.02-0.01c-0.23,0.67-0.59,1.32-1.07,1.9
				c-0.84,1-1.94,1.66-3.12,1.96c-1.35,1.78-3.19,3.54-5.62,4.55c-2.19,0.91-5.24,1.33-9.42-0.67l4.82-9.31
				c0.37,0.19,1.87-0.05,2.67-0.43c0.01-1.36,0.47-2.73,1.41-3.85c0.15-0.18,0.31-0.35,0.48-0.5c3.91-5.27,2.93-8.47,2.09-13.16
				C352.53,405.12,354.84,405.44,355.81,406.15z"/>
			<path class="st14" d="M329.57,413.48l-0.03-0.01c0,0,7.91-14.12,22.49-9.27c1.14,0.38,2.74,2.08-2.05,4.34
				c-4.31,2.03-7.49,3.08-9.53,9.31c-0.03,0.23-0.08,0.45-0.14,0.68c-0.37,1.42-1.22,2.59-2.33,3.38c0.15,0.88,0.82,2.24,1.19,2.43
				l-4.82,9.31c-4.05-2.26-5.47-4.99-5.99-7.3c-0.58-2.57-0.21-5.08,0.46-7.22c-0.43-1.14-0.53-2.41-0.2-3.68
				C328.83,414.72,329.15,414.06,329.57,413.48z"/>
		</g>
		<g>
			<g>
				<polygon class="st14" points="331.08,446.34 325.46,441.03 330.04,436.28 335.65,441.59 				"/>
				<path class="st14" d="M318.05,443.67c0.76-1.96,7.67-3.39,7.67-3.39l6.46,6l-2.88,5.55c0,0-10.39,1.61-19.76,19.97
					c-7.63,14.95-14.32,41.01-20.74,37.69c-7.39-3.82,5.48-36.32,21.68-53.32C310.48,456.17,316.3,448.2,318.05,443.67z"/>
			</g>
			<g>
				<polygon class="st14" points="333.51,447.6 341.08,449.11 342.32,442.64 334.74,441.12 				"/>
				<path class="st14" d="M343.21,456.69c1.16-1.75-1.66-8.22-1.66-8.22l-8.63-1.8l-2.87,5.56c0,0,4.68,9.42-4.88,27.67
					c-7.79,14.87-25.21,35.38-18.79,38.7c7.39,3.82,26.48-25.45,31.01-48.49C337.38,470.09,340.52,460.74,343.21,456.69z"/>
			</g>
		</g>
		<path class="st14" d="M330.11,430.79c-2.45,4.73-0.6,10.54,4.13,12.98c4.72,2.44,10.53,0.6,12.98-4.13
			c2.44-4.72,0.6-10.53-4.13-12.98C338.37,424.22,332.56,426.07,330.11,430.79z"/>
		<path class="st23" d="M330.11,430.79c-2.45,4.73-0.6,10.54,4.13,12.98c4.72,2.44,10.53,0.6,12.98-4.13
			c2.44-4.72,0.6-10.53-4.13-12.98C338.37,424.22,332.56,426.07,330.11,430.79z"/>
		<polygon class="st14" points="334.15,435.43 336.59,439.23 341.1,439.02 343.18,435.01 340.74,431.21 336.23,431.42 		"/>
	</g>
	
		<rect x="161.29" y="451.53" transform="matrix(-1 -4.489310e-11 4.489310e-11 -1 507.2149 1029.1887)" class="st12" width="184.64" height="126.14"/>
	<path class="st20" d="M443.85,536.82l19.1-16.42h97.84l19.34,16.63C580.13,537.02,444.47,536.29,443.85,536.82z"/>
	<polygon class="st21" points="469.2,545.56 450.66,481.64 465.64,477.34 487.36,547.8 	"/>
	<g>
		<path class="st1" d="M532.15,504.01l-3.32-3.75l-0.54-11.03c0,0-6.24,3.06-8.15,17.02L532.15,504.01z"/>
		<path class="st1" d="M521.93,597.82l13.8-74.61l-10.37-2.15l-18.93,73.25l0.02,0c-0.93,4.25,1.74,8.46,5.99,9.42
			c4.25,0.96,8.47-1.69,9.46-5.93L521.93,597.82z"/>
		<path class="st1" d="M549.96,500.19c-3.07-3.82-9.13-12.27-9.13-12.27l1.42,10.93l-4.04,3.97l-18.02,3.41l5.13,14.9l10.36,2.15
			l13.34-14.55C549.01,508.74,553.03,504.02,549.96,500.19z"/>
		<path class="st22" d="M549.96,500.19c-3.07-3.82-9.13-12.27-9.13-12.27l1.42,10.93l-4.04,3.97l-18.02,3.41l5.13,14.9l10.36,2.15
			l13.34-14.55C549.01,508.74,553.03,504.02,549.96,500.19z"/>
		<polygon class="st1" points="536.13,515.23 533.53,518.06 529.78,517.23 528.62,513.56 531.22,510.73 534.97,511.56 		"/>
	</g>
	<g>
		<path class="st14" d="M513.66,583.39l-12.05-56.77c-2.35-0.65-1.49-2.08-0.03-2.51l2.99-0.88c1.45-0.43,2.95,0.31,3.34,1.64
			l20.59,54.26L513.66,583.39z"/>
		<path class="st14" d="M481.27,512.92c0.9-0.26,1.83,0,2.47,0.6c2.47-1.16,5.68-2.5,6.34-2.69c3.71-1.09,6.07-1.81,11.84-3.51
			c6.97-2.05,4.52-7.01,15.67,5.21c2.11,2.32,2.13,4.23,1.42,4.84c-1.21,1.03-3.28,0.39-5.72-1.34c-4.77-3.4-1.87-2.71-4.88-0.67
			c-1,0.68-1.12,1.45-0.74,4.47c0.21,1.71,0.95,6.81,0.95,6.81l-6.63,1.84c-0.29-1.25-9.48-4.21-15.2-4.89
			c-0.16,0.93-0.83,1.74-1.8,2.03c-1.35,0.4-2.78-0.38-3.18-1.73l-2.29-7.78C479.13,514.75,479.91,513.32,481.27,512.92z"/>
		<path class="st23" d="M481.27,512.92c0.9-0.26,1.83,0,2.47,0.6c2.47-1.16,5.68-2.5,6.34-2.69c3.71-1.09,6.07-1.81,11.84-3.51
			c6.97-2.05,4.52-7.01,15.67,5.21c2.11,2.32,2.13,4.23,1.42,4.84c-1.21,1.03-3.28,0.39-5.72-1.34c-4.77-3.4-1.87-2.71-4.88-0.67
			c-1,0.68-1.12,1.45-0.74,4.47c0.21,1.71,0.95,6.81,0.95,6.81l-6.63,1.84c-0.29-1.25-9.48-4.21-15.2-4.89
			c-0.16,0.93-0.83,1.74-1.8,2.03c-1.35,0.4-2.78-0.38-3.18-1.73l-2.29-7.78C479.13,514.75,479.91,513.32,481.27,512.92z"/>
	</g>
	<g>
		<g>
			<polygon class="st14" points="590.48,517.39 517.27,585.54 517.94,586.26 519.09,586.54 518.9,585.37 520.06,585.64 
				519.87,584.47 521.02,584.74 520.83,583.57 521.98,583.84 521.8,582.68 522.95,582.95 522.76,581.78 523.91,582.05 
				523.72,580.88 524.87,581.16 524.68,579.99 525.83,580.26 525.64,579.09 526.79,579.37 526.61,578.2 527.76,578.47 527.57,577.3 
				528.72,577.57 528.53,576.4 529.69,576.68 529.5,575.51 530.65,575.78 530.46,574.61 531.61,574.88 531.42,573.71 532.57,573.99 
				532.39,572.82 533.54,573.09 533.35,571.92 534.5,572.19 534.31,571.02 535.47,571.3 535.28,570.13 536.43,570.4 536.24,569.23 
				537.39,569.5 537.2,568.33 538.36,568.6 538.17,567.43 539.32,567.71 539.13,566.54 540.28,566.81 540.1,565.64 541.25,565.91 
				541.06,564.74 542.21,565.01 542.02,563.84 543.18,564.11 542.99,562.95 544.14,563.22 543.95,562.05 545.11,562.32 
				544.92,561.15 546.07,561.42 545.88,560.25 547.04,560.52 546.85,559.35 548,559.63 547.81,558.46 548.96,558.73 548.78,557.56 
				549.93,557.83 549.74,556.66 550.89,556.93 550.71,555.76 551.86,556.03 551.67,554.86 552.82,555.13 552.64,553.97 
				553.79,554.24 553.6,553.07 554.76,553.34 554.58,552.21 555.69,552.47 555.5,551.3 556.65,551.57 556.46,550.4 557.61,550.68 
				557.42,549.51 558.58,549.78 558.39,548.61 559.54,548.88 559.35,547.71 560.5,547.99 560.31,546.82 561.46,547.09 
				561.27,545.92 562.43,546.2 562.24,545.03 563.39,545.3 563.2,544.13 564.35,544.4 564.16,543.23 565.32,543.51 565.13,542.34 
				566.28,542.61 566.09,541.44 567.24,541.71 567.05,540.55 568.2,540.82 568.02,539.65 569.17,539.92 568.98,538.75 
				570.13,539.02 569.94,537.85 571.09,538.13 570.9,536.96 572.06,537.23 571.87,536.06 573.02,536.33 572.83,535.16 
				573.99,535.43 573.8,534.27 574.95,534.54 574.76,533.37 575.91,533.64 575.72,532.47 576.88,532.74 576.69,531.57 
				577.84,531.85 577.65,530.68 578.81,530.95 578.62,529.78 579.77,530.05 579.58,528.88 580.74,529.15 580.55,527.98 
				581.7,528.25 581.51,527.08 582.67,527.36 582.48,526.19 583.63,526.46 583.44,525.29 584.59,525.56 584.4,524.39 585.56,524.66 
				585.37,523.49 586.52,523.76 586.33,522.59 587.49,522.87 587.3,521.69 588.45,521.97 588.26,520.8 589.42,521.07 589.23,519.9 
				590.38,520.17 590.2,519 591.35,519.27 591.17,518.13 			"/>
			<polygon class="st14" points="590.64,517.58 517.55,585.88 506.04,577.15 565.63,498.61 			"/>
		</g>
		<g class="st24">
			<polygon class="st0" points="590.48,517.39 517.27,585.54 517.94,586.26 519.09,586.54 518.9,585.37 520.06,585.64 
				519.87,584.47 521.02,584.74 520.83,583.57 521.98,583.84 521.8,582.68 522.95,582.95 522.76,581.78 523.91,582.05 
				523.72,580.88 524.87,581.16 524.68,579.99 525.83,580.26 525.64,579.09 526.79,579.37 526.61,578.2 527.76,578.47 527.57,577.3 
				528.72,577.57 528.53,576.4 529.69,576.68 529.5,575.51 530.65,575.78 530.46,574.61 531.61,574.88 531.42,573.71 532.57,573.99 
				532.39,572.82 533.54,573.09 533.35,571.92 534.5,572.19 534.31,571.02 535.47,571.3 535.28,570.13 536.43,570.4 536.24,569.23 
				537.39,569.5 537.2,568.33 538.36,568.6 538.17,567.43 539.32,567.71 539.13,566.54 540.28,566.81 540.1,565.64 541.25,565.91 
				541.06,564.74 542.21,565.01 542.02,563.84 543.18,564.11 542.99,562.95 544.14,563.22 543.95,562.05 545.11,562.32 
				544.92,561.15 546.07,561.42 545.88,560.25 547.04,560.52 546.85,559.35 548,559.63 547.81,558.46 548.96,558.73 548.78,557.56 
				549.93,557.83 549.74,556.66 550.89,556.93 550.71,555.76 551.86,556.03 551.67,554.86 552.82,555.13 552.64,553.97 
				553.79,554.24 553.6,553.07 554.76,553.34 554.58,552.21 555.69,552.47 555.5,551.3 556.65,551.57 556.46,550.4 557.61,550.68 
				557.42,549.51 558.58,549.78 558.39,548.61 559.54,548.88 559.35,547.71 560.5,547.99 560.31,546.82 561.46,547.09 
				561.27,545.92 562.43,546.2 562.24,545.03 563.39,545.3 563.2,544.13 564.35,544.4 564.16,543.23 565.32,543.51 565.13,542.34 
				566.28,542.61 566.09,541.44 567.24,541.71 567.05,540.55 568.2,540.82 568.02,539.65 569.17,539.92 568.98,538.75 
				570.13,539.02 569.94,537.85 571.09,538.13 570.9,536.96 572.06,537.23 571.87,536.06 573.02,536.33 572.83,535.16 
				573.99,535.43 573.8,534.27 574.95,534.54 574.76,533.37 575.91,533.64 575.72,532.47 576.88,532.74 576.69,531.57 
				577.84,531.85 577.65,530.68 578.81,530.95 578.62,529.78 579.77,530.05 579.58,528.88 580.74,529.15 580.55,527.98 
				581.7,528.25 581.51,527.08 582.67,527.36 582.48,526.19 583.63,526.46 583.44,525.29 584.59,525.56 584.4,524.39 585.56,524.66 
				585.37,523.49 586.52,523.76 586.33,522.59 587.49,522.87 587.3,521.69 588.45,521.97 588.26,520.8 589.42,521.07 589.23,519.9 
				590.38,520.17 590.2,519 591.35,519.27 591.17,518.13 			"/>
			<polygon class="st0" points="590.64,517.58 517.55,585.88 506.04,577.15 565.63,498.61 			"/>
		</g>
		<path class="st14" d="M593.18,471.84c1.76-5.19,1.1-5.96-0.22-6.97c-0.68-0.52-2.05,0.5-2.93,1.63c-2.04,2.63-6.03,7.91-6.03,7.91
			l-21.27,28.03l18.87,14.31c0,0,13.1-2.34,16.58-2.9c2.89-0.47,4.24-2.11,4.24-2.11s8.73-11.49,11.79-15.51
			c3.05-4.03,1.3-8.73-3.3-11.49C606.3,481.97,590.64,479.32,593.18,471.84z M607.36,494.02l-4.55,5.99c-0.63,0.83-1.82,1-2.66,0.36
			l-18.94-9.59c-0.84-0.63-1-1.82-0.36-2.65l4.55-5.99c0.63-0.83,1.82-1,2.65-0.36l18.94,9.59
			C607.83,492,607.99,493.19,607.36,494.02z"/>
	</g>
	<g>
		<g>
			<path class="st14" d="M436.55,503.24c-9.16,6.73-4.01,17.53-4.01,17.53l0.02-0.01c0.17,0.5,0.43,0.97,0.79,1.4
				c0.62,0.74,1.43,1.23,2.3,1.45c1,1.32,2.36,2.61,4.16,3.36c1.62,0.67,3.87,0.98,6.97-0.5l-3.56-6.88
				c-0.27,0.14-1.38-0.04-1.98-0.32c0-1.01-0.35-2.02-1.04-2.85c-0.11-0.13-0.23-0.26-0.35-0.37c-2.89-3.89-2.16-6.26-1.55-9.73
				C438.97,502.47,437.26,502.71,436.55,503.24z"/>
			<path class="st14" d="M455.95,508.65l0.02-0.01c0,0-5.85-10.44-16.63-6.85c-0.84,0.28-2.03,1.54,1.51,3.21
				c3.19,1.5,5.54,2.28,7.05,6.88c0.03,0.17,0.06,0.34,0.1,0.5c0.28,1.05,0.9,1.91,1.72,2.5c-0.11,0.65-0.61,1.66-0.88,1.8
				l3.56,6.88c2.99-1.67,4.04-3.69,4.43-5.4c0.43-1.9,0.16-3.76-0.34-5.33c0.32-0.84,0.39-1.78,0.15-2.72
				C456.5,509.57,456.26,509.08,455.95,508.65z"/>
		</g>
		<g>
			<g>
				<polygon class="st14" points="454.83,532.95 458.98,529.02 455.6,525.51 451.45,529.44 				"/>
				<path class="st14" d="M464.46,530.97c-0.56-1.45-5.67-2.51-5.67-2.51l-4.77,4.44l2.13,4.1c0,0,7.68,1.19,14.61,14.76
					c5.64,11.05,10.59,30.32,15.33,27.87c5.46-2.83-4.05-26.85-16.03-39.42C470.06,540.21,465.76,534.33,464.46,530.97z"/>
			</g>
			<g>
				<polygon class="st14" points="453.04,533.88 447.44,535 446.52,530.21 452.12,529.09 				"/>
				<path class="st14" d="M445.86,540.6c-0.86-1.29,1.23-6.08,1.23-6.08l6.38-1.33l2.12,4.11c0,0-3.46,6.96,3.61,20.45
					c5.76,10.99,18.64,26.16,13.89,28.61c-5.46,2.83-19.57-18.82-22.92-35.85C450.17,550.51,447.85,543.59,445.86,540.6z"/>
			</g>
		</g>
		<path class="st14" d="M455.55,521.45c1.81,3.49,0.44,7.79-3.05,9.6c-3.49,1.81-7.79,0.44-9.6-3.05c-1.81-3.49-0.44-7.79,3.05-9.59
			C449.44,516.6,453.74,517.96,455.55,521.45z"/>
		<path class="st23" d="M455.55,521.45c1.81,3.49,0.44,7.79-3.05,9.6c-3.49,1.81-7.79,0.44-9.6-3.05c-1.81-3.49-0.44-7.79,3.05-9.59
			C449.44,516.6,453.74,517.96,455.55,521.45z"/>
		<polygon class="st14" points="452.56,524.88 450.76,527.69 447.42,527.54 445.89,524.57 447.69,521.76 451.03,521.92 		"/>
	</g>
	<rect x="443.85" y="536.78" class="st12" width="136.51" height="93.25"/>
	<path class="st3" d="M198.23,533.58l4.27-11.79c0,0,32.47-1.3,40.32,6.31c7.82,7.58-12.49,19.92-12.67,20.03c0,0,0,0-0.01,0
		C230.05,548.19,228.48,547.59,198.23,533.58z"/>
	<path class="st10" d="M230.36,547.79l9.83-21.83c0,0,30.89,6.98,29.76,13.61C268.83,546.2,230.36,547.79,230.36,547.79z"/>
	<path class="st3" d="M201.53,521.18c0,0,32.72-10.13,38.28-5.76c5.56,4.37-26.52,11.27-26.52,11.27L201.53,521.18z"/>
	<polygon class="st3" points="204.25,536.35 117.6,502.61 136.8,476.61 209.4,518.72 	"/>
	<polygon class="st3" points="298.01,548.35 385.85,516.61 363.35,483.61 292.86,530.72 	"/>
	<path class="st3" d="M306.77,542.38l-6.28-10.86c0,0-32.19,4.43-38.58,13.31c-6.37,8.84,15.81,17.41,16,17.49c0,0,0,0,0.01,0
		C278.02,562.37,279.46,561.49,306.77,542.38z"/>
	<path class="st10" d="M277.64,562.03l-13.52-19.76c0,0-29.17,12.31-26.9,18.63S277.64,562.03,277.64,562.03z"/>
	<path class="st3" d="M301.33,530.75c0,0-33.99-4.21-38.7,1.07c-4.7,5.28,28.09,6.42,28.09,6.42L301.33,530.75z"/>
	<path class="st3" d="M449.46,579.81c0.19-0.07,22.36-8.65,16-17.49c-6.39-8.87-32.58-16.31-32.58-16.31l-3.91,14.84l20.75,18.67"/>
	<path class="st10" d="M449.72,579.53l13.52-19.76c0,0,29.17,12.31,26.9,18.63S449.72,579.53,449.72,579.53z"/>
	<polygon class="st10" points="433.1,545.98 443.85,536.78 443.6,549.98 	"/>
	<path class="st3" d="M433.1,545.98c0,0,26.93-1.95,31.63,3.34c4.7,5.28-28.09,6.42-28.09,6.42L433.1,545.98z"/>
</g>
</svg>
