<?xml version="1.0" encoding="utf-8"?>
<!-- Generator: Adobe Illustrator 24.2.1, SVG Export Plug-In . SVG Version: 6.00 Build 0)  -->
<svg version="1.1" id="Слой_1" xmlns="http://www.w3.org/2000/svg" xmlns:xlink="http://www.w3.org/1999/xlink" x="0px" y="0px"
	 viewBox="0 0 864.61 1381.53" style="enable-background:new 0 0 864.61 1381.53;" xml:space="preserve">
<style type="text/css">
	.st0{fill:#FFFFFF;}
	.st1{fill:#C2E1CE;}
	.st2{fill:#E3AB84;}
	.st3{fill:none;stroke:#D7816C;stroke-miterlimit:10;}
	.st4{fill-rule:evenodd;clip-rule:evenodd;fill:#1C2036;}
	.st5{fill-rule:evenodd;clip-rule:evenodd;fill:#484A73;}
	.st6{fill-rule:evenodd;clip-rule:evenodd;fill:#2F3C5A;}
	.st7{fill-rule:evenodd;clip-rule:evenodd;fill:#E3AB84;}
	.st8{fill-rule:evenodd;clip-rule:evenodd;fill:#D7816C;}
	.st9{fill-rule:evenodd;clip-rule:evenodd;fill:#FFFFFF;}
	.st10{fill-rule:evenodd;clip-rule:evenodd;fill:none;stroke:#D7816C;stroke-miterlimit:10;}
	.st11{fill:#1C2036;}
	.st12{fill:#2F3C5A;}
	.st13{fill-rule:evenodd;clip-rule:evenodd;fill:#F3E9D6;}
	.st14{fill:#F3E9D6;}
	.st15{opacity:0.5;fill-rule:evenodd;clip-rule:evenodd;fill:#FFFFFF;}
	.st16{fill-rule:evenodd;clip-rule:evenodd;fill:none;stroke:#1C2036;stroke-miterlimit:10;}
	.st17{opacity:0.5;fill-rule:evenodd;clip-rule:evenodd;fill:none;stroke:#FFFFFF;stroke-miterlimit:10;}
	.st18{fill-rule:evenodd;clip-rule:evenodd;fill:none;stroke:#70BE8D;stroke-miterlimit:10;}
	.st19{fill:#484A73;}
	.st20{fill:#D7816C;}
	.st21{fill-rule:evenodd;clip-rule:evenodd;fill:none;stroke:#EFF7F3;stroke-miterlimit:10;}
	.st22{fill-rule:evenodd;clip-rule:evenodd;fill:#C2E1CE;}
</style>
<g>
	<g>
		<path class="st0" d="M864.61,217.86c-28.5,10.92-64.42,26.1-102.44,45.79c-80.68,41.8-187.68,112.93-239.14,214.57
			c-13.67,27.02-22.84,54.93-27.48,83.65c-1.83,0.11-3.67,0.22-5.53,0.3c4.67-29.69,14.08-58.52,28.21-86.4
			c52.1-102.93,160.13-174.8,241.56-216.94c38.89-20.14,75.61-35.6,104.52-46.62C864.45,214.08,864.56,215.97,864.61,217.86z"/>
		<path class="st0" d="M857.6,294.66c-0.4,1.94-0.86,3.91-1.35,5.88c-22.95,5.8-57.41,17.85-90.96,42.36
			c-41.85,30.55-89.02,85.97-103.09,184.1c-1.91,0.76-3.86,1.54-5.8,2.29c13.81-101.99,62.64-159.4,105.9-190.89
			C797.74,312.57,834.19,300.3,857.6,294.66z"/>
		<path class="st0" d="M419.97,562.43c-1.83-0.05-3.67-0.13-5.5-0.22c-0.65-15.02-3.4-36.57-12.22-60.67
			c-15.42-42.07-53.02-100.83-144.62-141.87c-91.71-41.12-147.99-97.86-162.77-164.14C85.59,154,93.24,111.15,116.95,69.6
			c1.73,0.57,3.45,1.19,5.2,1.83c-23.46,40.67-31.07,82.49-22.03,122.94c14.4,64.53,69.63,120,159.72,160.37
			c93.46,41.91,131.84,102.09,147.56,145.24C416.54,525.03,419.37,547.12,419.97,562.43z"/>
		<path class="st0" d="M76.58,473.99c-1.65-1.19-3.26-2.37-4.88-3.64c6.2-41.91,3.07-106.81-43.6-184.21
			C-10.87,221.47-9.28,147.45,32.73,72c3.56-6.36,7.25-12.51,11.06-18.39c2.02,0.11,4.07,0.24,6.15,0.43
			c-4.31,6.58-8.55,13.48-12.57,20.71C-4.16,149.42-5.72,219.59,32.7,283.33C81.24,363.83,83.48,431.22,76.58,473.99z"/>
		<path class="st0" d="M343.33,556.34c-1.97-0.24-3.94-0.49-5.91-0.73c-12.67-37.27-38.78-89.1-89.47-112.53
			c-15.64-7.23-29.93-7.25-42.47-0.03c-22,12.7-35.78,45.36-44.17,75.67c-1.78-0.59-3.53-1.21-5.26-1.89
			c8.68-31.12,23.16-64.85,46.73-78.44c14.13-8.14,30.09-8.22,47.43-0.19C303.74,462.93,330.63,517.97,343.33,556.34z"/>
		<path class="st0" d="M759.66,21.25c-8.2,14.37-16.45,30.71-25.24,48.13c-40.85,81.03-91.71,181.91-203.54,207.18
			c-14.99,3.4-29.42,5.1-43.17,5.1c-31.52,0-59.68-8.9-84.03-26.64c-32.84-23.92-54.2-60.86-67.95-95.92
			c1.91-0.05,3.75-0.19,5.58-0.38c13.46,33.76,34.14,69.03,65.56,91.93c33.65,24.51,74.99,31.47,122.83,20.66
			c109.35-24.73,159.59-124.31,199.93-204.35c8.9-17.64,17.26-34.19,25.62-48.78C756.72,19.17,758.2,20.17,759.66,21.25z"/>
		<path class="st0" d="M728,2.32c-26.08,47.24-78.88,125.42-159.07,164.33c-12.62,6.12-24.92,9.17-36.86,9.17
			c-10.92,0-21.49-2.56-31.71-7.69c-28.37-14.21-49.97-46.09-65.8-79.66c1.32-1.59,2.64-3.18,3.96-4.83
			c15.53,33.68,36.7,65.85,64.26,79.66c19.77,9.92,41.23,9.41,63.77-1.51C645.38,123.56,697.39,46.62,723.15,0
			C724.77,0.73,726.38,1.51,728,2.32z"/>
	</g>
	<path class="st1" d="M614.01,928.89c24.19,0,46.71-1.51,65.66-4.11c14.82,2.57,33.7,4.11,54.28,4.11
		c47.62,0,86.23-8.25,86.23-18.44s-38.61-18.44-86.23-18.44c-3.03,0-6.02,0.03-8.97,0.1c-19.13-9.03-61.6-15.31-110.97-15.31
		c-67.27,0-121.8,11.66-121.8,26.04C492.21,917.23,546.74,928.89,614.01,928.89z"/>
	<path class="st2" d="M589.59,435.09c0,0-71.73,115.82-81.59,104.94c-9.86-10.89-7.49-46.44,47.85-134.73L589.59,435.09z"/>
	<path class="st2" d="M112.42,526.62c0,0-3.3-3.5,10.36-7c13.66-3.5,27.79,3,27.79,8.5s-5.18,25.5-15.07,26.5
		C125.61,555.62,112.42,526.62,112.42,526.62z"/>
	<path class="st3" d="M112.82,523.62c0,0,19-10.75,34.75,0"/>
	<path class="st2" d="M112.42,526.62c0,0-3.3-3.5,10.36-7c13.66-3.5,27.79,3,27.79,8.5s-5.18,25.5-15.07,26.5
		C125.61,555.62,112.42,526.62,112.42,526.62z"/>
	<path class="st3" d="M112.82,523.62c0,0,19-10.75,34.75,0"/>
	<path class="st2" d="M112.42,526.62c0,0-3.3-3.5,10.36-7c13.66-3.5,27.79,3,27.79,8.5s-5.18,25.5-15.07,26.5
		C125.61,555.62,112.42,526.62,112.42,526.62z"/>
	<path class="st3" d="M112.82,523.62c0,0,19-10.75,34.75,0"/>
	<path class="st4" d="M682.53,864.89c-3.42-73.85,12.82-341.27,12.47-345.55c-0.43-5.24-57.07-13.59-85.22-9.65
		c-28.16,3.94-32.69,12.43-32.69,12.43s10.5,256.5,13.5,338.5l26,5c9.87-63.1,11.24-258.92,16.5-270.5c2.5-5.5-0.01-1.04,1.5,5.5
		c1.51,6.54,10.1,207.66,19.61,269.29L682.53,864.89z"/>
	<path class="st5" d="M586.75,900.22h23.17c1.86,0,3.38-1.65,3.38-3.66v-6.23c0-2.01-1.52-3.66-3.38-3.66h-23.17
		c-1.86,0-3.38,1.65-3.38,3.66v6.23C583.37,898.57,584.89,900.22,586.75,900.22z"/>
	<path class="st6" d="M547.46,894.39c0,0-1.32-0.95-1.32-3.82c0-11.12,17.43-5.7,23.9-9.54c5.46-3.24,14.38-11.42,14.53-21.47
		c0,0,0-5.63,6.49-5.63c6.49,0,7.97,0,10.2,0c2.22,0,5.93,1.71,6.49,5.02c0,0,4.27,0,6.58,0c2.32,0,5.65,0.5,5.65,7.44
		c0,6.94,0,21.91,0,23.67c0,1.76-0.68,3.87-1.82,4.33c0,0-0.45,2.36-0.73,2.61c-0.28,0.25-5.05,1.26-7.19,0.91
		c-2.13-0.35-8-3.49-8-3.49s-1.6-0.48-1.6-2.62c0,0-0.09-1.91-2.39-1.91c-2.29,0-6.84,1.93-7.42,2.29
		c-0.58,0.35-0.87,0.96-0.87,2.21c0,1.25-5.21,3.82-11.79,4.22C571.61,899.01,547.46,894.39,547.46,894.39z"/>
	<path class="st6" d="M607.75,858.95c0,0,4.27,0,6.58,0c2.32,0,5.65,0.5,5.65,7.44c0,6.94,0,21.91,0,23.67
		c0,1.76-0.68,3.87-1.82,4.33c0,0-0.45,2.36-0.73,2.61c-0.28,0.25-5.05,1.26-7.19,0.91c-2.13-0.35-8-3.49-8-3.49s-1.6-0.48-1.6-2.62
		c0,0-0.09-1.91-2.39-1.91c-2.29,0-6.84,1.93-7.42,2.29c-0.58,0.35-0.87,0.96-0.87,2.21c0,1.25-5.21,3.82-11.79,4.22
		c-4.19,0.26-15.51-1.53-23.17-2.85c1.51-7.02,6.14-9.16,10.76-9.16c5.64,0,10.69,0,24.89,0c14.19,0,17.08-11.78,17.08-17.78
		C607.75,862.8,607.75,858.95,607.75,858.95z"/>
	<path class="st5" d="M547.46,900.22h42.52c0.8,0,1.45-0.71,1.45-1.58v-2.68c0-0.87-0.65-1.57-1.45-1.57h-42.52
		c-0.8,0-1.45,0.71-1.45,1.57v2.68C546.01,899.51,546.66,900.22,547.46,900.22z"/>
	<path class="st5" d="M584.83,900.22h33.34c0.8,0,1.45-0.71,1.45-1.58v-2.68c0-0.87-0.65-1.57-1.45-1.57h-33.34
		c-0.8,0-1.45,0.71-1.45,1.57v2.68C583.37,899.51,584.02,900.22,584.83,900.22z"/>
	<path class="st5" d="M674.75,860.86c0,0-1.28-4.52-3.04-4.52s-10.23,0-11.88,0c-1.66,0-7.58,1.67-7.58,7.1c0,0-3.76,3.61-4.4,4.48
		c-0.64,0.88-1.2,1.78-1.2,4.78c0,3,0,14.58,0,16.74c0,2.16-0.53,10.69,12.6,10.69c13.14,0,20.97,0,25.04,0
		c4.07,0,7.21-4.03,7.21-7.84c0-3.81-0.7-7.68-5.1-14.74c-4.4-7.06-7.59-12.3-7.59-12.3S676.85,861.92,674.75,860.86z"/>
	<path class="st5" d="M689.61,856.36c-1.9,0.13-7.37,1.87-7.37,7.09c0,0-3.76,3.61-4.4,4.48c-0.64,0.88-1.2,1.78-1.2,4.78
		c0,3,0,14.58,0,16.74c0,2.16-0.53,10.69,12.6,10.69h3.29l-1.37-8.53c0,0-5.57-18.3-6.12-25.74
		C684.51,858.47,689.55,856.38,689.61,856.36z"/>
	<path class="st5" d="M691.61,891.54h-44.56c-1.12,0-2.03,1.02-2.03,2.27v4.13c0,1.25,0.91,2.28,2.03,2.28h44.56
		c1.12,0,2.03-1.02,2.03-2.28v-4.13C693.64,892.56,692.73,891.54,691.61,891.54z"/>
	<path class="st5" d="M689.65,893.82v4.12c0,1.06,0.65,1.95,1.52,2.21c0.16,0.05,0.34,0.07,0.51,0.07h-14.63
		c-1.12,0-2.03-1.03-2.03-2.28v-4.12c0-1.12,0.73-2.06,1.68-2.24c0.11-0.02,0.23-0.03,0.35-0.03h14.63
		C690.56,891.54,689.65,892.56,689.65,893.82z"/>
	<path class="st7" d="M633.95,324.87L633.95,324.87c-8.22,0-14.95,6.94-14.95,15.42v20.4c0,8.48,6.73,15.42,14.95,15.42l0,0
		c8.23,0,14.96-6.94,14.96-15.42v-20.4C648.91,331.81,642.18,324.87,633.95,324.87z"/>
	<path class="st8" d="M633.95,299.87L633.95,299.87c-8.22,0-14.95,6.94-14.95,15.42v20.4c0,8.48,6.73,15.42,14.95,15.42l0,0
		c8.23,0,14.96-6.94,14.96-15.42v-20.4C648.91,306.81,642.18,299.87,633.95,299.87z"/>
	<path class="st8" d="M588.33,274.34c0.33-0.05,0.67-0.08,1.01-0.11c2.18,0.05,5.05,1.7,4.79,4.87l-0.64,7.84
		c5.16-0.17,6.11-5.11,6.02-9.15c2.99,2.75,4.73,6.8,4.37,11.16c-0.62,7.51-7.2,13.09-14.71,12.48c-7.5-0.62-9.05-15.14-8.43-22.65
		C580.74,278.79,581.96,273.81,588.33,274.34z"/>
	<path class="st8" d="M687.58,280.42c0.33,0.06,0.66,0.14,0.99,0.23l0.01,0l0,0c5.99,1.65,6.26,6.96,5.98,13.44
		c-0.33,7.52-2.7,13.66-10.22,13.33c-7.52-0.33-13.36-6.7-13.02-14.22c0.19-4.37,2.42-8.17,5.73-10.53c-0.6,4-0.28,9.01,4.82,9.83
		l0.35-7.86C682.35,281.47,685.41,280.19,687.58,280.42z"/>
	<path class="st7" d="M642.74,209.33L642.74,209.33c-25.64-1.61-47.93,18.04-49.54,43.67l-2.67,42.39
		c7.2,24.06,24.87,48.4,43.67,49.53l0.01,0c17.2,0.2,46.58-19.84,48.2-45.47l4-40.59C688.02,233.23,668.37,210.94,642.74,209.33z"/>
	<path class="st9" d="M623.37,313.68c-0.47,6.24,7.13,12.22,13.37,12.69c6.24,0.47,14.66-5.26,15.12-11.5l-0.02,0
		c0.08-1.07-0.73-2.02-1.8-2.1l-24.56-0.9c-1.07-0.08-2.02,0.73-2.1,1.8L623.37,313.68z"/>
	<path class="st9" d="M647.31,313.86l-17.53-1.32c-0.42,1.92,0.33,3.94,1.6,4.47c1.55,0.64,14.26,1.26,15.23,0.33
		C647.08,316.89,647.25,315.34,647.31,313.86z"/>
	<path class="st8" d="M664.95,305.28c-5.2,2.16-8.38,6.35-7.1,9.37c1.29,3.01,6.54,3.71,11.74,1.55c5.2-2.16,8.38-6.35,7.1-9.37
		C675.4,303.82,670.15,303.13,664.95,305.28z"/>
	<path class="st8" d="M612.87,302.64c-4.11-2.61-8.84-2.48-10.57,0.27c-1.73,2.76,0.2,7.12,4.3,9.73c4.1,2.61,8.84,2.49,10.57-0.27
		C618.9,309.61,616.98,305.25,612.87,302.64z"/>
	<path class="st4" d="M611.64,274.67c-0.78,0.36-1.7,0.01-2.06-0.77c-0.36-0.78-0.01-1.7,0.76-2.05c4.19-1.98,9.7-2.03,13.66,0.54
		c0.72,0.47,0.92,1.43,0.46,2.15c-0.47,0.72-1.43,0.92-2.15,0.46C619.11,272.91,615,273.2,611.64,274.67z"/>
	<path class="st4" d="M665.73,276.47c-3.26-1.7-7.34-2.28-10.67-0.44c-0.75,0.41-1.7,0.14-2.11-0.61c-0.41-0.75-0.14-1.7,0.61-2.11
		c4.13-2.28,9.62-1.83,13.66,0.43c0.75,0.41,1.03,1.36,0.62,2.11C667.42,276.6,666.47,276.88,665.73,276.47z"/>
	<path class="st10" d="M639.66,303.39c0,0-0.23,2.62-4.23,1.55c-4-1.07,1.42-11.85,3.52-11.25"/>
	<path class="st4" d="M621.86,243.89c-5.02-0.32-14.88,1.45-15.51,11.48c-0.63,10.03-3.03,17.86-9.43,17.46c0,0-0.22,3.47-0.5,7.87
		c-0.28,4.4-0.99,8.82-5.14,8.56c0.6-9.46-2.05-13.36-2.05-13.36s-5.63-18-4.93-29.06c0.7-11.06,11.17-20.39,26.33-29.68
		c19.63-12.02,45.81-10.37,63.77,4.01c13.88,11.12,22.55,17.23,21.86,28.29c-0.7,11.07-7.99,32.67-7.99,32.67s-3.12,3.54-3.71,13
		c-4.15-0.26-4.3-4.74-4.02-9.14c0.28-4.4,0.5-7.87,0.5-7.87c-6.4-0.4-7.8-8.47-7.16-18.5c0.63-10.03-8.93-13.02-13.95-13.33
		C647.23,245.49,634.54,244.69,621.86,243.89z"/>
	<g>
		<path class="st4" d="M673.11,242.02c0,0,10.72-7.39,10.73-15.83c0.02-15.49-31.67-41.11-51.26-30.08
			c-46.59-17.45-64.2,17.62-23.62,49.94c0.19,0.15,0.37,0.28,0.56,0.43c3.1-2.91,7.61-4.02,10.55-4.21
			c12.69-0.8,25.37-1.6,38.06-2.4c3.31-0.21,8.71,0.49,12.19,3.85C672.11,242.7,673.11,242.02,673.11,242.02z"/>
		<path class="st4" d="M681.52,230.12c-0.19,0.3-0.11,0.7,0.17,0.9c0.28,0.2,0.66,0.12,0.85-0.17c0.02-0.03,7.25-11.1-3.06-24.37
			c-0.21-0.28-0.6-0.32-0.86-0.09c-0.26,0.23-0.29,0.64-0.08,0.91C688.26,219.81,681.54,230.09,681.52,230.12z"/>
		<path class="st4" d="M670.2,205.82c0.22,0.27,0.61,0.31,0.86,0.08c0.26-0.23,0.29-0.64,0.07-0.91c-0.04-0.04-12.55-15.96-25-15.37
			c-12.92,0.61-8.9,14.54-8.89,14.58c0.09,0.34,0.44,0.54,0.76,0.45c0.32-0.1,0.51-0.46,0.41-0.81c-0.01-0.03-3.58-12.39,7.78-12.93
			C658.04,190.35,670.16,205.77,670.2,205.82z"/>
	</g>
	<g>
		<path class="st4" d="M657.58,296.04c2.96,0.68,5.91-1.17,6.59-4.13c0.68-2.96-1.17-5.91-4.13-6.59c-2.96-0.68-5.91,1.17-6.59,4.13
			C652.77,292.42,654.62,295.36,657.58,296.04z"/>
		<path class="st4" d="M615.37,293.41c2.96,0.68,5.91-1.17,6.59-4.13c0.68-2.96-1.17-5.91-4.13-6.59c-2.96-0.68-5.91,1.17-6.59,4.13
			C610.56,289.79,612.41,292.74,615.37,293.41z"/>
	</g>
	<path class="st2" d="M271.53,457.62c0,0,22.36,97.32,33.25,92.55c10.89-4.77,17.24-19.57,1.73-103.36L271.53,457.62z"/>
	<path class="st11" d="M296.43,428.03c9.47,4.41,18.68,44.56,18.68,44.56l-36.92,19.22c0,0-18.65-24.2-12.68-36.4
		C271.72,442.71,285.62,423,296.43,428.03z"/>
	<path class="st2" d="M177.5,434.2c0,0-71.83,88.58-60.42,94.42c11.41,5.84,35.61-1.7,95.77-70.76L177.5,434.2z"/>
	<path class="st1" d="M269.75,928.89c-24.19,0-46.71-1.51-65.66-4.11c-14.82,2.57-33.7,4.11-54.28,4.11
		c-47.62,0-86.23-8.25-86.23-18.44s38.61-18.44,86.23-18.44c3.03,0,6.02,0.03,8.97,0.1c19.13-9.03,61.6-15.31,110.97-15.31
		c67.27,0,121.8,11.66,121.8,26.04C391.55,917.23,337.02,928.89,269.75,928.89z"/>
	<path class="st5" d="M232.4,596.58l11.71,244.7c0,0,10.95,0,13.19,0c2.25,0,2.72-2.15,2.72-2.15
		c3.95-24.9,26.95-145.29,31.54-176.26c4.59-30.97,7.79-51.44,4.77-68.28c-1.39-7.76-11.1-29.5-11.1-29.5s-45.48,4.46-53.02,3.38
		C226.94,567.72,232.4,596.58,232.4,596.58z"/>
	<path class="st5" d="M241.04,596.58l-11.71,244.7c0,0-10.95,0-13.19,0c-2.25,0-2.72-2.15-2.72-2.15
		c-3.95-24.9-26.95-145.29-31.54-176.26c-4.59-30.97-7.79-51.44-4.77-68.28c1.39-7.76,11.1-29.5,11.1-29.5s45.48,4.46,53.02,3.38
		C246.5,567.72,241.04,596.58,241.04,596.58z"/>
	<path class="st12" d="M247.54,633.38c13.39,29.6-2.42,83.57-8.25,103.12c-1.54-29.73-2.31-67.47-4.78-94.2
		C237.24,627.33,241.36,619.74,247.54,633.38z"/>
	<path class="st13" d="M184.11,347.32c0,0,8.77,42.24,8.19,76.7c-0.57,34.46,56.04,2.77,56.04,2.77s46.01,9.97,34.49-22.5
		C271.3,371.8,283.91,331,283.91,331l-52.44-7.37L184.11,347.32z"/>
	<path class="st7" d="M236.35,347.32L236.35,347.32c8.68,0,15.79,9.32,15.79,20.71v39.65c0,11.39-7.1,20.71-15.79,20.71l0,0
		c-8.68,0-15.79-9.32-15.79-20.71v-39.65C220.56,356.63,227.67,347.32,236.35,347.32z"/>
	<path class="st8" d="M236.35,347.32L236.35,347.32c8.68,0,15.79,9.32,15.79,20.71v32.79c-3.53,2.05-7.4,3.2-11.55,3.2
		c-7.42,0-14.35-4.76-20.03-11.99v-24C220.56,356.63,227.67,347.32,236.35,347.32z"/>
	<g>
		<path class="st8" d="M276.89,321.49c0.33-0.01,0.65,0,0.98,0.01l0.01,0l0,0c6,0.31,11.21,4.72,12.29,10.88
			c1.26,7.17-3.53,14-10.7,15.27c-7.17,1.26-14.01-3.53-15.27-10.7c-0.73-4.17,0.58-8.22,3.21-11.13c0.27,3.9,1.62,8.56,6.6,8.27
			l-1.32-7.49C272.17,323.58,274.79,321.73,276.89,321.49z"/>
		<path class="st8" d="M187.82,335.42c-0.32,0.09-0.63,0.2-0.93,0.31l-0.01,0l0,0c-5.62,2.12-9.23,7.91-8.39,14.12
			c0.99,7.21,7.64,12.26,14.85,11.27c7.21-0.99,12.26-7.64,11.27-14.85c-0.57-4.19-3.06-7.65-6.46-9.62
			c0.93,3.79,1.07,8.65-3.77,9.89l-1.03-7.53C192.94,335.97,189.89,335.01,187.82,335.42z"/>
	</g>
	<path class="st7" d="M240.57,392.12c-21.49,2.58-36.68-21.01-50.92-44.53l-5.14-31.43c-4.01-24.5,12.76-47.82,37.26-51.82h0
		c24.49-4,47.82,12.76,51.82,37.26l5.03,30.76C272.43,357.63,265.57,389.12,240.57,392.12z"/>
	<path class="st8" d="M264.71,343.95c-3.17-0.93-6.96,1.43-8.45,5.27c-1.49,3.85-2.86,8.71,0.31,9.65
		c3.17,0.93,9.68-2.42,11.18-6.27C269.24,348.76,267.88,344.88,264.71,343.95z"/>
	<path class="st8" d="M213.45,352.87c-4.39-1.2-8.6,0.92-9.41,4.73c-0.81,3.81,2.09,7.89,6.48,9.09c4.39,1.21,10,0.5,10.81-3.32
		C222.13,359.55,217.84,354.07,213.45,352.87z"/>
	<g>
		<path class="st8" d="M217.29,320.01c1.01,0.27,1.6,1.31,1.33,2.32c-0.27,1.01-1.31,1.6-2.32,1.33c-0.02-0.01-6.08-1.75-10.9,2.51
			c-0.79,0.69-1.99,0.62-2.68-0.17c-0.69-0.79-0.62-1.99,0.17-2.68C209.25,317.7,217.26,320,217.29,320.01z"/>
		<path class="st8" d="M261.47,313.64c0.98,0.35,1.49,1.44,1.14,2.42c-0.35,0.98-1.44,1.49-2.42,1.14
			c-0.02-0.01-5.92-2.24-11.06,1.61c-0.84,0.63-2.03,0.46-2.66-0.38c-0.62-0.84-0.45-2.03,0.39-2.66
			C253.65,310.69,261.45,313.63,261.47,313.64z"/>
	</g>
	<path class="st10" d="M239.54,351.91c-0.02,0.96-4.91,2.01-6.44,0.8c-1.02-0.81-0.53-4.52,0.02-7.03"/>
	<path class="st13" d="M179.22,329.34l3.07,9.34c0,0,5.86-0.23,6.71,4.94c0,0,3.18-5.98,1.26-12.5c0,0,8.88-14.59,6.04-28.81
		c-2.84-14.22-7.69-23.45-7.69-23.45S171.03,299.1,179.22,329.34z"/>
	<path class="st13" d="M282.81,312.4l0.06,9.83c0,0-5.64,1.65-4.79,6.81c0,0-4.92-4.66-5.18-11.44c0,0-13.07-11.01-14.9-25.39
		c-1.84-14.38,2.59-21.76,2.59-21.76S280.94,281.13,282.81,312.4z"/>
	<g>
		<path class="st4" d="M256.17,340.6c2.93-0.48,4.92-3.24,4.44-6.17c-0.07-0.4-0.18-0.78-0.32-1.14l0.57-0.31
			c0.59-0.34,1.18-0.81,1.67-1.48c0.22-0.3,0.16-0.72-0.13-0.94c-0.3-0.22-0.72-0.16-0.94,0.13c-0.49,0.65-1.08,1.06-1.66,1.32
			l-0.01-0.01c0.55-0.46,1.07-1.1,1.37-1.99c0.12-0.35-0.07-0.73-0.42-0.85c-0.35-0.12-0.73,0.07-0.85,0.43
			c-0.24,0.73-0.71,1.23-1.16,1.56l-0.06-0.05c0.34-0.39,0.65-0.92,0.73-1.61c0.04-0.37-0.22-0.7-0.59-0.75
			c-0.37-0.04-0.7,0.22-0.75,0.59c-0.06,0.5-0.32,0.84-0.56,1.06c-0.92-0.41-1.97-0.57-3.05-0.39c-2.93,0.48-4.92,3.24-4.44,6.17
			C250.48,339.09,253.24,341.07,256.17,340.6z"/>
		<path class="st4" d="M213.46,347.58c-2.93,0.48-5.69-1.51-6.17-4.43c-0.07-0.4-0.09-0.8-0.06-1.18l-0.64-0.12
			c-0.67-0.13-1.37-0.4-2.06-0.87c-0.31-0.21-0.38-0.63-0.17-0.93c0.21-0.31,0.63-0.38,0.94-0.17c0.67,0.46,1.36,0.66,2,0.72
			l0.01-0.01c-0.67-0.26-1.37-0.7-1.93-1.45c-0.22-0.3-0.16-0.72,0.13-0.94c0.29-0.22,0.72-0.16,0.94,0.13
			c0.47,0.62,1.06,0.94,1.6,1.11l0.04-0.06c-0.44-0.26-0.91-0.66-1.21-1.29c-0.16-0.34-0.01-0.74,0.32-0.9s0.74-0.02,0.9,0.32
			c0.21,0.45,0.57,0.7,0.87,0.82c0.74-0.69,1.69-1.17,2.76-1.35c2.93-0.48,5.69,1.51,6.17,4.43
			C218.37,344.34,216.39,347.1,213.46,347.58z"/>
	</g>
	<path class="st9" d="M249.96,361.43c0.84,5.17-5.32,11.29-10.49,12.13c-5.17,0.84-13.57-3.59-14.42-8.76
		c-0.15-0.95,4.02-0.92,4.97-1.07l15.27-2.5C246.24,361.08,249.8,360.48,249.96,361.43z"/>
	<path class="st4" d="M219.84,411.28c0,0,3.58,9.21,16.76,9.21c13.17,0,15.37-11.55,15.37-11.55l44.9,19.73
		c-7.25,10.76-9.2,42.36-9.2,42.36c1.4,10.29-9.08,50.19-8.61,58.14c0.47,7.95,14.53,46.3,14.53,46.3
		c-8.19,8.42-41.77,20.46-56.19,20.46c-14.42,0-45.77-11.93-53.96-20.35c0,0,15.2-41.68,15.67-49.64
		c0.47-7.95-17.28-40.31-15.88-50.6c0,0,0.79-32.85-6.46-43.6L219.84,411.28z"/>
	<path class="st13" d="M187.04,284.6c0,0,20.74-79.3,83.7-17.98c13.22,12.87,27.08,26.33,25.84,33.71
		C291.92,328.1,195.48,320.1,187.04,284.6z"/>
	<g>
		<g>
			<path class="st14" d="M277.87,280.99c1.04,2.9,1.96,5.85,2.87,8.8c2.37,7.72,4.49,15.52,6.38,23.38
				c2.67,11.1,4.9,22.31,6.59,33.61c1.94,13.01,3.18,26.14,3.39,39.29c0.21,13.47-0.64,27.01-3.24,40.25
				c-0.32,1.61-0.66,3.21-1.03,4.81c-0.07,0.31,0.41,0.45,0.48,0.13c3-13.03,4.23-26.43,4.31-39.79
				c0.09-13.29-0.94-26.58-2.71-39.75c-1.55-11.55-3.69-23.03-6.3-34.39c-1.95-8.49-4.16-16.93-6.66-25.28
				c-0.76-2.53-1.54-5.05-2.36-7.56c-0.35-1.05-0.58-2.52-1.17-3.47c-0.03-0.04-0.04-0.1-0.05-0.15
				C278.25,280.56,277.77,280.69,277.87,280.99L277.87,280.99z"/>
		</g>
	</g>
	<path class="st15" d="M188.61,278.85c0,0,39.84,41.45,101.21,8.61l-11.84-14c0,0-31.76,32.84-89.36,4.84V278.85z"/>
	<path class="st11" d="M180.42,429.68c-10.39,1.07-32.23,36-32.23,36l28.6,30.24c0,0,25.54-16.76,23.89-30.24
		C198.96,451.64,192.27,428.46,180.42,429.68z"/>
	<circle class="st9" cx="661.07" cy="292.87" r="2"/>
	<circle class="st9" cx="618.32" cy="289.87" r="2"/>
	<path class="st16" d="M591.06,194.7c0,0-27.28,16.46,11.05,57.59"/>
	<path class="st17" d="M185.07,488.12c0,0,20.4-17.76-8.3-56.38"/>
	<line class="st18" x1="279.05" y1="529.18" x2="261.07" y2="549.12"/>
	<line class="st17" x1="286.07" y1="487.12" x2="276.07" y2="446.12"/>
	<polygon class="st0" points="221.41,406.45 237.41,419.79 226.07,437.79 208.82,414.37 	"/>
	<polygon class="st0" points="251.41,406.45 235.41,419.79 246.74,437.79 263.82,412.62 	"/>
	<path class="st2" d="M257.31,842.78c3.16,25.16,0.84,20.17,29.51,31.51c28.67,11.33,8.39,12.01,5.33,11.33
		c-9.71-2.14-18.67-8.67-39.33-6s-8.1-19.56-8.1-19.56l0.77-23.11L257.31,842.78z"/>
	<path class="st19" d="M286.82,874.29c28.67,11.33,8.39,12.01,5.33,11.33c-9.71-2.14-18.67-8.67-39.33-6s-8.1-19.56-8.1-19.56
		s16.19,10.06,24.69,7.56L286.82,874.29z"/>
	<path class="st2" d="M215.58,842.78c-3.16,25.16-0.84,20.17-29.51,31.51c-28.67,11.33-8.39,12.01-5.33,11.33
		c9.71-2.14,18.67-8.67,39.33-6s8.1-19.56,8.1-19.56l-0.77-23.11L215.58,842.78z"/>
	<path class="st2" d="M368.73,457.73l-10.76-4.34c0,0-0.13-30.06,7.17-37.07c7.26-6.98,18,12.21,18.09,12.38c0,0,0,0,0,0.01
		C383.3,428.8,382.69,430.23,368.73,457.73z"/>
	<path class="st20" d="M382.94,428.5l-19.85-9.81c0,0,7.48-28.32,13.57-27.06C382.75,392.88,382.94,428.5,382.94,428.5z"/>
	<path class="st2" d="M357.38,454.26c0,0-8.28-30.59-4.05-35.58s9.53,24.89,9.53,24.89L357.38,454.26z"/>
	<polygon class="st2" points="357.03,451.16 309.21,522.46 333.41,548.08 369.29,456.6 	"/>
	<path class="st19" d="M186.07,874.29c-28.67,11.33-8.39,12.01-5.33,11.33c9.71-2.14,18.67-8.67,39.33-6s8.1-19.56,8.1-19.56
		s-16.19,10.06-24.69,7.56L186.07,874.29z"/>
	<polygon class="st6" points="353.16,628.12 115.16,628.12 86.07,538.12 379.07,538.12 	"/>
	<path class="st2" d="M687.07,434.59c0,0,71.73,115.82,81.59,104.94c9.86-10.89,7.49-46.44-47.85-134.73L687.07,434.59z"/>
	<rect x="164.66" y="579.82" class="st5" width="139" height="314.61"/>
	<rect x="86.07" y="527.12" class="st5" width="293" height="12"/>
	<rect x="129.16" y="886.12" class="st5" width="210" height="13"/>
	<path class="st2" d="M112.42,526.62c0,0-3.3-3.5,10.36-7c13.66-3.5,27.79,3,27.79,8.5s-5.18,25.5-15.07,26.5
		C125.61,555.62,112.42,526.62,112.42,526.62z"/>
	<path class="st3" d="M112.82,523.62c0,0,19-10.75,34.75,0"/>
	<path class="st13" d="M188.61,279.93c0,0-36.61,29.61,3.23,158.27c0,0,37.68,18.3,15.61-52.76S188.61,279.93,188.61,279.93z"/>
	<path class="st13" d="M270.84,280.97c0,0,39.93,24.95,16,157.49c0,0-35.18,22.74-21.9-50.47
		C278.22,314.77,270.84,280.97,270.84,280.97z"/>
	<path class="st9" d="M693.69,375.15c0,0,9.57,3.26,12.78,6.05c3.21,2.78,38.98,57.29,38.98,57.29l-35.88,37.14l-19.79-37.67
		C689.78,437.95,676.74,401.57,693.69,375.15z"/>
	<path class="st9" d="M581.7,373.9c0,0-9.57,3.26-12.78,6.05c-3.21,2.78-39.88,62.53-39.88,62.53l41.53,33.14l23.03-50.59
		C593.6,425.03,588,411.64,581.7,373.9z"/>
	<path class="st21" d="M698.26,383.96c-14.21,22.64-2.28,54.94-2.28,54.94 M585.39,490.71c-5.11-4-6.37-17.3-6.37-17.3
		 M679.73,492.71c9.99-8.66,12.92-23.11,12.92-23.11 M715.13,427.46l-0.89-35.68 M558.87,430.12l2.16-38.18 M579.38,381.54
		c-10.12,23.78-4.43,57.35-4.43,57.35"/>
	<path class="st9" d="M635.47,372.59c-12.42,0-14.96-9.54-14.96-9.54L581.7,373.9c-8.95,24.66-6.75,64.99-6.75,64.99
		c6.47,41.84,4.81,45.69-0.48,87.29c-0.54,4.23,0.54,9.1,0.54,9.1c12.67,22.04,110.92,19.45,123.12-1.78c0,0,1.08-4.87,0.54-9.1
		c-5.29-41.6-9.17-43.67-2.69-85.51c0,0-15.53-36.87-2.29-63.75l-43.27-12.1C650.42,363.06,647.88,372.59,635.47,372.59z"/>
	<polygon class="st9" points="608.28,366.79 618.41,354.45 635.47,372.59 621.62,384.79 	"/>
	<polygon class="st9" points="649.91,352.62 662.62,366.45 646.28,384.79 635.47,372.59 	"/>
	<polyline class="st9" points="635.3,372.55 621.45,384.74 608.12,366.74 	"/>
	<polyline class="st21" points="635.3,372.55 621.45,384.74 608.12,366.74 	"/>
	<polyline class="st21" points="662.62,366.45 646.28,384.79 635.47,372.59 	"/>
	<polyline class="st21" points="630.28,377.45 632.28,550.79 643.62,550.79 640.95,378.79 	"/>
	<polygon class="st6" points="762.16,632.12 524.16,632.12 495.07,542.12 788.07,542.12 	"/>
	<rect x="573.66" y="583.82" class="st5" width="139" height="314.61"/>
	<rect x="495.07" y="531.12" class="st5" width="293" height="12"/>
	<rect x="538.16" y="890.12" class="st5" width="210" height="13"/>
	<path class="st2" d="M497.45,526.07c0,0-3.6-3.82,11.3-7.64s30.31,3.27,30.31,9.27s-5.65,27.82-16.44,28.91
		C511.84,557.71,497.45,526.07,497.45,526.07z"/>
	<path class="st3" d="M497.89,522.8c0,0,20.73-11.73,37.91,0"/>
	<path class="st2" d="M497.45,526.07c0,0-3.6-3.82,11.3-7.64s30.31,3.27,30.31,9.27s-5.65,27.82-16.44,28.91
		C511.84,557.71,497.45,526.07,497.45,526.07z"/>
	<path class="st3" d="M497.89,522.8c0,0,20.73-11.73,37.91,0"/>
	<path class="st2" d="M497.45,526.07c0,0-3.6-3.82,11.3-7.64s30.31,3.27,30.31,9.27s-5.65,27.82-16.44,28.91
		C511.84,557.71,497.45,526.07,497.45,526.07z"/>
	<path class="st3" d="M497.89,522.8c0,0,20.73-11.73,37.91,0"/>
	<path class="st2" d="M497.45,526.07c0,0-3.6-3.82,11.3-7.64s30.31,3.27,30.31,9.27s-5.65,27.82-16.44,28.91
		C511.84,557.71,497.45,526.07,497.45,526.07z"/>
	<path class="st3" d="M497.89,522.8c0,0,20.73-11.73,37.91,0"/>
	<path class="st2" d="M782.21,527.57c0,0,3.6-3.82-11.3-7.64s-30.31,3.27-30.31,9.27s5.65,27.82,16.44,28.91
		C767.82,559.21,782.21,527.57,782.21,527.57z"/>
	<path class="st3" d="M781.77,524.3c0,0-20.73-11.73-37.91,0"/>
	<path class="st2" d="M782.21,527.57c0,0,3.6-3.82-11.3-7.64s-30.31,3.27-30.31,9.27s5.65,27.82,16.44,28.91
		C767.82,559.21,782.21,527.57,782.21,527.57z"/>
	<path class="st3" d="M781.77,524.3c0,0-20.73-11.73-37.91,0"/>
	<path class="st2" d="M782.21,527.57c0,0,3.6-3.82-11.3-7.64s-30.31,3.27-30.31,9.27s5.65,27.82,16.44,28.91
		C767.82,559.21,782.21,527.57,782.21,527.57z"/>
	<path class="st3" d="M781.77,524.3c0,0-20.73-11.73-37.91,0"/>
	<path class="st2" d="M782.21,527.57c0,0,3.6-3.82-11.3-7.64s-30.31,3.27-30.31,9.27s5.65,27.82,16.44,28.91
		C767.82,559.21,782.21,527.57,782.21,527.57z"/>
	<path class="st3" d="M781.77,524.3c0,0-20.73-11.73-37.91,0"/>
	<g>
		<path class="st22" d="M701.18,989.36l0.86-0.92c1.15,0.98,2.4,1.7,3.71,2.28c3.42,1.5,7.98-7.21,12.61-19.77l1.22-1.31l-0.48-0.73
			c2.67-7.45,5.34-16.06,7.81-24.63c2.22,11.35,4.41,22.05,4.19,25.75c-0.46,7.84-14.33,45.65-14.33,45.65
			c0.75,0.78,1.73,1.58,2.88,2.41c-2.45,6.08-4.95,12.81-5.6,16.44c-2.98,16.61,0.18,36.79,4.7,67.32
			c4.52,30.54,27.2,149.24,31.1,173.79c0,0,0.47,2.12,2.68,2.12c0.56,0,1.66,0,3,0l-3,1.48c-2.25,17.93-1.69,20.33-11.87,24.51
			c-0.02-0.01-0.04-0.01-0.05-0.01l-8.95,3.43c-2.41,0.9-5.12,1.92-8.22,3.15c-28.27,11.17-8.27,11.84-5.26,11.17
			c9.58-2.11,18.41-8.55,38.78-5.92c20.38,2.63,7.99-19.28,7.99-19.28l-0.62-18.52c0.75,0,1.21,0,1.21,0l7.29-152.26l7.29,152.26
			c0,0,0.69,0,1.75,0l-0.62,18.52c0,0-12.39,21.91,7.99,19.28c20.38-2.63,29.21,3.8,38.78,5.92c3.02,0.67,23.01,0-5.26-11.17
			c-3.1-1.22-5.81-2.25-8.22-3.15l-8.95-3.43c-0.02,0-0.04,0.01-0.05,0.01c-10.18-4.17-9.62-6.58-11.87-24.51l-3-1.48
			c1.09,0,1.97,0,2.45,0c2.21,0,2.68-2.12,2.68-2.12c3.9-24.55,26.58-143.25,31.1-173.79c4.52-30.54,7.68-50.72,4.7-67.32
			c-0.21-1.16-0.61-2.63-1.13-4.3c10.76-1.67,26.15-10.62,26.15-10.62s1.66-0.33,1.08-2.86l0.31,0.22c0,0-0.2-0.42-0.58-1.12
			c-0.29-0.78-0.75-1.72-1.45-2.85c5.73-20.2,2.02-89.02,1.22-102.51l2.91-3.07c0,0-21.54-34.44-31.78-35.49
			c-0.25-0.03-0.49-0.03-0.74-0.03l-7.02-3.33c25.93-90.46,11.54-127.32,3.7-139.36c-2.19-3.87-4.03-5.99-4.03-5.99
			s-0.07,0.13-0.18,0.36c-0.02-0.04-0.03-0.09-0.05-0.13c0.15-0.15,0.23-0.23,0.23-0.23v-0.53c-0.15,0.07-0.29,0.13-0.43,0.2
			c-6.42-17.07-29.3-61.65-80.55-11.73c-2.35,2.29-4.71,4.59-7.01,6.87c-0.08-0.08-0.12-0.12-0.12-0.12l-1.33,1.58
			c-9.82,9.87-17.97,19.22-17.01,24.9c0.73,4.37,3.77,7.83,8.39,10.44c-2.71,9.1-4.92,20.8-5.84,35.74
			c-3.66,24.73-5.15,53.14,0.11,79.03c-0.85,0.11-1.68,0.33-2.49,0.71c-9.34,4.35-18.42,43.94-18.42,43.94l3.8,1.98
			c-1.05,6.83-1.9,13.03-2.56,18.65l-20.57-31.4c1.86-7.38,6.76-28.47,3.33-32.51c-2.16-2.55-4.6,4.12-6.45,11.14
			c-0.77-4.28-1.86-8.26-3.4-11.03l0.22-0.11c0,0-7.37-27.92-13.38-26.68c-5.68,1.17-6.16,32.68-6.2,36.05
			c-0.18,0.31-0.28,0.49-0.29,0.51c0,0,0,0,0,0.01c-0.06,0.09,0.54,1.5,13.96,27.93l33.13,71.89c0.6,1.8,1.31,3.3,2.1,4.56
			L701.18,989.36z M821.84,1005.86c-4.46-12.68-11.59-33.66-11.91-39.03c-0.25-4.26,4.8-15.62,9.25-26.74
			c3.95,27.03,8.61,45.12,13.51,57.05c-3.55-0.4-6.38,0.24-7.55,1.89C824.23,1000.31,822.98,1002.81,821.84,1005.86z M717.73,869.09
			l1.53-15.37c0.58,4.46,1.23,9.06,1.98,13.83L717.73,869.09z"/>
		<path class="st1" d="M326.97,989.15c0,0,14.19,31.19,24.82,30.12c10.64-1.08,16.21-22.59,16.21-28.5c0-2.4-2.49-4.97-6.44-6.93
			c10.75-13.25,23.66-31.81,34.67-48.34l2.35,2.43l14.63-27.85c4.6,33.39,0.95,37.9-3.88,75.95c-0.53,4.17,0.53,8.97,0.53,8.97
			c0.88,1.53,2.22,2.96,3.94,4.29c3.17,60.64,13.98,254.79,11.56,319.61c-0.88-4.04-5.42-5.45-7.1-5.57
			c0.06,0.02,5.03,2.09,4.5,9.38c-0.25,3.38-1.55,9.04-2.88,14.16c-2.73,4.94-3.39,8.13-3.48,11.15h-0.12h-0.07
			c0.01,0,0.02,0,0.04,0c-1.08,0.02-1.97,1.02-1.97,2.24v4.07c0,0.88,0.46,1.64,1.12,2l-0.03,0.17h0.43
			c0.14,0.04,0.29,0.06,0.44,0.07c-0.01,0-0.02,0-0.03,0h0.07h14.35h29.58c1.1,0,2-1.01,2-2.24v-4.07c0-1.1-0.72-2.02-1.66-2.2
			c0.09-0.89,0.07-1.64,0.07-2.1c0-2.13,0-13.55,0-16.51c0-2.96-0.55-3.85-1.18-4.72c-0.64-0.86-4.34-4.42-4.34-4.42
			c0-1.08-0.24-2-0.64-2.79c8.85-69.33,16.64-250.2,18.06-256.35c1.49-6.45-0.99-10.85,1.48-5.42
			c5.04,11.08,6.46,193.17,15.42,260.82c-1.39,0.83-2.52,2.65-2.52,6.65c0,6.84,0,21.6,0,23.34c0,1.74,0.67,3.82,1.79,4.26
			c-0.79,0-1.43,0.7-1.43,1.55v2.64c0,0.86,0.64,1.56,1.43,1.56h8.13h19.65h3.19h1.9h36.84c0.79,0,1.43-0.7,1.43-1.56v-2.64
			c0-0.86-0.64-1.55-1.43-1.55c0,0,1.3-0.94,1.3-3.77c0-10.96-17.18-5.62-23.57-9.41c-5.38-3.19-14.18-11.26-14.32-21.17
			c0,0-0.02-5.1-5.68-5.51c2.73-73.43,10.15-255.6,12.41-310.97c1.11-1.02,2.03-2.1,2.69-3.25c0,0,1.06-4.8,0.53-8.97
			c-4.2-33-6.07-41.92-3.32-65.62l7.17,15.76l4.62-3.68c10.61,15.97,23.16,34.12,33.88,47.64c-4.52,2.01-7.44,4.81-7.44,7.4
			c0,5.92,5.57,27.43,16.21,28.5c10.64,1.08,24.82-30.12,24.82-30.12s1.26-1.34-0.85-3.23h0.42c0,0-0.44-0.25-1.23-0.63
			c-0.99-0.68-2.44-1.41-4.52-2.17c-1.37-15.01-9.11-38.43-28.29-73.75l3.32-2.65c0,0-36.15-58.91-39.32-61.65
			c-3.17-2.75-12.61-5.96-12.61-5.96l-26.54-7.42l-9.65-11.76l-0.58,0.62v-14.59c0-0.38-0.03-0.76-0.06-1.13
			c11.04-7.7,20.57-22.18,26.17-37.33c1.07,0.18,2.17,0.24,3.3,0.15c7.4-0.61,8.92-14.93,8.31-22.33c0,0-1.21-4.91-7.48-4.39
			c-0.14-0.02-0.28-0.03-0.42-0.04c1.32-4.57,4.96-18.13,4.39-27.08c-0.25-4.04-1.83-7.84-4.47-11.49
			c17.12-28.24-2.2-39.91-2.2-39.91l-0.55,2.87c-7.16-6.82-21.3-8.62-40.39-1.47c-1.65-0.93-3.4-1.58-5.19-2.01
			c-1.24-2.33-3.65-4.2-8.17-4.41c-12.27-0.58-24.61,15.11-24.65,15.16c-0.13,0.17-0.16,0.38-0.11,0.58
			c-6.48,5.64-11.18,12.36-12.19,18.1c-0.59-4.12-0.01-9.96,5-16.4c0.21-0.27,0.18-0.68-0.08-0.9c-0.26-0.22-0.64-0.18-0.85,0.09
			c-7.44,9.58-5.61,17.98-4.09,21.82c-8.23,6.88-12.97,12.33-12.45,20.56c0.58,9.23,5.82,25.9,7.42,30.81
			c-5.74,1.68-6.01,6.87-5.73,13.19c0.33,7.42,2.66,13.47,10.08,13.15c1.09-0.05,2.14-0.24,3.15-0.53
			c4.3,15.6,18.48,28.27,31.78,34.08v12.39l-0.99-1.37l-12.53,13.64l0.01,0.01l-30.65,8.57c0,0-9.44,3.22-12.6,5.96
			c-3.17,2.74-38.43,56.49-38.43,56.49l2.88,2.98c-20.89,37.91-28.95,62.52-30.07,77.91c-3.7,1.08-6,2.14-7.39,3.1
			c-0.79,0.38-1.23,0.63-1.23,0.63h0.42C325.7,987.8,326.97,989.15,326.97,989.15z M467.51,659.98c-8.8-1.34-18.76,2.5-26.95,8.37
			c4.33-4.47,12.49-11.54,20.5-11.16C464.29,657.34,466.29,658.46,467.51,659.98z M427.39,1322.12l1.37,0.24
			c-0.1,0.16-0.24,0.4-0.43,0.7C428.02,1322.76,427.7,1322.44,427.39,1322.12z"/>
		<path class="st1" d="M206.08,958.68l45.78,55.77l-4.17,6.24l-14.47-1.13c0,0-6.5-0.56-8.16,1.02c-2.33,2.22,3.17,10.16,6.91,10.56
			l7.7,1.55v0l19.92,4.02l0.87-1.29c-21.77,58.23,12.93,170.19,12.93,170.19l0.76-0.02c-5.44,21.49-5.74,55.96,13.93,108.58
			c0.64,3.65,3.21,7.42,3.31,10.33c-1,1.5-2,2.79-2.81,3.77c-0.02-0.01-1.47-0.51-1.91-0.47c-0.44,0.04-3.05,4.78-3.89,6.86
			c-0.84,2.08-1.89,12.31-1.38,13.93c0.06,0.2,0.2,0.42,0.4,0.65l0,0l1.95,29.89h0.99c0,0,0.56-12.82,0.48-15.97
			c-0.06-2.59,1.47-5.47,3.03-6.74c1.18,1.7,2.43,3.79,3.68,6.4c4.99,10.44,3.41,16.06,12.1,15.84c8.7-0.22,17.57-0.45,20.58-0.52
			c3.01-0.07,4.26-2.66,3.99-3.8c-0.26-1.15-4.05-3.6-8.71-6.64c0,0-1.3-0.72-2.83-0.55c-0.29-0.22-0.6-0.46-0.9-0.7
			c0.08-2.64,0.14-5.08,0.11-6.24c-0.06-2.59,1.47-5.47,3.03-6.74c1.18,1.7,2.43,3.79,3.68,6.4c4.99,10.44,3.41,16.06,12.1,15.84
			c8.7-0.22,17.57-0.45,20.58-0.53c3.01-0.07,4.26-2.66,3.99-3.8c-0.26-1.15-4.05-3.6-8.71-6.64c0,0-1.3-0.73-2.83-0.55
			c-1.58-1.18-3.51-2.92-3.69-3.89c-0.27-1.45-4.83-23.67-4.53-30.59c0.21-4.63-1.53-10.82-1.49-15.84l0.05,0v-1.28
			c0.01-0.08,0.01-0.17,0.02-0.25l-0.02,0v-108.2l0.51-0.01c24.4-83.13,23.58-137.92,19.26-167.97l21.66-0.64l-3.58-38.96
			l35.63-3.19l-8.52-14.62l18.39-6.16l-56.83-77.12c-3.14-5.53-10.06-9.61-16.91-10.61c-0.86-0.26-1.74-0.45-2.67-0.55l-18.46,0.71
			l0.68-15.19c14.39-6.62,19.92-24.08,24.61-41.6c1.35,0.27,2.77,0.34,4.21,0.15c7.11-0.93,12.14-7.45,11.21-14.57
			c-0.6-4.58-3.51-8.29-7.41-10.11c0.4-0.15,0.67-0.22,0.67-0.22l0.34-8.81c7.6-2.37,12.89-6.37,14.13-12.16
			c1.21-5.64-6.51-15.34-15.89-25.64l-1.26-1.64c0,0-0.05,0.04-0.13,0.12c-2.19-2.38-4.45-4.79-6.7-7.18
			c-11.49-12.23-21.64-19.18-30.55-22.47c1.18-4.52,1.4-9.49,0.43-14.56c-3.07-16.05-20.98-21.66-34.89-19
			c-10.16,1.94-15.35,7.77-16.23,17.03l-3.93-4.94c0,0-10.61,17.49,12.78,33.91c-6.64,3.21-18.3,12.49-19.66,38.29
			c-2.35,7.89-3.46,17.87-0.86,29.5l2.62,9.34h0c-2.93,2.65-4.63,6.6-4.24,10.84c0.66,7.15,6.99,12.41,14.13,11.75
			c1.36-0.12,2.65-0.46,3.84-0.96c6.61,11.77,13.76,22.92,22.66,29.52l0,5.46c0.01,0.02,0.03,0.04,0.04,0.06l0.02,14.15
			c-0.11-0.06-0.18-0.11-0.18-0.11l-9.53,0.53c0,0,0,0.01,0.01,0.01l-1.65,0.06c-8.67-1.59-19.14-0.21-24.14,3.93l-54.21,45.85
			c-1.38,0.8-2.65,1.84-3.71,3.15C199.39,945.35,200.26,953.92,206.08,958.68z M307.33,1316.84l0.05,0v-1.28
			c0.01-0.08,0.01-0.17,0.02-0.25l-0.02,0v-42.34c2.68,11.53,6.51,24.26,11.74,38.26c0.64,3.65,3.21,7.42,3.31,10.33
			c-1,1.5-2,2.79-2.81,3.77c-0.02-0.01-1.47-0.51-1.91-0.47c-0.44,0.04-3.05,4.78-3.89,6.86c-0.84,2.08-1.89,12.31-1.38,13.93
			c0.06,0.2,0.2,0.42,0.4,0.65l0,0l1.18,18.12c-0.36-0.43-0.61-0.83-0.67-1.15c-0.27-1.45-4.83-23.66-4.53-30.59
			C309.03,1328.05,307.29,1321.87,307.33,1316.84z M318.65,1326.48l0.87-1.02C319.18,1325.87,318.89,1326.2,318.65,1326.48z
			 M373.68,968.16l-0.32-3.5l2.54,2.83L373.68,968.16z M288.47,1328.4c-0.35,0.42-0.65,0.76-0.89,1.04L288.47,1328.4z
			 M272.14,1015.67c0.39-2.69-0.04-5.44-1.21-7.87l0.97-0.36l-30.23-53.28l22.06-12.84l10.55,34.52c-0.14,0.2-0.26,0.4-0.32,0.63
			c-0.33,1.19,0.45,2.75,1.89,4.48l7.87,25.75C279.3,1009.05,275.46,1012.08,272.14,1015.67z"/>
		<g>
			<path class="st1" d="M437.8,844.13c0.26-0.02,0.5-0.04,0.74-0.06C438.08,844.11,437.8,844.13,437.8,844.13z"/>
			<path class="st1" d="M446.09,843.48c-0.43,0.03-0.91,0.07-1.45,0.11C445.15,843.56,445.63,843.52,446.09,843.48z"/>
			<path class="st1" d="M439.96,843.97c-0.51,0.04-0.95,0.08-1.31,0.1C439.1,844.03,439.54,844,439.96,843.97z"/>
			<path class="st1" d="M420.79,868.21c24.4,11.25,24.9,7.48,24.9,7.48c2.73-1.32,4.39-3.02,5.27-4.93l6.5,2.83
				c-10.02-4.2-5.44,2.11-5.44,2.11c-4.21,18.88,82.67,82.92,82.67,82.92l11.12-11.88c6.15-4.56,13.24-14.17,21.7-33.35l3.19,2.3
				c-0.38,12.79-2.93,23.48-5.95,47.22c-0.53,4.17,0.53,8.97,0.53,8.97c1.42,2.47,4.03,4.68,7.53,6.62
				c-1.25,14.21-2.43,28.05-3.08,36.71c-6.72,90.22,10.59,241.85,16.74,291.26c-5.12,0.68-5.13,5.46-5.13,5.46
				c-0.14,9.91-8.94,17.98-14.32,21.17c-6.39,3.79-23.57-1.56-23.57,9.41c0,2.82,1.3,3.77,1.3,3.77s23.81,4.56,30.3,4.16
				c6.49-0.4,11.63-2.92,11.63-4.16c0-1.24,0.28-1.84,0.85-2.18c0.57-0.35,5.05-2.25,7.31-2.25c2.26,0,2.35,1.88,2.35,1.88
				c0,2.11,1.58,2.58,1.58,2.58s5.78,3.09,7.88,3.44c2.1,0.35,6.81-0.64,7.09-0.89c0.27-0.25,0.72-2.57,0.72-2.57
				c1.13-0.44,1.79-2.53,1.79-4.26c0-1.68,0-15.53,0-22.63l14.11-257.59l86.84,252.69c0,0.02-0.01,0.04-0.01,0.06
				c-0.02,0.1-0.05,0.19-0.06,0.29c-0.04,0.3-0.07,0.61-0.07,0.94c0,0-3.71,3.56-4.34,4.42c-0.63,0.86-1.18,1.76-1.18,4.72
				c0,2.96,0,14.38,0,16.51c0,2.13-0.52,10.54,12.43,10.54c1.12,0,2.2,0,3.24,0c11.01,0,17.78,0,21.45,0c4.01,0,7.11-3.97,7.11-7.73
				c0-3.76-0.69-7.57-5.03-14.53c-4.34-6.96-7.48-12.13-7.48-12.13s-1.94-3.3-4-4.34c0,0-0.97-3.43-2.38-4.27
				c-2.44-18.26-28.05-207.99-48.84-301.63c-1.55-6.99-4.92-16.95-8.74-27.18c3.39-1.86,5.93-4.03,7.36-6.51c0,0,1.06-4.8,0.53-8.97
				c-5.22-41.01-6.85-44.81-0.47-86.07c0,0,0.2-3.72,0.23-9.58c3.02-1.15,8.02-3.21,10.15-5.07c3.17-2.74,39.32-61.65,39.32-61.65
				l-4.61-3.23c8.1-17.18,16.15-35.91,18.39-46.7c10.14-23.77,24.08-59.5,24.99-78.14l0.29,0.18c19.35-24.9,21.47-32.11,21.47-32.11
				s3.87-29.35-1.79-31.71c-5.66-2.36-18.2,23.66-18.2,23.66l0.19,0.08c-2.04,2.07-3.89,5.46-5.49,9.31
				c-0.52-6.9-1.67-13.22-4.15-11.22c-5.02,4.05-2.74,35.2-2.74,35.2l0,0c-9,11.31-33.49,39.94-51.4,96.85
				c-3.32,3.99-6.9,8.66-10.8,14.11l-0.67-0.47l-25.01,35.53l-34.48-9.64c0.24-1.49,0.36-3.04,0.31-4.63l-0.67-21.13
				c9.9-6.34,19.44-16.12,21.96-27.78c6.42-0.28,11.68-5.43,11.95-11.97c0.23-5.61-2.12-8.78-4.65-9.66c0,0,0.02,0,0.02,0
				c1.08-16,10.47-28.97,8.29-38.52c2.85-2.53,4.66-6.21,4.66-10.32c0-6.95-5.15-12.69-11.84-13.65c0-0.05,0.01-0.1,0.01-0.16
				c0-6.95-5.15-12.69-11.84-13.65c0-0.05,0.01-0.1,0.01-0.16c0-7.62-6.18-13.8-13.8-13.8c-2.08,0-4.05,0.47-5.82,1.3
				c-2.51-2.62-6.04-4.26-9.96-4.26c-1.72,0-3.35,0.33-4.87,0.9c-2.4-4.07-6.82-6.82-11.89-6.82c-6.77,0-12.4,4.88-13.57,11.32
				c-1.85-0.93-3.94-1.46-6.15-1.46c-4.7,0-8.85,2.35-11.34,5.94c-0.17-0.01-0.33-0.03-0.49-0.03c-7.62,0-13.8,6.18-13.8,13.8
				c0,2.18,0.52,4.23,1.41,6.06c-4.16,0.73-7.33,4.36-7.33,8.73c0,2.7,1.21,5.11,3.11,6.74c-2.46,9.26,0.16,15.58,9.36,18.06
				c1.36,7.03,3.27,15.08,2.69,23.67c0,0,0.01,0,0.01,0c-2.63,0.54-5.38,3.36-5.9,8.95c-0.63,6.77,4.26,12.78,10.98,13.58
				c3.97,17.89,15.96,32.88,28.64,38.58l0.53,16.7c0.06,2,0.36,3.92,0.87,5.72c-0.73-1.29-0.99-2.23-0.99-2.23l-44.84,11.73
				c-0.12-0.12-0.23-0.23-0.35-0.35c0,0-8.43,5.33-10.87,8.73c-2.44,3.41-24.21,63.88-24.21,63.88l5.7,4.11
				c-1.85,8.84-3.61,18.04-4.92,26.46c-36.33-30.16-64.52-39.88-73.99-44.19l2.29,1c0,0-12.79-28.5-19.14-29.67
				c-0.99-0.18-1.47,0.3-1.57,1.25c-1.55-1.64-2.62-2.63-2.62-2.63C412.66,846.11,420.79,868.21,420.79,868.21z M665.22,737.44
				l0.26-3.92l0,0l-0.26,3.82C665.23,737.37,665.23,737.41,665.22,737.44z"/>
		</g>
		<g>
			<path class="st1" d="M364.88,873.71c-0.26-0.02-0.5-0.04-0.74-0.06C364.61,873.69,364.88,873.71,364.88,873.71z"/>
			<path class="st1" d="M356.59,873.06c0.43,0.03,0.91,0.07,1.45,0.11C357.54,873.14,357.05,873.1,356.59,873.06z"/>
			<path class="st1" d="M362.73,873.55c0.51,0.04,0.95,0.08,1.31,0.1C363.58,873.61,363.14,873.58,362.73,873.55z"/>
			<path class="st1" d="M364.88,873.71c0,0-1.07,0.99-2.62,2.63c-0.1-0.95-0.58-1.43-1.57-1.25c-6.34,1.17-19.14,29.67-19.14,29.67
				l2.29-1c-9.47,4.3-37.66,14.02-73.99,44.19c-1.31-8.42-3.07-17.62-4.92-26.46l5.7-4.11c0,0-21.77-60.48-24.21-63.88
				c-2.44-3.41-10.87-8.73-10.87-8.73c-0.12,0.11-0.23,0.23-0.35,0.35l-44.84-11.73c0,0-0.25,0.95-0.99,2.23
				c0.5-1.8,0.8-3.72,0.87-5.72l0.53-16.7c12.68-5.7,24.67-20.69,28.64-38.58c6.72-0.8,11.62-6.8,10.98-13.58
				c-0.52-5.59-3.28-8.41-5.9-8.95c0,0,0.01,0,0.01,0c-0.58-8.59,1.33-16.63,2.69-23.67c9.2-2.48,11.82-8.8,9.36-18.06
				c1.9-1.63,3.11-4.04,3.11-6.74c0-4.37-3.17-8-7.33-8.73c0.9-1.83,1.41-3.88,1.41-6.06c0-7.62-6.18-13.8-13.8-13.8
				c-0.17,0-0.33,0.02-0.49,0.03c-2.49-3.59-6.64-5.94-11.34-5.94c-2.21,0-4.3,0.53-6.15,1.46c-1.17-6.44-6.8-11.32-13.57-11.32
				c-5.07,0-9.49,2.74-11.89,6.82c-1.52-0.57-3.15-0.9-4.87-0.9c-3.92,0-7.44,1.64-9.96,4.26c-1.77-0.83-3.74-1.3-5.82-1.3
				c-7.62,0-13.8,6.18-13.8,13.8c0,0.05,0.01,0.1,0.01,0.16c-6.69,0.96-11.84,6.69-11.84,13.65c0,0.05,0.01,0.1,0.01,0.16
				c-6.69,0.96-11.84,6.69-11.84,13.65c0,4.11,1.81,7.79,4.66,10.32c-2.18,9.55,7.21,22.53,8.29,38.52c0,0,0.01,0,0.02,0
				c-2.54,0.88-4.88,4.05-4.65,9.66c0.27,6.54,5.52,11.69,11.95,11.97c2.52,11.66,12.06,21.44,21.96,27.78l-0.67,21.13
				c-0.05,1.59,0.07,3.14,0.31,4.63l-34.48,9.64l-25.01-35.53l-0.67,0.47c-3.9-5.45-7.48-10.12-10.8-14.11
				c-17.91-56.92-42.4-85.55-51.4-96.85l0,0c0,0,2.29-31.16-2.74-35.2c-2.49-2-3.63,4.32-4.15,11.22c-1.6-3.85-3.45-7.25-5.49-9.31
				l0.19-0.08c0,0-12.54-26.02-18.2-23.66c-5.66,2.36-1.79,31.71-1.79,31.71s2.13,7.21,21.47,32.11l0.29-0.18
				c0.91,18.64,14.85,54.38,24.99,78.14c2.24,10.79,10.3,29.52,18.39,46.7l-4.61,3.23c0,0,36.15,58.91,39.32,61.65
				c2.14,1.85,7.13,3.92,10.15,5.07c0.03,5.86,0.23,9.58,0.23,9.58c6.38,41.25,4.75,45.05-0.47,86.07
				c-0.53,4.17,0.53,8.97,0.53,8.97c1.43,2.49,3.98,4.65,7.36,6.51c-3.83,10.24-7.19,20.19-8.74,27.18
				c-20.79,93.64-46.4,283.38-48.84,301.63c-1.41,0.84-2.38,4.27-2.38,4.27c-2.07,1.04-4,4.34-4,4.34s-3.14,5.17-7.48,12.13
				c-4.34,6.96-5.03,10.77-5.03,14.53c0,3.76,3.1,7.73,7.11,7.73c3.67,0,10.44,0,21.45,0c1.05,0,2.12,0,3.24,0
				c12.95,0,12.43-8.41,12.43-10.54c0-2.13,0-13.55,0-16.51c0-2.96-0.55-3.85-1.18-4.72c-0.63-0.86-4.34-4.42-4.34-4.42
				c0-0.33-0.02-0.64-0.06-0.94c-0.01-0.1-0.04-0.19-0.06-0.29c0-0.02-0.01-0.04-0.01-0.06l86.84-252.69l14.12,257.59
				c0,7.1,0,20.96,0,22.63c0,1.74,0.67,3.82,1.79,4.26c0,0,0.44,2.33,0.72,2.57c0.27,0.25,4.98,1.24,7.09,0.89
				c2.1-0.35,7.88-3.44,7.88-3.44s1.58-0.48,1.58-2.58c0,0,0.09-1.88,2.35-1.88c2.26,0,6.74,1.91,7.31,2.25
				c0.57,0.35,0.85,0.94,0.85,2.18c0,1.24,5.14,3.76,11.63,4.16c6.49,0.4,30.3-4.16,30.3-4.16s1.3-0.94,1.3-3.77
				c0-10.96-17.18-5.62-23.57-9.41c-5.38-3.19-14.18-11.26-14.32-21.17c0,0-0.01-4.78-5.13-5.46
				c6.14-49.41,23.46-201.04,16.74-291.26c-0.64-8.65-1.83-22.5-3.08-36.71c3.5-1.95,6.11-4.16,7.53-6.62c0,0,1.06-4.8,0.53-8.97
				c-3.02-23.75-5.57-34.43-5.95-47.22l3.19-2.3c8.46,19.19,15.55,28.8,21.7,33.35l11.12,11.88c0,0,86.89-64.03,82.67-82.92
				c0,0,4.58-6.31-5.44-2.11l6.5-2.83c0.88,1.91,2.54,3.61,5.27,4.93c0,0,0.5,3.77,24.9-7.48
				C381.9,897.79,390.03,875.69,364.88,873.71z M137.45,766.91l-0.26-3.81l0,0l0.26,3.92C137.46,766.99,137.45,766.95,137.45,766.91
				z"/>
		</g>
	</g>
</g>
</svg>
