<svg width="874" height="1450" xmlns="http://www.w3.org/2000/svg">
 <defs>
  <style>.cls-1{fill:#eefbf4;}.cls-11,.cls-16,.cls-17,.cls-2{fill:#fff;}.cls-20,.cls-3{fill:#bff0d4;}.cls-4,.cls-9{fill:#e3ab84;}.cls-10,.cls-5{fill:#d6806b;}.cls-12,.cls-6{fill:#1c2036;}.cls-10,.cls-11,.cls-14,.cls-16,.cls-20,.cls-6,.cls-7,.cls-8,.cls-9{fill-rule:evenodd;}.cls-19,.cls-7{fill:#474973;}.cls-13,.cls-8{fill:#2e3c5a;}.cls-14,.cls-15{fill:#f3e9d5;}.cls-16,.cls-17{opacity:0.5;}.cls-18{fill:#59d995;}</style>
 </defs>
 <title>Illustrations_all</title>
 <g>
  <title>background</title>
  <rect fill="#000000" id="canvas_background" height="1452" width="876" y="-1" x="-1"/>
 </g>
 <g>
  <title>Layer 1</title>
  <g id="Debater">
   <rect stroke="null" x="0" y="0" id="svg_1" height="1653.99" width="874.269964" class="cls-1"/>
   <path id="svg_2" d="m868.44,274a1016.71,1016.71 0 0 0 -102.44,45.77c-80.69,41.8 -187.69,112.94 -239.14,214.57a285.36,285.36 0 0 0 -27.48,83.66c-1.83,0.11 -3.67,0.22 -5.53,0.3a290,290 0 0 1 28.21,-86.4c52.1,-102.9 160.13,-174.81 241.56,-216.9a1018.85,1018.85 0 0 1 104.52,-46.63c0.14,1.84 0.25,3.73 0.3,5.63z" class="cls-2"/>
   <path id="svg_3" d="m861.43,350.78c-0.4,2 -0.86,3.91 -1.35,5.88c-23,5.8 -57.41,17.85 -91,42.37c-41.85,30.55 -89,86 -103.09,184.09c-1.91,0.76 -3.85,1.54 -5.79,2.3c13.8,-102 62.64,-159.4 105.89,-190.9c35.47,-25.83 71.91,-38.1 95.34,-43.74z" class="cls-2"/>
   <path id="svg_4" d="m423.8,618.56c-1.84,-0.06 -3.67,-0.14 -5.51,-0.22a202.93,202.93 0 0 0 -12.21,-60.67c-15.43,-42.07 -53,-100.83 -144.62,-141.87s-148,-97.86 -162.77,-164.14c-9.28,-41.53 -1.62,-84.38 22.09,-125.94c1.72,0.57 3.45,1.19 5.2,1.84c-23.46,40.66 -31.06,82.49 -22,122.94c14.4,64.53 69.63,120 159.72,160.36c93.43,41.91 131.81,102.14 147.53,145.24a207.35,207.35 0 0 1 12.57,62.46z" class="cls-2"/>
   <path id="svg_5" d="m80.41,530.11c-1.65,-1.19 -3.27,-2.37 -4.88,-3.64c6.2,-41.91 3.07,-106.81 -43.61,-184.21c-38.92,-64.66 -37.37,-138.68 4.64,-214.14c3.56,-6.36 7.25,-12.51 11.06,-18.39q3,0.17 6.14,0.43c-4.31,6.58 -8.54,13.49 -12.56,20.71c-41.53,74.67 -43.09,144.84 -4.67,208.59c48.54,80.54 50.78,147.88 43.88,190.65z" class="cls-2"/>
   <path id="svg_6" d="m347.16,612.46l-5.91,-0.72c-12.67,-37.27 -38.78,-89.1 -89.47,-112.53c-15.64,-7.23 -29.93,-7.26 -42.47,0c-22,12.7 -35.79,45.36 -44.17,75.67c-1.78,-0.6 -3.54,-1.22 -5.26,-1.89c8.68,-31.12 23.16,-64.86 46.73,-78.45c14.13,-8.14 30.09,-8.22 47.43,-0.18c53.53,24.69 80.42,79.73 93.12,118.1z" class="cls-2"/>
   <path id="svg_7" d="m763.49,77.37c-8.2,14.38 -16.45,30.72 -25.24,48.14c-40.86,81 -91.71,181.91 -203.54,207.18a195.49,195.49 0 0 1 -43.18,5.1c-31.52,0 -59.67,-8.9 -84,-26.65c-32.85,-23.92 -54.2,-60.86 -68,-95.92c1.92,-0.05 3.75,-0.18 5.58,-0.37c13.46,33.76 34.14,69 65.56,91.93c33.65,24.51 75,31.46 122.83,20.65c109.37,-24.73 159.61,-124.31 199.95,-204.35c8.9,-17.63 17.26,-34.19 25.62,-48.78c1.48,1 2.93,2 4.42,3.07z" class="cls-2"/>
   <path id="svg_8" d="m731.83,58.44c-26.08,47.25 -78.83,125.42 -159.07,164.34q-18.93,9.18 -36.87,9.16a70,70 0 0 1 -31.71,-7.68c-28.37,-14.21 -50,-46.09 -65.8,-79.66c1.33,-1.59 2.65,-3.18 4,-4.83c15.53,33.68 36.7,65.85 64.26,79.66c19.76,9.93 41.23,9.41 63.77,-1.51c78.8,-38.24 130.81,-115.17 156.59,-161.8c1.59,0.73 3.21,1.51 4.83,2.32z" class="cls-2"/>
   <path id="svg_9" d="m632.51,35c-4.85,34.06 -19.22,77.23 -60.29,87.5a62.73,62.73 0 0 1 -15.22,1.93c-27.29,0 -47.27,-19.39 -60.8,-40.05c1.4,-1.1 2.83,-2.21 4.23,-3.26c15,23 38.1,44.23 70.54,36.14c37.3,-9.31 51,-49.68 55.9,-82.14c1.84,-0.06 3.76,-0.12 5.64,-0.12z" class="cls-2"/>
   <path id="svg_10" d="m617.84,985a492.6,492.6 0 0 0 65.66,-4.11c14.83,2.57 33.71,4.11 54.28,4.11c47.62,0 86.23,-8.25 86.23,-18.44s-38.61,-18.43 -86.23,-18.43q-4.54,0 -9,0.09c-19.13,-9 -61.6,-15.3 -111,-15.3c-67.27,0 -121.8,11.66 -121.8,26s54.59,26.08 121.86,26.08z" class="cls-3"/>
   <path id="svg_11" d="m593.42,491.21s-71.74,115.79 -81.59,104.94s-7.5,-46.44 47.84,-134.74l33.75,29.8z" class="cls-4"/>
   <path id="svg_12" d="m116.25,582.74s-3.29,-3.5 10.36,-7s27.79,3 27.79,8.5s-5.18,25.5 -15.07,26.5s-23.08,-28 -23.08,-28z" class="cls-4"/>
   <path id="svg_13" d="m116.9,580.18l-0.49,-0.87c0.19,-0.11 19.45,-10.78 35.27,0l-0.56,0.83c-15.31,-10.44 -34.03,-0.07 -34.22,0.04z" class="cls-5"/>
   <path id="svg_14" d="m116.25,582.74s-3.29,-3.5 10.36,-7s27.79,3 27.79,8.5s-5.18,25.5 -15.07,26.5s-23.08,-28 -23.08,-28z" class="cls-4"/>
   <path id="svg_15" d="m116.9,580.18l-0.49,-0.87c0.19,-0.11 19.45,-10.78 35.27,0l-0.56,0.83c-15.31,-10.44 -34.03,-0.07 -34.22,0.04z" class="cls-5"/>
   <path id="svg_16" d="m116.25,582.74s-3.29,-3.5 10.36,-7s27.79,3 27.79,8.5s-5.18,25.5 -15.07,26.5s-23.08,-28 -23.08,-28z" class="cls-4"/>
   <path id="svg_17" d="m116.9,580.18l-0.49,-0.87c0.19,-0.11 19.45,-10.78 35.27,0l-0.56,0.83c-15.31,-10.44 -34.03,-0.07 -34.22,0.04z" class="cls-5"/>
   <path id="svg_18" d="m686.35,921c-3.42,-73.85 12.83,-341.27 12.47,-345.56c-0.43,-5.24 -57.07,-13.58 -85.22,-9.64s-32.7,12.42 -32.7,12.42s10.5,256.5 13.5,338.5l26,5c9.87,-63.09 11.24,-258.92 16.5,-270.5c2.5,-5.5 0,-1 1.5,5.5s10.11,207.68 19.6,269.28l28.35,-5z" class="cls-6"/>
   <path id="svg_19" d="m590.58,956.34l23.17,0a3.54,3.54 0 0 0 3.38,-3.66l0,-6.23a3.54,3.54 0 0 0 -3.38,-3.66l-23.17,0a3.54,3.54 0 0 0 -3.38,3.66l0,6.23a3.54,3.54 0 0 0 3.38,3.66z" class="cls-7"/>
   <path id="svg_20" d="m551.29,950.51s-1.32,-1 -1.32,-3.82c0,-11.12 17.43,-5.7 23.9,-9.54c5.46,-3.23 14.39,-11.42 14.53,-21.47c0,0 0,-5.63 6.49,-5.63l10.2,0c2.22,0 5.93,1.71 6.49,5l6.58,0c2.32,0 5.66,0.5 5.66,7.44l0,23.67c0,1.76 -0.68,3.87 -1.82,4.32a12,12 0 0 1 -0.73,2.61a20.34,20.34 0 0 1 -7.19,0.91c-2.13,-0.35 -8,-3.49 -8,-3.49a2.56,2.56 0 0 1 -1.6,-2.62a2.14,2.14 0 0 0 -2.38,-1.89c-2.3,0 -6.84,1.94 -7.42,2.29s-0.86,1 -0.86,2.21s-5.21,3.82 -11.79,4.22s-30.74,-4.21 -30.74,-4.21z" class="cls-8"/>
   <path id="svg_21" d="m611.58,915.08l6.58,0c2.32,0 5.66,0.5 5.66,7.44l0,23.67c0,1.76 -0.68,3.87 -1.82,4.32a12,12 0 0 1 -0.73,2.61a20.34,20.34 0 0 1 -7.19,0.91c-2.13,-0.35 -8,-3.49 -8,-3.49a2.56,2.56 0 0 1 -1.6,-2.62a2.14,2.14 0 0 0 -2.38,-1.92c-2.3,0 -6.84,1.94 -7.42,2.29s-0.86,1 -0.86,2.21s-5.21,3.82 -11.79,4.22c-4.2,0.26 -15.51,-1.52 -23.18,-2.85c1.51,-7 6.14,-9.17 10.76,-9.17l24.89,0c14.2,0 17.08,-11.77 17.08,-17.78l0,-9.84z" class="cls-8"/>
   <path id="svg_22" d="m551.29,956.34l42.53,0a1.52,1.52 0 0 0 1.45,-1.58l0,-2.67a1.52,1.52 0 0 0 -1.45,-1.58l-42.53,0a1.52,1.52 0 0 0 -1.45,1.58l0,2.67a1.52,1.52 0 0 0 1.45,1.58z" class="cls-7"/>
   <path id="svg_23" d="m588.65,956.34l33.35,0a1.52,1.52 0 0 0 1.45,-1.58l0,-2.67a1.52,1.52 0 0 0 -1.45,-1.58l-33.35,0a1.52,1.52 0 0 0 -1.45,1.58l0,2.67a1.52,1.52 0 0 0 1.45,1.58z" class="cls-7"/>
   <path id="svg_24" d="m678.58,917s-1.28,-4.52 -3,-4.52l-11.93,0c-1.66,0 -7.58,1.67 -7.58,7.1c0,0 -3.76,3.6 -4.4,4.48s-1.2,1.78 -1.2,4.78l0,16.75c0,2.16 -0.53,10.69 12.6,10.69l25,0c4.07,0 7.21,-4 7.21,-7.84s-0.7,-7.68 -5.11,-14.74s-7.58,-12.3 -7.58,-12.3s-1.91,-3.35 -4.01,-4.4z" class="cls-7"/>
   <path id="svg_25" d="m693.44,912.48c-1.9,0.13 -7.37,1.87 -7.37,7.09c0,0 -3.76,3.6 -4.4,4.48s-1.2,1.78 -1.2,4.78l0,16.75c0,2.16 -0.53,10.69 12.6,10.69l3.29,0l-1.36,-8.53s-5.57,-18.3 -6.12,-25.74s4.5,-9.5 4.56,-9.52z" class="cls-7"/>
   <path id="svg_26" d="m695.44,947.66l-44.56,0a2.17,2.17 0 0 0 -2,2.28l0,4.13a2.16,2.16 0 0 0 2,2.27l44.56,0a2.16,2.16 0 0 0 2,-2.27l0,-4.13a2.17,2.17 0 0 0 -2,-2.28z" class="cls-7"/>
   <path id="svg_27" d="m693.48,949.94l0,4.12a2.27,2.27 0 0 0 1.52,2.21a1.7,1.7 0 0 0 0.51,0.07l-14.62,0a2.18,2.18 0 0 1 -2,-2.28l0,-4.12a2.23,2.23 0 0 1 1.68,-2.24a2.2,2.2 0 0 1 0.36,0l14.62,0a2.17,2.17 0 0 0 -2.07,2.24z" class="cls-7"/>
   <path id="svg_28" d="m637.78,381l0,0a15.23,15.23 0 0 0 -14.95,15.41l0,20.4a15.24,15.24 0 0 0 14.95,15.42l0,0a15.24,15.24 0 0 0 15,-15.42l0,-20.4a15.23,15.23 0 0 0 -15,-15.41z" class="cls-9"/>
   <path id="svg_29" d="m637.78,356l0,0a15.23,15.23 0 0 0 -14.95,15.41l0,20.4a15.24,15.24 0 0 0 14.95,15.42l0,0a15.24,15.24 0 0 0 15,-15.42l0,-20.4a15.23,15.23 0 0 0 -15,-15.41z" class="cls-10"/>
   <path id="svg_30" d="m592.16,330.46c0.33,0 0.67,-0.08 1,-0.1c2.18,0 5.05,1.69 4.79,4.87l-0.64,7.84c5.16,-0.18 6.11,-5.11 6,-9.15a13.64,13.64 0 0 1 -10.31,23.64c-7.5,-0.62 -9,-15.14 -8.43,-22.65c0,0 1.22,-4.98 7.59,-4.45z" class="cls-10"/>
   <path id="svg_31" d="m691.41,336.54c0.33,0.07 0.66,0.14 1,0.23l0,0c6,1.65 6.26,7 6,13.43c-0.34,7.53 -2.7,13.67 -10.23,13.34a13.64,13.64 0 0 1 -7.29,-24.75c-0.6,4 -0.27,9 4.83,9.83l0.34,-7.86c0.12,-3.17 3.18,-4.45 5.35,-4.22z" class="cls-10"/>
   <path id="svg_32" d="m646.57,265.46l0,0a46.84,46.84 0 0 0 -49.57,43.66l-2.66,42.39c7.2,24.07 24.87,48.4 43.66,49.54l0,0c17.2,0.19 46.58,-19.84 48.2,-45.47l4,-40.59a46.83,46.83 0 0 0 -43.63,-49.53z" class="cls-9"/>
   <path id="svg_33" d="m627.2,369.8c-0.47,6.24 7.13,12.22 13.37,12.69s14.66,-5.26 15.12,-11.5l0,0a2,2 0 0 0 -1.81,-2.09l-24.55,-0.9a2,2 0 0 0 -2.1,1.8l-0.03,0z" class="cls-11"/>
   <path id="svg_34" d="m651.14,370l-17.53,-1.32c-0.43,1.92 0.33,3.94 1.6,4.47c1.55,0.63 14.25,1.25 15.23,0.33c0.47,-0.48 0.64,-2.01 0.7,-3.48z" class="cls-11"/>
   <path id="svg_35" d="m668.78,361.41c-5.2,2.15 -8.38,6.35 -7.1,9.36s6.54,3.71 11.74,1.56s8.39,-6.36 7.1,-9.37s-6.52,-3.71 -11.74,-1.55z" class="cls-10"/>
   <path id="svg_36" d="m616.7,358.76c-4.11,-2.6 -8.84,-2.48 -10.57,0.28s0.2,7.11 4.3,9.72s8.84,2.49 10.57,-0.27s-0.19,-7.11 -4.3,-9.73z" class="cls-10"/>
   <path id="svg_37" d="m615.46,330.79a1.55,1.55 0 0 1 -1.29,-2.82c4.19,-2 9.71,-2 13.66,0.54a1.55,1.55 0 1 1 -1.69,2.6c-3.2,-2.11 -7.31,-1.78 -10.68,-0.32z" class="cls-6"/>
   <path id="svg_38" d="m669.56,332.6c-3.26,-1.71 -7.34,-2.29 -10.68,-0.44a1.56,1.56 0 0 1 -1.5,-2.73c4.13,-2.28 9.62,-1.83 13.66,0.44a1.55,1.55 0 0 1 0.62,2.1a1.56,1.56 0 0 1 -2.1,0.63z" class="cls-6"/>
   <path id="svg_39" d="m641,361.82a7.45,7.45 0 0 1 -1.86,-0.27a2.31,2.31 0 0 1 -1.67,-1.76c-0.71,-2.7 1.66,-7.78 3.59,-9.66c0.69,-0.68 1.32,-0.95 1.87,-0.79l-0.27,1c-0.1,0 -0.41,0.05 -0.9,0.54c-1.68,1.64 -3.93,6.39 -3.32,8.7a1.29,1.29 0 0 0 1,1a3.64,3.64 0 0 0 3,-0.12a1.52,1.52 0 0 0 0.62,-1l1,0.09a2.58,2.58 0 0 1 -1,1.72a3.32,3.32 0 0 1 -2.06,0.55z" class="cls-5"/>
   <path id="svg_40" d="m625.69,300c-5,-0.31 -14.88,1.46 -15.51,11.48s-3,17.86 -9.43,17.46l-0.5,7.87c-0.27,4.4 -1,8.82 -5.14,8.56c0.6,-9.47 -2.05,-13.37 -2.05,-13.37s-5.63,-18 -4.93,-29.06s11.17,-20.39 26.33,-29.68a56.39,56.39 0 0 1 63.77,4c13.88,11.11 22.56,17.23 21.86,28.29s-8,32.67 -8,32.67s-3.12,3.53 -3.71,13c-4.15,-0.26 -4.3,-4.74 -4,-9.14l0.5,-7.86c-6.4,-0.41 -7.8,-8.48 -7.17,-18.51s-8.92,-13 -14,-13.33l-38.02,-2.38z" class="cls-6"/>
   <path id="svg_41" d="m676.94,298.15s10.72,-7.39 10.73,-15.83c0,-15.49 -31.67,-41.11 -51.26,-30.08c-46.59,-17.44 -64.2,17.63 -23.62,49.94l0.56,0.44c3.1,-2.92 7.6,-4 10.55,-4.21l38.1,-2.41c3.31,-0.2 8.71,0.49 12.19,3.85c1.74,-1.03 2.75,-1.7 2.75,-1.7z" class="cls-6"/>
   <path id="svg_42" d="m685.35,286.24a0.68,0.68 0 0 0 0.17,0.9a0.6,0.6 0 0 0 0.85,-0.17s7.25,-11.1 -3.06,-24.37a0.58,0.58 0 0 0 -0.86,-0.09a0.67,0.67 0 0 0 -0.08,0.91c9.72,12.51 3,22.79 2.98,22.82z" class="cls-6"/>
   <path id="svg_43" d="m674,261.94a0.59,0.59 0 0 0 0.86,0.08a0.67,0.67 0 0 0 0.07,-0.91c0,-0.05 -12.55,-16 -25,-15.38c-12.93,0.61 -8.9,14.55 -8.89,14.59a0.61,0.61 0 0 0 0.76,0.44a0.66,0.66 0 0 0 0.41,-0.8s-3.54,-12.4 7.79,-12.96c11.86,-0.53 24,14.89 24,14.94z" class="cls-6"/>
   <path id="svg_44" d="m661.41,352.17a5.5,5.5 0 1 0 -4.13,-6.59a5.5,5.5 0 0 0 4.13,6.59z" class="cls-6"/>
   <path id="svg_45" d="m619.2,349.54a5.5,5.5 0 1 0 -4.13,-6.59a5.5,5.5 0 0 0 4.13,6.59z" class="cls-6"/>
   <path id="svg_46" d="m275.35,513.74s22.37,97.32 33.25,92.55s17.25,-19.56 1.74,-103.35l-34.99,10.8z" class="cls-4"/>
   <path id="svg_47" d="m300.26,484.15c9.46,4.41 18.67,44.56 18.67,44.56l-36.93,19.23s-18.65,-24.2 -12.68,-36.4c6.23,-12.7 20.13,-32.42 30.94,-27.39z" class="cls-12"/>
   <path id="svg_48" d="m181.32,490.33s-71.83,88.58 -60.42,94.41s35.61,-1.74 95.77,-70.74l-35.35,-23.67z" class="cls-4"/>
   <path id="svg_49" d="m273.58,985a492.6,492.6 0 0 1 -65.66,-4.11c-14.83,2.57 -33.71,4.11 -54.28,4.11c-47.62,0 -86.23,-8.25 -86.23,-18.44s38.61,-18.43 86.23,-18.43q4.55,0 9,0.09c19.13,-9 61.6,-15.3 111,-15.3c67.27,0 121.8,11.66 121.8,26s-54.59,26.08 -121.86,26.08z" class="cls-3"/>
   <path id="svg_50" d="m236.23,652.7l11.71,244.7l13.19,0a2.81,2.81 0 0 0 2.73,-2.15c3.95,-24.89 26.95,-145.25 31.54,-176.25s7.79,-51.44 4.77,-68.28c-1.39,-7.76 -11.1,-29.5 -11.1,-29.5s-45.48,4.45 -53,3.38c-5.3,-0.76 0.16,28.1 0.16,28.1z" class="cls-7"/>
   <path id="svg_51" d="m244.87,652.7l-11.71,244.7l-13.16,0a2.79,2.79 0 0 1 -2.72,-2.15c-4,-24.89 -27,-145.29 -31.55,-176.25s-7.79,-51.44 -4.77,-68.28c1.39,-7.76 11.1,-29.5 11.1,-29.5s45.49,4.45 53,3.38c5.27,-0.76 -0.19,28.1 -0.19,28.1z" class="cls-7"/>
   <path id="svg_52" d="m251.36,689.51c13.4,29.6 -2.42,83.57 -8.25,103.11c-1.54,-29.72 -2.31,-67.47 -4.78,-94.2c2.74,-14.97 6.86,-22.56 13.03,-8.91z" class="cls-13"/>
   <path id="svg_53" d="m187.94,403.45s8.77,42.24 8.19,76.69s56,2.77 56,2.77s46,10 34.48,-22.5s1.09,-73.28 1.09,-73.28l-52.44,-7.37l-47.32,23.69z" class="cls-14"/>
   <path id="svg_54" d="m240.18,403.44l0,0c8.68,0 15.79,9.32 15.79,20.71l0,39.65c0,11.39 -7.11,20.71 -15.79,20.71l0,0c-8.68,0 -15.79,-9.32 -15.79,-20.71l0,-39.65c0,-11.39 7.11,-20.71 15.79,-20.71z" class="cls-9"/>
   <path id="svg_55" d="m240.18,403.44l0,0c8.68,0 15.79,9.32 15.79,20.71l0,32.79a22.76,22.76 0 0 1 -11.55,3.2c-7.42,0 -14.36,-4.76 -20,-12l0,-24c-0.03,-11.38 7.08,-20.7 15.76,-20.7z" class="cls-10"/>
   <path id="svg_56" d="m280.71,377.62c0.33,0 0.66,0 1,0l0,0a13.19,13.19 0 1 1 -10.47,4.38c0.27,3.9 1.63,8.56 6.61,8.27l-1.32,-7.49c-0.53,-3.08 2.09,-4.92 4.18,-5.16z" class="cls-10"/>
   <path id="svg_57" d="m191.65,391.55a9.21,9.21 0 0 0 -0.93,0.31l0,0a13.18,13.18 0 1 0 11.28,0.92c0.93,3.79 1.06,8.65 -3.77,9.89l-1,-7.53c-0.46,-3.05 -3.51,-4 -5.58,-3.59z" class="cls-10"/>
   <path id="svg_58" d="m244.4,448.24c-21.49,2.58 -36.67,-21 -50.92,-44.53l-5.13,-31.43a45.26,45.26 0 0 1 37.25,-51.82l0,0a45.26,45.26 0 0 1 51.82,37.26l5,30.76c-6.16,25.27 -13.02,56.76 -38.02,59.76z" class="cls-9"/>
   <path id="svg_59" d="m268.54,400.07c-3.17,-0.93 -7,1.43 -8.45,5.27s-2.86,8.72 0.31,9.65s9.68,-2.42 11.18,-6.26s0.13,-7.73 -3.04,-8.66z" class="cls-10"/>
   <path id="svg_60" d="m217.28,409c-4.38,-1.2 -8.6,0.92 -9.41,4.74s2.09,7.88 6.48,9.08s10,0.5 10.8,-3.32s-3.48,-9.3 -7.87,-10.5z" class="cls-10"/>
   <path id="svg_61" d="m221.12,376.13a1.9,1.9 0 0 1 -1,3.66a12.37,12.37 0 0 0 -10.9,2.5a1.9,1.9 0 1 1 -2.51,-2.84c6.37,-5.62 14.38,-3.32 14.41,-3.32z" class="cls-10"/>
   <path id="svg_62" d="m265.3,369.76a1.89,1.89 0 0 1 -1.28,3.56s-5.92,-2.23 -11.07,1.62a1.9,1.9 0 1 1 -2.27,-3c6.8,-5.13 14.6,-2.18 14.62,-2.18z" class="cls-10"/>
   <path id="svg_63" d="m239.2,409.88a4.25,4.25 0 0 1 -2.59,-0.66c-1.33,-1.06 -0.67,-5.17 -0.15,-7.53l1,0.22c-0.82,3.74 -0.73,6.12 -0.2,6.53s2,0.57 3.57,0.28a4,4 0 0 0 2.07,-0.77l1,0.1c0,0.43 -0.34,0.79 -1,1.1a9.37,9.37 0 0 1 -3.7,0.73z" class="cls-5"/>
   <path id="svg_64" d="m183.05,385.46l3.07,9.34s5.87,-0.22 6.72,4.94c0,0 3.17,-6 1.25,-12.5c0,0 8.89,-14.59 6,-28.81a95,95 0 0 0 -7.7,-23.45s-17.53,20.24 -9.34,50.48z" class="cls-14"/>
   <path id="svg_65" d="m286.64,368.52l0.07,9.84s-5.64,1.65 -4.79,6.81c0,0 -4.92,-4.66 -5.18,-11.44c0,0 -13.07,-11 -14.91,-25.39s2.59,-21.76 2.59,-21.76s20.35,10.67 22.22,41.94z" class="cls-14"/>
   <path id="svg_66" d="m260,396.72a5.37,5.37 0 0 0 4.44,-6.17a6,6 0 0 0 -0.32,-1.14l0.57,-0.32a5.31,5.31 0 0 0 1.67,-1.47a0.67,0.67 0 1 0 -1.07,-0.81a4.2,4.2 0 0 1 -1.66,1.32l0,0a4.32,4.32 0 0 0 1.37,-2a0.67,0.67 0 1 0 -1.27,-0.42a3.21,3.21 0 0 1 -1.16,1.56l-0.07,0a2.88,2.88 0 0 0 0.74,-1.61a0.68,0.68 0 0 0 -0.59,-0.75a0.68,0.68 0 0 0 -0.75,0.59a1.69,1.69 0 0 1 -0.56,1.06a5.37,5.37 0 1 0 -1.34,10.16z" class="cls-6"/>
   <path id="svg_67" d="m217.28,403.7a5.36,5.36 0 0 1 -6.16,-4.43a5.27,5.27 0 0 1 -0.07,-1.18l-0.64,-0.12a5.34,5.34 0 0 1 -2.06,-0.87a0.68,0.68 0 1 1 0.77,-1.11a4.26,4.26 0 0 0 2,0.73l0,0a4.41,4.41 0 0 1 -1.93,-1.44a0.69,0.69 0 0 1 0.13,-0.95a0.68,0.68 0 0 1 1,0.14a3,3 0 0 0 1.59,1.1l0,-0.06a2.94,2.94 0 0 1 -1.2,-1.3a0.66,0.66 0 0 1 0.32,-0.89a0.67,0.67 0 0 1 0.9,0.32a1.62,1.62 0 0 0 0.87,0.82a5.32,5.32 0 0 1 2.76,-1.34a5.37,5.37 0 1 1 1.73,10.6l-0.01,-0.02z" class="cls-6"/>
   <path id="svg_68" d="m253.79,417.56c0.84,5.17 -5.32,11.28 -10.49,12.13s-13.57,-3.59 -14.42,-8.76c-0.15,-0.95 4,-0.92 5,-1.07l15.27,-2.5c0.92,-0.16 4.48,-0.75 4.64,0.2z" class="cls-11"/>
   <path id="svg_69" d="m223.67,467.41s3.58,9.21 16.76,9.21s15.37,-11.55 15.37,-11.55l44.9,19.73c-7.25,10.76 -9.2,42.36 -9.2,42.36c1.4,10.29 -9.08,50.19 -8.62,58.14s14.54,46.3 14.54,46.3c-8.19,8.42 -41.77,20.46 -56.19,20.46s-45.77,-11.93 -54,-20.35c0,0 15.2,-41.69 15.67,-49.64s-17.28,-40.31 -15.88,-50.6c0,0 0.79,-32.85 -6.46,-43.61l43.11,-20.45z" class="cls-6"/>
   <path id="svg_70" d="m190.87,340.72s20.75,-79.3 83.7,-18c13.22,12.87 27.08,26.32 25.84,33.7c-4.66,27.8 -101.1,19.81 -109.54,-15.7z" class="cls-14"/>
   <path id="svg_71" d="m281.7,337.12a334.28,334.28 0 0 1 19.2,103.88a191.91,191.91 0 0 1 -4.25,46.23c-0.07,0.31 0.41,0.44 0.48,0.13c10.27,-45.36 1.87,-94.65 -11.19,-138.64c-1.17,-3.93 -2.37,-7.87 -3.76,-11.73c-0.1,-0.31 -0.59,-0.18 -0.48,0.13z" class="cls-15"/>
   <path id="svg_72" d="m192.44,335s39.84,41.45 101.21,8.61l-11.84,-14s-31.76,32.84 -89.37,4.85l0,0.54z" class="cls-16"/>
   <path id="svg_73" d="m184.25,485.8c-10.39,1.07 -32.24,36 -32.24,36l28.6,30.25s25.54,-16.77 23.89,-30.25c-1.71,-14.04 -8.4,-37.22 -20.25,-36z" class="cls-12"/>
   <circle id="svg_74" r="2" cy="348.99" cx="664.9" class="cls-2"/>
   <circle id="svg_75" r="2" cy="345.99" cx="622.15" class="cls-2"/>
   <path id="svg_76" d="m605.57,308.75c-15.19,-16.3 -22,-30.71 -20.35,-42.82a22.15,22.15 0 0 1 9.41,-15.53l0.52,0.85a21.54,21.54 0 0 0 -8.94,14.84c-1.64,11.79 5.13,25.92 20.1,42l-0.74,0.66z" class="cls-12"/>
   <path id="svg_77" d="m189.23,544.62l-0.66,-0.75c0.2,-0.18 19.69,-18 -8.37,-55.71l0.8,-0.6c28.64,38.55 8.44,56.88 8.23,57.06z" class="cls-17"/>
   <rect id="svg_78" transform="rotate(-47.970001220703125 -350.230010986328,400.07000732421886) " height="1" width="26.85" y="993.840007" x="-90.760011" class="cls-18"/>
   <rect id="svg_79" transform="rotate(-13.710000038146973 -114.55000305175783,83.12999725341794) " height="42.2" width="1" y="583.769997" x="168.849997" class="cls-17"/>
   <polygon id="svg_80" points="225.24000549316406,462.5799865722656 241.24000549316406,475.9100036621094 229.89999389648438,493.9100036621094 212.64999389648438,470.489990234375 225.24000549316406,462.5799865722656 " class="cls-2"/>
   <polygon id="svg_81" points="255.24000549316406,462.5799865722656 239.24000549316406,475.9100036621094 250.57000732421875,493.9100036621094 267.6499938964844,468.739990234375 255.24000549316406,462.5799865722656 " class="cls-2"/>
   <path id="svg_82" d="m261.14,898.9c3.15,25.16 0.84,20.18 29.51,31.51s8.39,12 5.33,11.33c-9.71,-2.14 -18.67,-8.66 -39.33,-6s-8.11,-19.55 -8.11,-19.55l0.77,-23.11l11.83,5.82z" class="cls-4"/>
   <path id="svg_83" d="m290.65,930.41c28.66,11.33 8.39,12 5.33,11.33c-9.71,-2.14 -18.67,-8.66 -39.33,-6s-8.11,-19.55 -8.11,-19.55s16.19,10 24.69,7.55l17.42,6.67z" class="cls-19"/>
   <path id="svg_84" d="m219.41,898.9c-3.16,25.16 -0.84,20.18 -29.51,31.51s-8.39,12 -5.33,11.33c9.71,-2.14 18.66,-8.66 39.33,-6s8.1,-19.55 8.1,-19.55l-0.78,-23.11l-11.81,5.82z" class="cls-4"/>
   <path id="svg_85" d="m372.56,513.85l-10.76,-4.34s-0.12,-30.06 7.17,-37.07s18,12.22 18.1,12.38l0,0c0.06,0.1 -0.55,1.53 -14.51,29.03z" class="cls-4"/>
   <path id="svg_86" d="m386.77,484.62l-19.85,-9.81s7.48,-28.32 13.57,-27.06s6.28,36.87 6.28,36.87z" class="cls-5"/>
   <path id="svg_87" d="m361.21,510.39s-8.28,-30.59 -4.06,-35.58s9.54,24.89 9.54,24.89l-5.48,10.69z" class="cls-4"/>
   <polygon id="svg_88" points="360.8599853515625,507.2900085449219 313.0400085449219,578.5800170898438 337.239990234375,604.2000122070312 373.1199951171875,512.7300109863281 360.8599853515625,507.2900085449219 " class="cls-4"/>
   <path id="svg_89" d="m189.9,930.41c-28.67,11.33 -8.39,12 -5.33,11.33c9.71,-2.14 18.66,-8.66 39.33,-6s8.1,-19.55 8.1,-19.55s-16.19,10 -24.69,7.55l-17.41,6.67z" class="cls-19"/>
   <polygon id="svg_90" points="356.989990234375,684.239990234375 118.98999786376953,684.239990234375 89.9000015258789,594.239990234375 382.8999938964844,594.239990234375 356.989990234375,684.239990234375 " class="cls-8"/>
   <path id="svg_91" d="m690.9,490.71s71.74,115.82 81.6,104.94s7.49,-46.44 -47.85,-134.74l-33.75,29.8z" class="cls-4"/>
   <rect id="svg_92" height="314.61" width="139" y="635.94" x="168.49" class="cls-19"/>
   <rect id="svg_93" height="12" width="293" y="583.24" x="89.9" class="cls-19"/>
   <rect id="svg_94" height="13" width="210" y="942.24" x="132.99" class="cls-19"/>
   <path id="svg_95" d="m116.25,582.74s-3.29,-3.5 10.36,-7s27.79,3 27.79,8.5s-5.18,25.5 -15.07,26.5s-23.08,-28 -23.08,-28z" class="cls-4"/>
   <path id="svg_96" d="m116.9,580.18l-0.49,-0.87c0.19,-0.11 19.45,-10.78 35.27,0l-0.56,0.83c-15.31,-10.44 -34.03,-0.07 -34.22,0.04z" class="cls-5"/>
   <path id="svg_97" d="m192.44,336.05s-36.6,29.61 3.23,158.27c0,0 37.69,18.31 15.62,-52.75s-18.85,-105.52 -18.85,-105.52z" class="cls-14"/>
   <path id="svg_98" d="m274.67,337.09s39.93,25 16,157.49c0,0 -35.18,22.74 -21.89,-50.47s5.89,-107.02 5.89,-107.02z" class="cls-14"/>
   <path id="svg_99" d="m697.52,431.27s9.57,3.27 12.78,6.05s39,57.29 39,57.29l-35.9,37.13l-19.79,-37.66s-13.04,-36.39 3.91,-62.81z" class="cls-11"/>
   <path id="svg_100" d="m585.53,430s-9.57,3.26 -12.78,6s-39.88,62.53 -39.88,62.53l41.53,33.14l23,-50.59s-5.57,-13.32 -11.87,-51.08z" class="cls-11"/>
   <path id="svg_101" d="m683.88,549.21l-0.65,-0.75c9.77,-8.46 12.77,-22.69 12.77,-22.83l1,0.2c-0.07,0.17 -3.11,14.72 -13.12,23.38zm-95,-2c-5.21,-4.08 -6.5,-17.09 -6.56,-17.64l1,-0.09c0,0.13 1.3,13.13 6.18,17l-0.62,0.73zm110.43,-52c-0.12,-0.32 -11.85,-32.79 2.33,-55.38l0.84,0.54c-13.91,22.17 -2.35,54.18 -2.23,54.5l-0.94,0.34zm-121.05,-0.09c-0.06,-0.33 -5.6,-34 4.46,-57.63l0.92,0.39c-9.94,23.37 -4.45,56.74 -4.39,57.08l-0.99,0.16zm-15.09,-8.82l-1,-0.06l2.19,-38.24l1,0l-2.19,38.3zm155.26,-2.68l-0.89,-35.68l1,0l0.89,35.68l-1,0z" class="cls-1"/>
   <path id="svg_102" d="m639.3,428.72c-12.42,0 -15,-9.54 -15,-9.54l-38.77,10.82c-8.95,24.65 -6.75,65 -6.75,65c6.48,41.84 4.82,45.69 -0.47,87.29a31.05,31.05 0 0 0 0.54,9.09c12.66,22 110.91,19.45 123.11,-1.77a31.1,31.1 0 0 0 0.54,-9.1c-5.29,-41.6 -9.17,-43.67 -2.69,-85.51c0,0 -15.53,-36.87 -2.29,-63.75l-43.27,-12.09s-2.54,9.56 -14.95,9.56z" class="cls-11"/>
   <polygon id="svg_103" points="612.1099853515625,422.9100036621094 622.239990234375,410.5799865722656 639.2999877929688,428.7200012207031 625.4500122070312,440.9100036621094 612.1099853515625,422.9100036621094 " class="cls-11"/>
   <polygon id="svg_104" points="653.739990234375,408.739990234375 666.4500122070312,422.5799865722656 650.1099853515625,440.9100036621094 639.2999877929688,428.7200012207031 653.739990234375,408.739990234375 " class="cls-11"/>
   <polyline id="svg_105" points="639.1300048828125,428.67999267578125 625.280029296875,440.8699951171875 611.9500122070312,422.8699951171875 " class="cls-11"/>
   <polygon id="svg_106" points="625.2000122070312,441.6000061035156 611.5399780273438,423.1700134277344 612.3499755859375,422.57000732421875 625.3599853515625,440.1300048828125 638.7999877929688,428.29998779296875 639.4600219726562,429.04998779296875 625.2000122070312,441.6000061035156 " class="cls-1"/>
   <polygon id="svg_107" points="650.1099853515625,441.6600036621094 638.9199829101562,429.04998779296875 639.6699829101562,428.3800048828125 650.1099853515625,440.1600036621094 666.0700073242188,422.239990234375 666.8200073242188,422.9100036621094 650.1099853515625,441.6600036621094 " class="cls-1"/>
   <polygon id="svg_108" points="647.9500122070312,607.4099731445312 635.6199951171875,607.4099731445312 635.6099853515625,606.9199829101562 633.6099853515625,433.5799865722656 634.6099853515625,433.57000732421875 636.6099853515625,606.4099731445312 646.9400024414062,606.4099731445312 644.280029296875,434.9200134277344 645.280029296875,434.8999938964844 647.9500122070312,607.4099731445312 " class="cls-1"/>
   <polygon id="svg_109" points="765.989990234375,688.239990234375 527.989990234375,688.239990234375 498.8999938964844,598.239990234375 791.9000244140625,598.239990234375 765.989990234375,688.239990234375 " class="cls-8"/>
   <rect id="svg_110" height="314.61" width="139" y="639.94" x="577.49" class="cls-19"/>
   <rect id="svg_111" height="12" width="293" y="587.24" x="498.9" class="cls-19"/>
   <rect id="svg_112" height="13" width="210" y="946.24" x="541.99" class="cls-19"/>
   <path id="svg_113" d="m501.28,582.2s-3.59,-3.82 11.31,-7.64s30.31,3.27 30.31,9.27s-5.65,27.82 -16.44,28.91s-25.18,-30.54 -25.18,-30.54z" class="cls-4"/>
   <path id="svg_114" d="m502,579.36l-0.5,-0.87c0.21,-0.12 21.2,-11.75 38.44,0l-0.56,0.83c-16.76,-11.4 -37.21,-0.08 -37.38,0.04z" class="cls-5"/>
   <path id="svg_115" d="m501.28,582.2s-3.59,-3.82 11.31,-7.64s30.31,3.27 30.31,9.27s-5.65,27.82 -16.44,28.91s-25.18,-30.54 -25.18,-30.54z" class="cls-4"/>
   <path id="svg_116" d="m502,579.36l-0.5,-0.87c0.21,-0.12 21.2,-11.75 38.44,0l-0.56,0.83c-16.76,-11.4 -37.21,-0.08 -37.38,0.04z" class="cls-5"/>
   <path id="svg_117" d="m501.28,582.2s-3.59,-3.82 11.31,-7.64s30.31,3.27 30.31,9.27s-5.65,27.82 -16.44,28.91s-25.18,-30.54 -25.18,-30.54z" class="cls-4"/>
   <path id="svg_118" d="m502,579.36l-0.5,-0.87c0.21,-0.12 21.2,-11.75 38.44,0l-0.56,0.83c-16.76,-11.4 -37.21,-0.08 -37.38,0.04z" class="cls-5"/>
   <path id="svg_119" d="m501.28,582.2s-3.59,-3.82 11.31,-7.64s30.31,3.27 30.31,9.27s-5.65,27.82 -16.44,28.91s-25.18,-30.54 -25.18,-30.54z" class="cls-4"/>
   <path id="svg_120" d="m502,579.36l-0.5,-0.87c0.21,-0.12 21.2,-11.75 38.44,0l-0.56,0.83c-16.76,-11.4 -37.21,-0.08 -37.38,0.04z" class="cls-5"/>
   <path id="svg_121" d="m786,583.7s3.59,-3.82 -11.31,-7.64s-30.31,3.27 -30.31,9.27s5.65,27.82 16.44,28.91s25.18,-30.54 25.18,-30.54z" class="cls-4"/>
   <path id="svg_122" d="m785.35,580.86c-0.2,-0.12 -20.66,-11.44 -37.38,0l-0.56,-0.83c17.24,-11.76 38.23,-0.14 38.44,0l-0.5,0.83z" class="cls-5"/>
   <path id="svg_123" d="m786,583.7s3.59,-3.82 -11.31,-7.64s-30.31,3.27 -30.31,9.27s5.65,27.82 16.44,28.91s25.18,-30.54 25.18,-30.54z" class="cls-4"/>
   <path id="svg_124" d="m785.35,580.86c-0.2,-0.12 -20.66,-11.44 -37.38,0l-0.56,-0.83c17.24,-11.76 38.23,-0.14 38.44,0l-0.5,0.83z" class="cls-5"/>
   <path id="svg_125" d="m786,583.7s3.59,-3.82 -11.31,-7.64s-30.31,3.27 -30.31,9.27s5.65,27.82 16.44,28.91s25.18,-30.54 25.18,-30.54z" class="cls-4"/>
   <path id="svg_126" d="m785.35,580.86c-0.2,-0.12 -20.66,-11.44 -37.38,0l-0.56,-0.83c17.24,-11.76 38.23,-0.14 38.44,0l-0.5,0.83z" class="cls-5"/>
   <path id="svg_127" d="m786,583.7s3.59,-3.82 -11.31,-7.64s-30.31,3.27 -30.31,9.27s5.65,27.82 16.44,28.91s25.18,-30.54 25.18,-30.54z" class="cls-4"/>
   <path id="svg_128" d="m785.35,580.86c-0.2,-0.12 -20.66,-11.44 -37.38,0l-0.56,-0.83c17.24,-11.76 38.23,-0.14 38.44,0l-0.5,0.83z" class="cls-5"/>
   <path id="svg_129" d="m705,1045.48l0.86,-0.92a14.67,14.67 0 0 0 3.71,2.28c3.42,1.5 8,-7.21 12.62,-19.77l1.22,-1.31l-0.48,-0.73c2.67,-7.46 5.34,-16.06 7.81,-24.64c2.22,11.35 4.41,22.06 4.19,25.75c-0.46,7.85 -14.33,45.65 -14.33,45.65a21.47,21.47 0 0 0 2.88,2.41c-2.44,6.08 -4.94,12.81 -5.59,16.44c-3,16.61 0.18,36.79 4.7,67.33s27.21,149.24 31.1,173.79a2.77,2.77 0 0 0 2.69,2.12l3,0l-3,1.48c-2.25,17.92 -1.68,20.33 -11.87,24.5l0,0l-9,3.43c-2.41,0.89 -5.12,1.92 -8.22,3.14c-28.29,11.17 -8.29,11.83 -5.29,11.17c9.58,-2.12 18.4,-8.55 38.78,-5.92s8,-19.28 8,-19.28l-0.62,-18.52l1.21,0l7.29,-152.27l7.34,152.27l1.75,0l-0.61,18.52s-12.39,21.91 8,19.28s29.2,3.8 38.78,5.92c3,0.66 23,0 -5.26,-11.18c-3.1,-1.22 -5.81,-2.25 -8.22,-3.14l-8.95,-3.43l-0.06,0c-10.18,-4.17 -9.62,-6.58 -11.87,-24.5l-3,-1.48l2.44,0a2.76,2.76 0 0 0 2.68,-2.12c3.9,-24.55 26.58,-143.26 31.1,-173.79s7.69,-50.72 4.71,-67.33a39,39 0 0 0 -1.13,-4.3c10.76,-1.66 26.15,-10.61 26.15,-10.61s1.66,-0.34 1.08,-2.86l0.31,0.22s-0.19,-0.42 -0.58,-1.12a16.3,16.3 0 0 0 -1.45,-2.85c5.73,-20.2 2,-89 1.22,-102.51l2.91,-3.08s-21.56,-34.43 -31.8,-35.52l-0.74,0l-7,-3.33c25.93,-90.46 11.54,-127.32 3.7,-139.37a40,40 0 0 0 -4,-6s-0.06,0.14 -0.18,0.36c0,0 0,-0.08 0,-0.13a2.23,2.23 0 0 0 0.22,-0.23l0,-0.53l-0.43,0.21c-6.42,-17.08 -29.3,-61.66 -80.55,-11.73c-2.34,2.28 -4.71,4.58 -7,6.87l-0.22,-0.12l-1.33,1.57c-9.83,9.88 -18,19.22 -17,24.91c0.73,4.36 3.77,7.83 8.38,10.44c-2.7,9.1 -4.92,20.8 -5.84,35.74c-3.66,24.72 -5.15,53.14 0.11,79a8.45,8.45 0 0 0 -2.5,0.71c-9.33,4.35 -18.42,43.94 -18.42,43.94l3.8,2c-1.05,6.83 -1.89,13 -2.55,18.65l-20.57,-31.41c1.86,-7.38 6.76,-28.46 3.33,-32.51c-2.15,-2.55 -4.59,4.12 -6.45,11.14a37.7,37.7 0 0 0 -3.4,-11l0.22,-0.11s-7.37,-27.92 -13.37,-26.68c-5.69,1.17 -6.16,32.68 -6.2,36l-0.29,0.5l0,0c0,0.09 0.55,1.49 14,27.93l33.08,71.94a20.49,20.49 0 0 0 2.1,4.57l1.9,4.15zm120.67,16.52c-4.46,-12.69 -11.59,-33.66 -11.91,-39c-0.25,-4.26 4.8,-15.63 9.25,-26.74c4,27 8.61,45.12 13.51,57c-3.55,-0.4 -6.38,0.24 -7.55,1.89a32.7,32.7 0 0 0 -3.3,6.85zm-104.11,-136.79l1.53,-15.37c0.58,4.46 1.23,9.07 2,13.83l-3.53,1.54z" class="cls-20"/>
   <path id="svg_130" d="m330.8,1045.27s14.18,31.2 24.82,30.12s16.21,-22.59 16.21,-28.5c0,-2.4 -2.49,-5 -6.44,-6.94c10.75,-13.24 23.66,-31.81 34.68,-48.33l2.34,2.43l14.59,-27.85c4.6,33.38 1,37.9 -3.88,76a30.78,30.78 0 0 0 0.53,9a15.14,15.14 0 0 0 3.95,4.29c3.16,60.64 14,254.79 11.56,319.61c-0.88,-4 -5.42,-5.46 -7.1,-5.57c0,0 5,2.09 4.5,9.38a96.72,96.72 0 0 1 -2.88,14.16c-2.73,4.94 -3.39,8.13 -3.48,11.15l-0.15,0a2.14,2.14 0 0 0 -2,2.24l0,4.07a2.29,2.29 0 0 0 1.12,2l0,0.17l0.43,0a2,2 0 0 0 0.44,0.07l44,0a2.14,2.14 0 0 0 2,-2.24l0,-4.07a2.19,2.19 0 0 0 -1.66,-2.21a19,19 0 0 0 0.07,-2.1l0,-16.51c0,-3 -0.55,-3.85 -1.19,-4.71s-4.34,-4.42 -4.34,-4.42a6.21,6.21 0 0 0 -0.63,-2.79c8.85,-69.33 16.63,-250.2 18.05,-256.35c1.49,-6.45 -1,-10.85 1.48,-5.43c5,11.08 6.46,193.18 15.42,260.82c-1.39,0.83 -2.52,2.66 -2.52,6.66l0,23.34c0,1.73 0.67,3.82 1.8,4.26a1.5,1.5 0 0 0 -1.43,1.55l0,2.64a1.5,1.5 0 0 0 1.43,1.56l69.71,0a1.51,1.51 0 0 0 1.44,-1.56l0,-2.64a1.51,1.51 0 0 0 -1.44,-1.55s1.31,-0.94 1.31,-3.76c0,-11 -17.19,-5.63 -23.57,-9.41c-5.38,-3.19 -14.18,-11.26 -14.32,-21.17a5.68,5.68 0 0 0 -5.68,-5.51c2.73,-73.44 10.14,-255.61 12.4,-311a13.73,13.73 0 0 0 2.7,-3.25a30.78,30.78 0 0 0 0.53,-9c-4.2,-33 -6.08,-41.91 -3.33,-65.61l7.18,15.76l4.61,-3.69c10.62,16 23.16,34.12 33.88,47.64c-4.51,2 -7.43,4.81 -7.43,7.41c0,5.91 5.57,27.42 16.21,28.5s24.82,-30.12 24.82,-30.12s1.26,-1.34 -0.85,-3.22l0.42,0s-0.44,-0.25 -1.23,-0.63a19.78,19.78 0 0 0 -4.51,-2.17c-1.37,-15 -9.12,-38.43 -28.29,-73.75l3.32,-2.65s-36.16,-58.91 -39.32,-61.65s-12.61,-6 -12.61,-6l-26.47,-7.4l-9.65,-11.76l-0.58,0.62l0,-14.59c0,-0.38 0,-0.76 -0.06,-1.13c11,-7.71 20.57,-22.18 26.17,-37.33a13.4,13.4 0 0 0 3.3,0.15c7.4,-0.61 8.92,-14.93 8.31,-22.33c0,0 -1.2,-4.91 -7.48,-4.39l-0.42,0c1.32,-4.57 5,-18.13 4.39,-27.08a21.81,21.81 0 0 0 -4.52,-11.5c17.12,-28.25 -2.2,-39.91 -2.2,-39.91l-0.55,2.87c-7.15,-6.82 -21.3,-8.62 -40.38,-1.47a20,20 0 0 0 -5.2,-2c-1.23,-2.32 -3.64,-4.2 -8.17,-4.41c-12.27,-0.58 -24.61,15.11 -24.64,15.16a0.64,0.64 0 0 0 -0.12,0.58c-6.47,5.64 -11.18,12.36 -12.19,18.1c-0.59,-4.11 0,-10 5,-16.4a0.66,0.66 0 0 0 -0.08,-0.9a0.59,0.59 0 0 0 -0.85,0.09c-7.44,9.58 -5.61,18 -4.09,21.82c-8.23,6.88 -13,12.33 -12.45,20.56c0.58,9.23 5.82,25.9 7.41,30.81c-5.74,1.68 -6,6.87 -5.73,13.2c0.33,7.42 2.66,13.47 10.08,13.14a13.14,13.14 0 0 0 3.15,-0.53c4.3,15.6 18.47,28.27 31.78,34.08l0,12.39l-1,-1.37l-12.53,13.64l0,0l-30.63,8.55s-9.43,3.22 -12.6,6s-38.47,56.43 -38.47,56.43l2.88,3c-20.89,37.91 -28.95,62.52 -30.08,77.91a26.37,26.37 0 0 0 -7.39,3.1c-0.78,0.38 -1.22,0.62 -1.22,0.62l0.41,0c-2.07,1.87 -0.8,3.21 -0.8,3.21zm140.54,-329.17c-8.8,-1.33 -18.76,2.51 -26.95,8.38c4.33,-4.48 12.49,-11.54 20.51,-11.16c3.22,0.15 5.22,1.27 6.44,2.78zm-40.12,662.15l1.37,0.24l-0.43,0.7l-0.94,-0.94z" class="cls-3"/>
   <path id="svg_131" d="m209.91,1014.8l45.78,55.76l-4.17,6.25l-14.47,-1.13s-6.5,-0.56 -8.16,1c-2.33,2.22 3.17,10.16 6.91,10.56l7.7,1.56l0,0l19.91,4l0.87,-1.29c-21.77,58.23 12.93,170.19 12.93,170.19l0.76,0c-5.44,21.49 -5.74,56 13.93,108.59c0.64,3.65 3.21,7.42 3.31,10.33a46.22,46.22 0 0 1 -2.81,3.77a8.49,8.49 0 0 0 -1.91,-0.47c-0.45,0 -3.05,4.78 -3.89,6.86s-1.9,12.31 -1.38,13.94a2.1,2.1 0 0 0 0.39,0.65l0,0l1.95,29.89l1,0s0.56,-12.82 0.48,-16a9.37,9.37 0 0 1 3,-6.74a45.58,45.58 0 0 1 3.68,6.41c5,10.43 3.41,16 12.1,15.83l20.59,-0.52c3,-0.08 4.25,-2.66 4,-3.81s-4.06,-3.6 -8.72,-6.63a5.14,5.14 0 0 0 -2.83,-0.55l-0.9,-0.71c0.09,-2.64 0.15,-5.08 0.12,-6.23a9.39,9.39 0 0 1 3,-6.75a45.12,45.12 0 0 1 3.69,6.41c5,10.43 3.4,16.06 12.1,15.83l20.58,-0.52c3,-0.08 4.26,-2.66 4,-3.8s-4.05,-3.6 -8.71,-6.64a5.14,5.14 0 0 0 -2.83,-0.55c-1.58,-1.18 -3.51,-2.92 -3.69,-3.89c-0.27,-1.45 -4.84,-23.66 -4.53,-30.59c0.2,-4.63 -1.53,-10.82 -1.49,-15.84l0,0l0,-1.28c0,-0.09 0,-0.17 0,-0.25l0,0l0,-108.2l0.51,0c24.39,-83.13 23.58,-137.92 19.25,-168l21.67,-0.63l-3.58,-39l35.62,-3.19l-8.51,-14.62l18.38,-6.16l-56.83,-77.12c-3.14,-5.54 -10,-9.61 -16.91,-10.62a15.49,15.49 0 0 0 -2.66,-0.55l-18.46,0.71l0.68,-15.19c14.39,-6.62 19.92,-24.08 24.61,-41.6a12.86,12.86 0 0 0 4.21,0.15a13,13 0 0 0 3.81,-24.68c0.4,-0.15 0.66,-0.22 0.66,-0.22l0.34,-8.81c7.6,-2.37 12.89,-6.37 14.13,-12.16s-6.44,-15.25 -15.81,-25.55l-1.31,-1.63l-0.13,0.11c-2.19,-2.38 -4.45,-4.79 -6.69,-7.18c-11.49,-12.23 -21.64,-19.18 -30.55,-22.47a33.16,33.16 0 0 0 0.43,-14.55c-3.07,-16 -21,-21.66 -34.89,-19c-10.16,1.94 -15.35,7.77 -16.23,17l-3.92,-4.93s-10.61,17.49 12.78,33.9c-6.64,3.21 -18.3,12.49 -19.66,38.29a57.89,57.89 0 0 0 -0.87,29.5l2.62,9.33l0,0a13,13 0 0 0 9.89,22.6a13.12,13.12 0 0 0 3.84,-1c6.62,11.77 13.76,22.92 22.66,29.52l0,5.51l0,0.06l0,14.15l-0.18,-0.11l-9.53,0.54l0,0l-1.65,0.06c-8.67,-1.59 -19.14,-0.2 -24.14,3.93l-54.21,45.84a13.6,13.6 0 0 0 -1.77,22.31l0.11,0.02zm101.25,358.2l0,0l0,-1.28c0,-0.08 0,-0.16 0,-0.25l0,0l0,-42.34a310.89,310.89 0 0 0 11.84,38.22c0.64,3.65 3.22,7.42 3.32,10.33a46.22,46.22 0 0 1 -2.81,3.77a8.61,8.61 0 0 0 -1.92,-0.47c-0.44,0 -3.05,4.78 -3.88,6.86s-1.9,12.31 -1.39,13.94a2,2 0 0 0 0.4,0.65l0,0l1.18,18.12a2.88,2.88 0 0 1 -0.67,-1.15c-0.27,-1.45 -4.83,-23.66 -4.53,-30.59c0.16,-4.63 -1.58,-10.81 -1.54,-15.81zm11.32,9.63l0.87,-1q-0.51,0.57 -0.87,0.97l0,0.03zm55,-358.32l-0.32,-3.5l2.54,2.83l-2.22,0.67zm-85.2,360.25c-0.35,0.42 -0.64,0.76 -0.89,1l0.89,-1zm-15.39,-313.77a13.67,13.67 0 0 0 -1.21,-7.87l1,-0.36l-30.23,-53.28l22.07,-12.84l9.59,35.56a1.88,1.88 0 0 0 -0.32,0.63c-0.33,1.18 0.45,2.75 1.89,4.48l7.87,25.75a43.52,43.52 0 0 0 -11.55,8.93l0.89,-1z" class="cls-3"/>
   <path id="svg_132" d="m441.63,900.26l0.74,-0.06l-0.74,0.06z" class="cls-3"/>
   <path id="svg_133" d="m449.92,899.61l-1.45,0.11l1.45,-0.11z" class="cls-3"/>
   <path id="svg_134" d="m443.79,900.09l-1.31,0.1l1.31,-0.1z" class="cls-3"/>
   <path id="svg_135" d="m424.62,924.33c24.39,11.26 24.9,7.48 24.9,7.48a10.51,10.51 0 0 0 5.27,-4.93l6.5,2.83c-10,-4.2 -5.44,2.11 -5.44,2.11c-4.21,18.88 82.67,82.92 82.67,82.92l11.12,-11.88c6.15,-4.56 13.24,-14.17 21.7,-33.36l3.18,2.3c-0.37,12.8 -2.92,23.48 -5.94,47.23a30.82,30.82 0 0 0 0.53,9c1.41,2.46 4,4.67 7.53,6.62c-1.26,14.21 -2.44,28.06 -3.08,36.71c-6.72,90.22 10.59,241.85 16.74,291.26a5.62,5.62 0 0 0 -5.13,5.46c-0.14,9.92 -8.94,18 -14.33,21.17c-6.38,3.79 -23.57,-1.55 -23.57,9.41c0,2.83 1.31,3.77 1.31,3.77s23.81,4.56 30.3,4.16s11.63,-2.93 11.63,-4.16s0.28,-1.84 0.85,-2.19s5,-2.25 7.31,-2.25a2.1,2.1 0 0 1 2.36,1.88a2.52,2.52 0 0 0 1.58,2.58s5.78,3.1 7.88,3.44a20.19,20.19 0 0 0 7.09,-0.89a12,12 0 0 0 0.71,-2.57c1.13,-0.45 1.8,-2.53 1.8,-4.27l0,-22.66l14.11,-257.59l86.85,252.68a0.64,0.64 0 0 1 0,0.07l-0.06,0.28a7.23,7.23 0 0 0 -0.06,1s-3.71,3.55 -4.34,4.41s-1.18,1.76 -1.18,4.72l0,16.51c0,2.13 -0.53,10.54 12.42,10.54l24.7,0c4,0 7.11,-4 7.11,-7.73s-0.7,-7.57 -5,-14.53s-7.47,-12.13 -7.47,-12.13s-1.94,-3.29 -4,-4.34c0,0 -1,-3.42 -2.38,-4.27c-2.45,-18.25 -28.05,-208 -48.84,-301.63c-1.56,-7 -4.92,-16.94 -8.74,-27.18c3.38,-1.86 5.93,-4 7.36,-6.51a30.82,30.82 0 0 0 0.53,-9c-5.22,-41 -6.85,-44.81 -0.47,-86.07c0,0 0.2,-3.72 0.23,-9.58c3,-1.15 8,-3.21 10.16,-5.07c3.16,-2.74 39.32,-61.65 39.32,-61.65l-4.62,-3.24c8.1,-17.18 16.15,-35.91 18.4,-46.7c10.13,-23.76 24.08,-59.5 25,-78.14l0.28,0.18c19.35,-24.9 21.48,-32.11 21.48,-32.11s3.86,-29.35 -1.8,-31.71s-18.19,23.66 -18.19,23.66l0.19,0.08c-2,2.06 -3.89,5.46 -5.5,9.31c-0.52,-6.9 -1.66,-13.22 -4.15,-11.22c-5,4 -2.73,35.2 -2.73,35.2l0,0c-9,11.31 -33.49,39.94 -51.4,96.86c-3.32,4 -6.91,8.66 -10.8,14.11l-0.67,-0.47l-25,35.53l-34.47,-9.64a23.52,23.52 0 0 0 0.3,-4.63l-0.67,-21.13c9.9,-6.34 19.44,-16.12 22,-27.78a12.51,12.51 0 0 0 11.95,-12c0.23,-5.61 -2.11,-8.78 -4.65,-9.66l0,0c1.08,-16 10.47,-29 8.29,-38.53a13.78,13.78 0 0 0 -7.18,-24c0,-0.05 0,-0.1 0,-0.15a13.79,13.79 0 0 0 -11.84,-13.65s0,-0.11 0,-0.16a13.79,13.79 0 0 0 -19.72,-12.44a13.73,13.73 0 0 0 -14.84,-3.38a13.79,13.79 0 0 0 -25.46,4.5a13.74,13.74 0 0 0 -17.48,4.49c-0.17,0 -0.33,0 -0.5,0a13.79,13.79 0 0 0 -12.39,19.86a8.86,8.86 0 0 0 -4.17,15.44c-2.46,9.26 0.17,15.58 9.36,18.07c1.36,7 3.27,15.07 2.69,23.66l0,0c-2.63,0.54 -5.38,3.36 -5.91,9a12.51,12.51 0 0 0 11,13.58c4,17.89 16,32.88 28.64,38.58l0.53,16.7a24.67,24.67 0 0 0 0.87,5.72a10.92,10.92 0 0 1 -1,-2.24l-44.84,11.73l-0.35,-0.35s-8.43,5.33 -10.87,8.74s-24.21,63.88 -24.21,63.88l5.7,4.11c-1.85,8.85 -3.61,18.05 -4.91,26.46c-36.33,-30.16 -64.53,-39.88 -74,-44.18l2.28,1s-12.79,-28.51 -19.13,-29.68c-1,-0.18 -1.48,0.3 -1.58,1.25c-1.55,-1.64 -2.62,-2.63 -2.62,-2.63c-25.16,1.92 -17.03,24.02 -17.03,24.02zm244.43,-130.77l0.27,-3.92l0,0l-0.26,3.82a0.34,0.34 0 0 1 -0.01,0.1z" class="cls-3"/>
   <path id="svg_136" d="m368.71,929.84l-0.74,-0.06l0.74,0.06z" class="cls-3"/>
   <path id="svg_137" d="m360.42,929.19l1.45,0.11l-1.45,-0.11z" class="cls-3"/>
   <path id="svg_138" d="m366.56,929.67l1.3,0.1l-1.3,-0.1z" class="cls-3"/>
   <path id="svg_139" d="m368.71,929.84s-1.07,1 -2.62,2.63c-0.1,-1 -0.58,-1.43 -1.57,-1.25c-6.35,1.17 -19.14,29.67 -19.14,29.67l2.29,-1c-9.47,4.3 -37.67,14 -74,44.18c-1.31,-8.41 -3.07,-17.61 -4.92,-26.46l5.71,-4.11s-21.77,-60.5 -24.21,-63.88s-10.87,-8.73 -10.87,-8.73l-0.35,0.35l-44.84,-11.73a10.27,10.27 0 0 1 -1,2.24a24.67,24.67 0 0 0 0.87,-5.72l0.53,-16.7c12.68,-5.7 24.67,-20.69 28.64,-38.58a12.5,12.5 0 0 0 11,-13.58c-0.52,-5.59 -3.27,-8.41 -5.9,-8.95l0,0c-0.58,-8.59 1.33,-16.63 2.69,-23.66c9.2,-2.49 11.82,-8.81 9.36,-18.07a8.86,8.86 0 0 0 -4.22,-15.49a13.77,13.77 0 0 0 -12.39,-19.86c-0.17,0 -0.33,0 -0.49,0a13.75,13.75 0 0 0 -17.49,-4.49a13.79,13.79 0 0 0 -25.46,-4.5a13.73,13.73 0 0 0 -14.83,3.36a13.78,13.78 0 0 0 -19.62,12.5l0,0.16a13.78,13.78 0 0 0 -11.83,13.65l0,0.18a13.78,13.78 0 0 0 -7.18,24c-2.18,9.55 7.21,22.53 8.29,38.53l0,0c-2.53,0.88 -4.88,4.05 -4.65,9.66a12.51,12.51 0 0 0 11.95,12c2.52,11.66 12.06,21.44 22,27.78l-0.67,21.13a25.15,25.15 0 0 0 0.3,4.63l-34.47,9.64l-25,-35.53l-0.66,0.47c-3.9,-5.45 -7.49,-10.12 -10.81,-14.11c-17.91,-56.92 -42.39,-85.55 -51.4,-96.86l0,0s2.25,-31.2 -2.75,-35.24c-2.49,-2 -3.63,4.32 -4.15,11.22c-1.61,-3.85 -3.45,-7.25 -5.49,-9.31l0.19,-0.08s-12.54,-26 -18.2,-23.66s-1.8,31.73 -1.8,31.73s2.12,7.21 21.47,32.11l0.28,-0.18c0.92,18.64 14.86,54.38 25,78.14c2.24,10.79 10.29,29.52 18.39,46.7l-4.61,3.23s36.15,58.91 39.31,61.65c2.14,1.86 7.14,3.92 10.16,5.07c0,5.86 0.23,9.58 0.23,9.58c6.39,41.26 4.75,45.05 -0.47,86.07a30.82,30.82 0 0 0 0.53,9c1.43,2.48 4,4.65 7.37,6.51c-3.83,10.24 -7.19,20.19 -8.74,27.18c-20.79,93.64 -46.4,283.38 -48.85,301.63c-1.41,0.85 -2.38,4.27 -2.38,4.27c-2.07,1 -4,4.34 -4,4.34s-3.14,5.17 -7.48,12.13s-5,10.77 -5,14.53s3.1,7.73 7.12,7.73l24.65,0c13,0 12.43,-8.41 12.43,-10.54l0,-16.55c0,-3 -0.55,-3.85 -1.18,-4.72s-4.35,-4.41 -4.35,-4.41a7.23,7.23 0 0 0 -0.06,-1l-0.06,-0.28s0,0 0,-0.07l86.84,-252.68l14.11,257.59l0,22.63c0,1.74 0.67,3.82 1.8,4.27a11.69,11.69 0 0 0 0.72,2.57a20.08,20.08 0 0 0 7.08,0.89c2.11,-0.34 7.89,-3.44 7.89,-3.44a2.51,2.51 0 0 0 1.57,-2.58a2.11,2.11 0 0 1 2.36,-1.88c2.26,0 6.74,1.91 7.31,2.25s0.86,1 0.86,2.19s5.13,3.76 11.62,4.16s30.3,-4.16 30.3,-4.16s1.31,-0.94 1.31,-3.77c0,-11 -17.18,-5.62 -23.57,-9.41c-5.38,-3.19 -14.18,-11.25 -14.32,-21.17a5.63,5.63 0 0 0 -5.13,-5.46c6.14,-49.41 23.46,-201 16.74,-291.26c-0.65,-8.65 -1.83,-22.5 -3.08,-36.71c3.5,-2 6.11,-4.16 7.53,-6.62a30.82,30.82 0 0 0 0.53,-9c-3,-23.75 -5.58,-34.43 -6,-47.23l3.18,-2.3c8.47,19.19 15.55,28.8 21.7,33.36l11.12,11.88s86.89,-64 82.67,-82.92c0,0 4.58,-6.31 -5.43,-2.11l6.5,-2.83a10.43,10.43 0 0 0 5.27,4.93s0.5,3.78 24.9,-7.48c0.04,0.08 8.17,-22.02 -16.98,-23.99zm-227.43,-106.84l-0.26,-3.82l0,0l0.27,3.92s-0.01,-0.03 -0.01,-0.1z" class="cls-3"/>
  </g>
 </g>
</svg>