<?xml version="1.0" encoding="UTF-8"?>
<svg width="32px" height="32px" viewBox="0 0 32 32" version="1.1" xmlns="http://www.w3.org/2000/svg" xmlns:xlink="http://www.w3.org/1999/xlink">
    <title>ADD654B2-90F4-4922-B811-46E2C6DBB88F</title>
    <g id="Wireframes" stroke="none" stroke-width="1" fill="none" fill-rule="evenodd">
        <g id="report---share-modal" transform="translate(-172.000000, -747.000000)">
            <g id="icon-instagram" transform="translate(172.000000, 747.000000)">
                <polygon id="Path" points="0 0 32 0 32 32 0 32"></polygon>
                <path d="M16,12 C13.790861,12 12,13.790861 12,16 C12,18.209139 13.790861,20 16,20 C18.209139,20 20,18.209139 20,16 C20,13.790861 18.209139,12 16,12 Z M16,9.33333333 C19.6818983,9.33333333 22.6666667,12.3181017 22.6666667,16 C22.6666667,19.6818983 19.6818983,22.6666667 16,22.6666667 C12.3181017,22.6666667 9.33333333,19.6818983 9.33333333,16 C9.33333333,12.3181017 12.3181017,9.33333333 16,9.33333333 L16,9.33333333 Z M24.6666667,9 C24.6666667,9.92047458 23.9204746,10.6666667 23,10.6666667 C22.0795254,10.6666667 21.3333333,9.92047458 21.3333333,9 C21.3333333,8.07952542 22.0795254,7.33333333 23,7.33333333 C23.9204746,7.33333333 24.6666667,8.07952542 24.6666667,9 Z M16,5.33333333 C12.7013333,5.33333333 12.1626667,5.34266667 10.628,5.41066667 C9.58266667,5.46 8.88133333,5.6 8.23066667,5.85333333 C7.652,6.07733333 7.23466667,6.34533333 6.79066667,6.79066667 C6.37334248,7.19386547 6.0524709,7.68611165 5.852,8.23066667 C5.59866667,8.884 5.45866667,9.584 5.41066667,10.628 C5.34133333,12.1 5.33333333,12.6146667 5.33333333,16 C5.33333333,19.2986667 5.34266667,19.8373333 5.41066667,21.372 C5.46,22.416 5.6,23.1186667 5.852,23.768 C6.07866667,24.348 6.34533333,24.7653333 6.788,25.208 C7.23733333,25.656 7.65466667,25.924 8.228,26.1453333 C8.88666667,26.4 9.588,26.5413333 10.628,26.5893333 C12.1,26.6586667 12.6146667,26.6666667 16,26.6666667 C19.2986667,26.6666667 19.8373333,26.6573333 21.372,26.5893333 C22.4146667,26.54 23.1173333,26.4 23.768,26.148 C24.3453333,25.9226667 24.7653333,25.6546667 25.208,25.212 C25.6573333,24.7626667 25.9253333,24.3453333 26.1466667,23.772 C26.4,23.1146667 26.5413333,22.412 26.5893333,21.372 C26.6586667,19.9 26.6666667,19.3853333 26.6666667,16 C26.6666667,12.7013333 26.6573333,12.1626667 26.5893333,10.628 C26.54,9.58533333 26.4,8.88133333 26.1466667,8.23066667 C25.9457235,7.68666912 25.625432,7.19461394 25.2093333,6.79066667 C24.8063116,6.37312812 24.314013,6.05222242 23.7693333,5.852 C23.116,5.59866667 22.4146667,5.45866667 21.372,5.41066667 C19.9,5.34133333 19.3853333,5.33333333 16,5.33333333 Z M16,2.66666667 C19.6226667,2.66666667 20.0746667,2.68 21.496,2.74666667 C22.916,2.81333333 23.8826667,3.036 24.7333333,3.36666667 C25.6133333,3.70533333 26.3546667,4.164 27.096,4.904 C27.7739916,5.57052795 28.2986048,6.37678528 28.6333333,7.26666667 C28.9626667,8.116 29.1866667,9.084 29.2533333,10.504 C29.316,11.9253333 29.3333333,12.3773333 29.3333333,16 C29.3333333,19.6226667 29.32,20.0746667 29.2533333,21.496 C29.1866667,22.916 28.9626667,23.8826667 28.6333333,24.7333333 C28.2995688,25.623702 27.7748276,26.430156 27.096,27.096 C26.4292819,27.773759 25.6230791,28.2983368 24.7333333,28.6333333 C23.884,28.9626667 22.916,29.1866667 21.496,29.2533333 C20.0746667,29.316 19.6226667,29.3333333 16,29.3333333 C12.3773333,29.3333333 11.9253333,29.32 10.504,29.2533333 C9.084,29.1866667 8.11733333,28.9626667 7.26666667,28.6333333 C6.3764349,28.2992978 5.57003629,27.7745926 4.904,27.096 C4.22587525,26.429581 3.70124164,25.6232924 3.36666667,24.7333333 C3.036,23.884 2.81333333,22.916 2.74666667,21.496 C2.684,20.0746667 2.66666667,19.6226667 2.66666667,16 C2.66666667,12.3773333 2.68,11.9253333 2.74666667,10.504 C2.81333333,9.08266667 3.036,8.11733333 3.36666667,7.26666667 C3.7003148,6.37623921 4.22507152,5.56976141 4.904,4.904 C5.57022797,4.22564164 6.37657145,3.70097232 7.26666667,3.36666667 C8.11733333,3.036 9.08266667,2.81333333 10.504,2.74666667 C11.9253333,2.684 12.3773333,2.66666667 16,2.66666667 Z" id="Shape" fill="#666666" fill-rule="nonzero"></path>
            </g>
        </g>
    </g>
</svg>