<?xml version="1.0" encoding="utf-8"?>
<!-- Generator: Adobe Illustrator 24.2.1, SVG Export Plug-In . SVG Version: 6.00 Build 0)  -->
<svg version="1.1" id="Слой_1" xmlns="http://www.w3.org/2000/svg" xmlns:xlink="http://www.w3.org/1999/xlink" x="0px" y="0px"
	 viewBox="0 0 864.61 999.02" style="enable-background:new 0 0 864.61 999.02;" xml:space="preserve">
<style type="text/css">
	.st0{fill:#FFFFFF;}
	.st1{fill:#D7816C;}
	.st2{fill:#E3AB84;}
	.st3{fill:#C2E1CE;}
	.st4{fill-rule:evenodd;clip-rule:evenodd;fill:#1F3441;}
	.st5{fill:#2F3C5A;}
	.st6{fill-rule:evenodd;clip-rule:evenodd;fill:#FFFFFF;}
	.st7{fill:#EFF7F3;}
	.st8{fill:#807DBA;}
	.st9{fill-rule:evenodd;clip-rule:evenodd;fill:#E3AB84;}
	.st10{fill-rule:evenodd;clip-rule:evenodd;fill:#D7816C;}
	.st11{fill-rule:evenodd;clip-rule:evenodd;fill:#1C2036;}
	.st12{fill-rule:evenodd;clip-rule:evenodd;fill:#F3E9D6;}
	.st13{opacity:0.5;fill-rule:evenodd;clip-rule:evenodd;fill:#FFFFFF;}
	.st14{fill:#1C2036;}
	.st15{fill:#B25348;}
	.st16{fill:#D86C51;}
	.st17{fill-rule:evenodd;clip-rule:evenodd;fill:none;stroke:#1C2036;stroke-miterlimit:10;}
	.st18{fill:#EB5A3F;}
	.st19{fill-rule:evenodd;clip-rule:evenodd;fill:#2F3C5A;}
	.st20{fill-rule:evenodd;clip-rule:evenodd;fill:#70BE8D;}
	.st21{fill:#70BE8D;}
</style>
<g>
	<g>
		<path class="st0" d="M863.27,240.77c-28.5,10.92-64.42,26.1-102.44,45.79c-80.68,41.8-187.68,112.93-239.14,214.57
			c-13.67,27.02-22.84,54.93-27.48,83.65c-1.83,0.11-3.67,0.22-5.53,0.3c4.67-29.69,14.08-58.52,28.21-86.4
			c52.1-102.93,160.13-174.8,241.56-216.94c38.89-20.14,75.61-35.6,104.52-46.62C863.11,237,863.22,238.88,863.27,240.77z"/>
		<path class="st0" d="M856.26,317.57c-0.4,1.94-0.86,3.91-1.35,5.88c-22.95,5.8-57.41,17.85-90.96,42.36
			c-41.85,30.55-89.02,85.97-103.09,184.1c-1.91,0.76-3.86,1.54-5.8,2.29c13.81-101.99,62.64-159.4,105.9-190.89
			C796.4,335.48,832.85,323.21,856.26,317.57z"/>
		<path class="st0" d="M418.63,585.35c-1.83-0.05-3.67-0.13-5.5-0.22c-0.65-15.02-3.4-36.57-12.22-60.67
			c-15.42-42.07-53.02-100.83-144.62-141.87c-91.71-41.12-147.99-97.86-162.77-164.14c-9.28-41.53-1.62-84.38,22.09-125.93
			c1.73,0.57,3.45,1.19,5.2,1.83c-23.46,40.67-31.07,82.49-22.03,122.94c14.4,64.53,69.63,120,159.72,160.37
			c93.46,41.91,131.84,102.09,147.56,145.24C415.2,547.94,418.03,570.03,418.63,585.35z"/>
		<path class="st0" d="M75.24,496.9c-1.65-1.19-3.26-2.37-4.88-3.64c6.2-41.91,3.07-106.81-43.6-184.21
			c-38.97-64.66-37.38-138.69,4.64-214.14c3.56-6.36,7.25-12.51,11.06-18.39c2.02,0.11,4.07,0.24,6.15,0.43
			c-4.31,6.58-8.55,13.48-12.57,20.71C-5.5,172.33-7.06,242.5,31.37,306.25C79.9,386.74,82.14,454.13,75.24,496.9z"/>
		<path class="st0" d="M341.99,579.25c-1.97-0.24-3.94-0.49-5.91-0.73c-12.67-37.27-38.78-89.1-89.47-112.53
			c-15.64-7.23-29.93-7.25-42.47-0.03c-22,12.7-35.78,45.36-44.17,75.67c-1.78-0.59-3.53-1.21-5.26-1.89
			c8.68-31.12,23.16-64.85,46.73-78.44c14.13-8.14,30.09-8.22,47.43-0.19C302.4,485.84,329.29,540.88,341.99,579.25z"/>
		<path class="st0" d="M758.32,44.16c-8.2,14.37-16.45,30.71-25.24,48.13c-40.85,81.03-91.71,181.91-203.54,207.18
			c-14.99,3.4-29.42,5.1-43.17,5.1c-31.52,0-59.68-8.9-84.03-26.64c-32.84-23.92-54.2-60.86-67.95-95.92
			c1.91-0.05,3.75-0.19,5.58-0.38c13.46,33.76,34.14,69.03,65.56,91.93c33.65,24.51,74.99,31.47,122.83,20.66
			C637.7,269.49,687.94,169.9,728.28,89.87c8.9-17.64,17.26-34.19,25.62-48.78C755.38,42.08,756.86,43.08,758.32,44.16z"/>
		<path class="st0" d="M726.66,25.23c-26.08,47.24-78.88,125.42-159.07,164.33c-12.62,6.12-24.92,9.17-36.86,9.17
			c-10.92,0-21.49-2.56-31.71-7.69c-28.37-14.21-49.97-46.09-65.8-79.66c1.32-1.59,2.64-3.18,3.96-4.83
			c15.53,33.68,36.7,65.85,64.26,79.66c19.77,9.92,41.23,9.41,63.77-1.51c78.82-38.24,130.84-115.17,156.59-161.8
			C723.43,23.64,725.04,24.42,726.66,25.23z"/>
		<path class="st0" d="M627.35,1.8c-4.85,34.06-19.23,77.23-60.3,87.51c-5.31,1.32-10.41,1.91-15.26,1.91
			c-27.29,0-47.27-19.39-60.81-40.04c1.4-1.11,2.83-2.21,4.23-3.26c14.97,23,38.1,44.22,70.54,36.13
			c37.29-9.3,50.99-49.67,55.9-82.14C623.54,1.85,625.46,1.8,627.35,1.8z"/>
	</g>
	<path class="st1" d="M662.33,561.75l-21.08,1.65l-6.29,16.17l28.67-5.79c3.88-0.42,9.59-8.66,7.17-10.97
		C669.08,561.17,662.33,561.75,662.33,561.75z"/>
	<path class="st2" d="M624.1,563.47l10.86,16.09l20.68-4.17l-23.04-34.48l-4.47,2.94C621.6,548.16,619.8,556.94,624.1,563.47z"/>
	<polygon class="st2" points="641.79,556.26 716.88,497.03 688.21,479.03 631.59,540.99 	"/>
	<path class="st3" d="M540.88,952.3c24.19,0,46.71-1.51,65.66-4.11c14.82,2.57,33.7,4.11,54.28,4.11c47.62,0,86.23-8.25,86.23-18.44
		s-38.61-18.44-86.23-18.44c-3.03,0-6.02,0.03-8.97,0.1c-19.13-9.03-61.6-15.31-110.97-15.31c-67.27,0-121.8,11.66-121.8,26.04
		S473.61,952.3,540.88,952.3z"/>
	<path class="st4" d="M523.62,923.63h23.17c1.86,0,3.38-1.65,3.38-3.66v-6.23c0-2.01-1.52-3.66-3.38-3.66h-23.17
		c-1.86,0-3.38,1.65-3.38,3.66v6.23C520.24,921.98,521.76,923.63,523.62,923.63z"/>
	<path class="st4" d="M544.62,882.36c0,0,4.27,0,6.58,0c2.32,0,5.65,0.5,5.65,7.44c0,6.94,0,21.91,0,23.67
		c0,1.76-0.68,3.87-1.82,4.33c0,0-0.45,2.36-0.73,2.61c-0.28,0.25-5.05,1.26-7.19,0.91c-2.13-0.35-8-3.49-8-3.49s-1.6-0.48-1.6-2.62
		c0,0-0.09-1.91-2.39-1.91c-2.29,0-6.84,1.93-7.42,2.29c-0.58,0.35-0.87,0.96-0.87,2.21c0,1.25-5.21,3.82-11.79,4.22
		c-4.19,0.26-15.51-1.53-23.17-2.85c1.51-7.02,6.14-9.16,10.76-9.16c5.64,0,10.69,0,24.89,0c14.19,0,17.08-11.78,17.08-17.78
		C544.62,886.21,544.62,882.36,544.62,882.36z"/>
	<path class="st4" d="M484.33,923.63h42.52c0.8,0,1.45-0.71,1.45-1.58v-2.68c0-0.87-0.65-1.57-1.45-1.57h-42.52
		c-0.8,0-1.45,0.71-1.45,1.57v2.68C482.88,922.92,483.53,923.63,484.33,923.63z"/>
	<path class="st4" d="M521.69,923.63h33.34c0.8,0,1.45-0.71,1.45-1.58v-2.68c0-0.87-0.65-1.57-1.45-1.57h-33.34
		c-0.8,0-1.45,0.71-1.45,1.57v2.68C520.24,922.92,520.89,923.63,521.69,923.63z"/>
	<path class="st3" d="M315.78,959.8c-24.19,0-46.71-1.51-65.66-4.11c-14.82,2.57-33.7,4.11-54.28,4.11
		c-47.62,0-86.23-8.25-86.23-18.44c0-10.18,38.61-18.44,86.23-18.44c3.03,0,6.02,0.03,8.97,0.1c19.13-9.03,61.6-15.31,110.97-15.31
		c67.27,0,121.8,11.66,121.8,26.04S383.05,959.8,315.78,959.8z"/>
	<path class="st5" d="M554.98,496.59l16.12,104.44l-14.42,292.72h-27.94c0,0-27.3-201.25-19.07-311.72c1.82-24.5,7.89-90,7.89-90
		L554.98,496.59z"/>
	<path class="st2" d="M476.01,418.23c0,0-43.86,92.12-32.01,95.8c11.85,3.68,24.15,5.21,69.5-82.5L476.01,418.23z"/>
	<path class="st2" d="M661.22,413.96c0,0,67.02,76.93,56.6,83.66s-21.86,11.51-89.13-60.77L661.22,413.96z"/>
	<path class="st2" d="M461.17,516.11c-28.15,9.43-100.67-42.98-100.91-62.6c0,0-6.54-5.63,6.39-3.07
		c12.3,2.43,52.51,6.24,108.94,40.54C475.59,490.98,468.04,513.81,461.17,516.11z"/>
	<path class="st6" d="M509.59,379.73c0,0-9.57,3.26-12.78,6.05c-3.21,2.78-38.98,57.29-38.98,57.29l31.83,36.97l23.84-37.5
		C513.5,442.53,526.54,406.15,509.59,379.73z"/>
	<path class="st6" d="M618.54,377.8c0,0,10.01,1.41,13.69,3.54c3.68,2.13,50.91,53.93,50.91,53.93l-29.78,30.67l-36.91-35.69
		C616.45,430.25,619.44,416.05,618.54,377.8z"/>
	<path class="st7" d="M523.23,497.67c-10-8.67-13.05-23.24-13.08-23.39l0.98-0.2c0.03,0.14,3.02,14.39,12.75,22.83L523.23,497.67z
		 M618.2,495.69l-0.62-0.79c4.88-3.82,6.17-16.82,6.18-16.95l1,0.09C624.71,478.6,623.41,491.61,618.2,495.69z M507.77,443.65
		l-0.94-0.35c0.12-0.32,11.67-32.33-2.24-54.5l0.85-0.53C519.62,410.86,507.89,443.32,507.77,443.65z M628.82,443.56l-0.99-0.17
		c0.06-0.33,5.55-33.71-4.4-57.08l0.92-0.39C634.42,409.56,628.88,443.22,628.82,443.56z M643.91,434.73l-2.16-38.18l1-0.06
		l2.16,38.18L643.91,434.73z M488.65,432.05l-1-0.03l0.89-35.68l1,0.03L488.65,432.05z"/>
	<g>
		<polygon class="st0" points="367.72,500.69 270.08,430.94 371.46,421.73 448.12,502.6 		"/>
		<path class="st8" d="M449.31,503.13l-81.76-1.95l-0.13-0.09l-98.74-70.53l102.96-9.35L449.31,503.13z M367.88,500.19l79.04,1.89
			l-75.67-79.83l-99.79,9.06L367.88,500.19z"/>
	</g>
	<path class="st9" d="M574.79,319.76L574.79,319.76c8.37,1.18,13.99,10.92,12.47,21.64l-3.97,28.08
		c-1.51,10.72-9.6,18.52-17.98,17.34l0,0c-8.37-1.18-13.98-10.92-12.47-21.64l3.97-28.08C558.34,326.38,566.42,318.58,574.79,319.76
		z"/>
	<path class="st10" d="M577.79,296.43L577.79,296.43c8.37,1.18,13.99,10.92,12.47,21.64l-3.97,28.08
		c-1.51,10.72-9.6,18.52-17.98,17.34l0,0c-8.37-1.18-13.98-10.92-12.47-21.64l3.97-28.08C561.34,303.05,569.42,295.25,577.79,296.43
		z"/>
	<g>
		<path class="st10" d="M524.7,289.4c-1.84,6.76,2.15,13.74,8.92,15.57c0.19,0.05,0.38,0.1,0.57,0.14
			c-0.18-4.71,0.23-9.31,1.26-13.52l0.92-3.77C538.24,280.11,527.77,278.09,524.7,289.4z"/>
		<path class="st10" d="M627.09,314.42c-1.49,6.85-8.24,11.2-15.09,9.71c-0.19-0.04-0.38-0.09-0.57-0.14
			c2.33-4.1,4.1-8.36,5.12-12.58l0.92-3.77C619.35,299.92,629.57,302.96,627.09,314.42z"/>
	</g>
	<path class="st9" d="M593.37,230.38L593.37,230.38c-22.3-5.45-45.16,8.95-50.79,32l-9.31,38.12
		c-5.63,23.05,14.07,47.54,30.32,51.82l0,0c13.09,3.39,45.16-8.95,50.79-32l9.31-38.12C629.31,259.14,615.67,235.82,593.37,230.38z"
		/>
	<path class="st10" d="M597.46,318.02c-3.24-0.73-6.47,1.31-7.19,4.56c-0.73,3.24,1.31,6.47,4.55,7.2s6.47-1.31,7.2-4.56
		C602.74,321.97,600.7,318.75,597.46,318.02z"/>
	<path class="st10" d="M548.81,307.12c-3.24-0.73-6.47,1.31-7.2,4.55c-0.73,3.25,1.31,6.47,4.56,7.2c3.25,0.73,6.47-1.31,7.2-4.56
		C554.09,311.07,552.05,307.85,548.81,307.12z"/>
	<path class="st1" d="M573.39,316.07c-1.72,0-4.63-0.87-5.41-2.3l0.88-0.48c0.33,0.6,1.52,1.23,2.97,1.57
		c1.25,0.29,2.05,0.22,2.19,0.12c0.01-0.09,0.14-1.09-0.44-7.1l1-0.1c0.67,6.88,0.42,7.43,0.31,7.67c-0.17,0.38-0.61,0.58-1.33,0.61
		C573.5,316.07,573.45,316.07,573.39,316.07z"/>
	<g>
		<path class="st11" d="M566.7,278.74c0.79,0.62,0.93,1.77,0.31,2.55c-0.62,0.79-1.76,0.93-2.55,0.31
			c-0.02-0.01-4.73-3.83-10.6-1.88c-0.96,0.32-1.99-0.2-2.31-1.15c-0.32-0.96,0.2-1.99,1.16-2.31
			C560.45,273.68,566.68,278.73,566.7,278.74z"/>
		<path class="st11" d="M608.24,289.73c0.73,0.68,0.78,1.84,0.1,2.57c-0.68,0.74-1.84,0.78-2.57,0.1c-0.01-0.01-4.4-4.21-10.41-2.73
			c-0.98,0.24-1.97-0.36-2.21-1.34c-0.24-0.98,0.36-1.97,1.34-2.21C602.43,284.17,608.23,289.71,608.24,289.73z"/>
	</g>
	<path class="st12" d="M624.14,303.96c0,0-5.48-1.2-6.67,3.69c0,0-2.61-5.98-0.28-12.09c0,0-7.44-14.67-3.65-28.1
		c3.78-13.43,15.04-13.75,15.04-13.75C652.1,267.28,629.79,280.83,624.14,303.96z"/>
	<path class="st12" d="M532.14,281.48c0,0,5.42,1.46,4.22,6.35c0,0,5.07-4.1,5.82-10.6c0,0,13.36-9.59,16.2-23.25
		c2.84-13.66-7-19.13-7-19.13C524.23,236.04,537.78,258.36,532.14,281.48z"/>
	<path class="st12" d="M617.04,270.63c0,0-2.41,3.87-5.38,2.74c-2.96-1.13-5.94-3.68-3.67-7.98c0,0-10.08-12.58-19.29-12.2
		c-9.2,0.38-31.27,11.61-50.71,5.85c-19.44-5.76-15.39-20.29,3-40c14-15,29.94-18.42,61-8c31.06,10.42,30.42,29.18,26.57,42.67
		C624.72,267.2,617.04,270.63,617.04,270.63z"/>
	<path class="st13" d="M627.33,229.36c-25.03,15.46-65.96,29.49-107.68,4.63c1.16-2.6,2.67-5.18,4.57-7.7
		c1.8-2.4,3.71-4.61,5.72-6.63c36.54,21.34,70.8,13.24,93.06,3.03C624.49,224.45,626.28,227.55,627.33,229.36z"/>
	<g>
		<path class="st11" d="M554.84,300.16c2.78,0.68,5.58-1.02,6.25-3.8c0.68-2.78-1.02-5.57-3.79-6.25c-2.78-0.68-5.57,1.02-6.25,3.8
			C550.37,296.69,552.07,299.49,554.84,300.16z"/>
		<path class="st11" d="M595.37,310.06c2.78,0.68,5.57-1.02,6.25-3.8c0.68-2.77-1.02-5.57-3.8-6.25c-2.78-0.68-5.58,1.02-6.25,3.8
			C590.9,306.59,592.6,309.39,595.37,310.06z"/>
	</g>
	<path class="st6" d="M582.33,325.36c-1.2,4.9-8.91,7.91-13.81,6.71c-4.9-1.2-9.72-6.81-8.52-11.71c0.22-0.9,1.13-1.45,2.03-1.23
		l19.07,4.2C582,323.55,582.55,324.47,582.33,325.36z"/>
	<path class="st14" d="M284,602.53"/>
	<path class="st15" d="M382.27,911.63c0-0.36,0.42-0.67,0.99-0.64c0.59,0.03,1,0.45,0.89,0.8c-0.11,0.35-0.52,0.54-0.98,0.52
		C382.7,912.28,382.27,912,382.27,911.63z"/>
	<path class="st4" d="M484.33,917.8c0,0-1.32-0.95-1.32-3.82c0-11.12,17.43-5.7,23.9-9.54c5.46-3.24,14.38-11.42,14.53-21.47
		c0,0,0-5.63,6.49-5.63s7.97,0,10.2,0c2.22,0,5.93,1.71,6.49,5.02c0,0,4.27,0,6.58,0c2.32,0,5.65,0.5,5.65,7.44
		c0,6.94,0,21.91,0,23.67c0,1.76-0.68,3.87-1.82,4.33c0,0-0.45,2.36-0.73,2.61c-0.28,0.25-5.05,1.26-7.19,0.91
		c-2.13-0.35-8-3.49-8-3.49s-1.6-0.48-1.6-2.62c0,0-0.09-1.91-2.39-1.91c-2.29,0-6.84,1.93-7.42,2.29
		c-0.58,0.35-0.87,0.96-0.87,2.21c0,1.25-5.21,3.82-11.79,4.22C508.48,922.42,484.33,917.8,484.33,917.8z"/>
	<path class="st4" d="M655.88,920.96h-42.52c-0.8,0-1.45-0.71-1.45-1.58v-2.68c0-0.87,0.65-1.57,1.45-1.57h42.52
		c0.8,0,1.45,0.71,1.45,1.57v2.68C657.33,920.25,656.68,920.96,655.88,920.96z"/>
	<path class="st4" d="M618.51,920.96h-33.34c-0.8,0-1.45-0.71-1.45-1.58v-2.68c0-0.87,0.65-1.57,1.45-1.57h33.34
		c0.8,0,1.45,0.71,1.45,1.57v2.68C619.97,920.25,619.31,920.96,618.51,920.96z"/>
	<path class="st5" d="M555.1,496.53l16,106.5l12.43,288.06h27.94c0,0,27.3-201.25,19.07-311.72c-1.82-24.5-7.89-90-7.89-90
		L555.1,496.53z"/>
	<path class="st4" d="M601.08,915.16c0,0-5.86,3.14-8,3.49c-2.13,0.35-6.91-0.65-7.19-0.91c-0.28-0.25-0.73-2.61-0.73-2.61
		c-1.14-0.45-1.82-2.56-1.82-4.33c0-1.76,0-16.73,0-23.67c0-6.94,3.34-7.44,5.65-7.44c2.32,0,6.58,0,6.58,0
		c0.56-3.32,4.26-5.02,6.49-5.02c2.23,0,3.71,0,10.2,0s6.49,5.63,6.49,5.63c0.14,10.05,9.07,18.23,14.53,21.47
		c6.48,3.84,23.9-1.58,23.9,9.54c0,2.86-1.32,3.82-1.32,3.82s-24.15,4.62-30.73,4.22c-6.58-0.4-11.79-2.97-11.79-4.22L601.08,915.16
		z"/>
	
		<rect x="298.87" y="437.53" transform="matrix(0.9964 -0.085 0.085 0.9964 -36.018 29.9698)" class="st8" width="70.26" height="1"/>
	
		<rect x="312.87" y="450.53" transform="matrix(0.9964 -0.085 0.085 0.9964 -37.0722 31.2066)" class="st8" width="70.26" height="1"/>
	
		<rect x="324.87" y="464.53" transform="matrix(0.9964 -0.085 0.085 0.9964 -38.2186 32.2771)" class="st8" width="70.26" height="1"/>
	
		<rect x="343.87" y="476.53" transform="matrix(0.9964 -0.085 0.085 0.9964 -39.1697 33.9353)" class="st8" width="70.26" height="1"/>
	
		<rect x="363.9" y="489.03" transform="matrix(0.9966 -0.0821 0.0821 0.9966 -38.8474 34.0302)" class="st8" width="61.2" height="1"/>
	<path class="st2" d="M324.33,476.03l-29-21.33c0,0,45.33-3.06,46.67,4.33C343.33,466.43,324.33,476.03,324.33,476.03z"/>
	<path class="st6" d="M567.82,377.17c12.42,0,14.96-9.54,14.96-9.54l38.81,10.85c8.95,24.66,6.75,64.99,6.75,64.99
		c-6.47,41.84-4.81,45.69,0.48,87.29c0.54,4.23-0.54,9.1-0.54,9.1c-12.67,22.04-110.92,19.45-123.12-1.78c0,0-1.08-4.87-0.54-9.1
		c5.29-41.6,9.17-43.67,2.69-85.51c0,0,15.53-36.87,2.29-63.75l43.27-12.1C552.86,367.63,555.4,377.17,567.82,377.17z"/>
	<path class="st11" d="M160.93,401.79c0,0,10.55,51.36,14.62,85.58c4.07,34.22,59.73-15.49,59.73-15.49s51.39,10.78,35.6-19.85
		c-15.79-30.63-13.26-79.86-13.26-79.86l-52.95-0.24L160.93,401.79z"/>
	<path class="st1" d="M168.82,608.83l20.59,1.61l6.14,15.8l-28-5.65c-3.79-0.41-9.37-8.46-7.01-10.71
		C162.23,608.26,168.82,608.83,168.82,608.83z"/>
	<path class="st2" d="M206.16,610.51l-10.61,15.72l-20.2-4.08l22.5-33.68l4.36,2.87C208.6,595.55,210.37,604.13,206.16,610.51z"/>
	<polygon class="st16" points="188.88,603.47 124.09,555.93 143.55,528.03 198.85,588.55 	"/>
	<path class="st16" d="M142.28,549.42c-3.23,6.82-11.37,9.74-18.19,6.51c-6.82-3.23-9.74-11.37-6.51-18.19
		c3.23-6.82,11.37-9.74,18.19-6.51C142.59,534.45,145.51,542.6,142.28,549.42z"/>
	<path class="st16" d="M145.55,554.7l-26.09-19.57l42.76-59.09c6.37-8.59,28.88-13.54,36.48-6.02l0,0c7.6,7.52,6.78,28.44-1.75,34.9
		L145.55,554.7z"/>
	<path class="st16" d="M213.18,587.16l-50.31-103.8c-5.5-8.6,8.78-18.34,17.57-19.53l61.46-13.93c8.78-1.19,16.65,5.52,20.19,14.38
		l18.58,120.74L213.18,587.16z"/>
	<path class="st9" d="M236.47,452.42l-5.34-39.28c-1.53-11.29-9.83-19.56-18.43-18.39l0,0c-8.6,1.17-14.39,11.36-12.85,22.65
		l7.37,40.31C207.21,457.7,241.06,472.15,236.47,452.42z"/>
	<path class="st10" d="M212.69,394.74L212.69,394.74c8.6-1.17,16.9,7.11,18.43,18.39l4.42,32.49c-3.22,2.51-6.9,4.17-11.01,4.73
		c-7.35,1-13.39-0.59-19.99-6.99l-4.71-25.97C198.3,406.11,204.09,395.91,212.69,394.74z"/>
	<g>
		<path class="st10" d="M249.38,363.7c0.33-0.05,0.65-0.09,0.97-0.12l0.01,0l0,0c5.99-0.5,11.74,3.16,13.65,9.13
			c2.21,6.93-1.61,14.35-8.55,16.57c-6.94,2.21-14.36-1.61-16.57-8.55c-1.29-4.03-0.54-8.22,1.68-11.46
			c0.79,3.83,2.76,8.26,7.66,7.31l-2.31-7.24C244.99,366.4,247.33,364.22,249.38,363.7z"/>
		<path class="st10" d="M163,389.5c-0.3,0.14-0.6,0.28-0.88,0.43l-0.01,0.01l0,0c-5.28,2.86-8.08,9.08-6.41,15.12
			c1.95,7.01,9.22,11.12,16.23,9.17c7.01-1.95,11.12-9.22,9.17-16.23c-1.13-4.08-4.06-7.17-7.7-8.66c1.44,3.63,2.22,8.43-2.4,10.31
			l-2.04-7.32C168.15,389.35,165,388.81,163,389.5z"/>
	</g>
	<path class="st9" d="M225.53,440.04c-15.74,5.74-41.79-17.35-59.07-38.74l-9.33-30.45c-7.27-23.73,6.2-49.1,29.94-56.37l0,0
		c23.73-7.27,49.1,6.2,56.37,29.94l9.13,29.8C249.83,400.1,243.38,433.53,225.53,440.04z"/>
	<path class="st10" d="M240.34,387.59c-3.27-0.5-6.7,2.35-7.66,6.36c-0.96,4.01,0.91,7.67,4.18,8.17c3.27,0.5,6.7-2.35,7.66-6.36
		C245.48,391.74,243.61,388.09,240.34,387.59z"/>
	<path class="st10" d="M190.75,403.33c-4.51-0.6-8.4,2.07-8.69,5.96c-0.29,3.89,3.13,7.53,7.64,8.13c4.51,0.6,8.4-2.07,8.69-5.96
		C198.68,407.57,195.26,403.93,190.75,403.33z"/>
	<g>
		<path class="st11" d="M190.13,370.26c1.03,0.13,1.76,1.08,1.63,2.12c-0.13,1.03-1.08,1.77-2.12,1.63c-0.02,0-6.26-0.91-10.46,3.95
			c-0.69,0.79-1.89,0.88-2.68,0.2c-0.79-0.69-0.88-1.88-0.2-2.68C181.85,369.05,190.1,370.25,190.13,370.26z"/>
		<path class="st11" d="M233.05,357.99c1.02,0.22,1.67,1.22,1.45,2.24c-0.22,1.02-1.22,1.67-2.24,1.46c-0.02,0-6.16-1.42-10.75,3.09
			c-0.75,0.74-1.95,0.73-2.69-0.02c-0.73-0.75-0.72-1.95,0.02-2.69C224.9,356.12,233.02,357.99,233.05,357.99z"/>
	</g>
	<path class="st1" d="M211.63,401.33c-0.66,0-1.25-0.11-1.69-0.37c-1.47-0.87-1.36-5.04-1.17-7.44l1,0.08
		c-0.31,3.82,0.11,6.16,0.68,6.5c0.63,0.38,2.07,0.29,3.58-0.2c1.23-0.4,1.88-0.88,1.95-1.04l0.99-0.04
		c0.05,0.43-0.23,0.83-0.85,1.23C215.08,400.71,213.19,401.33,211.63,401.33z"/>
	<path class="st11" d="M153.67,384.62l4.3,8.84c0,0,5.78-1.01,7.31,3.99c0,0,2.34-6.36-0.44-12.55c0,0,6.83-15.66,2.11-29.36
		c-4.72-13.7-10.78-22.2-10.78-22.2S141.48,355.77,153.67,384.62z"/>
	<path class="st11" d="M254.03,353.89l1.39,9.73c0,0-5.36,2.4-3.83,7.4c0,0-5.5-3.95-6.67-10.64c0,0-14.43-9.15-18.19-23.15
		c-3.76-14-0.37-21.91-0.37-21.91S247.96,323.15,254.03,353.89z"/>
	<g>
		<path class="st11" d="M231.43,385.42c2.84-0.87,4.43-3.87,3.57-6.71c-0.12-0.39-0.28-0.75-0.47-1.09l0.53-0.39
			c0.54-0.41,1.06-0.96,1.46-1.69c0.18-0.32,0.06-0.74-0.26-0.91c-0.33-0.18-0.74-0.07-0.92,0.26c-0.39,0.71-0.93,1.2-1.47,1.54
			l-0.01,0c0.48-0.53,0.91-1.24,1.09-2.16c0.07-0.36-0.17-0.72-0.53-0.78c-0.37-0.07-0.72,0.17-0.79,0.54
			c-0.14,0.76-0.54,1.32-0.94,1.7l-0.07-0.04c0.29-0.43,0.52-1,0.51-1.7c-0.01-0.37-0.32-0.67-0.69-0.66
			c-0.37,0.01-0.67,0.32-0.66,0.69c0.01,0.5-0.2,0.88-0.41,1.12c-0.97-0.28-2.03-0.3-3.08,0.02c-2.84,0.87-4.43,3.87-3.57,6.71
			C225.58,384.69,228.59,386.28,231.43,385.42z"/>
		<path class="st11" d="M190.04,398.09c-2.84,0.87-5.84-0.73-6.71-3.56c-0.12-0.39-0.19-0.78-0.22-1.16l-0.65-0.03
			c-0.68-0.04-1.41-0.21-2.16-0.59c-0.33-0.17-0.46-0.57-0.3-0.9c0.17-0.33,0.57-0.47,0.9-0.3c0.72,0.37,1.44,0.47,2.08,0.45
			l0.01-0.01c-0.7-0.17-1.45-0.51-2.11-1.18c-0.26-0.27-0.26-0.69,0-0.95c0.26-0.26,0.69-0.26,0.95,0.01
			c0.54,0.55,1.18,0.79,1.73,0.88l0.03-0.07c-0.47-0.19-0.99-0.53-1.37-1.12c-0.2-0.31-0.11-0.73,0.2-0.93
			c0.31-0.2,0.73-0.11,0.93,0.2c0.27,0.42,0.66,0.61,0.97,0.7c0.64-0.78,1.52-1.39,2.56-1.71c2.84-0.87,5.84,0.73,6.71,3.56
			C194.48,394.22,192.88,397.22,190.04,398.09z"/>
	</g>
	<path class="st6" d="M227.95,405.91c1.53,5.01-3.75,11.9-8.76,13.43c-5.01,1.53-13.93-1.73-15.47-6.74
		c-0.28-0.92,3.86-1.45,4.78-1.73l14.8-4.53C224.22,406.06,227.66,404.99,227.95,405.91z"/>
	<path class="st11" d="M155.39,339.24c0,0,9.87-81.38,80.52-29.09c14.83,10.98,30.38,22.44,30.15,29.92
		C265.17,368.22,168.53,373.29,155.39,339.24z"/>
	<path class="st13" d="M156.17,333.34c0,0,45.06,35.71,101.44-5.1l-13.62-12.27c0,0-27.05,36.82-87.9,16.84L156.17,333.34z"/>
	<path class="st2" d="M403.91,464.93l-15.13,10.76l1.7-2.76c21.08-14.61,14.58-18.83,14.58-18.83s-21.75,12.7-21.38,13.57
		c0.37,0.87-10.61,18.51-10.61,18.51l-4.96,9.83l4.73,1.28l0.49,4.44c0,0,34.23-22.64,35.67-23.25
		c2.63-1.11,16.55-26.95,16.55-26.95S427.55,431.71,403.91,464.93z"/>
	<polygon class="st16" points="380.88,496.88 368.88,492.21 292.13,546.38 322.22,559.23 	"/>
	<path class="st16" d="M324.44,539.19l-31.77,13.84l-51.79-65.86c-10.74-7.72-7.67-31.03,1.02-37.27l-0.98,0.81
		c8.69-6.24,24.39-0.45,29.33,9.04L324.44,539.19z"/>
	<path class="st17" d="M160.88,397.53"/>
	<path class="st14" d="M157.87,392.1c-0.14-0.1-13.55-10.43-15.09-26.63c-1.03-10.82,3.35-21.74,13.02-32.47l0.37-0.41l0.37,0.41
		c0.32,0.35,32.41,34.78,66.8,32.86c16.16-0.92,30.39-9.7,42.3-26.08l0.81,0.59c-12.1,16.64-26.58,25.55-43.06,26.49
		c-0.97,0.06-1.94,0.08-2.9,0.08c-31.72,0-60.69-29.09-64.31-32.87c-9.22,10.38-13.39,20.91-12.4,31.3
		c1.5,15.77,14.57,25.82,14.7,25.92L157.87,392.1z"/>
	
		<rect x="163.38" y="412.95" transform="matrix(0.997 -0.077 0.077 0.997 -33.5697 13.9361)" class="st14" width="1" height="58.42"/>
	<path class="st18" d="M272.26,524.36l-0.75-0.66c20.46-23.39-16.61-62.93-16.99-63.33l0.72-0.69
		C255.62,460.09,293.31,500.3,272.26,524.36z"/>
	<path class="st2" d="M222.27,747.39c0,0-44.33,32.51-1.48,143.35l17.73-1.48V754.78L222.27,747.39z"/>
	<path class="st9" d="M219.08,885.27c0.11,4.05,3.34,8.4,3.45,11.66c-2.17,3.26-4.43,5.62-4.43,5.62l-0.82,4.99l12.29,33.64
		l9.9,3.27c0,0,11.6-3.29,10.56-3.73c-1.05-0.43-5.26-3.63-5.53-5.07c-0.27-1.45-4.83-23.65-4.52-30.57
		c0.23-5.11-1.92-12.12-1.43-17.36L219.08,885.27z"/>
	<path class="st2" d="M253.3,744.44c0,0-44.33,32.51-1.48,143.35l17.73-1.48V751.83L253.3,744.44z"/>
	<path class="st19" d="M214.74,920.09l-1.8,1.58l1.95,29.87h0.99c0,0,0.56-12.81,0.48-15.96c-0.08-3.15,2.2-6.73,4.02-7.32
		C222.2,927.66,214.74,920.09,214.74,920.09z"/>
	<path class="st1" d="M238.52,889.26c-0.15-11.21-0.29-22.41-0.35-33.62c-0.11-11.21-0.09-22.41-0.13-33.62
		c-0.05-11.21,0.02-22.41,0.04-33.62c0.01-11.21,0.13-22.41,0.21-33.62l0.13,0.21l-16.16-7.6l16.35,7.18l0.13,0.06l0,0.15
		c0.08,11.21,0.21,22.41,0.21,33.62c0.01,11.21,0.09,22.41,0.04,33.62c-0.04,11.21-0.02,22.41-0.13,33.62
		C238.82,866.85,238.67,878.06,238.52,889.26z"/>
	<path class="st20" d="M248.18,939.55c0,0-0.58,1.01-1.52,1.39c-0.94,0.39-8.9,1.13-10.74,0.76c-1.84-0.38-4.34-1.05-6.65-8.26
		c-2.31-7.22-10.41-30.85-10.56-31.54l1.03-1.2c0,0-1.47-0.51-1.92-0.47c-0.44,0.04-3.05,4.77-3.89,6.86
		c-0.84,2.08-1.89,12.3-1.38,13.92c0.51,1.62,5.53,3.8,10.51,14.22c4.98,10.43,3.4,16.05,12.09,15.82
		c8.69-0.22,17.55-0.45,20.57-0.52c3.01-0.07,4.25-2.65,3.99-3.8c-0.26-1.15-4.05-3.6-8.71-6.63
		C251.01,940.1,249.71,939.37,248.18,939.55z"/>
	<path class="st9" d="M250.11,882.32c0.11,4.05,3.34,8.4,3.45,11.66c-2.17,3.26-4.43,5.62-4.43,5.62l-0.82,4.99l12.29,33.64
		l9.9,3.27c0,0,11.6-3.29,10.56-3.73c-1.05-0.43-5.26-3.63-5.53-5.07c-0.27-1.45-4.83-23.65-4.52-30.57
		c0.23-5.11-1.92-12.12-1.43-17.36L250.11,882.32z"/>
	<path class="st19" d="M245.78,917.13l-1.8,1.58l1.95,29.87h0.99c0,0,0.56-12.81,0.48-15.96c-0.08-3.15,2.2-6.73,4.02-7.32
		C253.24,924.7,245.78,917.13,245.78,917.13z"/>
	<path class="st20" d="M279.21,936.59c0,0-0.58,1.01-1.52,1.39c-0.94,0.39-8.9,1.13-10.74,0.76c-1.84-0.38-4.34-1.05-6.65-8.26
		c-2.31-7.22-10.41-30.85-10.56-31.54l1.03-1.2c0,0-1.47-0.51-1.92-0.47c-0.44,0.04-3.05,4.77-3.89,6.86
		c-0.84,2.08-1.89,12.3-1.38,13.92c0.51,1.62,5.53,3.8,10.51,14.22c4.98,10.43,3.4,16.05,12.09,15.82
		c8.69-0.22,17.55-0.45,20.57-0.52c3.01-0.07,4.25-2.65,3.99-3.8c-0.26-1.15-4.05-3.6-8.71-6.63
		C282.04,937.14,280.75,936.42,279.21,936.59z"/>
	<path class="st21" d="M278.67,578.53c0,0,31.3,60.15-8.61,196.11l-65.52,1.48c0,0-44.37-171.59,5.63-197.09L278.67,578.53z"/>
	<path class="st18" d="M179.22,520.4l-0.69-0.73c0.19-0.18,18.36-18.17-7.06-54.35l0.82-0.57
		C198.24,501.67,179.42,520.21,179.22,520.4z"/>
	<polygon class="st6" points="595,371.36 584.88,359.03 567.82,377.17 581.67,389.36 	"/>
	<polygon class="st6" points="553.38,357.2 540.67,371.03 557,389.36 567.82,377.17 	"/>
	<polyline class="st6" points="567.98,377.13 581.83,389.32 595.17,371.32 	"/>
	<polygon class="st7" points="581.91,390.06 567.65,377.5 568.31,376.75 581.75,388.59 594.76,371.03 595.57,371.62 	"/>
	<polygon class="st7" points="557,390.12 540.29,371.36 541.04,370.7 557,388.61 567.44,376.84 568.19,377.5 	"/>
	<polygon class="st7" points="571.49,555.86 559.16,555.86 561.83,383.36 562.83,383.37 560.17,554.86 570.51,554.86 572.5,382.03 
		573.5,382.04 	"/>
	<path class="st3" d="M700.77,211.45c-35.33,0-63-11.53-63-26.25s27.67-26.25,63-26.25c35.33,0,63,11.53,63,26.25
		S736.1,211.45,700.77,211.45z M700.77,161.95c-32.52,0-60,10.65-60,23.25s27.48,23.25,60,23.25c32.52,0,60-10.65,60-23.25
		S733.29,161.95,700.77,161.95z"/>
	<path class="st3" d="M734.59,233.59c-4.54,0-9.96-1.29-16.04-3.88c-11.69-4.98-24.6-14.19-36.35-25.94
		c-24.98-24.98-36.39-52.7-25.98-63.11c10.41-10.41,38.13,1,63.11,25.98c24.98,24.98,36.39,52.7,25.98,63.11
		C742.76,232.31,739.11,233.59,734.59,233.59z M666.9,139.81c-3.6,0-6.54,0.95-8.55,2.96c-8.91,8.91,2.99,35.87,25.98,58.86
		c11.48,11.48,24.06,20.47,35.4,25.3c10.76,4.58,19.31,4.83,23.46,0.68c8.91-8.91-2.99-35.87-25.98-58.86
		C699.41,150.97,679.24,139.81,666.9,139.81z"/>
	<path class="st3" d="M673.88,240.2c-2.66,0-5.04-0.64-7.07-1.94l0,0c-6.12-3.92-8.14-13.2-5.69-26.15
		c2.36-12.49,8.59-27.07,17.55-41.06c8.96-13.99,19.59-25.76,29.94-33.13c10.73-7.64,20.01-9.69,26.13-5.78
		c12.4,7.94,7.19,37.46-11.85,67.21c-8.96,13.99-19.59,25.76-29.94,33.13C685.77,237.59,679.24,240.2,673.88,240.2z M727.68,133.22
		c-4.72,0-10.73,2.44-17.33,7.14c-10.05,7.15-20.4,18.63-29.16,32.3c-8.75,13.68-14.84,27.88-17.13,40
		c-2.17,11.49-0.58,19.9,4.36,23.06l0,0c4.95,3.17,13.24,1.09,22.77-5.69c10.05-7.15,20.4-18.63,29.16-32.3
		c17.53-27.39,23.38-56.27,12.76-63.07C731.6,133.7,729.77,133.22,727.68,133.22z"/>
	<circle class="st3" cx="687.21" cy="144.7" r="6.33"/>
	<circle class="st3" cx="691.21" cy="210.03" r="5.67"/>
	<circle class="st3" cx="738.88" cy="165.7" r="6"/>
	<ellipse class="st16" cx="309.67" cy="547.03" rx="19" ry="15"/>
	<path class="st3" d="M314.97,319.84c-26.47,0-47.2-8.74-47.2-19.89c0-11.15,20.73-19.89,47.2-19.89s47.2,8.74,47.2,19.89
		C362.17,311.1,341.44,319.84,314.97,319.84z M314.97,283.05c-23.96,0-44.2,7.74-44.2,16.89c0,9.16,20.24,16.89,44.2,16.89
		c23.96,0,44.2-7.74,44.2-16.89C359.17,290.79,338.93,283.05,314.97,283.05z"/>
	<path class="st3" d="M340.12,336.26c-10.07,0-25.23-8.27-39.21-22.25c-8.76-8.76-15.64-18.4-19.36-27.13
		c-3.9-9.16-3.89-16.37,0.05-20.31l0,0c3.94-3.94,11.15-3.96,20.31-0.05c8.73,3.72,18.37,10.6,27.13,19.36
		c18.71,18.71,27.2,39.55,19.31,47.44C346.36,335.31,343.53,336.26,340.12,336.26z M289.85,266.61c-2.64,0-4.74,0.69-6.13,2.08l0,0
		c-2.97,2.97-2.75,9.17,0.59,17.01c3.57,8.39,10.22,17.69,18.72,26.19c16.94,16.94,36.72,25.78,43.2,19.31
		c6.47-6.47-2.37-26.26-19.31-43.2c-8.5-8.5-17.8-15.15-26.19-18.72C296.56,267.5,292.86,266.61,289.85,266.61z"/>
	<path class="st3" d="M294.94,341.18c-2.02,0-3.84-0.48-5.41-1.49l0,0c-9.39-6.01-5.58-28.19,8.69-50.48
		c6.68-10.44,14.62-19.22,22.35-24.73c8.11-5.78,15.16-7.3,19.85-4.3c4.69,3,6.25,10.04,4.4,19.83
		c-1.76,9.33-6.41,20.21-13.09,30.65C319.84,329.24,305,341.18,294.94,341.18z M291.15,337.17c7.71,4.94,25.14-7.94,38.05-28.12
		c6.48-10.12,10.98-20.63,12.67-29.59c1.58-8.38,0.46-14.48-3.07-16.74c-3.54-2.27-9.55-0.72-16.49,4.22
		c-7.43,5.29-15.08,13.78-21.56,23.9C287.83,311.02,283.44,332.24,291.15,337.17L291.15,337.17z"/>
	<circle class="st3" cx="304.9" cy="269.85" r="4.71"/>
	<circle class="st3" cx="307.87" cy="318.4" r="4.21"/>
	<circle class="st3" cx="343.29" cy="285.45" r="4.46"/>
</g>
</svg>
